<svg xmlns="http://www.w3.org/2000/svg" width="919" height="1171" fill="none"><path fill="#EEF5F6" d="m885.133 325.375-302.45 7.167-58.054 364.804H835.68l49.453-371.971Z"/><path fill="#111F22" fill-rule="evenodd" d="M736.987 263.034c8.124.256 21.024.255 28.669-.002 7.644-.258.999-.467-14.769-.466-15.767.002-22.023.213-13.9.468Zm154.548 64.51c-.424 2.168-1.427 8.779-2.23 14.692-.803 5.912-5.962 43.002-11.466 82.421-5.504 39.419-11.668 83.604-13.695 98.189a53114.284 53114.284 0 0 1-9.433 67.37c-6.954 49.436-14.19 102.607-14.63 107.506-.318 3.533-.144 3.594 12.579 4.3l12.9.717.717 12.901.717 12.9 1.824-12.9c7.251-51.241 28.922-207.821 34.025-245.831 1.111-8.278 5.271-38.806 9.246-67.843 9.815-71.721 9.846-71.173-4.257-74.681-16.333-4.059-15.45-4.074-16.297.259Zm-282.579 2.894-28.692.388-4.743 30.431c-2.611 16.736-7.331 47.072-10.492 67.41l-5.746 36.981 7.947 10.322c10.027 13.027 13.742 17.329 14.351 16.619.265-.31 1.899-10.56 3.632-22.78 6.899-48.674 14.11-79.768 16.76-72.268 1.352 3.824 9.352 12.114 10.816 11.208.664-.41 1.207-.025 1.207.857 0 .881.645 1.204 1.434.717.788-.488 1.433-.243 1.433.543 0 1.383.95 1.58 8.601 1.784 28.46.763 50.001-41.508 36.757-72.127-4.958-11.463-1.371-10.784-53.265-10.085Zm146.927 26.49c-10.878 7.392-14.875 28.399-6.918 36.357 10.91 10.91 27.477-.77 30.886-21.775 2.461-15.167-11.03-23.375-23.968-14.582Zm-113.345 92.94c-11.084 11.084-10.451 43.449.925 47.203 6.374 2.103 6.258 2.244 11.506-13.889 7.907-24.304-.067-45.678-12.431-33.314Zm132.239 67.599c-8.369 12.795-8.112 15.412 1.515 15.412 15.939 0 26.75-19.121 14.467-25.586-6.027-3.172-8.126-1.836-15.982 10.174ZM486.84 628.722c-19.463 40.852-50.942 70.621-87.139 82.41-61.797 20.123-125.398 23.882-178.228 10.532l-13.385-3.383.966 6.439c2.803 18.691 15.612 46.702 26.451 57.85 4.478 4.606 7.993 8.523 7.809 8.707-.183.183 20.832.334 46.699.334 52.754 0 53.068.06 53.068 10.128 0 9.016-13.161 14.956-33.136 14.956h-6.384l-6.112 21.86c-19.895 71.139-16.902 132.959 8.917 184.225 10.306 20.47 17.327 22.12 78.284 18.42 28.137-1.71 30.661-3.5 40.811-28.84 22.813-56.968 26.098-138.823 7.935-197.736-4.817-15.627-5.567-14.665 8.098-10.382 10.603 3.324 21.304 5.392 38.974 7.532 9.514 1.151 10.88 3.776 12.269 23.556.526 7.489 1.949 18.777 3.16 25.084 1.213 6.307 2.39 12.435 2.616 13.618.227 1.182.774 3.117 1.216 4.3.441 1.183 2.226 6.665 3.965 12.184 3.638 11.546 11.142 27.213 17.507 36.552 29.513 43.291 30.849 45.677 39.735 70.954 12.392 35.258 16.093 37.778 59.898 40.778 48.035 3.3 49.454 2.28 61.809-44.361 28.595-107.961 18.336-190.544-30.602-246.343-3.211-3.661-6.713-7.784-7.782-9.163-1.848-2.383 2.067-2.509 77.785-2.509 74.935 0 79.737.151 79.843 2.509.067 1.498.404 1.787.835.716.905-2.242 5.108-2.329 7.285-.152 1.231 1.232 1.749-3.238 2.078-17.92l.439-19.559-104.248.001-104.248.003-23.326-18.726c-31.036-24.917-82.406-59.993-89.374-61.025-.727-.107-2.747 2.796-4.488 6.451ZM323.112 757.269c18.295 11.113 38.522 18.802 73.418 27.907 21.972 5.732 25.798 7.151 19.274 7.151-9.412 0-57.757-14.374-75.461-22.437-15.849-7.217-31.528-17.698-26.476-17.698.489 0 4.648 2.285 9.245 5.077Zm211.872 50.867c-2.729 1.491-37.202 6.062-38.198 5.066-1.749-1.747 1.528-2.551 18.434-4.52 9.667-1.126 17.874-2.346 18.24-2.711.366-.366 1.303-.271 2.083.212.845.521.62 1.31-.559 1.953ZM328.208 909.867c5.982 35.338 12.631 63.116 22.132 92.463 7.097 21.91 8.268 26.56 5.501 21.81-9.443-16.23-36.375-134.753-35.511-156.281.121-2.985.658-1.585 1.544 4.023.748 4.73 3.598 21.823 6.334 37.985ZM61.415 1020.46c-2.47 23.06 13.009 73.71 26.712 87.41 16.92 16.92 48.404 17.06 64.601.29 17.224-17.84 35.011-97.47 20.76-92.94-36.264 11.52-102.047 9.99-110.143-2.57-.516-.8-1.383 2.72-1.93 7.81Z" clip-rule="evenodd"/><path fill="#79AEB9" d="M298.023 327.6c-10.127-14.459 4.647-28.535 32.874-31.323 48.445-4.782 116.823 10.185 116.823 25.571 0 23.059-133.968 28.208-149.697 5.752Z"/><path fill="#769DA0" fill-rule="evenodd" d="M286.132 3.208c-5.043 2.192-9.54 8.453-12.097 16.844-2.536 8.321-5.744 10.506-12.471 8.49-23.029-6.899-41.265 12.817-28.83 31.167 6.409 9.458 6.051 10.41-6.43 17.106-23.492 12.606-20.237 56.883 4.479 60.936 11.608 1.904 16.972 7.702 20.639 22.309 4.895 19.491 30.599 22.735 46.507 5.868 5.237-5.553 10.813-8.603 15.726-8.603h3.684l-2.91 5.703c-15.808 30.986-3.547 84.196 20.016 86.862 7.424.84 9.234 1.636 12.128 5.334 5.474 6.995 12.673 5.982 20.461-2.878 5.279-6.008 6.354-6.641 8.6-5.066 9.522 6.682 11.456 4.236 16.676-21.103 3.75-18.201 7.275-21.958 15.143-16.14 11.103 8.208 20.531 1.343 22.515-16.395 1.34-11.995 1.93-12.636 7.703-8.377 8.11 5.983 13.429 3.844 19.312-7.765 2.516-4.965 4.785-7.346 8.216-8.619 15.768-5.854 17.831-8.766 13.308-18.794-10.828-24.011-58.195-42.095-97.44-37.2-5.591.697-5.765.585-7.014-4.462-2.293-9.277 1.869-15.584 10.306-15.613 21.629-.07 33.283-23.297 17.296-34.469-6.456-4.512-6.924-5.362-6.949-12.658-.086-24.949-23.851-41.826-42.363-30.086-12.233 7.757-15.977 7.372-26.88-2.77C313.07 1.3 298.64-2.23 286.132 3.21Zm-7.554 76.537c0 .691-1.017 2.102-2.259 3.132-1.623 1.346-2.009 3.218-1.369 6.627.65 3.466.369 4.75-1.038 4.75-5.289 0-7.222-8.477-2.996-13.145 2.433-2.688 7.662-3.618 7.662-1.364Zm-22.082 34.845c-.341 6.648-2.701 8.615-5.056 4.213-1.876-3.505.301-10.214 3.314-10.214 1.501 0 1.968 1.609 1.742 6.001Zm451.628 149.763c-3.996 3.995-.757 6.211 9.078 6.211h10.034v19.284c0 20.978 1.213 25.859 6.767 27.253 7.299 1.832 9.783-2.886 14.661-27.859l3.789-19.394 14.17-.413c13.993-.409 14.211-.364 17.398 3.583 3.684 4.563 8.051 3.425 8.904-2.32 1.056-7.123.003-7.301-43.408-7.301-22.241 0-40.868.43-41.393.956Zm175.354 60.47c0 .672-4.494 33.085-9.986 72.029-5.493 38.943-13.903 98.866-18.691 133.16-4.786 34.294-11.903 85.237-15.815 113.205-3.91 27.969-7.111 51.028-7.111 51.245 0 .216-53.005.393-117.789.393H596.295l3.367 3.583 3.367 3.584 118.364-.003 118.366-.003.28-3.939c.313-4.399 6.017-46.331 14.672-107.862a52860.04 52860.04 0 0 0 9.433-67.37c2.027-14.585 8.191-58.77 13.695-98.189 5.504-39.419 10.663-76.508 11.466-82.421.803-5.913 1.806-12.525 2.23-14.693.707-3.613.405-3.941-3.643-3.941-2.427 0-4.414.55-4.414 1.222ZM788.873 470.67c-2.76 1.2-10.178 3.833-16.485 5.851-14.04 4.493-36.552 15.824-36.552 18.398 0 3.379 3.459 3.228 10.034-.437 5.778-3.221 22.903-10.775 44.075-19.443 4.137-1.694 7.524-3.886 7.525-4.872.005-2.331-2.409-2.189-8.597.503Zm-385.588 53.538c0 17.691 13.818 43.982 33.205 63.178 18.59 18.406 57.1 40.68 57.1 33.026 0-.644-5.598-3.858-12.44-7.14-37.657-18.068-66.726-51.024-72.245-81.9-1.668-9.341-5.62-14.377-5.62-7.164Zm265.878 8.313c-2.417 24.218-8.86 45.003-19.334 62.369-8.389 13.908-7.06 18.423 1.683 5.718 13.768-20.009 29.243-77.763 20.837-77.763-1.691 0-2.451 2.309-3.186 9.676ZM117.344 732.482c-10.638 31.758-.898 217.52 11.406 217.52 2.769 0 2.771-4.039.007-20.784-8.768-53.128-11.972-130.829-7.152-173.443 2.793-24.691 2.782-25.085-.747-25.085-1.603 0-3.182.807-3.514 1.792Zm526.866 6.45c1.042 1.379 3.499 4.282 5.46 6.45l3.565 3.942h128.011l1.413 3.225c.778 1.774 4.561 13.724 8.405 26.556l6.993 23.329-2.526 20.39c-4.524 36.512-29.116 217.626-39.36 289.866l-4.065 28.67 4.955.46c6.999.64 6.377 2.95 13.845-51.34 3.742-27.2 8.953-64.94 11.581-83.86 2.627-18.919 8.706-63.427 13.508-98.904 8.958-66.186 10.413-74.785 12-70.953.488 1.182 11.782 39.884 25.096 86.004 13.313 46.12 31.872 110.133 41.239 142.253l17.032 58.4 11.109.01c6.573.01 11.109-.58 11.109-1.44 0-.8-11.958-42.89-26.573-93.53-59.67-206.76-69.813-242.806-69.674-247.601.164-5.639 4.256-35.145 5.43-39.149.665-2.268-.026-2.54-5.456-2.15l-6.216.447-1.277 7.526c-1.143 6.739-3.74 10.587-3.74 5.54 0-1.093-1.065-5.285-2.368-9.318l-2.368-7.331h-79.512c-75.493 0-79.417.126-77.616 2.508Zm-331.218 14.334c.021 1.781 15.749 11.34 27.351 16.623 17.705 8.063 66.049 22.438 75.461 22.438 6.524 0 2.698-1.419-19.274-7.152-34.896-9.105-55.123-16.793-73.418-27.907-8.626-5.24-10.141-5.839-10.12-4.002Zm-92.68 38.969c-31.26.972-37.409 4.33-31.968 17.465 2.459 5.937 3.79 6.232 30.254 6.715 13.722.251 15.22.535 14.724 2.788-.303 1.379-3.433 17.667-6.958 36.194-18.323 96.334-30.454 159.073-46.781 241.953-12.929 65.63-13.085 67.08-7.436 69.25 3.361 1.29 12.619.97 14.08-.49.552-.56 36.331-188.118 56.537-296.379 2.28-12.22 4.571-24.643 5.091-27.609 2.05-11.691 3.488-6.118 3.495 13.549.004 11.281.632 50.827 1.396 87.881l2.966 144.058c1.72 83.6 1.347 80.53 10.009 82.43 5.099 1.12 12.857-2.67 12.857-6.29 0-1.44-.617-10.61-1.369-20.39-.753-9.77-2.044-39.37-2.87-65.78-.826-26.41-2.182-68.34-3.012-93.176-6.484-193.852-9.677-167.709 20.477-167.709 38.683 0 51.277-3.674 51.277-14.957 0-10.627-24.798-12.546-122.769-9.503ZM533.46 805.97c-.365.366-8.573 1.585-18.24 2.712-9.667 1.125-17.951 2.421-18.408 2.88-2.236 2.236 2.25 2.247 18.488.05 17.786-2.407 22.91-3.781 20.243-5.43-.78-.483-1.717-.578-2.083-.212Zm-45.487 8.178c-.398 3.529-44.868 197.032-54.615 237.652l-4.65 19.38 4.578 7.45c4.618 7.5 10.024 21.09 10.263 25.79.191 3.72 4.332-12.41 14.981-58.38 5.206-22.47 16.289-69.878 24.629-105.355 8.341-35.477 15.125-65.471 15.076-66.654-.05-1.182-1.092-7.31-2.316-13.617-1.224-6.307-2.658-17.595-3.187-25.085-.759-10.753-4.205-26.089-4.759-21.181ZM320.33 867.859c-.864 21.527 26.068 140.051 35.511 156.281 2.767 4.75 1.596.1-5.501-21.81-11.708-36.165-18.438-67.006-28.466-130.449-.886-5.607-1.423-7.008-1.544-4.022ZM123.34 970.976c-.551.553-1.004 3.155-1.004 5.784 0 4.68-.127 4.777-6.221 4.777-32.011 0-66.443 26.723-45.74 35.503 22.756 9.65 106.621 6.01 106.399-4.61-.248-11.82-15.915-23.045-41.095-29.433-5.573-1.414-6.039-1.91-6.45-6.855-.423-5.086-3.377-7.677-5.889-5.166Z" clip-rule="evenodd"/><path fill="#A3A3A3" d="M274.035 20.052c2.557-8.39 7.054-14.652 12.097-16.844 12.508-5.438 26.938-1.91 39.331 9.621 10.903 10.142 14.647 10.527 26.88 2.77 18.512-11.74 42.277 5.137 42.363 30.086.025 7.296.493 8.146 6.949 12.658 15.987 11.172 4.333 34.4-17.296 34.47-8.437.028-12.599 6.335-10.306 15.612 1.249 5.047 1.423 5.159 7.014 4.462 39.245-4.895 86.612 13.189 97.44 37.2 4.523 10.028 2.46 12.94-13.308 18.794-3.431 1.273-5.7 3.654-8.216 8.619-5.883 11.609-11.202 13.748-19.312 7.765-5.773-4.259-6.363-3.618-7.703 8.377-1.984 17.738-11.412 24.603-22.515 16.395-7.868-5.818-11.393-2.061-15.143 16.14-5.22 25.339-7.154 27.785-16.676 21.103-2.246-1.575-3.321-.942-8.6 5.066-7.788 8.86-14.987 9.873-20.461 2.878-2.894-3.698-4.704-4.494-12.128-5.334-23.563-2.666-35.824-55.876-20.016-86.862l2.91-5.703h-3.684c-4.913 0-10.489 3.05-15.726 8.603-15.908 16.867-41.612 13.623-46.507-5.868-3.667-14.607-9.031-20.405-20.639-22.309-24.716-4.053-27.971-48.33-4.479-60.936 12.481-6.696 12.839-7.648 6.43-17.106-12.435-18.35 5.801-38.066 28.83-31.167 6.727 2.016 9.935-.169 12.471-8.49Z"/><path fill="#111F22" d="M443.466 209.201c.063-3.387 3.078-7 7.974-9.553 5.155-2.687 7.871-2.746 11.29-.246 4.353 3.183 1.814 7.118-3.797 5.885-3.991-.877-5.035-.417-8.386 3.689-3.869 4.741-7.168 4.846-7.081.225Zm17.4 14.314c-.259-1.831-.119-4.25.314-5.376 2.11-5.498 9.109.935 7.282 6.693-1.297 4.084-6.971 3.099-7.596-1.317Z"/><path fill="#646885" fill-rule="evenodd" d="M595.08 330.405c8.123.256 21.024.255 28.668-.002 7.644-.258.999-.467-14.768-.465-15.768.001-22.023.212-13.9.467Zm57.26 364.092c32.522.215 85.737.215 118.257 0 32.521-.215 5.913-.391-59.128-.391s-91.648.176-59.129.391Zm166.635 44.84c8.934 1.627 45.518 1.683 46.514.071.484-.784-10.078-1.303-26.075-1.282-18.374.025-24.847.409-20.439 1.211Z" clip-rule="evenodd"/><path fill="#A0B501" fill-rule="evenodd" d="M715.052 571.406c-9.304 5.813-20.547 22.137-25.042 36.365-1.936 6.129-2.478 6.311-8.486 2.866-7.052-4.043-10.909.803-10.905 13.705.01 34.144 38.717 45.687 62.923 18.765 19.913-22.149 20.552-53.402.861-42.145-1.971 1.127-3.956 2.071-4.412 2.1-.457.027-.78-6.62-.717-14.773.148-19.613-3.299-23.706-14.222-16.883ZM90.765 606.337c-17.082 8.641-19.863 28.231-8.75 61.654 12.43 37.385 1.45 46.506-15.904 13.215-15.178-29.119-32.684-37.392-47.086-22.253-13.586 14.282-11.708 35.91 7.969 91.801 8.607 24.445 6.295 35.56-8.96 43.066-31.081 15.299-21.32 49.546 24.134 84.668 14.347 11.087 19.81 18.649 25.092 34.736 12.05 36.705 31.803 57.372 54.76 57.298 3.721-.013 7.088.456 7.483 1.04 1.824 2.704 16.418-5.015 24.168-12.783 14.521-14.553 20.517-29.927 26.069-66.834 3.321-22.07 6.289-35.77 12.806-59.098 4.569-16.356 4.647-15.61-2.049-19.74-7.178-4.428-1.631-19.999 7.5-21.052 8.995-1.038 10.256-32.446 1.491-37.136-13.079-6.999-30.274 2.884-40.758 23.428-4.346 8.517-4.925 8.484-9.855-.574-8.414-15.458-6.386-33.756 7.854-70.863 16.097-41.948 15.674-62.802-1.656-81.699-17.381-18.953-46.978-27.639-64.308-18.874Zm32.434 135.683a2407.62 2407.62 0 0 1-2.298 24.501c-3.817 38.386-.718 102.281 7.687 158.503 3.373 22.569 3.386 24.974.129 24.974-7.015 0-16.408-79.321-16.425-138.706-.01-35.171 3.324-79.049 6.143-80.831 4.352-2.754 5.718.562 4.764 11.559Z" clip-rule="evenodd"/><path fill="#E0DBC7" fill-rule="evenodd" d="M705.878 320.092c-.329 6.777 12.081 7.759 62.927 4.984 15.66-.856 11.71-1.028-20.707-.906l-40.058.151-1.009-3.584c-.849-3.009-1.034-3.112-1.153-.645Zm-419.024 7.892c-60.206 31.791-132.308 286.752-102.992 364.195 3.273 8.646 18.676 24.808 23.762 24.931.788.02 8.529 1.753 17.201 3.853 44.724 10.83 85.563 10.117 141.926-2.472 60.786-13.579 83.885-30.271 115.132-83.203 7.408-12.548 7.649-11.218-2.986-16.563-43.359-21.799-80.622-67.828-76.782-94.845 1.047-7.353 5.949-3.718 7.885 5.846 6.725 33.225 34.371 64.671 72.97 83.003 6.062 2.878 11.299 6.297 11.639 7.597.34 1.3 2.603 3.536 5.028 4.968 2.426 1.434 3.955 1.868 3.398.966-1.372-2.22-.048-2.098 13.758 1.256 34.298 8.335 85.647 5.894 107.351-5.103 8.53-4.323 19.625-13.832 18.849-16.159-.322-.969 1.382-4.832 3.789-8.583 10.511-16.381 17.549-37.131 20.27-59.772 1.788-14.886 4.095-23.651 6.221-23.651 5.669 0-16.76-12.438-27.453-15.223-4.355-1.134-8.619-2.957-9.478-4.051-5.719-7.284-35.503-8.519-44.268-1.833-5.739 4.377-8.179 4.915-8.179 1.8 0-1.157-.806-1.803-1.792-1.433-3.407 1.276-24.645-26.849-23.519-31.148.357-1.366-.042-2.345-.888-2.175-1.407.284-5.806-8.734-18.379-37.676-15.67-36.07-38.673-64.238-63.365-77.59-22.231-12.022-28.674-14.154-35.576-11.773-44.03 15.191-128.175 12.892-142.295-3.889-4.154-4.936-4.265-4.949-11.227-1.273Zm479.801 100.557c8.122 4.657 9.935 22.804 4.16 41.629-.423 1.379-.176 2.509.549 2.509 2.447 0 5.116-28.694 3.294-35.424-1.518-5.608-5.942-10.504-9.398-10.402-.809.024-.182.784 1.395 1.688Z" clip-rule="evenodd"/><path fill="#B2D1D7" fill-rule="evenodd" d="M750.304 288.126c-7.955 43.155-24.501 44.787-24.501 2.415V272h-7.771c-8.877 0-8.018-1.55-11 19.848-1.621 11.631-1.217 28.405.76 31.606 1.511 2.444 85.117.891 87.636-1.629 1.117-1.116-10.672-44.188-13.146-48.033-1.908-2.965-3.152-3.226-15.409-3.226h-13.332l-3.237 17.56Zm4.775 141.577c-14.751 7.301-19.979 47.93-5.826 45.277 2.476-.465 8.195-1.26 12.709-1.769 9.248-1.042 8.846-.466 11.237-16.115 3.62-23.694-3.585-34.588-18.12-27.393Zm59.595 277.834c0 2.244-.418 9.985-.931 17.201l-.931 13.121h52.032v-14.933c0-21.253 2.379-19.469-25.955-19.469h-24.215v4.08Z" clip-rule="evenodd"/><path fill="#C69127" fill-rule="evenodd" d="M790.106 298.618c6.446 23.705 9.647 29.051 12.671 21.17 1.697-4.424-10.706-38.758-15.144-41.918l-3.933-2.8 6.406 23.548Z" clip-rule="evenodd"/><path fill="#E1FF01" fill-rule="evenodd" d="M690.015 446.334c-14.521 12.217-14.818 38.475-.505 44.455 13.182 5.508 26.153-6.848 26.227-24.984.075-17.952-14.456-28.952-25.722-19.471Zm118.209 12.581c-11.842 5.226-12.335 12.824-.875 13.479 10.642.608 10.985.34 10.411-8.141-.547-8.111-1.741-8.78-9.536-5.338ZM580.923 1038.36c-8.388 21.74-15.802 63.12-12.271 68.5 9.304 14.2 45.799 20.17 106.008 17.34 26.912-1.27 27.01-1.34 23.978-16.75-4.004-20.35-11.079-32.67-30.609-53.3l-11.994-12.66-27.111-1.34c-25.556-1.27-38.203-2.68-43.934-4.91-1.858-.72-2.89.07-4.067 3.12Zm-205.28 4.26c-.488.49-12.356 1.05-26.375 1.24l-25.491.35-3.927 13.46c-13.61 46.62-12.803 54.03 6.688 61.33 20.749 7.76 114.563 8.25 117.494.61 4.723-12.31-10.871-44.05-33.55-68.3l-8.959-9.57h-12.498c-6.873 0-12.895.39-13.382.88Z" clip-rule="evenodd"/><path fill="#844734" fill-rule="evenodd" d="M464.964 169.195c-1.946.986-4.986 4.041-6.755 6.788-6.366 9.89-7.791 11.433-11.377 12.335-2.54.636-4.891-.01-7.769-2.137-6.874-5.083-7.266-4.67-9.212 9.641-2.183 16.077-11.491 21.924-22.623 14.212-8.115-5.622-11.294-1.863-15.31 18.103-4.073 20.247-8.833 26.962-14.377 20.281-2.92-3.517-5.079-2.667-10.73 4.23-4.115 5.021-6.525 6.647-10.892 7.345-5.092.814-5.691 1.375-6.516 6.093-.501 2.859-1.805 9.594-2.899 14.967-1.095 5.374-1.989 10.6-1.989 11.615 0 1.327 4.265 2.121 15.185 2.826 17.71 1.146 40.941 4.258 53.287 7.137 8.482 1.978 8.698 1.955 9.502-1.043 1.938-7.223 1.093-9.157-4.462-10.199-32.586-6.114-39.153-50.661-8.811-59.753 6.592-1.976 10.553-.486 10.553 3.969 0 2.26-1.13 2.731-6.795 2.834-19.799.36-23.231 29.081-4.985 41.726 16.212 11.235 34.475 2.913 38.932-17.741 1.245-5.768 4.662-8.996 5.957-5.625 1.942 5.063-2.986 18.954-10.351 29.177-2.861 3.972-1.32 4.186 8.614 1.196 25.537-7.686 35.563-42.634 25.937-90.426-1.955-9.707-7.552-29.432-8.332-29.363-.132.011-1.834.827-3.782 1.812Zm-2.234 30.21c4.294 3.141 1.82 7.12-3.676 5.913-3.847-.845-4.972-.337-8.483 3.827-4.658 5.526-8.229 4.275-6.577-2.304 1.763-7.024 13.13-11.535 18.736-7.436Zm5.775 19.559c1.486 4.682-.538 8.829-4.065 8.326-3.171-.452-4.821-5.08-3.26-9.147 1.17-3.047 6.279-2.475 7.325.821Zm287.399 255.859c-21.831 5.123-30.67 9.125-45.132 20.43-10.82 8.456-22.158 14.706-32.063 17.67-7.151 2.14-8.541 4.352-5.874 9.337 1.528 2.856 1.562 6.261.179 18.048-2.395 20.418 37.153 24.305 69.842 6.868 28.099-14.991 55.516-64.464 35.725-64.464-.74 0-.971-.604-.513-1.344 1.095-1.772-14.121 4.452-28.244 11.553-6.184 3.109-11.86 5.271-12.616 4.805-4.797-2.966 3.991-9.137 26.352-18.501 14.876-6.23 10.602-8.688-7.656-4.402ZM812.431 703.9c-.396 1.032-.515 9.578-.262 18.992l.455 17.118.309-18.204.308-18.205 8.242-.517 8.242-.518-8.286-.27c-5.71-.187-8.512.312-9.008 1.604Z" clip-rule="evenodd"/><path fill="#E1FF01" d="M414.389 290.094c-28.586-8.604-33.606-48.195-7.299-57.573 7.193-2.565 9.792-2.556 11.946.04 3.32 4 .582 6.926-5.563 5.943-19.041-3.045-23.923 29.3-6.242 41.361 16.769 11.438 33.739 4.776 39.366-15.457 1.403-5.045 2.918-7.624 4.681-7.965 5.5-1.067-.632 19.278-8.881 29.466-3.7 4.57-19.089 6.869-28.008 4.185Z"/></svg>