<svg xmlns="http://www.w3.org/2000/svg" width="449" height="498"><path d="M396.54 297.473c-.18.097-.31.246-.5.996-.849 6.5-1.563 12.449-2.337 18.39-.441 3.395-.875 6.797-1.531 10.153-.297 1.543-1.11 2.98-1.871 4.14-.688-2.738-1.528-5.14-1.625-7.574-.293-7.148.273-14.371-.528-21.45-1.468-12.987 1.313-25.503 3.02-38.167.57-4.258 1.187-8.516 1.664-12.785.074-.684-.477-1.434-.742-2.153-.512.606-1.098 1.168-1.5 1.84-.207.352-.067.899-.13 1.348-.827 6.16-1.737 12.312-2.487 18.488-.993 8.133-2.72 16.29-2.598 24.414.242 16.578 1.5 33.14 2.36 49.711.218 4.25 1.015 4.008-3.954 4.38-7.578.573-15.18.839-22.75 1.44-1.761.141-3.453 1.114-5.176 1.704 1.82.265 3.645.843 5.442.754 9.41-.473 18.808-1.114 28.27-1.309.292 2.191.64 3.992.745 5.809.981 16.984 1.91 33.968 2.872 50.945.656 11.527 1.18 23.066 2.132 34.566.254 3.075-.09 3.871-3.316 3.825-10.77-.172-21.543.023-32.742.023-.985-.012-1.54.031-2.465-.035-5.988.015-11.613.14-17.648.195-.957.012-1.504.086-2.329.016-.91-.196-1.543-.242-2.148-.348.027-.055-.078-.11-.047-.41-.023-.7-.078-1.094-.09-1.82-.035-.762-.125-1.192-.164-1.88-.148-.722-.347-1.187-.515-2.062-.23-4.043-.372-7.68-.778-11.297-.906-8.168-2.02-16.304-2.898-24.472-.969-8.965-1.719-17.957-2.672-26.93-.883-8.285-1.84-16.566-2.942-24.832-.199-1.492-1.253-2.879-1.847-4.668.644-2.434 1.894-4.566 1.7-6.559-1.415-14.476-3.13-28.93-4.712-43.613-.07-.531-.27-.746-.547-1.289-1.562-16.312-3.14-32.207-4.683-48.477-.903-8.343-1.828-16.32-2.715-24.68-.047-1.878-.25-3.386-.184-4.874.055-1.274.02-2.871.727-3.746 2.351-2.899 5.027-5.54 7.637-7.895.386 4.32.542 8.278 1.113 12.18.246 1.656 1.097 3.379 2.125 4.73 1.996 2.63 4.89 1.73 7.594 1.438 9.957-1.094 19.91-2.219 29.875-3.219a2497.41 2497.41 0 0 1 35.8-3.363c1.848-.16 3.75.406 5.703 1.047.098 7.808.043 15.207.172 22.601.04 2.063.618 4.117.922 6.582-.695 6.078-1.262 11.766-2.066 17.422-1.477 10.258-3.086 20.508-4.637 30.77Zm-39.618-36.868c-3.04 4.81-6.07 9.622-9.117 14.434-4.735 7.465-6.16 5.547-9.973.004-4.664-6.79-8.727-13.992-13.047-21.016-1.965-3.191-3.87-6.418-5.922-9.558-.289-.45-1.238-.469-1.883-.684-.046.664-.34 1.445-.097 1.973.62 1.344 1.472 2.582 2.25 3.851 5.683 9.313 11.238 18.703 17.094 27.907 3.964 6.234 8.55 6.195 12.453.117 5.425-8.442 10.75-16.95 16.07-25.45 1.34-2.14 2.566-4.351 3.734-6.593.223-.422-.097-1.133-.168-1.715-.558.293-1.355.438-1.64.898-3.176 5.059-6.27 10.172-9.754 15.832Zm0 0" style="stroke:none;fill-rule:nonzero;fill:#79aeb9;fill-opacity:1"/><path d="M403.258 248.863c-.332-2.058-.91-4.113-.945-6.175-.13-7.395-.079-14.793-.004-22.907.972-2.898 2.668-5.105 2.605-7.261-.383-13.532-.691-27.09-1.941-40.551-.961-10.367-3.27-20.61-4.993-30.906-.695-4.168-1.238-8.372-2.144-12.493-2.2-9.957-3.805-20.172-10.57-28.418-2.192-2.668-4.57-5.175-6.864-7.761.891-2.34 1.79-4.672 2.676-7.016 3.938-10.379 10.805-17.508 21.672-20.836 17.125-5.242 33.21 2.246 41.195 16.793 3.461 6.305 4.828 13.168 4.86 20.066.207 46.973.11 93.942.105 140.915 0 4.726-.027 4.75-4.715 4.753-11.87.016-23.75-.023-35.62.043-1.415.012-2.825.532-4.544 1.262-.46.461-.617.477-.773.492Zm0 0" style="stroke:none;fill-rule:nonzero;fill:#254147;fill-opacity:1"/><path d="M334.313 442.93c.093.43.183.86.03 1.757-.081.973.087 1.481.247 1.981 0 0 .105.059.101.316-.003.258.082.668.024.903-.082.39-.11.547-.559.672-15.937-.086-31.457-.141-46.992-.614-.027-11.695-.047-22.972.004-34.601-.059-1.309-.176-2.258-.324-3.559-2.114-9.598-2.567-10.441-6.965-16.715-3.836-5.468-8.836-9.476-14.824-12.675-.325-.399-.578-.512-1.215-.59-4.3-1.5-8.156-3.063-12.594-2.871-1.82.078-3.805-2.293-5.543-2.09-1.988.234-3.473 2.941-6.101 1.722.375-.937.714-2.027 1.101-2.043 3.23-.12 3.555-2.136 3.488-4.707-.101-4.117-.199-8.242.028-12.351.172-3.137-1.418-4.762-4.09-4.969-6.793-.531-13.606-.918-20.41-.965-5.281-.035-10.567.703-15.852.77-3.453.043-6.914-.797-10.363-.746-7.117.093-14.223.656-21.336.773-8.98.14-17.969.11-26.945-.004-3.457-.043-6.93-.89-10.364-.726-6.922.328-13.824 1.308-20.75 1.593-3.898.164-7.82-.734-11.742-.789-9.59-.129-19.183-.054-28.777-.02-1.024.009-2.086.243-3.07.567-2.543.844-4.993 1.988-7.575 2.664-5.445 1.43-6.226 2.145-6.125 7.93.07 3.926.707 7.836.836 11.762.149 4.726.016 9.453.043 14.183.024 5.028.848 5.88 5.797 5.895 8.524.027 17.05.055 25.578-.02 2.676-.023 4.59.477 3.809 3.7-12.293-.004-24.16.023-36.215-.215-1.23-.407-2.281-.547-3.41-1.114a950.927 950.927 0 0 1-.184-17.347c0-1.414-.027-2.438-.027-3.883.02-7.36.016-14.309.055-21.64.02-1.423 0-2.466.011-3.856.098-1.29.16-2.227.434-2.95.71 1.907 1.219 3.59 3.293 1.489 15.789.035 31.574.066 47.36.082.718 0 1.44-.152 2.16-.238-.567-.364-1.364-.598-1.665-1.118-.695-1.218-1.636-2.57-1.64-3.87-.043-13.383.09-26.766.156-40.15.031-5.636.316-5.944 5.797-5.944 26.754-.012 53.508-.024 81.058.003 1.817.016 2.832-.011 4.239.036.715 1.09 1.32 2.117 1.324 3.144a4953.36 4953.36 0 0 1 0 42.926c-.004 1.273-.668 2.535-.8 3.824-.056.485.444 1.39.827 1.477.836.183 1.758-.043 2.735-.078.09.015.191.18.257.203.067.023.329.105.743.015 9.941-.285 19.468-.636 28.992-.632 21.133.015 42.265.21 63.672.363.691.3 1.113.57 1.297 1.14-12.899 1.051-25.559 1.844-38.227 2.524-4.406.234-5.398 1.031-5.457 5.344-.047 3.812.078 7.625-.035 11.433-.082 2.696.765 3.684 3.672 4.48 11.71 3.204 23.105 7.02 29.816 18.676 1.242 2.16 2.863 7.16 7.766 4.204.281-.172 1.16.254 1.48.636.457.54.203 2.028 1.512.477 2.254-2.688 5.344-2.508 8.406-1.867 2.797.586 5.55 1.765 8.36 1.883 4.945.199 9.918-.211 14.91-.063.617.711 1.207 1.121 1.855 1.68.149.203.242.25.336.297-.129-.153-.25-.305-.414-.758-.617-.711-1.21-1.117-1.766-1.906.317-4.434.684-8.485.848-12.543.11-2.723.809-5.93-.324-8.086-1.723-3.266-1.426-6.434-1.438-9.692-.011-3.8-.234-7.437-1.703-11.094-.89-2.222-1.629-3.87-4.129-4.003-6.023-.329-12.05-.54-18.062-.938-1.54-.098-3.051-.707-4.512-1.293.317-.562.563-.914 1.25-1.3 8.676-.044 16.918-.048 25.16-.051.656 1.433 1.711 2.816 1.91 4.312 1.102 8.258 2.059 16.54 2.942 24.832.957 8.969 1.703 17.965 2.672 26.93.882 8.168 1.992 16.308 2.898 24.472.402 3.61.543 7.254.758 11.559.121 1.129.297 1.59.476 2.055Zm-151.415-96.875c1.426 1.18 4.204-.086 4.809 2.652.012.05.7-.043 1.07-.066-.25-1.305 4.672-2.477.086-3.98-.511-.169-.66-1.427-.988-2.173-.418-.945-.914-2.703-1.262-2.675-1.195.097-2.765.492-3.41 1.363-2.437 3.273-3.914 3.355-7.672 2.113-4.074-1.34-8.426-3.465-12.789-.144-.945.714-2.734 1.062-3.824.687-2.082-.715-3.856-.844-5.488.668-.254.227-.055 1.48.058 1.5 1.89.32 3.797.621 5.711.707 2.344.098 4.7-.023 7.051-.012 1.363.004 2.738.2 4.098.121 3.914-.23 7.824-.558 12.55-.761Zm-51.539.726c2.223-.281 4.446-.535 6.657-.875.515-.078.98-.472 1.464-.719-.386-.343-.714-.832-1.167-1.003-2.329-.883-4.692-1.668-7.032-2.516-1.93-.703-4.344.289-4.793 2.184-.62 2.597 1.672 1.828 2.867 2.32.426.172.84.351 2.004.61Zm-9.793-2.531c-1.96-.008-3.921-.059-5.879.004-.289.012-.613.508-.796.844-.059.097.293.625.449.62 2.305-.081 4.867 1.43 6.226-1.468Zm-14.511-8.648-.672-1.997c-.375.504-.844.973-1.102 1.532-.172.379-.148.922-.027 1.336.258.886.633 1.734.96 2.601.282-.914.563-1.82.84-3.472Zm40.84 10.144c-.356-.047-.715-.101-1.067-.148-.004.254-.004.511-.008.765.356-.039.715-.078 1.075-.617ZM301.28 398.72l.098-.168s-.192.023-.098.168Zm1.832 0 .098-.168c-.008 0-.191.023-.098.168Zm0 0" style="stroke:none;fill-rule:nonzero;fill:#e0dbc7;fill-opacity:1"/><path d="M378.105 92.3c2.59 2.677 4.97 5.188 7.16 7.86 6.766 8.242 8.372 18.457 10.57 28.414.911 4.121 1.454 8.324 2.145 12.492 1.72 10.301 4.032 20.54 4.993 30.91 1.254 13.465 1.566 27.024 1.941 40.551.063 2.153-1.64 4.356-2.691 6.844-2.043.074-3.95-.488-5.79-.332a2497.938 2497.938 0 0 0-35.804 3.363c-9.965 1.004-19.914 2.121-29.871 3.22-2.707.296-5.598 1.194-7.598-1.438-1.027-1.352-1.879-3.07-2.12-4.727-.575-3.902-.731-7.863-.974-12.477 7.657-9.847 15.442-18.867 22.754-28.25 5.985-7.683 10.696-16.14 11.094-26.246.164-4.195-.137-8.402-.164-12.992-.625-5.48-.648-10.773-2.129-15.62-3.23-10.583-8.98-19.645-18.363-26.056-1.895-1.293-3.469-3.058-5.195-4.609 2.671-1.523 5.363-3.004 7.98-4.613.598-.367 1.219-1.149 1.305-1.809.195-1.48.058-3.004.257-5.078.38-.855.563-1.137 1.063-1.55 1.043-.321 1.762-.614 2.496-.684 7.113-.668 14.227-1.301 21.34-1.938 2.633 3.36 1.98 6.965-1.5 8.328-.684.266-1.356.567-2.031.856-.387.16-.778.316-1.164.472.367.22.714.575 1.109.641.812.137 1.867.473 2.437.117 5.024-3.125 8.961-.418 12.961 2.207 1.137.739 2.332 1.371 3.79 2.145Zm0 0" style="stroke:none;fill-rule:nonzero;fill:#e1ff01;fill-opacity:1"/><path d="M203.973 248.094c-.008-24.832.058-49.668-.051-74.5-.059-13.43 9.324-23.38 20.426-26.692 10.886-3.246 19.824-.394 28.324 6.028.426.324.941.52 1.414.765.05-.449.14-.902.14-1.351.016-3.871-.152-7.754.044-11.621.496-9.907 0-20.157 4.816-29.153 2.719-5.082 6.648-9.824 10.976-13.636 4.098-3.606 9.31-6.051 14.274-8.512 2.77-1.375 6.023-2.371 9.082-2.442 7.988-.175 16.11-1.101 23.887 1.715 2.382.864 4.648 2.063 6.922 3.657-3.008 1.023-6.098 1.125-8.914 2.05-12.543 4.118-21.172 12.344-25.497 24.977-2.828 8.258-3.503 16.851-3.492 25.43.008 8.39-.148 16.629-3.996 24.546-.39.672-.539 1.196-.945 1.875-3.38 3.813-6.41 7.551-9.649 11.098-3.859 4.227-8.054 8.152-11.808 12.469-3.168 3.644-7.172 7-7.02 12.758-.5 2.027-1.441 4.406-.648 5.78 1.738 3.009 4.347 5.505 6.472 8.481-2.808 2.133-5.25 4.621-8.207 5.707-3.609 1.325-7.652 1.422-11.496 2.125-12.464 2.27-16.218 7.145-17.086 17.543-.437.293-.582.543-1.039.98-3.453.083-6.504.036-9.754-.312-1.933-.117-3.68.067-5.707.348a5.984 5.984 0 0 1-1.468-.113Zm0 0" style="stroke:none;fill-rule:nonzero;fill:#254147;fill-opacity:1"/><path d="M359.688 447.008c10.769-.055 21.546-.254 32.32-.082 3.222.054 3.566-.75 3.312-3.82-.949-11.5-1.472-23.04-2.129-34.567-.964-16.984-1.894-33.969-2.87-50.95-.106-1.812-.454-3.612-.75-6.085.241-1.086.538-1.512 1.261-1.91 8.313.035 16.195.039 24.078.062 1.617.008 3.043-.023 2.996-2.3-.156-7.399-.273-14.801-.308-22.208-.016-3.812.222-7.625.25-11.441.03-4.777-.024-9.55-.043-14.328 8.82-.047 17.64-.086 26.465-.145 2.707-.02 4.468.5 4.386 3.996-.207 9.372-.031 18.75-.031 28.125.008 15.723-.012 31.446-.012 47.168 0 5.422.04 10.84.032 16.262-.004 4.145-.028 4.121-4.215 4.27-.825.027-1.64.32-2.461.492.879.133 1.785.476 2.629.355 2.918-.41 3.976.68 3.957 3.68-.086 15.203-.008 30.41-.02 45.617 0 .403-.355.805-.992 1.196-.668.062-.89.128-1.113.199.207.23.418.453.629.683.015.403.027.809-.387 1.461-1.887-.023-3.336-.476-4.8-.543-8.09-.367-16.185-.613-24.274-.984-1.153-.055-2.29-.578-3.282-1.156.93-.817 1.825-1.735.145-1.825-3.27-.175-6.566.055-9.848.22-3.242.163-6.48.452-9.77.343-1.464-.633-2.874-1.164-4.292-1.18-8.828-.086-17.66-.031-26.492-.09-1.454-.003-2.914-.336-4.372-.515Zm72.55-47.903c-.605.204-1.207.403-1.812.598.43.07.863.192 1.293.2 1.195.03 2.394.046 3.59.007.425-.015.843-.191 1.265-.297-.441-.183-.863-.468-1.312-.515-.739-.078-1.492.004-3.024.007Zm5.946.352 2.214-.031c-.562-.106-1.117-.211-2.214.031Zm0 0" style="stroke:none;fill-rule:nonzero;fill:#e0dbc7;fill-opacity:1"/><path d="M211.34 248.168c3.055.047 6.105.09 9.785.09.785-.059.945-.063 1.223.254.347 1.644.328 3.09.867 4.281.773 1.727 1.578 3.797 3.008 4.797 6.418 4.46 13.48 2.687 16.129-4.637.46-1.281 1.992-2.785 3.257-3.035 3.36-.672 6.848-.652 10.274-1.031 2.207-.242 4.39-.692 7.004-.985 5.343.375 10.277.891 15.207.938 12.113.117 24.222.023 36.336.008 1.578 15.898 3.152 31.793 4.285 48.132-17.594.446-34.746.489-51.899.368-1.609-.012-3.523-.711-4.757-1.739-1.91-1.586-2.582-.699-3.301.903.027-.008.066-.059-.305.027-3.933.371-7.492.863-11.058.899-14.172.148-28.348.152-42.934.14-3.797.184-7.172.45-10.555.711-1.02.024-2.035.047-3.437.031-2.961-.312-5.535-.715-8.125-.828-4.813-.215-5.89-1.144-5.903-5.894-.035-12.493-.023-24.98.032-37.477.02-4.215 1.566-5.68 5.754-5.691 6.968-.032 13.945-.032 21.328-.188.8-.07 1.195 0 2.27.063 2.304-.051 3.91-.098 5.515-.137Zm-65.074 249.727c-17.067.02-34.133.043-51.618-.43-.476-15.399-.523-30.305-.558-45.504-.246-.746-.516-1.203-.711-2.082.11-16.973.148-33.524.508-50.238 1.652-.301 2.992-.567 4.328-.567 16.035-.023 32.074-.012 48.113.418-.023 33.086-.043 65.742-.062 98.403Zm0 0" style="stroke:none;fill-rule:nonzero;fill:#7b786d;fill-opacity:1"/><path d="M93.309 450.297c.265.46.527.918.535 1.922-.34 15.554-.422 30.566-.496 45.578-10.645.055-21.293.14-31.934.156-18.562.027-37.121.016-55.684.008-4.902-.004-5.632-.703-5.64-5.441a9997.199 9997.199 0 0 1 0-37.942c.008-4.082.98-5.09 5.062-5.234 2.891-.102 5.782-.024 9.262.219 1.746.07 2.899-.102 4.473-.247 11.66.008 22.902-.007 34.398.133 1.61 2.922 2.555.574 4.04-.11 10.523.005 20.632-.042 30.737.044 1.758.02 3.5.597 5.247.914Zm0 0" style="stroke:none;fill-rule:nonzero;fill:#e0dbc7;fill-opacity:1"/><path d="M212.074 384.922c.043 2.168 1.66 2.629 3.317 3.121 9.136 2.73 16.246 8.035 20.21 16.863 1.903 4.235 3.208 8.64 3.172 13.531-.18 26.208-.082 52.418-.078 79.051-13.27.426-26.55.426-39.82 0-.418-27.636-.39-54.832-.46-82.027-.009-2.527-.677-5.055-1.036-7.832.101-.586.191-.91.59-1.285 1.98-1.098 1.742-2.313.652-3.88.277-1 .512-1.714.742-2.636-.011-.207 0-.613.215-.687.215-.079.668-.086.895-.223.379-.445.523-.762.668-1.39 2.879-5.094 6.011-9.645 10.933-12.606Zm0 0" style="stroke:none;fill-rule:nonzero;fill:#254147;fill-opacity:1"/><path d="M282.57 169.215c3.61-7.778 3.77-16.016 3.754-24.406-.015-8.579.656-17.168 3.492-25.43 4.329-12.633 12.954-20.863 25.497-24.977 2.816-.925 5.906-1.027 9.082-1.78 1.164.003 2.117.276 3.37.57 2.028 1.566 3.602 3.328 5.5 4.62 9.38 6.407 15.13 15.473 18.364 26.055 1.48 4.848 1.508 10.14 1.828 15.68-3.793 4.785-7.168 9.168-10.684 13.433-4.757 5.778-9.625 11.47-14.73 17.07-4.805-5.3-7.11-5.792-13.55-2.718-2.84 1.356-5.661 2.8-8.333 4.457-3.426 2.129-7.008 2.656-10.8 1.535-4.286-1.273-8.524-2.73-12.79-4.11Zm0 0" style="stroke:none;fill-rule:nonzero;fill:#cbe0e4;fill-opacity:1"/><path d="M414.176 450.324c1.144.305 2.277.828 3.433.887 8.086.371 16.184.617 24.27.984 1.469.067 2.918.52 4.738.84.86 3.106 1.742 6.168 1.778 9.227.113 10.718-.329 21.453.02 32.156.112 3.52-1.11 3.59-3.735 3.582-18.086-.078-36.176-.059-54.692-.55a302.44 302.44 0 0 1-.156-25.97c4.426.551 6.266-.765 6.293-4.66.04-5.488-.125-10.976.21-16.554 6.228-.036 12.032.007 17.84.058ZM403.23 249.27c.184-.426.34-.438.72-.56 13.714-.112 27.218-.07 40.726-.179 2.808-.027 3.957.043 3.855 3.77-.394 14.27-.18 28.558-.004 42.836.032 2.48-1.16 2.265-2.78 2.258-13.513-.024-27.032-.008-40.548 0-2.582.007-5.168.066-8.203.085 1.094-10.273 2.703-20.523 4.172-30.793.805-5.648 1.367-11.335 2.062-17.417ZM195.762 497.96c-15.852 0-31.696 0-48.004-.452-.457-14.477-.485-28.504-.438-42.528.016-4.304.442-4.69 4.668-4.867 1.453-.062 3.094.485 3.54-1.625-.024.02-.063.067.265.059.754-.645 1.18-1.277 1.574-1.89-.027.011-.07.058.242.109 1.356.625 2.395 1.203 3.414 1.765-.02-.015-.054-.043-.062.324 1.726.707 3.457 1.32 5.195 1.336 8.914.094 17.836.09 26.754-.011 2.063-.024 3.016.386 3 2.707-.113 15.023-.113 30.047-.148 45.074Zm0 0" style="stroke:none;fill-rule:nonzero;fill:#e0dbc7;fill-opacity:1"/><path d="M56.922 449.332c-1.074.695-2.02 3.043-3.594-.293-.219-6.36-.328-12.152-.164-17.937.059-2.254-.664-2.801-2.82-2.778-9.547.106-19.098.113-28.645-.008-2.449-.03-3.46.512-3.355 3.215.222 5.914.11 11.84.133 17.766-1.153.172-2.309.348-3.637.238-.149-37.973-.121-75.656-.106-113.348.008-25.023.008-50.046.008-75.074 0-.761.035-1.527-.004-2.285-.082-1.504.082-3.02 2.055-2.476.71.199 1.55 1.586 1.555 2.437.097 13.578.043 27.16.074 40.742.008 4.852-.688 4.27 4.43 4.293 8.683.04 17.363.004 26.046.016 4.907.004 4.207.2 4.215-4.074.028-12.973.02-25.942.032-38.914 0-.918-.235-1.918.07-2.723.281-.746 1.14-1.27 1.746-1.887.613.613 1.727 1.195 1.762 1.84.199 3.348.14 6.711.14 10.07-.015 26.856-.039 53.711-.043 80.989-2.054 2.527-2.554.84-3.355-1.496a153.17 153.17 0 0 1-.293-13.383c.043-1.953-.172-3.02-2.629-2.989-9.844.149-19.691.11-29.54.036-1.94-.016-2.663.543-2.612 2.554.144 5.914.12 11.828.394 17.996 8.895.325 17.55.43 26.211.446 1.777.004 3.555-.34 5.684-.555 1.035-.145 1.718-.258 2.41-.371.02 1.035.035 2.074-.399 3.457a667.86 667.86 0 0 1-31.023.324c-2.59-.035-3.395.727-3.29 3.309.188 4.867.27 9.765-.019 14.625-.183 3.039.942 3.851 3.723 3.832 10.32-.074 20.637-.004 30.953.015.024 1.024.047 2.051-.367 3.422-10.621.317-20.797.325-30.973.235-2.41-.024-3.46.66-3.332 3.343.23 4.715.09 9.45.024 14.172-.024 1.703.07 2.828 2.347 2.805 10.04-.106 20.082-.125 30.121.027 2.31.035 2.32-1.254 2.493-2.77 1.05.141 2.105.282 3.304 1.114.184 17.133.227 33.586.27 50.043Zm-5.375-24.648c.52-.559 1.484-1.114 1.492-1.68.113-5.484 0-10.973.102-16.457.035-2.059-1.168-2.156-2.618-2.152-9.875.027-19.753.113-29.628.066-2.047-.012-2.563.734-2.524 2.664.113 4.871.184 9.758-.023 14.625-.106 2.504.8 3.031 3.105 3.008 9.742-.117 19.48-.055 30.094-.074ZM38.957 307.5c-5.918 0-11.836.094-17.746-.043-2.18-.047-2.895.59-2.828 2.816.144 5.008.07 10.028.004 15.043-.02 1.606.242 2.434 2.207 2.422 10.148-.062 20.297.012 30.441.11 1.598.015 2.117-.547 2.106-2.086-.051-5.317-.078-10.637.015-15.953.035-1.797-.61-2.364-2.36-2.32-3.64.093-7.284.019-11.839.011Zm350.555 164.043c.015 8.48.035 16.953.062 25.84a2049.65 2049.65 0 0 1-73.695.082c-.414-1.527-.406-2.59-.414-3.645-.063-11.62 9.754-23.418 22.34-22.465 17.523.082 34.617.137 51.707.188Zm0 0" style="stroke:none;fill-rule:nonzero;fill:#485f61;fill-opacity:1"/><path d="M337.375 471.332c-12.156-.926-21.973 10.871-21.91 22.492.004 1.063-.008 2.117-.012 3.582-8.894.461-17.789.512-27.273.168-.543-14.531-.508-28.668-.45-42.8.02-4.536.04-4.555 4.75-4.567 14.06-.023 28.11-.031 42.332.074.168.117.579.184.614.594.672 7.09 1.308 13.77 1.949 20.457Zm0 0" style="stroke:none;fill-rule:nonzero;fill:#e0dbc7;fill-opacity:1"/><path d="M326.57 29.188c-.457-.336-.933-.645-1.375-1.004-.824-.68-1.625-1.387-2.441-2.09 1.02-.203 2.27-.102 3.004-.668 1.004-.774 1.832-1.961 2.34-3.137 1.398-3.27 2.129-6.922 3.96-9.91 5.727-9.313 16.837-13.55 26.516-12.098 12.219 1.828 19.617 8.903 22.871 20.727 1.149 4.176 1.918 8.246.82 12.57-.39 1.535-.062 3.25-.081 4.89-.024 2.048-1.457.54-2.836.856-6.106-.933-11.54-1.863-16.977-2.804-4.976-.86-9.957-1.723-15.27-2.657-1.023-.054-1.706-.047-2.644-.261-.969-.43-1.676-.664-2.394-.832-5.16-1.2-10.329-2.387-15.493-3.583Zm0 0" style="stroke:none;fill-rule:nonzero;fill:#e1ff01;fill-opacity:1"/><path d="M417.469 299.191c.355 4.97.41 9.743.379 14.52-.028 3.816-.27 7.629-.25 11.445.035 7.403.152 14.801.308 22.203.047 2.286-1.383 2.309-2.996 2.305-7.883-.023-15.77-.031-24.094-.437-.406-6.18-.367-11.965-.332-17.743.579-1.484 1.391-2.93 1.692-4.464.652-3.36 1.086-6.762 1.527-10.157.774-5.941 1.488-11.886 2.32-18.238 5.977-.375 11.864-.371 17.743-.27 1.129.02 2.246.418 3.703.836Zm0 0" style="stroke:none;fill-rule:nonzero;fill:#7b786d;fill-opacity:1"/><path d="M347.445 33.93c4.98.867 9.957 1.73 14.934 2.59 5.437.937 10.875 1.867 16.707 2.87.39 3.54.367 7.008.394 10.477.106 13.133-5.851 18.633-17.308 20.535-6.938-.359-12.567-1.953-16.219-7.52-1.914-2.917-1.746-3.16 1.813-3.519 4.574-.46 7.722-3.258 7.93-7.031.34-6.27-3.907-9.422-10.856-8.422.832-3.59 1.719-6.785 2.605-9.98Zm0 0" style="stroke:none;fill-rule:nonzero;fill:#3b3a35;fill-opacity:1"/><path d="M344.871 44.297c6.91-1.387 11.152 1.762 10.817 8.031-.208 3.77-3.36 6.57-7.934 7.031-3.555.36-3.723.606-1.809 3.52 3.645 5.566 9.274 7.16 15.868 7.586.464 2.133.523 4.219.644 6.687-7.062 1.028-14.176 1.657-21.285 2.325-.742.074-1.457.363-2.48.289-.688-3.297-1.075-6.325-1.407-9.715 2.563-8.832 5.078-17.293 7.586-25.754Zm0 0" style="stroke:none;fill-rule:nonzero;fill:#dbb385;fill-opacity:1"/><path d="M337.23 70.41c.387 3.031.778 6.059 1.145 9.477-.2.683-.387.965-.762 1.418a101.4 101.4 0 0 1-8.347.039c-11.567-.45-13.434-7.723-11.457-16.5.918-4.067 2.3-8.035 3.074-12.117.683-3.637 2.648-2.344 5.027-1.215.078 7.41 3.34 12.71 8.152 17.562.02 1.39.137 2.461.254 3.524.727-.586 1.442-1.188 2.176-1.762.219-.18.492-.285.738-.426Zm0 0" style="stroke:none;fill-rule:nonzero;fill:#3b3a35;fill-opacity:1"/><path d="M334.164 68.738c-4.91-4.527-8.172-9.824-7.914-17.199-.086-5.434.43-10.402 2.469-15.574 2.707.293 5.11.71 7.27 1.676 2.105.941 3.972 2.433 5.792 3.96-2.242 2.192-1.379 4.7-1.547 7.016-.527 7.16-2.21 13.977-6.07 20.121Zm0 0" style="stroke:none;fill-rule:nonzero;fill:#dbb385;fill-opacity:1"/><path d="M196.098 497.977c-.301-15.043-.309-30.067-.192-45.09.02-2.32-.941-2.73-3-2.707-8.918.101-17.84.105-26.754.011-1.738-.015-3.468-.628-4.777-1.421a520.67 520.67 0 0 1 31.45-.247c2.827.063 3.163-1.125 3.148-3.437-.063-9.434-.102-18.871.086-28.305.054-2.972.855-5.93 1.316-8.902.363 2.527 1.035 5.055 1.04 7.582.073 27.195.042 54.39.038 82.008-.68.449-1.351.488-2.355.508Zm138.554-47.817c-14.058.016-28.109.024-42.168.05-4.71.013-4.73.032-4.75 4.567-.054 14.133-.093 28.266.012 42.813-.226.394-.601.387-1.258.351-.277-14.351-.3-28.68-.23-43.011.008-1.934.535-3.868.867-6.184 15.57-.328 31.09-.273 47.074-.004.461.211.504.582.48.793-.019.203-.027.625-.027.625Zm0 0" style="stroke:none;fill-rule:nonzero;fill:#fff;fill-opacity:1"/><path d="M191.055 28.285c.62.75.965 1.438 1.004 2.145.117 2.113-.657 4.867.398 6.148.93 1.125 3.898.418 5.875.883.879.207 1.547 1.305 2.309 1.992-.739.543-1.477 1.098-2.23 1.625-.102.07-.298 0-.45.012-1.902.183-4.34-.258-5.527.762-.926.789-.082 3.449-.418 5.199-.215 1.105-1.004 2.75-1.817 2.949-2.129.504-1.707-1.445-1.836-2.715-.031-.3 0-.605-.011-.91-.106-5.219-.106-5.219-5.215-5.29-.907-.015-1.953.212-2.68-.167-.59-.3-1.047-1.316-1.098-2.055-.027-.453.914-1.445 1.25-1.375 7.246 1.543 8.739-2.21 7.914-8.343-.027-.204 1.38-.602 2.532-.86ZM58.637 202.945c.093 1.914-.051 3.422-2.035 2.828-.735-.222-1.34-1.46-1.641-2.359-.277-.816-.063-1.797-.066-2.71-.02-7.618-.02-7.618-7.407-7.642-.758 0-1.527-.093-2.265.012-1.973.293-2.168-.855-2.274-2.41-.11-1.633.543-2.11 2.055-2.082 3.023.063 6.062-.164 9.07.063 3.727.277 4.5 1.304 4.547 5.226.04 2.883.016 5.762.016 9.074Zm0 0" style="stroke:none;fill-rule:nonzero;fill:#7b786d;fill-opacity:1"/><path d="M341.922 41.324c-1.965-1.25-3.832-2.742-5.938-3.683-2.168-.957-4.57-1.383-7.195-2.036-1.004-1.89-1.676-3.785-2.285-6.05 5.226.828 10.394 2.015 15.555 3.218.718.168 1.43.403 2.398 1.18-.672 2.84-1.602 5.102-2.535 7.371Zm0 0" style="stroke:none;fill-rule:nonzero;fill:#3b3a35;fill-opacity:1"/><path d="M155.543 448.465c-.461 2.129-2.106 1.586-3.559 1.64-4.23.18-4.656.567-4.668 4.868-.043 14.023-.02 28.047.024 42.492-.145.422-.328.426-.797.43-.258-32.66-.238-65.317.117-98.485.79-.445 1.262-.445 1.672-.293.098.035.074.59.008.883-.305 1.398-.918 2.79-.926 4.188-.047 11.976.016 23.953.043 35.93.004 2.726-1.027 6.398.324 7.905 1.239 1.375 5.074.387 7.762.442Zm0 0" style="stroke:none;fill-rule:nonzero;fill:#fff;fill-opacity:1"/><path d="M93.566 497.852a1466.02 1466.02 0 0 1 .258-45.348c.293 14.656.344 29.562.399 44.89.004.415-.438.508-.657.458Zm0 0" style="stroke:none;fill-rule:nonzero;fill:#e0dbc7;fill-opacity:1"/><path d="M328.34 170.18c4.816-5.727 9.68-11.418 14.437-17.196 3.516-4.265 6.887-8.648 10.625-13.043.387 4.141.688 8.348.52 12.543-.395 10.106-5.11 18.559-11.09 26.246-7.316 9.383-15.094 18.403-22.82 27.872-2.692 3.035-5.364 5.675-7.715 8.574-.711.875-.672 2.469-.73 3.746-.067 1.488.144 2.996-.07 5.016-3.72 4.355-6.985 8.328-10.583 11.98-4.309 4.379-9.527 5.16-14.894 2.312-3.844-2.039-7.489-4.464-11.438-6.972-5.387-3.406-10.547-6.559-15.703-9.711-2.258-2.703-4.875-5.2-6.61-8.203-.792-1.38.149-3.754.981-5.676 4.863 1.676 8.988 3.207 13.563 4.004 8.519 1.488 16.242-.258 23.507-4.125 4.192-2.23 7.82-5.563 11.575-8.563 9.058-7.226 16.68-15.84 23.921-25.195 1.02-1.293 1.77-2.453 2.524-3.61Zm0 0" style="stroke:none;fill-rule:nonzero;fill:#8ebbc5;fill-opacity:1"/><path d="M322.71 348.402c-8.304.364-16.55.364-25.522.258-2.778-1.512-2.825-3.586-2.723-5.765.156-3.454.27-6.91.328-10.372.176-10.293.383-20.59.414-30.886.012-2.246 1.055-2.403 2.777-2.387 5.457.05 10.922.082 16.383-.027 1.77-.032 3.531-.504 5.297-.778 1.617 14.457 3.324 28.91 4.746 43.387.195 2.004-1.05 4.145-1.7 6.57Zm0 0" style="stroke:none;fill-rule:nonzero;fill:#7b786d;fill-opacity:1"/><path d="M274.793 231.508c3.734 2.254 7.375 4.676 11.215 6.715 5.37 2.847 10.586 2.062 14.898-2.313 3.594-3.652 6.864-7.629 10.54-11.601 1.187 7.832 2.116 15.808 3.015 24.152-12.14.383-24.254.48-36.363.363-4.93-.047-9.86-.566-15.211-1.25.39-1.418 1.203-2.457 2.011-3.492 3.301-4.184 6.602-8.375 9.895-12.574Zm0 0" style="stroke:none;fill-rule:nonzero;fill:#254147;fill-opacity:1"/><path d="M390.293 331.148c.148 6.11.117 11.895.094 18.047-.282.797-.578 1.223-.883 1.93a694.875 694.875 0 0 1-28.215 1.973c-1.797.09-3.629-.489-5.441-.754 1.722-.59 3.414-1.563 5.172-1.703 7.574-.602 15.175-.868 22.753-1.442 4.97-.379 4.172-.129 3.954-4.379-.86-16.57-2.118-33.132-2.364-49.715-.117-8.12 1.614-16.28 2.602-24.41.754-6.172 1.656-12.324 2.488-18.488.063-.453-.082-.996.129-1.348.398-.672.984-1.238 1.496-1.843.262.722.82 1.472.746 2.156-.48 4.27-1.094 8.523-1.664 12.785-1.71 12.66-4.484 25.184-3.02 38.168.801 7.078.235 14.305.524 21.45.106 2.437.945 4.831 1.629 7.573Zm-33.191-70.824c3.3-5.375 6.398-10.492 9.57-15.554.289-.461 1.082-.606 1.64-.899.07.578.387 1.293.168 1.715-1.164 2.242-2.394 4.453-3.734 6.594-5.32 8.5-10.644 17.007-16.07 25.445-3.91 6.082-8.488 6.121-12.453-.113-5.86-9.2-11.418-18.594-17.098-27.907-.77-1.273-1.625-2.507-2.246-3.851-.242-.531.047-1.309.098-1.973.64.215 1.59.235 1.882.684 2.051 3.137 3.961 6.363 5.922 9.558 4.32 7.024 8.383 14.223 13.047 21.016 3.809 5.547 5.235 7.465 9.969-.008 3.055-4.8 6.086-9.613 9.305-14.707Zm0 0" style="stroke:none;fill-rule:nonzero;fill:#485f61;fill-opacity:1"/><path d="M319.7 298.23c-1.802.493-3.56.965-5.333 1-5.46.106-10.926.075-16.383.024-1.722-.016-2.765.144-2.777 2.387-.031 10.296-.238 20.59-.414 30.89a352.872 352.872 0 0 1-.328 10.367c-.102 2.18-.055 4.254 2.293 5.809.05.496-.2.852-.836 1.457-1.035.262-1.688.262-2.336.262-.418-.266-.84-.535-1.41-1.18.347-1.273 1.281-2.172 1.285-3.074.086-14.602-.016-29.207.121-43.809.027-2.781-1.008-3.199-3.406-3.148-6.371.14-12.746.086-19.121 0-3.743-.05-7.809 1.18-10.813-2.422-.254-.3-.988-.195-1.5-.277.746-1.614 1.422-2.5 3.332-.918 1.235 1.027 3.145 1.726 4.758 1.738 17.152.121 34.305.078 51.883.05.71.098.91.313.984.844Zm15.01 151.09s-.042-.367-.089-.55c-.016-.34.012-.497.34-.891.918-.367 1.527-.484 2.137-.606.55-.074 1.093-.144 2.324.02 6.367.074 12.055-.094 17.742-.262.559-.043 1.113-.09 2.098-.074 1.89.238 3.347.563 4.812.57 8.828.059 17.66.004 26.492.094 1.414.012 2.829.54 3.883 1.254-20.156.43-39.945.434-59.738.445Zm0 0" style="stroke:none;fill-rule:nonzero;fill:#fff;fill-opacity:1"/><path d="M356.793 446.918c-5.652.297-11.309.445-16.969.437 5.356-.3 10.98-.425 16.969-.437Zm-19.977.21c-.332.267-.945.384-1.8.517-.25.007-.329-.403-.356-.61.613-.152 1.246-.105 2.156.094Zm-2.453-4.464c-.23-.203-.406-.668-.57-1.39.227.203.422.671.57 1.39Zm.262 3.703c-.203-.203-.363-.707-.336-1.351.25.254.309.648.336 1.351Zm-179.105 2.117c-2.665-.074-6.5.914-7.739-.453-1.36-1.508-.32-5.18-.324-7.91-.027-11.976-.09-23.953-.043-35.93.008-1.394.621-2.789.926-4.187.062-.297.09-.844-.008-.883-.418-.152-.883-.152-1.676-.129-16.375.074-32.41.063-48.445.086-1.336.004-2.676.266-4.426.406-.414-.004-.484-.379-.484-.379.363-3.261-1.551-3.761-4.227-3.738-8.527.074-17.054.047-25.578.02-4.95-.016-5.773-.871-5.797-5.895-.027-4.73.106-9.457-.043-14.18-.129-3.925-.765-7.84-.836-11.765-.101-5.785.68-6.5 6.125-7.93 2.582-.676 5.032-1.824 7.575-2.664.976-.324 2.043-.558 3.07-.562 9.59-.043 19.183-.11 28.777.02 3.914.05 7.844.948 11.742.784 6.926-.285 13.82-1.265 20.75-1.593 3.434-.164 6.907.683 10.364.726 8.984.113 17.964.149 26.945.004 7.113-.113 14.219-.68 21.336-.773 3.45-.047 6.91.789 10.363.746 5.29-.063 10.574-.809 15.852-.77 6.808.043 13.625.434 20.41.965 2.672.21 4.262 1.832 4.09 4.973-.223 4.105-.13 8.234-.028 12.351.063 2.57-.257 4.59-3.488 4.703-.387.016-.726 1.11-1.101 2.043-.415.38-.825.414-1.543.032-2.496-3.141-7.329-2.786-10.348.32-5.094 2.52-10.18 5.043-15.461 7.789-5.102 3.187-8.238 7.738-11.332 12.973-.367.77-.527 1.074-.684 1.378 0 0-.453.012-1.09.04-6.101 0-11.566-.04-17.027-.047-6.066-.012-12.133-.059-18.195.054-1.156.024-3.438-1.062-2.961 1.829.02-.032.078-.063-.281-.208-1.352-.043-2.344.051-3.368-.175-.816-.625-1.613-.922-2.406-1.22.676.716 1.356 1.427 2.196 2.493.168 15.2.175 30.047.175 44.899 0 0 .043-.047-.257-.18-.727.586-1.149 1.3-1.57 2.02Zm0 0" style="stroke:none;fill-rule:nonzero;fill:#e0dbc7;fill-opacity:1"/><path d="M258.762 296.508c.488.094 1.222-.012 1.472.289 3 3.61 7.07 2.371 10.817 2.422 6.375.086 12.75.14 19.12 0 2.403-.051 3.434.37 3.407 3.148-.14 14.602-.035 29.207-.121 43.809-.004.902-.937 1.797-1.559 3.043-21.253.222-42.386.027-63.52.011-9.523-.003-19.05.352-29.1.633-.532.094-.704-.043-.704-.043s-.097-.164-.414-.496c-.555-1.043-.992-1.75-.992-2.457.016-13.512.078-27.023.152-40.539.016-2.394-.761-5.703.473-6.941 1.394-1.395 4.648-.926 7.512-1.184 8.168.098 15.914.133 23.668.137 8.976 0 17.949.015 26.925-.09 1.13-.016 3.446 1.191 2.934-1.8-.004 0-.043.042-.07.058Zm0 0" style="stroke:none;fill-rule:nonzero;fill:#7b786d;fill-opacity:1"/><path d="M293.348 350.73c.882-.304 1.53-.308 2.504-.355 1.843.324 3.355.93 4.898 1.031 6.016.395 12.043.606 18.063.938 2.503.136 3.238 1.777 4.128 4 1.47 3.66 1.688 7.293 1.704 11.094.007 3.261-.286 6.425 1.433 9.69 1.137 2.161.434 5.36.324 8.09-.16 4.06-.527 8.114-.847 12.548-.04.375-.043.379-.043.379-4.961.156-9.934.566-14.88.363-2.808-.113-5.558-1.293-8.359-1.88-3.058-.64-6.148-.823-8.406 1.868-1.305 1.555-1.055.067-1.512-.476-.324-.383-1.195-.81-1.476-.637-4.902 2.957-6.527-2.043-7.77-4.203-6.71-11.66-18.105-15.477-29.816-18.676-2.902-.793-3.75-1.785-3.672-4.48.113-3.81-.008-7.626.04-11.434.058-4.313 1.042-5.106 5.456-5.344 12.672-.672 25.336-1.465 38.23-2.516Zm0 0" style="stroke:none;fill-rule:nonzero;fill:#e0dbc7;fill-opacity:1"/><path d="M92.887 399.066c.422.036.488.414.582.575a5142.09 5142.09 0 0 1-.09 50.238c-1.813.101-3.559-.477-5.3-.496-10.106-.086-20.216-.04-30.74-.043-.456-16.465-.5-32.918-.51-49.8 11.894-.446 23.765-.478 36.058-.474Zm-39.84-22.55c-10.336.398-20.656.332-30.973.398-2.781.02-3.906-.793-3.726-3.828.293-4.86.21-9.754.02-14.625-.098-2.586.702-3.344 3.288-3.313 10.188.13 20.383.036 30.989.063.417 6.996.421 13.937.402 21.305Zm-34.504-24.918c-.043-5.914-.016-11.832-.156-17.746-.047-2.008.672-2.567 2.613-2.555 9.848.078 19.691.113 29.54-.031 2.456-.04 2.67 1.035 2.628 2.988-.094 4.246-.02 8.496.074 13.172.024 1.363-.035 2.297-.133 3.586-.718.468-1.406.586-2.851.617-11.07-.059-21.39-.047-31.715-.031Zm34.715 46.148c-.09 1.934-.106 3.223-2.414 3.192-10.035-.149-20.082-.133-30.121-.032-2.27.024-2.364-1.097-2.344-2.804.066-4.723.203-9.457-.027-14.168-.13-2.688.921-3.368 3.335-3.344 10.176.09 20.352.078 30.942.148.46 5.559.504 11.07.629 17.008Zm0 0" style="stroke:none;fill-rule:nonzero;fill:#fdfdfd;fill-opacity:1"/><path d="M182.492 346.012c-4.32.246-8.23.574-12.144.804-1.36.079-2.73-.117-4.098-.12-2.352-.012-4.707.109-7.05.011-1.915-.086-3.817-.387-5.712-.707-.117-.02-.312-1.273-.058-1.5 1.632-1.512 3.406-1.383 5.488-.668 1.09.375 2.879.027 3.824-.687 4.363-3.32 8.715-1.2 12.79.144 3.757 1.238 5.234 1.16 7.671-2.113.645-.871 2.223-1.266 3.41-1.363.348-.028.844 1.73 1.262 2.675.328.746.477 2.004.988 2.172 4.586 1.512-.336 2.676-.086 3.98-.37.024-1.054.118-1.07.067-.605-2.738-3.383-1.465-5.215-2.695Zm0 0" style="stroke:none;fill-rule:nonzero;fill:#e0dbc7;fill-opacity:1"/><path d="M204.879 298.121c-2.445.34-5.7-.129-7.094 1.266-1.238 1.238-.457 4.547-.472 6.941a9347.195 9347.195 0 0 0-.153 40.54c0 .706.438 1.413.903 2.437-.665.37-1.586.597-2.415.414-.382-.078-.878-.992-.832-1.477.141-1.289.797-2.55.805-3.824.059-14.309.059-28.613 0-42.926-.008-1.031-.617-2.058-1.328-3.144 3.379-.375 6.773-.594 10.172-.657.422.192.414.43.414.43Zm0 0" style="stroke:none;fill-rule:nonzero;fill:#d4d4d4;fill-opacity:1"/><path d="M130.988 346.746c-.793-.223-1.207-.402-1.625-.574-1.199-.488-3.492.277-2.87-2.32.452-1.895 2.862-2.887 4.792-2.184 2.34.848 4.7 1.633 7.031 2.516.454.171.782.66 1.168 1.003-.484.247-.953.641-1.46.72-2.22.347-4.442.593-7.036.84Zm-9.133-2.281c-1.648 2.683-4.21 1.172-6.515 1.246-.156.008-.508-.516-.45-.621.184-.336.508-.836.797-.84a45.792 45.792 0 0 1 6.168.215Zm-14.8-8.496c-.278 1.281-.559 2.191-.84 3.105-.328-.867-.703-1.715-.961-2.601-.121-.414-.145-.957.027-1.336.258-.563.727-1.028 1.102-1.532.226.665.449 1.332.672 2.364Zm0 0" style="stroke:none;fill-rule:nonzero;fill:#e0dbc7;fill-opacity:1"/><path d="M287.168 413.34c-.281-.692-.496-1.746-.504-3.004.328.75.453 1.7.504 3.004Zm0 0" style="stroke:none;fill-rule:nonzero;fill:#254147;fill-opacity:1"/><path d="M327.348 399.98c-.586-.41-1.18-.82-1.797-1.535-.031-.3-.028-.304-.028-.304.594.406 1.184.816 1.801 1.535.028.3.024.304.024.304Zm-179.453-53.984c-.36.285-.715.328-1.075.367.004-.254.004-.511.008-.765.36.05.711.101 1.067.398Zm0 0" style="stroke:none;fill-rule:nonzero;fill:#e0dbc7;fill-opacity:1"/><path d="M198.637 349.844c-.067-.024.11.11.218.11.11 0-.152-.087-.218-.11Zm0 0" style="stroke:none;fill-rule:nonzero;fill:#d4d4d4;fill-opacity:1"/><path d="M265.063 380.395c-.165.093-.434.003-.793-.301.214-.211.468-.102.793.3Zm36.171 18.253c-.046-.074.145-.097.145-.097s-.098.168-.145.097Zm1.832 0c-.046-.074.141-.097.141-.097s-.094.168-.14.097Zm24.29 1.325.386.457c-.094-.047-.191-.102-.336-.297-.058-.153-.054-.156-.05-.16Zm0 0" style="stroke:none;fill-rule:nonzero;fill:#e0dbc7;fill-opacity:1"/><path d="M325.543 173.934c-6.969 9.21-14.59 17.824-23.648 25.05-3.758 2.996-7.383 6.332-11.575 8.563-7.265 3.867-14.988 5.613-23.507 4.125-4.575-.797-8.696-2.328-13.215-4.11-.832-5.761 3.172-9.117 6.34-12.761 3.75-4.313 7.945-8.238 11.804-12.465 3.238-3.55 6.27-7.29 9.953-10.977 4.43 1.598 8.184 3.754 12.215 4.715 3.848.918 7.969 1.399 11.867-.93 3.871-2.3 7.891-4.453 12.07-6.085 4.84-1.895 6.844-.403 7.696 4.875Zm0 0" style="stroke:none;fill-rule:nonzero;fill:#cbe0e4;fill-opacity:1"/><path d="M274.574 231.254c-3.074 4.445-6.375 8.64-9.668 12.836-.816 1.039-1.625 2.074-2.433 3.422a35.406 35.406 0 0 1-6.586 1.36c-3.422.378-6.914.358-10.27 1.034-1.27.25-2.8 1.758-3.262 3.031-2.652 7.329-9.71 9.098-16.128 4.637-1.434-.996-2.235-3.07-3.008-4.793-.535-1.195-.52-2.636-.867-4.558-.149-.77-.172-.95-.2-1.13.66-10.308 4.414-15.187 16.88-17.452 3.843-.7 7.89-.805 11.495-2.125 2.957-1.086 5.399-3.575 8.207-5.711 5.297 2.89 10.457 6.043 15.84 9.449Zm0 0" style="stroke:none;fill-rule:nonzero;fill:#dbb385;fill-opacity:1"/><path d="M325.813 173.79c-1.122-5.134-3.125-6.626-7.97-4.731-4.183 1.632-8.202 3.78-12.07 6.086-3.906 2.328-8.02 1.847-11.867.93-4.035-.962-7.785-3.122-11.965-4.872-.152-.652 0-1.176.391-1.848 4.504 1.235 8.742 2.696 13.04 3.97 3.784 1.12 7.37.593 10.8-1.536 2.668-1.656 5.488-3.101 8.328-4.457 6.441-3.074 8.746-2.582 13.55 2.719-.464 1.285-1.214 2.445-2.238 3.738Zm-114.665 74.07c-1.414.347-3.027.394-5.027.343a19.552 19.552 0 0 1 5.027-.344Zm10.793-.669c.23.09.258.27.286.723-.157.277-.313.281-.7.211-.168-.39-.023-.64.414-.934Zm0 0" style="stroke:none;fill-rule:nonzero;fill:#fdfdfd;fill-opacity:1"/><path d="M334.688 449.531c19.816-.215 39.605-.226 59.808-.312 3.649-.309 6.887-.606 10.129-.77 3.281-.164 6.574-.394 9.848-.219 1.675.09.785 1.008-.145 1.825-5.957.218-11.762.172-18.41.168-13.602.027-26.36-.012-39.121.02-7.133.015-14.266.148-21.395.23 0 0-.406-.07-.578-.188-.172-.125-.164-.547-.137-.754Zm0 0" style="stroke:none;fill-rule:nonzero;fill:#fff;fill-opacity:1"/><path d="M432.629 399.11c1.14-.008 1.894-.09 2.633-.012.453.047.875.332 1.312.515-.422.106-.84.282-1.265.297a61.108 61.108 0 0 1-3.59-.008c-.434-.007-.864-.129-1.293-.199.605-.195 1.21-.394 2.203-.594Zm5.824.171c.824-.066 1.383.04 1.945.14-.742.017-1.48.024-1.945-.14Zm8.754 51.844c-.348-.078-.559-.3-.77-.531.227-.067.45-.137.88-.098.203.11.023.477-.11.629Zm0 0" style="stroke:none;fill-rule:nonzero;fill:#fdfdfd;fill-opacity:1"/><path d="M205.3 298.203c-.421-.082-.413-.32-.417-.433 14.168-.18 28.344-.188 42.515-.336 3.563-.04 7.125-.532 11.059-.899.883 2.902-1.434 1.7-2.566 1.715-8.973.105-17.95.09-26.922.09-7.754-.004-15.5-.04-23.668-.137Zm0 0" style="stroke:none;fill-rule:nonzero;fill:#fff;fill-opacity:1"/><path d="M227.02 376.754c2.96-2.938 8.472-3.266 10.968-.399-3.488.375-6.992.415-10.968.399Zm0 0" style="stroke:none;fill-rule:nonzero;fill:#e0dbc7;fill-opacity:1"/><path d="M18.89 449.316c-.44-5.953-.328-11.875-.55-17.793-.102-2.703.906-3.242 3.355-3.214 9.547.125 19.098.113 28.645.003 2.156-.023 2.879.528 2.816 2.782-.16 5.781-.054 11.578-.09 17.781-11.273.434-22.511.453-34.175.441Zm0 0" style="stroke:none;fill-rule:nonzero;fill:#fdfdfd;fill-opacity:1"/><path d="M197.379 407.629c-.469 3.219-1.262 6.18-1.32 9.152-.188 9.434-.149 18.871-.086 28.305.015 2.312-.32 3.5-3.149 3.437-10.336-.23-20.68-.164-31.437-.125-.418.086-.387.114-.32-.23-1.622-2.262-2.016-4.473-1.993-7.02.121-11.386.11-22.773-.004-34.156-.023-2.363.317-4.402 1.977-6.129 0 0-.055.035.297 0 1.808-.316 3.25-.82 4.707-.824 11.101-.059 22.207-.016 33.304 0a26.553 26.553 0 0 1-.988 2.645c-.433 1.57-.574 2.64-.719 3.71-.078.32-.168.649-.27 1.235Zm0 0" style="stroke:none;fill-rule:nonzero;fill:#e0dbc7;fill-opacity:1"/><path d="M199.355 399.828c-11.093.192-22.199.149-33.3.203-1.45.012-2.899.516-4.727.852-.832-2.848 1.445-1.762 2.606-1.785 6.058-.114 12.125-.067 18.191-.059 5.465.012 10.93.047 16.813.125.425.05.414.457.417.664Zm0 0" style="stroke:none;fill-rule:nonzero;fill:#fdfdfd;fill-opacity:1"/><path d="M197.969 406.336c-.164-1.02-.028-2.09.363-3.379 1.379 1.074 1.617 2.281-.363 3.379Zm0 0" style="stroke:none;fill-rule:nonzero;fill:#cbe0e4;fill-opacity:1"/><path d="M200.473 398.914c-.07-.172.086-.48.457-.934.066.172-.078.485-.457.934Zm0 0" style="stroke:none;fill-rule:nonzero;fill:#fdfdfd;fill-opacity:1"/><path d="M335.43 450.875c7.101-.484 14.234-.613 21.367-.633 12.902-.02 25.805 0 38.703.067.504 5.535.676 11.027.633 16.515-.031 3.89-1.875 5.211-6.297 4.66-17.41.012-34.504-.043-52.024-.12-1.078-6.72-1.714-13.4-2.382-20.489Zm0 0" style="stroke:none;fill-rule:nonzero;fill:#79aeb9;fill-opacity:1"/><path d="M160.695 400.723c-1.3 1.859-1.64 3.906-1.62 6.265.109 11.387.124 22.774.003 34.153-.027 2.554.375 4.757 2.008 7.043-1.086-.215-2.125-.797-3.48-1.418-.317-14.899-.32-29.743-.391-45.094-.067-.5.137-.805.137-.805.996-.097 1.988-.195 3.343-.144Zm-4.906 47.824c.094-.707.516-1.418 1.27-2.024-.094.743-.516 1.38-1.27 2.024ZM51.105 424.69c-10.171.012-19.91-.05-29.648.063-2.305.027-3.207-.5-3.105-3.008.207-4.867.14-9.754.023-14.625-.04-1.93.473-2.68 2.523-2.664 9.875.05 19.758-.035 29.633-.066 1.446-.008 2.649.093 2.614 2.152-.106 5.484.007 10.973-.102 16.453-.012.574-.973 1.129-1.938 1.695ZM39.415 307.5c4.097.008 7.741.082 11.382-.012 1.75-.047 2.39.52 2.36 2.32-.09 5.317-.067 10.637-.016 15.954.011 1.539-.508 2.105-2.106 2.086-10.144-.098-20.293-.172-30.441-.11-1.957.012-2.227-.816-2.207-2.422.062-5.015.144-10.035-.004-15.043-.067-2.222.652-2.863 2.828-2.816 5.91.133 11.828.043 18.203.043Zm0 0" style="stroke:none;fill-rule:nonzero;fill:#fdfdfd;fill-opacity:1"/><path d="M18.781 351.852c10.086-.27 20.407-.282 31.133-.192-1.371.29-3.144.633-4.926.63-8.656-.009-17.312-.114-26.207-.438Zm0 0" style="stroke:none;fill-rule:nonzero;fill:#e0dbc7;fill-opacity:1"/><path d="M341.777 41.602c1.078-2.547 2.008-4.817 2.93-7.426.688-.356 1.371-.364 2.395-.313-.547 3.258-1.434 6.453-2.278 10.04-2.465 8.85-4.98 17.316-7.543 26.14-.3.504-.574.613-.793.785-.734.574-1.449 1.176-2.175 1.762-.118-1.067-.239-2.137-.258-3.524 3.965-6.476 5.648-13.293 6.172-20.449.175-2.312-.688-4.824 1.55-7.015Zm0 0" style="stroke:none;fill-rule:nonzero;fill:#485f61;fill-opacity:1"/><path d="M157.047 401.316c-.777-.562-1.453-1.277-2.129-1.992.793.297 1.586.594 2.406 1.219.028.324-.176.621-.277.773Zm0 0" style="stroke:none;fill-rule:nonzero;fill:#fdfdfd;fill-opacity:1"/><path d="M287.105 413.7c.016 11.273.036 22.55.012 34.628-.324 2.73-.847 4.664-.855 6.598-.075 14.328-.051 28.66-.059 42.988-15.547.004-31.098.008-47.082-.418a3398.89 3398.89 0 0 1-.348-79.058c.036-4.891-1.27-9.297-3.171-13.532-3.965-8.828-11.075-14.129-20.211-16.863-1.653-.492-3.27-.953-3.13-3.348 5.278-2.746 11.505-6.57 15.876-7.73 4.367-1.16 9.851-1.88 17.574-2.121 7.726-.246 18.226 5.18 18.226 5.18s.961.464 1.239.554c5.875 3.02 10.879 7.027 14.71 12.496 4.403 6.278 4.852 7.117 6.759 16.922.027 1.602.242 2.652.46 3.703Zm0 0" style="stroke:none;fill-rule:nonzero;fill:#7b786d;fill-opacity:1"/></svg>
