<svg xmlns="http://www.w3.org/2000/svg" width="1135" height="1258" fill="none"><path fill="#E8E8FF" fill-rule="evenodd" d="M1015.13 126.139c-3.88 1.432-4.94 2.428-3.27 3.072 3.75 1.439 22.39-.941 22.39-2.858 0-2.497-12.54-2.637-19.12-.214Zm-72.96 60.424c.002 11.958.27 16.631.59 10.383.323-6.247.321-16.031-.005-21.743-.324-5.709-.588-.598-.585 11.36Zm-517.332 18.799c5.744.328 15.142.328 20.885 0 5.744-.326 1.044-.594-10.443-.594-11.486 0-16.184.268-10.442.594Zm-54.717 490.563c10.99 1.958 23.786 1.91 22.555-.086-.578-.935-7.435-1.58-15.553-1.463-12.776.184-13.617.371-7.002 1.549Z" clip-rule="evenodd"/><path fill="#808095" fill-rule="evenodd" d="M813.351 1.32c5.317.332 13.587.329 18.379-.007 4.79-.337.439-.61-9.669-.606-10.108.003-14.028.28-8.71.612ZM521.742 708.794c8.499.304 22.408.304 30.909 0 8.499-.303 1.545-.552-15.455-.552s-23.955.249-15.454.552Z" clip-rule="evenodd"/><path fill="#1A2223" fill-rule="evenodd" d="M348.728 475.903c-.192 7.359-.69 18.649-1.103 25.088l-.751 11.707 1.649-11.707c.905-6.439 1.403-17.729 1.102-25.088l-.544-13.38-.353 13.38Zm380.188 18.806c7.582.309 19.986.309 27.568 0 7.582-.309 1.378-.564-13.784-.564s-21.366.255-13.784.564Zm35.427 33.903c-2.319 1.691-7.198 3.38-10.842 3.753-5.356.547-4.785.731 2.983.959 7.461.217 9.607-.268 9.607-2.176 0-1.495.979-2.079 2.506-1.494 1.378.53 2.506.174 2.506-.789 0-3.25-2.52-3.345-6.76-.253Zm34.815 111.491c1.763.709 1.763 1.346 0 3.485-1.764 2.139-1.764 2.752 0 3.345 1.658.559 1.708 1.271.212 3.073-1.522 1.838-1.396 2.346.585 2.346 2.859 0 5.083-6.733 3.547-10.739-.556-1.452-2.247-2.581-3.757-2.509-1.84.089-2.034.418-.587.999Zm65.155 87.079c5.779.327 14.801.326 20.049-.006 5.248-.331.52-.598-10.507-.595-11.027.003-15.321.274-9.542.601Zm44.292.006c8.086.308 20.867.306 28.403-.003 7.536-.31.92-.56-14.701-.559-15.622.002-21.787.256-13.702.562ZM798.34 985.717c-.562.908-.206 1.147.791.53.998-.617 2.286-.356 2.864.578.577.935.065 1.7-1.138 1.701-1.203 0-2.295 1.877-2.427 4.17-.132 2.293.433 3.753 1.253 3.245.822-.507 1.493-.171 1.493.749s-.751 2.137-1.67 2.706c-.919.569-1.611 1.934-1.539 3.024.093 1.43.373 1.4.977-.11.466-1.15 1.532-1.67 2.369-1.16.851.53.437 3.04-.942 5.71-2.257 4.37-2.22 4.74.425 4.35 2.811-.41 4.417-8.68 1.978-10.19-1.218-.75-.712-8.289.902-13.47 1.144-3.675-3.265-5.188-5.336-1.833Z" clip-rule="evenodd"/><path fill="#C6D9DB" fill-rule="evenodd" d="M975.744 80.562c-1.841 13.392-15.827 26.561-28.21 26.561h-4.343l-.108 15.47c-.901 127.682-.226 128.858 73.617 128.512 78.83-.368 87.89-11.798 87.62-110.532-.19-69.297.6-68.573-74.77-68.573h-52.629l-1.177 8.562Zm58.506 45.795c0 1.916-18.64 4.296-22.39 2.858-3.96-1.522 8.05-5.24 15.7-4.862 3.68.182 6.69 1.084 6.69 2.004ZM26.638 315.125c-13.639 6.19-15.331 17.546-5.487 36.803 8.552 16.73 8.499 27.607-.25 50.391-23.22 60.461 4.161 88.566 49.203 50.506 22.966-19.406 24.702-19.551 61.456-5.136 48.338 18.958 67.309-1.323 44.004-47.042-10.419-20.44-10.278-21.823 4.77-46.732 13.319-22.048 1.256-41.667-23.529-38.267-6.167.847-12.152 3.882-7.654 3.882.792 0 2.884 3.952 4.646 8.781 22.803 62.428-77.897 97.597-105.655 36.9-6.606-14.443-6.249-31.956.904-44.374 4.128-7.169-10.808-10.975-22.409-5.712Zm45.067 5.777c.43.697-1.372 2.719-4.007 4.492-29.836 20.073 9.056 64.898 46.611 53.722 34.657-10.312 37.686-63.13 3.154-55.025-11.862 2.785-28.386 1.954-39.553-1.992-3.845-1.356-6.638-1.896-6.205-1.197Zm963.375 740.378c-1.14 1.38-3.49 2.51-5.21 2.51-1.73 0-3.14.71-3.14 1.56 0 3.06-6.84 3.74-10.88 1.09-5.04-3.3-14.83-3.43-18.017-.24-2.049 2.05-2.883 2.06-5.69.1-4.433-3.11-18.739 9.03-23.1 19.61-5.129 12.43-4.566 100.57.763 119.82 5.539 20.01 24.252 28.55 57.384 26.2 47.07-3.34 58.3-19.03 58.05-81.09-.26-63.29-5.33-79.9-25.38-83.11-3.52-.56-6.4-1.7-6.4-2.54 0-.85-1.35-.79-3.1.15-3.19 1.71-15.28.58-15.28-1.43 0-.62.91-2.02 2.01-3.13 1.1-1.1 1.57-2 1.04-2s-1.9 1.12-3.05 2.5ZM587.737 708.783c5.284.332 13.929.332 19.214 0 5.284-.331.96-.603-9.607-.603-10.568 0-14.892.272-9.607.603Z" clip-rule="evenodd"/><path fill="#4F8C99" fill-rule="evenodd" d="M691.931 25.438c1.144-7.485 13.01-19.317 21.673-21.609 9.167-2.427 234.381-2.708 240.756-.302 15.52 5.858 18.749 14.514 19.304 51.745.506 34.005-.153 36.32-12.779 44.781l-8.172 5.478-121.419-.46-121.419-.46-6.777-4.489c-13.206-8.75-17.18-35.322-11.167-74.684Zm171.508 438.76c-5.727-2.759-10.425-5.616-10.442-6.347-.032-1.609 11.759.341 14.328 2.37 1.004.791 2.296.968 2.872.391 1.282-1.282 6.074 1.73 24.943 15.68 8.486 6.274 21.678 13.914 31.494 18.239 23.132 10.19 38.277 20.822 38.277 26.872 0 1.192.739 2.169 1.642 2.169.904 0 3.547 3.763 5.877 8.363 2.329 4.599 3.79 8.362 3.249 8.362-.54 0 .206 1.189 1.659 2.644 1.452 1.454 2.246 3.283 1.763 4.066-.483.781-.084 1.913.887 2.514.972.6 1.28 2.629.685 4.506-.722 2.276-.466 3.032.767 2.269 1.051-.649 1.849-.017 1.849 1.464 0 1.433-.895 2.607-1.989 2.607-1.11 0-.754.925.807 2.091 2.008 1.502 2.633 3.975 2.217 8.78-.319 3.68-.682 8.804-.807 11.388-.126 2.584-.928 4.265-1.783 3.737-.856-.53-2.027-.198-2.605.737-.576.935-.242 1.7.742 1.7 1.146 0 .897 2.145-.692 5.95-3.438 8.239-9.205 16.021-11.035 14.889-.839-.519-1.139.058-.672 1.281.873 2.276-13.797 14.675-17.362 14.675-1.049 0-1.967-1.318-2.038-2.927-.106-2.332-.326-2.417-1.087-.418-.524 1.379-1.781 3.062-2.791 3.738-1.096.732-.49 1.261 1.503 1.311 2.268.055 1.225 1.084-3.238 3.196-3.618 1.714-7.69 2.689-9.045 2.168-1.507-.579-2.03-.241-1.345.869 1.761 2.852-36.15 9.691-47.259 8.523-2.351-.247-5.026-.005-5.945.539-4.898 2.895-24.242 3.298-25.305.527-1.612-4.207.905-4.999 23.229-7.318 11.25-1.167 27.223-3.301 35.493-4.741 8.27-1.44 16.658-2.694 18.638-2.788 1.978-.094 3.283-.681 2.898-1.305-.384-.624 1.003-1.659 3.083-2.301 2.082-.641 6.959-3.29 10.84-5.887 4.549-3.044 7.451-4.081 8.166-2.92.719 1.164 1.651.836 2.635-.924.837-1.497 2.57-2.722 3.85-2.722 1.428 0 2.078-1.293 1.684-3.345-.478-2.486.299-3.396 3.019-3.539 2.77-.148 2.959-.38.777-.952-2.665-.699-2.684-1.069-.234-4.809 1.458-2.229 3.311-3.642 4.12-3.142.807.498 1.021-.259.474-1.688-.678-1.768-.006-2.604 2.107-2.621 2.125-.018 2.458-.436 1.054-1.329-1.548-.984-1.619-2.863-.287-7.687 3.445-12.49.799-27.396-7.806-43.958-2.957-5.694-4.892-10.895-4.3-11.557.591-.664.13-.663-1.024.003-1.259.724-2.547.045-3.215-1.694-2.521-6.576-10.3-12.181-28.936-20.846-18.034-8.386-18.971-8.863-25.897-13.161-5.79-3.594-26.855-19.299-29.238-21.798-.459-.482-5.522-3.134-11.251-5.894Zm-149.962 63.793c5.084 1.952 5.787-28.066.733-31.268-1.52-.963 8.287-1.542 26.402-1.558l28.82-.025-.22 9.616c-.181 7.895-.405 8.592-1.253 3.896-1.93-10.688-5.185-8.125-5.496 4.328-.157 6.285-.359 12.934-.447 14.773-.216 4.463-48.26 6.195-49.944 1.802-.629-1.639-.157-2.165 1.405-1.564Zm329.963 40.856c0-.857 1.69-1.884 3.76-2.282 2.06-.399 3.98-.828 4.26-.953 9.23-4.203 17.29 17.146 9.6 25.452-11.32 12.224-30.96-1.182-24.04-16.402 1.07-2.343 2.95-4.26 4.18-4.26 1.23 0 2.24-.701 2.24-1.555ZM939.775 692.913c-7.278-6.513-7.338-14.345-.161-20.764 8.945-8.002 20.25-5.894 24.626 4.591 6.412 15.362-11.868 27.445-24.465 16.173Zm-593.022 57.044c-3.58-3.84-3.682-57.145-.117-60.714 3.699-3.703 10.875-4.597 12.735-1.587.797 1.289 1.577 1.164 2.58-.418 1.204-1.903 1.44-1.9 1.461.025.019 1.661.61 1.811 2.139.54 2.707-2.249 36.451-2.194 39.238.064 3.681 2.982 2.909 59.097-.836 60.762-4.173 1.853-55.596 3.047-57.2 1.328Zm54.696-30.702c.231-11.499-.304-22.036-1.19-23.415-1.939-3.028-44.31-4.568-48.517-1.765-3.37 2.245-2.768 43.171.685 46.643 1.771 1.781 6.875 1.948 25.409.836l23.194-1.393.419-20.906Zm-46.723-.181c-.407-10.48-.438-19.639-.063-20.356.947-1.82 37.547-.915 40.101.992 1.437 1.07 2.089 6.974 2.089 18.912v17.358h-5.591c-3.075 0-12.387.483-20.692 1.073l-15.1 1.072-.744-19.051Zm116.068-9.823 79.565-.433c43.76-.239 80.251-.395 81.09-.344 1.933.115 1.975.463 3.363 27.506.961 18.723 4.513 68.107 8.361 116.238.441 5.52 1.203 15.304 1.691 21.743.488 6.439 2.115 25.815 3.615 43.057 3.684 42.346 3.524 42.58-30.374 44.286-15.283.769-24.816 1.711-31.12-2.359-11.116-7.177-12.193-29.934-17.05-96.692-.469-6.439-1.619-21.868-2.558-34.286-2.633-34.88-3.273-44.01-3.363-48.084-.326-14.452-20.51-3.523-25.09 13.585-13.867 51.803-24.152 86.566-36.925 124.814-15.69 46.979-17.139 48.539-42.197 45.44-27.791-3.438-41.759-8.397-48.262-17.131l-3.204-4.304 6.95-18.275c14.135-37.165 39.744-121.73 45.042-148.729 3.536-18.018 8.26-46.261 9.301-55.594l1.165-10.438ZM51.006 1060.65c4.342-7.56 4.698-7.7 21.235-8.63 8.995-.51 27.258-.69 40.583-.39 13.324.29 27.992.51 32.594.49 3.271-.02 5.726-.34 7.565.57 5.93 2.95 5.449 18.82 5.178 99.73l-.309 92.84-4.773 4.78c-6.504 6.53-13.697 7.6-51.115 7.67-46.28.08-52.59-2.36-49.492-19.14 2.578-13.98 1.283-132.94-1.467-134.68-1.664-1.05-1.804-1.59-.417-1.61 1.15-.01 2.088-1.15 2.088-2.53s-.752-2.51-1.67-2.51c-2.027 0-1.48-3.65.835-5.56 1.082-.9.935-1.68-.418-2.23-1.148-.47-2.088-1.96-2.088-3.32 0-1.36.752-2 1.67-1.43.92.56 1.671-.14 1.671-1.58 0-1.43-.565-2.61-1.253-2.61-1.868 0-2.22-16.73-.418-19.86Zm46.846 21.22c11.012 11.83 26.916-7.43 17.382-21.05-3.346-4.79-13.945-5.17-18.024-.66-4.046 4.47-3.674 17.07.642 21.71Zm16.706 37.65c-.035-.17-1.245-1.48-2.688-2.93-3.711-3.71-12.919-3.34-16.543.67-4.606 5.09-4.285 16.34.58 20.29 11.599 9.4 22.266-.91 18.651-18.03Zm-19.034 63.93c12.055 11.19 25.936-6.65 15.507-19.92-4.197-5.34-12.932-6.03-17.162-1.35-4.53 5.01-3.646 16.35 1.656 21.27Zm17.532 47.61c6.512-6.51 4.88-19.44-2.829-22.4-13.675-5.26-23.222 11.84-12.569 22.51 6.162 6.16 9.154 6.14 15.398-.11Z" clip-rule="evenodd"/><path fill="#4F8C99" d="M351.254 461.064c-.651.651-1.183 15.315-1.183 32.587 0 36.636-.041 36.542 15.315 34.999l8.911-.897v-66.9l-10.93-.486c-6.013-.268-11.463.046-12.113.697Z"/><path fill="#1A2223" d="M411.054 317.841c-52.166 20.244-52.106 20.16-36.382 50.477 15.119 29.155 16.5 29.766 44.327 19.622 74.043-26.991 70.222-22.798 53.349-58.567-15.005-31.811-10.984-31.055-61.294-11.532Zm135.332 44.88c-7.903 3.741-11.528 7.516-14.843 15.457-1.673 4.005-3.616 5.934-6.179 6.126-7.147.539-8.567 8.358-3.358 18.496 19.558 38.061 128.802 36.513 128.802-1.824 0-18.577-9.717-24.16-25.318-14.549-13.851 8.529-23.017 6.295-38.144-9.303-16.176-16.678-27.639-20.709-40.96-14.403Zm-111.443 50.546c-10.038 10.048-2.8 28.352 11.212 28.352 7.661 0 13.433-2.868 15.674-7.789 8.439-18.541-12.731-34.733-26.886-20.563Zm205.841 577.161c-2.297.928-10.466 1.822-18.151 1.984l-13.975.296.848 9.392c1.602 17.76 14.642 37.5 27.594 41.78 6.96 2.3 60.114.88 62.663-1.67 3.477-3.48-1.007-8.89-11.134-13.44-11.047-4.96-19.101-12.76-23.78-23.03-7.312-16.056-13.108-19.742-24.065-15.312Zm-245.587 5.606c-12.495 15.716-25.616 26.866-34.591 29.376-14.619 4.1-22.519 15.21-12.623 17.76 10.112 2.6 56.093 1.55 61.401-1.4 22.249-12.37 42.589-49.898 27.046-49.898-3.101 0-10.01-1.506-15.351-3.345-14.871-5.122-16.135-4.755-25.882 7.507Zm194.156-737.972c-6.414 7.812.742 17.583 8.938 12.206 2.236-1.467 4.065-4.101 4.065-5.854 0-6.653-9.104-11.102-13.003-6.352Zm27.623-.284c-7.556 4.405.932 17.446 8.659 13.306 2.212-1.185 3.454-3.512 3.454-6.474 0-7.68-5.419-10.736-12.113-6.832Zm30.093-1.684c-8.148 4.753-6.091 16.603 2.884 16.603 7.241 0 10.668-13.258 4.307-16.667-3.844-2.059-3.545-2.062-7.191.064Zm25.591 1.794c-4.282 4.601-4.416 8.42-.417 12.041 5.73 5.191 11.86 3.112 14.29-4.846 2.37-7.763-8.229-13.259-13.873-7.195Zm28.355.492c-3.467 4.181-1.464 11.555 3.625 13.337 7.961 2.786 15.189-7.866 9.323-13.738-2.76-2.763-10.524-2.523-12.948.401Zm27.338.089c-5.567 8.504 1.623 17.134 10.369 12.448 4.413-2.363 5.579-11.002 1.973-14.611-3.363-3.367-9.418-2.306-12.342 2.163Z"/><path fill="#1A2223" fill-rule="evenodd" d="M315.271 65.698c6.652-2.668 21.212-2.967 180.992-3.736 95.568-.46 178.035-.58 183.262-.27l9.502.567v10.637c0 11.48 1.534 15.719 8.349 23.07 8.92 9.623 10.43 9.813 77.099 9.703l61.013-.1 4.362 7.046c10.417 16.825 11.179 23.333 11.333 96.945l.117 56.447h4.23c16.886 0 18.995 5.569 19.413 51.282.394 43.02-1.335 47.395-18.74 47.395H851.3l.023 43.903c.019 36.959-.385 46.393 4.126 51.289 1.961 2.128 4.85 3.399 9.105 5.7 6.238 3.373 16.522 10.314 22.852 15.424 6.926 5.591 20.828 13.878 34.901 20.804 55.147 27.138 70.725 74.849 35.368 108.321-17.16 16.248-27.419 19.376-81.314 24.802-22.687 2.283-29.689 5.902-22.809 11.791.324.277 34.14-3.601 53.554-6.143 90.235-11.82 106.874-110.63 24.32-144.456-8.691-3.562-19.937-9.361-24.991-12.888-5.054-3.526-15.03-10.38-22.17-15.232l-12.978-8.819 102.364-.49c128.019-.612 130.189-.182 144.879 28.645l5.76 11.305-.14 91.745c-.13 83.31-.12 101.247-8.72 112.682-2.41 3.209-5.51 5.906-9.47 9.392-2.87 2.515-4.92 4.528-7.24 6.145-9.95 6.922-24.94 6.584-130.467 7.385-63.865.484-116.305 1.049-116.536 1.255-.23.204-.432 96.145-.451 213.198-.031 204.348.162 256.138-24.853 275.818-8.704 6.84-20.458 9.79-36.335 13.93-11.71 3.06-450.631 3.91-466.434.91-28.714-5.45-59.371-34.51-62.903-59.62-.372-2.66-1.413-8.6-2.312-13.19-.899-4.6-2.175-16.27-2.839-25.93-.617-9-.1-14.09-2.397-16.72-3.477-3.99-13.401-2.34-43.465-.06-12.406.94-28.757 2.1-36.339 2.59l-13.784.89v-21.82l17.961-.2c9.879-.12 31.032-.68 47.01-1.26l29.049-1.05.189-174.776c.105-97.129.841-175.788 1.656-177.054.859-1.331.822-2.721-.089-3.345-.952-.652-1.522-117.987-1.467-302.117l.089-301.05 3.948-11.708c9.923-29.429 26.724-46.718 57.32-58.982ZM98.599 126.25c-24.133 11.465-42.825-23.939-21.504-40.727 3.077-2.424 6.853-3.492 12.338-3.492 23.494 0 30.553 34.06 9.166 44.219Zm438.984 1.324c9.363-9.374 7.53-24.405-3.795-31.1-15.389-9.101-34.638 8.018-27.701 24.638 5.46 13.082 21.578 16.389 31.496 6.462Zm80.489 2.357c10.475-8 11.484-22.146 2.197-30.794-16.937-15.772-41.146 9.526-25.849 27.009 7.482 8.552 15.689 9.865 23.652 3.785Zm-492.647 81.143c-14.541-20.704-3.298-58.349 19.979-66.903 15.21-5.592 39.067 6.315 47.469 23.689 19.613 40.556-41.72 79.852-67.448 43.214Zm-72.35 13.88c-7.48-5.247-7.616-20.18-.236-26.267 10.032-8.272 26.57-.045 26.57 13.22 0 12.309-16.046 20.261-26.333 13.047Zm963.805 129.97c.1-1.532.13-25.174.07-52.542l-.1-49.756h8.21v103.807l6.03 6.037c13.75 13.768 1.97 39.527-15.08 32.975-1.46-.558-2.65-2.107-2.65-3.443 0-1.337-.72-1.984-1.6-1.439-7.81 4.832-7.83-20.784-.02-28.163 2.73-2.579 5.05-5.944 5.14-7.476ZM80.102 392.162c-47.475-14.948-46.419-81.889 1.447-91.727 28.734-5.906 61.922 7.065 70.244 27.454 16.43 40.259-26.298 78.566-71.691 64.273Zm35.022-11.601c33.24-9.674 37.521-49.019 7.048-64.767-6.881-3.554-30.378-5.863-36.08-3.545-21.55 8.764-28.417 16.667-28.388 32.673.048 27.139 27.684 44.293 57.42 35.639Zm932.346 146.356c15.88 0 20.85-21.731 6.47-28.291-7.56-3.447-14.95-1.045-19.26 6.259-5.27 8.946 2.32 22.032 12.79 22.032Zm12.91 65.503c7.94-7.098 7.08-18.946-1.74-24.166-16.23-9.593-31.99 10.686-18.67 24.019 6.43 6.437 13.32 6.487 20.41.147ZM941.74 695.956c16.029 8.587 32.352-10.316 20.247-23.447-7.092-7.693-16.062-7.939-24.097-.66-6.641 6.017-4.464 19.653 3.85 24.107Zm-911.79 20.54c-13.086-16.815-15.315-21.272-12.401-24.788 2.928-3.532 5.535-3.206 9.667 1.204 3.15 3.365 52.609 69.426 57.726 77.104 1.881 2.825 2.866 2.066 11.213-8.65 9.299-11.938 13.925-14.981 17.835-11.733 3.53 2.934 2.685 5.112-7.849 20.226-4.937 7.083-8.12 10.272-8.556 13.801-.645 5.201 4.668 11.141 19.102 31.368 11.312 15.855 25.332 35.977 31.154 44.716 5.823 8.739 10.863 16.215 11.201 16.611.339.398 7.559-.968 16.044-3.035 28.293-6.893 47.395-1.497 30.229 8.538-6.215 3.634-72.688 26.389-77.089 26.389-12.679 0-7.805-10.863 8.695-19.386 4.667-2.41 9.061-4.917 9.766-5.573 2.454-2.28-55.008-86.784-59.182-87.034-.6-.035-7.316 8.59-14.923 19.169-13.735 19.1-17.3 21.881-21.52 16.793-3.496-4.216-.41-11.137 13.367-29.971 5.056-6.913 8.618-11.411 9.52-16.391 1.965-10.847-8.688-23.984-43.998-69.358Zm986.68 238.507c-8.73-8.739-9.52-23.949-1.57-30.389 12.77-10.351 25.18 9.652 16.33 26.325-2.27 4.27-2.78 13.341-3.26 58.061-.61 57.04-1.1 60.05-9.31 57.44-2.96-.94-3.14-1.89-1.85-9.79 3.28-20.09 3.02-98.285-.34-101.647Zm-66.218 34.604c-7.921-6.182-11.982-22.405-6.886-27.506 7.919-7.928 20.391 3.26 20.782 18.642.386 15.117 14.127 45.777 31.706 70.737l7.236 10.27-5.064 2.1c-7.859 3.26-22.923-19.67-39.052-59.43-2.613-6.444-6.538-13.107-8.722-14.813Zm134.798 17.533c0-3.35 1.81-7.185 5.26-11.112 7.51-8.565 18.2-8.154 20.01.769 1.77 8.703-2.42 17.583-9.95 21.093-3.37 1.57-13.75 10.87-23.05 20.66-21.17 22.29-28.12 27.34-35.51 25.86l-5.42-1.08 20.89-21.09c25.46-25.71 27.77-28.62 27.77-35.1Zm-996.713 39.92c-7.725-19.83-2.213-29.19 18.479-31.39 8.27-.88 15.625-1.7 16.342-1.83 2.155-.38 2.752 3.2 3.241 19.43.384 12.78.03 15.5-2.04 15.65-17.914 1.28-35.146.39-36.022-1.86Zm25.281 34.32c-11.129 11.14-25.623-6.43-16.634-20.16 1.946-2.97 4.202-4.12 8.095-4.12 11.225 0 16.841 15.97 8.539 24.28Zm-17.54 54.94c-4.456-5.67-4.514-14.61-.122-19.01 9.176-9.19 22.659 2.04 18.116 15.09-3.169 9.1-12.352 11.1-17.994 3.92Zm461.09 44.54c28.348 0 38.228-37.03 13.274-49.75-12.471-6.36-23.319-4.14-32.849 6.73-14.91 17-3.069 43.02 19.575 43.02Zm-462.465.66c-4.807-5.35-5.005-14.46-.418-19.05 7.046-7.06 17.174-2.28 19.308 9.11 2.489 13.28-9.996 19.85-18.89 9.94Zm9.493 52.86c-10.22 0-14.276-15.64-5.92-22.84 5.588-4.81 7.7-4.88 13.327-.45 9.476 7.46 4.442 23.29-7.407 23.29Zm681.249-1018.6c-8.11-8.117-9.734-9.253-16.355-11.44-6.758-2.233-192.483-3.25-344.829-1.888l-93.563.836-7.898 3.893c-9.07 4.473-15.359 11.281-20.351 22.031l-3.496 7.526-.512 405.581c-.522 411.711-.457 416.931 5.303 427.181 3.005 5.35 14.699 16.66 17.614 17.04 1.462.18 5.288 1.17 8.505 2.18 8.312 2.62 440.708 2.55 443.862-.07 1.226-1.02 2.23-1.37 2.23-.77 0 1.84 9.652-3.8 14.058-8.21 2.292-2.3 3.711-4.17 3.151-4.17-.561 0 .227-1.38 1.749-3.07 1.524-1.68 7.636-16.21 6.984-16.86-.559-1.77-.334-3.63.498-4.14l-4.658-777.253c-.172-43.254-.976-47.069-12.292-58.397Z" clip-rule="evenodd"/><path fill="#A0B501" fill-rule="evenodd" d="M503.782 528.401c-7.121 1.512-11.647 3.879-15.428 8.06-3.135 3.467-9.507 50.355-13.021 95.824a5386.75 5386.75 0 0 1-3.941 47.666c-1.136 12.878-1.751 24.357-1.366 25.506.877 2.627 152.944 3.064 159.789.46l4.286-1.631V532.052l-3.759-2.144c-4.244-2.422-116-3.753-126.56-1.507ZM18.394 617.798c-16.136 7.335-21.706 23.508-16.51 47.937 1.796 8.436 3.1 27.329 3.984 57.701 1.872 64.172 6.799 85.092 26.066 110.663 2.194 2.912 11.707 10.416 21.137 16.676 24.545 16.294 40.743 28.895 52.183 40.589 11.352 11.605 11.444 11.639 16.421 6.096 2.024-2.255 7.815-6.336 12.869-9.07 5.054-2.736 9.403-6.004 9.662-7.264.713-3.445-36.755-58.929-52.731-78.084l-4.6-5.516-13.226 18.61c-14.019 19.726-18.966 23.39-23.584 17.469-4.053-5.196-1.407-11.926 11.93-30.335 6.945-9.587 12.983-18.359 13.417-19.492.775-2.022-16.83-27.288-44.344-63.642-17.33-22.898-18.306-24.896-14.32-29.307 5.028-5.559 11.788-1.065 22.64 15.046 2.166 3.22 6.032 8.488 8.587 11.708 2.556 3.219 12.454 16.515 21.995 29.546l17.351 23.692 8.738-11.506c9.318-12.268 12.944-14.569 18.372-11.661 6.028 3.23 2.04 12.843-12.73 30.685-5.296 6.396-5.344 6.229 6.682 22.633 12.711 17.338 24.096 33.592 39.812 56.841l11.697 17.302 6.122-1.11c3.367-.611 10.08-2.245 14.918-3.63l8.795-2.518-3.171-4.474c-11.989-16.909-17.685-30.51-26.755-63.903-11.365-41.831-18.319-52.584-50.18-77.608-24.94-19.586-27.955-24.816-31.883-55.301-4.346-33.734-35.714-59.514-59.344-48.773Z" clip-rule="evenodd"/><path fill="#E1FF01" fill-rule="evenodd" d="M515.88 97.627c-13.012 7.235-12.825 26.078.322 32.354 11.964 5.712 24.031-1.453 25.578-15.187 1.562-13.871-13.67-23.966-25.9-17.167Zm84.607.298c-8.22 4.472-11.66 15.842-7.33 24.228 5.19 10.045 14.175 12.612 23.728 6.782 18.415-11.241 2.52-41.301-16.398-31.01ZM225.463 294.387c-13.224 5.355-14.363 11.376-13.643 72.083.743 62.65 2.549 66.776 29.235 66.783l10.442.003v-140.49l-11.278.105c-6.202.059-12.843.741-14.756 1.516Zm812.667 209.156c-10.33 10.341 1.94 26.097 16.09 20.662 7.79-2.992 9.26-14.278 2.71-20.833-6.39-6.402-12.29-6.349-18.8.171ZM521.186 516.74c-.383.385-.697 2.83-.697 5.438v4.738h91.892v-10.871l-45.249-.002c-24.886 0-45.562.314-45.946.697Zm112.915 59.244v44.167l11.219 7.321c19.575 12.774 27.817 29.031 32.349 63.807 2.572 19.729 1.629 18.899 23.06 20.319l17.343 1.148-.889-28.105c-1.781-56.293-40.75-130.393-79.323-150.833l-3.759-1.992v44.168Zm-245.602-33.686c-17.225 2.126-17.875 8.334-5.847 55.848 13.626 53.831 54.266 73.991 87.935 43.622 3.943-3.557 4.519-5.593 5.579-19.689.65-8.645 2.969-30.357 5.154-48.25 2.184-17.89 3.714-32.789 3.398-33.105-.316-.316-6.462 7.265-13.658 16.847-27.442 36.543-38.276 35.574-60.787-5.437-6.814-12.413-5.544-11.84-21.774-9.836Zm694.201 276.79c-12.36.818-15.38 1.808-16.3 5.329-1.77 6.76.63 7.416 31.61 8.647 16.39.652 30.89 1.465 32.23 1.806 1.33.343 2.5-.507 2.6-1.887.1-1.379.77-3.826 1.51-5.435 4.03-8.831-10.39-11.194-51.65-8.46Zm-227.641 11.626c-3.133 1.313-2.675 13.393.555 14.634 6.724 2.584 200.356 1.077 204.156-1.589 4.4-3.08 4.81-7.789.95-10.99-2.76-2.299-200.366-4.275-205.661-2.055Zm-617.525 97.649c-6.235 1.87-11.052 6.272-13.675 12.497-2.556 6.066-1.644 67.98 1.076 73.07 2.381 4.45 11.473 9.7 16.818 9.71 10.203.02 9.744 2.35 9.744-49.509v-47.488l-4.595.144c-2.526.079-6.743.788-9.368 1.576Z" clip-rule="evenodd"/><path fill="#F6906B" fill-rule="evenodd" d="M533.168 424.06c-.914 3.647-1.963 4.181-8.218 4.181-11.525 0-15.047 4.467-13.674 17.34 1.314 12.297 5.988 17.782 15.154 17.782 3.616 0 5.754.81 5.754 2.181 0 31.866 44.426 33.887 57.314 2.606 2.446-5.937 2.687-6.064 9.944-5.247 11.642 1.315 14.61-1.175 14.61-12.252 0-12.73-1.9-15.72-9.985-15.72-3.589 0-6.925-.647-7.415-1.438-.488-.791-7.431-1.971-15.428-2.621-19.811-1.609-31.878-4.003-39.313-7.801-7.802-3.984-7.486-4.02-8.743.989ZM379.99 502.946c-.085 6.286-.032 14.573.118 18.418.201 5.093-.664 7.929-3.186 10.453-1.903 1.905-3.46 5.576-3.46 8.157v4.693l11.278-1.484c20.874-2.746 19.441-.155 11.936-21.581-11.057-31.561-16.429-37.568-16.686-18.656Zm300.317 231.622c-1.468 33.988 1.467 43.225 13.742 43.225 9.233 0 13.946-10.565 20.216-45.318 3.76-20.837 4.797-19.469-16.036-21.138l-16.859-1.35-1.063 24.581ZM424.497 960.34c-.433 1.246-2.636 7.277-4.895 13.405l-4.109 11.141 4.463 1.816c19.032 7.742 23.748 6.299 28.669-8.776 4.265-13.063 4.095-13.385-8.332-15.796-5.055-.982-10.5-2.295-12.1-2.919-1.786-.697-3.213-.261-3.696 1.129Zm193.995 2.669-9.76.607 1.196 10.367c2.117 18.349 2.296 18.541 16.078 17.258 15.406-1.433 15.389-1.418 14.091-12.485-1.828-15.558-2.481-17.026-7.43-16.671-2.427.173-8.806.59-14.175.924Z" clip-rule="evenodd"/><path fill="#F1FF8A" fill-rule="evenodd" d="M356.337 254.495c-7.372 5.506-5.567 6.501 11.695 6.449l16.29-.05-5.457-4.967c-6.648-6.055-15.579-6.622-22.528-1.432Zm312.186 39.351c-20.695 6.36-26.122 19.181-15.207 35.935 14.861 22.808 52.627 12.836 52.627-13.897 0-21.451-13.486-29.394-37.42-22.038Z" clip-rule="evenodd"/><path fill="#F5F4EE" fill-rule="evenodd" d="M330.503 206.809c-10.328 2.619-18.906 10.108-24.64 21.515l-4.945 9.838-.331 402.359c-.209 255.057.265 405.959 1.298 412.189 2.728 16.46 12.843 28.9 27.302 33.56 13.002 4.2 438.519 3.21 446.093-1.04 8.078-4.52 15.473-12.23 18.351-19.13 3.851-9.22 3.927-825.294.077-834.516-3.787-9.075-10.596-16.941-19.001-21.949l-7.781-4.636-214.569-.018c-151.15-.015-216.721.527-221.854 1.828Zm47.463 45.744c6.952 4.243 10.112 13.793 7.343 22.193-6.227 18.884-30.787 19.026-36.99.214-5.662-17.175 13.942-31.992 29.647-22.407Zm279.525 3.419c8.69 8.699-4.046 23.758-13.79 16.307-5.086-3.889-5.372-10.657-.647-15.387 5.123-5.128 9.928-5.434 14.437-.92Zm25.645-1.768c8.176 3.111 6.997 16.023-1.833 20.05-10.033 4.576-17.859-9.341-9.794-17.414 4.678-4.681 5.664-4.905 11.627-2.636Zm30.1 1.89c7.818 6.155 2.86 19.123-6.865 17.953-10.663-1.283-12.837-15.831-2.964-19.84 4.832-1.961 4.979-1.933 9.829 1.887Zm27.125-2.188c8.409 5.622 4.257 20.463-5.724 20.463-9.391 0-13.781-11.583-6.974-18.397 3.368-3.372 9.301-4.337 12.698-2.066Zm-140.048 2.998c7.151 5.012 2.76 17.465-6.157 17.465-1.345 0-4.185-1.635-6.312-3.636-9.325-8.77 1.911-21.234 12.469-13.829Zm28.418.008c4.282 3.004 3.996 9.162-.664 14.318-3.672 4.061-8.156 3.987-12.345-.206-9.191-9.2 2.274-21.637 13.009-14.112Zm65.458 34.694c17.505 6.036 18.197 37.287 1.061 47.887-28.234 17.468-65.338-18.916-41.403-40.598 8.048-7.29 29.235-11.119 40.342-7.289Zm-233.172 13.287c4.384 3.925 24.386 45.992 24.386 51.285 0 8.51-3.831 10.554-57.935 30.886-36.562 13.741-38.924 12.984-54.23-17.362-15.525-30.781-14.011-34.161 21.301-47.549 11.84-4.491 28.67-11.025 37.4-14.523 18.505-7.412 23.347-7.869 29.078-2.737Zm112.37 57.45c2.608 1.621 9.812 8.08 16.009 14.352 11.47 11.612 13.418 12.492 25.466 11.496 2.741-.225 8.071-2.221 11.842-4.432 12.158-7.133 22.126-3.529 25.345 9.166 5.681 22.404-13.406 37.308-49.83 38.91-5.086.224-4.892.362 1.768 1.255 18.991 2.547 16.59 31.21-2.597 31.023l-8.798-.087-3.819 8.163c-13.822 29.54-48.168 27.143-57.194-3.99-.471-1.628-3.431-3.116-7.485-3.765-18.126-2.902-20.062-34.144-2.299-37.096 3.417-.567 7.153-1.326 8.301-1.686 3.995-1.249 2.13-8.424-3.648-14.029-11.098-10.769-12.602-24.05-3.229-28.541 3.219-1.542 5.996-4.601 7.208-7.941 5.271-14.527 28.867-21.557 42.96-12.798Zm-111.408 50.344c10.451 13.301 1.667 31.062-15.361 31.062-13.585 0-22.255-15.842-15.657-28.614 5.669-10.975 23.229-12.359 31.018-2.448Zm-85.297 46.72c2.801 3.564 3.463 6.793 3.463 16.902 0 11.217.413 12.819 4.032 15.671 2.284 1.798 5.981 8.429 8.525 15.292 12.229 32.988 16.056 42.003 22.646 53.343 16.836 28.966 28.777 30.529 47.974 6.283 32.448-40.98 31.272-39.981 47.059-39.981h10.108v-11.263l45.854-.026 45.856-.027.507 5.24c.483 4.959.966 5.295 9.028 6.28 11.433 1.398 23.93 9.627 36.94 24.326 10.061 11.367 28.891 36.509 28.891 38.577 0 .562 1.063 2.209 2.361 3.661 28.065 31.398 37.323 117.326 18.224 169.145-7.475 20.275-6.686 68.82 1.135 69.889 13.588 1.856 12.345 19.762-1.584 22.826-10.319 2.268-18.342-8.045-11.734-15.086 3.243-3.456 3.582-5.158 2.723-13.656-.539-5.339-1.007-18.1-1.04-28.357l-.061-18.649-6.198-1.468c-11.64-2.755-13.105-7.926-12.477-44.022.894-51.349-7.044-85.289-23.311-99.668-5.817-5.143-19.658-12.351-20.645-10.752-1.41 2.283.429 101.271 2.315 124.636.966 11.959 2.166 27.764 2.667 35.123 1.318 19.314 2.73 36.226 3.386 40.534.313 2.058 1.05 11.465 1.638 20.907.586 9.441 2.16 29.961 3.495 45.599 5.463 63.971 5.352 65.404-5.388 69.492-3.479 1.323-4.062 2.412-3.317 6.197.497 2.525 1.392 8.166 1.992 12.535 1.076 7.864 1.151 7.944 7.323 7.944 7.445 0 9.184 1.77 17.486 17.786 7.176 13.84 10.685 17.42 21.01 21.4 15.047 5.79 20.283 16.18 9.607 19.04-9.938 2.67-57.028 2.46-63.583-.28-15.237-6.37-34.486-48.453-24.882-54.395 1.594-.987 1.686-3.965.401-12.87-.921-6.372-1.688-12.15-1.706-12.841-.019-.691-4.356-1.266-9.64-1.28-22.161-.057-22.39-.993-32.243-132.102-1.002-13.338-2.103-27.262-2.446-30.941-.342-3.68-.666-10.223-.72-14.539l-.095-7.851-8.319.191c-9.684.22-7.856-3.381-18.483 36.415-13.629 51.041-34.523 116.774-43.41 136.575-6.301 14.035-10.092 16.27-25.867 15.256l-12.464-.799-4.11 13.44c-2.26 7.392-3.762 14.002-3.34 14.689 4.54 7.352-23.896 44.632-38.917 51.032-5.742 2.44-41.638 3.03-55.429.91-16.141-2.49-13.015-13.16 6.2-21.16 12.919-5.39 26.45-17.1 38.191-33.076 5.179-7.046 6.554-7.945 12.156-7.945 6.182 0 6.391-.207 9.727-9.616 5.825-16.426 5.825-16.048.009-18.816-13.223-6.292-13.341-9.346-1.571-40.14 22.467-58.783 46.581-152.527 50.333-195.683 1-11.498 2.926-33.336 4.281-48.525 1.355-15.192 2.463-28.699 2.463-30.017 0-1.492-2.047-.415-5.43 2.857-39.402 38.103-80.444 1.433-93.195-83.267-4.254-28.255-2.794-25.487-13.739-26.043-13.336-.674-16.203-4.872-16.181-23.691.008-8.026-.762-17.222-1.714-20.434-1.98-6.685-2.288-26.708-.453-29.423 4.955-7.331 28.244-8.232 33.686-1.304Zm394.411 33.21c6.594 7.956 1.31 42.151-6.763 43.768-4.391.878-4.922 1.657-4.922 7.207 0 9.797-3.436 11.714-21.333 11.906-18.45.199-18.766.029-18.766-10.073 0-7.49-.329-8.12-4.691-8.995-10.371-2.075-15.186-37.405-6.015-44.119 4.616-3.38 59.658-3.109 62.49.306ZM712.07 499.6c-1.811 1.811-1.293 25.644.556 25.644 1.711 0 2.393-7.374 1.776-19.217-.381-7.3-.668-8.093-2.332-6.427Zm12.574 44.46.513 7.108 13.366-.573c15.561-.669 14.088.06 15.328-7.582l.982-6.061h-30.704l.515 7.108ZM388.37 671.737c2.827 2.382 5.141 5.792 5.141 7.578 0 3.313.747 3.787 8.711 5.531 9.135 1.999 11.739 58.394 2.984 64.607-6.554 4.653-55.89 5.84-60.274 1.452-10.165-10.176-3.42-64.718 8.195-66.278 6.052-.813 7.453-1.765 9.371-6.361 4.69-11.232 16.691-14.263 25.872-6.529Zm-17.295 4.987c-5.203 5.21-3.255 7.408 6.564 7.408 6.85 0 9.189-.609 9.189-2.39 0-3.656-4.795-7.645-9.189-7.645-2.165 0-5.119 1.182-6.564 2.627Zm24.635 21.114c2.676 2.029 2.972 4.516 2.506 21.06-.291 10.318.058 18.759.777 18.757 3.403-.008.471-40.919-2.976-41.528-3.181-.56-3.196-.478-.307 1.711ZM941.103 829.22c19.527.267 51.481.267 71.007 0 19.53-.268 3.55-.487-35.504-.487-39.054 0-55.03.219-35.503.487Zm-234.03 14.02c-.695 2.658-1.833 3.33-4.468 2.641-2.909-.761-3.186-.503-1.565 1.452 3.455 4.166 11.586.167 11.586-5.7 0-3.43-4.584-2.102-5.553 1.607ZM41.295 983.073c.307 1.599 2.055 3.168 3.881 3.485 1.828.318 4.292 1.828 5.477 3.355 1.888 2.434 2.35 2.469 3.734.278.869-1.375 1.59-1.662 1.606-.639.013 1.024 1.715 1.873 3.784 1.888 10.352.076 11.278.419 11.303 4.195.018 2.661.434 3.118 1.42 1.562.768-1.212 2.696-2.393 4.285-2.627 1.59-.233 3.502-1.414 4.249-2.625.8-1.297 2.97-1.828 5.296-1.294 2.166.497 5.442.274 7.28-.493 2.877-1.203 2.645-1.43-1.671-1.641-2.757-.136-6.516-.654-8.354-1.152-1.838-.499-6.725-1.139-10.86-1.424-4.135-.286-9.774-1.697-12.53-3.137-7.208-3.765-19.642-3.59-18.9.269Zm97.485 18.737c-.636 1.03.383 1.77 2.446 1.77 1.947 0 3.075.75 2.507 1.67-1.036 1.68 1.002 2.28 6.053 1.8 2.382-.23 14.246 5.66 16.502 8.19.459.52 3.336 2.99 6.394 5.51 3.056 2.51 4.952 4.57 4.213 4.57-.74 0 2.34 3.39 6.844 7.53 7.891 7.25 10.872 8.72 13.12 6.47 2.575-2.58-8.145-15.23-20.547-24.24-11.386-8.28-35.378-16.759-37.532-13.27Zm413.955 129.46c-.736 1.24-5.096 5.09-9.691 8.56-9.874 7.46-11.339 10.54-9.316 19.56 6.691 29.81 48.551 24.23 48.572-6.48.01-13.3-15.265-27.78-22.966-21.77-1.398 1.09-2.088 1.01-2.088-.25 0-2.59-2.891-2.35-4.511.38Z" clip-rule="evenodd"/><path stroke="#4F8C99" stroke-linecap="round" stroke-width="13" d="M873 465.707c6.667 5.167 22.5 17 32.5 23 12.5 7.5 50.33 25.726 60 40 10.5 15.5 20 39 11 57.5s-29.5 43.5-56 47c-21.2 2.8-50.167 7.167-62 9"/></svg>