<svg xmlns="http://www.w3.org/2000/svg" width="1835" height="1448" fill="none"><path fill="#3E6D77" fill-rule="evenodd" d="M433.823 2.114c-.266.706-.616 16.236-.777 34.512l-.293 33.228-3.32 1.666c-12.72 6.386-8.872 25.413 5.14 25.413 14.486 0 19.055-16.955 6.661-24.716-3.096-1.939-3.096-1.939-2.589-13.57 1.396-32.034-1.453-65.44-4.822-56.533Zm949.127-.527c-.37.374-.68 8.458-.68 17.966 0 9.506-.32 17.284-.72 17.283-.4-.001-.51 5.447-.25 12.107.76 18.78.39 21.58-2.87 22.298-10.3 2.261-11.65 19.235-1.93 24.262 14.41 7.449 27.3-14.4 13.33-22.574-2.88-1.681-2.88-1.681-2.39-15.251 1.24-34.606-.77-59.803-4.49-56.09ZM440.906 80.65c1.372 1.372 1.535 4.308.281 5.082-1.415.875-3.842-.453-4.474-2.449-1.07-3.366 1.713-5.113 4.193-2.633Zm947.664 2.714c0 1.513-.62 2.517-1.7 2.723-1.91.37-3.16-1.95-2.28-4.25.92-2.408 3.98-1.237 3.98 1.527Zm-826.991 80.45c-18.232.362-24.746.805-25.686 1.746-2.094 2.1-1.81 90.066.302 93.287.858 1.309 1.584 2.768 1.614 3.241.029.474.636 1.221 1.348 1.661.712.44 1.294 1.361 1.294 2.047 0 .686.982 1.677 2.181 2.203 1.199.527 2.181 1.436 2.181 2.019 0 12.229 2.762-2.458 3.097-16.465.619-25.924-.149-25.103 23.683-25.336 24.506-.238 21.69 3.823 21.653-31.223-.033-31.766-.139-32.498-4.815-33.266-1.333-.219-13.416-.18-26.852.086Zm-105.466 3.15c-2.156 8.835.117 60.351 2.676 60.644 2.962.342 4.402-58.761 1.502-61.661-1.81-1.811-3.594-1.376-4.178 1.017Zm360.099 28.779c0 31.788.119 32.752 3.886 31.556 4.238-1.344 2.705-62.516-1.566-62.516-2.32 0-2.32 0-2.32 30.96Zm256.628-11.372c-4.62 3.436-9.32 24.236-6.08 26.924 2.24 1.86 16.87 1.374 19.09-.632 6.83-6.179-5.78-31.664-13.01-26.292Zm-148.611 5.082c-1.966 3-1.048 6.159 2.143 7.372 4.258 1.62 7.898-1.864 6.53-6.25-1.302-4.174-6.254-4.815-8.673-1.122Zm-.392 30.516c-2.426 4.532 1.181 9.762 5.735 8.317 3.811-1.21 4.852-7.315 1.612-9.451-2.141-1.41-6.332-.763-7.347 1.134Zm145.113 7.917c-6.87 2.66-.67 28.979 6.83 28.979 6.9 0 15.14-22.872 9.94-27.582-2.28-2.066-12.78-2.941-16.77-1.397Zm-144.313 24.525c-1.437 3.156.387 5.647 3.832 5.231 5.321-.645 5.196-6.744-.151-7.383-1.959-.234-2.823.271-3.681 2.152Zm83.733 22.597c-2.41.868-1.69 164.083.73 164.083 2.01 0 3.21-162.975 1.21-164.106-.4-.226-1.27-.215-1.94.023Zm113.24 23.296c-12.81 6.531-9.61 26.749 4.45 28.1 9.34.897 15.88-4.535 16.53-13.716.83-11.749-10.68-19.64-20.98-14.384Zm-695.05 93.292v9.693h53.311v-19.386H426.56v9.693Zm493.114-6.369c-7.43 2.652-10.847 8.41-10.21 17.21 1.59 21.975 32.733 19.374 31.55-2.634-.634-11.796-10.414-18.475-21.34-14.576Zm147.946 7.858c-4.81 4.811 2.5 26.62 8.92 26.62 7.74 0 14.76-24.726 7.84-27.618-5.79-2.419-13.82-1.94-16.76.998Zm84.1 19.593c-3.53 6.601-11.11 35.125-9.86 37.075 1.88 2.94 26.38 2.481 27.53-.516.52-1.352-8.3-33.035-10.16-36.52-1.23-2.29-6.3-2.317-7.51-.039ZM918.957 479.92c-6.281 2.504-9.694 8.197-9.694 16.166 0 20.061 27.664 22.819 32.072 3.2 2.938-13.077-10.023-24.292-22.378-19.366ZM356.049 676.807c-.867 1.093-5.007 15.639-15.793 55.492l-8.658 31.986c-7.87 29.065-19.239 71.398-23.298 86.751-2.043 7.73-6.162 23.214-9.151 34.409a47592.994 47592.994 0 0 0-10.332 38.772c-2.692 10.129-5.497 20.379-6.234 22.778-.737 2.399-2.859 10.25-4.718 17.447-1.858 7.197-4.221 16.21-5.251 20.03-1.728 6.409-1.748 6.978-.258 7.368 4.56 1.192 5.366-.325 9.75-18.333 2.317-9.517 6.542-26.027 9.39-36.689 2.849-10.663 6.272-23.53 7.605-28.594 3.311-12.562 9.776-36.814 12.016-45.072 1.012-3.732 4.104-15.29 6.87-25.686 9.077-34.113 3.801-26.571 34.908-49.896 50.524-37.883 52.018-39.104 51.026-41.689-.97-2.527-4.136-1.617-9.5 2.728-10.726 8.69-65.09 49.138-65.498 48.732-.232-.234.476-3.406 1.576-7.048s3.747-13.165 5.882-21.161c7.711-28.877 15.765-58.417 19.425-71.243 4.907-17.192 5.459-20.338 3.759-21.415-1.807-1.145-2.388-1.09-3.516.333Zm-227.005 91.291c-.92 1.109-.077 4.104 4.16 14.782a4633.346 4633.346 0 0 1 10.765 27.446 9231.7 9231.7 0 0 0 10.202 26.171c2.614 6.664 8.5 21.93 13.082 33.925 4.581 11.995 8.947 23.335 9.701 25.201 6.72 16.612 24.718 65.599 30.982 84.328 4.111 12.296 6.272 15.006 9.438 11.839.98-.98-23.836-70.305-36.508-101.983-1.812-4.531-7.309-18.707-12.215-31.501-12.851-33.519-16.381-42.654-23.41-60.581-3.448-8.796-7.279-18.828-8.511-22.293-3.172-8.922-4.956-10.625-7.686-7.334Zm307.209 100.069c-16.793 21.136-32.931 41.351-35.863 44.92a3023.322 3023.322 0 0 0-12.3 15.111 36973.858 36973.858 0 0 1-24.259 29.944c-29.022 35.792-28.112 34.419-22.81 34.389 3.16-.018 4.014-.556 6.535-4.12 3.047-4.306 10.262-13.329 39.319-49.17 9.724-11.995 28.811-35.767 42.415-52.826 13.605-17.06 28.124-35.232 32.266-40.382 10.024-12.467 10.268-12.884 8.687-14.789-2.313-2.786-3.239-1.78-33.99 36.923ZM35.523 1145.28c-2.595 2.6-2.232 38.48.416 41.13 1.876 1.87 3.23 1.94 41.68 1.94h39.74v241.35H0l.28 8.48.28 8.48 916.737.18 916.733.17-.28-8.41-.27-8.42-136.19.23c-203.33.34-266.45.37-582.54.27-48.78-.02-213.107-.25-365.176-.53l-276.488-.49v-241.31h213.727c212.435 0 213.738-.02 215.665-1.94 2.212-2.21 3.008-36.9.936-40.78-1.416-2.64-865.246-2.99-867.89-.35Zm374.559 163.74v120.68H182.301v-241.35h227.781v120.67Z" clip-rule="evenodd"/><path fill="#1A2223" fill-rule="evenodd" d="M382.161 37.995c-29.1 3.21-51.936 22.967-61.395 53.12-2.281 7.27-2.28 7.27-2.28 266.069 0 291.815-.942 263.243 9.255 281.063l4.114 7.191 4.826-9.837c4.826-9.837 4.826-9.837 3.011-14.728-2.163-5.831-3.432-503.762-1.318-517.641 4.754-31.225 24.2-44.13 67.589-44.854 26.413-.44 26.413-.44 26.487-2.994.041-1.405.15-5.935.242-10.066l.169-7.51-7.27-.039c-3.998-.02-14.03-.13-22.293-.243-8.263-.113-17.775.098-21.137.47Zm57.404-.27c-.222.222-.404 4.91-.404 10.42V58.16l7.997.04c4.398.021 216.393.13 471.101.242l463.101.203-.27-10.424-.27-10.423-470.425-.24c-258.735-.13-470.608-.055-470.83.167Zm948.935.565c-.93 2.872-.92 19.876.01 19.924.57.03 12.16.198 25.75.375 32.37.42 40.75 3.03 53.38 16.636 14.01 15.092 13.96 14.822 14.1 83.256.15 73.945.62 68.724-6.28 70.259-12.44 2.768-25.3 11.432-33.34 22.464l-4.69 6.439 2.87 4.7c8.88 14.53 8.79 31.027-.24 44.222-4.18 6.106-4.18 6.106-2.31 9.461 1.71 3.058 1.8 4.472 1.11 15.957-2.94 48.67 8.36 68.334 39.27 68.334 3.01 0 3.01 0 3.07 7.997.04 4.398.1 53.141.14 108.317.07 111.515.51 104.642-7.48 117.296-3.95 6.26 2.1 25.773 6.67 21.493 6.61-6.198 13.69-17.757 18.33-29.926 2.15-5.634 2.15-5.634 2.42-115.246l.26-109.611 7.72-1.658c75.97-16.324 71.87-154.283-5.06-170.653-2.63-.559-2.63-.559-2.93-66.704-.29-66.145-.29-66.145-2.81-72.948-9.77-26.427-27.57-43.047-52.38-48.895-9.18-2.165-56.97-3.402-57.58-1.49Zm-332.55 103.778c-1.23 3.204 1.35 3.343 57.4 3.093 56.17-.25 56.17-.25 56.48-2.431.41-2.886-112.77-3.545-113.88-.662Zm212.41-.507c-2.28 3.692.02 3.862 48.86 3.601 47.12-.251 47.12-.251 47.43-2.432.35-2.436-94.8-3.59-96.29-1.169Zm-372.315 19.828c-1.664 4.333-1.437 4.362 34.878 4.362 36.15 0 37.747-.192 36.152-4.35-.846-2.205-70.185-2.216-71.03-.012Zm421.195 63.967c-5.4 1.735-12.42 7.719-15.78 13.465-4.19 7.134-5.9 6.864-15.51-2.447-26.88-26.052-66.84-3.116-55.06 31.611 2.32 6.84 2.15 7.295-2.62 7.295-23.42 0-31.58 37.086-12.67 57.604 10.08 10.942 35.96 16.874 37.28 8.549 3.88-24.4 22.72-37.322 44.83-30.756 15.86 4.71 22.5 17.193 22.52 42.33 0 8.435.41 14.484.98 14.839.53.33.97.008.97-.715 0-4.698 11.92-11.737 19.87-11.733 16.29.008 20.9 7.227 23.4 36.68.87 10.129 1.74 18.603 1.94 18.83 3.53 3.983 36.09-27.612 45.86-44.508 7.12-12.298 17.53-47.503 14.06-47.503-.16 0-2.27.848-4.69 1.886-37.56 16.102-71.12-35.133-41.88-63.949 7.93-7.814-6.23-14.984-19.91-10.083-4.83 1.728-4.29 2.154-14.15-11.167-7.33-9.905-18.43-13.761-29.44-10.228Zm-875.5 2.429c-28.406.956-29.005 66.667-.694 76.07 28.44 9.447 43.622-7.175 43.728-47.876.08-31.075 2.154-29.717-43.034-28.194Zm106.197 28.408c-.168 11.93-.485 15.173-1.428 14.639-.961-.542-.965-.417-.016.606 2.056 2.216 2.256.661 1.954-15.165l-.295-15.403-.215 15.323Zm-89.425.912c13.129 6.732 8.279 25.912-6.556 25.925-14.835.013-19.31-19.715-5.99-26.407 4.483-2.253 7.433-2.139 12.546.482Zm-31.317 169.217c-2.178 2.406-2.362 24.929-.228 27.848 1.627 2.224 410.871 3.511 417.181 1.311 3.709-1.292 4.452-5.003 3.75-18.709-.693-13.54 4.829-12.223-51.259-12.223-44.013 0-48.276.139-46.891 1.523 1.562 1.563 2.312 22.433.934 26.022-.731 1.906-12.885 2.211-14.726.371-1.467-1.467-1.601-23.348-.16-26.041 1.532-2.863-306.01-2.965-308.601-.102Zm1.692 70.696c-3.888 2.596-4.916 21.87-1.357 25.429 2.682 2.682 91.777 3.073 94.436.416 2.509-2.51 2.211-24.212-.352-25.584-2.167-1.159-91.007-1.41-92.727-.261Zm577.743 41.184c-1.73 4.53.13 73.904 1.99 73.904 1.9 0 1.94-.731 2.19-37.56.25-38.087-.61-45.633-4.18-36.344Zm323.27 43.892c-1.08 1.305 13.46 58.402 22.83 89.622.72 2.399 4.22 15.049 7.79 28.11 6.4 23.449 8.25 27.799 11.32 26.618 2.87-1.1 2.64-3.268-2.12-20.074-2.6-9.197-11.14-40.275-18.97-69.063-15.92-58.516-16.6-60.324-20.85-55.213Zm-514.98 21.45c-4.181 4.18-3.926 4.2 54.984 4.2 57.264 0 57.364-.007 56.098-3.635-.457-1.312-109.779-1.869-111.082-.565ZM408.813 663.72c.328 3.598 1.079 8.234 1.668 10.301l1.072 3.76 395.945.117 395.942.119 3.06-9.208c1.69-5.065 3.1-9.753 3.15-10.42.07-.968-80.66-1.212-400.67-1.212H408.217l.596 6.543Zm947.457 184.684c-.56.685-1.51 5.157-2.09 9.935-2.81 22.951-10.61 45.987-29.17 86.055-7.51 16.229-7.86 18.592-2.73 18.592 6.73 0 34.59-69.717 39.12-97.857 2.55-15.856.29-23.248-5.13-16.725Zm121.47 315.726c-.7 1.13 2.82 9.9 19.42 48.38 18 41.72 17.62 40.95 20.12 40.6 3.22-.46 3.12-3.56-.34-11.08-4-8.7-21.36-48.53-28.58-65.56-5.64-13.31-8.19-16.27-10.62-12.34Z" clip-rule="evenodd"/><path fill="#F7F9FF" fill-rule="evenodd" d="M432.57 1.166c-.814.814-1.163 6.166-1.163 17.86v16.697l-19.579.104c-10.769.056-19.783.307-20.032.556-.249.25 8.78.453 20.063.453h20.517V19.583c0-12.127.346-17.6 1.163-18.417.64-.64.945-1.163.679-1.163-.267 0-1.008.523-1.648 1.163Zm954.28-.122c.81 1.04 1.29 7.054 1.48 18.901l.29 17.375.22-17.57c.2-15.74.04-17.71-1.48-18.902-1.49-1.173-1.55-1.15-.51.196ZM439.379 19.633l-.218 17.207 471.072-.006c259.087-.003 471.067-.332 471.067-.73 0-.396-211.75-.612-470.559-.476l-470.565.246-.29-16.724-.289-16.724-.218 17.207Zm962.581 16.959c6.83.166 17.73.165 24.23-.002s.91-.304-12.41-.303c-13.33 0-18.65.138-11.82.305ZM378.351 60.597c-18.892 4.105-35.688 22.134-38.951 41.813-2.156 13.011-.972 512.512 1.23 518.184l1.79 4.611 3.855-3.157c27.559-22.574 59.486-6.384 62.107 31.494.185 2.666.185 2.666 401.139 2.666h400.959l3.57-10.42c19.61-57.123 59.94-156.559 71.25-175.697 5.83-9.844 14.79-17.407 24.5-20.67 1.46-.493 1.63-1.692 1.29-9.567-.21-4.953-.42-10.313-.47-11.912-.08-2.908-.08-2.908-9.53-2.968-33.51-.216-50.64-21.753-49.1-61.732l.67-17.205-5.71-.014c-45.37-.114-62.15-68.8-17.57-71.948 1.47-.104 2.48-.639 2.24-1.189-17.38-39.756 25.72-65.472 57.87-34.532 2.55 2.45 5.05 4.411 5.57 4.358.52-.054 1.52-.163 2.22-.243.7-.079 2.24-1.859 3.42-3.954 11.74-20.884 35.29-20.604 49.68.592 5.78 8.517 5.56 8.378 10.59 6.603 8.02-2.829 17.4-1.084 22.98 4.271 2.16 2.074 2.16 2.074 7.27-.785 13.1-7.334 29.76-5.514 41.5 4.533 4.13 3.541 4.13 3.541 5.68 1.195 9.12-13.845 22.52-23.753 36.64-27.088 6.64-1.569 6.28 2.506 5.91-68.386-.34-66.004-.11-63.936-8.48-76.976-11.6-18.069-25.47-23.301-61.84-23.328l-22.54-.017v5.75c0 5.248.25 5.925 2.83 7.767 10.7 7.617 4.86 25.264-8.36 25.25-16.02-.015-18.5-23.165-3.02-28.323.57-.192 1.26-2.62 1.53-5.396l.48-5.048H439.161v5.037c0 4.76.242 5.251 4.427 8.966 11.239 9.975 4.851 25.778-9.924 24.552-14.965-1.24-17.266-27.893-2.408-27.893.711 0 1.12-1.944 1.12-5.33v-5.332l-23.99.077c-16.293.052-25.929.499-30.035 1.39Zm1124.569 99.822c0 33.053.12 46.715.27 30.36.15-16.354.15-43.397 0-60.095s-.27-3.317-.27 29.735ZM316.533 237.962c0 70.903.115 99.765.256 64.139.141-35.626.141-93.637 0-128.914-.141-35.277-.256-6.128-.256 64.775Zm854.137-96.796c1.83 4.766 2.64 4.695-56.51 4.982-62.35.303-64.83.054-58.86-5.922 1.63-1.628 114.74-.706 115.37.94Zm195.09.285c2.59 4.831 1.77 4.914-48.91 4.914-48.38 0-49.92-.117-49.92-3.752 0-2.856 2.92-3.033 50.08-3.033 46.18 0 47.78.061 48.75 1.871Zm-398.533 18.678c5.753 5.753 1.345 6.591-34.707 6.591-37.153 0-42.298-.926-36.633-6.591 1.668-1.668 69.673-1.668 71.34 0Zm-515.182 3.533c11.079.846 10.347-1.51 10.364 33.348l.015 29.805h8.193c15.43 0 15.245-.386 14.875 31.044-.274 23.349-.409 24.931-2.476 29.125-14.23 28.876-56.753 24.376-60.978-6.454-.421-3.064-1.206-4.678-2.642-5.43-14.428-7.555-15.129-10.465-15.129-62.809 0-54.658-2.863-49.067 25.201-49.209 7.73-.039 17.889.222 22.577.58Zm140.429.785c1.646 1.49 1.772 3.798 1.772 32.471v30.867h5.913c16.75 0 19.179 50.768 3.244 67.804-18.581 19.865-50.012 10.751-53.608-15.546-.474-3.465-1.377-6.309-2.078-6.542-2.697-.899-8.504-7.109-11.203-11.981-4.197-7.577-5.067-92.184-.991-96.261 3.155-3.155 53.568-3.873 56.951-.812Zm228.865.226c.857.855 1.248 9.456 1.452 31.9l.277 30.727 7.106-.314c17.709-.784 18.172-.008 18.347 30.758.136 23.929.136 23.929-3.041 30.384-13.304 27.023-53.121 23.052-58.613-5.846-1.059-5.576-1.278-5.899-4.691-6.921-4.55-1.364-12.914-8.842-15.688-14.027-2.095-3.916-2.137-4.769-2.412-48.154-.318-50.547-.593-48.802 7.819-49.693 8.951-.947 48.253-.005 49.444 1.186Zm259.381 19.598c5.49 5.902 9.28 22.977 5.89 26.586-5.76 6.132-22.25 2.656-22.27-4.694-.03-14.361 10.4-28.308 16.38-21.892Zm-148.702 3.151c2.101 1.536 2.416 6.563.551 8.81-1.595 1.922-7.188 1.953-8.769.048-4.407-5.312 2.656-12.925 8.218-8.858Zm-.215 30.912c4.035 3.082 1.509 11.389-3.464 11.389-2.352 0-6.475-3.919-6.475-6.155 0-5.257 5.865-8.345 9.939-5.234Zm231.397 4.595c16.32 8.327 10.66 34.896-7.43 34.901-10.38.004-17.76-7.643-17.76-18.414 0-13.836 13.31-22.546 25.19-16.487Zm-76.53 6.552c4.9 6.21-3.46 28.351-10.71 28.351-6.7 0-14.8-23.948-9.8-28.955 3.47-3.468 17.62-3.051 20.51.604Zm-154.697 21.151c4.548 4.548-2.579 10.899-7.367 6.565-2.166-1.959-2.218-3.143-.263-5.933 1.759-2.514 5.443-2.818 7.63-.632Zm-365.351 12.871c-6.724 2.185-9.076 7.936-5.631 13.766 3.359 5.686 10.845 6.064 15.298.773 6.077-7.223-.722-17.448-9.667-14.539Zm236.296-.073c-2.998.481-7.061 5.625-7.061 8.942 0 8.687 13.483 12.739 17.488 5.255 4.041-7.551-1.85-15.57-10.427-14.197Zm-212.902 2.227c-5.112 4.021-2.115 12.53 4.414 12.53 6.144 0 8.783-7.599 4.222-12.159-2.906-2.907-5.283-3.009-8.636-.371Zm236.505 0c-5.122 4.029-2.251 12.53 4.231 12.53 6.313 0 9.04-7.525 4.405-12.159-2.906-2.907-5.283-3.009-8.636-.371Zm184.999 91.527c0 82.389 0 82.389-2.42 82.389-2.26 0-4.61-158.424-2.44-164.119 4.42-11.576 4.86-4.154 4.86 81.73Zm123.62-59.369c5.03 2.538 8.65 8.119 8.67 13.365.06 11.902-14.02 20.499-23.32 14.237-16.93-11.412-3.48-36.754 14.65-27.602Zm296.35 17.496c-2.18 1.786-2.8 3.371-3.63 9.18-4.9 34.577-21.87 61.933-50.39 81.22-11.25 7.614-10.45 5.074-8.16 26.108 1.84 16.928 1.15 15.619 8.81 16.847 18.38 2.948 24.07 10.186 40.89 52.088 4.31 10.726 11.04 27.083 14.97 36.348 13 30.659 22.12 54.372 29.64 77.105l7.43 22.456 2.63-4.155c7.45-11.777 6.95-3.473 7.2-118.785.26-123.843 1.12-111.751-8.04-113.291-27.29-4.584-39.88-25.453-35.32-58.558 2.87-20.853.38-31.81-6.03-26.563Zm-349.84 34.478c8.56 9.265 9.9 25.109 2.32 27.218-14.02 3.893-21.08-1.742-17.16-13.708 4.94-15.083 9.53-19.262 14.84-13.51Zm-229.366 8.22c18.754 9.353 18.645 8.795 18.953 97.231.309 89.152.495 88.08-16.885 97.433-9.191 4.946-1.647 4.794-222.809 4.479l-207.447-.296-6.459-3.18c-7.857-3.867-14.307-10.686-17.437-18.433-3.131-7.747-3.561-149.052-.481-157.881 3.333-9.554 11.407-17.611 21.031-20.989 9.447-3.315 424.765-1.741 431.534 1.636Zm-535.801 33.1c-.001 13.327.135 18.914.303 12.414.167-6.499.168-17.403.001-24.232-.167-6.827-.304-1.51-.304 11.818Zm614.411-6.835c19.884 7.092 11.244 37.933-9.535 34.035-19.142-3.591-15.64-35.354 3.898-35.354 1.066 0 3.602.593 5.637 1.319Zm155.986 8.357c4.09 5.026-2.4 26.117-8.51 27.65-9.84 2.471-18.25-25.656-8.88-29.711 3.89-1.682 15.47-.31 17.39 2.061Zm416.05 114.792c0 58.642.12 82.489.26 52.993.14-29.495.14-77.474 0-106.621-.14-29.146-.26-5.014-.26 53.628Zm-343.71-96.108c1.39 1.677 10.99 33.35 11.01 36.327.02 3.791-1.44 4.223-14.75 4.368-17.69.193-17.23 1.012-11.03-19.707 6.71-22.459 9.85-26.913 14.77-20.988Zm-422.994 16.384c-.299 1.199-.416 7.197-.261 13.328l.281 11.147h13.57l.274-11.98c.325-14.316.138-14.676-7.643-14.676-5.083 0-5.736.229-6.221 2.181Zm-419.701 93.294c0 46.38.119 65.495.264 42.479.144-23.017.144-60.964 0-84.328-.144-23.364-.264-4.531-.264 41.849Zm616.678-41.102c12.628 6.114 11.973 26.064-1.049 31.978-11.855 5.383-23.86-2.705-23.86-16.078 0-13.681 12.72-21.8 24.909-15.9Zm232.427 3.225c13.9 10.602 7.12 32.56-10.09 32.694-15.74.121-23.84-17.957-13.38-29.866 6.08-6.933 16.45-8.182 23.47-2.828Zm548.53 38.14c-1.12.922-4.14 4.729-6.71 8.46-9.65 14.012-21.53 28.83-39.23 48.949-13.99 15.904-32.16 38.684-39.62 49.676-5.05 7.436-2.68 5.276 3.18-2.908 10.77-15.013 18.83-24.973 44.12-54.502 17.5-20.426 24.24-29 33.02-41.947 6.23-9.179 10.54-10.678 15.48-5.373 1.09 1.16 1.97 1.621 1.97 1.023 0-3.814-8.74-6.232-12.21-3.378Zm-629.45 12.095c7.45 5.07 9.54 12.526 5.63 20.091-5.63 10.889-20.24 10.91-25.75.036-6.76-13.337 8.17-28.265 20.12-20.127Zm644.07 2.181c.41 2.132 1.29 7.585 1.96 12.116.68 4.532 1.28 6.712 1.34 4.847.12-3.958-2.47-19.395-3.4-20.255-.34-.321-.3 1.16.1 3.292Zm-717 38.945c.27 40.825-.24 44.445-5.27 37.562-3.81-5.203-1.49-76.292 2.47-75.832 2.54.294 2.54.294 2.8 38.27Zm720.81 9.035c.03 25.411.07 26.01.89 12.853.52-8.219.5-19.001-.03-26.655-.83-11.929-.89-10.935-.86 13.802Zm-805.812 19.951c3.927 4.732 3.534 4.765-56.876 4.765-59.266 0-63.423-.408-55.47-5.449 2.667-1.691 110.922-1.032 112.346.684Zm804.202 16.002c-.4 4.582-1.59 13.306-2.66 19.386-2.03 11.629-2.3 14.151-1.41 13.259.3-.299.94-3.098 1.41-6.219.48-3.122 1.56-10.175 2.42-15.674.85-5.498 1.41-12.041 1.25-14.539-.23-3.589-.44-2.795-1.01 3.787Zm-109.19 19.296c-7.55 12.155-8.92 14.58-12.9 22.778-4.98 10.257-8.54 18.722-8.51 20.241.01.597 2.35-4.242 5.21-10.751 4.61-10.527 12.31-24.939 18.13-33.964 1.12-1.734 1.82-3.151 1.56-3.151-.27 0-1.84 2.181-3.49 4.847ZM314.189 673.783c-6.627 6.899-12.678 13.442-13.446 14.539-.769 1.097 4.189-3.734 11.016-10.738 10.649-10.921 15.93-16.794 14.778-16.438-.164.051-5.72 5.738-12.348 12.637Zm1407.551-3.521c-1.2 4.798-2.45 9.814-2.79 11.147-.34 1.333-.3 2.131.09 1.773.39-.358 1.07-2.102 1.51-3.877.44-1.775 1.51-5.818 2.38-8.984.86-3.167 1.44-6.438 1.27-7.27-.16-.832-1.27 2.413-2.46 7.211Zm-1126.361 8.966c97.381.136 257.022.136 354.758 0 97.733-.135 18.059-.247-177.058-.247s-275.081.112-177.7.247Zm561.781-.003c6.53.168 17.22.168 23.75 0 6.53-.167 1.18-.305-11.88-.305s-18.4.138-11.87.305Zm441.84 5.196c-6.25 19.3-6.68 20.866-6.1 22.319.39.995.54.941.6-.22.04-.849 1.58-6.286 3.42-12.083 1.84-5.796 3.16-10.725 2.93-10.953-.23-.227-.61.194-.85.937ZM82.131 692.07c-7.588 3.788-18.541 15.128-23.406 24.233-1.433 2.682.992-.314 5.716-7.064 6.021-8.604 15.117-15.844 22.864-18.201 1.94-.59 2.04-.747.49-.783-1.065-.025-3.615.792-5.664 1.815Zm341.994 36.855c.006 9.318-.285 20.213-.649 24.211-.66 7.27-.66 7.27.654-.969 1.406-8.811 1.794-29.968.665-36.327-.385-2.171-.678 3.546-.67 13.085Zm1165.255-7.578c-3.31 19.332-1.22 62.728 2.84 58.673.24-.24-.27-3.007-1.14-6.149-2.1-7.655-2.93-33.116-1.48-45.451 1.07-9.083.93-13.748-.22-7.073Zm-91.07 34.697c.29 6.131.7 11.329.89 11.551.72.814.22-15.064-.59-18.821-.55-2.549-.65-.06-.3 7.27Zm-314.12-3.257c-.76 5.498-.65 14.589.2 17.586.35 1.217.66-3.253.7-9.935.07-13.468-.01-14.16-.9-7.651Zm-692.517 7.977c-.724.46 1.817.615 5.835.357 8.53-.547 17.213 1.42 25.005 5.668 2.936 1.6 4.465 2.202 3.399 1.337-7.82-6.34-28.752-10.84-34.239-7.362ZM38.319 776.05c-1.619 17.27 3.222 36.444 11.712 46.39 1.7 1.993 1.41 1.231-.921-2.423-7.43-11.639-10.953-26.768-9.873-42.406.745-10.806.058-11.975-.918-1.561Zm422.156.2c-8.727 7.037-19.404 17.864-23.12 23.443-1.967 2.956-1.85 2.893.975-.516 6.865-8.284 16.143-17.344 23.112-22.567 9.267-6.945 9.327-6.996 8.192-6.996-.511 0-4.634 2.986-9.159 6.636Zm-195.476 7.678c-10.805 10.372-17.491 18.222-20.348 23.891-1.995 3.958-.62 2.348 4.067-4.765 2.108-3.198 9.284-11.159 15.946-17.689 6.662-6.53 11.902-11.866 11.643-11.856-.259.009-5.348 4.698-11.308 10.419Zm1330.271 10.468c.6 8.241-1.43 11.29-11.27 16.923-3.23 1.852-5.89 3.707-5.9 4.124-.05 1.374 11.05-6.144 14.75-9.992 3.81-3.958 4.69-9.052 2.68-15.482-.43-1.39-.54.498-.26 4.427ZM188.073 804.478c5.228 4.987 8.892 7.251 22.294 13.777 8.82 4.296 17.345 8.714 18.944 9.817 2.674 1.842 2.775 1.853 1.262.124-1.785-2.039-3.428-2.921-23.09-12.412-9.223-4.451-14.966-7.947-19.386-11.799l-6.281-5.474 6.257 5.967Zm233.271 17.335c-5.33 6.645-7.427 8.557-14.636 13.344-5.467 3.629-7.079 5.234-3.168 3.153 4.972-2.645 12.364-8.791 16.382-13.622 5.649-6.792 6.969-8.548 6.424-8.548-.249 0-2.5 2.553-5.002 5.673Zm766.066 3.195c-.62 2.319-1.68 5.962-2.36 8.094-.67 2.132-2.18 7.148-3.36 11.147-1.17 3.998-2.48 8.36-2.92 9.693-2.29 7.024-3.22 10.721-2.79 11.146.26.261 3.4-9.39 6.98-21.447 3.58-12.057 6.3-22.131 6.05-22.387-.26-.254-.97 1.434-1.6 3.754ZM55.325 829.227c1.866 2.085 5.79 5.99 8.719 8.679 22.472 20.627 23.71 22.443 28.765 42.198 1.706 6.669 3.13 11.47 3.163 10.67.142-3.423-5.06-22.112-7.69-27.622-2.428-5.086-5.428-8.432-19.608-21.86-9.208-8.72-15.215-14.15-13.35-12.065Zm463.163 28.349c-5.129 5.198-9.823 10.541-10.429 11.874-1.104 2.423-1.104 2.423.547 0 .909-1.333 5.913-6.676 11.121-11.874 5.208-5.197 9.158-9.45 8.778-9.45-.38 0-4.887 4.253-10.017 9.45Zm1054.752 3.848c-.06 3.554 11.41 19.255 20.03 27.41l5.64 5.33-5.9-6.299c-8.48-9.046-12.72-14.587-16.46-21.525-1.8-3.354-3.29-5.566-3.31-4.916Zm139.22 25.5c-12.95 13.376-26.23 29.863-30.49 37.858-3.53 6.615-1.69 5.422 2.1-1.364 4.97-8.888 15.38-21.964 25.99-32.644 10.14-10.214 16.79-17.447 16.05-17.447-.27 0-6.41 6.119-13.65 13.597Zm43.52-3.419c3.65 9.456 10.13 29.488 10.13 31.295 0 .824.28 1.22.62.88 1.4-1.402-9.58-34.863-12.47-37.991-.49-.533.29 2.084 1.72 5.816Zm-256.75 39.902c-.35.355-.55 7.661-.43 16.236l.22 15.589.28-15.024c.24-12.709.54-15.211 1.91-16.236 1.37-1.021 1.39-1.211.15-1.211-.82 0-1.77.291-2.13.646Zm139.36 26.978c0 14.394.13 20.417.3 13.386.16-7.032.16-18.809 0-26.17-.17-7.363-.3-1.61-.3 12.784Zm-29.84-7.531c-.34 3.609-.56 10.051-.48 14.316.1 5.901.32 4.408.93-6.246.85-14.746.6-19.167-.45-8.07Zm162.69 19.647c0 13.061.28 21.131.62 17.932.81-7.575.82-29.539.01-36.348-.34-2.932-.63 5.355-.63 18.416ZM117.359 948.583c0 2.005 15.89 21.744 22.921 28.474 12.187 11.666 12.348 11.125.291-.986-6.104-6.13-13.824-15.019-17.155-19.752-3.331-4.733-6.057-8.213-6.057-7.736Zm1382.651 17.795c.39 5.598 1.29 13.885 2.01 18.417 1.23 7.84 1.27 7.934.88 1.938-1.04-15.93-2.36-29.387-2.95-29.933-.36-.329-.33 3.981.06 9.578Zm166.91-6.681c-.21.743-.81 2.877-1.35 4.743-.53 1.866-1.51 5.355-2.17 7.754-.67 2.399-1.6 5.364-2.07 6.588-.48 1.225-.84 3.187-.8 4.362.03 1.175 1.13-1.572 2.43-6.103 1.3-4.532 3.02-10.379 3.82-12.993.8-2.614 1.24-4.966.98-5.227-.26-.261-.64.134-.84.876Zm-59.34 42.063c0 18.66.13 26.15.29 16.65.16-9.49.16-24.758 0-33.92-.16-9.162-.29-1.391-.29 17.27Zm31.68-.41c.06 9.82.43 22.65.81 28.52.38 5.86.48-1.99.23-17.45-.26-15.461-.62-28.291-.82-28.514-.19-.222-.29 7.629-.22 17.444Zm19.78-13.163c-.37 1.6-1.03 3.999-1.46 5.331a221.01 221.01 0 0 0-1.96 6.782c-.65 2.4-1.57 5.37-2.05 6.59-.88 2.26-1.2 5.7-.46 4.96.87-.87 7.37-24.554 7.01-25.53-.22-.572-.7.268-1.08 1.867Zm-1263.981.515c-6.398.985-12.722 2.265-14.055 2.846-2.423 1.055-2.423 1.055 0 .531 1.333-.288 8.299-1.414 15.48-2.503 7.181-1.087 13.252-2.173 13.489-2.41.7-.7-2.577-.362-14.914 1.536Zm1374.151 7.48c-.64 4.828-1.4 10.228-1.68 12.018-.37 2.37-.27 2.73.34 1.31 1.11-2.54 3.45-19.263 2.92-20.858-.23-.682-.94 2.707-1.58 7.53Zm-1607.535 2.836c-1.776 4.952-2.483 68.302-.864 77.372.381 2.13.804-14.16.94-36.22.157-25.35.619-40.785 1.254-41.973.553-1.033.857-2.323.676-2.867-.181-.544-1.085 1.116-2.006 3.688Zm972.015 11.462c-.37 1.6-1.03 4-1.46 5.33-.43 1.33-1.31 4.39-1.97 6.79-.66 2.4-1.53 5.45-1.94 6.78-.41 1.33-1.27 4.39-1.93 6.79-.65 2.4-1.57 5.36-2.05 6.59-.47 1.22-.83 3.18-.8 4.36.04 1.17 2.66-6.81 5.82-17.74s5.58-20.3 5.38-20.84c-.2-.53-.67.34-1.05 1.94Zm-781.33 30.05c-.001 17.59.13 24.92.291 16.3.159-8.63.16-23.03.001-31.99-.161-8.96-.292-1.9-.292 15.69Zm1298.97-26.55c-.25.74-1.09 3.31-1.87 5.71-1.8 5.53-4.4 12.47-5.68 15.17-.55 1.15-.82 2.6-.62 3.22.21.62 2.45-4.63 4.99-11.67 2.53-7.05 4.38-13.03 4.12-13.3-.27-.26-.69.12-.94.87Zm-144.02 5.93c0 13.03 18.11 73.93 30.34 102.04 1.86 4.26 4.31 9.89 5.44 12.49 1.14 2.61 2.29 4.53 2.55 4.26.27-.26-1.27-4.24-3.41-8.84-2.15-4.59-3.9-8.59-3.9-8.87 0-.28-.82-2.37-1.83-4.63-1-2.26-2.79-6.72-3.97-9.92-1.18-3.2-2.52-6.69-2.98-7.75-1.07-2.47-7.68-22.32-8.72-26.17-3.29-12.2-5.08-18.94-5.84-22.06-.49-1.99-1.36-5.48-1.92-7.75-1.03-4.12-1.89-8.29-3.73-18.05-.97-5.18-2.03-7.65-2.03-4.75Zm118.95 33.22c.53 27.81 1.23 38.34 1.26 18.82.01-6.88.31-9.63.95-8.64 1.23 1.9 1.22 1.68-.96-20.36l-1.78-17.93.53 28.11Zm-18.04-1.86c.06 6.89.44 15.14.85 18.34.43 3.32.54-1.86.25-12.12-.58-20.74-1.25-24.57-1.1-6.22Zm-486.01-.56c-.28.8-.74 2.54-1.01 3.87-.28 1.34-.93 3.95-1.45 5.82-3 10.68-4.02 14.76-3.96 15.8.04.64 1.78-4.73 3.88-11.92 2.09-7.2 3.63-13.53 3.43-14.06-.2-.53-.6-.31-.89.49Zm174.86 27.04c-1.71 4.44-2.88 8.3-2.59 8.58.28.29.77-.31 1.09-1.32.32-1.01.98-2.59 1.48-3.52.49-.92.9-2.31.9-3.09 0-.78.88-2.03 1.95-2.79 1.54-1.07 1.78-1.86 1.12-3.64-.74-2-1.22-1.3-3.95 5.78Zm-946.492 2.89c-.529 3.99-2.765 11.48-5.963 19.98-.507 1.35-.417 1.65.298.97 2.479-2.34 8.649-25.68 6.788-25.68-.273 0-.778 2.13-1.123 4.73Zm1259.592 3.1c.06 3.96.45 10.03.87 13.49.5 4.15.59 1.83.25-6.78-.54-14.02-1.31-18.61-1.12-6.71Zm21.36 7.76c-.09 2.97.25 7.77.75 10.66.5 2.89 1.36 9.17 1.93 13.97 2.05 17.45 2.34 19.37 2.72 18.24.3-.91-2.11-23.28-4.89-45.38-.2-1.6-.44-.47-.51 2.51Zm-3.74 9.12c-.02 6.93.27 17.4.64 23.27l.68 10.66.04-12.12c.02-6.66-.27-17.13-.64-23.26l-.67-11.15-.05 12.6Zm-341.96 9.21c-1.98 5.93-3.39 10.99-3.15 11.23.24.24 2.05-4.42 4.02-10.36 1.97-5.93 3.39-10.99 3.15-11.22-.23-.24-2.04 4.42-4.02 10.35Zm-1118.06-8.52c-.011.86 2.21 5.94 2.882 6.58.279.27 2.1 2.93 4.044 5.9 6.146 9.41 17.885 19.85 28.202 25.07 1.466.74 2.666 1.71 2.666 2.15 0 .45-37.967.81-84.371.81-84.373 0-84.373 0-86.751 2.38-3.443 3.44-3.744 38.51-.364 42.34 2.016 2.29 2.016 2.29.485-.11-2.582-4.04-2.24-39.06.407-41.7 1.91-1.91 3.253-1.94 91.355-1.97 86.097-.03 89.236-.1 84.57-1.72-16.012-5.55-30.338-18.1-40.063-35.08-1.678-2.94-3.056-5.03-3.062-4.65Zm173.424 5.76c-7.785 15.3-26.25 30.73-41.125 34.37-3.851.94 57.316 1.2 297.876 1.27 221.775.06 303.289.37 304.84 1.17 1.782.91 1.917.87.857-.25-1.061-1.12-48.516-1.4-299.994-1.81-296.354-.48-298.702-.5-294.856-2.36 13.671-6.62 38.701-32.44 35.018-36.13-.26-.26-1.438 1.43-2.616 3.74Zm1288.536 35.72c-.02 4.53.26 13.03.64 18.9.68 10.66.68 10.66.73 1.94.02-4.8-.27-13.31-.65-18.9-.68-10.18-.68-10.18-.72-1.94Zm-83.65-2.33c0 2.78 15.56 29.49 28.86 49.55 5.38 8.11 11.39 17.62 13.35 21.13 1.97 3.51 3.77 6.18 4.02 5.93.25-.25-.2-1.47-.99-2.71-.79-1.25-2.26-3.79-3.27-5.66-1.01-1.87-6.43-10.37-12.05-18.9-13.01-19.74-17.77-27.65-24.09-39.98-4.67-9.1-5.83-10.97-5.83-9.36Zm-641.663 25.11c0 11.1.252 19.94.56 19.63.658-.66.552-38.72-.11-39.38-.247-.25-.45 8.64-.45 19.75Zm370.883-15.38c-1.48 10.79.1 25.67 3.69 34.76 1.85 4.69 1.37 1.24-.95-6.78-1.22-4.22-1.69-9.48-1.72-19.15-.04-14.69-.12-15.38-1.02-8.83Zm55.68 19.59c-.06 1.08 2.12 8.02 8.24 26.21.25.75.65 1.15.9.91.24-.25-1.69-6.74-4.31-14.44-2.62-7.69-4.79-13.4-4.83-12.68Zm324.34 9.1c1.15 15.57-7.46 15.39-10.8-.23-.8-3.7-1.37-5.1-1.39-3.39-.13 11.3 6.7 18.94 11.85 13.25 1.73-1.92 2.08-10.27.6-14.7-.49-1.47-.59.55-.26 5.07Zm-752.696 8.74c-.959.96-45.428 1.31-213.194 1.7l-211.982.49 211.438.24c209.004.23 211.466.21 213.727-1.67 1.259-1.05 2.048-1.92 1.756-1.94-.293-.02-1.078.51-1.745 1.18Zm-865.082 1.94c.247.4 18.199.63 39.891.52 21.693-.12 34.643-.33 28.779-.48-26.493-.68-69.078-.7-68.67-.04Zm204.538.48c30.479.14 80.639.14 111.467 0 30.828-.14 5.891-.26-55.417-.26-61.307 0-86.53.12-56.05.26ZM115.89 1309.5c0 64.78.116 91.27.257 58.89.142-32.39.142-85.38 0-117.77-.141-32.39-.257-5.89-.257 58.88Zm67.849-.48c0 64.51.117 91.04.258 58.96.142-32.08.142-84.86 0-117.28-.141-32.43-.258-6.19-.258 58.32Zm224.874.48c0 64.78.116 91.27.258 58.89.141-32.39.141-85.38 0-117.77-.142-32.39-.258-5.89-.258 58.88Zm65.911-.48c0 64.51.117 91.04.258 58.96.142-32.08.142-84.86 0-117.28-.141-32.43-.258-6.19-.258 58.32Zm808.116-112.92c6.93 20.8 9.98 30.5 12.31 39.25 1.57 5.87 2.88 9.61 2.92 8.31.04-1.29-.33-3.69-.83-5.33-.49-1.64-1.43-4.94-2.09-7.34-2.46-9.06-10.97-34.45-11.87-35.38-.6-.63-.76-.46-.44.49Zm-197.32 5.47c-.77 5.62-.6 34.73.23 38.58.33 1.57.61-7.48.61-20.11 0-12.64-.05-22.97-.11-22.97s-.39 2.02-.73 4.5Zm266.97 28.22c-.04.68.35 1.99.85 2.91.5.93 3.93 7.79 7.63 15.26 25.46 51.37 50.4 72.96 87.9 76.06 21.58 1.79 21.8 1.83 21.88 4.74.11 4.27 1.72 7.14 1.8 3.22.15-6.96-.4-7.17-22.23-8.9-41.81-3.31-65.68-25.92-96.18-91.12-.88-1.86-1.62-2.84-1.65-2.17Zm-53.83 20.1c1.13 9.16 3.19 18.44 3.28 14.8.08-3.42-1-9.26-2.91-15.77-.75-2.56-.79-2.44-.37.97Zm-209.75 8.02c-.13 2.2 2.87 14.61 4.86 20.09 7.32 20.18 16.83 32.8 31.43 41.69 7.81 4.76 7.87 4.85 8.8 13.56.47 4.3.87 5.73 1.1 3.91 1.2-9.29-.41-12.83-7.86-17.18-18.69-10.94-33.04-34.43-37.78-61.85-.39-2.25-.42-2.27-.55-.22Zm510.8 17.81c-.88 12.4-20.94 35.31-37.92 43.3-8.15 3.84-8.24 3.89-7.66 4.48.57.56 14.09-6.18 18.32-9.14 12.62-8.84 29.48-32.25 27.8-38.6-.39-1.48-.44-1.48-.54-.04Zm-299.04 14.24c-2.59 13.93-16.58 31.61-30.95 39.13-2.76 1.44-4.48 2.64-3.83 2.66 10.68.42 37.74-32.51 35.92-43.72-.26-1.67-.57-1.15-1.14 1.93Zm-92.69 42.94c-.02 6.43-2.17 12.78-5.16 15.25-.88.73-1.6 1.73-1.6 2.22 0 1.06 4.83-4.59 6.54-7.65.67-1.2 1.21-4.81 1.21-8.03 0-7.46.11-7.49 13.7-4.29 15.28 3.6 20.19 3.95 6.81.48-6.05-1.56-13.35-3.14-16.24-3.5l-5.24-.65-.02 6.17Zm51.88-.13c-1.07.46-5.86.92-10.66 1.03-7.57.17-8.09.28-3.97.85 5.15.72 15.26-.33 17.86-1.85 2.11-1.23-.38-1.26-3.23-.03Zm293.21 3.42c0 3.79-2.16 9.65-4.5 12.24-1.48 1.63 4.69 5.79 6.26 4.23.27-.28-.89-.98-2.57-1.57-3.68-1.28-3.64-.92-.65-5.33 2.18-3.21 3.64-12.99 1.94-12.99-.26 0-.48 1.54-.48 3.42Zm-321.67 62.97c-.32 7.82-3.89 17.68-8.24 22.77-2.07 2.42-2.07 2.42.21.49 4.72-3.98 9.59-17.69 8.62-24.23-.37-2.5-.46-2.37-.59.97Z" clip-rule="evenodd"/><path fill="#B2D1D7" fill-rule="evenodd" d="M412.021 163.556c-8.086.957-7.754-1.13-7.754 48.735 0 49.362.392 51.792 9.509 58.937 8.412 6.592 7.797 7.866 8.129-16.862.379-28.273-.149-27.55 20.153-27.55h13.529l.268-31.378.269-31.376-7.755-.604c-8.209-.639-30.641-.579-36.348.098Zm359.874-.004c-8.407.759-8.137-.948-7.818 49.629.273 43.17.326 44.256 2.378 48.088 3.53 6.594 14.005 14.98 18.709 14.98.657 0 1.001-6.989 1.001-20.292 0-28.316.024-28.355 18.273-28.799l11.29-.275.255-31.406.256-31.407-3.649-.602c-3.785-.626-33.518-.565-40.695.084Zm142.942 2.924c9.196.16 24.245.16 33.44 0 9.196-.159 1.672-.289-16.72-.289s-25.916.13-16.72.289Zm-92.377 30.777c-.001 16.526.131 23.424.293 15.326.162-8.096.162-21.618 0-30.048-.161-8.429-.293-1.804-.293 14.722Zm-401.71 159.12c-9.624 3.378-17.697 11.436-21.031 20.99-3.08 8.828-2.65 150.133.481 157.881 3.13 7.746 9.58 14.565 17.437 18.433l6.46 3.18 207.447.296c221.161.315 213.617.467 222.808-4.479 17.38-9.353 17.194-8.281 16.885-97.433-.307-88.436-.199-87.878-18.953-97.232-6.769-3.377-422.087-4.951-431.534-1.636Zm60.09 35.221v9.693h-55.249v-19.386h55.249v9.693Zm365.204 33.496c3.209 2.246 3.357 28.796.17 30.502-1.535.821-401.055 1.813-416.019 1.032-5.909-.308-8.712-25.216-3.466-30.801 2.756-2.932 415.145-3.655 419.315-.733Zm-323.741 71.727c2.698 1.888 3.316 22.702.78 26.172-1.954 2.673-93.427 2.97-96.083.312-3.397-3.396-2.949-22.576.609-26.134 2.597-2.597 91.022-2.924 94.694-.35Zm483.357 77.487c0 20.258.13 28.683.29 18.723.16-9.961.16-26.535 0-36.833-.16-10.298-.29-2.148-.29 18.11ZM77.356 1189.07l38.993.27.294 18.64.293 18.65-.03-18.9-.031-18.9-39.256-.02-39.256-.01 38.993.27Zm218.601 0 113.172.25-.25 120.14c-.138 66.08.078 119.81.481 119.41.402-.4.62-54.58.484-120.39l-.246-119.65-113.406-.01H182.786l113.171.25Zm283.915 0c58.466.14 154.425.14 213.242 0 58.818-.14 10.982-.25-106.301-.25s-165.406.11-106.941.25ZM28.427 1429.45c15.86.15 41.812.15 57.673 0 15.859-.15 2.883-.27-28.836-.27-31.72 0-44.697.12-28.837.27Zm211.304 0c30.788.15 81.166.15 111.952 0 30.788-.14 5.598-.25-55.976-.25-61.573 0-86.762.11-55.976.25Zm368.249 0c73.926.14 195.183.14 269.461 0 74.278-.13 13.794-.24-134.409-.24-148.204 0-208.977.11-135.052.24Zm645.62 0c21.73.15 57.27.15 79 0 21.72-.14 3.95-.26-39.5-.26s-61.22.12-39.5.26Zm375.6 0c36.38.14 95.92.14 132.31 0 36.38-.14 6.61-.25-66.16-.25s-102.54.11-66.15.25ZM52.66 1447.87c9.996.16 26.352.16 36.348 0 9.996-.16 1.817-.29-18.174-.29-19.992 0-28.17.13-18.175.29Zm87.285 0c5.226.17 13.513.17 18.417-.01 4.903-.17.628-.31-9.501-.31s-14.141.14-8.916.32Zm37.319 0c5.493.17 14.216.17 19.385 0 5.17-.18.676-.32-9.986-.32s-14.892.14-9.399.32Zm137.587 0c4.93.17 13 .17 17.931 0 4.931-.18.897-.32-8.965-.32-9.863 0-13.898.14-8.966.32Zm110.983 0c5.731.17 15.108.17 20.839 0 5.732-.17 1.042-.31-10.42-.31-11.461 0-16.151.14-10.419.31Zm73.181 0c6.53.17 17.217.17 23.747 0 6.53-.17 1.187-.31-11.874-.31s-18.404.14-11.873.31Zm48.464 0c7.064.16 18.622.16 25.686 0 7.064-.17 1.284-.3-12.843-.3-14.128 0-19.907.13-12.843.3Zm70.273 0c5.731.17 15.108.17 20.839 0 5.732-.17 1.042-.31-10.419-.31-11.462 0-16.152.14-10.42.31Zm60.095 0c10.529.16 27.759.16 38.287 0 10.528-.16 1.914-.29-19.143-.29-21.058 0-29.672.13-19.144.29Zm103.229 0c25.189.14 66.408.14 91.597 0 25.189-.14 4.58-.26-45.798-.26-50.379 0-70.989.12-45.799.26Zm155.633 0c10.031.16 26.17.16 35.863 0 9.695-.16 1.488-.29-18.237-.29-19.725 0-27.656.13-17.626.29Zm64.931 0c5.76.17 14.92.17 20.36 0 5.43-.18.72-.32-10.48-.32-11.19 0-15.639.15-9.88.32Zm57.18 0c4.69.17 12.11.17 16.48-.01 4.37-.18.54-.32-8.53-.32-9.06 0-12.64.15-7.95.33Zm41.15 0c8.13.16 21.43.16 29.56 0 8.13-.16 1.48-.3-14.78-.3-16.26 0-22.91.14-14.78.3Zm219.54 0c4.67.17 12.3.17 16.97 0 4.66-.18.84-.33-8.49-.33s-13.14.15-8.48.33Zm212.76 0c8.13.16 21.43.16 29.56 0 8.13-.16 1.48-.3-14.78-.3-16.26 0-22.91.14-14.78.3Zm130.37 0c4.66.17 12.3.17 16.96 0 4.67-.18.85-.33-8.48-.33s-13.15.15-8.48.33Zm38.77 0c7.33.16 19.33.16 26.66 0 7.33-.17 1.33-.3-13.33-.3s-20.66.13-13.33.3Zm69.75-.01c3.57.19 9.68.19 13.57 0 3.88-.18.96-.33-6.5-.33-7.47-.01-10.65.15-7.07.33Zm39.82 0c4.16.19 10.7.19 14.54 0 3.84-.18.44-.33-7.55-.33-8 0-11.14.15-6.99.33Z" clip-rule="evenodd"/><path fill="#819BAE" fill-rule="evenodd" d="M1387.52 19.872c0 9.596.15 13.391.32 8.432.18-4.958.18-12.809 0-17.447-.18-4.637-.32-.58-.32 9.015ZM317.459 133.763c0 15.194.133 21.409.297 13.813.164-7.598.164-20.029 0-27.625-.164-7.597-.297-1.381-.297 13.812Zm767.001 12.358c15.59.15 41.11.15 56.7 0 15.6-.15 2.84-.272-28.35-.272-31.18 0-43.94.122-28.35.272Zm209.43 0c12.97.153 33.91.153 46.53 0 12.62-.154 2.02-.279-23.57-.279-25.59.001-35.92.126-22.96.279ZM914.352 159.69c9.463.159 24.947.159 34.41 0 9.463-.158 1.72-.288-17.205-.288-18.925 0-26.668.13-17.205.288Zm-320.644 38.046c0 16.793.133 23.663.294 15.266.162-8.397.162-22.135 0-30.532-.161-8.397-.294-1.527-.294 15.266Zm-131.823 0c0 16.26.133 22.912.294 14.782.162-8.131.162-21.433 0-29.564-.161-8.129-.294-1.478-.294 14.782ZM317.5 299.511c0 63.706.117 89.767.258 57.914.142-31.853.142-83.976 0-115.829-.141-31.854-.258-5.791-.258 57.915Zm-.004 201.611c0 47.179.118 66.481.262 42.89.145-23.589.145-62.191 0-85.781-.144-23.59-.262-4.289-.262 42.891Zm181.518 23.983c3.865.183 10.19.183 14.055 0 3.864-.185.702-.336-7.028-.336-7.73 0-10.891.151-7.027.336Zm344.096 77.548c15.06.15 39.705.15 54.764 0 15.061-.15 2.738-.272-27.382-.272s-42.442.122-27.382.272ZM116.818 1274.61c0 15.73.134 22.16.297 14.3.162-7.87.162-20.73 0-28.6-.163-7.86-.297-1.43-.297 14.3Z" clip-rule="evenodd"/><path fill="#4C559D" fill-rule="evenodd" d="M1381.7 19.39c0 8.796.15 12.395.33 7.996.18-4.398.18-11.595 0-15.993-.18-4.399-.33-.8-.33 7.997ZM533.626 209.369c0 22.657.127 31.926.282 20.597.155-11.328.155-29.865 0-41.194-.155-11.328-.282-2.06-.282 20.597Zm-111.517 51.372c0 8.796.147 12.395.326 7.997.18-4.399.18-11.595 0-15.994-.179-4.398-.326-.799-.326 7.997Zm584.541 94.505c0 44.248.12 62.491.27 40.54.14-21.951.14-58.154 0-80.45-.15-22.297-.27-4.338-.27 39.91Zm-314.203 69.06c8.429.162 21.951.162 30.047 0 8.098-.162 1.2-.295-15.326-.294-16.526 0-23.15.133-14.721.294Zm93.96.001c10.528.156 27.758.156 38.287 0 10.528-.157 1.914-.285-19.144-.285-21.057 0-29.671.128-19.143.285Zm-349.954 71.719c3.576.185 9.682.187 13.57.002 3.889-.184.963-.337-6.5-.337-7.464-.002-10.645.149-7.07.335ZM85.689 1143.52c26.029.14 68.338.14 94.02 0 25.682-.15 4.385-.27-47.326-.27s-72.723.12-46.694.27Zm206.383-.01c3.598.18 9.488.18 13.086 0 3.598-.19.654-.34-6.543-.34s-10.141.15-6.543.34Zm166.717.01c80.899.13 213.279.13 294.178 0 80.899-.14 14.709-.25-147.089-.25s-227.987.11-147.089.25Zm-425.375 24.95c.001 7.47.154 10.39.338 6.5.185-3.88.183-9.99-.002-13.56-.186-3.58-.338-.4-.336 7.06Zm440.057 86.76c0 7.73.151 10.89.335 7.02.183-3.86.183-10.19 0-14.05-.184-3.87-.335-.7-.335 7.03Zm.037 150.23c0 13.6.135 19.16.302 12.36.167-6.79.167-17.92 0-24.71-.167-6.8-.302-1.24-.302 12.35Z" clip-rule="evenodd"/><path fill="#CDE801" fill-rule="evenodd" d="M1073.18 350.479c-10.51 13.358-8.6 26.575 3.83 26.575 11.04 0 13.18-2.328 10.95-11.885-3.36-14.423-9.89-20.908-14.78-14.69Zm-3.82 184.097c-13.69 11.516-1.4 32.862 14.35 24.944 8.7-4.368 10.57-16.319 3.64-23.245-4.96-4.961-13.19-5.738-17.99-1.699Z" clip-rule="evenodd"/><path fill="#CDE801" d="M365.845 612.592c-14.694 2.151-27.961 15.837-32.887 33.923-3.251 11.942-5.951 16.236-17.671 28.109-23.089 23.389-28.524 35.097-28.426 61.227.096 25.314-2.122 30.29-22.624 50.725-7.487 7.464-14.264 14.879-15.059 16.478-.796 1.599-1.885 3.229-2.418 3.62-.534.392-.648.718-.254.727.395.008.064.778-.735 1.711-.798.933-1.339 1.945-1.201 2.25.137.305-.518 1.321-1.455 2.259-.939.938-1.458 2.106-1.155 2.597.303.489.088.891-.476.891s-1.026.846-1.026 1.881c0 1.035-.443 2.156-.985 2.49-.542.335-.735 1.015-.427 1.511.306.496.022.903-.631.903-.654 0-.901.286-.55.637.351.351.206 1.159-.323 1.795-.527.635-1.05 2.26-1.162 3.608-.251 3.031-1.084 2.926-6.584-.827-2.399-1.636-11.663-6.541-20.586-10.901-26.483-12.937-33.934-22.21-39.432-49.077-10.177-49.715-56.027-89.678-86.829-75.68-22.247 10.111-44.124 57.497-42.93 92.987.801 23.818 6.445 33.656 33.807 58.94 14.597 13.486 15.72 15.632 22.559 43.091 10.575 42.469 22.884 66.519 44.863 87.655 7.905 7.603 19.729 17.079 19.729 15.813 0-.399.619.12 1.375 1.156 1.252 1.711 1.666 1.762 4.604.562 2.202-.901 9.544-1.469 23.099-1.788 10.929-.258 20.029-.623 20.224-.812.476-.46-5.742-20.221-9.594-30.491-1.699-4.531-5.85-15.653-9.224-24.716-9.407-25.265-30.803-81.373-38.258-100.321-27.907-70.936-26.58-67.034-23.377-68.747 2.913-1.56 4.608.613 8.261 10.59a1117.494 1117.494 0 0 0 7.364 19.386 4713.74 4713.74 0 0 1 7.732 19.87 9923.054 9923.054 0 0 0 8.076 20.84c10.01 25.739 14.619 37.65 16.689 43.133 1.208 3.198 5.773 15.193 10.144 26.655 10.109 26.502 19.56 52.015 27.106 73.181 1.521 4.265 3.08 8.528 3.464 9.476 1.36 3.353 50.648 2.355 52.005-1.054l1.224-4.569c5.479-20.455 27.178-101.467 29.635-110.474 4.769-17.486 6.628-24.455 14.989-56.219 4.897-18.604 9.982-37.212 11.126-40.71.523-1.599 1.574-5.525 2.336-8.723.762-3.199 5.167-19.556 9.791-36.348 4.623-16.793 8.99-32.714 9.703-35.379 5.417-20.225 5.659-20.84 8.209-20.84 4.788 0 4.65 1.381-2.787 27.625-2.674 9.439-16.466 60.09-19.002 69.788-2.797 10.693-5.4 20.45-5.906 22.131-.462 1.534 55.383-39.489 65.975-48.466 4.029-3.414 6.208-3.97 8.113-2.065 2.943 2.943 3.997 2.029-44.393 38.469-37.593 28.31-32.133 21.027-41.135 54.873-11.282 32.469-34.681 134.821-37.514 148.032-1.379 6.431-3.013 6.049 27.272 6.369l26.977.285 3.415-4.162c13.957-17.013 72.418-89.744 97.073-120.771 16.527-20.798 30.594-38.058 31.26-38.356 3.406-1.529 5.901 2.373 3.682 5.759-2.825 4.312-82.145 103.187-115.617 144.123-8.339 10.197-10.486 13.879-8.533 14.628 2.021.776 5.358 6.445 5.362 9.115.004 3 1.182 2.75 6.537-1.37 9.443-7.259 22.407-11.833 39.427-13.908 55.463-6.761 86.403-35.766 101.84-95.473 5.841-22.589 5.702-22.347 21.877-38.413 28.297-28.106 32.373-55.814 11.466-77.92-27.412-28.985-69.839-13.44-104.578 38.315-9.062 13.5-16.287 20.178-29.033 26.836-7.774 4.062-8.702 3.897-5.797-1.028 1.141-1.933 1.781-3.515 1.424-3.515s.039-.689.883-1.532c.842-.843 1.306-1.896 1.032-2.34-.275-.445-.093-.955.403-1.134.497-.179 1.044-.968 1.218-1.755.173-.788.864-2.022 1.535-2.745.672-.722.995-1.676.721-2.12-.275-.445-.118-.955.347-1.134 1.316-.505 7.335-14.858 11.757-28.038 14.769-44.021 14.242-89.156-1.366-117.195-1.811-3.252-3.463-12.592-3.505-19.806-.151-26.377-17.636-48.977-36.314-46.939-.533.058-3.211.434-5.951.836Z"/><path fill="#F1D18B" fill-rule="evenodd" d="M1498.04 924.024c-.26.694-.36 6.91-.21 13.812l.28 12.549.48-13.814c.48-13.607.41-15.048-.55-12.547ZM351.393 1040.53c.001 18.66.13 26.15.289 16.66.159-9.5.158-24.77-.001-33.93s-.288-1.39-.288 17.27Zm-115.959 102.01c11.365.16 29.685.16 40.71 0 11.027-.15 1.728-.28-20.662-.28s-31.412.13-20.048.28Z" clip-rule="evenodd"/><path fill="#E0DBC7" fill-rule="evenodd" d="M1400.09 246.095c-21 5.404-35.66 32.421-27.66 50.993.69 1.599 1.14 2.908.99 2.908-.15 0 .57 1.417 1.59 3.15 1.03 1.733 2.21 3.15 2.63 3.15.41 0 .76.546.77 1.211.03 3.745 13.45 12.737 20.83 13.953 33.88 5.589 56.72-24.016 42.34-54.905-7.15-15.362-25.72-24.519-41.49-20.46Zm-201.34 546.781c-.23.8-7.62 25.444-16.43 54.765-18.37 61.138-24.14 80.89-33.15 113.406-3.55 12.794-10.52 37.656-15.5 55.253-11.22 39.64-19.8 71.13-28.13 103.22-3.52 13.6-8.11 31.26-10.19 39.26-18.26 70.27-6.67 137.23 27.26 157.57 11.59 6.95 11.94 7.41 12.72 16.72.76 9.08 1.95 12.27 6.17 16.49 4.62 4.62 56.03 3.6 60.11-1.19 4.23-4.96 5.15-6.99 5.19-11.36.1-11.61 1.39-12.04 21.38-7.03 25.8 6.45 40.79 3.04 56.2-12.8 22.22-22.85 22.15-48.2-.33-114.81-14.2-42.08-13.64-50.5 7.26-109.96 9.21-26.22 8.73-25.61 11.94-14.91 3.08 10.24 13.83 44.4 15.06 47.84.47 1.33 4.41 13.76 8.75 27.62 40.17 128.31 68.18 165.6 127.68 170 17.36 1.29 17.27 1.24 18.13 9.54 1.98 19.04 3.22 19.65 39.83 19.65 38.08 0 38.81-.37 39.91-20.27l.51-9.32 8.36-4.06c32.54-15.85 47.59-51.32 36.16-85.23-4.97-14.75-8.02-20.4-23.58-43.67-15.02-22.44-25.33-40.89-33.78-60.38-1.73-4-4.04-9.24-5.12-11.63-22.36-49.45-39.11-137.891-36.9-194.83 4.65-119.578 2.25-129.996-30.1-130.677l-19.77-.416-.57 10.055c-.31 5.531-.81 20.523-1.11 33.318-1.37 58.368-2.4 80.572-3.97 85.868-9.71 32.699-53.14 35.896-68.76 5.063-4.52-8.931-3.44-37.772 4.35-115.648.98-9.862 1.7-18.032 1.59-18.155-1.09-1.248-180.8-.545-181.17.708Zm163.23 54.314c6.14 3.283-2.97 40.747-18.94 77.922-16.75 38.97-19.27 42.899-24.11 37.552-1.49-1.651-1.93-6.948-.57-6.948.76 0 8.26-16.707 7.93-17.69-.13-.399.2-.727.73-.727.54 0 .9-.327.81-.727-.09-.399 1.42-3.954 3.36-7.9 1.94-3.945 3.29-7.544 3.01-7.997-.28-.453-.04-.823.52-.823.57 0 .96-.327.88-.727-.09-.399.83-2.86 2.04-5.467 1.21-2.608 2.33-5.443 2.5-6.301.17-.858.37-1.559.45-1.559.08 0 .35-1.071.59-2.382.24-1.309.79-2.618 1.23-2.908.9-.585 4.21-10.099 4.57-13.127.13-1.066.33-2.047.44-2.181.11-.133.31-.678.44-1.211.14-.533.36-1.188.49-1.454.13-.267.32-.812.41-1.212.09-.399.46-1.599.82-2.665.36-1.067.85-3.561 1.09-5.542.24-1.981.64-3.944.9-4.362.26-.417.72-3.178 1.04-6.136 1.64-15.444 3.53-18.554 9.37-15.428ZM167.943 994.097c-5.824 2.565-5.999 3.873-5.984 44.703.018 52.88 3.492 65.56 23.389 85.39 16.756 16.69 18.628 17.14 71.177 17.14h44.66l8.623-4.27c19.12-9.47 34.908-30.86 39.615-53.65 3.563-17.25 1.977-87.954-1.974-87.954-.647 0-1.36-.544-1.582-1.211-.65-1.953-173.499-2.096-177.924-.148ZM1483.24 1163.87c.79.93 5.49 11.29 10.46 23.02 4.96 11.73 9.7 22.63 10.53 24.23.84 1.6 1.6 3.35 1.7 3.88.09.53 1.6 4.02 3.35 7.75 1.75 3.73 3.11 7.12 3.03 7.52-.09.39.36.72.98.72s.86.28.52.61c-.33.33.04 1.86.83 3.38.79 1.53 1.42 3 1.4 3.28-.02.27 1.06 2.66 2.41 5.31 3.65 7.21 3.18 9.69-1.96 10.25-1.78.2-2.58-.73-4.55-5.24-1.31-3.01-6.46-14.85-11.43-26.31-4.98-11.46-9.3-21.06-9.6-21.33-.31-.26-.69-1.07-.84-1.79-.15-.72-3.35-8.69-7.12-17.71-5.59-13.38-6.64-16.67-5.67-17.83 1.6-1.93 4.21-1.81 5.96.26Z" clip-rule="evenodd"/><path fill="#FD8E45" fill-rule="evenodd" d="M1265.65 791.668c20.88.145 55.34.145 76.57 0 21.23-.146 4.14-.266-37.97-.266-42.12 0-59.49.12-38.6.266Zm234.21 561.212c7.89.16 20.54.16 28.11 0 7.56-.16 1.1-.3-14.36-.3-15.46 0-21.65.14-13.75.3Z" clip-rule="evenodd"/><path fill="#D77370" fill-rule="evenodd" d="M612.101 256.379c-.001 10.662.14 15.156.315 9.986.173-5.169.174-13.892.001-19.385-.173-5.493-.316-1.263-.316 9.399Zm174.448-5.331c0 7.73.151 10.892.336 7.027.183-3.864.183-10.19 0-14.055-.185-3.864-.336-.702-.336 7.028ZM1158.13 1352.88c6.53.17 17.21.17 23.74 0 6.53-.17 1.19-.31-11.87-.31-13.06 0-18.4.14-11.87.31Z" clip-rule="evenodd"/><path fill="#7C8C01" fill-rule="evenodd" d="M1148.07 223.362c-6.57 2.863-10.74 12.051-9 19.833 3.99 17.824 27.4 18.828 32.47 1.394 4.25-14.608-9.69-27.221-23.47-21.227Zm-355.791 5.402c-10.726 4.32-6.765 60.649 4.94 70.24 14.841 12.161 38.177 6.92 47.102-10.578 6.601-12.939 4.954-57.123-2.222-59.625-3.547-1.237-46.762-1.269-49.82-.037Zm-238.431 1.143c-5.9 2.853-6.276 47.461-.498 59.197 11.062 22.468 42.214 21.692 54.988-1.371 20.69-37.354-16.093-76.39-54.49-57.826Zm-107.417 27.042c-14.491 8.285-6.979 29.475 8.931 25.191 14.354-3.866 12.576-24.718-2.209-25.913-2.631-.212-5.656.112-6.722.722Zm127.042 6.18c6.492 2.713 7.845 11.33 2.552 16.252-3.562 3.312-7.301 4.052-11.179 2.212-9.64-4.575-7.878-16.923 2.745-19.235 1.066-.233 2.062-.473 2.212-.535.15-.062 1.802.526 3.67 1.306Zm25.694 2.384c6.782 6.782-.144 16.665-8.61 12.287-5.158-2.667-5.68-8.743-1.082-12.611 3.856-3.246 6.201-3.168 9.692.324Zm213.243 0c6.173 6.173 1.932 16.817-6.702 16.817-4.455 0-7.161-1.816-9.527-6.392-4.853-9.384 8.617-18.037 16.229-10.425Zm23.263 0c6.247 6.247.189 15.996-7.866 12.659-6.366-2.636-6.62-10.782-.448-14.322 3.123-1.791 5.294-1.357 8.314 1.663Zm472.407 185.581c-17.42 6.311-26.08 21.415-58.4 101.886-60.75 151.295-76.11 220.466-52.32 235.652 3.62 2.307 3.62 2.307 93.56 2.307h89.95l-.03 5.52-.02 5.52 32.96.053 32.95.054.49-5.331.48-5.331 11.15-.223c6.13-.123 15.84.191 21.58.698 12.22 1.08 14.5.427 17.24-4.935 1.99-3.895 2.05-1.257-.99-38.302-1.1-13.367-3.64-30.165-6.29-41.566-3.52-15.178-15.13-55.403-19.86-68.819-.56-1.6-3.05-9.451-5.52-17.447-4.5-14.561-12.66-37.157-19.17-53.069-1.91-4.664-4.94-12.079-6.73-16.477-1.8-4.399-7.24-17.449-12.1-29.003-4.86-11.554-10.85-26.166-13.31-32.471-10.85-27.826-18.29-36.785-33.17-39.94-10.35-2.193-65.6-1.26-72.45 1.224Zm-160.86 31.478c-13.84 8.55-11.13 28.405 4.39 32.128 15.8 3.789 27.36-15.556 16.8-28.106-5.02-5.965-14.98-7.855-21.19-4.022Zm188.55 99.046c.88 1.644 16.35 56.54 17.95 63.706.27 1.211 5.1 18.658 10.73 38.772 11.62 41.465 11.84 42.87 6.74 42.87-4.42 0-2.21 7.092-33.59-108.075-4.79-17.592-8.93-32.727-9.21-33.633-1.18-3.903 5.48-7.188 7.38-3.64ZM1195.2 1352.27c-1.86.46-14.29.79-27.62.74-15.23-.06-25.14.29-26.66.94-1.33.57-8.31 2.55-15.51 4.4-57.68 14.84-113.34 47.31-113.39 66.14-.02 6.09-7.32 5.69 103.22 5.69 109.89 0 102.83.95 110.89-14.84 12.92-25.34-8.31-68.65-30.93-63.07Zm348.46-.12c-1.07.46-14.59.87-30.06.91-30.81.07-33.1.46-55.72 9.55-51.52 20.69-99.48 58.98-83.61 66.74 3.52 1.72 181.55 1.51 186.63-.22 16.78-5.71 23.33-34.35 12.72-55.56-6.52-13.03-22.65-24.56-29.96-21.42Z" clip-rule="evenodd"/><path fill="#7C4546" fill-rule="evenodd" d="M549.073 255.409c.001 7.464.153 10.389.337 6.5.185-3.888.184-9.994-.002-13.57-.186-3.575-.337-.393-.335 7.07Zm730.457 54.685c-15.36 3.021-29.74 23.473-26.09 37.109.37 1.41.47 4.231.21 6.271-2.59 20.255-.5 38.655 5.48 48.066 5.15 8.126 19.03 20.095 21.51 18.56.46-.282.83-.119.83.362 0 1.604 8.15 3.418 16.48 3.667 4.53.137 9.43.286 10.9.334 2.67.086 2.67.086 2.67 12.79 0 11.187.18 12.634 1.53 12.117.84-.324 14.2-.589 29.67-.589h28.14l-.58-3.15c-.32-1.733-.81-5.985-1.09-9.451-.28-3.465-.97-8.917-1.53-12.116-.55-3.198-1.03-6.906-1.05-8.238-.11-8.21-2.17-31.649-2.84-32.383-.44-.485-.54-2.775-.23-5.089.41-2.952.23-4.208-.59-4.208-.72 0-.93-.732-.55-1.938.35-1.087.18-1.939-.39-1.939-.55 0-.75-.654-.44-1.454.31-.823.02-1.454-.68-1.454-.68 0-1.02-.217-.75-.482.81-.814-7.9-9.335-8.91-8.711-.52.322-.94.164-.94-.351s-.94-.69-2.09-.39c-1.19.312-1.85.153-1.53-.367.33-.53-1.64-.914-4.69-.914-2.9 0-5.26.328-5.26.731 0 .402-.66.479-1.46.173-.8-.307-1.45-.056-1.45.557 0 .614-.55 1.006-1.21.872-.67-.135-3.67 2.245-6.68 5.287l-5.47 5.533-.46-3.635c-.25-1.998-.53-9.304-.62-16.234-.4-29.337-15.39-44.143-39.84-39.336Zm99.84 492.702c0 .452-.86 10.29-1.9 21.864-2.01 22.282-5.4 63.958-6.33 77.746-2.64 39.241 37.67 60.135 63.08 32.691 2.9-3.13 5.02-6.096 4.71-6.59-.3-.496-.18-.9.28-.9 3.87 0 7.98-63.177 8-123.099 0-2.423 0-2.423-33.92-2.477-18.66-.03-33.92.315-33.92.765ZM240.7 1143.51c8.397.16 22.136.16 30.533 0 8.397-.16 1.526-.29-15.266-.29-16.793 0-23.664.13-15.267.29Z" clip-rule="evenodd"/></svg>