<svg xmlns="http://www.w3.org/2000/svg" width="510" height="498" viewBox="0 0 534 498"><path d="M182.2 343.738c-55.473 0-110.505-.008-165.536.004-5.25 0-10.36-.37-13.89-4.996-2.66-3.48-2.735-7.625-2.735-11.762.004-92.886 0-185.773-.004-278.656 0-10.926-.05-21.855.016-32.781C.113 5.32 5.328.172 15.465.172c130.27 0 260.547.07 390.816-.172 7.953-.016 15.188 6.531 15.164 15.348-.25 104.55-.164 209.101-.164 313.652 0 8.938-4.46 13.848-13.355 14.64-1.613.145-3.246.079-4.867.079-73.47.011-146.942.015-220.856.02Zm0 0" style="stroke:none;fill-rule:nonzero;fill:#5c7a7d;fill-opacity:1"/><path d="M295.816 67.996h88.118v193.106h-88.118Zm0 0" style="stroke:none;fill-rule:nonzero;fill:#fcfcfc;fill-opacity:1"/><path d="M164.402 400.742c2.176-5.707 2.856-11.531 4.336-17.117.7-2.637 2.367-5.11 2.168-8.3 2.508-1.919 5.207-1.68 7.852-1.68 25.383-.012 50.762-.012 76.144.003 3.25 0 6.493-.062 10.16-.398 3.649 6.266 5.118 13.172 7.442 19.773.715 2.032 1.2 4.153 1.777 6.586-1.21 3.344-3.883 2.45-6.035 2.454-25.324.066-50.656.042-75.98.042-7.512 0-15.02.008-22.528-.007-1.758-.004-3.558.16-5.336-1.356Zm0 0" style="stroke:none;fill-rule:nonzero;fill:#485f61;fill-opacity:1"/><path d="M265.469 372.883c-.418 3.156-2.645 2.129-4.176 2.129-29.777.047-59.555.023-89.785.027.617-4.21 1.797-8.414 2.707-12.668.597-2.773 2.562-2.297 4.426-2.297 20.433 0 40.867 0 61.304.008 6.032 0 12.059.066 18.082-.02 2.25-.03 3.73.11 4.243 2.989.578 3.25 2.074 6.332 3.199 9.832Zm0 0" style="stroke:none;fill-rule:nonzero;fill:#111f22;fill-opacity:1"/><path d="M163.777 400.344c5.102.097 9.805.258 14.512.261 30.484.02 60.969.012 91.457 0 1.317 0 2.633-.132 4.242-.421 5.875-.102 11.465.105 17.059.113 22.27.023 44.531-.016 66.797-.027 1.031 0 2.074-.07 3.094.035 1.34.14 3.527-.489 3.402 1.629-.11 1.878-2.207 1.484-3.625 1.484-28.16.016-56.324.02-84.488.02l-195.075-.012c-.441 0-.89.047-1.324-.008-1.203-.152-3.078.637-3.234-1.277-.18-2.2 1.754-1.887 3.195-1.891 10.766-.004 21.527 0 32.29.012 17.1.015 34.202.047 51.698.082Zm0 0" style="stroke:none;fill-rule:nonzero;fill:#050e3d;fill-opacity:1"/><path d="M389.176 311.031c-1.86 3.84-5.281 3.703-8.656 3.703-47.352-.004-94.707-.004-142.063-.004-56.945 0-113.887.008-170.828.004-1.469 0-2.942-.109-4.629-.46.352-1.489 1.48-1.837 2.625-2.157 16.715-4.64 27.621-15.328 33.512-31.605 4.316-11.934 10.125-23.168 17.875-33.672.273-.445.379-.621.656-1.059.3-.418.422-.578.95-1.199.546-.605.687-.75 1.038-1.117.79-.797 1.383-1.356 2.117-2.219 3.938-4.613 8.215-8.508 11.766-13.023 2.125-2.696 5.05-5.536 3.336-9.465-1.71-3.922-5.438-5.043-9.398-5.645-20.43-3.113-35.41 5.66-46.934 21.684-11.574 16.094-18.594 34.426-25.367 52.848-1.27 3.453-2.766 6.824-3.766 10.71-1.57 4.735-5.52 7.348-8.078 11.004-1.094 1.559-2.328 2.946-2.7 5.184-7.98.144-10.48-2.3-10.562-10.004-.05-4.871-.023-9.742-.113-15.02-.773-3.156 1.45-4.394 2.934-5.84 10.289-9.988 19.367-20.98 27.504-32.769 7.48-10.844 13.414-22.504 17.976-34.855 1.5-4.055.996-4.97-3.371-5.36-4.543-.402-9.113-.496-13.652.192-1.895.285-3.782.718-5.887-.442-1.512-2.793-.16-4.879 1.16-7.308 4.668-5.774 9.246-11.082 15.422-14.836 3.457-2.098 7.09-3.586 10.918-4.621 2.152-.582 3.156-1.692 3.477-3.895 1.757-11.937 2.82-23.855 1.855-35.98-.617-7.79-.883-15.575-3.309-23.055-2.992-9.223-6.468-9.922-12.964-2.707-.395.441-.75.906-1.305 1.644-.332.45-.465.63-.797 1.075a30.3 30.3 0 0 0-1.137 1.629c-.3.468-.422.652-.742 1.109-11.633 16.45-19.453 34.355-25.488 53.137-3.61 11.238-6.774 22.578-9.07 34.16-.172.879-.465 1.707-1.192 2.715-.613.554-1.047.668-1.816.418-.336-8.317-.434-16.438-.434-24.559.016-45.043.059-90.086.16-135.539 1.25-2.59 3.238-3.363 5.563-3.562 2.058-.176 4.125-.13 6.191-.13 98.254-.003 196.508-.003 294.766.005 2.504 0 5.02-.149 7.886.437 2.485 1.445 2.153 2.656.086 3.523-1.66.7-3.484.454-5.246.485-7.062.12-14.136-.344-21.168.808-2.55.418-3.035 1.313-1.656 3.434 2.414 3.703 4.969 7.32 7.305 11.074 1.394 2.239 2.992 4.45 2.347 7.68-.55.98-1.207 1.293-1.89 1.586-5.59 2.394-7.809 5.34-7.051 11.16 1.121 8.617.871 17.285 2.02 25.95 3.492 26.261 11.14 50.777 25.91 72.991 12.246 18.41 25.531 36.047 38.707 53.774 2.515 3.387 5.761 6.36 6.941 11.012.117 7.402.059 14.511-.328 21.855-3.527-1.05-4.266-4.344-5.93-6.82-15.144-22.52-27.78-46.594-42.722-69.246-8.723-13.223-18.801-25.317-30.34-36.172-3.23-3.043-5.68-2.54-7.27 1.695-2.379 6.328-2.914 12.883-1.976 19.598 2.652 18.914 9.484 36.437 17.668 53.515 1.34 2.793 2.925 5.48 4.105 8.332 1.445 3.489 3.719 4.118 7.067 2.942 4.753-1.676 9.16-4.04 13.57-6.422 1.289-.695 2.437-1.676 4.285-1.918 2.633.46 3.766 2.074 4.465 4.484-2.469 8.723-8.527 14.258-15.461 18.868-1.746 1.164-1.64 1.3-.563 2.742 9.372 12.597 21.5 22.144 34.11 31.175 5.762 4.125 11.992 7.528 17.586 12.344Zm0 0" style="stroke:none;fill-rule:nonzero;fill:#fcfcfc;fill-opacity:1"/><path d="M346.328 51.836c-103.316-.246-206.308-.242-309.3-.313-2.344 0-4.227.696-6.423 1.872a167.123 167.123 0 0 1-.578-14.993c.028-4.41 3.645-8.222 9.336-8.21 103.367.175 206.727.128 310.5.132.48.125.645.266.621.367-1.582 7.07.25 13.622 2.938 20.38-2.176 2.21-4.438 2.007-7.094.765Zm0 0" style="stroke:none;fill-rule:nonzero;fill:#eae7d9;fill-opacity:1"/><path d="M344.754 52.21c2.402-.71 4.832.255 7.273-1.444 1.532-.442 2.457.449 3.438 1.187 7.918 5.98 15.836 6.48 23.758.008.484-.395 1.027-.676 1.93-1.066 3.656-.465 7.046-1.2 9.742 2.593.28 7.02.418 14.047.414 21.075.003 44.8-.02 89.605-.075 134.863-3.308-1.016-2.59-4.363-2.89-7.082-2.813-25.574-9.188-49.828-22.453-71.938-.887-1.437-1.45-2.676-2.293-4.09-.262-.441-.364-.62-.782-1.296l-.765-1.22a15.616 15.616 0 0 1-.543-.964 15.926 15.926 0 0 0-.656-1.152c-.375-.586-.473-.727-.707-1.079a13.85 13.85 0 0 1-.497-.886 13.74 13.74 0 0 0-.609-1.067c-.262-.406-.539-.797-.668-.996a17.2 17.2 0 0 1-.488-.812 4.937 4.937 0 0 0-.844-1.121 8.524 8.524 0 0 1-.96-1.094c-.247-.344-.345-.488-.755-1.047a24.501 24.501 0 0 1-1.082-1.527c-.62-1.047-1.074-1.868-1.762-2.88a16.265 16.265 0 0 0-1.082-1.347c-1-1.11-1.636-2.14-2.441-3.418-.266-.426-.367-.594-.793-1.258-.43-.656-.539-.824-.812-1.23-.278-.41-.387-.574-.668-.984a17.491 17.491 0 0 0-1.168-1.403c-5.082-9.11-12.395-14.504-21.47-17.933.153-4.25-2.066-7.094-3.862-10.102-2.465-4.129-4.883-8.3-7.543-12.273-2.22-3.313-1.637-4.11 2.093-4.57 8.91-1.106 17.825-.774 26.743-.887 1.148-.016 2.488.382 3.277-1.56Zm0 0" style="stroke:none;fill-rule:nonzero;fill:#fefefe;fill-opacity:1"/><path d="M31.36 214.05c2.312-8.933 4.124-17.655 6.574-26.198 6.644-23.157 15.132-45.516 29.707-65.329 1.457.97 1.277 2.305 1.046 3.618-4.05 22.777-8.41 45.476-14.226 67.89-6.387 24.59-15.86 48.153-23.398 72.356a368.21 368.21 0 0 0-3.711 12.738c-.438 1.613-1.473 4.121.507 4.664 1.973.543 2.414-2.21 2.891-3.762a807.345 807.345 0 0 1 7.57-23.582c.473-1.398.883-2.816 2-4.27 4.153-2.8 8.125-5.292 11.989-7.956.968-.664 1.996-1.254 2.765-2.164.715-.848 1.086-1.817.336-2.793-.789-1.028-1.816-.727-2.785-.246-1.184.597-2.21 1.437-3.352 2.105-1.359.793-2.62 2.027-4.632.93-1.196-2.578.07-4.598.773-6.637 2.5-7.242 5.148-14.437 7.465-21.746.402-1.277.937-2.488 2.437-3.398 7.805-.188 15.18-1.625 22.778-.36 4.07.676 2.676 2.73 2.113 4.285-3.96 10.97-8.766 21.54-15.043 31.422-9.594 15.121-20.8 28.88-33.926 41.067-.504.468-.73 1.238-1.222 2.144-.961.55-1.848.719-2.61 1.117-2.445 1.282-3.574.489-3.699-2.16-.375-8.035-.09-16.012 1.113-23.992 1.07-7.063 1.438-14.23 2.477-21.297 1.043-7.062 1.105-14.289 3.398-21.504-.566-2.504-.652-4.62.664-6.941Zm358.226 97.06c-11.582-6.239-22.063-13.868-32.246-21.926-7.727-6.114-14.559-13.114-20.723-20.774-1.21-1.508-2.316-2.598.653-4.285 6.953-3.941 12.199-9.766 15.613-17.418 2.558-.512 3.265 1.379 4.285 2.711 10.531 13.77 19.844 28.371 29.187 42.953 1.563 2.438 4.055 4.352 4.56 7.777-.044 3.786 1.241 7.473-1.33 10.961Zm-270.879-65.313c-9.629 13.035-15.656 27.656-21.883 42.187-6.035 14.079-17.55 21.41-31.742 25.317-.562.148-1.086.43-1.965.664-5.238-.086-10.226 1.629-15.34-.86 1.782-5.835 5.817-9.878 11.121-13.093 3.852.949 7.465 1.324 11.106 1.508 1.562.078 3.691.597 3.933-1.532.235-2.031-1.972-2.172-3.476-2.558-2.113-.54-4.309-.723-6.629-1.715-.723-3.215 1.227-4.758 3.734-6.235 4.032.543 8.032 1.329 11.97 2.356 1.741.445 3.91.781 4.335-1.578.39-2.145-1.73-2.367-3.3-2.719-2.434-.543-4.97-.758-7.325-2.488-.629-1.13-.5-2.035.129-2.676 3.73-3.8 6.953-8.152 11.945-11.016 3.184-.484 5.711 1.082 8.453 1.317 1.637.137 3.965.898 4.368-1.473.379-2.21-1.84-2.621-3.551-3.047-.707-.172-1.438-.261-2.39-.715-1.5-1.945-.15-2.91.98-3.808 7.257-5.801 14.8-11.227 21.836-17.301 1.02-.875 2.18-1.586 3.691-.535Zm0 0" style="stroke:none;fill-rule:nonzero;fill:#254147;fill-opacity:1"/><path d="M381.73 51.375c-9.988 7.926-19.226 7.64-28.277-.84-4.367-6.16-6.617-12.414-3.203-19.875 5.879-13.941 27.156-16.703 35.473.086 3.816 7.133 2.214 15.516-3.993 20.629Zm0 0" style="stroke:none;fill-rule:nonzero;fill:#ea580c;fill-opacity:1"/><path d="M85.93 272.05c-5.176 3.231-8.535 7.93-12.621 12.235-1.121 2.45-2.547 4.27-4.95 5.578-2.379 1.051-3.097 3.285-4.746 5.035-.593 2.676-2.617 3.891-4.441 5.579-4.817 3.285-7.719 8.007-11.574 12.226-1.828 2.258-4.102 2.215-6.762 2.082-1.168-1.664-1.238-2.969.305-4.594 3.214-3.375 6.047-7.117 9.129-10.996 5.042-7.648 11.542-13.652 17.406-20.215 13.926-15.57 30.969-27.476 47.304-40.203 3.832-2.984 6.297-1.937 7.172 3.059-.586.8-.972 1.36-1.57 2.05-.496.243-.746.407-1.023.844-.059.215-.227.07-.149.149-.258.156-.527.332-.594.84.125.219.07.344.012.375-.976-.559-1.707-.114-2.426.457-8.156 6.535-16.32 13.062-24.547 19.883-1.34 2.671-3.503 4.07-5.925 5.617Zm0 0" style="stroke:none;fill-rule:nonzero;fill:#111f22;fill-opacity:1"/><path d="M381.797 51.582c4.355-5.875 5.89-12.46 4.086-20.203 3.887.883 5.36 3.7 5.293 7.621-.074 4.52-.031 9.043-.117 13.984-2.778-1.324-5.758-1.687-9.262-1.402ZM31.344 213.754c-.055 2.062-.996 4.027-.66 6.527-1.403-1.578-.434-3.765-.57-6.183.386-.364.695-.356 1.23-.344Zm0 0" style="stroke:none;fill-rule:nonzero;fill:#eae7d9;fill-opacity:1"/><path d="M122.254 242.023c-2.016-4.742-3.149-5.07-6.984-2.066-16.008 12.516-32.75 24.16-46.426 39.438-5.864 6.55-11.922 12.925-18.18 19.445 1.258-7.36 4.29-14.309 7.035-21.3 5.094-12.966 10.492-25.83 18-37.661 6.871-10.832 14.95-20.399 27.313-25.2 9.949-3.867 20.097-5.097 30.304-.96 5.29 2.148 6.524 5.648 3.985 10.742-3.504 7.012-9.992 11.531-15.047 17.562Zm0 0" style="stroke:none;fill-rule:nonzero;fill:#254147;fill-opacity:1"/><path d="M228.895 148.313c17.851 7.242 27.25 22.906 23.863 42.125-2.121 12.003-10.63 23.085-26.285 27.09-6.141 1.57-12.133 2.238-18.532.21-2.214-4.617-1.59-9.3-1.101-13.718 2.18-19.68 9.476-37.543 20.101-54.133.403-.617.954-1.117 1.954-1.575Zm0 0" style="stroke:none;fill-rule:nonzero;fill:#e1ff01;fill-opacity:1"/><path d="M228.992 148c-6.691 11.598-13.015 23.281-16.836 36.145-3.148 10.601-4.883 21.406-4.422 32.933-13.558-1.879-22.875-9.805-27.976-22.125-8.352-20.187 2.617-41.758 23.539-47.918 8.648-2.539 17.035-2.07 25.695.965Zm0 0" style="stroke:none;fill-rule:nonzero;fill:#485f61;fill-opacity:1"/><path d="M69.281 121.11c-.199-.422-.25-.614-.172-.712 2.926-3.87 5.059-9.765 11.086-8.324 6.118 1.465 6.047 8.031 7.137 12.844 3.332 14.777 2.438 29.828 1.887 44.82-.164 4.418-1.957 8.617-1.805 13.094.04 1.102-.8 1.453-1.746 1.606-12.117 1.921-20.52 9.324-27.86 18.804-1.406-.8-1.34-2.004-1.038-3.148 2.503-9.66 4.878-19.352 7.148-29.063.129-.57.547-1.035 1.168-1.73 3.527-1.98 7.238-2.528 10.621-3.985 1.352-.59 2.707-1.175 4.031-1.816 1.317-.64 3.11-1.344 2.477-3.11-.695-1.937-2.485-.921-3.82-.535-1.418.407-2.707 1.165-4.07 1.711-2.313.922-4.563 2.118-7.423 1.649-1.093-4.078-.144-7.664 1.567-11.43 3.476-2.578 7.504-3.422 10.781-5.707 1.27-.883 3.543-1.66 2.719-3.469-.977-2.136-3.012-.84-4.614-.191-2.253.91-4.117 3.008-7.093 1.988-.559-4.738.535-9.02 1.328-13.36.62-3.425 1.61-7.108-2.309-9.937Zm0 0" style="stroke:none;fill-rule:nonzero;fill:#254147;fill-opacity:1"/><path d="M66.05 169.309c-1.952 6.425-3.554 12.699-5.128 18.984-1.192 4.762-2.348 9.535-3.469 14.66-.355 2.484-2.289 4.14-1.836 6.86-3.746 10.707-7.672 21.019-10.633 32.015-.011 3.766-1.449 6.688-3.336 9.781-3.8 8.758-6.156 17.68-9.043 26.422-.644 1.946-1.207 3.922-1.914 5.848-.535 1.469-1.515 2.68-3.253 2.375-1.833-.324-2.145-1.86-2-3.434.53-5.754 2.742-11.074 4.425-16.515 6.875-22.2 15.637-43.793 21.77-66.211a549.715 549.715 0 0 0 9.55-41.067c2.301-11.941 4.47-23.906 6.758-36.218-.007-.371.016-.336 0-.348.434-.324.477-.84.832-1.438.204-.136.215-.222.258-.21 3.492-.149 4.63 1.515 4.406 4.886-.402 6.14-2.039 12.067-2.847 18.489 1.058 2.75.457 4.98-.942 7.37-1.945 3.57-1.597 7.356-2.609 11.208.527 2.453.754 4.507-.988 6.543Zm207.52 57.117c3.914-4.852 9.035-4.965 13.825-3.473 3.171.988 5.867 3.649 6.437 7.64.719 5.032-.152 9.247-4.738 12.208-3.977 2.566-10.266 2.293-13.938-.797-3.754-3.156-4.992-8.078-3.136-12.586.386-.945.863-1.848 1.55-2.992Zm0 0" style="stroke:none;fill-rule:nonzero;fill:#111f22;fill-opacity:1"/><path d="M213.086 107.203c.637 6.988 1.238 13.977 1.8 20.969.188 2.414.325 5.168-2.972 5.312-3.012.13-2.922-2.507-3.293-4.734-1.11-6.57-.531-13.195-.84-19.785-.062-1.36.121-2.582 1.516-3.383 1.808-1.031 2.676.273 3.789 1.621Zm-54.344 98.152c2.883-1.77 5.582-3.23 8.11-4.94 1.558-1.056 2.668-.872 3.785.48 1.129 1.367 1.168 2.878-.196 3.898-5.933 4.45-12.273 8.285-18.765 11.844-1.7.933-2.746-.746-3.551-1.825-.832-1.109-.152-2.218.957-2.96 3.133-2.102 6.27-4.2 9.66-6.497Zm-19.008-31.203c6.516-.457 12.696-.785 18.875-1.101 2.168-.113 4.63.07 4.809 2.644.18 2.688-2.05 3.47-4.527 3.567-5.594.234-11.184.597-16.778.902-1.683.09-3.273-.074-4.23-1.738-1.13-1.965.578-2.918 1.851-4.274Zm130.84 20.5c5.785 2.418 11.313 4.582 16.77 6.91 1.41.602 2.203 1.989 1.676 3.606-.633 1.941-2.16 2.258-3.915 1.644-6.023-2.109-11.953-4.425-17.652-7.312-1.828-.926-2.7-2.367-1.664-4.23 1.05-1.887 2.75-1.918 4.785-.618Zm6.645-44.293c1.84-.945 3.457-1.62 4.957-2.492 1.969-1.144 3.156.164 4.05 1.414 1.004 1.41.497 2.817-1.136 3.598-5.875 2.832-11.727 5.715-17.664 8.41-1.469.668-3.051-.02-3.551-1.656-.402-1.313-.73-2.848 1.191-3.68 3.993-1.726 7.914-3.601 12.153-5.594Zm-20.274-23.968c-2.347 3.714-4.43 7.21-6.66 10.613-1.203 1.844-2.758 3.238-5.07 1.453-1.98-1.527-.903-3.05.074-4.547 3.086-4.754 6.195-9.496 9.254-14.265 1.105-1.727 2.355-3.434 4.52-1.836 1.843 1.359 1.457 3.293.25 5.054-.739 1.078-1.446 2.18-2.368 3.528Zm-78.71 1.808c3.507 3.395 6.855 6.512 10.058 9.77 1.203 1.219 2.441 2.523.586 4.496-1.824 1.933-3.074.984-4.445-.29-3.918-3.632-7.856-7.241-11.688-10.964-1.172-1.137-3.14-2.383-1.473-4.402 1.665-2.012 3.614-1.493 5.422-.012.453.371.88.785 1.54 1.402Zm0 0" style="stroke:none;fill-rule:nonzero;fill:#e1ff01;fill-opacity:1"/><path d="M68.695 120.883c.098.472-.086.933-.52 1.484-.09-.441.071-.965.52-1.484Zm50.442 124.957c-.18-.203-.168-.504.097-.844.375.262.317.527-.097.844Zm.601-.934c-.113-.238.012-.527.383-.847.117.242-.016.523-.383.847ZM101.836 40.098c5.523-2.387 11.113-.79 16.566-.743 1.391.012 1.02 1.872 1 2.989-.03 1.695-1.097 2.355-2.632 2.183-4.72-.527-9.461-.078-14.25-.632-3.508-.41-7.782.414-11.715.648-1.172.07-2.348-.004-3.524-.016-1.836-.02-2.125-1.562-2.18-2.742-.058-1.262.426-2.742 2.208-2.676 4.765.188 9.597-.941 14.527.989Zm-29.188 4.457c-2.625.09-4.746-.117-4.668-3.063.079-2.945 2.446-2.39 4.262-2.449 2.352-.082 4.711.027 7.067-.02 1.937-.043 3.02.559 2.96 2.762-.058 2.125-1.05 2.848-3.03 2.781-2.06-.07-4.118-.011-6.587-.011Zm-28.675.004c-1.711-.04-3.067.109-4.332-.172-1.532-.336-1.86-1.668-1.817-3.098.043-1.434.793-2.156 2.18-2.191 2.047-.051 4.094-.02 6.144-.082 2-.059 3.754.597 3.672 2.75-.07 1.945-1.59 2.996-3.699 2.8-.582-.058-1.172-.007-2.148-.007Zm9.984-4.829c2.914-1.062 5.695-.566 8.453-.683 1.992-.086 2.621 1.316 2.598 2.766-.024 1.421-.617 2.851-2.625 2.75-1.746-.09-3.508-.106-5.254.015-3.555.246-4.441-1.379-3.172-4.848Zm0 0" style="stroke:none;fill-rule:nonzero;fill:#254147;fill-opacity:1"/><path d="M356.64 106.262c-.18.031-.433-.176-.75-.63.184-.03.426.184.75.63Zm.758.918c-.265.113-.46-.07-.66-.524.18-.035.418.133.66.524Zm1.622 1.808c-.184.094-.329-.02-.512-.304.195-.196.387-.11.512.304Zm1.007 1.774c-.226.101-.433-.086-.648-.528.226-.117.457.055.648.528Zm.657.87c-.153.063-.293-.07-.465-.37.164-.102.336.008.465.37Zm-6.899-9.757c-.223.113-.398-.027-.605-.371.242-.219.472-.113.605.371Zm8.012 11.563c-.188.093-.402-.07-.649-.504.18-.086.395.086.649.504Zm.863.835c-.238.114-.426-.046-.637-.43.247-.195.485-.066.637.43Zm1.02 1.766c-.18.05-.422-.125-.739-.508.172-.047.426.121.739.508Zm.68.898c-.22.083-.395-.085-.567-.492.227-.12.434.035.566.493Zm-14.102-19.496c-.235.098-.426-.074-.613-.507.242-.141.46.02.613.507Zm-.73-.906c-.176.05-.423-.12-.75-.504.167-.043.429.114.75.504Zm-1.09-1.738c-.204.11-.364-.02-.56-.328.22-.215.427-.121.56.328Zm0 0" style="stroke:none;fill-rule:nonzero;fill:#79aeb9;fill-opacity:1"/><path d="M366.25 173.352c2.352.921 1.645 3.8 3.41 5.535a205.006 205.006 0 0 1-6.601 10.015c-1.004 1.43-2.016 3.118-4.23 1.868-2.216-1.25-2.142-3.473-1.071-4.989 2.84-4.02 4.523-8.836 8.492-12.43Zm-7.379-16.059c1.156 1.672 2.05 3.46 2.984 5.543-3.156 1.277-4.984 4.129-7.578 5.953-1.761 1.238-3.601 2.7-5.351.688-1.895-2.184-.274-4.106 1.5-5.575 2.683-2.218 5.449-4.332 8.445-6.609Zm-14.012-25.426c1.95 1.176 2.387 3.184 3.493 5.09-3.11 1.219-5.977 2.867-8.907 4.438-1.593.859-3.656 1.574-5-.54-1.52-2.39.032-3.77 1.977-4.796 2.676-1.41 5.402-2.735 8.437-4.192Zm7.477 13.735c2.223 1.05 2.73 3.289 3.61 5.675-2.458 1.696-4.934 3.192-7.544 4.41-1.566.731-3.66 1.286-4.691-.582-.957-1.722-.652-3.574 1.512-4.765 2.398-1.324 4.625-2.961 7.113-4.738ZM41.754 251.895c.297-3.235 1.238-6.325 3.07-9.426 2.895-.672 4.754-2.735 6.781-4.215 2.262-1.645 3.829-1.215 5.22.547 1.675 2.12-.177 3.71-1.606 4.699-4.27 2.965-8.746 5.637-13.465 8.395Zm282.055-46.645c2.03 1.04 3.105 2.969 3.699 5.535-1.801.871-2.7 3.047-4.832 2.977-1.406-.047-3.074.422-3.762-1.36-.57-1.48-.215-2.804 1.145-3.824 1.265-.957 2.453-2.016 3.75-3.328Zm-7.309-12.16c2.813.16 2.516 2.746 3.852 4.383-.528 1.613-1.907 1.418-2.93 1.718-2.34.688-5.137 1.551-5.867-1.984-.754-3.652 1.992-3.879 4.945-4.117Zm0 0" style="stroke:none;fill-rule:nonzero;fill:#fcfcfc;fill-opacity:1"/><path d="M355.637 134.535c-1.64-1.238-2.739-3.082-3.586-5.422 4.347.067 4.941.93 3.586 5.422Zm7.386 13.445c-1.855-.535-1.859-2.289-2.668-3.859 2.782-.367 3.403 1.223 2.668 3.86Zm0 0" style="stroke:none;fill-rule:nonzero;fill:#eae7d9;fill-opacity:1"/><path d="M68.418 290.047c1.2-1.809 2.727-3.555 4.535-5.383 2.906.906 5.55 1.762 8.402 1.79 2.551.019 4.547 1.288 4.18 3.874-.34 2.367-2.39 3.836-4.933 2.856-3.856-1.489-8.2-.946-12.184-3.137Zm-9.258 10.738c.34-2.508 2.602-3.5 4.047-5.492 3.453.453 6.621 1.148 9.824 1.586 2.043.281 2.906 1.574 2.809 3.238-.13 2.133-1.93 3.117-3.797 2.793-4.188-.726-8.563-.23-12.883-2.125Zm26.922-28.515c.625-2.649 3.086-3.79 5.406-5.465 2.414.355 4.63.02 6.668 1.234 1.7 1.008 1.992 2.3 1.809 4.004-.219 2.086-1.754 1.844-3.23 2.031-3.645.477-6.782-1.683-10.653-1.804Zm0 0" style="stroke:none;fill-rule:nonzero;fill:#fcfcfc;fill-opacity:1"/><path d="M366.21 39.418c-.667-3.777-3.91-5.125-5.788-7.578-.43-.559-1.29-1.145-.797-1.793.809-1.063 1.55-.012 2.105.504a77.153 77.153 0 0 1 4.262 4.347c.953 1.063 1.867 1.793 3.535.688.52-.074.754-.086.977.254-1.082 1.805-.73 2.941.594 4.094 1.425 1.246 2.726 2.644 3.98 4.062.473.535 1.684 1.172.613 2.05-.617.505-1.289-.214-1.859-.683-2.21-1.82-3.531-4.644-6.652-5.652-.504.07-.758.074-.97-.293Zm0 0" style="stroke:none;fill-rule:nonzero;fill:#eae7d9;fill-opacity:1"/><path d="M359.48 45.652c.215-1.675 12.227-12.625 15.524-15.734.586-.398.785.133.922.23.812.567-14.328 15.274-15.281 16.09-.508.137-.957-.23-1.165-.586Zm0 0" style="stroke:none;fill-rule:nonzero;fill:#eae7d9;fill-opacity:1"/><path d="M360.922 44.758c.183-1.113.433-1.781 1.535-2.078.504-.075.734-.086.953.246-.45.883-.89 1.418-1.566 2.054-.48.118-.719.125-.922-.222Zm0 0" style="stroke:none;fill-rule:nonzero;fill:#eae7d9;fill-opacity:1"/><path d="M361.457 44.902c-.262.922-.809 1.809-1.672 1.106-.793-.645.145-1.074.906-1.531.387.027.504.136.766.425Zm3.004-3.695c.16-1.117.281-1.875 1.504-2.11.394.06.515.173.797.485-.274.703-.707 1.211-1.38 1.836-.472.125-.714.137-.921-.215Zm0 0" style="stroke:none;fill-rule:nonzero;fill:#eae7d9;fill-opacity:1"/><path d="M364.996 41.352c-.281.687-.719 1.195-1.375 1.812-.344.008-.46-.094-.734-.371-.02-.926.195-1.621 1.347-1.883.38.043.496.153.762.442Zm6.543-7.23c.18-1.122.356-1.84 1.535-2.083.39.05.508.156.781.453-.277.703-.71 1.227-1.382 1.86-.485.125-.73.132-.934-.23Zm0 0" style="stroke:none;fill-rule:nonzero;fill:#eae7d9;fill-opacity:1"/><path d="M369.969 35.703c-.016-.926.242-1.59 1.344-1.883.386.047.503.153.773.457-.281.696-.715 1.196-1.375 1.809-.34 0-.461-.102-.742-.383Zm0 0" style="stroke:none;fill-rule:nonzero;fill:#eae7d9;fill-opacity:1"/><path d="M66.066 169.508c-.109-2 .157-3.95.7-6.14 4.027-1.747 7.761-3.294 11.539-4.735 1.953-.742 4.304-2.012 5.566.754 1.309 2.87-.84 4.285-3.129 5.152-4.726 1.785-9.316 3.957-14.676 4.969Zm3.582-17.84c-.023-2.09.297-4.277.782-6.79 2.64-1.523 5.082-2.75 7.425-4.23 1.688-1.062 4.125-1.683 5.532.508 1.472 2.301-.11 3.614-2.117 4.817-3.622 2.175-7.243 4.293-11.622 5.695Zm0 0" style="stroke:none;fill-rule:nonzero;fill:#fcfcfc;fill-opacity:1"/><path d="M435.523 143.332c9.122 3.106 17.704 7.012 25.672 12.23 14.543 9.52 26.297 21.641 34.914 36.79 6.32 11.109 10.602 22.996 11.746 35.656 1.438 15.86-1.011 31.105-13.636 42.336-4.168 3.707-4.7 6.48-3.766 11.742 3.117 17.508 5.277 35.187 4.664 53.062-.16 4.582.762 9.094.77 13.692.02 12.95-8.535 22.18-20.895 22.945-1.781.113-3.5.91-5.66.676-2.691 1.789-5.457 1.23-8.004.914-4.34-.55-8.676-.613-13.015-.523-8.52.171-16.215-2.372-23.133-7.18-8.563-5.95-11.965-14.781-12.23-24.719-.262-10.02-.184-20.058-.915-30.058-1.137-15.422-.223-30.918-1.992-46.313-.43-3.715-.137-7.488-.098-11.566.121-7.594-.273-14.84-.515-22.395 1.297-3.11 3.933-4.543 6.12-6.387 10.274-8.648 18.028-19.023 22.528-31.789 1.05-2.988.781-5.36-1.258-7.68-.797-.902-1.457-1.93-2.285-2.808-2.75-2.914-3.457-6.129-3.066-10.254.754-7.914 1.785-15.797 2.535-23.71.152-1.555.445-3.11 1.52-4.661Zm0 0" style="stroke:none;fill-rule:nonzero;fill:#f1eee5;fill-opacity:1"/><path d="M346.344 201.363c4.375-7.547 8.765-14.847 13.746-21.773 5.129-7.125 10.5-14.09 16.648-20.328 3.664-3.719 7.227-7.758 12.278-10.246 1.476 1.367.746 2.664.078 3.976-1.973 3.887-3.66 7.895-4.88 12.078-1.612 5.54.24 8.813 5.817 10.407.465.132-.11-.055.352.085 1.789.551 4.515.66 4.433 2.848-.07 1.8-2.765 1.352-4.316 1.672-6.7 1.363-8.586 4.41-7.855 11.332 1.253 11.867 5.27 22.496 12.949 32.031.07 9.79-1.207 19.239-.914 29.075.472 5.792-.41 11.21-.832 16.605-.844 10.727-.317 21.48-1.239 32.203-1.203 13.953-.988 27.985-1.695 42.293-.8 4.809-.582 9.531-3.254 13.871-6.953 10.957-17.226 14.914-29.324 15.25-3.73.102-7.445.055-11.168.574-5.18.72-10.324-.312-15.461-.882-1.309-.145-2.59-.606-3.734-1.887-4.625-2.352-8.45-5.172-10.817-9.59-1.472-2.75-2.613-5.602-2.586-8.844.067-7.734-.52-15.515.164-23.187.817-9.192 1.352-18.406 2.442-27.59 1.23-10.367 2.851-20.645 4.672-30.906.668-3.77 1.433-7.524 2.164-11.578.465-6.036 2.695-11.297 4.445-16.676 4.227-12.988 8.828-25.836 15.785-37.688.235-.402.301-.918.645-1.593.152-.235.156-.22.148-.223.39-.379.785-.766 1.309-1.309Zm0 0" style="stroke:none;fill-rule:nonzero;fill:#fcfbf9;fill-opacity:1"/><path d="M389.71 345.262c.153-7.375.75-14.711.946-22.051.559-21.473 1.426-42.926 2.852-64.352.12-1.804.09-3.62.18-5.757 1.414-1.672 3.175-1.543 4.828-1.47 3.949.18 7.957-.687 12.101.891.395 15.938 1.875 31.586 1.977 47.309.086 14.113 1.226 28.219 1.465 42.356.246 14.28 10.203 25.035 24.078 28.226 10.02 2.305 20.156 1.176 30.55 1.996 11.211 20.121 22.083 40.192 33.008 60.227.57 1.047.684 2.008.614 3.383-.907 2.53-3.09 3.207-4.997 4.156-6.5 3.246-13.398 5.43-20.636 7.465-8.367 1.609-15.242-1.13-21.281-6.278-7.649-6.515-14.317-13.972-20.387-21.96-9.14-12.028-17.305-24.673-24.117-38.176-1.47-2.91-2.774-5.891-4.102-9.16-4.316-10.114-8.098-20.122-10.414-30.637-.215-.977-.14-2.582-1.336-2.692-1.098-.097-1.379 1.477-2.023 2.317-1.051 1.379-1.016 3.55-3.305 4.207Zm-61.968 25.386c10.48 3.008 21.172 1.082 31.781 1.118 5.262.015 10.13-1.438 14.836-3.5 5.215-2.286 9.211-6.036 12.454-10.907 1.554 1.243 1.199 2.829.964 4.364-.488 3.207-1.172 6.39-1.093 9.996-1.286 11.703-1.184 23.172-2.399 34.543-.27 2.523-.445 5.039-.398 7.566.258 14.824-1.727 29.57-1.524 44.387.012.726-.148 1.441-.566 2.426-1.547 1.683-3.371 1.925-5.164 2.046-8.582.606-17.059-.53-25.528-1.683-.718-.098-1.382-.414-2.218-1.082-8.418-2.637-12.047-8.91-14.012-16.55-4.18-16.29-5.121-32.954-5.805-49.653-.316-7.59-.894-15.168-1.328-23.07Zm0 0" style="stroke:none;fill-rule:nonzero;fill:#579aa8;fill-opacity:1"/><path d="M348.543 459.914c8.047.606 15.945 1.922 23.973 1.781 2.636-.047 5.254-.082 8.105-.734 2.074.918 1.672 2.648 1.7 4.117.085 4.68.218 9.375-.02 14.05-.324 6.454-2.473 11.977-9.094 15.126-1.969.617-3.664.55-5.352.55-20.261.009-40.52.024-60.785-.019-2.23-.004-4.656.465-6.59-1.894-3.062-3.164-1.933-6.176-.636-9.274 1.699-4.058 5.09-5.644 9.043-5.863 5.164-.29 10.363.039 15.535-.121 6.976-.215 13.426-1.926 18.363-7.34 2.688-2.938 4.488-6.36 5.758-10.379Zm127.504-12.64c5.105-2.579 10.61-3.278 15.605-5.626 3.461-1.625 6.961-3.132 10.457-5.242 1.664.063 2.5.871 3.184 2.172 2.629 5.008 5.957 9.735 7.95 14.973 2.421 6.375 1.019 13.496-7.005 16.84-18.207 7.578-36.422 15.125-54.789 22.91-1.945 1.933-4.078 1.297-6.437 1.015-6.551-4.718-5.895-13.25 1.136-17.28 3.461-1.99 7.27-3.329 11.032-4.571 11.3-3.738 18.086-10.809 18.187-23.235.004-.609.184-1.19.68-1.957Zm0 0" style="stroke:none;fill-rule:nonzero;fill:#cde801;fill-opacity:1"/><path d="M344.824 202.777c.137 3.934-2.578 6.899-4.144 10.32-6.016 13.169-10.89 26.739-14.715 40.7-.41 1.5-1.024 2.95-1.746 4.59-8.145-5.809-14.754-13.14-21.082-20.711-3.848-4.602-7.235-9.586-11.016-14.246-2.176-2.684-3.398-5.383-2.039-9.102 7.652 1.328 17.645-5.488 19.145-13.344.195-1.047.097-2.164.941-3.254 6.477 4.247 12.8 8.543 18.977 13.047 4.687 3.418 5.421 3.489 9.351-.828 2.09-2.304 4.074-4.707 6.328-7.172Zm0 0" style="stroke:none;fill-rule:nonzero;fill:#f1eee5;fill-opacity:1"/><path d="M384.492 99.992c-3.629-.605-6.656-1.734-9.055-4.293-2.996-3.203-3.82-6.941-2.148-10.101 2.074-3.914 6.598-6.36 10.66-5.313 2.805.719 4.602.903 6.813-1.914 4.847-6.172 14.09-4.465 17.148 2.922.63 1.516.692 1.66 2.121.969 4.844-2.344 7.961-1.164 10.645 3.86.594 1.108.57 2.335 2.61 1.245 5.39-2.875 11.616 1.61 12.327 7.906.657 5.77-2.054 10.352-6.332 13.747-1.898 1.507-2.37 2.906-2.422 5.027-.062 2.531-.421 5.055-.707 7.894-1.214.36-1.847-.41-2.183-1.32-2.29-6.246-7.106-7.57-13.035-6.789-1.957.258-3.957.61-4.485-2.46-.16-1.313-.101-2.333-.113-3.657-.098-.903-.121-1.504-.203-2.094-.649-4.648-.887-4.754-5.68-4.914-5.226-.184-10.504.645-15.96-.715Zm-88.68 75.23c.305-3.73 2.04-6.78 3.551-9.816 1.168-2.347.555-3.504-1.148-4.73-18.04-12.98-15.664-42.723 6.191-51.754 15.149-6.262 32.531-.48 39.176 16.36 6.223 15.769-1.027 32.761-16.766 39.124-4.023 1.63-8.289 2.555-12.671 1.961-3.348-.457-5.188.633-5.66 4.117-.188 1.368-1.02 2.649-1.653 4.246-3.574 2.34-7.18 1.66-11.02.493Zm0 0" style="stroke:none;fill-rule:nonzero;fill:#111f22;fill-opacity:1"/><path d="M444.488 493.434c2.301.117 4.258.097 6.516.086 26.266.046 52.234.062 78.203.164 1.723.007 4.652-1.075 4.77 1.675.132 3.016-2.82 2.618-4.961 2.618-86.606.003-173.22.003-259.828.007-.606 0-1.211-.043-1.81.004-1.843.149-2.933-1.195-2.964-2.52-.035-1.503 1.586-1.835 3.024-1.831 7.609.011 15.222.09 22.828-.035 3.218-.051 6.496.656 9.859-.758 1.574.539 3.035.789 4.645.785 22.492-.05 44.98-.047 67.78-.05 2.72-.864 5.2-1.157 7.762-1.157 19.274.039 38.547.02 57.817.02 2.047 0 4.101-.051 6.36.992Zm0 0" style="stroke:none;fill-rule:nonzero;fill:#dfe3f4;fill-opacity:1"/><path d="M295.285 174.992c3.817.012 7.336.055 11.152.055 5.82 3.004 6.114 4.098 5.493 10.2a212.132 212.132 0 0 1-1.59 12.046c.652 9.875-6.074 13.582-13.192 17.164-2.437 1.23-4.464 2.988-6.796-.328-2.633-2.672-6.118-2.922-9.13-4.05-6.835-2.575-8.222-5.595-5.085-12.192 2.343-4.934 4.527-9.95 6.804-14.914 2.364-5.149 6.38-7.82 12.344-7.98Zm111.758-64.047c.074 2.797 1.738 2.2 3.324 2.004 4.867-.605 9.656-.656 12.828 4 1.043 1.535 1.645 3.371 2.676 5.188-.332 6.113-.531 12.12-.277 18.468 1.18 2.149 1.219 3.922-.418 5.86-1.422.7-2.633.73-3.836.734-6.367.016-12.738-.105-19.082.696-1.414.18-2.887.085-4.59-.575-.902-.683-1.059-1.347-.871-2.425.187-.63.25-.93.351-1.45 2.059-2.96 5.43-3.199 8.168-4.582 3.399-1.71 6.051-3.918 6.899-7.797.148-.671.441-1.566-.504-1.796-.688-.165-.883.644-1.14 1.18-2.716 5.546-7.169 7.929-13.868 7.175-1.96-.395-3.523.383-5.148.777-4.325 1.051-5.86-.101-5.914-4.55-.016-1.207.02-2.415.082-3.942.707-.976 2.03-.898 2.191-2.039.168-1.187-1.004-1.121-1.902-1.613-2.551-.922-4.98-.363-7.364-.574-2.718-.239-3.183-1.395-1.5-3.446 2.493-3.039 5.047-6.027 7.672-9.254 1.317-1.312 2.301-.699 3.2.243.5.527.793 1.207 1.171 1.82 1.247 2 2.696 3.922 5.325 3.715 2.609-.211 3.754-2.371 4.754-4.473 2.015-4.227 2.578-4.508 7.773-3.344Zm0 0" style="stroke:none;fill-rule:nonzero;fill:#dbb385;fill-opacity:1"/><path d="M424.922 146.238c.402-1.636.512-3.172.672-5.004 1.812-.011 3.57.274 5.636.59 1.454 1.801 1.25 3.824.946 5.66-1.082 6.551-1.067 13.227-2.301 19.75-1.223 6.465-.84 12.438 4.285 17.356 2.672 2.566 2.617 5.531 1.363 8.976-4.472 12.293-12.578 21.848-22.132 30.387-.805.719-1.692 1.371-3.133 1.371-2.844-3.59-2.047-7.554-1.227-11.183 4.864-21.485 10.188-42.86 14.242-64.524.215-1.18.438-2.383 1.649-3.379Zm-28.246-1.652c.355.535.457 1.082.62 1.91 1.575 2.453 1.25 4.945.93 7.285-.605 4.45-.632 8.903-.53 13.356.382 17.37-1.934 34.652-1.509 52.02.032 1.206-.093 2.417-1.117 3.66-5.578-4.97-8.53-11.426-10.886-18.301-1.653-4.825-1.88-9.871-2.758-14.805-1.094-6.137 2.48-9.59 10.379-10.945.832-.141 1.832.422 2.492-.532-.817-.476-1.59-1.05-2.461-1.398-.649-.262-1.426-.18-2.125-.324-5.691-1.2-8.504-6.282-6.473-11.762 1.696-4.574 2.985-9.324 5.817-13.422.297-.43.152-1.172.218-2.05 1.887-2.56 4.395-3.817 7.403-4.692Zm0 0" style="stroke:none;fill-rule:nonzero;fill:#f1eee5;fill-opacity:1"/><path d="M409.996 225.46c11.418-9.183 20.445-19.757 25.246-33.526.77-2.196.887-4.207-1.031-5.88-6.133-5.34-6.54-11.96-5.223-19.519 1.38-7.914 1.676-16.015 2.5-24.355 1.63-1.153 3.203-1.993 4.207.722-1.574 8.41-2.074 16.707-2.91 24.957-.035.36.086.758-.023 1.082-2.043 5.961.066 10.805 4.425 14.68 4.297 3.813 2.231 7.695.731 11.66-5.383 14.215-15.238 24.867-27.316 33.996-1.407-.949-1.297-2.222-.606-3.816Zm0 0" style="stroke:none;fill-rule:nonzero;fill:#82acb0;fill-opacity:1"/><path d="M384.21 100.137c6.767-.403 13.517-.426 20.263-.594 1.746-.043 2.328.543 2.328 2.246 0 1.8.281 3.602.426 5.723-3.54 2.515-5.942 2.277-8.524-.52-3.39-3.672-6.152-3.562-9.113.363-1.145 1.512-2.016 3.364-4.55 3.227-1.306-3.41-.692-6.789-.83-10.445Zm0 0" style="stroke:none;fill-rule:nonzero;fill:#dbb385;fill-opacity:1"/><path d="M384.719 110.672c2.125-.16 2.89-1.55 3.746-3.106 3.05-5.496 7.523-5.543 11.277-.398 1.871 2.562 4.582.824 7.207.73.293.848.32 1.762.332 2.95-.855.3-1.699.41-2.531.343-2.316-.175-3.895.09-4.496 3.036-.574 2.82-2.426 5.351-5.719 5.644-3.285.293-4.715-2.305-6.168-4.66-.703-1.137-.789-2.973-3.164-2.465-.383-.601-.48-1.223-.484-2.074Zm0 0" style="stroke:none;fill-rule:nonzero;fill:#cde801;fill-opacity:1"/><path d="M396.5 137.785c2.797-.863 5.68-1.191 8.387-2.062 2.383-.778 4.441-2.211 4.765-5.164.16-1.43.778-3.192 2.496-2.739 2.082.555 1.2 2.282.856 3.86-1.434 6.52-7.324 7.527-12.031 10.007-1.043.555-2.164.965-3.512 1.489-.492-1.668-.723-3.38-.961-5.39Zm-10.805-11.433c1.47-.137 3.438-1.247 3.68 1.199.23 2.336-1.621 2.078-3.375 2.058-.813-.992-1.555-1.96-.305-3.257Zm0 0" style="stroke:none;fill-rule:nonzero;fill:#111f22;fill-opacity:1"/><path d="M346.258 201.25c.18.629.008 1.21-.996 1.395-.164-.622.015-1.196.996-1.395Zm0 0" style="stroke:none;fill-rule:nonzero;fill:#f1eee5;fill-opacity:1"/><path d="M410.098 224.914c.113 1.484.125 2.688.214 4.18.282 7.855.481 15.414.625 23.316-5.546.344-11.039.348-16.867.352-.867-9.754.43-19.434.743-29.457.53-10.29.355-20.301.882-30.305.797-15.172 1.051-30.379 1.602-45.902 9.101-.676 18.129-1.286 27.55-.989-1.956 11.246-4.199 22.48-6.644 33.676-1.578 7.223-3.605 14.344-5.14 21.57-1.633 7.672-4.797 15.165-2.965 23.56Zm0 0" style="stroke:none;fill-rule:nonzero;fill:#111f22;fill-opacity:1"/><path d="M464.293 227.074c-6.043 7.34-10.43 15.469-15.371 23.219-3.336 5.234-6.188 10.781-9.246 16.191-.531.942-.91 1.989-1.535 2.852-.524.723-1.141 1.785-2.309 1.113-1.012-.582-.996-1.566-.508-2.531 1.735-3.418 3.422-6.863 5.25-10.234 1.637-3.028 3.438-5.957 5.164-9.207-.164-1.235.356-1.934 1.117-2.782 4.028-2.816 4.922-7.644 7.961-10.8 5.954-6.188 5.641-12.801 3.176-20.489-2.988-9.332-4.82-19.027-7.664-28.433-.332-1.114-.894-2.871.852-3.434 1.777-.57 2.238 1.047 2.558 2.309 1.75 6.82 3.27 13.699 5.184 20.472 1.191 4.211 1.656 8.649 3.969 12.754.718 1.137 1.082 2.176 1.683 3.363.059.93.059 1.63.059 2.59.14 1.141.215 2.008-.34 3.047Zm0 0" style="stroke:none;fill-rule:nonzero;fill:#fefefe;fill-opacity:1"/><path d="M487.078 302.281c1.781 2.696.899 4.043-1.945 4.051-11.945.04-23.89 0-35.836.012-1.602 0-3.258-.559-3.258-2.11 0-1.867 1.797-2.18 3.492-2.175 12.426.054 24.852.074 37.547.222Zm0 0" style="stroke:none;fill-rule:nonzero;fill:#82acb0;fill-opacity:1"/><path d="M439.164 273.324c3.871 1.64 7.45 3.297 11.152 4.606 2.364.828 1.293 1.199.07 1.996-3.491 2.273-6.94 4.617-10.406 6.937-.195.133-.378.325-.593.383-.414.113-9.203-6.125-9.2-6.558.004-.317.184-.676.391-.93 1.824-2.207 3.676-4.395 5.512-6.594.96-1.152 1.898-.66 3.074.16Zm0 0" style="stroke:none;fill-rule:nonzero;fill:#dbb385;fill-opacity:1"/><path d="M446.883 245.34c-.04 1.039-.07 1.965-1.031 2.691-4.223-.011-3.454-3.832-4.184-6.011-3.063-9.13-5.54-18.446-8.387-27.649-.515-1.672-.683-2.937 1.16-3.394 1.735-.426 2.282.726 2.754 2.363 3.075 10.625 6.325 21.207 9.688 32Zm17.504-18.004c-.246-.957-.239-1.863.008-2.902 5.335 0 9.976 2.168 14.886 3.175 5.137 1.051 10.145 2.723 15.219 4.09 1.164.313 2.207.934 1.957 2.164-.266 1.297-1.394 1.89-2.793 1.516-9.68-2.64-19.488-4.8-29.277-8.043Zm.57-5.723c-2.422-.105-1.707-1.765-1.84-3.172 8.403-1.226 16.73-2.222 25.067-3.218 1.296-.153 2.476-.098 2.597 1.617.078 1.101-.242 1.695-1.558 1.844-7.989.898-15.965 1.902-24.266 2.93Zm0 0" style="stroke:none;fill-rule:nonzero;fill:#82acb0;fill-opacity:1"/><path d="M386.023 372c-1.058-4.969 1.301-9.398 1.043-14.387.957-4.129 3.122-7.722 2.293-12.148 2.207-2.086 2.29-5.172 4.274-7.113.746-.73 1.203-2.2 2.347-1.903 1.09.29.305 1.676.543 2.547 2.32 8.395 4.54 16.82 7.875 24.895a322.725 322.725 0 0 1 2.989 7.554c-.348.727-.856 1.114-1.461 1.145-6.547.312-13.106.933-19.903-.59Zm0 0" style="stroke:none;fill-rule:nonzero;fill:#f1eee5;fill-opacity:1"/><path d="M360.121 299.91c2.067.313 4.98-.96 5.055 1.75.09 3.336-3.078 1.809-4.766 1.828-11.922.133-23.848.082-35.773.051-1.168-.008-2.867.656-2.93-1.539-.062-2.207 1.566-2.074 3.016-2.078 11.687-.012 23.37-.012 35.398-.012Zm0 0" style="stroke:none;fill-rule:nonzero;fill:#82acb0;fill-opacity:1"/><path d="M385.379 237.508c-3.984-.067-6.586-1.86-6.992-4.602-.43-2.863 1.699-6 4.652-6.86 2.613-.76 6.09 1.122 7.285 3.95 1.278 3.027-.199 5.418-4.945 7.512Zm-8.578 59.601c-2.086-3.57-1.496-6.367 1.531-8.238 2.906-1.793 6.332-1.094 8.195 1.672 1.453 2.156.825 6.406-1.449 7.742-2.812 1.652-5.683 1.695-8.277-1.176Zm0 0" style="stroke:none;fill-rule:nonzero;fill:#dbb385;fill-opacity:1"/><path d="M385.703 372.078c7.055-.324 14.055-.34 21.402-.36 12.051 25.165 26.81 48.231 47.122 67.415 5.949 5.625 12.796 9.082 21.644 7.875 1.02 9.418-1.64 17.535-9.95 22.527-4.812 2.89-10.32 4.711-15.636 6.668-6.7 2.461-8.953 5.34-8.894 11.64.023 2.555 1.53 3.86 3.308 5.485-23.613.258-47.351.266-71.465.27 6.235-3.739 8.121-9.676 7.793-16.848-.226-5.023-.05-10.063-.09-15.438.836-5.37.25-10.457.512-15.515.746-14.594 1.137-29.211 2.055-43.797.621-9.875.625-19.8 2.2-29.922Zm-92.898-232.023c-2.399-16.797 11.312-28.86 25.953-27.282 10.449 1.122 19.883 9.829 20.535 21.551.633 11.41-4.043 19.496-14.379 24.156-14.93 6.735-30.887-4.527-32.11-18.425Zm0 0" style="stroke:none;fill-rule:nonzero;fill:#fefefe;fill-opacity:1"/><path d="M392.574 106.39c1.883-.863 3.184-.148 3.863 1.196.657 1.289-.574 1.672-1.546 2.285-1.262.8-.547 1.563.57 1.879.887.254 2.555-.586 2.246 1.297-.27 1.664-1.137 3.226-2.89 3.855-1.344.485-2.297-.23-2.954-1.41-1.707-3.07-2.011-6.074.711-9.101Zm0 0" style="stroke:none;fill-rule:nonzero;fill:#dbb385;fill-opacity:1"/><path d="M385.879 230.273c1.023 1.778.637 3.032-1.152 3.434-1.297.297-1.989-.516-1.961-1.855.043-2.094 1.289-2.207 3.113-1.579Zm0 0" style="stroke:none;fill-rule:nonzero;fill:#fefefe;fill-opacity:1"/><path d="M381.164 291.844c2.277-.043 2.941 1.035 2.152 2.734-.48 1.024-1.714 1.695-2.718.793-1.192-1.074-1.45-2.445.566-3.527Zm0 0" style="stroke:none;fill-rule:nonzero;fill:#edebeb;fill-opacity:1"/></svg>