<svg xmlns="http://www.w3.org/2000/svg" width="510" height="498" viewBox="0 0 386 498"><path d="M60.438 245.46c.78-.495 1.39-1.01 2.023-1.046 4.957-.262 6.176-3.559 6.914-7.746 1.668-9.422 3.586-18.797 5.531-28.168 1.75-8.438 3.524-16.879 5.555-25.254a961.38 961.38 0 0 1 7.727-29.715c1.523-5.504 3.558-10.879 6.66-15.722 5.71-8.907 15.37-9.032 21.465-.344.624.894 1.12 1.875 1.722 3.12 1.25 2.052.117 3.528-.64 4.907-13.547 24.938-20.45 52.344-29.473 78.965-1.79 5.285-1.356 10.078 3.566 14.047.52.539.758.89 1.028 1.574-.196 2.48-1.887 3.875-2.91 5.633-2.52 4.336-3.637 8.89-2.262 13.832.539 1.934 1.539 3.543 3.68 4.066 2.222.536 3.706-.675 4.937-2.238 1.621-2.047 2.71-4.207 6.277-2.586 2.242 1.016 2.145-1.824 2.106-3.293-.086-3.265-1.297-6.5-.13-10.07 6.259-2.113 9.106-7.16 11.954-12.234 2.36-4.211 4.281-8.665 6.93-12.72.8-1.226 1.215-2.894 3.398-2.597 1.145 1.953.734 3.727.406 5.492-.808 4.36-1.222 8.73-1.191 13.18.047 6.191 2.543 10.875 7.734 14.23 1.832 1.184 3.957 2.055 5.227 4.454.867 6.914.586 13.457-.535 19.968-.465 2.711-.684 5.434-.696 8.559.004 6.738-1.152 13.012-1.843 19.285-1.696 15.336-3.176 30.703-4.301 46.07-1.305 17.696-2.555 35.493-.149 53.618-.199 5.503-.593 10.609-2.902 15.691-3.164 1.805-6.3 1.02-9.691 1.094-1.871-.2-3.407-.965-5.227.062-1.7.742-3.262.985-4.937 1.793-3.48.508-5.61 2.817-8.29 4.735-5.226 2.796-8.156 7.257-10.913 11.941-6.88 11.664-11.942 24.223-18.184 36.527-.188.446-.27.618-.469 1.047-.941 1.715-1.652 3.227-2.527 4.969-.735 1.18-1.27 2.148-1.707 3.48-2.012 4.375-3.832 8.524-6.2 12.7-1.597.336-2.964.629-4.328.632-17.39.04-34.78-.027-52.168.094-2.863.02-4.062-.562-3.417-3.672 1.417-6.824 2.656-13.687 3.933-20.535 2.04-10.894 3.895-21.82 6.14-32.672 1.329-6.437 2.516-12.898 3.66-19.363a2922.637 2922.637 0 0 1 6.247-33.906c1.43-7.531 3-15.04 4.687-22.828 2.141-1.274 2.305-2.637.922-4.579.172-1.265.438-2.253.746-3.546.555-1.946.477-3.664.829-5.598.628-3.36 1.144-6.465 1.718-9.938.461-1.293 1.317-2.125.485-3.507 1.84-7.403 2.48-14.79 3.937-22.391 1.39-1.566 1.7-3.031 1.2-4.98 1.921-13.235 4.48-26.09 6.636-39.004.738-4.414 1.902-8.786 2.129-13.344.316-6.445 3.473-9.2 11.168-10.848.79-.172 1.555-.465 2.652-.707 1.375.88 2.293.953 3.16-.613Zm206.761 164.173c4.637-12.567 9.778-24.649 14.996-36.703 2.688-6.2 5.293-12.453 9.227-18.012 7.95-11.23 19.176-15.387 32.324-13.473 12.012 1.75 20.711 8.946 25.39 20.106 5.094 12.156 8.56 24.89 11.9 37.644 2.968 11.34 6.257 22.598 9.25 33.93 2.542 9.621 4.827 19.3 7.284 28.938 1.887 7.402 3.852 14.785 5.797 22.171.797 3.036 1.719 6.043 2.41 9.102.618 2.734.051 4.441-3.457 4.133-3.566-.313-7.175-.082-10.77-.082-49.175-.012-98.35-.02-147.905-.125-1.48-1.785-.497-3.352.101-4.797 3.11-7.559 5.102-15.445 6.691-23.41 1.254-6.305 4.493-10.145 10.973-11.09 2.32-.336 4.531-1.188 6.824-1.7 5.067-1.132 7.418-4.093 7.43-9.277 0-.828-.16-1.683.082-2.472 3.352-10.883 4.649-22.38 9.754-32.743.355-.742.703-1.488 1.7-2.14Zm0 0" style="stroke:none;fill-rule:nonzero;fill:#5e5c54;fill-opacity:1"/><path d="M267.246 409.3c-2.2 7.095-5.402 13.86-6.82 20.977-.996 4.993-2.957 9.703-3.625 14.625-.395 2.887-.313 5.559-1.633 8.418-.89 1.918-1.758 2.813-3.504 3.27-4.219 1.094-8.41 2.355-12.687 3.168-4.934.941-6.465 4.687-7.278 8.672-1.969 9.636-4.539 19.058-8.422 28.43-40.09.331-80.152.382-120.222.296-3.766-.008-7.64 1.89-11.477-.676-.219-.554-.215-.82-.18-1.085.118-.989 1.122-2.582-.359-2.758-1.875-.219-1.176 1.578-1.164 2.968-2.32 3.31-5.172 2.133-8.168 1.102-.266-.348-.36-.453-.406-.578-.344-.965 1.316-2.7-.727-2.875-1.418-.129-.972 1.621-1.41 2.828-3.504 2.84-7.437 1.61-11.137 1.754-2.547.101-5.164.516-7.918-.617.5-5.016 3.61-8.766 5.403-13.317 1.465-.699 4.297-.097 2.148-3.191.008-2.008.844-3.484 1.992-5.063.922 3.946 5.688 2.598 7.434 5.29.254.394 1.086.062 1.246-.555.266-1.004-.375-1.695-1.234-1.762-2.563-.195-4.473-1.965-7.032-2.836 1.805-6.64 5.227-12.476 8.207-18.488 4.172-8.422 7.704-17.223 13.34-24.856 2.028-2.738 4.172-5.46 7.84-6.66 4.05.64 6.055-1.824 8.176-4.617 1.516-1.219 2.96-1.957 5.008-1.855 1.293 1.054.457 2.043.277 3.043-.148.832-.227 1.75.852 1.878 1.074.13 1.28-.812 1.324-1.628.078-1.532.355-2.938 1.98-4.008 3.5-.188 6.766-.227 10.399-.25 2.199 1.828 1.21 3.883.804 5.847-.359 1.754-.707 3.512-1.12 5.582-1.204 2.614-3.305 2.973-5.56 3.192-1.128.11-2.35.644-1.679 2.09.59 1.273 1.676.636 2.363-.035 2.145-2.09 4.078.007 6.41.296 1.098.325 1.883.672 2.704.7 13.48.394 26.964.41 40.441-.024 2.23-.07 4.281-1.035 5.84-2.754 1.805-1.984 2.476-4.265 1.582-6.863-.91-2.633-2.86-3.953-5.582-4.176-3.024-.246-6.059.04-9.082-.18-3.707-.265-4.496-1.132-3.781-4.628.52-2.559.492-5.215 1.55-8 9.508-9.329 19.625-17.114 32.567-20.278 5.094-1.25 10.199-2.492 15.5-2.496 1.945-.004 3.86-.195 6.09-.8 8.57-.419 16.785-.188 25-.192 1.234 0 2.464.121 3.875 1.004 7.097 3.125 10.785 9.223 15.03 14.672 2.102 2.695 4.169 5.398 6.825 8Zm0 0" style="stroke:none;fill-rule:nonzero;fill:#ccc7b5;fill-opacity:1"/><path d="M138.484 255.695c-2.011-2.238-4.562-3.082-6.644-4.601-4.735-3.453-7.028-7.957-7.305-13.895-.297-6.363 1.43-12.449 1.727-19.07-1.801-3.797.105-7.106.57-10.371 2.445-17.227 4.879-34.457 7.453-52.02.078-.578.11-.804.227-1.37.187-.774.293-1.216.437-2 1.965-12.93 4.344-25.43 7.965-37.669.805-2.73 1.84-5.39 3.102-7.941 2.964-5.809 5.402-11.543 8.562-16.84 5.883-9.863 13.121-18.418 24.57-22.266 1.473-.496 2.903-.84 4.774-.785 3.16-1.98 6.023-1.015 8.57.313 5.692 2.968 11.633 4.882 18.336 5.527 2.086 1.164 4.008 2.02 5.578 3.895 2.82 2.445 5.692 4.421 7.098 8.02-1.25 1.75-2.54.64-3.797.378-2.531-.516-4.816-2.047-8.371-1.883 7.172 10.414 10.215 22.094 14.383 33.676 6.558 23.719 11.683 47.45 16.59 71.223.308 1.504.437 3.007-.364 4.77-2.14 1.66-4.386 1.222-6.535 1.273-5.922.144-6.539.71-6.785 6.894.074 6.66 0 12.98.035 19.3.008 1.786 0 3.575.488 5.313 1.051 3.72 3.817 5.918 7.102 5.66 3.324-.265 5.906-2.785 6.375-6.496.445-3.55.164-7.136.191-10.703.036-3.98.008-7.964.024-12.3.02-2.72-.043-5.086-.317-7.805 1.258-5.16 3.223-9.727 4.426-14.555 3.317-13.336 3.02-26.773 1.356-40.238-.836-6.734.379-8.168 7.968-7.766 3.329 13.7 2.59 27.317 1.786 41.309-.403 9.898-2.696 19.058-7.489 27.156-3.816 6.445-3.476 12.52-2.093 19.336 1.992 9.828 4.386 19.649 4.324 30.106-2.457 3.492-6.004 4.847-9.387 6.335-11.883 5.235-24.41 7.395-37.332 8.211-18.164 1.149-36.016-.78-53.773-4.207-4.586-.879-9.223-1.746-13.825-3.914Zm0 0" style="stroke:none;fill-rule:nonzero;fill:#111f22;fill-opacity:1"/><path d="M138.2 255.852c3.073-1.754 5.675.476 8.269 1.195 15.148 4.176 30.668 5.574 46.195 5.918 19.211.422 38.227-1.492 55.55-11.121 1.31-.723 2.513-1.63 3.985-2.66.524-.399.852-.457 1.434-.301 4.648 10.77 5.863 22.058 7.008 33.379 1.687 16.672 1.03 33.308-1.016 49.87-.785 6.329-2.203 12.692-4.973 18.571-1.472 3.129-3.445 5.875-7.566 6.512-2.43 1.289-4.68 1.219-7.309.539-2.726-3.082-1.156-6.309-.57-9.211.926-4.574 2.156-9.129 3.746-13.555 5.574-15.488 5.934-31.605 5.629-47.777-.078-4.156-2.105-5.223-6.156-3.191-7.93 3.976-16.113 7.199-24.668 9.535-1.88.511-3.746.93-6.031.945-1.688-.3-2.399-1.324-2.95-2.434-1.964-3.933-4.23-7.656-7.18-10.949-.535-.597-1.538-1.43.071-2.383 5.55-.039 10.758.008 15.96-.054-7.534.066-15.151.855-22.577.437-10.024-.566-20.04.207-27.461-.41 6.215.004 15-.004 24.14.02 2.114.785 1.66 2.285 1.36 3.562-2.004 8.441-3.457 17.008-5.856 25.711-2.039 11.324-4.761 22.152-7.246 33.016-2.61 11.41-5.02 22.863-7.75 34.246-1.925 8.039-3.793 16.086-5.488 24.172-.316 1.484-.867 2.91-2.184 4.308-2.66 1.211-5.086 1.078-7.851.363-1.485-1.07-1.383-2.32-1.184-3.566 1.762-10.89 3-21.855 4.852-32.73 2.703-15.93 5.969-31.747 9.242-47.563.867-4.195 1.977-8.324 2.84-12.52 1.445-7.003.129-9.503-6.813-11.75-8.683-2.804-17.226-5.98-25.609-9.585-1.133-.489-2.375-.782-3.453-2.043-.074-9.57 1.847-18.79 1.61-28.496Zm0 0" style="stroke:none;fill-rule:nonzero;fill:#5f6b00;fill-opacity:1"/><path d="M225.191 116.887c-2.859-4.86-3.671-10.18-5.652-15.063-2.738-6.754-5.41-13.578-10.457-19.578 5.465-1.324 9.418 1.676 14.078 2.738.317-.062.274-.011.242-.011.25.507.786.777 1.309 1.441 3.2 6.094 8.11 5.773 13.68 4.867 17.972-2.918 30.144-13.351 38.992-28.668 4.457-7.718 9.14-15.336 14.402-22.562 3.02-4.149 6.899-6.52 12.492-6.395 3.832-1.222 6.344.75 9.055 2.895 1.621 7.113-.707 13.41-2.707 19.695-4.172 13.078-10.742 24.984-20.246 34.8-11.555 11.93-25.61 19.954-42.121 23.29-5.82 1.176-11.719 1.82-17.531 3.004-1.762.355-3.555.656-5.536-.453Zm0 0" style="stroke:none;fill-rule:nonzero;fill:#579aa8;fill-opacity:1"/><path d="M224.934 117.035c17.656-2.316 35.004-4.926 50.437-15.086 15.582-10.258 25.762-24.394 32.512-41.375 2.898-7.293 5.324-14.73 5.031-23.129 1.715-1.449 2.59-.218 3.656 1.145 5.95 6.344 5.996 13.351 3.703 20.883-3.441 11.304-7.921 22.136-14.175 32.175-11.188 17.957-26.098 31.473-46.399 38.465-.902.313-1.719.867-2.863 1.399-2.875-.227-4.836 1.851-7.402 1.89-1.532.02-.735 1.371-.567 2.246 2.426 12.364 2.524 24.852.77 37.223-.992 6.969-2.856 13.945-6.301 20.617-.734.586-1.18.297-1.656-.41-.692-7.93-2.715-15.332-4.293-22.808-2.36-11.2-4.907-22.364-7.508-33.512-1.512-6.496-3.281-12.93-4.945-19.723Zm0 0" style="stroke:none;fill-rule:nonzero;fill:#3e6d77;fill-opacity:1"/><path d="M145.934 106.566c-.004 5.168-2.332 9.91-3.657 14.895-2.707 10.172-4.386 20.504-6.14 31.191-.117.606-.258.828-.594 1.157-.133.148-.129.129-.125.125-.527 1.964-1.094 3.953-1.961 5.777-8.695 18.238-14.504 37.547-21.07 56.578-3.067 8.895-7.864 16.703-15.86 22.16-1.398.95-2.66 2.043-4.78 1.086-6.048-3.883-7.548-8.02-4.977-15.418 6.777-19.492 12.101-39.476 19.878-58.61 3.332-8.195 7.54-16.038 11.395-24.323 4.746-6.399 8.187-13.352 13.039-19.375 4.418-5.496 8.977-10.809 14.852-15.243Zm0 0" style="stroke:none;fill-rule:nonzero;fill:#579aa8;fill-opacity:1"/><path d="M238.73 356.703c2.645.313 4.958.395 7.66.527.31 3.641.282 7.23.102 10.81-.086 1.78.485 2.46 2.332 2.362a93.394 93.394 0 0 1 8.688-.05c4.847.199 7.758 2.996 8.09 7.562.312 4.309-2.54 7.914-7.18 8.414-3.961.43-7.98.32-12.36.508a3614.52 3614.52 0 0 1-29.828.078c-2.828-.46-3.07-2.316-3.226-4.305-.309-3.949.469-7.843.52-12.148.995-4.617-.657-9.063 1.304-13.54 8.031-1.823 15.797-1.589 23.898-.218Zm0 0" style="stroke:none;fill-rule:nonzero;fill:#254147;fill-opacity:1"/><path d="M211.79 73.367c-7.259.418-13.622-1.789-19.638-5.14-2.285-1.27-4.68-1.442-7.527-1.356-.344-6.219-.332-12.426-.297-18.629.031-6.476 3.082-9.57 9.496-9.605 5.102-.028 10.207-.028 15.309.015 1.449.016 2.48-.132 3.3-1.699 2.36-4.539 5.438-6.082 8.52-4.644 3.004 1.402 5.266 7.293 3.738 10.742-1.351 3.058-3.39 5.687-7.636 5.648-3.215-.164-4.496 1.09-4.29 4.074.16 2.25-.183 4.38-2.757 5.38-1.028.398-1.613 1.44-.453 2.195 5.375 3.449 3.062 8.293 2.234 13.02Zm0 0" style="stroke:none;fill-rule:nonzero;fill:#3b3a35;fill-opacity:1"/><path d="M254.043 248.809c-.504.199-.824.207-1.383.191-1.656-8.809-3.043-17.598-4.512-26.375a264.35 264.35 0 0 0-2.32-12.078c-.324-1.512-.68-2.863.242-4.336 6.29-10.035 9.422-21.188 11.727-32.934 2.836 10.582 4.113 21.606 5.285 32.645.621 5.863 1.84 11.633 1.773 17.621-.109 9.922-3.507 18.227-10.812 25.266Zm0 0" style="stroke:none;fill-rule:nonzero;fill:#3e6d77;fill-opacity:1"/><path d="M316.918 38.648c-1.293-.37-2.375-.953-3.723-1.558-2.484-1.934-5.257-2.559-8.261-3.422 2.53-9.875 5.46-19.664 9.586-29.043.445-1.004 1.078-1.922 1.464-2.938.536-1.41 1.43-2.066 2.848-1.464 1.172.492 1.438 1.53 1.219 2.77-.266 1.48-.102 3.116-.676 4.448-2.348 5.465-2.297 9.48 4.137 12.508 3.722 1.746 3.648 5.524.992 9.192-2.317 3.195-4.906 6.199-7.586 9.507ZM211.641 73.816c-.059-2.734 0-5.191.015-7.652.012-2.121.602-4.555-3.011-4.344-1.31.075-1.598-1.414-1.575-2.476.028-1.059.34-2.446 1.739-2.348 3.3.219 2.933-1.953 2.87-4.02-.03-.82-.027-1.64.008-2.46.18-3.684 1.125-4.121 4.801-1.953.23 9.273.211 18.382.16 27.874-1.835-.203-3.492-1.062-5.007-2.62Zm0 0" style="stroke:none;fill-rule:nonzero;fill:#dbb385;fill-opacity:1"/><path d="M90.113 495.953c-1.293-1.262-2.883-2.285-.773-4.008 1.156-.941 2.344-1.277 3.148-.129.883 1.266 1.676 2.985-.875 4.125-.531.192-.883.137-1.5.012Zm-10.773.434c-.942-1.465-2.133-2.922-.25-4.25 1.176-.828 2.433-.551 3.32.425 1.219 1.333.664 2.485-.82 3.625-.7.274-1.32.266-2.25.2Zm0 0" style="stroke:none;fill-rule:nonzero;fill:#5e5c54;fill-opacity:1"/><path d="M25.465 359.762c1.55.597 3.023 1.277 2.715 3.11-.22 1.308-1.34 1.534-2.817 1.39-.43-1.492-2.047-3.012.102-4.5Zm9.02-50.008c2.046 1.832 2.831 3.586-.637 4.828-1.235-1.734-1.63-3.414.636-4.828Zm-7.2 40.95c-.21 1.581 2.371 3.542-.426 5.269-3.488-1.95-1.023-3.461.426-5.27Zm1.953-13.626c1.2.125 2.262.207 2.27 1.492.008 1.137-.844 1.598-2.106 1.868-1.632-1.04-1.492-2.188-.164-3.36Zm31.09-91.871c.234 1.148.969 2.563-.703 3.04-1.227.343-2.059-.165-2.04-1.884.599-1.265 1.556-1.18 2.743-1.156ZM224.895 86.363c-.497-.117-.977-.511-1.493-1.148.88-.422 1.348.012 1.493 1.148Zm0 0" style="stroke:none;fill-rule:nonzero;fill:#ccc7b5;fill-opacity:1"/><path d="M136.316 284.46c9.149 2.97 18.246 6.294 27.344 9.61.774.285 1.547.567 2.332.785 7.403 2.004 9.278 5.313 7.696 12.653-3.692 17.113-7.532 34.203-10.715 51.41-2.461 13.309-4.008 26.781-5.989 40.18-.18 1.21-.543 2.406-.824 3.933-.531 1.04-1.293 1.473-2.113 1.492-7.672.207-15.36.989-23.356-.644-2.3-8.305-2.414-16.555-2.16-24.781.594-19.286 2.094-38.508 4.11-57.711 1.285-12.168 2.28-24.39 3.675-36.926Zm0 0" style="stroke:none;fill-rule:nonzero;fill:#7c8c01;fill-opacity:1"/><path d="M130.32 403.992c8.368-.375 16.72-.422 25.45-.55 2.87-.016 5.363.05 8.222.101 2.098 1.824.848 3.437-.215 5.371-.933 3.73-1.726 7.164-2.394 10.617-.317 1.633 1.066 1.266 1.902 1.278 3.309.046 6.613-.02 9.922.023 4.04.043 7.11 2.29 7.715 5.887.656 3.879-.785 7.015-4.176 9.062-1.781 1.074-3.8 1.492-5.926 1.489-12.816-.024-25.632-.008-38.449.007-1.539.004-3.027-.129-4.512-1.375-1.125-1.59-.98-3.218-1.546-4.93-.407-4.288 1.89-7.913 1.574-12.261.773-5.035 1.593-9.715 2.433-14.719Zm0 0" style="stroke:none;fill-rule:nonzero;fill:#254147;fill-opacity:1"/><path d="M91.563 239.559c4.937-1.133 8.144-4.77 11.308-8.293 4.86-5.407 7.66-12.036 9.836-18.825 6.36-19.796 12.805-39.55 22.48-58.34a734.298 734.298 0 0 1-3.007 24.977 2692.685 2692.685 0 0 1-4.254 29.57c-.422 2.832-1.078 5.63-1.645 8.782-3.703 4.734-5.61 10.156-8.539 14.988-1.695 2.797-3.379 5.605-5.09 8.39-1.691 2.75-4.097 4.317-7.722 4.38-5.114.632-8.325-2.872-12.438-4.762-.449-.348-.66-.496-.93-.867Zm0 0" style="stroke:none;fill-rule:nonzero;fill:#3e6d77;fill-opacity:1"/><path d="M92.172 240.43c4.371.566 7.797 3.355 12.137 4.715.593 3.906.945 7.738 1.183 11.582.098 1.539-.12 3.16-1.719 3.906-1.363.64-2.308-.25-3.132-1.305-1.149-1.465-2.02-.562-2.364.582-.433 1.442-1.488 2.324-2.437 3.254-3.238 3.207-7.664 2.293-9.164-2.047-2.75-7.937.172-14.52 5.496-20.687Zm0 0" style="stroke:none;fill-rule:nonzero;fill:#dbb385;fill-opacity:1"/><path d="M117.016 418.328c.265 1.555-1.59 2.418-.778 4.227.57 1.273-.21 2.422-1.441 3.062-1.223.633-2.113-.055-2.867-.933-1.008-1.184-.61-2.254.277-3.325.332-.398.508-.93.746-1.707.559-2.964 2.192-2.125 4.063-1.324Zm-9.54 2.594c.419 3.812-4.511 7.258-7.726 5.273 1.957-2.746 3.898-5.187 7.727-5.273Zm0 0" style="stroke:none;fill-rule:nonzero;fill:#5e5c54;fill-opacity:1"/><path d="M71.867 275.773c.106-2.949 3.094-4.921 5.613-3.867.82.344 1.426.918 1.352 1.832-.094 1.121-1.062 1.383-1.777.926-2.07-1.3-3.114 1.453-5.188 1.11Zm-1.062-10.277c-.64-2.027 2.25-5.535 4-5.215.449.086.918.535 1.21.934.368.508.137 1.101-.34 1.418-1.507 1.02-3.062 1.98-4.87 2.863Zm-17.856 56.762c-.777 1.566-1.347 2.875-1.414 4.465-.05 1.261-1.172 1.48-2.144 1.113-1.168-.441-.778-1.52-.125-1.899 1.66-.972-.895-5.753 3.683-3.68Zm11.102-59.176c-2.031-1.164-1.934-2.402-.266-3.441.985-.614 2.36-.582 2.863.52.977 2.144-1.23 2.179-2.597 2.921Zm0 0" style="stroke:none;fill-rule:nonzero;fill:#ccc7b5;fill-opacity:1"/><path d="M67.309 480.602c2.617-.364 3.25 1.027 2.59 2.87-.672 1.88-2.122 1.755-3.829.442-.386-1.383-.195-2.488 1.239-3.312Zm0 0" style="stroke:none;fill-rule:nonzero;fill:#5e5c54;fill-opacity:1"/><path d="M34.86 365.156c-1.067 1.25-2.13 2.352-3.438.781-.742-.898-.387-1.94.515-2.472 1.551-.918 2.583-.332 2.918 1.691Zm4.374 14.18c-1.515.898-2.761 1.05-3-.738-.136-1.055.493-2.414 1.797-2.297 1.633.14 2.469 1.16 1.203 3.035Zm17.817-117.117c-1.68.242-2.867-.055-2.457-1.828.195-.864 1.113-1.297 1.988-1.004 1.48.496 2.066 1.375.469 2.832ZM29.5 374.688c2.02-.157 2.406.785 1.898 2.199-.253.699-1.046.89-1.68.66-1.609-.602-1.386-1.656-.218-2.86ZM71.555 275.8c-.157 1.328.023 2.894-1.899 3.11-.844.089-1.23-.505-1.265-1.266-.075-1.864 1.27-1.786 2.855-1.813.324-.02.313-.027.309-.031Zm-4.563 3.27c-.367 1.116-.39 2.616-1.984 1.898-.692-.313-1.61-1.078-1.192-1.828.727-1.286 1.98-.938 3.176-.07Zm-11.015 16.023c1.613-.094 2.503.324 1.875 1.836-.332.797-1.125 1.379-1.961.922-1.25-.684-.996-1.72.086-2.758Zm-13.864 76.465c1.07 1.03 1.688 1.976.117 2.636-.742.313-1.69.243-1.933-.797-.281-1.207-.09-2.207 1.816-1.84ZM67.121 250.8c-1.105 1.023-2.129 1.262-2.77-.07-.359-.75-.277-1.735.739-1.981 1.363-.32 2.004.48 2.031 2.05Zm-4.992 64c.351 1.012 1.98 2.242.023 3.066-.632.266-1.527.211-1.824-.488-.586-1.387-.273-2.445 1.8-2.578Zm-2.469-39.457c-1.101 1.375-2.015 1.265-2.687.011-.442-.82-.27-1.652.765-1.886 1.239-.278 2.196.011 1.922 1.875Zm-8.797 17.578c-.91-1.086-1.218-2.11.121-2.742.672-.32 1.41.074 1.688.738.605 1.441-.317 1.91-1.809 2.004Zm14.617-.211c-1.628.008-2.285-.738-1.855-2.063.242-.746 1.129-.8 1.762-.566 1.55.57 1.164 1.527.093 2.629Zm8.551 8.676c.965 1.648.106 2.21-1.125 2.383-.832.113-1.207-.52-1.203-1.286.016-1.523.762-1.925 2.328-1.097ZM43.88 360.633c-1.645.062-2.297-.703-1.8-1.988.35-.915 1.452-.86 2.108-.47 1.126.669.688 1.563-.308 2.458Zm6.8-17.48c-.706 1.882-1.812 1.773-2.84.745-.484-.488-.226-1.328.333-1.824 1.223-1.09 1.918-.328 2.508 1.078Zm25.712-55.59c-.512 1.875-1.47 1.605-2.446.792-.597-.5-.66-1.222-.086-1.777 1.172-1.121 1.918-.43 2.532.985ZM37.45 338.098c2.184.414 1.309 1.488.774 2.359-.438.723-1.145.68-1.649.059-.804-.993-.96-1.938.875-2.418Zm5.239 26.613c1.855.586 1.554 1.55.66 2.465-.547.562-1.262.469-1.739-.211-.777-1.098-.18-1.746 1.078-2.254Zm5.34-65.274c1.124.918 1.109 1.68.105 2.36-.7.476-1.371.144-1.676-.438-.707-1.347.066-1.902 1.57-1.921Zm11.117-17.66c-.864-1.804.304-1.718 1.238-1.652.789.055 1.234.652.945 1.418-.394 1.047-1.207.816-2.183.234Zm4.937 4.973c-.89-1.828.313-1.742 1.246-1.688.793.051 1.25.66.965 1.438-.39 1.074-1.215.824-2.211.25Zm-9.848 16.66c1.91.317 1.66 1.242.922 2.246-.336.465-.965.7-1.347.27-.692-.781-.668-1.676.425-2.516Zm-9.367 4.297c.067 1.176-.086 2.004-1.246 1.895-.894-.086-1.16-.817-.883-1.504.36-.907.922-1.864 2.13-.391Zm17.574 7.063c.13-.985-.164-2.27 1.446-2.262.273 0 .726.402.797.683.3 1.364-.66 1.48-1.95 1.547-.3.02-.297.028-.293.032Zm217.293 90.18c.414 1.167 1.641 1.23 1.825 2.382.113.703.293 1.313-.141 1.93-.445.62-1.008.93-1.75.539-2.059-1.074-2.293-3.356-3.258-5.13-.422-.773.32-1.667 1.192-1.847 1.343-.277 2.05.457 2.132 2.125Zm27.91-14.45c.594-1.293 2.09-1.438 1.981-3.11-.086-1.363 1.313-1.609 2.465-1.16.941.368 1.105 1.801.71 2.051-1.714 1.094-1.245 3.864-3.398 4.375-1.27.313-2.109-.379-1.757-2.156Zm-23.761 7.145c-1.649-1.004-3.074-2.004-2.414-3.97.469-1.382 1.742-1.027 2.793-.945 1.148.082 1.64 1.032 1.883 1.91.44 1.59-.461 2.54-2.262 3.005Zm-7.516 21.039c1.153-1.723 2.418-2.122 3.684-.586.754.91.375 2.082-.504 2.472-1.461.657-3.043.778-3.18-1.886Zm21.688-43.711c1.925.386 2.379 1.511 1.523 2.93-.82 1.367-1.973.593-2.703-.11-1.445-1.387-.004-2.008 1.18-2.82Zm-27.016 89.836c-.703 1.097-1.117 2.84-2.7 1.433-.534-.476-1.144-1.27-.386-2.16 1.277-1.496 2.133-.352 3.086.727Zm-24.18 7.046c-.941-.96-2.449-1.656-.703-2.91.703-.507 1.446-.828 2.074.051 1.079 1.524.286 2.387-1.37 2.86Zm-15.023 18.2c1.219-1.047 2.355-1.73 2.984.066.352 1.012.38 2.39-.996 2.633-1.699.305-2.441-.715-1.988-2.7Zm68.582-75.012c1.312.664 3.16.992 1.64 2.824-.605.73-1.413 1.406-2.367.453-1.226-1.238-1.011-2.343.727-3.277Zm-8.707 2.324c.43-1.773 1.402-2.543 2.934-1.578 1.332.844.69 2.04-.04 2.805-1.453 1.531-2.015-.137-2.894-1.227Zm19.16-45.941c-2.027.594-3.168.012-2.926-1.996.125-1.047 1.075-1.754 2.035-1.52 1.848.45 1.391 1.942.891 3.516Zm-19.488 34.402c2.187.23 2.531 1.27 1.629 2.809-.532.906-1.43.855-2.075.297-1.132-.98-1.945-2.125.446-3.106Zm-1.031-32.547c-2.32-1.113-1.532-2.43-.395-3.504.785-.742 1.473.094 1.945.707 1.293 1.684.125 2.325-1.55 2.797Zm14.187-.285c1.977.774 2.133 2.016 1.238 3.375-.515.797-1.668.89-2.199.297-1.207-1.332-1.164-2.723.961-3.672Zm6.816 8.543c-2.03.5-2.914-.23-2.347-2.023.191-.606.847-1.77 1.797-1.149.98.633 2.847 1.418.55 3.172Zm-7.675 19.418c-1.418-.824-2.29-1.863-.98-3 .823-.715 2.238-.777 2.843.438.703 1.41.008 2.347-1.863 2.562Zm-55.11 91.816c-2.613.372-2.261-1.214-2-2.543.2-.984 1.008-1.257 1.875-.73 1.387.848 2.09 1.852.125 3.273Zm27.055-68.168c1.79.192 2.918.899 2.184 2.633-.391.918-1.489 1.563-2.36.961-1.355-.937-1.125-2.265.176-3.594Zm-10.898 4.688c-2.48-.852-1.649-2.113-.625-3.078.68-.645 1.785-.809 2.34.367.68 1.453.667 2.66-1.715 2.711Zm14.332 19.91c.726-1.16 1.336-2.285 2.402-.61.488.77.762 1.54-.191 2.067-1.262.707-2.028.184-2.211-1.457Zm-8.516-1.148c1.02.75 2.102 1.398 1.004 2.664-.496.57-1.078.82-1.735.25-1.402-1.223-.617-2.106.731-2.914Zm-3.023 11.527c.523 1.559.562 2.703-1.364 2.566-.812-.054-1.176-.453-1.226-1.253-.121-1.961 1.07-1.829 2.59-1.313Zm23.285-76.398c-1.848.82-2.926.601-2.852-1.43.035-.938.457-1.602 1.43-1.574 1.902.054 2.207 1.18 1.422 3.004ZM271.98 438.91c1.457-.66 2.344-.308 2.477 1.082.09.95-.562 1.492-1.488 1.43-1.57-.11-1.512-1.16-.989-2.512Zm11.368-13.012c-.278-1.418-.993-3.234 1.449-3.355.976-.05 1.465.457 1.547 1.465.187 2.207-1.262 2.008-2.996 1.89Zm10.46-27.496c-1.41 1.25-2.675 1.52-3.308-.328-.27-.793.14-1.668 1.09-1.93 1.633-.449 2.262.418 2.219 2.258Zm2.876-42.574c.625 2.063-.133 2.848-1.883 2.383-1.043-.281-1.453-1.25-.863-2.238.628-1.063 1.414-2.266 2.746-.145Zm-61.063 119.04c-1.082-1.774-.578-2.563 1.137-2.634 1.023-.039 1.523.5 1.484 1.5-.062 1.723-.84 2.23-2.62 1.133Zm13.05 4.46c.563 1.629.392 2.758-1.378 2.754-.777-.004-1.234-.734-1.293-1.379-.176-1.937 1.152-1.8 2.672-1.375Zm11.825 6.008c-1.46-.02-2.621-.16-1.824-1.8.371-.766 1.144-1.442 1.941-.974 1.14.676.89 1.747-.117 2.774Zm41.59-102.5c.934 1.297 1.687 2.625-.266 3.262-.683.222-1.832.25-2.086-.63-.46-1.59.332-2.554 2.352-2.632Zm-19.106 43.008c-.152 1.164.942 2.816-1.097 3.281-1.051.238-1.91-.445-2.098-1.457-.422-2.254 1.274-1.84 2.91-1.816.34.039.305.007.285-.008Zm-20.773 50.36c1.356-.544 2.41-.704 2.39 1.023-.007.683-.038 1.445-.952 1.449-1.508.004-2.332-.613-1.438-2.473Zm-1.906-6.071c-1.793.219-2.207-.707-1.922-1.953.246-1.09 1.3-.996 2-.692 1.437.625 1.066 1.59-.078 2.645Zm0 0" style="stroke:none;fill-rule:nonzero;fill:#ccc7b5;fill-opacity:1"/><path d="M163.86 409.152c-.012-1.625.257-3.304.511-5.304 3.625-15.16 6.945-30.075 10.172-45.012 2.906-13.469 6.312-26.828 9.445-40.254.778-3.316 1.367-6.68 2.121-10.367 5.707-1.328 9.176 1.992 11.828 6.105 3.754 5.813 6.18 12.297 8.051 18.938 3.387 12.015 7.61 23.844 8.489 36.758.976 4.23-.836 8.058-.368 11.96.192 1.575-.363 3.31 1.536 4.657-4.973 1.812-10.403 1.469-15.7 2.457-10.36 1.933-19.289 6.332-27.414 12.715-2.906 2.289-5.601 4.855-8.672 7.347Zm-76.622 59.715c.38-2.129 1.48-3.066 3.242-2.234 1.602.754.844 2.285.82 3.633-.062 3.918-3.632 4.777-5.827 6.722-1.461 1.293-2.172-1.304-3.68-1.633-2.996-.648-6.324-6.14-5.871-9.05.168-1.047.473-2.457 2.285-2.352 2.14.121 2.773 1.707 2.273 3.067-1.39 3.773 2.461 3.574 3.825 5 .687.714 2.789-.91 2.933-3.153Zm-17.383 6.715c1.72.078 3.672-.5 4.696 1.625.547 1.137 1.187.48 1.969.25 1.66-.504 3.12-.156 3.28 1.898.083 1.106.567 2.422-1.179 3.07-1.879.696-3.148-.085-3.566-1.6-.457-1.673-.368-1.505-2.051-.84-3.512 1.378-3.168-1.54-3.09-4.102.004-.352-.047-.324-.059-.301Zm56.106-44.832c2.914.605 1.914 2.586 1.785 4.547-2.238.508-4.855-1.527-6.387 1.828-.343.762-1.445.191-2.07-.46-.75-.786-1.68-1.45-1.047-2.778.668-1.403 2.195-2.426 3.23-2.016 1.91.758 2.915-.308 4.489-1.121Zm-17.883-3.242c2.16.469 2.828 1.652 1.902 3.289-.675 1.203-1.25 2.3-1.355 3.734-.082 1.164-1.074 1.89-2.328 1.95-.918.042-1.586-.477-2.02-1.22-.55-.945-.504-2.245.414-2.55 2.692-.887-.242-4.871 3.387-5.203Zm-3.344 49.773c-.086 3.117-3.691 2.426-4.468 4.805-.176.535-2.614.43-3.496-.988-.934-1.496.027-2.274 1.265-2.758.91-.356 1.313-.918 1.867-1.754 1.555-2.34 3.461-3.008 4.832.695Zm-19.578-22.57c.977-3.324 5.133-2.61 6.114-5.602.074-.234 1.492-.078 1.921.91.375.868 1.305 2.126.387 2.543-2.453 1.118-3.914 4.637-7.7 3.067-.444-.3-.636-.442-.722-.918Zm14.653 29.922c1.312-1.125 3.457-1.445 3.64-.309.344 2.133 2.934 3.512 1.89 5.875-.343.774-.944 1.754-2.109 1.637-1-.098-2.261-.649-2.023-1.598.535-2.148-1.758-3.32-1.398-5.605Zm14.336 1.465c.68 1.718.976 3.195-.68 4.132-.883.5-1.817.415-2.625-.27-.88-.745-1.488-1.687-.996-2.831.824-1.922 2.39-1.848 4.3-1.031ZM96 458.949c-1.64 1.516-2.992 1.168-4.164-.07-.719-.758-.684-1.98-.137-2.645.778-.945 1.985-1.05 3.297-.691 2.035.555 1.43 1.926 1.004 3.406Zm.336 9.988c-1.922.098-3.07-.5-3.184-2.187-.101-1.438.91-2.258 2.125-2.672 1.012-.344 2.012.156 2.438 1.05.691 1.454.781 2.93-1.38 3.81Zm6.086-10.98c-.414-2.2.289-3.559 2.266-3.754 1.292-.129 1.925 1.074 2.14 2.117.14.696-.11 1.836-.61 2.22-1.156.882-2.511.812-3.796-.583Zm0 0" style="stroke:none;fill-rule:nonzero;fill:#5e5c54;fill-opacity:1"/><path d="M85 454.563c.352-.016.445.156.582.617.016.968.106 1.675-.05 2.328-.325 1.375-1.286 2.144-2.704 1.969-.988-.125-1.832-.727-2.008-1.82-.234-1.462.524-2.376 1.887-2.735.648-.176 1.352-.121 2.293-.36Zm24.254 15.964c-1.73-1.824-2.445-3.64.172-4.808 1.25-.555 2.59.246 2.761 1.672.204 1.761-.414 3.234-2.933 3.136Zm-22.442 16.567c-1.48-.121-3.21 1.015-3.601-1.07-.215-1.172-.188-2.38 1.223-3.118 1.05-.543 1.718-.203 2.543.39 1.664 1.208 1.375 2.407-.165 3.798Zm4.747-5.742c2.515.718 3.136 2.132 1.722 3.984-.894 1.168-2.34 1.02-3.246 0-1.605-1.805-1.023-3.2 1.524-3.984Zm19.754 1.152c-2.227 1.125-3.7.66-4.11-1.668-.285-1.61.91-2.414 2.195-2.313 2.258.176 3.11 1.512 1.915 3.98Zm3.39-23.492c2.05.18 2.692 1.308 2.254 2.789-.273.926-.863 2.039-2.2 2.031-1.312-.008-2-.992-2.245-1.988-.348-1.422.12-2.64 2.191-2.832Zm-2.96-9.75c2.41-.453 3.886.25 3.433 2.593-.25 1.313-1.43 2.723-2.969 1.915-1.766-.938-2.246-2.606-.465-4.508Zm-19.524-12.504c.965-1.86 1.84-3.738 3.992-1.746 1.21 1.129 1.156 2.824.047 3.617-1.692 1.21-3.371.734-4.04-1.871Zm10.55 7.191c-2.57.52-3.687-.347-3.242-2.719.27-1.457 1.383-2.3 2.637-1.656 1.738.89 2.59 2.41.606 4.375Zm7.676-1.515c1.313-2.043 2.84-2.582 4.203-.7.836 1.153.633 2.72-.843 3.485-2.61 1.347-2.785-.953-3.36-2.785Zm-9.285 6.082c-1.836.898-3.664 1.578-4.613-.633-.73-1.715.777-2.664 2.035-2.871 2.344-.39 3.129 1.031 2.578 3.504Zm-34.496 44.086c-.133-1.586-.836-3.153 1.004-3.668 1.039-.293 2.125-.157 2.82.98.696 1.121.317 1.984-.379 2.934-1.109 1.527-2.191 1.172-3.445-.246Zm48.914-58.5c-1.203 2.078-2.863 2.433-4 .87-.754-1.034-.887-3.117.988-3.82 2.317-.859 2.594 1.13 3.012 2.95Zm0 0" style="stroke:none;fill-rule:nonzero;fill:#5e5c54;fill-opacity:1"/><path d="M147.36 217.031c-.372-10.91-.505-21.535-.528-32.156-.027-16.566.023-33.133.106-50.117.351-.387.699-.39.851-.203 5.832 7.246 14.05 9.664 22.969 11.37 2.015 1.966 2.414 4.614 4.148 6.415 4.313 4.48 11.028 3.582 14.867-1.934 1.102-1.586 1.465-3.566 3.028-5.219 3.949-.945 7.558-2.257 11.664-1.16 1.527 3.203 1.015 6.211.62 9.203-2.218 16.739-1.968 33.403 1.364 49.993.844 4.199 1.278 8.418-.3 12.933-2.118 1.496-4.227 1.281-6.274 1.285-10.324.032-20.652.13-30.973-.035-5.254-.082-10.406 1.098-15.652.871-1.902-.082-3.871.184-5.89-1.246Zm0 0" style="stroke:none;fill-rule:nonzero;fill:#e7ff34;fill-opacity:1"/><path d="M171.176 146.078c-9.555-.598-18.336-2.453-23.918-11.527-1.004-8.469-.688-16.246 6.957-21.848 3.18-2.332 6.68-2.742 10.566-3.473 1.41-.925 2.656-1.296 4.43-1.25 8.512-.222 16.629-.085 25.133-.046 1.71.07 3.05.007 4.523 1.058 3.059 1.008 5.942 1.371 8.598 3.153 1.168 1.984 1.52 3.894 1.254 5.832-1.09 7.898-1.29 15.894-2.762 24.12-.34.829-.668 1.204-1.48 1.532-3.829 1.328-7.473 1.644-11.418 2.25-1.696-.926-1.918-2.512-2.543-3.856-2.07-4.464-4.657-6.125-9.246-6.093-4.54.03-6.895 2.808-8.586 6.515-.508 1.114-.555 2.403-1.508 3.633Zm-24.153 71.016c19.399-.547 38.754-.742 58.497-1 3.476-1.906 6.667-1.547 10.183-.203.852 10.714-9.195 19.175-18.469 18.613-10.324-.625-20.738-.59-31.07-.027-11.23.613-18.758-7.832-19.14-17.383Zm0 0" style="stroke:none;fill-rule:nonzero;fill:#f1eee5;fill-opacity:1"/><path d="M216.18 215.887c-3.297.281-6.41.273-9.903.207.309-8.364-2.082-16.34-2.933-24.48-1.332-12.72-1.48-25.454.418-38.122.457-3.035.312-6.008.375-9.418.09-.66.293-.824.761-.965 3.774-2.996 7.356-5.925 11-9.172.395.481.59 1.02.59 1.56-.023 26.698-.074 53.401-.308 80.39Zm0 0" style="stroke:none;fill-rule:nonzero;fill:#a0b501;fill-opacity:1"/><path d="M243.8 200.953c.368 7.547.49 14.856.403 22.164-.07 5.723-3.781 9.68-8.64 9.559-4.696-.113-8.063-3.961-8.13-9.594-.081-7.035.008-14.074.075-21.492 5.289-2.684 10.613-2.012 16.293-.637Zm0 0" style="stroke:none;fill-rule:nonzero;fill:#e1ff01;fill-opacity:1"/><path d="M216.266 133.52c-2.676 4.46-6.293 7.394-10.887 9.53.059-10.003 2.238-19.847 2.223-30.26 8.214 4.308 9.238 12.015 8.664 20.73Zm0 0" style="stroke:none;fill-rule:nonzero;fill:#ccc7b5;fill-opacity:1"/><path d="M199.188 108.871c-1.192.406-2.368.434-3.887.367-1.832-2.718-1.367-5.734-1.996-8.539-1.457-6.531-5.66-8.988-11.903-6.648-4.668 1.754-7.777 5.05-9.539 9.71-.629 1.669-1.086 3.427-2.242 5.2-1.398.285-2.605.332-4.164.293 1.29-8.879 5.074-16.387 13.84-19.758 8.226-3.164 16.808-1.11 18.656 8.836.633 3.375 1.402 6.707 1.234 10.54Zm0 0" style="stroke:none;fill-rule:nonzero;fill:#e1ff01;fill-opacity:1"/><path d="M244.207 200.832c-5.34.363-10.617.375-16.266.383-.75-7.606-.074-8.313 7.5-8.328 1.79-.008 3.582-.016 5.766-.051.781.23 1.172.5 1.785.84 1.637 2.16 1.301 4.508 1.215 7.156Zm0 0" style="stroke:none;fill-rule:nonzero;fill:#f1eee5;fill-opacity:1"/><path d="M135.594 153.86c-.168-.192-.047-.434.336-.743.062.137-.04.39-.336.742Zm0 0" style="stroke:none;fill-rule:nonzero;fill:#122a7f;fill-opacity:1"/><path d="M239.07 356.605c-7.703.38-15.402.415-23.468.461-2.184-1.414-1.766-3.464-1.836-5.34-.305-8.269 1.043-16.476.882-24.761-.187-9.684-.585-19.27-3.648-28.559-.39-1.191-.578-2.41-.102-3.992 8.004-2.281 15.735-4.46 23.11-7.723 2.996-1.324 5.902-2.851 8.847-4.28 4.293-2.09 6.786-.474 6.997 4.339.515 11.59-.426 23.125-1.844 34.59-.649 5.23-2.711 10.297-4.41 15.375-2.118 6.332-3.793 12.851-4.528 19.89Zm0 0" style="stroke:none;fill-rule:nonzero;fill:#7c8c01;fill-opacity:1"/><path d="M210.914 293.832c5.684 15.945 5.55 32.113 4.367 48.402-.336 4.668-.152 9.38-.133 14.454-.082 4.601-.238 8.82-.57 13.347-2.805-13.164-6.555-26.355-10.484-39.476a71.804 71.804 0 0 0-7.004-15.907c-2.313-3.898-6.254-5.37-10.598-6.71 1.832-9.387 3.965-18.704 6.102-28.34 2.586-1.5 5.289-.649 8.238-.54 4.973 4.032 7.07 9.524 10.082 14.77Zm0 0" style="stroke:none;fill-rule:nonzero;fill:#fefefe;fill-opacity:1"/><path d="M201.496 279.246c-2.953.02-5.543-.039-8.52-.031-10.421.058-20.468.058-30.511.058 0-.27.004-.535.004-.808h58.566c.004.234.004.465.012.7-6.399.003-12.793.003-19.55.081Zm-30.508-132.672c.426-6.746 4.153-11.441 8.98-11.707 7.45-.414 10.794 2.328 12.684 10.684-.855 3.844-2.324 6.996-5.48 9.097-5.992 3.997-14.379.657-16.184-8.074Zm0 0" style="stroke:none;fill-rule:nonzero;fill:#5e5c54;fill-opacity:1"/><path d="M169.809 109.27c.273-8.375 5.59-14.883 13.472-17.032 4.903-1.34 10.09 1.735 10.871 6.739.485 3.101 1.23 6.226.825 9.8-8.278.434-16.532.5-25.168.493Zm0 0" style="stroke:none;fill-rule:nonzero;fill:#111f22;fill-opacity:1"/></svg>