<svg xmlns="http://www.w3.org/2000/svg" width="1106" height="1279" fill="none"><path fill="#E1FF01" d="m384.614 731.697-63.139 47.172 65.316 498.581h205.384c-5.564-59.03-19.159-190.43-29.03-243.85-9.87-53.411-90.717-227.394-129.907-307.709l-48.624 5.806Z"/><path fill="#E1FF01" fill-rule="evenodd" d="M814.915 473.336c0 33.928.191 47.808.423 30.843.232-16.963.232-44.722 0-61.687-.232-16.964-.423-3.085-.423 30.844Zm-.046 103.78c.001 17.563.21 24.549.466 15.524.255-9.026.254-23.395-.002-31.933-.257-8.537-.466-1.154-.464 16.409Zm.025 76.928c0 23.95.198 33.95.442 22.225.243-11.726.244-31.321 0-43.544-.242-12.224-.441-2.63-.442 21.319Zm99.947-3.997c7.825.261 20.235.26 27.578-.003s.94-.476-14.228-.475c-15.168.002-21.175.217-13.35.478Zm68.869.003c12.175.242 32.1.242 44.27 0 12.18-.243 2.21-.441-22.13-.441-24.353 0-34.315.198-22.14.441Zm-594.742 35.715c0 3.462-15.525 9.664-24.157 9.651-10.614-.016-3.818 17.232 10.454 26.53 11.722 7.637 16.165 25.157 10.075 39.731-1.198 2.867-2.177 5.428-2.177 5.696 0 1.341 12.411-4.168 19.162-8.506 8.339-5.359 19.103-16.294 21.744-22.092 2.257-4.952 2.826-4.625 6.992 4.012 1.996 4.139 9.105 16.687 15.8 27.885 6.692 11.198 15.429 26.238 19.414 33.423 3.985 7.185 7.872 13.462 8.638 13.951.765.488 1.231 1.356 1.034 1.929-.198.572 2.152 6.194 5.223 12.492l5.584 11.452 16.787-17.576c9.232-9.668 19.547-21.241 22.92-25.719l6.134-8.141-11.94-12.085c-21.048-21.305-46.613-40.078-75.442-55.403-13.005-6.912-14.152-7.868-14.152-11.805 0-14.147-18.991-28.842-37.277-28.842-4.09 0-4.816.515-4.816 3.417Zm-176.477 11.464c-89.227 71.755-145.914 154.826-184.972 271.06-8.838 26.305-23.191 82.401-23.191 90.641 0 .14 9.388-.03 20.86-.38 62.305-1.87 100.865 24.24 123.688 83.75 2.942 7.68 12.401 27.67 21.02 44.44 16.451 31.99 23.57 49.24 29.482 71.43 1.96 7.35 4.027 14.12 4.594 15.04.568.91.357 2.08-.467 2.59-.825.51 10.195.93 24.488.93 14.294 0 25.403-.2 24.689-.44-.747-.25-.771-2.09-.055-4.35l7.138-22.54c5.937-18.75 11.691-31.49 29.285-64.84 6.052-11.47 10.197-21.35 11.268-26.85 6.68-34.32 11.56-45.86 24.967-59.04 13.468-13.24 40.451-23.2 57.493-21.21l4.856.57-.339-40.72c-.187-22.39-.868-49.535-1.514-60.313-.646-10.777-1.382-25.146-1.636-31.932-.82-21.959-2.402-42.614-3.948-51.527-.832-4.79-1.531-10.016-1.557-11.612-.119-7.622-4.703-37.949-5.975-39.534-.791-.988-1.111-2.649-.712-3.69.755-1.965-2.697-24.798-4.327-28.624-.511-1.198-1.023-3.484-1.138-5.08-.502-6.898-4.289-22.498-5.462-22.498-.705 0-.853-1.353-.328-3.008 1.363-4.295-3.034-8.604-8.777-8.604-44.685 0-108.287-34.261-128.544-69.244l-5.204-8.985-5.682 4.57Zm416.885.47c-3.888 1.059-10.821 2.062-15.407 2.228-6.768.244-8.246.736-7.847 2.61.27 1.27 2.158 11.639 4.196 23.04 4.973 27.824 7.528 34.113 19.087 47.005 16.162 18.024 20.296 29.328 22.365 61.165 1.66 25.536 2.469 27.762 15.451 42.559 11.961 13.633 18.194 22.538 22.933 32.77l3.512 7.581 2.095-5.028c1.152-2.765 2.459-6.988 2.904-9.382.444-2.395 2.218-10.233 3.941-17.418 13.367-55.756-11.149-136.58-55.364-182.523-7.16-7.439-7.322-7.481-17.866-4.607Zm141.962 28.64c-.401 1.045-.54 9.699-.309 19.232l.419 17.334.717-19.235c.708-18.971.608-21.071-.827-17.331Zm43.574 194.777c0 31.932.192 44.789.426 28.569.233-16.219.233-42.345 0-58.059-.235-15.712-.427-2.443-.426 29.49Z" clip-rule="evenodd"/><path fill="#000013" fill-rule="evenodd" d="m758.762 129.634-.393 29.456-251.599.125c-215.174.106-251.786.422-252.896 2.177-1.969 3.108-1.601 7.571.916 11.164l2.258 3.226h502.03l.012 456.009c.006 250.804.237 456.239.514 456.509 1.925 1.93 11.102-17.37 11.102-23.35 0-6.33 1.585-8.53 3.694-5.11.53.85 5.832-5.8 11.783-14.79l10.82-16.34-10.971-10.87c-13.783-13.65-13.903-13.27 4.173-13.27h15.144l.46 4c.442 3.85.59 3.76 4.418-2.75l3.958-6.732.35-130.447c.193-71.746.605-135.501.917-141.679l.568-11.231h44.678v-7.257h-44.633l-.849-4.245c-.468-2.335-.873-38.912-.9-81.282l-.053-77.039h46.435v-8.814l-21.967.185c-27.27.231-26.921 2.488-23.376-150.67l.547-23.587h44.796v-7.257h-44.996l-.161-7.62c-.727-34.415-.989-108.277-.391-110.312.671-2.278 3.066-2.54 23.147-2.54h22.401v-26.127H815.95l-.842-10.523c-.705-8.813-.585-14.794.434-21.772.089-.598 9.957-1.089 21.932-1.089h21.772V159.09h-87.814l-.267-25.955-.267-25.955-5.872-3.501-5.871-3.501-.393 29.456Zm46.775 50.14c-.004 3.969-30.495 26.094-33.448 24.27-.58-.359-1.149-6.866-1.262-14.457l-.207-13.805h34.922l-.005 3.992Zm.005 24.312v10.886h-15.241c-18.862 0-18.91-.54-1.089-12.255 17.517-11.513 16.33-11.613 16.33 1.369Zm95.797 11.612v19.595h56.626l-.371 104.522-.373 104.523-26.127.639c-14.369.351-26.942.671-27.941.708-1.093.044-1.814 2.093-1.814 5.152v5.08h56.607v49.35h-28.303c-24.192 0-28.304.316-28.304 2.177 0 1.855 3.858 2.177 26.007 2.177 33.682 0 30.6-2.062 30.6 20.476v18.714h-28.303c-24.192 0-28.304.317-28.304 2.177 0 1.861 4.115 2.178 28.323 2.178h28.324l-.384 48.261-.381 48.262-27.941.395-27.941.393v11.549h56.651l-.385 42.151-.384 42.151-26.853.553c-14.768.303-27.351.604-27.962.668-.611.062-.938 18.894-.726 41.844l.385 41.73 27.941.395 27.94.393v79.921c0 63.292.378 79.795 1.815 79.316 1.415-.471 1.897-18.033 2.19-79.951l.375-79.348h71.114c62.24 0 71.11-.272 71.11-2.177 0-1.906-8.88-2.178-71.18-2.178h-71.187l.423-11.878.421-11.879 52.983-21.257c29.13-11.69 60.02-24.144 68.64-27.674l15.67-6.417-14.94-.997c-8.22-.549-38.13-.999-66.47-1-28.342-.002-52.673-.044-54.069-.092-2.359-.082-2.54-3.094-2.54-42.181v-42.093h142.249v-11.498l-12.7-.42-12.71-.419-.38-48.262-.38-48.261h13.08c10.66 0 13.09-.404 13.09-2.178 0-1.905-8.87-2.177-71.13-2.177h-71.119v-39.19h71.119c62.26 0 71.13-.271 71.13-2.177 0-1.906-8.87-2.177-71.13-2.177h-71.119v-49.35h142.249v-4.966c0-6.922 1.49-6.795-74.8-6.328l-66.723.408-.373-104.869-.372-104.869h142.268v-39.19H901.339v19.595Zm-110.64 20.812c1.424.905 1.225 1.738-.867 3.629-5.724 5.182-16.789 12.393-17.93 11.687-1.952-1.206-1.414-14.752.619-15.572 2.966-1.198 16.181-1.011 18.178.256Zm14.843 21.436c0 14.861-.372 18.156-1.98 17.538-4.927-1.89-22.778-16.167-22.397-17.911.418-1.907 21.147-17.837 23.288-17.897.599-.016 1.089 8.205 1.089 18.27Zm-19.494 14.48c14.695 11.475 14.705 9.267-.074 17.323-15.018 8.188-14.864 8.273-15.147-8.453-.365-21.588-.767-21.354 15.221-8.87Zm18.917 40.854c-1.046 1.048-22.86-11.324-22.358-12.68.241-.646 5.335-3.745 11.323-6.885l10.886-5.711.422 12.291c.232 6.76.109 12.604-.273 12.985Zm-21.257-2.347c12.299 7.091 12.3 7.085-.857 14.351-12.277 6.778-12.145 6.858-12.145-7.257 0-15.31-.641-14.961 13.002-7.094Zm21.834 28.14v16.692l-3.992-.009c-3.658-.007-23.501-13.967-24.761-17.419-.413-1.132 25.195-15.88 27.664-15.933.599-.013 1.089 7.489 1.089 16.669Zm-26.218 10.915c5.731 4.9 5.279 6.095-2.4 6.333-5.334.165-5.505.013-5.942-5.273-.556-6.705 1.443-6.959 8.342-1.06Zm25.927 22.106c.511 9.803 1.52 9.491-18.226 5.632-15.306-2.993-14.175-2.367-15.335-8.469l-.885-4.652 9.748-.539c5.362-.296 13.014-.489 17.005-.428l7.258.11.435 8.346Zm.267 25.401-.021 9.797-16.186 10.525c-19.023 12.37-17.821 12.786-18.101-6.292-.257-17.551-1.291-16.245 16.172-20.431 19.321-4.63 18.164-5.04 18.136 6.401Zm.024 33.705v14.472l-16.33 10.715c-19.432 12.753-18.13 13.039-18.384-4.023l-.206-13.744 16.371-10.876c9.004-5.982 16.861-10.908 17.46-10.946.599-.039 1.089 6.442 1.089 14.402Zm0 39.957c0 19.531.592 19.102-14.528 10.524-12.165-6.902-2.488-25.47 14.165-27.178.2-.02.363 7.474.363 16.654Zm-450.293 18.022c-18.908 10.31-43.059 23.637-53.671 29.616a50392.886 50392.886 0 0 1-53.403 30.012c-18.76 10.529-34.679 19.685-35.374 20.345-.708.674.996 7.79 3.881 16.194 2.829 8.246 7.806 23.484 11.058 33.862 13.742 43.849 48.962 46.733 91.022 7.453 16.101-15.036 16.592-16.034 9.635-19.619-30.796-15.872-19.251-65.151 13.34-56.945 12.42 3.127 14.445 1.003 13.068-13.702-1.311-13.977.665-17.277 15.149-25.319 27.232-15.12 32.838-21.984 26.907-32.949-5.285-9.77-1.67-10.729-41.612 11.052Zm437.28 1.702 3.434 2.307-9.817 5.491c-14.35 8.024-14.631 7.932-15.145-4.887-.664-16.547.911-16.759 21.528-2.911Zm13.013 19.466c0 7.832-.571 12.338-1.561 12.338-2.919 0-21.643-11.921-20.818-13.255.842-1.363 19.335-11.222 21.29-11.349.599-.039 1.089 5.481 1.089 12.266Zm-15.939 13.209c21.067 12.539 20.991 14.054-.768 15.234-18.862 1.024-16.754 2.047-17.72-8.604-1.677-18.499-1.537-18.548 18.488-6.63Zm15.939 30.335c0 9.582.936 9.47-11.567 1.382-12.843-8.308-12.766-9.365.681-9.365h10.886v7.983Zm-9.676 11.312c8.271 5.102 8.855 4.06-10.622 18.944-15.12 11.553-14.23 12.257-14.451-11.45-.222-23.955-.396-23.652 9.792-17.122a1276.949 1276.949 0 0 0 15.281 9.628Zm277.854 36.853.38 48.164-55.9.123-55.899.124v-97.336l55.519.38 55.52.38.38 48.165Zm-746.505-27.909c-7.919 7.917.475 19.37 23.867 32.566 16.914 9.544 20.547 13.107 29.051 28.505 13.214 23.921 18.537 28.274 34.526 28.237 29.14-.072 37.945-22.837 22.235-57.483l-4.049-8.931-9.185 4.552c-20.621 10.221-38.836 6.102-60.088-13.589-20.145-18.662-28.406-21.81-36.357-13.857Zm478.327 22.981v17.836l-16.33 9.632-16.329 9.632-1.154-6.059c-1.706-8.954-.59-26.039 1.752-26.82 1.058-.353 8.216-5.443 15.904-11.31 7.689-5.868 14.469-10.686 15.068-10.708.599-.021 1.089 7.988 1.089 17.797Zm0 41.675c0 7.983-.389 14.514-.866 14.514-2.566 0-25.152-13.516-24.46-14.638.931-1.503 22.56-14.324 24.237-14.365.599-.014 1.089 6.506 1.089 14.489Zm-15.316 15.266 7.181 4.062-11.845 5.872c-6.514 3.23-12.253 5.464-12.753 4.966-1.432-1.433-2.582-17.9-1.538-22.055l.943-3.761 5.414 3.427c2.979 1.884 8.648 5.254 12.598 7.489Zm15.316 23.365v13.956l-3.992-2.593c-22.244-14.449-21.557-12.85-8.657-20.162 12.842-7.278 12.649-7.413 12.649 8.799Zm-15.872 12.493c13.941 9.208 15.872 10.979 15.872 14.561v4.077l-17.055-.408-17.055-.409-.343-12.338c-.537-19.348-1.833-18.965 18.581-5.483Zm15.127 26.027c.48.481.681 5.914.446 12.075l-.427 11.203-11.612-8.362c-16.075-11.577-18.602-13.953-16.345-15.377 2.058-1.298 26.585-.893 27.938.461Zm-.798 33.188c.05 1.214-6.93 8.001-15.512 15.081l-15.604 12.876-.93-8.549c-1.209-11.092-1.495-41.926-.401-43.02 1.362-1.362 32.346 21.188 32.447 23.612Zm1.543 29.728c0 9.979-.408 18.143-.906 18.143-16.985 0-24.659-16.353-12.521-26.681 14.283-12.151 13.427-12.697 13.427 8.538Zm-7.741 24.527c-.478 1.614-22.783 13.894-25.28 13.918-1.864.019-2.789-29.005-.983-30.81 1.161-1.161 26.737 15.29 26.263 16.892Zm160.145 13.937v10.16h-26.368c-14.502 0-25.947-.421-25.433-.936.515-.514 10.865-4.768 23-9.452 12.136-4.685 22.383-8.836 22.772-9.225 3.79-3.79 6.029-.278 6.029 9.453Zm-152.404 11.612c0 11.176-.376 20.321-.836 20.321-4.735 0-33.3-23.111-30.091-24.346.644-.247 7.376-3.976 14.96-8.284 7.584-4.308 14.279-7.872 14.878-7.922.599-.049 1.089 9.055 1.089 20.231Zm-11.975 22.373c17.143 11.954 16.249 13.353-9.072 14.203l-13.063.437-.463-12.846c-.611-17.011-.09-18.217 5.922-13.687 2.585 1.947 10.089 7.301 16.676 11.893Zm11.975 32.057c0 15.142-.133 15.167-15.241 2.886-16.956-13.785-17.081-13.593 9.798-14.949l5.443-.274v12.337Zm-21.357 7.258c6.084 4.79 11.093 9.176 11.129 9.748.131 2.032-22.338 14.075-23.313 12.496-1.463-2.368-1.614-32.039-.16-31.461.704.28 6.259 4.427 12.344 9.217Zm21.357 31.206c0 18.616.982 18.023-13.789 8.31-14.221-9.35-14.235-9.729-.726-17.766 15.036-8.945 14.515-9.285 14.515 9.456Zm-21.526 11.685c13.069 9.002 13.084 9.516.479 16.208-12.892 6.844-12.851 6.867-13.474-7.446-.814-18.705-1.128-18.493 12.995-8.762Zm20.938 47.446c-1.134 1.135-25.681-17.337-25.151-18.926.27-.812 6.009-4.63 12.752-8.488l12.261-7.014.411 16.873c.225 9.28.103 17.179-.273 17.555Zm-.372 11.472c2.138 3.82-.656 4.675-16.808 5.146-11.972.348-15.763.005-16.329-1.48-1.01-2.643-.936-24.165.091-26.843.871-2.27 30.393 18.435 33.046 23.177Zm-13.555 42.227c0 1.71-12.949 10.93-18.148 12.92-2.308.89-3.423-29.67-1.164-31.93 1.274-1.27 19.312 16.48 19.312 19.01Z" clip-rule="evenodd"/><path fill="#000013" d="M519.965 548.072c-26.999 11.734-29.601 21.889-14.147 55.17l10.784 23.223-4.491 1.521c-13.712 4.644-11.431 19.103 6.734 42.71 9.64 12.528 26.388 12.792 34.629 4.55l-3.675-5.554c-20.411-30.841-8.638-50.296 19.225-31.769l9.95 6.617 5.148-6.285c6.405-7.816 6.394-8.16-.293-8.17-21.399-.032-38.551-20.159-29.802-34.97 2.488-4.214 2.476-4.253-6.894-23.24-12.263-24.84-16.414-28.478-27.168-23.803Z"/><path fill="#CBE0E4" fill-rule="evenodd" d="M1022.72 3.465c-2.31 1.694-2.53 5.233-2.43 39.553.06 20.73-.32 46.054-.85 56.274l-.95 18.582-5.23-.439-5.24-.438-.72-15.203c-.94-19.57 1.96-18.361-41.771-17.455-43.63.902-39.761-1.84-40.034 28.389l-.207 22.893 89.042.122c48.97.068 89.34-.363 89.71-.957.37-.594.68-29.643.7-64.554l.04-63.476-3.18-2.577c-4.11-3.33-74.43-3.966-78.88-.714ZM658.68 176.87c18.615.23 48.661.229 66.768 0 18.106-.231 2.875-.418-33.847-.418s-51.538.188-32.921.418Zm-31.008 70.035c0 32.331.192 45.559.426 29.392.233-16.165.233-42.618 0-58.785-.234-16.165-.426-2.939-.426 29.393Zm-27.579 7.983c0 31.134.191 43.665.427 27.845.235-15.82.233-41.293-.002-56.608-.234-15.314-.427-2.371-.425 28.763Zm-386.1-17.553c-13.352 5.816-14.442 10.433-14.442 61.199v42.193l3.604 5.264c11.065 16.164 36.113 15.164 44.657-1.782 4.374-8.673 5.111-87.899.9-96.771-4.898-10.323-22.471-15.438-34.719-10.103Zm714.551-.955-27.224.428.372 103.386.373 103.386 27.232.394 27.234.395-.055-104.538c-.03-57.496-.201-104.39-.381-104.208-.179.179-12.576.521-27.551.757Zm34.873 67.132c-.215 37.122-.216 83.987-.003 104.144l.388 36.649h44.948v-33.05l24.31-9.568c31.6-12.437 40.78-15.532 41.69-14.056.41.663.64 13.524.52 28.578l-.23 27.371 15.12.408 15.11.406.31-104.187.31-104.188H963.808l-.391 67.493Zm65.293 138.972c7.38.264 19.46.264 26.85 0 7.38-.263 1.34-.479-13.43-.479s-20.81.216-13.42.479ZM901.339 480.56v23.256l3.992.293c2.196.161 14.561.325 27.479.363l23.486.07-.262-23.224-.265-23.224-27.215-.394-27.215-.395v23.255Zm62.12-21.377c-.544 1.637-.077 40.415.53 43.907.163.941 25.089 1.54 70.771 1.703l70.51.249-.43-23.836-.43-23.837h-70.17c-54.852 0-70.309.396-70.781 1.814Zm-61.801 70.397.407 18.506 27.065.263 27.066.261.214-18.768.213-18.769h-55.371l.406 18.507Zm61.488-9.435c.196 4.99.412 13.468.482 18.842l.125 9.769 70.757-.001 70.76-.003.08-18.839.09-18.84H962.789l.357 9.072Zm129.424 34.102-12.7.484v94.232h25.87l.14-47.898c.07-26.345-.03-47.764-.24-47.6-.2.164-6.08.515-13.07.782Zm-190.888 47.181.383 46.81 27.215.394 27.215.395v-94.41h-55.197l.384 46.81Zm62.027-20.684c-.025 14.37-.064 35.435-.089 46.81l-.044 20.684 54.514.38 54.52.38v-94.38H963.753l-.044 26.126Zm-35.155 82.37-27.215.428v82.67h55.233l-.12-42.093c-.067-23.151-.247-41.944-.402-41.763-.154.18-12.527.521-27.496.758Zm34.712-.122c-.132.132-.056 18.929.167 41.769l.407 41.528 21.023-.4 21.027-.403.34-41.052.34-41.05-21.532-.317c-11.842-.172-21.64-.207-21.772-.075Zm112.234-.24c-.01 0-.17 18.78-.36 41.73l-.35 41.732 15.24-.005 15.24-.003.37-41.727.36-41.727h-30.5Zm22.51 87.725c-3.99 1.49-27.17 10.847-51.52 20.793-24.35 9.947-53.091 21.622-63.868 25.943l-19.595 7.858-.427 10.487-.427 10.485h142.377l.14-19.957c.07-10.976.29-28.612.48-39.19.19-10.579.29-19.209.22-19.18-.06.029-3.38 1.271-7.38 2.761Zm-161.835 64.799c-10.778 4.297-20.902 8.409-22.498 9.137-1.881.861 5.022 1.253 19.595 1.117l22.497-.212.188-9.072c.101-4.989.101-9.007 0-8.927-.103.08-9.005 3.661-19.782 7.957Zm-34.752 96.278.128 79.957h54.944v-158.95l-27.6-.482-27.601-.483.129 79.957Zm132.687-78.616-71.17.39.518 78.371c.515 77.558.489 78.383-2.414 79.454-1.614.597 29.525.912 69.196.701 39.67-.212 72.83-.637 73.69-.946 1.08-.391 1.59-24.716 1.66-79.81.06-43.587.01-79.092-.11-78.9-.11.193-32.23.525-71.37.74ZM388.198 1098.92c0 47.5.183 66.93.406 43.18.225-23.75.225-62.61 0-86.36-.223-23.75-.406-4.32-.406 43.18Zm283.808-63.49c-29.691 4.29-51.266 28.91-56.517 64.49-2.677 18.13-2.979 17.44 7.877 18.13 9.883.63 14.808 3.11 19.846 9.99 2.313 3.16 2.612 7.53 2.798 40.91l.208 37.38h35.23l3.405-22.86c6.513-43.72 21.335-92.32 30.658-100.52.453-.4.479-7.64.058-16.09-1.311-26.23-14.372-35.66-43.563-31.43Zm179.735 16.67c-1.19 1.4-7.279 10.06-13.529 19.24-6.25 9.18-13.383 19.28-15.849 22.44-2.466 3.17-3.831 5.35-3.032 4.86.961-.59 1.312 17.47 1.038 53.4l-.414 54.29h86.464l-.393-61.69-.393-61.69h76.989v123.41l61.328-.38 61.32-.38v-155.3l-125.682-.37c-118.323-.35-125.809-.23-127.847 2.17Z" clip-rule="evenodd"/><path fill="#3E6D77" fill-rule="evenodd" d="M951.778 195.74c28.141.22 74.192.22 102.332 0s5.11-.4-51.17-.4c-56.279 0-79.303.18-51.162.4Zm-232.962 11.601c5.388.278 14.207.278 19.595 0 5.388-.28.98-.508-9.797-.508-10.778 0-15.186.228-9.798.508Zm291.124 29.039c17.81.231 46.55.231 63.86 0 17.31-.232 2.73-.421-32.39-.421-35.13.002-49.291.191-31.47.421Zm-52.779 67.132c0 34.727.189 48.934.421 31.57.231-17.362.231-45.775 0-63.139-.232-17.363-.421-3.157-.421 31.569ZM623.28 277.386c0 18.76.208 26.434.46 17.055.253-9.38.253-24.729 0-34.11-.252-9.381-.46-1.705-.46 17.055Zm135.079 410.767c0 220.733.168 311.033.373 200.667.204-110.367.204-290.967 0-401.333-.205-110.367-.373-20.067-.373 200.666ZM611.705 405.841c0 31.135.191 43.665.426 27.846.235-15.82.234-41.293-.001-56.608-.234-15.314-.427-2.372-.425 28.762Zm345.378 2.903c.002 12.773.224 17.804.494 11.181.268-6.624.267-17.075-.005-23.223-.271-6.15-.49-.731-.489 12.042Zm93.757-12.893c-11.57 4.418-25.78 9.776-31.57 11.906l-10.52 3.874.14 15.248c.08 8.439.6 13.635 1.15 11.635.59-2.119 1.42-2.951 2-2.012.66 1.067 10.58 1.693 29.63 1.871 17.88.167 29.34.854 30.52 1.826 1.52 1.266 1.87-3.522 1.87-25.472 0-14.866-.48-27.001-1.08-26.968-.6.033-10.56 3.675-22.14 8.092Zm-25.68 48.087c9.42.254 24.45.253 33.38-.001 8.94-.254 1.23-.462-17.13-.46-18.36 0-25.68.209-16.25.461Zm5.72 13.061c6.99.265 18.42.265 25.4 0 6.99-.267 1.27-.485-12.7-.485-13.97 0-19.68.218-12.7.485Zm48.15 133.906c0 16.365.21 23.059.47 14.877s.26-21.573 0-29.755c-.26-8.182-.47-1.488-.47 14.878Zm-5.81 18.143c0 15.966.21 22.695.47 14.955.26-7.741.27-20.804.01-29.03-.26-8.225-.48-1.891-.48 14.075Zm-157.003 54.057c6.187.273 16.31.273 22.498 0 6.187-.271 1.125-.495-11.249-.495s-17.437.224-11.249.495Zm90.763 41.013.4 42.094h66.37l.98-3.884c.53-2.135.83-21.077.66-42.093l-.3-38.208-34.26-.002h-34.26l.41 42.093Zm-49.885 7.985c.001 14.369.219 20.052.483 12.626.264-7.424.263-19.181-.003-26.127-.265-6.943-.482-.869-.48 13.501Zm-129.351 4.708c6.222.273 16.02.272 21.772-.003 5.75-.275.659-.497-11.316-.496-11.975.001-16.68.226-10.456.499Zm210.486 116.124c12.62.242 32.87.242 45 0 12.12-.242 1.79-.441-22.95-.44-24.75 0-34.67.199-22.05.44ZM906.726 1085.49c-.339 1.4-.546 29-.461 61.33l.154 58.78 38.102.39 38.101.39v-123.43h-37.641c-34.646 0-37.689.21-38.255 2.54Z" clip-rule="evenodd"/><path fill="#3E6D77" fill-rule="evenodd" d="M861.361 296.254c0 33.13.19 46.684.424 30.118.232-16.564.232-43.67 0-60.236-.234-16.564-.424-3.012-.424 30.118Zm.018 154.582c0 47.899.184 67.283.407 43.077.224-24.206.223-63.396-.001-87.089-.223-23.692-.406-3.887-.406 44.012Zm213.281-37.013c0 13.173.22 18.562.48 11.975.27-6.587.27-17.362 0-23.949-.26-6.587-.48-1.198-.48 11.974Zm-64.74 25.006-.63 3.298 31.12-.387c22.59-.28 31.77.094 33.48 1.367 1.29.965 1.05.353-.55-1.36-2.76-2.961-4.3-3.127-31.21-3.36-15.56-.135-29.04-.833-29.94-1.55-1.1-.877-1.85-.221-2.27 1.992ZM861.376 626.465c0 44.705.184 63.203.409 41.107.225-22.096.227-58.673 0-81.283-.225-22.609-.409-4.53-.409 40.176Zm101.494.725c0 10.778.228 15.186.508 9.798.279-5.388.279-14.207 0-19.595-.28-5.388-.508-.98-.508 9.797Zm12.857 35.913c5.388.278 14.207.278 19.595 0 5.388-.28.98-.508-9.797-.508-10.777 0-15.186.228-9.798.508Zm-114.338 168.02c0 63.066.178 88.654.397 56.863.218-31.793.218-83.393 0-114.667-.219-31.275-.397-5.263-.397 57.804Zm-.103 137.89c.001 12.773.223 17.804.493 11.18.269-6.624.267-17.075-.004-23.223-.272-6.15-.491-.73-.489 12.043Zm-81.302 206.837c0 10.78.228 15.18.508 9.8.279-5.39.279-14.21 0-19.6-.28-5.39-.508-.98-.508 9.8Z" clip-rule="evenodd"/><path fill="#3E6D77" fill-rule="evenodd" d="M861.827 202.998c-.338 3.793-.491 13.1-.337 20.684.154 7.583.365 183.467.469 390.851l.19 377.063 19.232-.405 19.232-.405.426-357.789c.233-196.783-.005-375.586-.529-397.341l-.953-39.552h-37.116l-.614 6.894ZM716.56 1091.73c-1.396 1.63-3.174 2.57-3.952 2.09-.837-.52-1.412 1.85-1.412 5.83 0 4.38.537 6.37 1.549 5.74.856-.53 1.913.44 2.363 2.15 1.535 5.88 4.479-1.33 4.265-10.44-.107-4.59-.212-8.34-.235-8.34-.021 0-1.183 1.33-2.578 2.97Zm89.485 27.15c-7.015 10.18-15.549 22.67-18.966 27.77l-6.212 9.26v50.5l19.232-.4 19.232-.41.28-52.61c.154-28.94.035-52.62-.266-52.62-.299 0-6.285 8.33-13.3 18.51Zm-102.133-6.94c.757 1.41 1.166 2.82.909 3.12-1.218 1.45-2.135 10.04-.996 9.33.711-.44.964.46.56 2.01-.47 1.8-1.59 2.53-3.13 2.06-2.189-.68-2.186-.57.039 1.27 1.663 1.38 2.016 2.68 1.11 4.11-1.141 1.8-1.341 1.79-1.448-.08-.286-5.01-2.626 4.04-2.722 10.52-.074 5.05-.672 6.89-2.234 6.89-1.294 0-1.804.86-1.299 2.17.459 1.2 1.308 1.88 1.89 1.52.582-.36 1.058 1.19 1.058 3.44 0 3.29-.534 3.95-2.732 3.37-2.355-.61-2.695.06-2.477 4.92.139 3.1-.266 6.88-.902 8.41-.878 2.11-.692 2.49.767 1.59 1.36-.84 1.578-.63.747.71-.646 1.05-1.381 3.27-1.635 4.94-.254 1.67-.893 5.82-1.419 9.21-.526 3.39-1.524 6.17-2.217 6.17-.693 0-1.26.61-1.26 1.36 0 .78 10.574 1.4 25.042 1.47l25.042.12.382-10.94c.312-8.93-.136-11.66-2.454-14.9-3.069-4.29-5.368-28.63-2.853-30.19.709-.44 1.278-1.57 1.266-2.52-.014-1.04-.585-.86-1.43.45-1.201 1.86-1.41 1.8-1.429-.37-.012-1.39-.675-2.54-1.473-2.54-.799 0-1.452-.69-1.452-1.53 0-.85.592-1.18 1.315-.73.724.45.562-.81-.363-2.8-.923-1.99-2.167-3.63-2.766-3.63-1.542-.02-1.36 19.96.19 20.92 1.885 1.17 2.823 7.61 1.427 9.81-.989 1.56-1.214 1.55-1.233-.06-.011-1.09-.931-1.62-2.055-1.19-1.21.47-2.332-.35-2.768-2.02-.946-3.62-3.907-3.64-3.907-.03 0 2.05-.751 2.57-2.903 2-1.597-.41-2.903-1.9-2.903-3.31 0-1.4-.408-4.59-.907-7.09-.752-3.76-.443-4.56 1.814-4.68 2.048-.11 1.823-.43-.907-1.3-3.378-1.08-3.41-1.18-.449-1.31 3.404-.15 5.345-2.02 3.754-3.61-2.069-2.07-1.471-5.35 1.334-7.31 3.055-2.14 2.461-5.19-1.01-5.19-1.104 0-2.472-.76-3.041-1.68-.571-.92-.446-1.31.275-.86.723.44 1.314-1.41 1.314-4.13 0-4.74-2.395-6.66-4.354-3.49-.494.8-.205 1.45.64 1.45.844 0 1.537.98 1.537 2.18 0 1.19-.653 2.17-1.452 2.17-1.405 0-1.775-1.57-1.943-8.25-.045-1.78-1.219-3.47-2.672-3.85-2.095-.54-2.329-.18-1.217 1.9Zm-5.417 94.02c7.783.26 20.521.26 28.304 0 7.783-.26 1.415-.47-14.152-.47s-21.934.21-14.152.47Z" clip-rule="evenodd"/><path fill="#3E6D77" fill-rule="evenodd" d="m757.969 131.843-.326 26.457-26.49.43-26.489.431 26.534.328c20.517.254 26.699-.094 27.252-1.537.393-1.026.519-13.272.28-27.215l-.434-25.35-.327 26.456ZM341.514 159.45c9.425.254 24.448.252 33.383-.002 8.937-.254 1.226-.461-17.136-.46-18.361 0-25.672.209-16.247.462Zm134.972-.005c6.223.273 16.02.272 21.772-.002 5.751-.276.659-.498-11.315-.497-11.975.002-16.681.227-10.457.499Zm169.834.005c8.627.257 22.343.255 30.481-.003 8.14-.258 1.083-.469-15.681-.467-16.765.001-23.424.213-14.8.47Zm142.167 0c9.379.252 24.73.252 34.109 0 9.38-.253 1.706-.46-17.055-.46-18.76 0-26.434.207-17.054.46Zm111.974 56.249c.001 11.176.229 15.557.505 9.733.277-5.821.274-14.966-.003-20.32-.279-5.353-.505-.59-.502 10.587Zm-39.764 143.652v3.585l-18.506.455-18.506.453 19.232.316 19.232.315v-4.354c0-2.395-.327-4.355-.726-4.355-.399 0-.726 1.614-.726 3.585Zm39.444 91.124-.254 6.894 28.667-.329 28.667-.33-27.86-.426-27.858-.428-.555-6.137-.554-6.139-.253 6.895Zm77.037 6.526c7.783.26 20.521.26 28.302 0 7.78-.262 1.42-.475-14.15-.475-15.567 0-21.934.213-14.152.475Zm-20.114 72.942c0 10.777.228 15.186.508 9.798.278-5.388.278-14.207 0-19.595-.28-5.388-.508-.98-.508 9.797Zm-57.008 21.409-.169 3.266 28.667-.329 28.667-.33-27.841-.426c-24.948-.384-27.909-.688-28.498-2.937-.485-1.85-.701-1.652-.826.756Zm74.945 2.895c6.587.268 17.363.268 23.949 0 6.59-.269 1.2-.489-11.974-.489-13.172 0-18.562.22-11.975.489Zm58.059.001c7.38.264 19.47.264 26.85 0 7.39-.263 1.35-.479-13.42-.479s-20.81.216-13.43.479ZM900.53 789.031c0 23.95.199 33.95.443 22.225.242-11.726.244-31.321 0-43.544-.242-12.224-.441-2.63-.443 21.319Zm132.79 38.094c66.04.371 71.07.575 71.76 2.924.58 1.942.68 1.855.45-.376-.29-2.86-1.37-2.903-71.76-2.923l-71.469-.022 71.019.397ZM714.694 1086.1c-5.375 7.38-15.808 33.74-14.31 36.16.452.74.211 1.34-.536 1.34-2.521 0-12.507 45.74-15.525 71.12-.523 4.39-1.058 8.5-1.19 9.13-.132.64 13.057 1.29 29.309 1.45l29.552.3-.985-13.06c-3.799-50.31-19.864-115.29-26.315-106.44Zm4.952 14.79c-.403 6.54-3.415 10.95-4.539 6.65-.45-1.71-1.506-2.68-2.363-2.15-1.011.63-1.548-1.36-1.548-5.74 0-3.82.587-6.34 1.364-5.86.75.46 2.221-.08 3.266-1.21 2.409-2.6 4.245 1.39 3.82 8.31Zm-11.841 12.91c.157 6.75.528 8.34 1.939 8.34.798 0 1.452-.97 1.452-2.17s-.693-2.18-1.538-2.18c-.844 0-1.133-.65-.64-1.45 1.96-3.17 4.355-1.25 4.355 3.49 0 2.72-.591 4.57-1.314 4.13-.721-.45-.846-.06-.276.86.569.92 1.938 1.68 3.041 1.68 3.472 0 4.066 3.05 1.01 5.19-2.804 1.96-3.402 5.24-1.333 7.31 1.59 1.59-.35 3.46-3.754 3.61-2.961.13-2.929.23.449 1.31 2.73.87 2.955 1.19.907 1.3-2.257.12-2.567.92-1.815 4.68.5 2.5.908 5.69.908 7.09 0 1.41 1.306 2.9 2.903 3.31 2.152.57 2.902.05 2.902-2 0-3.61 2.961-3.59 3.908.03.435 1.67 1.557 2.49 2.768 2.02 1.123-.43 2.043.1 2.055 1.19.019 1.61.244 1.62 1.232.06 1.397-2.2.459-8.64-1.426-9.81-1.551-.96-1.732-20.94-.191-20.92.6 0 1.844 1.64 2.767 3.63.925 1.99 1.087 3.25.363 2.8-.723-.45-1.315-.12-1.315.73 0 .84.653 1.53 1.451 1.53.799 0 1.462 1.15 1.473 2.54.019 2.17.228 2.23 1.43.37.845-1.31 1.415-1.49 1.43-.45.012.95-.558 2.08-1.266 2.52-2.515 1.56-.216 25.9 2.852 30.19 2.318 3.24 2.767 5.97 2.455 14.9l-.382 10.94-25.042-.12c-14.469-.07-25.043-.69-25.043-1.47 0-.75.568-1.36 1.26-1.36.694 0 1.691-2.78 2.218-6.17.526-3.39 1.164-7.53 1.418-9.21.254-1.67.99-3.89 1.636-4.94.83-1.34.613-1.55-.747-.71-1.459.9-1.645.52-.767-1.59.636-1.53 1.041-5.31.902-8.41-.218-4.86.121-5.53 2.477-4.92 2.198.58 2.732-.08 2.732-3.37 0-2.25-.476-3.8-1.058-3.44-.582.36-1.431-.32-1.89-1.52-.505-1.31.004-2.17 1.299-2.17 1.562 0 2.16-1.84 2.234-6.89.096-6.48 2.435-15.53 2.721-10.52.108 1.87.308 1.89 1.449.08.906-1.43.553-2.73-1.11-4.11-2.226-1.84-2.228-1.95-.04-1.27 1.54.47 2.661-.26 3.131-2.06.439-1.68.141-2.44-.737-1.9-.922.57-1.106-.24-.494-2.17.537-1.7 1.034-5.04 1.102-7.44.142-5.01 3.434-6.02 3.549-1.09ZM215.88 1277.08c6.586.27 17.362.27 23.949 0 6.587-.27 1.197-.49-11.975-.49s-18.561.22-11.974.49Z" clip-rule="evenodd"/><path fill="#D4D4D4" fill-rule="evenodd" d="M1045.4 1.237c9.38.253 24.73.253 34.11 0 9.38-.252 1.7-.46-17.06-.46-18.76 0-26.43.208-17.05.46Zm-25.88 43.186c0 16.765.22 23.424.47 14.8.26-8.627.26-22.343 0-30.482-.26-8.14-.47-1.082-.47 15.682Zm-89.963 40.749c-1.548 1.257-1.837 1.746-.64 1.088 1.198-.657 17.527-1.545 36.287-1.974l34.11-.776-33.47-.312c-28.605-.266-33.879.022-36.287 1.974Zm73.383-.41c3.45 1.735 3.67 2.606 4.36 17.032l.72 15.203 5.81.173 5.8.172-5.44-.622-5.44-.624v-14.202c0-14.68-1.7-19.044-7.37-18.985-1.14.012-.43.845 1.56 1.852Zm102.19 24.252c0 12.374.22 17.435.49 11.249.28-6.186.28-16.312 0-22.498-.27-6.186-.49-1.125-.49 11.249Zm-.01 368.674c0 11.576.23 16.312.5 10.524.28-5.789.28-15.258 0-21.047-.27-5.788-.5-1.052-.5 10.523Zm0 328.034c0 11.575.23 16.31.5 10.523.28-5.787.28-15.259 0-21.046-.27-5.787-.5-1.053-.5 10.523ZM396.73 1070.96l-7.48.52-.544 100.45c-.298 55.24-.286 101.58.029 102.98.538 2.39 6.592 2.54 102.104 2.54h101.532l-1.032-3.26c-6.659-21.1-28.658-56.89-56.863-92.52-18.406-23.25-24.661-33.4-32.082-52.03-19.817-49.76-43.755-63.06-105.664-58.68ZM41.78 1278.53c8.226.26 21.289.26 29.03 0 7.74-.26 1.011-.47-14.955-.47s-22.3.22-14.075.47Zm59.434 0c8.182.26 21.573.26 29.755 0 8.182-.25 1.488-.47-14.878-.47-16.365 0-23.06.22-14.877.47Zm60.236 0c7.784.26 20.519.26 28.304 0 7.784-.26 1.415-.47-14.152-.47s-21.936.21-14.152.47Zm164.017 0c7.784.26 20.519.26 28.303 0 7.785-.26 1.415-.47-14.152-.47s-21.936.21-14.151.47Z" clip-rule="evenodd"/><path fill="#CDE801" fill-rule="evenodd" d="M602.2 311.25c-17.303 9.15-13.574 33.79 5.547 36.658 22.244 3.336 31.297-29.395 10.438-37.741-7.474-2.992-8.401-2.929-15.985 1.083Zm-330.537 90.264c-60.337 13.828-95.15 76.255-77.953 139.781 2.014 7.442 3.663 13.753 3.663 14.025 0 .271-4.257 3.533-9.462 7.245-11.446 8.169-14.625 12.402-12.414 16.531 3.907 7.301 4.453 7.111 44.154-15.404 165.156-93.668 172.352-97.219 177.3-87.455 4.506 8.892 1.317 9.55 26.221-5.408 26.405-15.86 31.112-19.643 31.112-25 0-10.42-7.177-9.636-39.848 4.344-22.658 9.698-24.731 10.326-26.127 7.936-26.587-45.485-71.031-67.048-116.646-56.595Z" clip-rule="evenodd"/><path fill="#FFBFBF" fill-rule="evenodd" d="M306.597 189.933c52.49.211 138.381.211 190.869 0 52.49-.211 9.544-.384-95.434-.384s-147.924.173-95.435.384Zm81.53 1030.187c-.002 15.96.21 22.69.471 14.95.26-7.74.262-20.8.002-29.03-.259-8.22-.472-1.89-.473 14.08Zm223.28-12.71c6.188.27 16.31.27 22.498 0 6.187-.27 1.125-.5-11.249-.5s-17.437.23-11.249.5Z" clip-rule="evenodd"/><path fill="#F97441" fill-rule="evenodd" d="M480.711 102.83c5.354.278 14.498.28 20.32.003 5.824-.276 1.443-.503-9.733-.505-11.177-.003-15.941.224-10.587.502ZM392.51 496.407c-4.881 4.588-14.025 10.968-20.682 14.432-15.345 7.983-16.508 9.797-15.963 24.9.477 13.236-2.82 18.921-9.632 16.599-35.142-11.976-51.143 42.037-16.196 54.674 7.353 2.66-.935 14.57-19.75 28.382-5.762 4.23-6.783 5.565-5.009 6.558 7.04 3.939 25.277 39.403 26.063 50.682.413 5.931 26.885 5.262 48.17-1.219l8.413-2.56.447-18.443.447-18.441-7.943-14.205c-9.102-16.282-14.751-22.024-29.682-30.172-26.234-14.316-35.231-29.797-21.204-36.487 8.6-4.101 13.521-1.993 29.481 12.626 24.099 22.074 39.284 26.857 59.98 18.888 13.645-5.254 13.728-5.391 10.325-17.021-1.599-5.467-3.628-15.715-4.511-22.775-1.62-12.955-11.755-46.122-19.868-65.013l-4.136-9.63-8.75 8.225Zm164.83 74.418c-7.629 2.154-7.886 3.071-3.568 12.695 3.568 7.951 3.756 9.135 1.819 11.394-10.653 12.407 6.463 33.726 27.077 33.726 9.494 0 9.629.426 2.909 9.226-5.915 7.746-6.76 7.966-12.86 3.321-16.74-12.744-29.644-12.696-32.207.119-1.691 8.45 11.668 35.979 19.101 39.367 2.871 1.308 3.535 2.679 3.535 7.305 0 13.5 73.077 16.772 76.427 3.421 17.024-67.832-29.164-135.555-82.233-120.574Zm87.709 603.575c0 17.96.208 25.31.463 16.32.255-8.98.255-23.67 0-32.65-.255-8.98-.463-1.64-.463 16.33Z" clip-rule="evenodd"/><path fill="#AD4F2B" fill-rule="evenodd" d="M297.526 644.356c-2.795 1.487-8.346 3.853-12.338 5.259-3.992 1.408-8.6 3.185-10.24 3.951-1.642.765-3.601 1.272-4.355 1.125-.754-.145-5.036-.189-9.517-.093l-8.146.171-.968 9.452c-.604 5.892-.376 10.558.606 12.39 2.554 4.773 32.877 17.255 36.491 15.021.734-.454 2.134-.165 3.108.643 2.087 1.734 18.413 3.76 30.759 3.819l8.709.042-.467-4.31c-1.362-12.544-20.562-48.673-26.452-49.776-1.161-.216-4.396.82-7.19 2.306Z" clip-rule="evenodd"/><path fill="#3E6D77" d="M598.794 1184.56c-1.312-9.98-4.522-28.76-7.131-41.73l-4.745-23.59 21.86.01c36.823.01 36.358-.7 35.911 54.79l-.261 32.29h-21.091c-15.623 0-21.231-.47-21.624-1.81-.294-1-1.606-9.98-2.919-19.96Z"/><path fill="#7C8C01" d="M184.31 188.845v-29.03h68.535l-.915 3.642c-1.081 4.309 2.249 11.526 5.989 12.98 1.427.555 84.711.935 185.075.845l182.481-.161.92 3.665c2.379 9.475-9.533 20.991-19.318 18.678-4.869-1.153-5.511-1.871-6.604-7.4-1.054-5.321-3.944-8.747-3.944-4.671 0 .961-69.67 1.452-206.109 1.452H184.31Z"/><path fill="#7C8C01" fill-rule="evenodd" d="M723.533 38.137c-3.193.767-12.99 3.039-21.772 5.048-8.781 2.007-23.804 5.926-33.384 8.707-17.748 5.154-46.289 11.56-132.81 29.81-47.776 10.077-49.16 10.279-79.355 11.578l-30.73 1.322-44.746 17.976c-71.821 28.853-101.296 41.259-101.829 42.857-.274.823-1.05 1.154-1.725.737-.675-.417-1.638-.094-2.14.717-.589.954 3.344 1.467 11.149 1.453 8.323-.016 11.385-.459 9.883-1.43-1.719-1.11-1.399-1.412 1.524-1.429 2.036-.012 16.406-5.291 31.933-11.731 15.527-6.44 31.198-12.91 34.823-14.376l6.593-2.665 8.648 5.715c4.756 3.142 12.731 8.114 17.719 11.047 10.615 6.24 10.827 6.823 3.629 9.985-5.356 2.351-5.385 2.408-1.814 3.504 4.806 1.474 17.047 1.692 17.66.313.265-.598 3.422-2.187 7.015-3.53 8.045-3.006 43.322-18.439 52.334-22.897l6.612-3.27 15.16 9.874c8.338 5.43 18.425 12.194 22.417 15.03 3.991 2.835 8.564 5.062 10.16 4.947 1.597-.115 4.154-.277 5.686-.363 3.956-.219-4.324-7.121-24.693-20.576-17.555-11.597-10.191-26.025 13.284-26.025 1.533 0 49.539 25.33 65.959 34.801 20.918 12.066 23.266 13.098 29.806 13.098 9.235 0 8.406-1.034-9.848-12.264-8.98-5.526-16.655-10.324-17.055-10.662-.399-.339.902-1.687 2.89-2.996 1.989-1.311 12.676-9.13 23.751-17.376 2.143-1.595 4.042-3.045 5.752-4.35l.003-.003c6.768-5.167 10.564-8.065 14.726-8.754 5.316-.881 11.228 1.841 24.691 8.038 2.663 1.226 5.622 2.588 8.93 4.085 2.744 1.242 5.246 2.363 7.524 3.384l.016.007.003.001c14.57 6.529 19.963 8.946 20.948 12.563.579 2.126-.366 4.667-1.866 8.702l-.002.004-.002.007a209.338 209.338 0 0 0-1.296 3.555c-4.787 13.606-4.797 16.059-.062 16.059 4.315 0 4.78-1.118 27.119-65.317l.065-.185c1.605-4.611 2.498-7.178 4.181-7.898 2.112-.902 5.468 1.106 13.037 5.633l.24.144c6.954 4.16 15.583 9.133 19.175 11.051 3.592 1.918 8.327 5.104 10.523 7.078 2.196 1.974 4.002 2.977 4.014 2.229.013-.747.502-.641 1.088.237 4.9 7.336 73.687 48.155 78.219 46.417 4.576-1.755.654-5.41-21.97-20.473a1349.642 1349.642 0 0 0-7.38-4.872c-10.254-6.736-14.876-9.772-14.513-11.992.298-1.822 3.951-3.095 10.601-5.412 1.738-.606 3.681-1.283 5.823-2.06 10.179-3.692 20.57-7.514 23.091-8.494 4.863-1.887 11.538 2.871 35.878 25.565 6.681 6.23 18.322 10.734 18.322 7.089 0-2.841-34.824-34.777-53.838-49.376-7.831-6.014-16.638-9.788-65.183-27.94-23.478-8.778-33.838-13.532-42.908-19.688-5.767-3.913-11.442-4.427-21.683-1.963Zm3.381 28.784c1.747 0 8.957-12.048 8.957-14.966 0-3.616-19.203-3.395-25.799.296-2.1 1.175 13.393 14.67 16.842 14.67Zm-10.365 5.373c-3.343-2.659-9.593-7.57-13.889-10.91-.454-.353-.881-.689-1.286-1.007-2.561-2.01-4.243-3.332-6.152-3.964-3.658-1.211-8.151.102-21.247 3.929l-3.42.998c-10.778 3.138-28.037 7.487-38.353 9.664-22.936 4.84-23.218 5.459-5.524 12.117 7.767 2.923 28.704 11.942 46.527 20.042 3.461 1.573 6.573 3.01 9.378 4.305l.009.004.014.006.003.002c14.792 6.829 21.024 9.706 24.703 7.76 2.679-1.418 4.005-5.392 6.297-12.261v-.001a377.997 377.997 0 0 1 2.033-5.975l6.987-19.874-6.08-4.835Zm46.9 15.858c0 3.309 1.951 2.374 14.406-6.897.776-.577 1.51-1.12 2.202-1.63 4.965-3.664 7.699-5.681 7.551-7.458-.182-2.177-4.69-3.993-14.721-8.034a1793.081 1793.081 0 0 1-6.128-2.48c-10.869-4.414-15.967-6.484-17.144-5.135-1.039 1.191.983 5.053 4.791 12.325l.989 1.89c4.43 8.485 8.054 16.323 8.054 17.418Zm-20.566-7.638c10.303 7.243 11.053 6.415 5.096-5.61-6.68-13.483-7.008-13.686-10.641-6.564-1.717 3.366-2.913 6.258-2.657 6.426.255.17 3.946 2.756 8.202 5.748Zm93.485 20.004c15.949-5.456 14.486-7.14-15.937-18.344-1.192-.439-2.312-.853-3.366-1.244-10.298-3.812-14.298-5.293-17.617-4.358-2.107.594-3.941 2.161-6.938 4.724l-.003.003-.014.011c-.478.41-.985.843-1.528 1.303-4.425 3.743-10.294 8.516-13.045 10.606l-4.999 3.8 12.926 8.424 12.925 8.426 13.182-4.754c7.251-2.615 18.237-6.484 24.414-8.597Zm-377.057 25.367c1.748.671 52.693-20.371 55.137-22.773 1.324-1.302-31.222-1.485-50.366-.283l-.848.052h-.005c-3.526.216-5.543.339-6.576 1.411-1.381 1.433-1.003 4.561-.12 11.872l.05.409.11.916c.511 4.261 1.689 8.041 2.618 8.396Zm-73.038-.538c1.881 1.148 9.795 6.108 17.585 11.021 8.486 5.352 11.863 7.956 15.39 8.178 3.493.22 7.134-1.897 16.031-5.996 8.237-3.796 12.127-5.278 13.604-8.048 1.473-2.76.548-6.799-.858-15.683l-1.723-10.886-7.258-.326c-7.7-.347-10.678.518-37.012 10.745-19.367 7.523-20.337 8.199-15.759 10.995Zm241.548-29.524c-.279-1.952-3.822-3.439-10.54-6.257-.948-.398-1.959-.822-3.034-1.278a538.187 538.187 0 0 1-5.163-2.23c-6.144-2.679-9.971-4.347-13.916-4.704-6.515-.589-13.354 2.4-31.486 10.327a3069.98 3069.98 0 0 1-9.195 4.007c-1.274.552-2.473 1.065-3.594 1.546-7.525 3.223-11.56 4.951-11.7 6.953-.163 2.315 4.886 4.996 15.774 10.778l.008.004c1.401.744 2.898 1.539 4.492 2.391a525.912 525.912 0 0 1 7.599 4.155c7.615 4.225 11.81 6.552 15.949 6.456 5.076-.118 10.068-3.88 21.182-12.257l.006-.004.017-.013c2.631-1.982 5.604-4.223 9.001-6.734 1.139-.842 2.21-1.629 3.214-2.367 7.943-5.836 11.697-8.595 11.386-10.773Z" clip-rule="evenodd"/><path fill="#A72C2F" fill-rule="evenodd" d="M350.255 176.869c50.954.212 133.905.212 184.337 0 50.43-.212 8.741-.385-92.645-.385-101.385 0-142.648.173-91.692.385Z" clip-rule="evenodd"/><path fill="#254147" d="M600.521 159.444c-5.388.278-14.207.278-19.595 0-5.388-.281-.98-.508 9.797-.508 10.777 0 15.185.227 9.798.508Zm-2.59 152.779c-1.012 0-1.447-20.096-1.34-61.705.098-37.297.691-61.376 1.501-60.875 1.937 1.196 1.778 122.58-.161 122.58Zm27.594-.705c-1.608.994-2.055-117.194-.45-118.799.531-.533 1.114-.969 1.291-.969 1.172 0 .338 119.039-.841 119.768Zm75.944-42.726c-14.227-8.841-14.523-48.326-.434-57.881 4.929-3.342 5.755-3.425 27.902-2.804 29.215.82 27.183-1.12 27.543 26.276l.29 21.958.906-16.692.907-16.692.105 19.225c.058 10.574-.434 18.891-1.092 18.485-.657-.407-1.608.56-2.112 2.146-2.739 8.631-42.641 13.046-54.015 5.979Zm-91.877 193.659c-.927-.574-1.451-21.061-1.451-56.694 0-36.23.509-55.796 1.451-55.796.944 0 1.452 19.865 1.452 56.693 0 37.427-.494 56.389-1.452 55.797Z"/><path fill="#D4D4D4" d="M351.855 770.887c-72.97 0-173.474-84.781-112.389-94.806 1.996-.328 4.541-.685 5.655-.794 1.116-.109 5.538 2.132 9.825 4.978 17.601 11.682 43.261 17.128 80.318 17.045l25.4-.057.424 5.957c.563 7.934 3.079 11.402 13.016 17.948 21.782 14.349 18.894 46.845-4.368 49.138-5.395.531-9.797 1.665-9.797 2.52 0 1-.622.933-1.742-.187-.958-.958-3.812-1.742-6.342-1.742Zm186.637-13.633c2.086-17.224 8.289-35.937 16.635-50.174 7.314-12.474 7.292-12.46 15.794-10.1 3.08.855 12.176 1.995 20.216 2.533l14.616.977 4.072 22.738c5.374 30.02 7.858 36.281 19.58 49.353 16.162 18.024 20.296 29.328 22.364 61.165 1.661 25.536 2.469 27.762 15.451 42.558 12.159 13.859 18.316 22.716 23.186 33.351l3.683 8.046-3.223 8.964c-17.152 47.718-60.252 87.235-115.71 106.075l-10.487 3.57-4.279-13.33c-14.604-45.484-40.432-110.905-59.983-151.942-15.753-33.06-17.045-25.588 9.16-52.996 23.286-24.356 24.935-27.823 28.925-60.788ZM.002 1182.59c.033-107.09 1.055-122.16 8.365-123.28 65.695-9.99 116.315 19.91 140.508 82.99 2.943 7.68 12.402 27.67 21.021 44.43 16.451 32 23.57 49.25 29.482 71.44 1.96 7.35 4.026 14.12 4.594 15.03 2.343 3.8-192.07 7.07-201.632 3.4-2.155-.83-2.364-9.26-2.338-94.01Zm311.717-65.26c9.912-19.91 28.85-33.86 51.693-38.08 5.674-1.05 13.255-1.79 16.847-1.64l6.532.26.187 98.89.186 98.89-6.108.84c-30.926 4.24-130.093.71-128.42-4.57.677-2.15 3.887-12.28 7.129-22.52 5.937-18.75 11.69-31.49 29.285-64.84 6.051-11.47 10.197-21.35 11.268-26.86 4.598-23.62 6.616-30.76 11.401-40.37Z"/></svg>