<svg xmlns="http://www.w3.org/2000/svg" width="1142" height="1081" fill="none"><path fill="#E1FF01" fill-rule="evenodd" d="M756.261 225.073c-1.474 6.554-2.807 185.863-1.643 221.002l1.095 33.051 3.645-.442 3.645-.443-.547-17.392c-.961-30.565-.474-208.175.609-222.595 1.11-14.774-4.152-24.97-6.804-13.181ZM263.908 828.907c0 1.929 3.552 8.039 4.672 8.039.721 0 1.105 1.416.856 3.148-.402 2.78.729 3.447 9.695 5.718 16.233 4.112 16.833 3.399 4.414-5.242-6.301-4.385-12.248-7.972-13.216-7.972-.969 0-2.137-.978-2.597-2.174-.745-1.942-3.824-3.163-3.824-1.517Zm61.491 103.374-17.521.406.154 6.116.154 6.117 13.017.271c7.161.148 15.372.698 18.249 1.221 6.153 1.119 7.704-1.109 6.234-8.948-1.141-6.079.489-5.663-20.287-5.183Z" clip-rule="evenodd"/><path fill="#E1FF01" fill-rule="evenodd" d="M753.142 365.918c0 29.893.193 42.122.43 27.175.234-14.945.234-39.402 0-54.349-.237-14.946-.43-2.718-.43 27.174ZM445.102 519.24c-5.989 1.786-5.879 4.954.417 12.003 3.376 3.777 7.796 8.822 9.824 11.209 6.24 7.348 11.98 5.119 9.345-3.629-3.833-12.732-12.732-21.629-19.586-19.583ZM307.407 946.007c-.003.599 6.627 1.087 14.734 1.087 8.106 0 14.249-.488 13.651-1.087-.598-.598-7.23-1.087-14.734-1.087-7.505 0-13.648.489-13.651 1.087Z" clip-rule="evenodd"/><path fill="#4F8C99" fill-rule="evenodd" d="M812.984 165.338c-.581.581-1.071 7.634-1.089 15.672-.059 27.338-13.668 42.763-37.8 42.843l-9.562.032-.952 22.826c-2.975 71.311-2.263 227.073 1.054 230.388.404.404 7.881 1.264 16.615 1.91 29.459 2.18 40.221 15.276 32.82 39.936l-.908 3.023 69.97.932c38.481.513 70.229.671 70.548.352 6.246-6.243 6.962-73.923 1.16-109.626l-1.984-12.2 4.754-13.782c33.209-96.272-21.792-197.056-119.69-219.32-12.999-2.957-23.685-4.235-24.936-2.986Zm-98.287 43.497c-39.476 37.398-112.931 123.406-176.242 206.359-20.462 26.811-20.803 27.44-16.442 30.362 10.823 7.251 18.804 20.544 18.804 31.323v3.378l7.611-2.2c46.266-13.376 82.78-34.579 116.662-67.747 15.934-15.599 14.637-16.345 17.145 9.873 7.864 82.192 11.002 94.755 23.96 95.895l9.321.821 3.584-8.46c4.874-11.505 14.217-20.553 26.672-25.834l9.958-4.222-.919-8.044c-1.612-14.086-2.128-157.052-.738-204.047l1.34-45.278-5.619-5.618c-3.09-3.088-6.774-8.639-8.185-12.332-4.333-11.344-10.168-10.092-26.912 5.771ZM125.314 315.923c-1.996 1.998-4.526 5.747-5.621 8.334l-1.989 4.703-1.486-3.88c-5.339-13.939-19.58-12.994-16.93 1.123.926 4.937 14.697 24.687 18.822 26.995 5.633 3.151 22.517-19.367 22.552-30.074.033-10.085-8.472-14.075-15.348-7.201Zm-81.403 51.486c-8.85 3.557-11.31 18.611-5.668 34.685 3.023 8.612 2.218 8.842-5.633 1.609C9.014 381.959-9.048 390.85 4.848 417.368c7.525 14.36 52.617 57.254 58.163 55.328 4.464-1.551 1.447-19.819-5.485-33.211-9.212-17.796-7.623-17.418 4.19.997 5.396 8.412 10.326 15.293 10.955 15.293 1.279 0 3.287-2.827 3.637-5.125.126-.826 3.244-11.162 6.927-22.97 7.23-23.173 8.516-35.204 4.577-42.817-4.084-7.896-10.954-7.923-18.203-.074l-5.383 5.828-.816-5.029c-2.28-14.046-10.565-21.769-19.498-18.179Zm73.95 73.511c-2.343 2.569-3.828 6.151-4.174 10.08-.521 5.877-4.945 18.902-12.783 37.628-17.138 40.949 3.352 33.123 23.256-8.881 14.666-30.952 10.415-57.155-6.299-38.827Zm866.047 256.691c-4.645 5.13-6.324 32.94-2.966 49.146 1.842 8.895 13.761-9.855 17.422-27.408 3.946-18.915-4.93-32.26-14.456-21.738Zm84.632 47.508c-5.98 1.973-12.92 4.218-15.43 4.989-8.58 2.641-53.249 7.299-61.072 6.368-7.481-.888-7.673-.817-9.506 3.538-1.292 3.073-4.284 5.68-9.687 8.441-18.719 9.567-17.918 20.074 1.499 19.703 52.566-1.007 81.856-6.998 106.116-21.706 24.76-15.016 16.07-30.566-11.92-21.333Z" clip-rule="evenodd"/><path fill="#37484A" fill-rule="evenodd" d="M705.389 518.458c-.337.997-2.334 8.334-4.437 16.305-2.106 7.971-11 39.276-19.768 69.567-8.769 30.291-17.45 60.292-19.293 66.669-1.841 6.377-5.096 18.116-7.231 26.087-2.134 7.971-6.12 21.085-8.854 29.14-9.869 29.071-9.338 55.761 1.45 72.847 1.828 2.897 3.739 8.845 4.252 13.234 3.419 29.302 14.794 122.324 18.379 150.305 2.37 18.501 4.31 34.033 4.31 34.517 0 1.796 85.487.325 86.998-1.497 2.977-3.587 7.464-40.907 8.433-70.154l.98-29.588 35.52 26.731c61.111 45.989 103.44 75.755 106.353 74.784 2.388-.796 18.109-24.162 29.661-44.086l10.256-17.688-52.476-50.408c-28.861-27.725-60.633-58.245-70.605-67.822-9.97-9.577-21.882-20.983-26.469-25.344l-8.337-7.932-12.918 12.854-12.918 12.852-6.471-12.893c-52.89-105.362 51.336-231.773 157.516-191.041 5.318 2.04 38.202-77.123 33.845-81.478-.323-.323-31.998-1.006-70.388-1.517-38.391-.512-69.8-1.438-69.8-2.057 0-.62-1.794-.193-3.987.951-2.194 1.143-5.575 2.083-7.516 2.088-10.491.026-22.44 10.875-28.462 25.839-12.132 30.147-56.859 11.335-57.107-24.018l-.064-9.059h-5.119c-2.817 0-5.396.816-5.733 1.812Zm-503.998 416c.627.623 9.24.946 19.142.719l18.003-.416-19.143-.718c-10.526-.395-18.628-.208-18.002.415Zm482.23 144.522-59.441.77 58.993.34c38.134.22 59.309-.17 59.889-1.11.493-.8.694-1.3.448-1.11-.246.18-27.197.68-59.889 1.11Z" clip-rule="evenodd"/><path fill="#111F22" fill-rule="evenodd" d="M689.185 111.651c-1.143 2.974 1.206 7.157 4.017 7.157 3.132 0 2.642-8.536-.525-9.145-1.397-.27-2.969.625-3.492 1.988Zm45.019-.197c-1.32 3.437.546 6.906 3.417 6.354 1.605-.309 2.541-1.81 2.541-4.072 0-4.132-4.575-5.883-5.958-2.282ZM303.355 230.649c-2.626 1.293-6.01 3.923-7.522 5.844l-2.749 3.494-5.938-3.928c-11.013-7.285-23.478-4.675-29.038 6.082-1.196 2.314-2.337 4.478-2.534 4.808-.197.331-3.795-1.137-7.994-3.261-15.507-7.843-28.955-2.094-32.171 13.756-.761 3.748-1.002 3.828-9.216 3.084-18.115-1.642-25.934 9.947-18.481 27.389.769 1.802-.118 3.039-3.401 4.735-12.168 6.29-11.888 23.88.487 30.804 2.455 1.372 2.546 2.155.979 8.375-2.671 10.599 4.172 23.94 12.277 23.94 1.567 0 2.063 2.208 2.063 9.193 0 18.483 9.187 27.888 25.851 26.463 7.201-.616 9.999-.248 12.984 1.708 7.287 4.772 25.128 2.923 24.879-2.58-.111-2.441-16.284-11.595-20.496-11.601-13.103-.014-24.359-16.567-20.08-29.528 5.541-16.786 27.802-16.647 30.06.189.967 7.207 3.581 7.969 9.936 2.895 2.245-1.794 6.737-4.565 9.981-6.159 7.007-3.444 10.967-10.351 10.97-19.138.002-5.904.172-6.124 5.439-7.056 9.401-1.664 14.771-5.022 18.672-11.677l3.713-6.333h9.429c12.225 0 18.452-2.922 21.646-10.16 2.447-5.542 6.886-8.682 12.278-8.682 7.962 0 12.836-12.719 7.688-20.065-1.329-1.897-2.021-4.905-1.616-7.024 2.734-14.3-12.095-24.137-25.697-17.047-4.159 2.169-4.356 2.109-7.853-2.358-6.317-8.068-15.83-10.456-24.546-6.162Zm45.165 107.006c-1.283 3.34.625 6.791 3.458 6.254 3.968-.753 4.348-8.428.417-8.428-1.673 0-3.417.978-3.875 2.174Zm-26.064 1.365c-2.133 5.554 3.853 11.128 6.859 6.386 1.736-2.741 1.599-3.606-.995-6.199-2.839-2.836-4.823-2.9-5.864-.187Zm8.142 29.156c0 12.222 16.508 13.615 22.567 1.903 3.187-6.161 2.911-6.334-10.249-6.389l-12.318-.05v4.536ZM94.13 434.733c-33.986 22.279-37.44 75.374-6.106 93.856 2.644 1.56 4.809 3.441 4.809 4.178 0 2.121-7.146-2.123-17.398-10.327-16.69-13.359-28.411-16.614-36.611-10.166-12.363 9.721-.838 25.25 29.452 39.687 18.267 8.707 25.13 14.177 38.251 30.485 14.537 18.068 13.81 18.558-3.183 2.148-25.043-24.184-40.183-31.172-48.822-22.536-9.947 9.944-2.785 26.749 16.594 38.946 4.66 2.934 17.132 14.674 29.844 28.095l28.702 30.304 6.86 7.246-.574-19.994c-.574-19.937-.593-20.03-6.278-31.161l-5.7-11.165 3.218-7.971c12.744-31.559 5.528-53.795-23.985-73.911-10.784-7.351-10.853-16.434-.307-40.39 16.378-37.206 11.985-60.927-8.766-47.324Zm364.492 79.654c-3.991 3.473-4.021 3.615-1.602 7.609 5.966 9.844 8.456 15.125 8.738 18.533.347 4.187.115 4.117 7.216 2.146 7.054-1.958 11.301-7.476 11.301-14.682 0-13.917-15.714-22.252-25.653-13.606Zm-38.5 8.171c-4.238 2.469-7.245 9.837-6.228 15.26l.916 4.879 9.319-.139c21.238-.319 34.215 20.409 24.61 39.306-1.013 1.993-4.226 22.211-7.141 44.929-6.414 49.997-4.731 44.929-14.913 44.929h-8.387l-5.564-19.622c-3.061-10.792-5.186-20.412-4.722-21.378.464-.965 5.415-7.951 11.002-15.523 12.447-16.869 14.001-21.389 10.259-29.845-6.953-15.715-25.413-10.871-20.212 5.303l2.066 6.425-6.644 8.696c-17.358 22.714-16.88 17.962-5.745 57.129 9.989 35.138 9.744 33.416 5.343 37.549-4.487 4.213-4.165 4.393-10.497-5.865-10.356-16.772-34.027-37.768-60.365-53.542l-10.595-6.347-63.428.49-63.429.49v9.896c0 21.871 11.365 43.139 29.623 55.432 1.036.698.949 1.601-.276 2.826-4.162 4.161-.613 14.715 6.698 19.919 9.625 6.851 30.157 8.85 61.816 6.015 16.383-1.468 16.329-1.587 2.972 6.741-15.271 9.523-55.069 37.195-62.3 43.32-9.862 8.354-13.341 14.755-22.05 40.575l-8.354 24.767-17.9-.69C67.358 839.915 41.08 1014.01 155.173 1048.68c57.157 17.37 123.232-32.19 123.232-92.446v-6.338l28.828.992c16.3.561 30.003.427 31.533-.306 1.835-.88-2.656-1.532-13.968-2.03l-16.672-.735-.76-5.073c-1.77-11.834-1.956-11.726 19.355-11.273l18.965.403 1.558 6.403 1.557 6.405 5.16-6.026c2.837-3.315 6.407-8.479 7.933-11.476 1.525-2.999 5.234-9.186 8.242-13.751 15.221-23.107 31.501-49.651 31.501-51.364 0-3.072-12.974-2.562-15.379.604-1.06 1.395-8.257 11.831-15.994 23.189-10.781 15.827-14.797 20.653-17.19 20.653-1.718 0-4.556 1.525-6.307 3.387l-3.182 3.386-7.014-3.47c-5.322-2.633-9.718-3.536-18.237-3.748l-11.224-.279-5.389-14.494a7641.672 7641.672 0 0 1-10.169-27.537c-5.776-15.761-5.074-14.951-14.947-17.245l-8.015-1.862 1.134 3.756c.623 2.067 5.711 16.982 11.307 33.146l10.173 29.389-3.39 6.119c-1.865 3.366-3.839 8.566-4.387 11.554-1.507 8.231-4.372 6.619-7.028-3.952-7.474-29.743-24.146-53.284-47.929-67.674-9.723-5.883-9.718-3.534-.072-31.136 7.803-22.333 13.677-32.386 18.924-32.386.931 0 4.429 7.755 7.772 17.233 9.93 28.152 20.516 12.099 11.095-16.822-2.245-6.89-3.449-12.774-2.716-13.277 6.535-4.489 22.825-16.383 28.473-20.79 9.541-7.446 10.018-7.05 5.944 4.923-4.795 14.099-4.697 14.622 3.349 17.686 16.685 6.354 32.078 11.536 38.782 13.057 6.362 1.443 7.419 2.22 8.637 6.339l1.387 4.694 18.185-.143c10.002-.078 21.732-.568 26.068-1.087l7.884-.944 2.614-7.577c6.734-19.52 8.576-44.434 4.703-63.674-3.147-15.642-3.163-15.013.457-17.464 2.679-1.815 3.356-1.854 3.887-.22.354 1.087 4.913 17.303 10.132 36.035 5.22 18.733 12.785 44.713 16.814 57.735l7.324 23.675-2.94 4.758c-5.544 8.965-2.388 19.017 3.384 10.78 2.505-3.575 5.278-2.491 5.259 2.054-.008 2.304-2.496 4.765-9.061 8.965-110.62 70.789-10.321 246.179 102.86 179.869 93.65-54.865 45.42-211.062-60.198-194.955-20.107 3.067-16.832 6.718-28.074-31.285-41.95-141.817-38.628-126.815-28.08-126.815 11.016 0 15.038-1.885 17.756-8.325 2.607-6.178 1.683-7.385 9.151 11.948 6.204 16.057 13.134 25.656 23.545 32.606 14.268 9.525 16.195 8.723 20.01-8.329 1.738-7.772 3.994-17.505 5.011-21.63 2.232-9.034 1.297-14.992-5.784-36.89-6.51-20.131-6.334-22.158.699-8.035 7.776 15.614 13.255 22.746 14.582 18.978 3.066-8.715 3.585-12.051 2.689-17.28-.545-3.189-1.431-17.211-1.969-31.161-1.17-30.387-2.904-41.017-7.536-46.195l-3.404-3.806-2.653 3.123c-3.768 4.435-7.372 16.853-8.786 30.281l-1.215 11.525-.193-10.389c-.334-18.022-3.449-19.825-10.219-5.916-13.01 26.731-13.582 63.254-1.332 85.139l4.466 7.979-7.789-8.12c-4.806-5.01-11.122-9.69-16.489-12.218-4.784-2.253-8.868-4.203-9.075-4.335-.209-.13 1.912-18.555 4.711-40.944 6.004-48.022 6.285-57.86 1.985-69.476-8.449-22.825-27.95-38.795-39.302-32.187ZM155.35 575.354c-11.292 10.2-12.375 15.085-12.961 58.487-.603 44.643 1.412 50.067 11.359 30.584 23.699-46.417 24.844-110.06 1.602-89.071Zm403.434 48.477c-3.803 1.577-6.607 8.464-10.646 26.151-1.728 7.573-4.396 19.26-5.925 25.972-1.718 7.538-5.779 18.202-10.623 27.899-4.313 8.632-7.505 15.696-7.095 15.696 6.219 0 28.063-18.173 35.302-29.368 7.939-12.279 17.808-43.57 17.909-56.79l.08-10.221-7.974-.303c-4.385-.167-9.348.267-11.028.964ZM72.541 645.997c.032 10.741 22.766 23.744 49.917 28.55 15.464 2.737 16.056 1.759 4.046-6.708-18.728-13.203-53.98-27.472-53.963-21.842Zm1000.699 7.459c-3.1 2.805-7.42 9.195-10.04 14.856a5443.79 5443.79 0 0 1-13.32 28.411c-9.99 21.167-10.21 20.912 9.45 11.274 21.72-10.651 31.98-23.692 33.46-42.527 1.28-16.267-8.31-22.162-19.55-12.014Zm-45.15 21.283c-7.1 4.327-9.8 7.857-15.99 20.897-6.49 13.686-21.326 56.804-20.003 58.127 6.149 6.148 31.343-22.003 41.483-46.359 12.35-29.657 10.23-42.249-5.49-32.665Zm84.66 9.066c-4.79 1.78-17.83 8.042-28.99 13.915-11.16 5.874-25.5 13.249-31.86 16.392-23.48 11.601-42.31 33.061-30.84 35.151 41.69 7.598 125.51-32.809 120.75-58.207-1.98-10.511-12.93-13.245-29.06-7.251Zm-180.917 38.658c-1.749 2.495-1.753 4-.026 10.507 1.107 4.177 2.577 15.812 3.266 25.854 1.279 18.643 2.479 22.65 10.153 33.916 1.629 2.391 2.996 5.978 3.038 7.971.122 5.713 5.341-8.836 6.951-19.377 5.522-36.166-10.691-76.986-23.382-58.871Zm42.032 68.746c-5.556 1.982-15.665 8.37-18.337 11.589-1.563 1.881 19.978 9.213 38.758 13.192 20.644 4.374 38.934 1.529 48.384-7.526 7.17-6.869 5.97-7.889-11.83-9.991-4.38-.517-16.53-2.834-27-5.149-21.532-4.76-22.39-4.819-29.975-2.115ZM519.07 866.903c67.932 18.596 80.173 113.717 19.676 152.927-65.891 42.7-147.447-32.882-114.858-106.449 6.414-14.479 28.373-38.75 35.062-38.753 2.994-.003 19.376 62.268 18.524 70.412-1.302 12.448 6.705 22.324 18.109 22.337 20.969.024 24.465-28.413 4.318-35.127-4.255-1.418-6.34-3.058-7.042-5.543-.548-1.94-4.622-15.92-9.052-31.066-4.432-15.145-7.587-28.013-7.013-28.595 3.606-3.653 29.138-3.739 42.276-.143Zm-322.685-.839c.696.697-6.546 23.315-15.07 47.071-1.323 3.687-2.81 4.759-8.68 6.264-30.788 7.888-24.782 53.756 6.806 51.981 12.209-.687 19.049-6.358 22.736-18.853.68-2.303 3.342-2.536 28.926-2.536h28.18l-.712 6.159c-7.932 68.65-84.655 99.16-131.528 52.3-45.772-45.756-25.303-126.268 36.104-141.999 7.071-1.812 31.533-2.096 33.238-.387Zm26.464 12.422c14.539 9.648 29.798 32.018 33.556 49.195l1.302 5.951-15.248.934c-33.601 2.055-39.908 1.524-43.754-3.676l-3.407-4.607 6.222-18.944c7.778-23.679 11.642-34.162 12.59-34.162.406 0 4.339 2.388 8.739 5.309Zm760.002 96.565c-4.454 9.629-18.469 28.319-26.546 35.389l-6.269 5.49 1.302 21.74c1.361 22.74 3.754 34.4 8.177 39.86l2.628 3.25 2.363-3.61c5.359-8.18 48.944-90.894 48.944-92.889 0-.878-14.842-10.477-21.251-13.745l-5.876-2.997-3.472 7.512Zm-300.753 60.329c-.757.73-8.227 3.7-16.6 6.6-23.394 8.09-33.127 15.14-38.422 27.81-4.11 9.83-8.071 9.19 56.545 9.19h58.716v-3.3c0-4.03-2.655-26.65-3.641-31.02-.652-2.89-1.359-3.09-8.539-2.34-9.652.99-29.465-1.78-39.24-5.49-8.62-3.28-7.169-3.04-8.819-1.45Z" clip-rule="evenodd"/><path fill="#EAE7D9" d="M295.833 236.493c1.512-1.921 4.896-4.551 7.522-5.844 8.716-4.294 18.229-1.906 24.546 6.162 3.497 4.467 3.694 4.527 7.853 2.358 13.602-7.09 28.431 2.747 25.697 17.047-.405 2.119.287 5.127 1.616 7.024 5.148 7.346.274 20.065-7.688 20.065-5.392 0-9.831 3.14-12.278 8.682-3.194 7.238-9.421 10.16-21.646 10.16h-9.429l-3.713 6.333c-3.901 6.655-9.271 10.013-18.672 11.677-5.267.932-5.437 1.152-5.439 7.056-.003 8.787-3.963 15.694-10.97 19.138-3.244 1.594-7.736 4.365-9.981 6.159-6.355 5.074-8.969 4.312-9.936-2.895-2.258-16.836-24.519-16.975-30.06-.189-4.279 12.961 6.977 29.514 20.08 29.528 4.212.006 20.385 9.16 20.496 11.601.249 5.503-17.592 7.352-24.879 2.58-2.985-1.956-5.783-2.324-12.984-1.708-16.664 1.425-25.851-7.98-25.851-26.463 0-6.985-.496-9.193-2.063-9.193-8.105 0-14.948-13.341-12.277-23.94 1.567-6.22 1.476-7.003-.979-8.375-12.375-6.924-12.655-24.514-.487-30.804 3.283-1.696 4.17-2.933 3.401-4.735-7.453-17.442.366-29.031 18.481-27.389 8.214.744 8.455.664 9.216-3.084 3.216-15.85 16.664-21.599 32.171-13.756 4.199 2.124 7.797 3.592 7.994 3.261.197-.33 1.338-2.494 2.534-4.808 5.56-10.757 18.025-13.367 29.038-6.082l5.938 3.928 2.749-3.494Z"/><path fill="#111F22" d="M351.978 343.909c-2.833.537-4.741-2.914-3.458-6.254.458-1.196 2.202-2.174 3.875-2.174 3.931 0 3.551 7.675-.417 8.428Zm-22.663 1.497c-3.006 4.742-8.992-.832-6.859-6.386 1.041-2.713 3.025-2.649 5.864.187 2.594 2.593 2.731 3.458.995 6.199Zm23.85 24.673c-6.059 11.712-22.567 10.319-22.567-1.903v-4.536l12.318.05c13.16.055 13.436.228 10.249 6.389Z"/><path fill="#151936" d="M740.73 99.011c7.001.412 8.46-3.234 2.239-5.6-4.509-1.713-5.149-1.72-7.729-.088-3.631 2.299-.712 5.322 5.49 5.689Zm-47.685 1.683c4.832 0 5.799-.482 5.799-2.898 0-2.224-.928-2.873-3.987-2.785-9.461.271-11.186 5.683-1.812 5.683Z"/><path fill="#3B3A35" d="M749.586 1.614c-1.993.336-8.117 1.662-13.609 2.948-7.981 1.867-12.928 2.088-24.646 1.101-36.219-3.05-48.252 2.215-49.879 21.83-1.702 20.518 31.755 30.547 67.312 20.177 30.139-8.79 45.951 3.258 50.131 38.195l1.718 14.366 6.344-4.842c10.985-8.381 20.057-8.261 28.45.377l4.943 5.09 1.485-6.966c11.166-52.407-26.138-100.052-72.249-92.276Z"/><path fill="#3B3A35" fill-rule="evenodd" d="M674.199 130.103c-.055 55.255 57.574 85.075 95.635 49.484 28.759-26.892 13.453-63.253-17.629-41.878-8.155 5.607-14.342 6.376-23.976 2.978-12.911-4.553-24.708-4.561-33.107-.018-9.26 5.005-13.283 3.714-17.983-5.777-1.617-3.266-2.94-5.421-2.94-4.789Zm28.204 33.701c7.832 7.831 25.436.864 25.436-10.066v-3.768l-12.685.115c-17.615.159-21.806 4.668-12.751 13.719Z" clip-rule="evenodd"/><path fill="#BFD1C8" fill-rule="evenodd" d="m512.283 560.823-5.048 5.046 3.054 4.286c4.759 6.683 7.032 20.202 8.549 50.842 1.239 25.03 4.201 45.406 4.49 30.884.081-4.143 2.218-7.502 3.778-5.943 1.225 1.225-5.967 17.847-10.462 24.181-.221.311-1.561-.329-2.976-1.425-2.297-1.78-2.286-1.658.103 1.146 2.686 3.154-.054 12.028-3.713 12.028-.625 0-1.137 1.584-1.137 3.522 0 3.649-7.675 38.748-9.451 43.219-1.539 3.877 3.122 3.175 12.22-1.838 4.314-2.377 8.88-4.374 10.149-4.436 1.305-.066 1.57-.415.613-.806-1.102-.45.305-4.154 4.032-10.615 8.789-15.241 12.854-26.52 17.405-48.297 2.296-10.987 5.378-23.543 6.85-27.899 3.088-9.144 2.049-9.869-6.16-4.3-2.937 1.992-5.506 3.623-5.708 3.623-.203 0 .222-5.706.942-12.682 4.45-43.05-11.012-77.048-27.53-60.536ZM48.694 585.28c-.442 2.107-1.124 5.383-1.514 7.279-2.91 14.169 17.611 53.95 26.144 50.678 5.168-1.983 38.343 12.593 54.102 23.77 7.284 5.167 9.487 6.12 10.489 4.542 2.168-3.423 1.431-4.875-.971-1.914-1.256 1.546-1.86 1.982-1.344.966 1.817-3.569-52.576-60.362-65.964-68.873-7.94-5.048-13.41-10.209-17.82-16.81l-2.317-3.47-.805 3.832Zm179.257 49.839c6.938.265 18.681.267 26.097.003 7.417-.264 1.741-.481-12.612-.483-14.353-.001-20.42.215-13.485.48Zm700.131 89.866c-.094.998-1.081 1.812-2.192 1.812-4.475 0-5.221 21.456-1.585 45.653 6.917 46.028 26.044 64.495 66.796 64.495 28.239 0 49.769-14.325 24.969-16.606-20.47-1.88-54.505-10.048-63.882-15.328-1.398-.787-2.436-.935-2.307-.329.37 1.73-1.863 6.175-3.101 6.175-.615 0-.813-2.772-.444-6.159.576-5.26-.206-7.672-5.351-16.515-5.816-9.996-6.074-10.98-7.402-28.262-1.207-15.684-5.024-39.931-5.501-34.936Z" clip-rule="evenodd"/><path fill="#7C8C01" fill-rule="evenodd" d="M307.634 410.371c-.841 21.909-45.861 26.225-49.696 4.765-.776-4.339-.922-4.485-1.087-1.084-.15 3.07-2.02 5.174-8.528 9.598-33.052 22.465-56.807 77.109-67.202 154.591-7.64 56.946-8.932 56.025 77.972 55.597 53.231-.264 65.942.043 67.861 1.633 1.674 1.39 2.229 1.448 1.913.2-.251-.997 3.007-2.978 7.53-4.577 4.821-1.702 9.856-4.842 12.732-7.936l4.757-5.119-.407-16.937-.409-16.938-9.003-1.819c-70.055-14.157-117.298-74.31-86.151-109.696 12.979-14.746 25.644-11.735 50.312 11.966 15.997 15.37 36.759 31.86 43.247 34.349 2.759 1.058 2.653-6.622-.471-33.842-.573-4.981-.481-9.058.202-9.058.682 0 .652-1.142-.069-2.536-.72-1.394-1.774-5.102-2.341-8.238-2.979-16.469-19.487-40.784-32.748-48.236-5.621-3.158-7.176-4.863-7.623-8.35-.443-3.478-.607-3.135-.791 1.667Z" clip-rule="evenodd"/><path fill="#1A2223" fill-rule="evenodd" d="M1037.48 561.418c-3.12 3.959-5.37 12.636-7.43 28.534l-1.16 9.04-1.96-9.793c-5.27-26.345-27.315-42.388-27.285-19.856.009 7.132 15.715 37.908 24.435 47.882 2.17 2.486 2.55 4.514 1.77 9.417-2.08 13.003 34.42-10.613 37.89-24.515 2.82-11.325-9.74-12.368-20.06-1.663-7.9 8.194-7.93 7.474-.31-8.793 11.29-24.106 6.92-46.55-5.89-30.253Zm-51.088 29.584c-4.172 4.175-.036 12.166 18.418 35.593 12.93 16.404 15.12 17.365 14.05 6.136-1.79-18.613-25.331-48.87-32.468-41.729Zm-126.712 7.35c-93.166 16.536-143.873 119.92-99.892 203.669l5.448 10.373 14.929-14.797c58.83-58.312 150.963-184.143 141.65-193.462-5.368-5.371-44.129-8.981-62.135-5.783Z" clip-rule="evenodd"/><path fill="#579AA8" fill-rule="evenodd" d="M1018.35 429.92c-3.73 1.806-8.35 9.785-10.78 18.606l-1.79 6.522-1.83-6.925c-4.525-17.187-18.524-22.628-21.647-8.413-1.492 6.794 15.539 36.372 22.437 38.957 2.84 1.069 19.48-16.732 23.43-25.068 7.74-16.339 2.27-29.535-9.82-23.679ZM215.773 709.01c-22.57 13.995-6.572 38.1 25.254 38.049 31.057-.048 40.095-1.703 51.411-9.406l9.889-6.734-21.747.974c-37.952 1.702-55.087-4.333-58.115-20.463-1.055-5.623-1.352-5.732-6.692-2.42Z" clip-rule="evenodd"/><path fill="#DBB385" fill-rule="evenodd" d="M725.665 49.504c-12.374 3.389-31.075 4.05-46.334 1.638-6.266-.991-9.364 61.499-3.79 76.443 5.76 15.438 9.096 17.289 20.457 11.349 8-4.181 19.831-4.069 32.231.305 9.978 3.519 16.474 2.675 24.449-3.177 16.545-12.143 36.676-3.512 33.965 14.561-2.914 19.424-26.585 44.277-42.173 44.277-3.438 0-2.545 7.491 1.65 13.841 14.429 21.841 48.641 17.832 61.901-7.254 3.586-6.783 4.536-49.219 1.38-61.586-1.548-6.07-1.425-6.664 2.094-10.145 10.78-10.667 10.243-31.213-.97-37.008-8.277-4.279-13.76-2.964-26.022 6.237-5.309 3.985-5.334 3.941-6.603-11.839-2.821-35.085-18.999-46.743-52.235-37.642Zm17.303 43.907c6.221 2.366 4.762 6.012-2.239 5.6-6.202-.366-9.12-3.39-5.49-5.688 2.581-1.632 3.22-1.625 7.729.088Zm-44.124 4.385c0 2.416-.967 2.898-5.8 2.898-9.374 0-7.649-5.412 1.813-5.683 3.059-.088 3.987.561 3.987 2.785Zm-2.967 12.239c3.016 3.631 1.28 8.719-3.144 9.229-3.199.368-4.113-.246-4.875-3.28-1.584-6.313 4.172-10.584 8.019-5.949Zm45.735 2.82c0 5.216-3.821 8.075-7.127 5.332-4.528-3.756-1.557-10.767 4.21-9.939 2.155.309 2.917 1.515 2.917 4.607Zm-41.319 42.913c0 10.322 13.731 14.034 21.859 5.909 8.078-8.076 6.203-10.257-8.811-10.257h-13.048v4.348ZM343.437 293.091c-4.007 8.077-8.732 10.291-22.263 10.436-8.623.093-8.727.145-12.074 6.002-3.621 6.336-12.191 11.371-19.459 11.429-3.523.028-3.988.58-3.995 4.742-.019 11.079-7.204 22.827-13.96 22.827-1.182 0-4.658 2.016-7.726 4.481-7.501 6.025-10.795 5.26-11.369-2.64-1.105-15.205-20.18-16.791-27.646-2.299-6.108 11.854 5.249 29.63 19.231 30.102 4.841.164 7.625 1.525 14.398 7.04 54.437 44.326 110.084 12.697 98.962-56.25-6.341-39.312-9.016-46.115-14.099-35.87Zm12.532 45.858c0 5.216-3.821 8.074-7.127 5.332-4.528-3.757-1.557-10.767 4.21-9.94 2.155.309 2.917 1.515 2.917 4.608Zm-25.371 2.93c0 4.596-3.813 7.693-7.008 5.692-3.422-2.144-3.937-7.921-.904-10.138 3.423-2.502 7.912.021 7.912 4.446Zm-19.755 19.622c8.407 3.196 7.877 13.975-.865 17.595-10.271 4.254-17.759-9.009-8.983-15.909 4.443-3.494 4.888-3.571 9.848-1.686Zm45.851 2.316c0 3.547-4.027 10.408-7.563 12.883-7.989 5.595-19.983.068-19.983-9.207v-4.355l11.961-.489c6.579-.268 12.777-.621 13.773-.782.997-.163 1.812.714 1.812 1.95Zm-52.737 44.391c-1.724.976-10.616 1.315-24.284.927l-21.564-.613v3.432c0 18.422 38.143 22.039 47.228 4.478 3.055-5.906 2.315-10.312-1.38-8.224Zm182.493 36.897c-20.561 5.038-32.629 13.498-38.428 26.934-8.048 18.649.216 48.907 11.033 40.401 7.06-5.552 17.235-3.066 24.279 5.931l3.662 4.678 7.702-5.35c4.235-2.944 14.812-11.591 23.505-19.217 8.694-7.625 17.102-14.771 18.684-15.879 6.742-4.722-.902-25.784-12.103-33.348-6.388-4.314-28.081-6.661-38.334-4.15ZM745.962 483.8c-25.492 12.192-35.393 36.155-24.713 59.815 9.471 20.985 44.144 26.74 50.126 8.321 5.06-15.579 15.055-25.418 29.145-28.691 12.422-2.886 14.783-5.854 14.034-17.635-1.173-18.396-10.394-24.399-39.597-25.775l-18.847-.887-10.148 4.852Zm-335.703 61.473c-4.525 3.166-7.608 15.456-6.847 27.297.57 8.877.301 10.722-1.634 11.239-1.885.504-1.911.648-.141.767 2.875.192 4.619-1.163 7.678-5.97 5.173-8.125 19.409-2.677 22.216 8.503 2.698 10.751 19.399-4.8 19.399-18.066 0-18.545-26.229-33.876-40.671-23.77Z" clip-rule="evenodd"/><path fill="#EAE7D9" fill-rule="evenodd" d="M300.995 363.185c-8.776 6.9-1.288 20.163 8.983 15.909 8.742-3.621 9.273-14.399.865-17.595-4.959-1.885-5.405-1.809-9.848 1.686Zm-36.713 106.627c-28.156 18.252-12.428 66.622 29.822 91.714 28.426 16.882 78.328 27.678 104.902 22.694l5.092-.955-.683-10.659c-.773-12.019 2.324-24.171 6.989-27.439 2.058-1.441 2.703-3.59 2.601-8.672-.242-12.035 7.741-18.709 18.971-15.86 13.709 3.479 8.652-1.601-6.824-6.855-18.539-6.294-38.578-15.626-57.642-26.843-16.711-9.83-15.774-10.429-13.836 8.824 2.052 20.364 2.002 25.232-.255 25.232-4.465 0-27.192-17.449-44.273-33.993-23.757-23.01-31.378-25.928-44.864-17.188Zm14.177 326.189c-4.961 5.983-10.685 22.518-9.947 28.736.372 3.126 2.672 5.361 10.935 10.619 5.755 3.664 13.91 9.019 18.122 11.9 4.212 2.883 9.615 5.593 12.007 6.022 2.392.431 7.938 1.893 12.323 3.251 7.899 2.448 106.642 4.871 115.621 2.838 6.95-1.573 3.407-20.634-5.665-30.474-11.522-12.496-25.335-15.403-44.575-9.383-14.618 4.575-36.573 3.595-50.883-2.268-5.183-2.124-13.231-4.761-17.886-5.861-9.802-2.316-18.289-6.968-27.499-15.071-7.906-6.958-7.057-6.937-12.553-.309Zm34.742 97.63c-13.914 4.148-9.855 10.883 7.047 11.691 8.826.421 14.064 1.391 16.639 3.076 4.783 3.134 6.668 3.044 10.943-.516 8.693-7.236-19.391-18.793-34.629-14.251Zm45.691 40.383c-6.235 8.996-15.842 17.135-21.467 18.19-5.827 1.093-36.607.117-40.897-1.296-11.868-3.91-4.388 8.115 8.507 13.676 24.277 10.47 51.535-3.449 57.341-29.28 1.825-8.122 1.37-8.291-3.484-1.29Z" clip-rule="evenodd"/><path fill="#933613" fill-rule="evenodd" d="M261.906 393.645c-9.396 10.97-1.976 15.772 24.314 15.731 21.338-.032 26.245-2.623 10.177-5.375-5.555-.951-14.281-4.034-20.85-7.366-10.971-5.565-11.362-5.651-13.641-2.99Zm26.998 391.131-4.631 5.515 5.712 5.158c9.132 8.248 17.461 12.951 27.5 15.527l9.358 2.403 4.046-7.68c5.311-10.082 4.679-11.092-10.161-16.225-6.932-2.397-15.886-5.676-19.897-7.285l-7.297-2.926-4.63 5.513Zm81.415 21.366c-22.38.486-23.773 1.137-23.773 11.108 0 11.225 51.896 4.651 53.761-6.809l.874-5.381-5.208.318c-2.865.176-14.409.519-25.654.764Z" clip-rule="evenodd"/><path fill="#E1FF01" d="M926.159 981.007c6.943-10.396 15.865-24.818 19.825-32.047l7.202-13.146 15.633 14.534c17.443 16.215 16.885 15.067 12.158 25.005-5.602 11.78-31.351 42.817-35.457 42.737-.516-.01-7.924-4.1-16.462-9.1l-15.524-9.08 12.625-18.903Zm-243.273 52.323c-1.243.77-3.672-7.16-7.004-22.86l-2.531-11.928 43.917-.555c27.315-.345 43.916-.032 43.916.829 0 12.334-17.861 39.964-26.903 41.614-9.189 1.68-32.617-.97-42.831-4.85-4.155-1.58-8.009-2.59-8.564-2.25Z"/></svg>