<svg width="56" height="56" viewBox="0 0 56 56" fill="none" xmlns="http://www.w3.org/2000/svg">
<rect x="4" y="4" width="48" height="48" rx="24" fill="#254147"/>
<rect x="4" y="4" width="48" height="48" rx="24" stroke="#B2D1D7" stroke-width="8"/>
<path d="M38 25H18M18 23.8L18 32.2C18 33.8802 18 34.7202 18.327 35.362C18.6146 35.9265 19.0735 36.3854 19.638 36.673C20.2798 37 21.1198 37 22.8 37H33.2C34.8802 37 35.7202 37 36.362 36.673C36.9265 36.3854 37.3854 35.9265 37.673 35.362C38 34.7202 38 33.8802 38 32.2V23.8C38 22.1198 38 21.2798 37.673 20.638C37.3854 20.0735 36.9265 19.6146 36.362 19.327C35.7202 19 34.8802 19 33.2 19L22.8 19C21.1198 19 20.2798 19 19.638 19.327C19.0735 19.6146 18.6146 20.0735 18.327 20.638C18 21.2798 18 22.1198 18 23.8Z" stroke="#E1FF01" stroke-width="2" stroke-linecap="round" stroke-linejoin="round"/>
</svg>
