<svg width="57" height="56" viewBox="0 0 57 56" fill="none" xmlns="http://www.w3.org/2000/svg">
<rect x="4.5" y="4" width="48" height="48" rx="24" fill="#254147"/>
<rect x="4.5" y="4" width="48" height="48" rx="24" stroke="#B2D1D7" stroke-width="8"/>
<path d="M30.5 18.2695V22.4001C30.5 22.9601 30.5 23.2401 30.609 23.4541C30.7049 23.6422 30.8578 23.7952 31.046 23.8911C31.2599 24.0001 31.5399 24.0001 32.1 24.0001H36.2305M30.5 33H24.5M32.5 29H24.5M36.5 25.9882V33.2C36.5 34.8802 36.5 35.7202 36.173 36.362C35.8854 36.9265 35.4265 37.3854 34.862 37.673C34.2202 38 33.3802 38 31.7 38H25.3C23.6198 38 22.7798 38 22.138 37.673C21.5735 37.3854 21.1146 36.9265 20.827 36.362C20.5 35.7202 20.5 34.8802 20.5 33.2V22.8C20.5 21.1198 20.5 20.2798 20.827 19.638C21.1146 19.0735 21.5735 18.6146 22.138 18.327C22.7798 18 23.6198 18 25.3 18H28.5118C29.2455 18 29.6124 18 29.9577 18.0829C30.2638 18.1564 30.5564 18.2776 30.8249 18.4421C31.1276 18.6276 31.387 18.887 31.9059 19.4059L35.0941 22.5941C35.613 23.113 35.8724 23.3724 36.0579 23.6751C36.2224 23.9436 36.3436 24.2362 36.4171 24.5423C36.5 24.8876 36.5 25.2545 36.5 25.9882Z" stroke="#E1FF01" stroke-width="2" stroke-linecap="round" stroke-linejoin="round"/>
</svg>
