<svg width="56" height="56" viewBox="0 0 56 56" fill="none" xmlns="http://www.w3.org/2000/svg">
<rect x="4" y="4" width="48" height="48" rx="24" fill="#254147"/>
<rect x="4" y="4" width="48" height="48" rx="24" stroke="#B2D1D7" stroke-width="8"/>
<path d="M30 27H24M26 31H24M32 23H24M36 26.5V22.8C36 21.1198 36 20.2798 35.673 19.638C35.3854 19.0735 34.9265 18.6146 34.362 18.327C33.7202 18 32.8802 18 31.2 18H24.8C23.1198 18 22.2798 18 21.638 18.327C21.0735 18.6146 20.6146 19.0735 20.327 19.638C20 20.2798 20 21.1198 20 22.8V33.2C20 34.8802 20 35.7202 20.327 36.362C20.6146 36.9265 21.0735 37.3854 21.638 37.673C22.2798 38 23.1198 38 24.8 38H27.5M38 38L36.5 36.5M37.5 34C37.5 35.933 35.933 37.5 34 37.5C32.067 37.5 30.5 35.933 30.5 34C30.5 32.067 32.067 30.5 34 30.5C35.933 30.5 37.5 32.067 37.5 34Z" stroke="#E1FF01" stroke-width="2" stroke-linecap="round" stroke-linejoin="round"/>
</svg>
