<svg width="56" height="56" viewBox="0 0 56 56" fill="none" xmlns="http://www.w3.org/2000/svg">
<rect x="4" y="4" width="48" height="48" rx="24" fill="#254147"/>
<rect x="4" y="4" width="48" height="48" rx="24" stroke="#CBE0E4" stroke-width="8"/>
<path d="M20 29H35.587C36.0495 29 36.2808 29 36.4128 28.903C36.528 28.8185 36.6015 28.6887 36.6147 28.5464C36.63 28.3833 36.511 28.185 36.273 27.7884L34.247 24.4116C34.1572 24.2619 34.1123 24.1871 34.0947 24.1072C34.0792 24.0366 34.0792 23.9634 34.0947 23.8928C34.1123 23.8129 34.1572 23.7381 34.247 23.5884L36.273 20.2116C36.511 19.815 36.63 19.6167 36.6147 19.4536C36.6015 19.3113 36.528 19.1815 36.4128 19.097C36.2808 19 36.0495 19 35.587 19H20L20 37" stroke="#E1FF01" stroke-width="2" stroke-linecap="round" stroke-linejoin="round"/>
</svg>
