<svg width="56" height="56" viewBox="0 0 56 56" fill="none" xmlns="http://www.w3.org/2000/svg">
<rect x="4" y="4" width="48" height="48" rx="24" fill="#254147"/>
<rect x="4" y="4" width="48" height="48" rx="24" stroke="#CBE0E4" stroke-width="8"/>
<path d="M33 30.5V27.4944C33 27.315 33 27.2252 32.9727 27.146C32.9485 27.0759 32.9091 27.0121 32.8572 26.9592C32.7986 26.8993 32.7183 26.8592 32.5578 26.7789L28 24.5M20 25.5V32.3066C20 32.6785 20 32.8645 20.058 33.0273C20.1093 33.1712 20.1929 33.3015 20.3024 33.4081C20.4262 33.5287 20.5953 33.6062 20.9334 33.7611L27.3334 36.6945C27.5786 36.8069 27.7012 36.8631 27.8289 36.8852C27.9421 36.9049 28.0579 36.9049 28.1711 36.8852C28.2988 36.8631 28.4214 36.8069 28.6666 36.6945L35.0666 33.7611C35.4047 33.6062 35.5738 33.5287 35.6976 33.4081C35.8071 33.3015 35.8907 33.1712 35.942 33.0273C36 32.8645 36 32.6785 36 32.3066V25.5M18 24.5L27.6422 19.6789C27.7734 19.6133 27.839 19.5805 27.9078 19.5676C27.9687 19.5562 28.0313 19.5562 28.0922 19.5676C28.161 19.5805 28.2266 19.6133 28.3578 19.6789L38 24.5L28.3578 29.3211C28.2266 29.3867 28.161 29.4195 28.0922 29.4324C28.0313 29.4438 27.9687 29.4438 27.9078 29.4324C27.839 29.4195 27.7734 29.3867 27.6422 29.3211L18 24.5Z" stroke="#E1FF01" stroke-width="2" stroke-linecap="round" stroke-linejoin="round"/>
</svg>
