<?xml version="1.0" encoding="UTF-8"?><svg fill="#fff" id="auditv2" xmlns="http://www.w3.org/2000/svg" viewBox="0 0 1769 1901"><defs><style>.cls-1{fill:none;stroke:#fff;stroke-miterlimit:10;stroke-width:41.31px;}</style></defs><path d="m1336.86,720.58c-3.53,7.21-7.07,14.42-10.75,21.94-8.7-3.18-17.61-6-26.12-9.72-5.61-2.45-9.34-2.62-12.95,3.21-3.04,4.91-6.78,9.83-11.33,13.27-9.11,6.89-10.98,13.72-3.82,23.3,4.22,5.64,6.87,12.46,10.87,19.96-17.13,9.21-33.86,18.2-51.58,27.72-6.09-11.12-11.93-21.78-17.44-31.84-12.04,1.55-23.34,2.68-34.49,4.7-2.52.46-5.74,3.67-6.46,6.23-2.71,9.65-4.52,19.54-6.87,30.26-19.12-3.97-37.76-7.85-57.23-11.9,2-9.98,3.48-19.57,5.95-28.91,1.42-5.36.46-8.16-4.51-10.86-9.38-5.1-18.32-11.01-28.54-17.25-8.97,6.92-18.63,14.39-28.87,22.29-12.1-15.34-23.92-30.33-36.23-45.94,8.04-6.38,15.46-12.62,23.27-18.34,4.32-3.16,5.54-5.95,3.34-11.32-4.16-10.15-7.25-20.73-10.92-31.56-11.52-.41-23.16-.83-36.15-1.29.56-19.17,1.12-38.15,1.71-58.52,10.11.28,19.7.21,29.23.92,5.84.44,8.63-1.22,10.42-7.12,2.53-8.34,6.95-16.1,9.6-24.42.89-2.79-.06-7.56-2.05-9.63-6.91-7.21-14.64-13.62-22.67-20.9,13.2-14.77,25.87-28.94,39.01-43.64,8.08,7.19,15.33,14.13,23.18,20.31,2.13,1.68,6.71,2.41,9.05,1.27,10.19-4.96,19.98-10.77,30.62-16.67-1.52-11.22-3.13-23.04-4.88-35.96,19.19-2.79,37.99-5.51,57.87-8.4,1.58,10.43,3.34,20.22,4.45,30.09.57,5.02,2.22,7.19,7.62,7.74,7.71.78,15.55,2.13,22.83,4.67,8.19,2.85,12.34.26,15.97-6.98,3.61-7.2,8.44-13.78,13.54-21.93,16.55,10.17,32.7,20.09,49.83,30.62-5.36,8.68-10.26,16.94-15.5,24.99-3.04,4.66-3.3,8.03.99,12.61,7.28,7.76,13.5,16.51,20.6,25.39,10.97-3.56,22.33-7.25,34.61-11.23,6.15,18.7,12.09,36.79,18.29,55.64-10.17,3.4-19.83,6.17-29.06,9.99-2.62,1.08-5.04,4.99-5.65,8-.89,4.34.15,9.05.02,13.59-.19,6.47-3.4,15.04-.41,18.87,4.07,5.21,12.75,6.87,19.51,9.92,4.44,2.01,8.99,3.79,13.49,5.68-3.8,10.39-7.6,20.78-11.41,31.17Zm-93.49-43.8c14.26-38.37-4.81-81.37-42.3-95.39-40.31-15.07-82.8,3.64-97.37,42.89-14.82,39.91,4.5,82,44.38,96.69,38.58,14.21,80.87-5.4,95.28-44.19Z"/><path d="m946.69,647.18c-3.53,7.21-7.07,14.42-10.75,21.94-8.7-3.18-17.61-6-26.12-9.72-5.61-2.45-9.34-2.62-12.95,3.21-3.04,4.91-6.78,9.83-11.33,13.27-9.11,6.89-10.98,13.72-3.82,23.3,4.22,5.64,6.87,12.46,10.87,19.96-17.13,9.21-33.86,18.2-51.58,27.72-6.09-11.12-11.93-21.78-17.44-31.84-12.04,1.55-23.34,2.68-34.49,4.7-2.52.46-5.74,3.67-6.46,6.23-2.71,9.65-4.52,19.54-6.87,30.26-19.12-3.97-37.76-7.85-57.23-11.9,2-9.98,3.48-19.57,5.95-28.91,1.42-5.36.46-8.16-4.51-10.86-9.38-5.1-18.32-11.01-28.54-17.25-8.97,6.92-18.63,14.39-28.87,22.29-12.1-15.34-23.92-30.33-36.23-45.94,8.04-6.38,15.46-12.62,23.27-18.34,4.32-3.16,5.54-5.95,3.34-11.32-4.16-10.15-7.25-20.73-10.92-31.56-11.52-.41-23.16-.83-36.15-1.29.56-19.17,1.12-38.15,1.71-58.52,10.11.28,19.7.21,29.23.92,5.84.44,8.63-1.22,10.42-7.12,2.53-8.34,6.95-16.1,9.6-24.42.89-2.79-.06-7.56-2.05-9.63-6.91-7.21-14.64-13.62-22.67-20.9,13.2-14.77,25.87-28.94,39.01-43.64,8.08,7.19,15.33,14.13,23.18,20.31,2.13,1.68,6.71,2.41,9.05,1.27,10.19-4.96,19.98-10.77,30.62-16.67-1.52-11.22-3.13-23.04-4.88-35.96,19.19-2.79,37.99-5.51,57.87-8.4,1.58,10.43,3.34,20.22,4.45,30.09.57,5.02,2.22,7.19,7.62,7.74,7.71.78,15.55,2.13,22.83,4.67,8.19,2.85,12.34.26,15.97-6.98,3.61-7.2,8.44-13.78,13.54-21.93,16.55,10.17,32.7,20.09,49.83,30.62-5.36,8.68-10.26,16.94-15.5,24.99-3.04,4.66-3.3,8.03.99,12.61,7.28,7.76,13.5,16.51,20.6,25.39,10.97-3.56,22.33-7.25,34.61-11.23,6.15,18.7,12.09,36.79,18.29,55.64-10.17,3.4-19.83,6.17-29.06,9.99-2.62,1.08-5.04,4.99-5.65,8-.89,4.34.15,9.05.02,13.59-.19,6.47-3.4,15.04-.41,18.87,4.07,5.21,12.75,6.87,19.51,9.92,4.44,2.01,8.99,3.79,13.49,5.68-3.8,10.39-7.6,20.78-11.41,31.17Zm-93.49-43.8c14.26-38.37-4.81-81.37-42.3-95.39-40.31-15.07-82.8,3.64-97.37,42.89-14.82,39.91,4.5,82,44.38,96.69,38.58,14.21,80.87-5.4,95.28-44.19Z"/><path d="m1108.96,1102.73c-2.2,2.6-3.77,4.58-5.46,6.45-14.55,16.11-29.12,32.2-44.15,48.81-10.15-9.13-20-17.54-29.28-26.53-4.31-4.18-7.4-4.19-12.48-1.11-11.92,7.21-24.38,13.53-37.82,20.86,1.84,14.21,3.83,29.49,5.86,45.14-1.9.46-3.41.96-4.97,1.18-22.5,3.15-45,6.27-68.53,9.53-1.87-13.67-3.34-26.85-5.72-39.86-.53-2.87-3.88-6.8-6.6-7.44-14.48-3.43-29.17-5.98-44.44-8.96-7.78,12.21-15.93,24.97-24.62,38.6-21.22-13.32-41.72-26.19-62.82-39.44,8.42-13.52,16.43-26.39,24.25-38.97-9.53-12.8-18.61-25.37-28.26-37.5-1.35-1.7-5.76-2.26-8.23-1.55-12.76,3.68-25.35,7.94-38.81,12.27-7.66-23.75-15.09-46.79-22.83-70.79,13.05-4.21,25.27-8.42,37.66-12.03,5.1-1.49,7.28-3.43,7.16-9.3-.25-12.29.18-24.65,1.31-36.9.53-5.71-1.03-8.31-6.18-10.09-12.21-4.22-24.3-8.81-35.35-12.86,9.12-24.93,17.42-47.61,25.75-70.37,15.86,5.8,29.84,10.92,43.92,16.07,10.66-11.24,21.69-22.53,32.15-34.33,1.3-1.47.34-6.02-.89-8.49-5.75-11.61-11.96-22.99-18.46-35.29,22.01-11.64,43.44-22.98,65.68-34.75,7.44,13.87,14.6,27.22,21.68,40.43,16.07-1.91,31.78-3.55,47.38-5.92,1.96-.3,4.2-4.21,4.84-6.81,3.06-12.57,5.61-25.26,8.59-39.07,24.42,5.29,48.05,10.41,72.65,15.73-2.81,13-5.13,25.05-8.11,36.94-1.69,6.74-.14,10.42,6.4,13.72,9.51,4.79,18.61,10.63,27.16,17,5.59,4.17,9.38,4.91,14.98.07,9.29-8.04,19.34-15.21,30.01-23.47,15.27,19.65,30.12,38.75,45.58,58.65-10.59,8.27-20.58,16.43-30.97,24.05-4.6,3.37-5.96,6.13-3.63,11.96,4.45,11.12,7.93,22.67,11.09,34.24,1.43,5.24,3.42,7.51,9.13,7.54,12.96.08,25.91.92,39.83,1.49-.91,24.71-1.8,48.9-2.73,74.12-13.88-.44-27.06-1.17-40.23-1.02-2.9.03-7.24,2.52-8.4,5.04-5.29,11.48-9.34,23.52-14.54,35.04-2.28,5.06-1.76,7.99,2.46,11.6,9.81,8.37,19.13,17.31,29.01,26.34Zm-221.54-32.82c48.82,17.28,103.16-9.08,120.76-58.58,17.29-48.65-9.19-103.2-58.64-120.77-48.71-17.31-103.14,9.14-120.71,58.66-17.32,48.83,9.05,103.16,58.59,120.69Z"/><path d="m883.49,943.15c-21.12,21.44-20.94,55.79.39,76.71,21.33,20.92,55.74,20.5,76.86-.95,21.12-21.44,20.94-55.79-.39-76.71-21.33-20.92-55.74-20.5-76.86.95Zm62.68,61.48c-13.15,13.36-34.59,13.62-47.88.59-13.29-13.03-13.4-34.43-.24-47.78,13.15-13.36,34.59-13.62,47.88-.59,13.29,13.03,13.4,34.43.24,47.78Z"/><path d="m1209.12,615.05c-18.98-18.69-49.39-18.54-67.91.34-18.52,18.88-18.14,49.35.84,68.04,18.98,18.69,49.39,18.54,67.91-.34,18.52-18.88,18.14-49.35-.84-68.04Zm-54.42,55.49c-11.83-11.65-12.06-30.62-.52-42.39,11.54-11.76,30.48-11.86,42.3-.21,11.83,11.65,12.06,30.62.52,42.39-11.54,11.76-30.48,11.86-42.3.21Z"/><path d="m817.51,544.97c-18.98-18.69-49.39-18.54-67.91.34-18.52,18.88-18.14,49.35.84,68.04,18.98,18.69,49.39,18.54,67.91-.34,18.52-18.88,18.14-49.35-.84-68.04Zm-54.42,55.49c-11.83-11.65-12.06-30.62-.52-42.39,11.54-11.76,30.48-11.86,42.3-.21,11.83,11.65,12.06,30.62.52,42.39-11.54,11.76-30.48,11.86-42.3.21Z"/><rect class="cls-1" x="458.01" y="312.57" width="960.49" height="960.49"/></svg>
