<svg width="35" height="35" viewBox="0 0 35 35" fill="none" xmlns="http://www.w3.org/2000/svg">
<g clip-path="url(#clip0_41_468)">
<path d="M35 35H0V0H35V35ZM3.59813 31.4019H31.4019V3.59813H3.59813V31.4019Z" fill="#0B3168"/>
<path d="M8.10583 17.5C8.74368 16.8621 9.7806 16.8621 10.4184 17.5L14.3502 21.4318L24.6736 11.1084C25.3114 10.4705 26.3484 10.4705 26.9862 11.1084C27.6241 11.7462 27.6241 12.7832 26.9862 13.421L15.7535 24.6537C15.6913 24.7519 15.6194 24.8434 15.5343 24.9285C14.8965 25.5663 13.8596 25.5663 13.2217 24.9285L8.10583 19.8126C7.46798 19.1747 7.46798 18.1378 8.10583 17.5Z" fill="#0B3168"/>
</g>
<defs>
<clipPath id="clip0_41_468">
<rect width="35" height="35" fill="white"/>
</clipPath>
</defs>
</svg>
