<?xml version="1.0" encoding="UTF-8"?><svg fill="#fff" id="formation" xmlns="http://www.w3.org/2000/svg" viewBox="0 0 1769 1901"><defs><style>.cls-1{fill:#fff;}.cls-2{fill:none;stroke:#fff;stroke-miterlimit:10;stroke-width:40.88px;}</style></defs><path class="cls-1" d="m674.53,712.01c-.21,2.1-.38,3.04-.38,3.97.03,54.01.05,108.01.16,162.02.02,9.4,2.59,12.38,12.07,14.65,61.08,14.62,122.82,25.26,185.41,30.72,41.86,3.65,83.75,4.23,125.56-.5,24.64-2.79,49.22-6.2,74.44-9.41,0,12.04.4,24.34-.17,36.59-.28,5.93-1.44,12.21-3.86,17.59-12.92,28.68-26.37,57.11-39.62,85.64-6.25,13.45-1.87,20.22,13.12,20.23,27.24.03,54.49.03,81.73,0,14.53-.02,18.86-6.61,13.1-19.86-13.01-29.93-26.11-59.82-38.97-89.81-1.53-3.57-2.51-7.68-2.51-11.54.02-80.53.18-161.06.5-241.59.02-4.51-1.41-6.74-5.48-8.49-20.64-8.86-41.18-17.98-61.74-27.02-32.04-14.08-64.14-28.05-96.04-42.44-3.7-1.67-8.01-5.28-8.97-8.82-.95-3.49.81-9.64,3.57-11.7,3.08-2.3,9.21-2.87,12.98-1.45,13.7,5.18,26.96,11.5,40.39,17.39,42.87,18.83,85.7,37.76,128.65,56.41,7.25,3.15,11.05,7.67,10.34,15.72-.26,2.91-.04,5.87-.04,9.22,2-.41,2.96-.45,3.79-.79,44.78-18.56,89.55-37.16,134.33-55.7,5.33-2.21,8.65-5.64,8.42-11.75-.23-6.2-4.26-9-9.49-10.98-108.14-40.94-216.24-81.97-324.47-122.68-4.19-1.58-10.03-1.49-14.24.1-107.75,40.61-215.39,81.54-323.06,122.36-5.65,2.14-10.55,4.92-10.68,11.69-.13,7.1,4.84,9.94,10.74,12.38,107.1,44.21,214.17,88.5,321.18,132.94,6.36,2.64,11.91,2.79,18.31.09,41.41-17.44,82.94-34.59,124.44-51.81,4.31-1.79,8.66-3.45,14.09-5.61,0,6.9-.26,12.75.08,18.57.26,4.45-1.31,6.6-5.55,8.33-42.24,17.29-84.41,34.73-126.5,52.37-10.71,4.49-20.87,4.37-31.57-.09-55.43-23.13-110.97-46.01-166.47-68.97-22.24-9.2-44.49-18.4-67.58-27.94Zm442.97,191.92c15.46-3.94,29.62-7.46,43.74-11.17,11.49-3.02,13.06-5.11,13.08-16.62.08-52.03.14-104.07.2-156.1,0-2.44,0-4.88,0-8.26-17.84,7.42-34.3,14.51-50.97,21.04-4.79,1.88-6.18,4.34-6.16,9.32.18,51.32.11,102.65.11,153.97v7.83Z"/><path d="m674.53,712.01c23.09,9.55,45.33,18.74,67.58,27.94,55.5,22.96,111.04,45.84,166.47,68.97,10.71,4.47,20.86,4.58,31.57.09,42.09-17.64,84.27-35.08,126.5-52.37,4.24-1.73,5.81-3.88,5.55-8.33-.34-5.81-.08-11.66-.08-18.57-5.43,2.16-9.79,3.82-14.09,5.61-41.5,17.22-83.03,34.37-124.44,51.81-6.4,2.7-11.95,2.55-18.31-.09-107.01-44.43-214.08-88.73-321.18-132.94-5.9-2.43-10.87-5.27-10.74-12.38.13-6.77,5.03-9.55,10.68-11.69,107.68-40.82,215.31-81.75,323.06-122.36,4.21-1.59,10.05-1.67,14.24-.1,108.22,40.71,216.33,81.74,324.47,122.68,5.23,1.98,9.26,4.78,9.49,10.98.23,6.1-3.09,9.54-8.42,11.75-44.79,18.54-89.55,37.14-134.33,55.7-.83.34-1.79.39-3.79.79,0-3.35-.21-6.31.04-9.22.7-8.04-3.09-12.57-10.34-15.72-42.95-18.65-85.78-37.58-128.65-56.41-13.42-5.9-26.69-12.22-40.39-17.39-3.77-1.42-9.9-.85-12.98,1.45-2.76,2.05-4.51,8.21-3.57,11.7.96,3.54,5.27,7.15,8.97,8.82,31.9,14.39,64,28.36,96.04,42.44,20.57,9.04,41.1,18.16,61.74,27.02,4.07,1.75,5.5,3.98,5.48,8.49-.31,80.53-.48,161.06-.5,241.59,0,3.86.98,7.98,2.51,11.54,12.86,29.99,25.96,59.88,38.97,89.81,5.76,13.26,1.43,19.84-13.1,19.86-27.24.03-54.49.03-81.73,0-14.99-.02-19.37-6.78-13.12-20.23,13.25-28.53,26.7-56.96,39.62-85.64,2.42-5.37,3.58-11.66,3.86-17.59.58-12.25.17-24.54.17-36.59-25.22,3.21-49.79,6.63-74.44,9.41-41.82,4.73-83.71,4.15-125.56.5-62.59-5.46-124.33-16.1-185.41-30.72-9.48-2.27-12.05-5.25-12.07-14.65-.11-54.01-.13-108.01-.16-162.02,0-.93.17-1.86.38-3.97Z"/><path d="m1117.5,903.94v-7.83c0-51.32.07-102.65-.11-153.97-.02-4.97,1.37-7.44,6.16-9.32,16.67-6.53,33.13-13.62,50.97-21.04,0,3.39,0,5.83,0,8.26-.07,52.03-.13,104.07-.2,156.1-.02,11.51-1.59,13.6-13.08,16.62-14.12,3.71-28.28,7.23-43.74,11.17Z"/><rect class="cls-2" x="449.14" y="314.5" width="950.36" height="950.36"/></svg>
