<svg width="49" height="73" viewBox="0 0 49 73" fill="none" xmlns="http://www.w3.org/2000/svg">
<mask id="path-1-outside-1_48_1205" maskUnits="userSpaceOnUse" x="0" y="0" width="49" height="73" fill="black">
<rect fill="white" width="49" height="73"/>
<path fill-rule="evenodd" clip-rule="evenodd" d="M24.237 71.6398C25.2631 71.6392 26.0948 70.8072 26.0948 69.7809C26.0948 56.8213 33.3449 48.881 38.7731 42.9361C40.3255 41.2359 41.7289 39.6989 42.7711 38.2543C45.7226 34.3579 47.4737 29.5018 47.4737 24.2368C47.4737 11.4035 37.0702 1 24.2368 1C11.4035 1 1 11.4035 1 24.2368C1 29.4919 2.74444 34.3395 5.68583 38.2322C6.72962 39.6832 8.13941 41.2272 9.69972 42.936C15.1279 48.881 22.378 56.8213 22.378 69.7809C22.378 70.8072 23.2097 71.6392 24.2359 71.6398"/>
</mask>
<path fill-rule="evenodd" clip-rule="evenodd" d="M24.237 71.6398C25.2631 71.6392 26.0948 70.8072 26.0948 69.7809C26.0948 56.8213 33.3449 48.881 38.7731 42.9361C40.3255 41.2359 41.7289 39.6989 42.7711 38.2543C45.7226 34.3579 47.4737 29.5018 47.4737 24.2368C47.4737 11.4035 37.0702 1 24.2368 1C11.4035 1 1 11.4035 1 24.2368C1 29.4919 2.74444 34.3395 5.68583 38.2322C6.72962 39.6832 8.13941 41.2272 9.69972 42.936C15.1279 48.881 22.378 56.8213 22.378 69.7809C22.378 70.8072 23.2097 71.6392 24.2359 71.6398" fill="#FA949D"/>
<path d="M24.2359 72.1398H24.237V71.1398H24.2359V72.1398ZM38.7731 42.9361L39.5116 43.6103L38.7731 42.9361ZM42.7711 38.2543L41.974 37.6505L41.967 37.6598L41.9602 37.6692L42.7711 38.2543ZM5.68583 38.2322L6.4976 37.6483L6.49075 37.6387L6.48368 37.6294L5.68583 38.2322ZM9.69972 42.936L8.96125 43.6103H8.96125L9.69972 42.936ZM24.2376 72.6398C25.8158 72.6389 27.0948 71.3593 27.0948 69.7809H25.0948C25.0948 70.2551 24.7105 70.6396 24.2364 70.6398L24.2376 72.6398ZM27.0948 69.7809C27.0948 57.2434 34.0793 49.5598 39.5116 43.6103L38.0347 42.2618C32.6106 48.2022 25.0948 56.3993 25.0948 69.7809H27.0948ZM39.5116 43.6103C41.0521 41.9232 42.4992 40.3404 43.5821 38.8394L41.9602 37.6692C40.9587 39.0573 39.599 40.5485 38.0347 42.2618L39.5116 43.6103ZM43.5683 38.8581C46.6468 34.7939 48.4737 29.7273 48.4737 24.2368H46.4737C46.4737 29.2764 44.7984 33.9218 41.974 37.6505L43.5683 38.8581ZM48.4737 24.2368C48.4737 10.8512 37.6225 0 24.2368 0V2C36.5179 2 46.4737 11.9558 46.4737 24.2368H48.4737ZM24.2368 0C10.8512 0 0 10.8512 0 24.2368H2C2 11.9558 11.9558 2 24.2368 2V0ZM0 24.2368C0 29.7169 1.81996 34.7748 4.88799 38.8351L6.48368 37.6294C3.66892 33.9043 2 29.2669 2 24.2368H0ZM4.87406 38.8162C5.95899 40.3244 7.41304 41.9147 8.96125 43.6103L10.4382 42.2618C8.86578 40.5396 7.50026 39.042 6.4976 37.6483L4.87406 38.8162ZM8.96125 43.6103C14.3936 49.5598 21.378 57.2434 21.378 69.7809H23.378C23.378 56.3993 15.8623 48.2022 10.4382 42.2618L8.96125 43.6103ZM21.378 69.7809C21.378 71.3593 22.6571 72.6389 24.2353 72.6398L24.2365 70.6398C23.7623 70.6396 23.378 70.2551 23.378 69.7809H21.378Z" fill="url(#paint0_linear_48_1205)" mask="url(#path-1-outside-1_48_1205)"/>
<circle cx="24.2373" cy="26.0956" r="8.36526" fill="#222769"/>
<defs>
<linearGradient id="paint0_linear_48_1205" x1="24.2368" y1="1" x2="24.2368" y2="71.64" gradientUnits="userSpaceOnUse">
<stop stop-color="white"/>
<stop offset="1" stop-color="white" stop-opacity="0.35"/>
</linearGradient>
</defs>
</svg>
