<svg width="24" height="25" viewBox="0 0 24 25" fill="none" xmlns="http://www.w3.org/2000/svg">
<path d="M23.3874 21.9863L22.8661 22.5127C20.7592 24.6405 17.6945 25.4832 14.8102 24.7281C7.68292 22.862 2.11711 17.2413 0.269283 10.0436C-0.478499 7.13088 0.356026 4.03599 2.46296 1.90826L3.63786 0.721769C4.59081 -0.24059 6.13586 -0.24059 7.08881 0.72177L9.42075 3.07673C10.0066 3.66841 10.0343 4.61873 9.48381 5.24414L9.02391 5.76664C7.13685 7.91053 7.23164 11.1683 9.24011 13.1965L12.9245 16.9173C14.5485 18.5573 17.1815 18.5573 18.8054 16.9173L19.0369 16.6835C19.605 16.1098 20.5262 16.1098 21.0943 16.6835L23.3874 18.9992C24.2042 19.8241 24.2042 21.1615 23.3874 21.9863Z" fill="white"/>
</svg>
