<svg width="27" height="20" viewBox="0 0 27 20" fill="none" xmlns="http://www.w3.org/2000/svg">
<path fill-rule="evenodd" clip-rule="evenodd" d="M6 0C2.68629 0 0 2.65313 0 5.92593V14.0741C0 17.3469 2.68629 20 6 20H21C24.3137 20 27 17.3469 27 14.0741V5.92593C27 2.65313 24.3137 0 21 0H6ZM11.3869 7.91898C12.7171 8.57588 14.2829 8.57588 15.6131 7.91898L20.4298 5.54036C21.0596 5.22933 21.8255 5.48147 22.1404 6.10352C22.4553 6.72556 22.2 7.48197 21.5702 7.79299L16.7535 10.1716C14.7054 11.183 12.2946 11.183 10.2465 10.1716L5.4298 7.79299C4.79998 7.48197 4.54469 6.72556 4.8596 6.10352C5.17451 5.48147 5.94037 5.22933 6.57019 5.54036L11.3869 7.91898Z" fill="white"/>
</svg>
