<svg width="78" height="58" viewBox="0 0 78 58" fill="none" xmlns="http://www.w3.org/2000/svg">
<g clip-path="url(#clip0_24_77)">
<path d="M27.0947 17.3472C27.1894 18.2539 28.1098 18.3534 28.5019 18.3534C32.9716 18.3534 37.4432 18.3534 41.9129 18.3534H50.3939C50.9621 18.3534 51.3314 18.1357 51.5549 17.6682C51.7311 17.3003 51.7159 16.923 51.5114 16.6039C51.286 16.2491 50.858 16.0351 50.3674 16.0332C47.7481 16.0276 45.1307 16.0276 42.5114 16.0294H39.3883H36.0625C35.0852 16.0294 34.1079 16.0294 33.1307 16.0294C31.5568 16.0294 29.9829 16.0294 28.4091 16.0332C27.9564 16.0332 27.5795 16.174 27.3504 16.4274C27.142 16.6564 27.053 16.9737 27.0909 17.3454L27.0947 17.3472Z" fill="#0B3168"/>
<path d="M28.0549 8.28604C27.4205 8.39867 27.0512 8.86985 27.0909 9.51561C27.1326 10.182 27.6174 10.565 28.4224 10.5668C31.0549 10.5725 33.6894 10.5706 36.322 10.5706H39.3315H40.7368C43.3144 10.5706 45.8902 10.5706 48.4678 10.5706H48.4868C48.6705 10.5706 48.8561 10.5706 49.0417 10.5725C49.5587 10.5762 50.0947 10.58 50.6118 10.5518C51.1875 10.5199 51.6421 10.0525 51.6724 9.46305C51.7008 8.9149 51.3012 8.41369 50.7424 8.30106C50.5152 8.25413 50.2557 8.25037 49.9887 8.25037C42.911 8.24662 35.8352 8.24662 28.7576 8.25037H28.7178C28.4811 8.25225 28.2576 8.25037 28.0549 8.28604Z" fill="#0B3168"/>
<path d="M30.7462 23.8048C29.9489 23.8048 29.1458 23.8067 28.3523 23.8161C27.9205 23.8198 27.5606 23.9644 27.339 24.2215C27.1288 24.4656 27.0474 24.7941 27.1023 25.1733C27.1913 25.7796 27.6799 26.1269 28.4451 26.1288C33.2159 26.1344 37.9886 26.1344 42.7595 26.1325H45.6705C45.7784 26.1325 45.8845 26.1232 45.9886 26.1063C46.661 26.0011 47.0606 25.4812 46.9849 24.8091C46.8921 23.9888 46.2008 23.8161 45.6383 23.8142C43.5758 23.8086 41.5114 23.8104 39.4489 23.8104H37.0265C36.019 23.8104 35.0095 23.8104 34.0019 23.8104C33.4527 23.8104 32.8996 23.8104 32.3504 23.8086C31.822 23.8086 31.286 23.8067 30.7481 23.8067L30.7462 23.8048Z" fill="#0B3168"/>
<path d="M41.642 55.3738C41.6155 55.7868 41.589 56.1791 41.5852 56.5621C41.5795 57.0595 41.695 57.4275 41.9261 57.6583C42.1515 57.8836 42.5113 57.9981 42.9924 57.9981C54.195 58 65.3996 57.9981 76.6022 57.9944C77.0965 57.9944 77.464 57.8742 77.6912 57.6358C77.9147 57.403 78.017 57.0445 77.9943 56.5733C77.6666 49.7253 74.4034 44.4466 68.2954 40.8836C68.142 40.7954 67.9867 40.7109 67.8238 40.6246C67.7424 40.5814 67.6572 40.5364 67.5719 40.4894L67.0776 40.221L67.4299 39.7855C67.517 39.6785 67.5984 39.579 67.6761 39.4851C67.8257 39.303 67.9602 39.1378 68.089 38.9689C69.4526 37.1837 70.1534 35.3684 70.231 33.4218C70.4147 28.8583 67.6117 24.7078 63.2575 23.0953C62.6022 22.8531 62.3371 22.4739 62.339 21.7887C62.3522 16.6114 62.3522 11.3477 62.3522 6.2586V1.63692C62.3522 0.384827 61.9753 0.00375441 60.7386 0.00375441C42.3901 0.0018772 24.0397 0 5.68746 0C5.04352 0 4.63821 0.107001 4.41094 0.334142C4.18177 0.563161 4.07571 0.974269 4.07571 1.62566C4.07571 15.7329 4.07571 29.84 4.07571 43.9472C4.07571 45.2181 4.4223 45.5654 5.68746 45.5654C7.92799 45.5673 10.1704 45.5654 12.4109 45.5654H17.4261C21.2329 45.5654 25.1685 45.5654 29.0397 45.5767C29.375 45.5767 29.9772 45.6367 30.2405 46.0159C30.9772 47.0803 31.678 48.1578 32.4204 49.2973C32.6515 49.6539 32.8863 50.0144 33.1269 50.3823L33.6003 51.1069H28.1287C19.2859 51.1069 10.4412 51.1069 1.59844 51.1107C1.30677 51.1107 1.00753 51.1107 0.768896 51.1857C0.25185 51.3472 -0.0852712 51.9179 0.0188955 52.4566C0.183668 53.307 0.984805 53.4346 1.44882 53.4346H7.19882C16.0928 53.4346 25.2916 53.4328 34.3371 53.4459C34.7575 53.4459 35.2443 53.6186 35.606 53.8983C37.0719 55.0246 38.4659 55.2687 39.9981 54.6661C40.2329 54.5741 40.464 54.4953 40.7102 54.4108C40.8219 54.3732 40.9337 54.3338 41.0492 54.2925L41.7197 54.056L41.6818 54.7599C41.6704 54.9702 41.6572 55.1748 41.6439 55.3719L41.642 55.3738ZM65.625 27.0393C67.1079 28.5166 67.9204 30.5853 67.9128 32.868C67.8977 37.5103 64.4848 40.8761 59.7992 40.8761H59.7822C57.4943 40.8724 55.4242 40.0633 53.9526 38.5972C52.4772 37.1255 51.6685 35.0587 51.678 32.776C51.695 28.1299 55.1098 24.7603 59.7954 24.7603H59.8068C62.0852 24.7622 64.1515 25.5732 65.625 27.0411V27.0393ZM6.45071 43.2076V2.37279H59.964V22.3707L59.5056 22.3857C55.589 22.5077 51.8465 25.0926 50.1931 28.817C48.5662 32.4832 49.2727 36.4741 52.1325 39.7705L52.5056 40.2003L52.0094 40.4838C51.5416 40.7504 51.07 41.0357 50.6136 41.3098C49.5757 41.9349 48.5019 42.5806 47.3731 43.0894C45.9981 43.7088 44.5644 44.2363 43.178 44.7469C42.4394 45.0191 41.6761 45.3007 40.9337 45.5898C40.7329 45.6686 40.5511 45.7081 40.3844 45.7081C40.017 45.7081 39.7253 45.5166 39.4697 45.1186C38.8181 44.1087 38.1401 43.0894 37.4848 42.1038C36.3238 40.358 35.1212 38.554 34.0208 36.7256C32.7935 34.6889 30.6912 33.8554 28.3939 34.4936L28.07 34.5837L27.7462 34.1238C27.6439 33.9793 27.5378 33.831 27.4375 33.6808C26.7537 32.6596 26.0719 31.6403 25.3882 30.6191C23.1553 27.2795 20.8465 23.8292 18.553 20.4484C18.3333 20.1255 17.9564 19.8233 17.5928 19.6806C17.1553 19.5079 16.6742 19.7857 16.4431 20.1368C16.1458 20.5892 16.1458 21.0097 16.4431 21.4602C17.1628 22.549 17.9015 23.6509 18.6155 24.7172L20.6363 27.7319C22.4072 30.3732 24.2367 33.1045 26.0227 35.8021C26.2594 36.1587 26.3522 36.6712 26.2519 37.0485C25.8693 38.4846 26.0644 39.716 26.8503 40.8161C27.1041 41.1709 27.3352 41.5369 27.5795 41.9236C27.6931 42.1038 27.8125 42.2915 27.9375 42.4868L28.4053 43.2095H6.45071V43.2076ZM39.2613 52.4529C38.0587 52.9053 37.4526 52.7119 36.7651 51.6644C34.0644 47.5515 31.3655 43.4385 28.6704 39.3218C27.9507 38.2218 28.0681 37.469 29.0644 36.8064C29.4299 36.5623 29.9166 36.2976 30.4412 36.4028C30.9829 36.5116 31.3541 36.9828 31.6155 37.3808C33.1969 39.7836 34.7746 42.1902 36.3503 44.5968L38.3144 47.5928C38.9583 48.5764 39.2897 48.6816 40.392 48.2629L41.7178 47.7598C44.1363 46.8438 46.6363 45.8958 49.089 44.9497C49.3011 44.8671 49.5113 44.7375 49.7348 44.5986C49.8579 44.5217 49.981 44.4466 50.106 44.3752C50.4185 44.2007 50.7329 44.0223 51.0454 43.8478C52.0454 43.2846 53.0795 42.7008 54.1155 42.1564C54.4981 41.9555 55.0454 42.0118 55.3882 42.1714C58.3522 43.5512 61.2272 43.5512 64.1799 42.1714C64.4848 42.0287 64.964 41.9518 65.3484 42.1001C71.1022 44.3208 74.5189 48.5032 75.5056 54.529C75.5322 54.6867 75.5265 54.835 75.5208 54.9758C75.5189 55.034 75.5151 55.0941 75.5151 55.1579V55.6272H43.8598L43.9829 55.0603C44.0359 54.8125 44.0852 54.5703 44.1325 54.3319C44.2424 53.7876 44.3465 53.2732 44.4905 52.7588C44.6912 52.0455 44.6136 51.61 44.2253 51.2514C43.8447 50.9023 43.4053 50.861 42.7556 51.1125C41.695 51.5255 40.5511 51.961 39.2594 52.4472L39.2613 52.4529Z" fill="#0B3168"/>
</g>
<defs>
<clipPath id="clip0_24_77">
<rect width="78" height="58" fill="white"/>
</clipPath>
</defs>
</svg>
