<svg width="17" height="17" viewBox="0 0 17 17" fill="none" xmlns="http://www.w3.org/2000/svg">
<path fill-rule="evenodd" clip-rule="evenodd" d="M7.34587 12.6568C10.279 12.6568 12.6568 10.279 12.6568 7.34587C12.6568 4.41271 10.279 2.03491 7.34587 2.03491C4.41271 2.03491 2.03491 4.41271 2.03491 7.34587C2.03491 10.279 4.41271 12.6568 7.34587 12.6568ZM7.34587 14.6917C11.4029 14.6917 14.6917 11.4029 14.6917 7.34587C14.6917 3.28886 11.4029 0 7.34587 0C3.28886 0 0 3.28886 0 7.34587C0 11.4029 3.28886 14.6917 7.34587 14.6917Z" fill="#0B3168"/>
<path fill-rule="evenodd" clip-rule="evenodd" d="M11.8737 11.8734C11.4764 12.2708 11.4764 12.915 11.8737 13.3123L14.8419 16.2805C15.2393 16.6779 15.8835 16.6779 16.2808 16.2805C16.6782 15.8832 16.6782 15.239 16.2808 14.8416L13.3126 11.8734C12.9153 11.4761 12.2711 11.4761 11.8737 11.8734Z" fill="#0B3168"/>
</svg>
