<svg width="63" height="73" viewBox="0 0 63 73" fill="none" xmlns="http://www.w3.org/2000/svg">
<g clip-path="url(#clip0_24_97)">
<path d="M19.2093 2.5923C19.2093 2.91664 19.2093 3.13831 19.2093 3.35765C19.2093 7.60674 19.2093 11.8558 19.2093 16.1073C19.2093 18.016 18.0851 19.2037 16.2721 19.206C11.9441 19.2107 7.61617 19.206 3.28597 19.206C3.07713 19.206 2.8705 19.206 2.59501 19.206C2.59501 19.465 2.59501 19.6657 2.59501 19.864C2.59501 35.3787 2.59501 50.8911 2.59501 66.4057C2.59501 67.5701 2.89717 67.8851 4.01471 67.8851C13.1128 67.8851 22.2109 67.8851 31.3112 67.8851C31.4889 67.8851 31.6644 67.8804 31.8422 67.8874C32.5842 67.9201 33.1063 68.4498 33.1063 69.1685C33.1063 69.8848 32.5842 70.4425 31.8466 70.4542C30.6446 70.4728 29.4449 70.4635 28.2429 70.4635C20.0802 70.4635 11.9197 70.4635 3.75698 70.4612C1.8996 70.4612 0.530999 69.3785 0.0933136 67.5654C0.0288828 67.2994 0.0155523 67.0148 0.0155523 66.7394C0.00666526 50.5574 0.00666526 34.3754 0 18.1933C0 17.6333 0.173297 17.197 0.55766 16.8143C5.9854 11.3938 11.4087 5.96871 16.8298 0.54125C17.1964 0.172575 17.6141 -9.57558e-05 18.1162 -9.57558e-05C28.2207 -9.57558e-05 38.3275 -0.00709591 48.432 0.00923779C50.5915 0.0115712 52.0712 1.63794 52.0712 3.90133C52.0712 13.0132 52.0712 22.1251 52.0712 31.2369C52.0712 32.1703 51.7579 32.693 51.1003 32.8773C50.3094 33.099 49.5406 32.5156 49.4962 31.657C49.4873 31.4726 49.4918 31.2859 49.4918 31.0993C49.4918 22.0994 49.4918 13.0995 49.4918 4.09733C49.4918 2.89797 49.1963 2.5923 48.041 2.5923C38.6785 2.5923 29.3138 2.5923 19.9513 2.5923C19.7247 2.5923 19.5003 2.5923 19.2093 2.5923ZM4.47461 16.5576C4.73455 16.5856 4.86786 16.6089 4.99894 16.6113C8.68927 16.6113 12.3796 16.6066 16.0722 16.6229C16.5343 16.6229 16.6298 16.4386 16.6276 15.9999C16.6143 12.3272 16.6209 8.65443 16.6187 4.98168C16.6187 4.84401 16.592 4.70634 16.5676 4.46134C12.5174 8.51443 8.53819 12.4952 4.47461 16.5599V16.5576Z" fill="#0B3168"/>
<path d="M59.8895 37.3645C61.9491 37.3645 62.9644 38.4378 62.9933 40.6102C63.0533 44.9666 62.7067 49.2857 61.7847 53.5372C60.6894 58.6053 58.8786 63.3351 55.646 67.3602C54.1063 69.2759 52.3089 70.8789 50.2427 72.1413C48.3475 73.2963 46.4546 73.2823 44.5706 72.1133C40.6603 69.6889 37.8653 66.2005 35.8657 61.9677C34.1728 58.3836 33.1552 54.5802 32.5509 50.6391C32.0266 47.2207 31.8088 43.786 31.8888 40.3279C31.931 38.4682 32.9797 37.3691 34.7638 37.3645C38.9873 37.3551 55.7349 37.3598 59.8873 37.3621L59.8895 37.3645ZM60.3472 39.9755C60.185 39.9615 60.0984 39.9475 60.0117 39.9475C51.658 39.9475 43.3064 39.9475 34.9526 39.9359C34.5238 39.9359 34.4705 40.1225 34.4638 40.5005C34.4038 43.6413 34.5749 46.7657 35.0281 49.8714C35.6036 53.7938 36.5811 57.5903 38.3141 61.1393C40.1004 64.7958 42.5443 67.8245 45.9525 69.9339C46.9456 70.5476 47.9276 70.5849 48.8985 69.9339C49.6695 69.4135 50.4471 68.8909 51.1581 68.2865C54.5418 65.4071 56.6613 61.6224 58.0833 57.3733C59.8562 52.0811 60.4494 46.5953 60.4028 41.0139C60.4005 40.6849 60.3672 40.3535 60.3472 39.9802V39.9755Z" fill="#0B3168"/>
<path d="M25.3435 26.7849C19.9024 26.7849 14.4614 26.7849 9.02031 26.7849C8.02496 26.7849 7.51396 26.2319 7.61838 25.2939C7.68059 24.7386 8.02718 24.3349 8.55374 24.2369C8.76036 24.1972 8.97587 24.1855 9.18694 24.1855C19.998 24.1855 30.809 24.1855 41.6223 24.1902C41.7978 24.1902 41.9756 24.1925 42.1511 24.2205C42.8198 24.3256 43.2375 24.8412 43.2153 25.5202C43.1931 26.2086 42.7598 26.7196 42.0933 26.7733C41.5667 26.8153 41.0335 26.7896 40.5048 26.7896C35.4525 26.7896 30.4002 26.7896 25.348 26.7896V26.7849H25.3435Z" fill="#0B3168"/>
<path d="M16.6943 37.0611C14.0993 37.0611 11.5065 37.0635 8.91146 37.0611C7.9961 37.0611 7.49843 36.4544 7.62729 35.5234C7.70727 34.9424 8.12274 34.5411 8.7115 34.5037C9.08031 34.4804 9.45357 34.4944 9.82238 34.4944C14.7102 34.4944 19.6003 34.4921 24.4882 34.4944C25.4991 34.4944 26.0834 35.2691 25.7923 36.1931C25.6079 36.7788 25.2102 37.0588 24.5304 37.0611C21.9176 37.0635 19.307 37.0611 16.6943 37.0611Z" fill="#0B3168"/>
<path d="M16.7253 57.6417C14.1481 57.6417 11.5731 57.644 8.99587 57.6417C8.13828 57.6417 7.65393 57.2194 7.6095 56.461C7.55395 55.551 8.03607 55.0726 9.04919 55.0703C13.3372 55.0656 17.6252 55.0703 21.9131 55.0703C22.7419 55.0703 23.5728 55.0656 24.4015 55.0703C25.3524 55.0796 25.859 55.53 25.8634 56.3513C25.8679 57.1564 25.3235 57.6417 24.4015 57.644C21.842 57.6464 19.2848 57.644 16.7253 57.644V57.6417Z" fill="#0B3168"/>
<path d="M16.7298 47.3467C14.1526 47.3467 11.5776 47.3514 9.00032 47.3444C8.03386 47.342 7.55618 46.8473 7.60728 45.9583C7.64283 45.3446 7.99165 44.92 8.5693 44.808C8.72483 44.7776 8.88479 44.7706 9.04254 44.7706C14.1592 44.7706 19.2781 44.7706 24.3948 44.7706C25.0014 44.7706 25.5213 44.9153 25.7679 45.5733C26.11 46.4857 25.5479 47.3304 24.5659 47.3397C22.5019 47.356 20.4379 47.349 18.3717 47.3514C17.8251 47.3514 17.2786 47.3514 16.7298 47.3514V47.3467Z" fill="#0B3168"/>
<path d="M47.1611 55.3573C48.3298 54.2303 49.5339 53.1429 50.6582 51.9692C52.2867 50.2728 53.853 48.5111 55.4549 46.7844C56.1703 46.0144 57.2412 46.2337 57.6033 47.2114C57.8255 47.8135 57.6011 48.2755 57.1968 48.7095C55.055 51.0195 52.9221 53.3389 50.7848 55.6583C49.9872 56.524 49.194 57.3943 48.392 58.2554C47.7588 58.9367 46.9923 58.96 46.3391 58.295C44.6039 56.5263 42.8798 54.7483 41.1579 52.9656C40.5714 52.3589 40.5381 51.6659 41.0357 51.0989C41.5645 50.4992 42.3199 50.4665 42.9109 51.0639C44.244 52.4149 45.5592 53.7846 46.8834 55.1473C47.0211 55.2873 47.1633 55.4226 47.3033 55.558C47.2544 55.4903 47.2056 55.4226 47.1567 55.355L47.1611 55.3573Z" fill="#0B3168"/>
</g>
<defs>
<clipPath id="clip0_24_97">
<rect width="63" height="73" fill="white"/>
</clipPath>
</defs>
</svg>
