<svg width="72" height="63" viewBox="0 0 72 63" fill="none" xmlns="http://www.w3.org/2000/svg">
<g clip-path="url(#clip0_24_82)">
<path d="M35.9143 62.9937C25.9328 62.9937 15.9493 62.9895 5.96787 62.9958C3.79781 62.9958 2.05586 62.2115 0.851677 60.3683C0.208462 59.3827 -0.000319133 58.2902 0.00600757 57.1326C0.0334233 52.0789 0.0734924 47.0272 0.0692746 41.9734C0.0650568 35.0785 0.0207699 28.1815 0.00600757 21.2866C-0.00453694 16.2077 -0.000319133 11.1287 0.00389867 6.05193C0.00600757 2.27734 2.29417 0 6.0923 0C26.0573 0 46.0201 0 65.9851 0.00419399C69.6483 0.00419399 71.968 2.26056 71.9849 5.89046C72.0081 10.9211 71.9849 15.9497 71.9849 20.9804C71.9849 33.036 71.9849 45.0938 71.9976 57.1494C71.9997 59.1331 71.2848 60.7436 69.682 61.9284C68.5769 62.7463 67.2989 63.0021 65.9366 63C55.9277 62.9895 45.9189 62.9958 35.9122 62.9937H35.9143ZM36.0767 2.85611C26.0404 2.85611 16.0041 2.85611 5.96998 2.85611C3.87795 2.85611 2.8467 3.87734 2.84248 5.95756C2.83615 8.56413 2.84037 11.1728 2.84037 13.7794C2.84037 28.1857 2.84037 42.5921 2.84248 56.9984C2.84248 59.1017 3.86108 60.1334 5.93624 60.1334C25.9813 60.1334 46.0264 60.1355 66.0716 60.1334C68.1066 60.1334 69.1632 59.0912 69.1632 57.0718C69.1653 40.0589 69.1632 23.0439 69.1632 6.03096C69.1632 3.84169 68.1573 2.85401 65.9492 2.85401C55.9931 2.85401 46.0349 2.85401 36.0788 2.85401L36.0767 2.85611Z" fill="#0B3168"/>
<path d="M66.152 57.2291H5.86273V11.5167H66.1499V57.2291H66.152ZM8.6971 14.3141V54.373H63.3155V14.3141H8.6971Z" fill="#0B3168"/>
<path d="M57.592 7.12773C57.5983 7.90781 57.0015 8.52643 56.217 8.55159C55.4008 8.57675 54.7471 7.94556 54.7513 7.13822C54.7555 6.3791 55.3987 5.74791 56.1664 5.75001C56.9446 5.7521 57.5836 6.37281 57.5899 7.12983L57.592 7.12773Z" fill="#0B3168"/>
<path d="M61.9068 5.75629C62.6681 5.76468 63.3387 6.42943 63.3282 7.16547C63.3176 7.94556 62.6829 8.55788 61.8962 8.54949C61.0949 8.5411 60.5065 7.94975 60.4959 7.1445C60.4875 6.37281 61.1223 5.74791 61.9068 5.7542V5.75629Z" fill="#0B3168"/>
<path d="M37.5574 19.2421C38.5423 19.4224 39.3921 19.5797 40.3412 19.7537C38.4347 30.1464 36.5409 40.4762 34.6303 50.8836C33.6918 50.7221 32.8187 50.5691 31.8423 50.4013C33.7487 40.0086 35.6425 29.6809 37.5574 19.2421Z" fill="#0B3168"/>
<path d="M50.892 35.7957C48.0471 33.7679 45.2844 31.7989 42.4712 29.7941C43.0195 29.0203 43.5341 28.2969 44.1013 27.4979C47.9881 30.2576 51.8305 32.9858 55.7847 35.7936C51.8537 38.5868 48.0176 41.3129 44.0992 44.0977C43.5425 43.3155 43.0279 42.5942 42.4648 41.7994C45.2549 39.8136 48.0197 37.8445 50.892 35.7978V35.7957Z" fill="#0B3168"/>
<path d="M27.8923 27.5C28.4533 28.2822 28.97 29.0014 29.5352 29.7878C26.7303 31.7884 23.9677 33.7553 21.108 35.7936C23.9529 37.8193 26.6966 39.7737 29.5309 41.791C28.9953 42.5459 28.4744 43.282 27.9092 44.0788C24.0014 41.3129 20.159 38.591 16.2111 35.7957C20.1505 32.9983 23.993 30.268 27.8902 27.5H27.8923Z" fill="#0B3168"/>
</g>
<defs>
<clipPath id="clip0_24_82">
<rect width="72" height="63" fill="white"/>
</clipPath>
</defs>
</svg>
