<?xml version="1.0" encoding="UTF-8" standalone="no" ?>
<!DOCTYPE svg PUBLIC "-//W3C//DTD SVG 1.1//EN" "http://www.w3.org/Graphics/SVG/1.1/DTD/svg11.dtd">
<svg xmlns="http://www.w3.org/2000/svg" xmlns:xlink="http://www.w3.org/1999/xlink" version="1.1" width="1080" height="915" viewBox="0 -9.17 1080 915" xml:space="preserve">
<desc>Created with Fabric.js 5.2.4</desc>
<defs>
</defs>
<g transform="matrix(1 0 0 1 540 457.5)" id="f5c6df7f-a2f1-40ec-8e92-14f9f28170af"  >
<rect style="stroke: none; stroke-width: 1; stroke-dasharray: none; stroke-linecap: butt; stroke-dashoffset: 0; stroke-linejoin: miter; stroke-miterlimit: 4; fill: rgb(255,255,255); fill-rule: nonzero; opacity: 1; visibility: hidden;" vector-effect="non-scaling-stroke"  x="-540" y="-457.5" rx="0" ry="0" width="1080" height="915" />
</g>
<g transform="matrix(Infinity NaN NaN Infinity 0 0)" id="1ed5c787-8d68-452a-89e1-17b54e8c6066"  >
</g>
<g transform="matrix(0.84 0 0 0.87 540 457.5)"  >
<g style="" vector-effect="non-scaling-stroke"   >
		<g transform="matrix(1 0 0 1 -153.23 0)"  >
<path style="stroke: none; stroke-width: 1; stroke-dasharray: none; stroke-linecap: butt; stroke-dashoffset: 0; stroke-linejoin: miter; stroke-miterlimit: 4; fill: rgb(255,255,255); fill-rule: nonzero; opacity: 1;" vector-effect="non-scaling-stroke"  transform=" translate(-451.2, -713.92)" d="M 767.7 526.31 C 789.69 521.51 810.75 516.92 832.0300000000001 512.28 C 832.6400000000001 501.36999999999995 835.7800000000001 491.73999999999995 843.9300000000001 484.55999999999995 C 850.44 478.81999999999994 858.1 475.66999999999996 867.0000000000001 475.66999999999996 C 884.3200000000002 475.66999999999996 898.3000000000001 486.59 901.6700000000001 503.49999999999994 C 905.2400000000001 521.42 895.2900000000001 536.3599999999999 881.6500000000001 542.31 C 867.9300000000001 548.28 848.6500000000001 546.89 835.19 525.26 C 812.9300000000001 530.12 790.45 535.04 767.7 540.01 L 767.7 830.74 C 763.4300000000001 832.07 721.7800000000001 832.53 712.0600000000001 831.48 C 711.9300000000001 831.35 711.7800000000001 831.24 711.6600000000001 831.1 C 711.5400000000001 830.97 711.4100000000001 830.84 711.33 830.6800000000001 C 711.25 830.5200000000001 711.22 830.33 711.19 830.1500000000001 C 711.1300000000001 829.7900000000001 711.09 829.4300000000001 711.0500000000001 829.0600000000001 C 711.0300000000001 828.8800000000001 711.0300000000001 828.69 711.0200000000001 828.5100000000001 C 711.0200000000001 828.3300000000002 711.0200000000001 828.1400000000001 711.0200000000001 827.9600000000002 C 711.0200000000001 827.4100000000002 711.0200000000001 826.8600000000001 711.0200000000001 826.3100000000002 C 711.0200000000001 736.1000000000001 711.0200000000001 645.8800000000001 711.0200000000001 555.6700000000002 C 711.0200000000001 555.4900000000002 711.0200000000001 555.3000000000002 711.0000000000001 555.1200000000002 C 710.9900000000001 554.9400000000003 710.9700000000001 554.7500000000002 710.9500000000002 554.5700000000003 C 710.9300000000002 554.3900000000003 710.9300000000002 554.2000000000003 710.8700000000001 554.0300000000003 C 710.8100000000002 553.8600000000004 710.6900000000002 553.7200000000004 710.1600000000001 552.8600000000004 C 698.1300000000001 554.8500000000004 686.0300000000001 557.9500000000004 673.32 560.6400000000003 C 679.86 579.0700000000003 676.57 594.9200000000003 660.9000000000001 606.4000000000003 C 647.3700000000001 616.3100000000003 632.7700000000001 615.2500000000003 618.5200000000001 607.3200000000003 C 613.6300000000001 612.5100000000003 608.7700000000001 617.6500000000003 603.5400000000001 623.2000000000003 C 604.8000000000001 624.6600000000003 606.6500000000001 626.8800000000002 608.57 629.0400000000003 C 624.63 647.1400000000003 633.98 668.2800000000003 636.98 692.2200000000003 C 639.21 710.0200000000002 638.22 727.6400000000002 633.58 745.0200000000002 C 628.96 762.3500000000003 620.5200000000001 777.6000000000003 608.64 790.9500000000002 C 591.22 810.5300000000002 569.99 823.9600000000002 544.3 829.7900000000002 C 536.49 831.5600000000002 528.4699999999999 832.4100000000002 519.7299999999999 833.8200000000002 C 519.6199999999999 848.6900000000002 519.6899999999999 863.8200000000002 519.6899999999999 879.3700000000001 C 531.88 882.6900000000002 541.4799999999999 889.1700000000001 546.78 900.8300000000002 C 550.39 908.7900000000002 551.13 917.0400000000002 548.8299999999999 925.5200000000002 C 544.31 942.1900000000002 528.93 953.6700000000002 512.0799999999999 952.9500000000002 C 493.8299999999999 952.1700000000002 479.0999999999999 939.3400000000001 476.25999999999993 921.5500000000002 C 474.67999999999995 911.6500000000002 477.2199999999999 902.6800000000002 482.93999999999994 894.5300000000002 C 488.7099999999999 886.3100000000002 497.0899999999999 882.0900000000001 506.66999999999996 879.3600000000002 L 506.66999999999996 833.5700000000003 C 502.09 833.0300000000003 497.77 832.5000000000002 493.44999999999993 832.0000000000002 C 468.75999999999993 829.1500000000002 447.4599999999999 818.8300000000003 429.17999999999995 802.2700000000002 C 413.42999999999995 788.0000000000002 401.3299999999999 771.1000000000003 395.11999999999995 750.5800000000002 C 385.2099999999999 717.8300000000002 385.15999999999997 685.2700000000002 400.98999999999995 654.3500000000001 C 417.96999999999997 621.1900000000002 444.87999999999994 599.1800000000002 481.29999999999995 590.2100000000002 C 511.4 582.8000000000002 541 585.2800000000002 569.18 598.7300000000001 C 577.38 602.6500000000001 584.87 608.0600000000002 592.8499999999999 612.8800000000001 C 597.4499999999999 607.9700000000001 602.4099999999999 602.69 607.9499999999999 596.7900000000001 C 603.1099999999999 589.2500000000001 601.0999999999999 579.7600000000001 602.6199999999999 569.0200000000001 C 599.2499999999999 568.6000000000001 596.2399999999999 568.1400000000001 593.2099999999999 567.8500000000001 C 566.0199999999999 565.2700000000001 538.8399999999999 562.7000000000002 511.63999999999993 560.1800000000002 C 490.2899999999999 558.2000000000002 468.92999999999995 556.3300000000002 447.5799999999999 554.3400000000001 C 426.04999999999995 552.3200000000002 404.5299999999999 550.1700000000002 382.99999999999994 548.1500000000001 C 365.11999999999995 546.4700000000001 347.2199999999999 544.95 329.3299999999999 543.2800000000001 C 307.79999999999995 541.2700000000001 286.2799999999999 539.1500000000001 264.7399999999999 537.1400000000001 C 243.3899999999999 535.1400000000001 222.0299999999999 533.2500000000001 200.6799999999999 531.2600000000001 C 182.9799999999999 529.6200000000001 165.2799999999999 527.8800000000001 147.5799999999999 526.2300000000001 C 125.4999999999999 524.1700000000002 103.4099999999999 522.1600000000001 81.3299999999999 520.1300000000001 C 77.53999999999989 519.7800000000001 73.7499999999999 519.44 69.7899999999999 519.0800000000002 C 66.2899999999999 529.9000000000002 60.01999999999991 537.8800000000001 49.96999999999991 542.5700000000002 C 42.549999999999905 546.0300000000002 34.85999999999991 546.7100000000002 26.939999999999905 544.6900000000002 C 9.499999999999904 540.2400000000001 -0.8600000000000954 525.6700000000002 0.04999999999990479 507.5400000000002 C 0.8199999999999048 492.1600000000002 14.339999999999904 477.1500000000002 31.499999999999904 475.1300000000002 C 49.619999999999905 473.0000000000002 63.9099999999999 483.7700000000002 70.8999999999999 505.6500000000002 C 78.9199999999999 506.4200000000002 87.09999999999991 507.2200000000002 95.2799999999999 508.0000000000002 C 117.5399999999999 510.11000000000024 139.7899999999999 512.2300000000002 162.0599999999999 514.2900000000002 C 183.5899999999999 516.2900000000002 205.13999999999987 518.1900000000002 226.6699999999999 520.1900000000002 C 244.1899999999999 521.8200000000002 261.69999999999993 523.5600000000002 279.2099999999999 525.1900000000002 C 301.2899999999999 527.2500000000001 323.37999999999994 529.2100000000002 345.4599999999999 531.2800000000002 C 366.80999999999995 533.2800000000002 388.13999999999993 535.4000000000002 409.4899999999999 537.4000000000002 C 431.01999999999987 539.4100000000002 452.5699999999999 541.2900000000002 474.0999999999999 543.3100000000002 C 495.6299999999999 545.3300000000002 517.1499999999999 547.4700000000001 538.68 549.5000000000002 C 556.1999999999999 551.1500000000002 573.7199999999999 552.7200000000003 591.24 554.3100000000002 C 595.62 554.7100000000002 600.05 554.8100000000002 604.37 555.5500000000002 C 607.36 556.0600000000002 609.01 555.0000000000002 610.91 552.8900000000002 C 621.14 541.5100000000002 633.9699999999999 537.6600000000002 648.72 541.1700000000002 C 653.0600000000001 542.2000000000002 657.11 544.7000000000002 661.1 546.8700000000002 C 663.1 547.9600000000003 664.82 548.9200000000002 667.22 548.3700000000002 C 680.99 545.2800000000002 694.78 542.2900000000002 708.5500000000001 539.2400000000002 C 709.2400000000001 539.0900000000003 709.8800000000001 538.6700000000002 710.9200000000001 538.2000000000003 L 710.9200000000001 476.9300000000003 C 715.07 475.4300000000003 760.5400000000001 475.08000000000027 767.71 476.5000000000003 C 767.71 484.52000000000027 767.71 492.71000000000026 767.71 500.90000000000026 C 767.71 509.09000000000026 767.71 516.9800000000002 767.71 526.2900000000003 Z M 506.6700000000001 748.2199999999999 C 504.95000000000005 747.6499999999999 503.4000000000001 747.17 501.87000000000006 746.6299999999999 C 475.95000000000005 737.4899999999999 471.24000000000007 710.0099999999999 480.9800000000001 692.7999999999998 C 488.38000000000005 679.7199999999998 506.2700000000001 669.9299999999998 525.22 676.4899999999999 C 528.45 677.6099999999999 530.51 677.3499999999999 532.88 674.8499999999999 C 540.07 667.2799999999999 547.5 659.93 554.82 652.4799999999999 C 555.4000000000001 651.8899999999999 555.7900000000001 651.0999999999999 556.46 650.1399999999999 C 554.25 648.5599999999998 552.4100000000001 647.0799999999999 550.4100000000001 645.8399999999999 C 537.9800000000001 638.1299999999999 524.2500000000001 635.6199999999999 509.8800000000001 636.1299999999999 C 490.6300000000001 636.8099999999998 474.2600000000001 643.9799999999999 461.6200000000001 658.7299999999999 C 449.0600000000001 673.3699999999999 444.67000000000013 691.0299999999999 444.54000000000013 709.7199999999999 C 444.48000000000013 718.5799999999999 445.79000000000013 727.5199999999999 448.2500000000001 736.2499999999999 C 455.72000000000014 762.8699999999999 476.6400000000001 780.9199999999998 503.9400000000001 783.7499999999999 C 504.7600000000001 783.8299999999999 505.6300000000001 783.4099999999999 506.67000000000013 783.1799999999998 L 506.67000000000013 748.2299999999998 Z M 565.84 659.6399999999999 C 557.15 668.5299999999999 548.86 676.9999999999999 540.61 685.4399999999998 C 559.71 707.7899999999998 549.73 740.4299999999998 520.11 748.2999999999998 L 520.11 783.1699999999998 C 520.94 783.4299999999998 521.46 783.7799999999999 521.94 783.7299999999998 C 530.57 782.8499999999998 538.9200000000001 780.8399999999998 546.6 776.7299999999998 C 562.8100000000001 768.0599999999998 573.11 754.5199999999998 578.2900000000001 737.0799999999998 C 583.3600000000001 720.0199999999999 583.21 702.7499999999998 578.9800000000001 685.5899999999998 C 576.7000000000002 676.3199999999998 572.6700000000002 667.6999999999998 565.8400000000001 659.6399999999998 Z M 537.4200000000001 916.4199999999998 C 537.58 903.3099999999998 526.7400000000001 892.2199999999998 513.6500000000001 891.8399999999998 C 502.7700000000001 891.5199999999998 488.74000000000007 899.7899999999998 488.5300000000001 915.7099999999998 C 488.3300000000001 930.6099999999998 500.43000000000006 940.1099999999998 512.94 940.2899999999998 C 525.95 940.4799999999999 537.2600000000001 929.3899999999999 537.4200000000001 916.4199999999998 Z M 639.3800000000001 600.4499999999998 C 650.8900000000001 601.4299999999998 663.6300000000001 590.9899999999998 663.7800000000001 576.6499999999999 C 663.9200000000001 563.6099999999999 652.71 552.5299999999999 639.5600000000001 552.4999999999999 C 625.98 552.4799999999999 614.74 563.5099999999999 614.85 576.7599999999999 C 614.97 591.5199999999999 628.45 601.3099999999998 639.39 600.4499999999999 Z M 537.3700000000001 710.9299999999998 C 537.3700000000001 697.8199999999998 526.3900000000001 687.0899999999998 513.0700000000002 687.1799999999998 C 499.94000000000017 687.2699999999999 489.50000000000017 697.8599999999998 489.14000000000016 710.7999999999998 C 488.82000000000016 722.3899999999999 498.02000000000015 735.5499999999998 513.2200000000001 735.5799999999998 C 528.7200000000001 735.6099999999998 538.6700000000002 721.2999999999998 537.3700000000001 710.9299999999998 Z M 890.46 508.76999999999987 C 890.5400000000001 495.96999999999986 879.98 485.3099999999999 867.14 485.2499999999999 C 854.29 485.1799999999999 843.6899999999999 495.6899999999999 843.63 508.5399999999999 C 843.57 521.4399999999999 854 531.9599999999999 866.91 532.0299999999999 C 879.78 532.0999999999999 890.37 521.6399999999999 890.4599999999999 508.76999999999987 Z M 11.490000000000009 509.51999999999987 C 11.54000000000001 522.4999999999999 22.110000000000007 532.9599999999999 35.040000000000006 532.8099999999998 C 47.760000000000005 532.6599999999999 58.040000000000006 522.3199999999998 58.13000000000001 509.5799999999998 C 58.22000000000001 496.5699999999998 47.83000000000001 486.11999999999983 34.82000000000001 486.0999999999998 C 21.770000000000007 486.0799999999998 11.450000000000006 496.4499999999998 11.490000000000009 509.5199999999998 Z" stroke-linecap="round" />
</g>
		<g transform="matrix(1 0 0 1 480.33 -56.48)"  >
<path style="stroke: none; stroke-width: 1; stroke-dasharray: none; stroke-linecap: butt; stroke-dashoffset: 0; stroke-linejoin: miter; stroke-miterlimit: 4; fill: rgb(255,255,255); fill-rule: nonzero; opacity: 1;" vector-effect="non-scaling-stroke"  transform=" translate(-1084.76, -657.45)" d="M 1017.35 615.17 C 1023.2 610.26 1027.65 606.16 1032.47 602.53 C 1049.44 589.75 1068.32 582.25 1089.82 581.52 C 1117.33 580.59 1142.01 588.05 1163.1699999999998 605.75 C 1184.82 623.86 1198.7699999999998 646.93 1204.85 674.5 C 1211.56 704.92 1209.98 734.93 1199.02 764.24 C 1192.9 780.62 1183.54 795.12 1171.12 807.29 C 1151.26 826.74 1127.3899999999999 837.3 1099.29 838.67 C 1068.79 840.15 1042.93 830.03 1020.6099999999999 809.76 C 1019.9599999999999 809.17 1019.18 808.73 1017.6099999999999 807.63 L 1017.6099999999999 830.79 C 1012.9499999999999 832.04 969.0799999999999 832.36 961.6899999999999 831.38 C 960.4899999999999 827.4 960.2299999999999 482.55 961.4999999999999 476.08 L 1017.3499999999999 476.08 L 1017.3499999999999 615.18 Z M 1014.1 710.5 C 1013.9300000000001 719.73 1015.12 728.8 1017.64 737.64 C 1028.48 775.66 1062.26 795.3 1100 786.0699999999999 C 1118.31 781.5899999999999 1131.66 769.91 1140.31 753.5699999999999 C 1155.03 725.7399999999999 1154.57 697.0699999999999 1141.03 669.1199999999999 C 1131.33 649.0899999999999 1115.19 635.9999999999999 1092.3999999999999 633.0699999999999 C 1066.0099999999998 629.68 1041.59 639.67 1026.4099999999999 663.3699999999999 C 1017.1999999999998 677.7499999999999 1014.1799999999998 693.7399999999999 1014.1099999999999 710.4999999999999 Z" stroke-linecap="round" />
</g>
		<g transform="matrix(1 0 0 1 -367.05 -5.01)"  >
<path style="stroke: none; stroke-width: 1; stroke-dasharray: none; stroke-linecap: butt; stroke-dashoffset: 0; stroke-linejoin: miter; stroke-miterlimit: 4; fill: rgb(255,255,255); fill-rule: nonzero; opacity: 1;" vector-effect="non-scaling-stroke"  transform=" translate(-237.38, -708.91)" d="M 344.63 831.76 L 286.03999999999996 831.76 C 285.93999999999994 829.23 285.76 826.92 285.76 824.61 C 285.74 781.16 285.76 737.71 285.74 694.26 C 285.74 684.14 284.5 674.21 281.12 664.5699999999999 C 275.96 649.8399999999999 265.87 640.7399999999999 250.64000000000001 637.4399999999999 C 240.44000000000003 635.2299999999999 230.14000000000001 635.3699999999999 220.17000000000002 638.3499999999999 C 203.78000000000003 643.2399999999999 194.84000000000003 655.2299999999999 191.31 671.3299999999999 C 189.75 678.43 189.01 685.8399999999999 188.98 693.1199999999999 C 188.76999999999998 736.9399999999999 188.88 780.7599999999999 188.88 824.5699999999999 L 188.88 830.93 C 184.57999999999998 832.2199999999999 138.93 832.6099999999999 130.51 831.5 C 130.39 830.03 130.14999999999998 828.45 130.14999999999998 826.87 C 130.12999999999997 779.2 130.01999999999998 731.53 130.20999999999998 683.87 C 130.26999999999998 669.12 132.71999999999997 654.57 138.57 640.98 C 146.31 623.02 159.74 610.02 176.51 600.28 C 190.54999999999998 592.12 205.83999999999997 587.87 221.85999999999999 586.4399999999999 C 241.73 584.66 261.4 585.7199999999999 280.44 592.4499999999999 C 301.49 599.9 318.52 612.55 330.84 631.3199999999999 C 337.71999999999997 641.8 341.52 653.4 342.82 665.77 C 343.75 674.67 344.52 683.64 344.55 692.5799999999999 C 344.73 736.4 344.63 780.2199999999999 344.63 824.03 C 344.63 826.38 344.63 828.73 344.63 831.75 Z" stroke-linecap="round" />
</g>
		<g transform="matrix(1 0 0 1 -565.11 -4.95)"  >
<path style="stroke: none; stroke-width: 1; stroke-dasharray: none; stroke-linecap: butt; stroke-dashoffset: 0; stroke-linejoin: miter; stroke-miterlimit: 4; fill: rgb(255,255,255); fill-rule: nonzero; opacity: 1;" vector-effect="non-scaling-stroke"  transform=" translate(-39.31, -708.97)" d="M 68.36 831.68 L 10.64 831.68 C 9.32 827.39 9.15 591.9 10.51 586.26 L 67.8 586.26 C 69.05 590.4 69.6 819.95 68.36 831.68 Z" stroke-linecap="round" />
</g>
		<g transform="matrix(1 0 0 1 262.68 -4.88)"  >
<path style="stroke: none; stroke-width: 1; stroke-dasharray: none; stroke-linecap: butt; stroke-dashoffset: 0; stroke-linejoin: miter; stroke-miterlimit: 4; fill: rgb(255,255,255); fill-rule: nonzero; opacity: 1;" vector-effect="non-scaling-stroke"  transform=" translate(-867.1, -709.04)" d="M 839.54 586.24 L 895.3299999999999 586.24 L 895.3299999999999 831.82 C 876.68 831.86 858.28 831.85 840.03 831.82 C 838.8199999999999 827.24 838.42 595.6300000000001 839.53 586.24 Z" stroke-linecap="round" />
</g>
</g>
</g>
</svg>