<?xml version="1.0" encoding="UTF-8" standalone="no"?>
<!-- Created with Inkscape (http://www.inkscape.org/) -->

<svg
   version="1.1"
   id="svg2"
   width="338.11591"
   height="338.14569"
   viewBox="0 0 338.11591 338.14569"
   xmlns="http://www.w3.org/2000/svg"
   xmlns:svg="http://www.w3.org/2000/svg">
  <defs
     id="defs6">
    <clipPath
       clipPathUnits="userSpaceOnUse"
       id="clipPath20">
      <path
         d="M 0,2745.5 H 1920 V 0 H 0 Z"
         id="path18" />
    </clipPath>
  </defs>
  <g
     id="g10"
     transform="matrix(1.3333333,0,0,-1.3333333,-522.2749,2980.5145)">
    <g
       id="g14"
       transform="translate(63.565223,48.276719)">
      <g
         id="g16"
         clip-path="url(#clipPath20)">
        <g
           id="g112"
           transform="translate(529.6846,2093.7847)">
          <path
             d="m 0,0 c -5.062,-12.871 -15.099,-20.23 -28.916,-20.185 -32.326,0.105 -59.386,-26.282 -59.187,-59.482 0.103,-17.261 -14.718,-31.08 -31.961,-30.892 -17.574,0.192 -31.434,14.105 -31.563,31.684 -0.127,17.378 13.741,31.646 31.302,31.947 8.396,0.143 16.533,1.407 24.1,5.042 22.167,10.647 33.934,28.333 34.783,52.942 0.433,12.559 5.637,22.272 16.547,28.273 11.274,6.202 22.654,5.392 33.494,-1.671 0.605,-0.394 1.201,-0.812 1.753,-1.277 0.869,-0.733 1.696,-1.516 3.216,-2.887 C 2.03,24.136 4.975,12.651 0,0 m -7.687,-100.291 c -12.373,-12.576 -32.683,-12.644 -45.184,-0.151 -12.406,12.399 -12.439,32.48 -0.073,44.966 12.317,12.436 32.479,12.496 44.947,0.132 12.49,-12.384 12.628,-32.426 0.31,-44.947 M -141.185,33.986 c 12.522,12.145 32.645,11.675 44.904,-1.048 12.065,-12.523 11.752,-32.607 -0.699,-44.711 -12.732,-12.379 -32.839,-12.105 -45.168,0.615 -12.305,12.695 -11.879,32.69 0.963,45.144 M 15.122,56.054 c -49.354,49.626 -129.998,49.704 -179.589,0.174 -49.132,-49.072 -49.387,-129.535 -1.043,-178.489 49.491,-50.114 130.034,-50.793 179.748,-1.435 50.113,49.754 50.403,129.957 0.884,179.75"
             style="fill:#0b3168;fill-opacity:1;fill-rule:nonzero;stroke:none"
             id="path114" />
        </g>
      </g>
    </g>
  </g>
</svg>
