<svg xmlns="http://www.w3.org/2000/svg" width="1655" height="1409" fill="none"><path fill="#AFAFBF" fill-rule="evenodd" d="M528.1 532.365c50.401.222 132.429.222 182.283 0 49.854-.222 8.617-.404-91.638-.404-100.256 0-141.046.182-90.645.404Zm477.94 96.838c0 42.608.19 60.258.43 39.221.24-21.037.24-55.899 0-77.47-.23-21.572-.43-4.36-.43 38.249Zm-490.209-69.496c44.489.224 117.288.224 161.776 0 44.489-.223 8.089-.407-80.888-.407s-125.375.184-80.888.407Zm569.099 315.425c-13.8 13.797 2.89 35.167 20.39 26.117 15.89-8.218 9.93-31.282-8.08-31.282-6.1 0-7.9.757-12.31 5.165Zm-77.36 125.468c0 57.23.19 80.64.42 52.03.23-28.61.23-75.44 0-104.053-.23-28.614-.42-5.203-.42 52.023ZM130 1208.33c29.451.23 77.642.23 107.091 0 29.449-.23 5.354-.42-53.546-.42s-82.994.19-53.545.42Zm720.895 0c71.707.22 188.595.22 259.755 0 71.15-.22 12.49-.4-130.378-.4-142.864 0-201.084.18-129.377.4Z" clip-rule="evenodd"/><path fill="#E7FF34" fill-rule="evenodd" d="M1005.89 561.33c.53 84.783 1.39 249.678 1.92 366.433l.96 212.287h40.44c22.24 0 56.15.24 75.37.54 19.21.29 24.85.27 12.53-.05-12.32-.31-22.4-.85-22.4-1.18 0-.34 4.18-4.6 9.3-9.46 95.95-91.2 103.37-234.448 22.57-435.686-23.53-58.609-29.41-70.509-34.91-70.645-25.63-.637-44.32-40.485-31.04-66.166l4.67-9.015-18.61-37.216c-24.74-49.462-51.56-95.54-59.41-102.049-2.1-1.747-2.24 13.476-1.39 152.207Zm-226.771-94.327c5.802 5.803 6.098 13.787.71 19.173l-3.727 3.73H605.803c-119.087 0-171.223-.494-173.366-1.641-7.955-4.258-8.14-19.421-.295-23.981 1.946-1.131 54.681-1.642 172.669-1.675l169.867-.046 4.441 4.44Zm-510.508-14.456c0 .965-1.582 3.871-3.515 6.456-30.759 41.138-75.209 145.688-88.934 209.182-9.869 45.651-13.676 189.588-7.497 205.905 1.425 3.76 9.38 28.368 17.679 54.685 15.405 48.859 23.207 71.715 24.15 70.774.292-.292 1.832-5.976 3.421-12.632 8.399-35.162 24.803-66.542 45.184-86.433l10.271-10.023V630.627c0-98.91-.171-179.836-.38-179.836-.208 0-.379.79-.379 1.756Zm537.748 106.474c7.114 6.41 6.883 17.631-.469 22.781-4.352 3.048-365.849 3.503-372.508.468-10.51-4.788-10.507-20.334.006-24.935 8.781-3.845 368.639-2.218 372.971 1.686Zm-229.638 87.152c8.798 4.85 8.798 19.738 0 24.754-3.94 2.245-114.915 3.9-133.256 1.986-20.645-2.153-23.911-25.619-3.965-28.488 11.885-1.709 133.765-.157 137.221 1.748ZM1109.54 899.13c11.7 11.699 1.66 30.017-15.21 27.755-21-2.816-18.34-32.92 2.91-32.92 6.09 0 7.89.756 12.3 5.165Zm-823.805 297.69c-9.784 14.93-.894 28.33 20.95 31.57 41.49 6.17 584.639 11.41 735.175 11.41h59.72l4.98-4.98c9.63-9.63 20.81-78.01 12.39-87.23l-4.46-4.88-608.033 50H288.428l-2.693 4.11Z" clip-rule="evenodd"/><path fill="#37484A" d="M290 364.543c1 235.833 0 713.077 0 735.997 0 21.61-81 51.5-100.5 56 11.5 25.5 12 30 16.5 40 241.5 0 782.3 11.5 807.5-.5 25.2-12 31.5-49 31.5-85.5l-40.5-765.497-714.5 19.5Z"/><path fill="#D8E5E7" d="M264.5 1080.54c0 49-62.667 72.17-76 75.5 241.5 0 759.3 12 784.5 0 25.2-12 31.5-29 31.5-65.5V344.543h-740c1 235.833 0 713.077 0 735.997Z"/><path fill="#37484A" fill-rule="evenodd" d="M434.726 440.058c-8.239 3.358-10.487 13.833-4.472 20.827l3.667 4.262h170.98c169.051 0 171.013-.035 174.022-3.042 5.45-5.451 5.578-11.805.355-17.651l-4.584-5.13-168.356-.298c-93.327-.164-169.807.295-171.612 1.032Zm397.324 2.947c-10.399 10.399.303 26.958 15.294 23.664 16.463-3.616 12.505-28.105-4.543-28.105-4.949 0-7.267.959-10.751 4.441Zm-401.732 93.468c-2.575 2.573-3.729 5.417-3.729 9.182 0 3.766 1.154 6.61 3.729 9.183l3.728 3.729 162.225.278c89.223.152 172.366.324 184.762.38l22.537.102 3.666-4.263c5.808-6.753 4.078-17.222-3.409-20.634-2.648-1.206-55.832-1.686-186.742-1.686H434.046l-3.728 3.729Zm3.696 86.627c-8.271 4.546-9.157 16.235-1.677 22.12 3.785 2.977 5.704 3.045 73.634 2.634l69.746-.424 3.666-4.263c4.684-5.447 4.684-11.851 0-17.298l-3.666-4.263-68.868-.343c-57.461-.287-69.525.018-72.835 1.837Zm2.449 150.737c-9.617 2.325-12.879 13.478-6.209 21.232l3.667 4.263 195.48.396c132.727.271 197.377-.114 201.392-1.195 12.05-3.245 13.385-18.903 2.017-23.653-4.999-2.088-387.861-3.097-396.347-1.043Zm-1.819 87.314c-10.323 4.987-8.764 20.841 2.367 24.068 3.782 1.096 65.133 1.459 194.398 1.15l188.869-.453 3.667-4.262c5.069-5.894 4.791-12.315-.775-17.881l-4.44-4.44-190.374.103c-130.979.07-191.416.607-193.712 1.715Z" clip-rule="evenodd"/><path fill="#6C769C" fill-rule="evenodd" d="M410.259 186.025c21.514.239 56.717.239 78.23 0 21.514-.237 3.911-.431-39.115-.431s-60.627.194-39.115.431Z" clip-rule="evenodd"/><path fill="#579AA8" fill-rule="evenodd" d="M44.023 828.209C-6.165 857.811-14.529 941.481 24.55 1023.03c16.655 34.76 80.361 121.28 120.708 163.94l7.637 8.08h24.22c13.318 0 24.217-.23 24.217-.5 0-1.05-5.299-13.87-75.179-181.79-36.537-87.792-64.86-159.314-63.784-161.056 1.383-2.237-5.602-28.817-7.572-28.817-.962 0-5.809 2.395-10.773 5.322Zm211.923 76.913c-21.602 20.89-39.643 56.258-46.927 91.996-5.084 24.952-4.522 40.562 5.087 140.962 1.199 12.54 2.663 30.48 3.253 39.88l1.072 17.09h4.12c12.212 0 30.508-14.61 37.817-30.2l4.003-8.54.417-99.49c.23-54.73.23-113.077 0-129.672l-.417-30.171-8.425 8.145Z" clip-rule="evenodd"/><path fill="#30555C" fill-rule="evenodd" d="M265.848 642.883c0 56.812.189 79.832.421 51.156.231-28.676.231-75.158-.001-103.293-.231-28.135-.42-4.674-.42 52.137ZM64.239 820.192c-4.07.849-7.215 2.353-7.215 3.452 0 9.773 21.061 65.848 58.482 155.702 6.436 15.456 23.624 56.814 38.195 91.904 14.57 35.09 32.338 77.64 39.485 94.56l12.994 30.76 10.107-.23c5.56-.13 8.314-.51 6.12-.84-3.952-.61-3.996-.76-5.053-17.62-.587-9.36-2.05-27.26-3.248-39.8-6.628-69.24-8.206-89.97-8.215-107.85-.009-19.74-.011-19.75-6.914-37.931-7.176-18.903-24.209-71.336-32.582-100.296-15.029-51.987-56.705-81.283-102.156-71.811Z" clip-rule="evenodd"/><path fill="#F0B651" fill-rule="evenodd" d="M720.899 325.775c31.12.23 82.046.23 113.167 0 31.12-.229 5.658-.418-56.584-.418-62.242 0-87.704.189-56.583.418Z" clip-rule="evenodd"/><path fill="#A0B501" fill-rule="evenodd" d="M506.596 1.975c-20.862 6.574-31.062 32.386-20.33 51.446 15.705 27.899 58.328 23.174 66.571-7.378 7.368-27.32-19.161-52.603-46.241-44.068Zm444.657 37.66c-14.241 6.439-16.093 25.527-3.38 34.843 8.116 5.948 23.201 2.421 27.816-6.505 8.871-17.155-7.409-36.037-24.436-28.338ZM805.412 177.212c-.462.462-13.052.863-27.979.89-28.631.052-31.772.707-25.972 5.408 8.992 7.29 39.85 10.541 57.921 6.1 7.854-1.929 23.434-9.136 22.269-10.302-.992-.993-25.393-2.942-26.239-2.096ZM130.306 355.471c-44.267 12.558-49.335 75.516-7.651 95.063 29.765 13.96 66.604-5.353 71.315-37.386 5.416-36.842-28.57-67.631-63.664-57.677Zm979.764 154.964c-34.39 9.64-44.57 54.79-17.56 77.906 29.21 25 73.17 4.278 72.84-34.331-.25-28.959-28.36-51.12-55.28-43.575ZM93.564 526.007c-11.596 6.291-11.406 25.715.31 31.775 14.625 7.563 32.051-5.533 27.514-20.676-3.5-11.681-16.901-17.027-27.824-11.099Z" clip-rule="evenodd"/><path fill="#F1EEE5" d="M1400.79 495.439c23.5 7.99 45.61 18.05 66.14 31.48 37.46 24.5 67.74 55.69 89.94 94.68 16.28 28.59 27.31 59.19 30.26 91.77 3.7 40.82-2.61 80.06-35.13 108.96-10.74 9.54-12.11 16.68-9.7 30.22 8.03 45.06 13.59 90.56 12.01 136.57-.41 11.791 1.96 23.401 1.98 35.241.05 33.32-21.99 57.08-53.82 59.05-4.59.29-9.02 2.34-14.58 1.74-6.94 4.61-14.06 3.17-20.62 2.35-11.18-1.41-22.35-1.57-33.53-1.34-21.95.44-41.77-6.11-59.59-18.48-22.06-15.31-30.83-38.05-31.51-63.62-.68-25.791-.47-51.631-2.36-77.361-2.92-39.69-.57-79.58-5.13-119.2-1.1-9.56-.35-19.27-.25-29.77.31-19.54-.7-38.19-1.33-57.63 3.34-8.01 10.14-11.7 15.77-16.44 26.47-22.26 46.44-48.96 58.03-81.82 2.71-7.69 2.01-13.79-3.24-19.76-2.05-2.33-3.75-4.97-5.88-7.23-7.09-7.5-8.91-15.78-7.9-26.39 1.94-20.37 4.6-40.66 6.53-61.03.39-4 1.14-8 3.91-11.99Z"/><path fill="#FCFBF9" d="M1171.06 644.788c11.27-19.42 22.58-38.21 35.41-56.03 13.21-18.34 27.05-36.27 42.89-52.32 9.44-9.57 18.61-19.97 31.63-26.37 3.8 3.52 1.92 6.85.2 10.23-5.08 10-9.43 20.32-12.57 31.09-4.16 14.25.61 22.68 14.98 26.78 1.2.34-.28-.14.91.22 4.61 1.42 11.63 1.7 11.42 7.33-.18 4.64-7.13 3.48-11.12 4.3-17.26 3.51-22.12 11.35-20.24 29.17 3.23 30.54 13.58 57.9 33.36 82.44.18 25.19-3.11 49.51-2.35 74.83 1.21 14.91-1.06 28.85-2.15 42.73-2.17 27.61-.81 55.29-3.19 82.88-3.1 35.92-2.54 72.03-4.37 108.852-2.06 12.38-1.49 24.53-8.38 35.71-17.91 28.2-44.38 38.38-75.54 39.24-9.61.27-19.18.15-28.77 1.48-13.34 1.85-26.59-.8-39.83-2.27-3.37-.37-6.67-1.56-9.62-4.86-11.91-6.05-21.76-13.31-27.86-24.68-3.79-7.07-6.73-14.41-6.66-22.76.17-19.9-1.34-39.932.42-59.682 2.1-23.65 3.48-47.37 6.29-71 3.17-26.69 7.35-53.14 12.04-79.55 1.72-9.7 3.69-19.36 5.57-29.8 1.2-15.53 6.94-29.07 11.45-42.91 10.89-33.43 22.74-66.5 40.66-97 .61-1.04.78-2.36 1.67-4.1.39-.61.4-.57.38-.58 1-.97 2.02-1.97 3.37-3.37Z"/><path fill="#579AA8" d="M1282.78 1015.15c.39-18.98 1.93-37.86 2.43-56.76 1.44-55.26 3.67-110.47 7.35-165.62.31-4.64.23-9.32.46-14.82 3.64-4.3 8.18-3.97 12.44-3.77 10.17.46 20.49-1.78 31.17 2.29 1.02 41.02 4.83 81.29 5.09 121.75.23 36.329 3.16 72.63 3.78 109.02.63 36.75 26.28 64.43 62.02 72.64 25.82 5.93 51.93 3.03 78.71 5.14 28.88 51.79 56.88 103.44 85.03 155.01 1.47 2.69 1.76 5.16 1.58 8.7-2.34 6.52-7.96 8.25-12.87 10.7-16.75 8.35-34.52 13.97-53.17 19.21-21.55 4.14-39.26-2.9-54.82-16.15-19.7-16.77-36.88-35.97-52.52-56.53-23.54-30.95-44.57-63.5-62.13-98.25-3.78-7.49-7.14-15.16-10.56-23.57-11.12-26.03-20.86-51.79-26.83-78.85-.55-2.52-.36-6.65-3.44-6.93-2.82-.25-3.55 3.8-5.21 5.96-2.71 3.55-2.62 9.14-8.51 10.83Zm-159.64 65.33c27 7.75 54.54 2.79 81.87 2.88 13.55.04 26.09-3.7 38.22-9.01 13.43-5.88 23.73-15.53 32.08-28.07 4 3.2 3.09 7.28 2.49 11.23-1.26 8.26-3.02 16.45-2.82 25.73-3.31 30.12-3.05 59.64-6.18 88.9-.7 6.5-1.15 12.97-1.03 19.48.67 38.15-4.45 76.1-3.92 114.24.03 1.86-.38 3.7-1.46 6.24-3.99 4.33-8.69 4.95-13.31 5.27-22.1 1.55-43.94-1.37-65.76-4.34-1.85-.25-3.56-1.06-5.71-2.78-21.69-6.79-31.04-22.93-36.09-42.6-10.77-41.92-13.2-84.81-14.96-127.79-.81-19.53-2.3-39.04-3.42-59.38Z"/><path fill="#5E5C54" d="M1176.72 1310.23c20.73 1.56 41.08 4.95 61.76 4.58 6.79-.12 13.53-.21 20.88-1.89 5.34 2.37 4.31 6.82 4.38 10.6.22 12.05.56 24.13-.05 36.16-.84 16.61-6.37 30.83-23.43 38.93-5.07 1.59-9.44 1.42-13.78 1.42-52.2.02-104.39.06-156.59-.05-5.75-.01-12 1.19-16.98-4.88-7.89-8.14-4.98-15.89-1.64-23.87 4.38-10.44 13.11-14.52 23.3-15.09 13.3-.74 26.69.1 40.02-.31 17.97-.55 34.58-4.95 47.3-18.89 6.92-7.56 11.56-16.37 14.83-26.71Zm328.46-32.53c13.16-6.64 27.33-8.44 40.2-14.48 8.92-4.18 17.94-8.06 26.94-13.49 4.29.16 6.44 2.24 8.2 5.59 6.78 12.89 15.35 25.05 20.48 38.53 6.24 16.41 2.63 34.74-18.04 43.34-46.9 19.51-93.83 38.93-141.14 58.97-5.01 4.97-10.51 3.33-16.59 2.61-16.87-12.14-15.18-34.1 2.93-44.48 8.92-5.11 18.73-8.56 28.42-11.76 29.11-9.62 46.59-27.82 46.85-59.8.01-1.56.48-3.06 1.75-5.03Z"/><path fill="#F1EEE5" d="M1167.14 648.429c.36 10.13-6.64 17.76-10.67 26.57-15.5 33.89-28.06 68.81-37.91 104.74-1.06 3.87-2.64 7.59-4.5 11.82-20.98-14.95-38-33.82-54.31-53.31-9.91-11.84-18.63-24.67-28.37-36.66-5.61-6.91-8.76-13.85-5.25-23.43 19.71 3.42 45.45-14.12 49.31-34.34.51-2.69.25-5.57 2.43-8.37 16.68 10.92 32.97 21.98 48.88 33.57 12.08 8.8 13.97 8.98 24.09-2.13 5.39-5.93 10.5-12.11 16.3-18.46Z"/><path fill="#111F22" d="M1269.33 383.889c-9.35-1.55-17.15-4.46-23.32-11.04-7.72-8.25-9.84-17.87-5.54-26 5.34-10.08 17-16.37 27.46-13.68 7.23 1.86 11.86 2.33 17.55-4.92 12.49-15.89 36.3-11.49 44.18 7.52 1.62 3.9 1.78 4.27 5.46 2.49 12.48-6.03 20.51-2.99 27.42 9.93 1.53 2.86 1.47 6.02 6.73 3.21 13.88-7.4 29.92 4.14 31.76 20.35 1.69 14.85-5.3 26.64-16.32 35.38-4.89 3.88-6.11 7.48-6.24 12.94-.16 6.51-1.08 13.01-1.82 20.32-3.13.92-4.76-1.06-5.62-3.4-5.9-16.08-18.31-19.49-33.58-17.47-5.05.66-10.2 1.56-11.55-6.34-.42-3.38-.27-6-.3-9.41-.25-2.32-.31-3.87-.52-5.39-1.67-11.96-2.28-12.23-14.63-12.65-13.47-.47-27.06 1.66-41.12-1.84Z"/><path fill="#DFE3F4" d="M1423.89 1396.5c5.92.3 10.97.25 16.78.22 67.66.12 134.56.16 201.46.42 4.44.02 11.98-2.76 12.29 4.31.34 7.77-7.27 6.74-12.78 6.74-223.11.01-446.23.01-669.339.02-1.56 0-3.12-.11-4.66.01-4.75.38-7.56-3.08-7.64-6.48-.09-3.87 4.09-4.73 7.79-4.72 19.6.03 39.209.23 58.809-.09 8.29-.13 16.73 1.69 25.4-1.95 4.05 1.39 7.81 2.03 11.96 2.02 57.94-.13 115.87-.12 174.61-.13 7-2.22 13.39-2.98 19.99-2.97 49.65.09 99.3.05 148.95.04 5.27 0 10.56-.13 16.38 2.56Z"/><path fill="#DBB385" d="M1039.53 576.92c9.83.03 18.9.14 28.73.14 14.99 7.73 15.75 10.55 14.15 26.25-1.04 10.17-2.38 20.23-4.1 31.01 1.68 25.41-15.65 34.95-33.98 44.18-6.28 3.16-11.5 7.68-17.51-.85-6.78-6.88-15.76-7.52-23.52-10.43-17.609-6.62-21.179-14.39-13.099-31.37 6.04-12.7 11.659-25.61 17.529-38.39 6.09-13.25 16.43-20.12 31.8-20.54Zm287.9-164.842c.19 7.2 4.47 5.67 8.56 5.16 12.54-1.56 24.87-1.69 33.04 10.3 2.69 3.95 4.24 8.67 6.9 13.35-.86 15.73-1.37 31.19-.72 47.53 3.04 5.53 3.14 10.1-1.07 15.08-3.67 1.8-6.78 1.88-9.88 1.89-16.41.04-32.82-.27-49.16 1.79-3.65.46-7.44.22-11.83-1.48-2.32-1.75-2.72-3.47-2.24-6.24.48-1.62.64-2.39.91-3.73 5.3-7.62 13.98-8.23 21.04-11.79 8.75-4.41 15.59-10.08 17.77-20.07.38-1.73 1.13-4.03-1.3-4.62-1.77-.43-2.27 1.66-2.94 3.03-6.99 14.28-18.46 20.41-35.72 18.47-5.05-1.02-9.08.99-13.26 2-11.14 2.7-15.1-.26-15.24-11.71-.04-3.11.05-6.22.21-10.14 1.82-2.52 5.24-2.32 5.65-5.25.43-3.06-2.59-2.89-4.9-4.15-6.57-2.38-12.83-.94-18.97-1.48-7.01-.62-8.2-3.59-3.87-8.87 6.42-7.82 13.01-15.51 19.77-23.82 3.39-3.37 5.92-1.8 8.24.63 1.29 1.35 2.04 3.1 3.02 4.68 3.21 5.15 6.94 10.1 13.71 9.56 6.73-.54 9.67-6.1 12.25-11.51 5.19-10.88 6.64-11.6 20.03-8.61Z"/><path fill="#F1EEE5" d="M1373.48 502.92c1.04-4.21 1.32-8.16 1.73-12.88 4.67-.03 9.2.7 14.52 1.52 3.75 4.63 3.22 9.84 2.44 14.57-2.79 16.86-2.75 34.04-5.93 50.83-3.15 16.64-2.16 32.01 11.04 44.67 6.88 6.6 6.74 14.23 3.51 23.1-11.52 31.64-32.4 56.23-57.01 78.2-2.08 1.86-4.36 3.53-8.07 3.53-7.33-9.24-5.28-19.44-3.16-28.78 12.52-55.29 26.24-110.31 36.68-166.06.56-3.04 1.13-6.14 4.25-8.7Zm-72.76-4.25c.91 1.37 1.17 2.78 1.6 4.91 4.05 6.32 3.22 12.73 2.39 18.75-1.56 11.45-1.63 22.91-1.37 34.38.99 44.7-4.98 89.18-3.88 133.88.08 3.1-.24 6.22-2.88 9.42-14.37-12.79-21.97-29.41-28.04-47.1-4.26-12.42-4.84-25.41-7.11-38.1-2.82-15.8 6.39-24.69 26.74-28.17 2.14-.37 4.72 1.08 6.42-1.37-2.1-1.23-4.1-2.71-6.34-3.6-1.67-.67-3.67-.46-5.48-.84-14.66-3.08-21.9-16.16-16.67-30.27 4.37-11.77 7.69-24 14.98-34.54.77-1.11.4-3.02.57-5.28 4.86-6.58 11.32-9.82 19.07-12.07Z"/><path fill="#82ACB0" d="M1335.03 706.818c29.42-23.64 52.67-50.85 65.04-86.29 1.98-5.66 2.28-10.83-2.66-15.13-15.8-13.75-16.84-30.79-13.45-50.24 3.55-20.37 4.32-41.22 6.44-62.69 4.19-2.96 8.25-5.12 10.83 1.86-4.05 21.65-5.34 43-7.49 64.24-.09.92.22 1.95-.06 2.78-5.27 15.34.17 27.81 11.4 37.78 11.07 9.82 5.75 19.81 1.88 30.01-13.87 36.59-39.25 64-70.37 87.5-3.62-2.44-3.34-5.72-1.56-9.82Z"/><path fill="#DBB385" d="M1268.61 384.27c17.43-1.04 34.82-1.1 52.19-1.53 4.5-.11 6 1.4 6 5.78 0 4.63.72 9.27 1.1 14.73-9.12 6.47-15.31 5.86-21.96-1.34-8.73-9.45-15.85-9.17-23.48.94-2.94 3.89-5.19 8.65-11.72 8.3-3.36-8.78-1.78-17.47-2.13-26.88Z"/><path fill="#CDE801" d="M1269.92 411.378c5.47-.41 7.44-3.99 9.65-7.99 7.85-14.15 19.38-14.27 29.05-1.03 4.82 6.6 11.8 2.12 18.56 1.88.76 2.19.83 4.54.86 7.59-2.21.78-4.38 1.06-6.52.89-5.97-.45-10.04.23-11.58 7.81-1.48 7.26-6.25 13.77-14.74 14.53-8.46.75-12.14-5.93-15.89-12-1.81-2.92-2.03-7.65-8.15-6.34-.98-1.55-1.23-3.15-1.24-5.34Z"/><path fill="#111F22" d="M1300.27 481.16c7.2-2.22 14.63-3.06 21.6-5.31 6.14-1.99 11.44-5.69 12.28-13.29.41-3.68 2-8.21 6.43-7.04 5.36 1.42 3.09 5.87 2.2 9.93-3.69 16.78-18.87 19.37-30.99 25.76-2.69 1.42-5.58 2.48-9.05 3.83-1.27-4.3-1.86-8.7-2.47-13.88Zm-27.84-29.42c3.78-.36 8.86-3.21 9.48 3.08.6 6.01-4.18 5.35-8.69 5.3-2.1-2.55-4.01-5.05-.79-8.38Z"/><path fill="#F1EEE5" d="M1170.84 644.5c.46 1.62.02 3.12-2.57 3.59-.42-1.6.04-3.08 2.57-3.59Z"/><path fill="#111F22" d="M1335.3 705.41c.29 3.82.32 6.92.55 10.76.72 20.21 1.23 39.67 1.61 60.01-14.29.88-28.44.89-43.45.9-2.24-25.1 1.1-50.02 1.91-75.81 1.37-26.49.91-52.25 2.27-78 2.06-39.05 2.71-78.18 4.13-118.14 23.44-1.74 46.7-3.31 70.97-2.54-5.04 28.94-10.82 57.86-17.12 86.67-4.06 18.59-9.28 36.92-13.24 55.52-4.2 19.74-12.36 39.02-7.63 60.63Z"/><path fill="#FEFEFE" d="M1474.9 710.969c-15.56 18.89-26.86 39.81-39.59 59.76-8.6 13.47-15.94 27.74-23.82 41.67-1.37 2.42-2.34 5.11-3.96 7.34-1.34 1.86-2.93 4.59-5.94 2.86-2.61-1.5-2.57-4.03-1.31-6.51 4.47-8.8 8.81-17.67 13.52-26.34 4.22-7.79 8.86-15.34 13.31-23.7-.43-3.18.91-4.98 2.87-7.16 10.38-7.25 12.68-19.67 20.51-27.8 15.34-15.92 14.53-32.94 8.18-52.73-7.7-24.01-12.41-48.97-19.74-73.18-.86-2.86-2.3-7.39 2.19-8.83 4.58-1.47 5.77 2.69 6.6 5.94 4.5 17.55 8.42 35.26 13.35 52.69 3.07 10.84 4.27 22.26 10.22 32.82 1.85 2.93 2.79 5.6 4.34 8.66.15 2.39.15 4.19.15 6.67.36 2.93.55 5.16-.88 7.84Z"/><path fill="#82ACB0" d="M1533.6 904.529c4.59 6.94 2.31 10.4-5.01 10.42-30.77.1-61.54 0-92.31.03-4.13 0-8.4-1.43-8.4-5.42 0-4.81 4.63-5.62 9-5.6 32.01.14 64.02.19 96.72.57Z"/><path fill="#DBB385" d="M1410.17 829.998c9.97 4.22 19.19 8.49 28.73 11.85 6.09 2.14 3.33 3.09.18 5.14-9 5.85-17.88 11.89-26.8 17.86-.51.34-.98.83-1.54.98-1.06.29-23.7-15.76-23.69-16.88.01-.81.47-1.74 1-2.39 4.7-5.68 9.47-11.31 14.2-16.97 2.48-2.97 4.89-1.7 7.92.41Z"/><path fill="#82ACB0" d="M1430.06 757.979c-.1 2.67-.19 5.05-2.66 6.92-10.88-.03-8.9-9.86-10.78-15.47-7.89-23.49-14.27-47.47-21.6-71.16-1.33-4.3-1.76-7.56 2.99-8.73 4.46-1.1 5.87 1.87 7.09 6.08 7.92 27.35 16.29 54.58 24.96 82.36Zm45.09-46.339c-.64-2.46-.62-4.79.02-7.47 13.74 0 25.7 5.58 38.35 8.17 13.23 2.71 26.13 7.01 39.2 10.53 3 .81 5.69 2.41 5.04 5.57-.68 3.34-3.59 4.87-7.19 3.9-24.94-6.79-50.21-12.36-75.42-20.7Zm1.47-14.732c-6.24-.27-4.4-4.54-4.74-8.16 21.64-3.16 43.1-5.72 64.57-8.28 3.34-.4 6.38-.26 6.69 4.16.2 2.83-.62 4.36-4.01 4.74-20.58 2.31-41.13 4.9-62.51 7.54Z"/><path fill="#F1EEE5" d="M1273.28 1083.96c-2.73-12.78 3.35-24.18 2.68-37.02 2.47-10.63 8.04-19.88 5.91-31.27 5.69-5.37 5.9-13.31 11.01-18.311 1.92-1.88 3.1-5.66 6.05-4.89 2.81.74.78 4.31 1.4 6.55 5.97 21.611 11.69 43.291 20.28 64.071 2.58 6.23 5.03 12.51 7.7 19.45-.9 1.87-2.2 2.86-3.76 2.94-16.87.81-33.76 2.4-51.27-1.52Z"/><path fill="#82ACB0" d="M1206.55 898.428c5.32.8 12.83-2.48 13.02 4.5.23 8.59-7.93 4.65-12.27 4.7-30.72.35-61.44.22-92.16.13-3.01-.01-7.39 1.69-7.55-3.96-.16-5.68 4.04-5.33 7.77-5.34 30.11-.03 60.21-.03 91.19-.03Z"/><path fill="#DBB385" d="M1271.62 737.82c-10.27-.17-16.97-4.78-18.02-11.84-1.1-7.37 4.38-15.45 11.99-17.66 6.73-1.96 15.69 2.89 18.77 10.17 3.29 7.79-.52 13.94-12.74 19.33Zm-22.1 153.4c-5.37-9.19-3.86-16.39 3.94-21.2 7.49-4.62 16.32-2.82 21.12 4.3 3.74 5.55 2.12 16.49-3.74 19.93-7.24 4.25-14.64 4.36-21.32-3.03Z"/><path fill="#FEFEFE" d="M1272.45 1084.16c18.17-.83 36.21-.87 55.14-.92 31.04 64.77 69.06 124.13 121.38 173.51 15.33 14.47 32.97 23.37 55.76 20.26 2.63 24.24-4.22 45.13-25.63 57.98-12.4 7.44-26.58 12.13-40.28 17.16-17.26 6.34-23.06 13.74-22.91 29.96.06 6.58 3.94 9.93 8.52 14.12-60.83.66-121.98.68-184.1.69 16.06-9.62 20.92-24.9 20.08-43.36-.59-12.93-.14-25.9-.23-39.73 2.15-13.83.64-26.92 1.31-39.94 1.93-37.56 2.93-75.18 5.3-112.71 1.6-25.42 1.61-50.97 5.66-77.02Z"/><path fill="#FEFEFE" fill-opacity=".75" d="M692.332 596.64C546.702 579.109 476.7 437.531 522.655 318.712c32.78-84.828 126.621-144.218 225.967-123.44 96.674 20.235 153.715 77.422 169.497 174.253 22.791 139.847-106.963 248-225.787 227.115Z"/><path fill="#111F22" fill-rule="evenodd" d="M925.861 604.935c19.606 17.548 39.732 35.562 66.889 45.288 18.34-29.512 32.08-58.099 20.56-93.214-4.02-2.986-7.68-6.083-11.2-9.054-6.918-5.847-13.262-11.208-20.558-14.269-28.042-11.757-33.006-29.57-21.716-56.519 14.778-35.3 16.611-73.026 12.032-110.313-17.901-145.77-143.55-244.36-289.177-227.638-155.489 17.835-242.695 150.185-224.326 290.829 26.457 202.866 269.499 289.271 418.303 167.514 14.027-11.472 25.069-14.008 42.049 1.009 2.381 2.105 4.759 4.232 7.144 6.367ZM522.655 318.713C476.7 437.532 546.702 579.11 692.332 596.641c118.825 20.885 248.579-87.268 225.787-227.115-15.782-96.831-72.823-154.018-169.497-174.254-99.346-20.777-193.187 38.613-225.967 123.441Z" clip-rule="evenodd"/><path fill="#DBB385" d="M1290.15 400.358c4.85-2.22 8.2-.38 9.96 3.08 1.69 3.32-1.49 4.3-3.99 5.88-3.25 2.06-1.41 4.02 1.47 4.84 2.28.65 6.58-1.51 5.79 3.33-.7 4.29-2.93 8.31-7.45 9.93-3.46 1.24-5.92-.6-7.61-3.63-4.4-7.9-5.18-15.63 1.83-23.43Z"/><path fill="#FEFEFE" d="M1272.9 719.199c2.64 4.58 1.65 7.8-2.96 8.84-3.34.76-5.13-1.33-5.06-4.78.12-5.38 3.33-5.68 8.02-4.06Z"/><path fill="#EDEBEB" d="M1260.76 877.669c5.87-.11 7.58 2.66 5.54 7.03-1.23 2.64-4.42 4.36-7 2.04-3.07-2.76-3.73-6.29 1.46-9.07Z"/><path fill="#111F22" stroke="#111F22" stroke-linecap="round" stroke-width="11" d="M1076.1 643.296c-.79-5.069 3.62-21.281 5.93-28.753l306.96 220.276 21.71 23.392c2.31 2.436 3.16 11.891-11.84 30.214-15 18.324-43.43 7.635-55.77 0L1046 676.435c5.43-3.412 17.17-10.917 20.73-13.646 4.44-3.411 10.36-13.158 9.37-19.493Z"/></svg>