<svg xmlns="http://www.w3.org/2000/svg" width="1470.639" height="1105.877" fill="none"><path fill="#a0b501" fill-rule="evenodd" d="M192.216 459.531c-21.502 4.181-29.268 23.835-35.144 88.948-3.839 42.53-14.01 55.048-64.235 79.047-64.052 30.606-72.57 52.435-43.298 110.962 17.296 34.585 14.23 55.093-8.78 58.71-24.151 3.797-36.995 16.772-40.197 40.61-4.104 30.567 14.287 50.222 54.476 58.218 43.149 8.587 56.077 11.852 80.758 20.392 22.344 7.735 48.59 13.494 61.485 13.494 2.657 0 2.978-30.178 2.201-207.659-.958-219.207-1.075-216.278 8.695-217.926 12.574-2.118 12.802-.404 12.802 96.329v88.964l7.061-2.153c12-3.661 25.074-17.16 36.115-37.291 10.959-19.982 18.351-24.7 17.077-10.903-1.941 21.002-30.135 53.984-50.155 58.669l-10.186 2.386.405 76.552c.867 164.01-.31 155.663 20.751 147 18.508-7.613 34.472-27.873 54.752-69.481 9.543-19.577 25.606-30.129 57.755-37.936 17.605-4.275 18.065-4.86 14.779-18.705-4.088-17.238-14.001-32.869-30.573-48.214-28.969-26.82-28.451-39.233 2.908-69.779 54.081-52.676 27.537-112.892-49.763-112.892h-27.533l-3.839-5.809c-2.111-3.195-7.744-19.79-12.519-36.881-15.397-55.106-28.254-70.005-55.798-64.652zm1033.094 11.577c6.71 16.771-12.31.873-14.77-.05-13.06-4.897-15.65-4.887-16.07.05-.19 2.172-5.04 9.72-10.8 16.771-5.74 7.05-9.31 12.202-7.91 11.449 18.48-9.998 13.41 20.872-6.13 37.268-6.88 5.776-11.16 11.025-11.16 13.691 0 5.888 11.94-2.25 27.69-18.859 17.06-18.006 32.05-19.942 32.05-4.139 0 15-38.91 58.098-58.08 64.34-3.34 1.086-3.88 3.96-3.88 20.752 0 17.982.3 19.347 3.88 17.626 6.4-3.089 30.57-25.504 41.96-38.932 19.32-22.756 32.77-15.346 18.15 9.997-8.48 14.705-51.61 53.898-59.31 53.898-5.2 0-5.59 3.787-2.68 26.139l1.51 11.617 21.74-18.878c24.17-20.981 23.69-20.764 31.27-14.124 12.36 10.815 5.08 25.842-25.4 52.374-19.93 17.358-20.75 18.402-18.25 23.211 1.44 2.771 2.62 10.659 2.62 17.531 0 15.878 1.03 15.795 21.83-1.776 20.28-17.128 25.03-19.633 31.51-16.599 5.31 2.488.66 11.637 14.21-5.32 17.35-17.047 15.67-51.07 81.21-59.508l4.98 1.274v-97.767c0-104.905.04-105.337 10.66-100.363 6.91 3.235 7.64 14.709 11.78 185.512l.48 19.782 12.32 2.41c66.34 12.977 90.7-3.303 87.38-58.37l-1.34-22.327 10.03-13.183c20.81-27.345 18.34-51.625-8.58-84.415-6.7-8.159-17.94-27.556-21.82-37.64-1.32-3.423-10.11-95.287-113.24-94.646 0 0-39.17 7.275-66.58 27.419-27.42 20.145-21.26 73.785-21.26 73.785zm-104.22 18.382c-3.84 3.691-5.78 6.711-4.31 6.711 1.48 0 7.23 3.323 12.78 7.385 14.67 10.728 14.53 10.726 14.53.211 0-8.518-.8-10.037-8.01-15.24l-8.02-5.778zm-13.51 33.878c0 4.227.96 7.685 2.14 7.685 1.18 0 9.56 5.663 18.63 12.585 19.61 14.965 20.05 15.048 20.55 3.861.31-7.177-.47-9.118-4.43-10.945-2.65-1.222-10.29-5.857-16.98-10.301-17.94-11.912-19.91-12.196-19.91-2.885zm-2.95 45.925c-9.18 13.325-6.54 17.831 22.86 39.026l18.81 13.559.66-12.933c.63-12.222.33-13.149-5.49-16.853-3.39-2.157-12.33-8.494-19.86-14.086-14.24-10.562-15.33-11.12-16.98-8.713zm-15.41 44.498c-.54.819-2.24 4.972-3.79 9.232-17.65 48.492-52.26 86.25-97.615 106.508-13.837 6.179-28.385 13.374-32.326 15.988-5.394 3.578-10.938 25.158-11.662 23.176-.529-1.449 1.414 4.019 0 0-3.965-11.275-12.302-18.83-20.776-18.83-12.678 0-16.479 5.028-26.343 34.852-2.993 9.051-21.668 21.411-26.208 32.06-9.866 23.146 3 23.5 6.933 29.878 5.157 14.049 5.845 27.701 2.294 45.547-5.823 29.256 19.024 55.224 55.272 55.224 37.574 0 57.685-20.879 52.891-55.22-4.72-33.785-2.509-38.605 35.18-35.722 65.37 5.003 94.74 1.595 120.42-13.978l8.34-6.059-.03-26.36-.04-26.359-29.03-9.511c-66.81-21.883-87.26-36.513-67.76-48.465 8.24-5.05 45.86 5.276 88.34 24.241l8.52 3.803V736.33c0-11.711-.83-17.465-2.51-17.465-6.83 0-63.67-38.906-68.59-46.961-11.69-19.108 17.92-15.778 50.81 5.714 8.93 5.828 16.61 10.258 17.09 9.844 3.26-2.854-4.05-37.572-8.47-40.237-2.65-1.597-12.18-8.132-21.18-14.521-9.01-6.39-19.17-13.592-22.58-16.009-3.42-2.414-6.65-3.721-7.18-2.904zm119.01 159.311c-1.68 2.387-22.02 13.703-30.4 16.92-5.88 2.256-6.09 2.839-6.09 17.237v14.901l5.72-4.696c9.22-7.559 36.98-46.321 33.18-46.321-.56 0-1.64.881-2.41 1.959z" clip-rule="evenodd"/><path fill="#3b3a35" d="M651.258 942.67H613.22c-47.618-3.03-136.149 10.243-188.434 28.249l-23.013 7.927-122.804 53.844c-84.694 35.77-114.104 63.82-148.151 67.05-11.665 1.11-14.632 3.01-8.116 5.19 1.925.65 223.014 1.06 559.694.92 340.904-.15 603.724-.98 593.134-1.87-37.57-3.18-62.78-13.29-103.79-41.6-50.38-34.78-60.42-37.73-115.28-33.77l-314.128-92.403-4.438 13.069-46.352-3.582c-25.433 0-39.72-3.824-40.284-3.024z"/><path fill="#79aeb9" d="M1329.31 666.518c-76.59 4.992-75.42 33.305-110.55 93.596-18.23 31.291-32.76 51.575-42.33 59.105-3.95 3.106-4.72 6.012-4.91 18.394-.26 17.275-1.84 23.273-6.89 26.057-6.8 3.755-12.8-3.524-12.8-15.524 0-5.693-.38-10.349-.84-10.349-.46 0-6.68 3.084-13.83 6.856-26.22 13.836-57.39 16.924-108.57 10.754-38.339-4.622-46.337 1.802-43.514 29.978 3.454 34.49-.562 44.281-22.143 54.001-48.188 21.701-90.264-8.45-80.599-57.759 2.349-12.001 2.164-14.979-1.677-26.658l-4.324-13.149-30.958.554c-23.562.422-172.714-25.599-187.47-28.317l-19.389-3.572-19.359-7.509c-10.647-4.13-32.802-15.393-49.23-25.029-29.567-17.342-50.02-25.49-59.983-24.033-.084.075-2.363 1.295-5.53 2.965-1.088.574-2.281 1.201-3.526 1.852-4.867 2.55-125.167 52.635-126.689 52.149-1.52-.488-2.766-.169-2.766.708 0 .875-7.717 3.58-17.147 6.006-38.129 9.817-43.138 14.011-65.866 55.171-33.686 61.01-69.419 72.621-144.88 47.083-24.962-8.45-48.128-14.609-76.333-20.298l-17.7-3.568 1.482 57.143c2.398 92.345 14.55 122.335 57.311 141.445 24.305 10.87 120.802-17.05 240.572-69.59 43.61-18.64 94.42-59.498 172.582-73.764 78.162-14.266 295.468 4.059 288.382 6.788 67.109 20.351 159.159 77.976 249.484 71.156 25.51-1.92 35.27-1.95 45.36-.13 21.51 3.89 26.24 6.45 86.98 47.01 39.32 26.26 64.16 28.31 183.6 29.42 10.82 0 36.81-8.9 54.26-44.49 17.46-35.6 7.28-114.063 0-148.287 55.39-247.284-72.97-252.599-100.21-246.165z"/><path fill="#1a2223" d="M1146.88 457.7c.06-7.332 1.26-15.226 2.67-17.542 9.67-15.807 19.16 3.759 12.56 25.884-3.73 12.509-3.43 12.74 6.62 5.018 29.5-22.665 31.81 2.451 2.51 27.223-9.94 8.403-12.75 12.049-12.69 16.458l.09 5.665 3.2-6.441c8.18-16.481 22.12-18.381 21.99-2.998-.09 11.07-7.48 21.825-18.96 27.591-6.59 3.313-9.87 10.233-6.99 14.745 1.97 3.08 9.75-2.694 32.09-23.804 16.52-15.623 26.05-15.798 26-.476-.04 13.082-32.25 49.99-51.57 59.098-10.23 4.82-15.59 40.477-6.49 43.133 3.26.949 32.37-24.466 44.53-38.883 19.87-23.528 31.29-16.984 16.34 9.356-6.76 11.906-53.3 53.246-59.94 53.246-4.23 0-4.4.902-3.26 17.91 1.64 24.415 1.87 24.44 26.09 2.799 21.58-19.29 24.87-20.965 30.85-15.731 11.02 9.65 1.14 28.714-27.19 52.457-19.95 16.718-21.02 18.005-18.42 22.267 1.52 2.488 2.98 10.841 3.24 18.56.61 17.794 1.03 17.755 25.68-2.42 11.05-9.052 21.98-16.458 24.29-16.458 21.62 0-6.37 38.529-38.27 52.677-12.46 5.528-12.25 4.879-12.29 37.715-.03 29.798-1.84 39.334-7.45 39.334-7.22 0-8.3-5.295-8.74-42.916l-.43-37.436-38.98-13.701c-57.85-20.336-68.23-26.793-62.08-38.606 5.82-11.182 32.3-5.675 84.92 17.658 16.83 7.464 17.24 7.168 17.24-12.477 0-16.134-.3-17.236-5.25-19.211-13.65-5.441-61.59-37.953-65.82-44.637-12.14-19.149 16.89-14.75 50.94 7.721 14.63 9.664 19.31 11.426 17.13 6.471-.69-1.582-1.92-10.581-2.74-19.999l-1.47-17.124-17.74-11.464c-36.63-23.676-53.46-41.781-45.41-48.833 5.99-5.241 13.27-2.188 38.34 16.071 30.27 22.057 27.6 21.776 27.6 2.904 0-11.087-.79-15.498-2.77-15.517-9.45-.097-54.76-39.628-54.76-47.78 0-16.829 12.96-17.691 33.17-2.203 25.97 19.902 24.36 19.523 24.36 5.714 0-6.52-.9-11.854-2-11.854-7.87 0-42.47-27.748-41.83-33.547 1.1-9.901 8.19-9.148 25.16 2.665 7.94 5.529 14.69 9.731 15 9.336 4.17-5.324-1.94-23.18-9.51-27.765-10.66-6.471-17.61-17.143-14.23-21.873 3.92-5.468 12.97-5.265 18.07.406 6.22 6.924 6.5 6.574 6.6-8.386zm180.36 117.395c-.53-53.507-.54-98.373-.02-99.705 1.39-3.58 8.85-2.938 11.23.968 3.36 5.499 11.04 196.972 8.01 199.623-.57.501-4.92-.105-9.65-1.346l-8.61-2.256zM201.067 720.223c0-160.512.621-210.235 2.655-212.015 1.46-1.278 4.248-2.323 6.195-2.323 8.693 0 8.85 1.665 8.85 94.293 0 100.822-1.332 94.102 16.809 84.798 11.695-5.998 16.979-12.167 29.655-34.627 10.208-18.088 14.567-21.267 14.136-10.306-.71 18.068-25.834 48.368-46.243 55.77l-12.144 4.405v229.696h-19.913z"/><path fill="#bed1ff" fill-rule="evenodd" d="M608.866 935.291c-3.375 1.53-2.213 17.152 1.656 22.272 3.803 5.033-1.508 4.711 77.784 4.711 78.749 0 72.652.336 74.769-4.126 2.609-5.498 3.702-19.637 1.617-20.925-.597-.369-.583-.536.065-.782.453-.173.275-.289-.396-.258-1.126.053-1.19.334-.838 3.713.867 8.339-1.273 17.995-4.378 19.755-2.879 1.632-138.911 1.365-143.009-.28-6.1-2.45-9.324-13.113-6.766-22.379.334-1.207.561-2.177.504-2.154-.056.024-.51.227-1.008.453zm-24.191.864c-.02.415-.008 3.608.028 7.096.102 10.195-1.485 15.654-4.896 16.844-4.506 1.57-123.874.86-127.486-.759-5.977-2.678-7.96-6.336-7.778-14.349.096-4.219-.059-5.276-.816-5.567-.805-.308-.935.459-.929 5.51.008 8.636 2.623 13.493 8.75 16.255 2.354 1.061 126.804 1.457 130.3.415 3.806-1.135 7.343-26.2 3.697-26.2-.46 0-.851.34-.87.755zm-80.436 40.759c2.408.114 6.349.114 8.757 0 2.408-.114.438-.209-4.378-.209-4.817 0-6.787.095-4.379.209zm296.216.003c5.564.1 14.667.1 20.231 0 5.564-.099 1.012-.181-10.115-.181s-15.679.082-10.116.181z" clip-rule="evenodd"/><path fill="#254147" fill-rule="evenodd" d="M763.943 486.173c-.126.376-1.099.716-2.163.755-1.064.038-1.935.29-1.936.559-.001.269-.303.302-.673.074-.369-.229-.884-.071-1.144.349-.26.421-1.316.795-2.346.832-1.031.038-1.875.301-1.876.586-.001.284-.4.364-.888.177-.487-.187-1.04-.092-1.227.211-.187.303-.784.381-1.326.173-.713-.273-.849-.156-.491.423.371.599.174.717-.777.469-.7-.183-1.363-.063-1.473.266-.11.331-1.008.664-1.994.741-.987.078-2.426.48-3.198.893-.772.413-1.79.603-2.262.422-.473-.182-.859-.035-.859.326 0 .36-.544.513-1.208.339-.664-.173-1.208-.037-1.208.302 0 .34-.543.476-1.208.302-.664-.173-1.207-.078-1.207.213 0 .29-.408.372-.906.181-.501-.193-.906-.018-.906.391 0 .441-.486.612-1.207.423-.664-.174-1.363-.065-1.552.241a.659.659 0 0 1-.906.21c-.309-.191-.562-.028-.562.363 0 .429-.59.597-1.492.424-.914-.174-1.345-.048-1.113.327.231.375-.126.48-.925.271-.716-.187-1.302-.062-1.302.277 0 .34-.543.476-1.207.302-.665-.173-1.208-.037-1.208.302 0 .34-.544.476-1.208.302-.664-.173-1.208-.037-1.208.302 0 .34-.543.476-1.208.302-.664-.173-1.208-.04-1.208.297 0 .336-.407.455-.905.264-.499-.191-.906-.053-.906.308 0 .36-.544.513-1.207.34-.664-.174-1.353-.082-1.53.204-.176.287-.765.351-1.307.143-.709-.272-.848-.155-.495.416.373.604.104.72-1.123.486-.888-.17-1.752-.086-1.921.187-.168.274-.75.327-1.292.119-.709-.272-.848-.156-.495.416.372.602.108.721-1.09.491-.87-.166-1.457-.099-1.303.149.354.574-3.761 1.368-4.553.878-.327-.202-.594-.06-.594.313 0 .406-.488.526-1.207.298-.724-.23-1.208-.109-1.208.301 0 .424-.49.531-1.284.278-.94-.298-1.158-.204-.815.35.349.566.064.655-1.133.355-1.027-.258-1.599-.156-1.599.285 0 .388-.524.548-1.208.37-.663-.174-1.352-.082-1.529.204-.177.287-.765.351-1.307.143-.709-.272-.848-.155-.495.416.373.603.106.721-1.109.489-.88-.169-1.599-.041-1.599.284 0 .325-.544.449-1.208.275-.663-.173-1.366-.058-1.56.256-.195.315-.874.407-1.51.205-.677-.215-1.158-.083-1.158.318 0 .424-.489.53-1.283.278-.94-.299-1.158-.205-.816.349.35.566.064.656-1.132.355-.995-.25-1.6-.154-1.6.255 0 .381-.506.495-1.208.273-.743-.237-1.207-.109-1.207.331 0 .418-.503.584-1.208.4-.663-.174-1.366-.059-1.56.256-.195.314-.908.396-1.586.181-.737-.235-1.086-.155-.869.197.463.749-6.479 2.26-7.496 1.631-.469-.29-.602-.218-.35.189.236.381-.163.735-.957.848-1.879.268-2.003 1.816-.313 3.888 1.709 2.093 2.701 5.336 3.102 10.131.163 1.957.584 3.846.935 4.197.352.351.639 1.264.639 2.027 0 .764.669 2.68 1.488 4.258 2.06 3.975 2.371 4.934 2.496 7.7.165 3.654 1.338 8.234 2.411 9.42.766.846.876 1.825.549 4.878-.361 3.366-.254 4.019.9 5.485.928 1.179 1.206 2.146.956 3.321-.239 1.117.039 2.246.854 3.468 1.607 2.408 1.611 5.143.009 5.562-1.524.398-1.571 1.79-.076 2.265.731.231 1.262 1.153 1.503 2.607.57 3.451.494 3.746-1.125 4.362-2.4.912-1.452 4.227 1.207 4.227 2.713 0 4.079 6.4 1.51 7.072-1.461.382-1.562 1.118-.225 1.631.748.286.902.88.644 2.469-.19 1.171-.064 2.262.286 2.478.344.213.476 1.129.295 2.036-.182.909-.063 1.919.265 2.247.392.392.389 1.507-.008 3.259-.504 2.225-.416 3.025.54 4.87 1.125 2.17 1.124 2.224-.025 3.264-1.514 1.37-1.477 2.396.127 3.519 1.182.829 1.226 1.073.507 2.809-.673 1.626-.647 2.139.18 3.54.791 1.338.85 2.102.326 4.171-.454 1.787-.455 2.76-.002 3.305.352.426.691 3.211.753 6.19.061 2.98.36 6.976.665 8.882.369 2.307.342 3.861-.08 4.65-.475.887-.382 1.712.371 3.291.927 1.945.929 2.222.027 3.599-.855 1.304-.867 1.584-.094 2.225 1.162.964 1.116 1.792-.149 2.717-.872.638-.921 1.002-.312 2.339.574 1.259.54 2.277-.162 4.975-.487 1.866-.752 3.606-.59 3.868.494.8-.953 6.492-1.837 7.226-.648.538-.682 1.013-.156 2.169.504 1.106.495 1.659-.034 2.188-.389.39-.718 1.81-.729 3.155-.012 1.345-.41 3.125-.885 3.955-.474.831-.872 2.795-.885 4.365-.017 2.365-.279 3.023-1.53 3.844-1.427.934-2.126 3.265-.979 3.265.293 0 .03 2.106-.584 4.681-.614 2.574-1.329 5.767-1.589 7.096-.441 2.256-.622 2.428-2.737 2.603-2.59.214-2.605.24-1.279 2.265.917 1.399.912 1.585-.073 2.673-.583.645-.893 1.603-.689 2.134.416 1.085-1.736 5.724-2.656 5.724-.367 0-.342.41.068 1.064.528.846.28 1.806-1.203 4.664-1.027 1.98-1.867 4.202-1.867 4.939 0 .737-.279 1.512-.618 1.722-.844.522-4.214 8.047-4.214 9.411 0 .605-.686 1.736-1.523 2.513-1.079 1-1.63 2.286-1.884 4.402-.679 5.632-7.448 8.791-10.83 5.054-1.658-1.832-1.312-7.081.658-9.984.825-1.217 1.501-2.676 1.501-3.243 0-.566.507-1.488 1.127-2.048.684-.62 1.269-2.233 1.492-4.113.221-1.873.85-3.608 1.591-4.398.674-.717 1.225-1.746 1.225-2.286s.291-1.162.645-1.381c.355-.219.498-.783.318-1.252-.644-1.678 3.001-4.879 4.508-3.957 2.398 1.467 3.006-.284.72-2.074-1.931-1.511-1.94-1.543-1.05-3.674.494-1.182.898-2.767.898-3.524 0-.756.677-2.556 1.503-4.002.826-1.446 1.506-3.356 1.51-4.245.004-1.012.589-2.074 1.56-2.838.854-.673 1.502-1.711 1.44-2.309-.22-2.13.061-2.686 2.895-5.718 2.869-3.069 2.869-3.069 1.51-3.973-1.582-1.052-1.818-4.025-.464-5.813.497-.656.721-1.813.533-2.752-.212-1.061.006-1.894.634-2.415.569-.473.958-1.733.958-3.107 0-1.567.337-2.501 1.049-2.899.98-.548 1.255-1.921 1.337-6.672.014-.804.438-2.091.943-2.861.732-1.118.771-1.633.195-2.556-.584-.935-.519-1.463.343-2.779.885-1.351.946-1.912.36-3.325-.571-1.378-.53-1.97.217-3.115.61-.937.849-2.435.708-4.434-.15-2.128.066-3.332.732-4.077.859-.96.855-1.157-.054-2.161-1.155-1.277-1.331-4.965-.287-6.01.548-.547.519-1.073-.121-2.271-.661-1.234-.684-1.802-.109-2.722 1.06-1.697.89-2.857-.482-3.292-1.611-.512-1.533-2.344.151-3.518 1.051-.734 1.136-.955.375-.98-1.81-.058-2.625-1.687-1.705-3.407.724-1.353.657-1.812-.603-4.119-1.502-2.749-1.313-3.98.61-3.98 1.419 0 1.477-.474.226-1.855-1.322-1.462-1.578-5.197-.433-6.341.505-.506.818-.975.696-1.042l-1.431-.788c-1.772-.976-1.978-5.064-.331-6.555 1.531-1.385 1.54-1.866.072-3.733-1.049-1.333-1.083-1.679-.34-3.459.741-1.772.706-2.16-.34-3.747-1.469-2.227-1.649-7.799-.269-8.329 1.035-.397 1.222-2.534.273-3.121-.427-.264-.435-.63-.025-1.124.834-1.004.164-3.383-1.463-5.199-2.057-2.292-2.865-4.208-2.516-5.961.174-.873-.041-2.252-.476-3.064-.572-1.066-.621-1.852-.178-2.826.484-1.062.362-1.67-.571-2.857-2.399-3.05-3.441-6.871-2.334-8.561.853-1.301.868-1.664.125-2.85-.469-.747-1.168-2.354-1.553-3.57-.386-1.216-1.107-2.367-1.602-2.557-.598-.229-.88-1.113-.836-2.62.075-2.555-.663-5.834-1.785-7.931-.412-.77-.593-2.022-.403-2.781.223-.885-.085-1.929-.854-2.907-.661-.841-1.201-1.915-1.201-2.388 0-.474-.194-1.055-.431-1.292-.968-.969-2.411-5.746-1.891-6.266.325-.325-.315-1.974-1.585-4.086-1.173-1.947-2.132-3.691-2.132-3.877 0-.186-.654-.337-1.453-.337-.798 0-1.301.244-1.117.541.19.307-.88.405-2.462.227-1.833-.207-2.665-.102-2.414.305.251.406-.485.504-2.124.284-1.543-.207-2.508-.096-2.508.288s-1.053.507-2.728.318c-1.499-.169-2.891-.042-3.09.281-.21.339-1.486.421-3.009.192-1.454-.218-2.985-.176-3.401.093-.624.404-6.441.692-15.62.772-1.753.015-1.856 2.298-.167 3.699 1.116.926 1.072 3.517-.067 3.953-1.309.503-1.113 1.427.302 1.427.98 0 1.208.403 1.208 2.138 0 1.236.544 2.874 1.289 3.882.785 1.062 1.132 2.151.888 2.787-.248.647.054 1.526.796 2.316 1.717 1.828 3.087 5.379 2.464 6.386-.346.561-.026 1.425.967 2.604.892 1.061 1.349 2.192 1.145 2.835-.207.652.275 1.802 1.231 2.939.865 1.027 1.405 2.139 1.199 2.472-.469.759 1.05 5.303 2.655 7.942.739 1.216 1.08 2.535.871 3.371-.24.954.15 1.959 1.281 3.304 1.247 1.482 1.545 2.341 1.276 3.684-.193.963-.062 2.29.29 2.948.461.861.445 1.433-.057 2.038-.885 1.066-.268 2.101 1.254 2.101.645 0 1.172.357 1.172.793 0 .436.543 1.917 1.208 3.292.664 1.375 1.207 3.626 1.207 5.001 0 1.585.442 3.061 1.208 4.036.774.983 1.208 2.45 1.208 4.078 0 1.775.364 2.872 1.208 3.635.732.663 1.208 1.86 1.208 3.04 0 1.07.407 2.284.906 2.697.498.414.905 1.474.905 2.356 0 .881.441 2.232.979 2.999.754 1.078.833 1.714.344 2.787-.53 1.165-.39 1.619.865 2.799 1.005.944 1.395 1.824 1.182 2.671-.174.696.148 1.926.716 2.734 1.117 1.587 3.07 8.363 3.126 10.846.02.84.462 2.136.983 2.88.521.745.887 1.96.813 2.701-.075.742.073 2.099.328 3.017.279 1.007.201 1.983-.197 2.462-.488.588-.358 1.386.498 3.065 1.617 3.172 1.3 8.419-.526 8.699-1.508.231-1.559.62-.315 2.396.531.759.781 1.864.57 2.528-.206.648-.097 1.694.24 2.325.439.82.392 1.451-.165 2.212-.647.886-.601 1.414.275 3.132.838 1.643.927 2.463.435 4.001-1.058 3.301-1.235 5.096-.546 5.522.711.439.908 2.909.281 3.536-.209.209-.449 1.545-.533 2.969-.692 11.746-2.528 22.535-4.486 26.375-1.357 2.658-2.894 3.455-2.17 1.125.232-.747.657-2.662.944-4.255.288-1.592.709-3.482.937-4.2.896-2.825 1.778-20.581 1.099-22.115-.24-.542-.47-4.407-.51-8.59-.058-5.998-.286-7.931-1.082-9.145-1.106-1.688-1.471-5.289-.79-7.809.346-1.28.176-1.749-.826-2.286-.721-.386-1.261-1.273-1.261-2.073 0-.769-.306-2.276-.68-3.349-.525-1.507-.501-2.284.106-3.419.709-1.325.622-1.639-.896-3.224-.924-.965-1.492-2.061-1.26-2.436.231-.375-.172-1.942-.896-3.484-1.621-3.448-2.172-6.508-1.271-7.064 1.07-.661.794-1.789-1.131-4.631-1.977-2.917-2.204-4.177-1.077-5.981.625-1.001.514-1.618-.694-3.829-.792-1.449-1.27-2.91-1.062-3.246.208-.337-.168-1.106-.835-1.71-2.843-2.573-4.322-6.914-2.355-6.914.598 0 .129-3.851-.755-6.191-.455-1.207-.43-1.898.093-2.528.534-.643.547-1.188.052-2.113-.865-1.616-1.698-1.588-1.941.065-.107.722-.509 1.415-.893 1.542-.896.295-1.73-3.383-.946-4.167.386-.386.092-1.091-.844-2.027-.79-.789-1.436-2.064-1.436-2.832 0-.769-.702-2.43-1.559-3.692s-1.417-2.664-1.244-3.116c.174-.451-.076-1.146-.554-1.543-.479-.397-.87-1.733-.87-2.97 0-1.481-.412-2.621-1.208-3.341-.669-.606-1.208-1.86-1.208-2.814 0-.945-.543-2.733-1.208-3.973-.664-1.24-1.207-2.854-1.207-3.587 0-.734-.501-1.689-1.112-2.123-1.457-1.034-2.512-3.074-2.512-4.856 0-.785-.325-1.753-.722-2.151-.561-.561-.475-.903.383-1.531 1.046-.764.97-1.019-1.391-4.652-2.625-4.039-2.968-5.306-1.767-6.507.572-.572.505-1.113-.306-2.486-.816-1.382-.903-2.106-.409-3.405.539-1.42.503-1.548-.256-.918-.716.595-1.01.495-1.557-.526-.947-1.77-.17-2.77 1.194-1.537 1.426 1.29 2.043.264 1.095-1.817-.616-1.351-1.009-1.552-2.473-1.259-2.62.524-4.182-.517-3.389-2.259 1.155-2.535-1.531-5.763-4.896-5.883-2.545-.09-2.603-.128-.906-.592 1.115-.303-.28-.377-3.623-.19-4.036.225-5.202.132-4.529-.361.674-.494-.25-.58-3.624-.335-3.115.226-4.152.148-3.321-.251.84-.403.124-.468-2.358-.214-2.382.244-3.439.159-3.182-.257.252-.407-.603-.528-2.473-.35-2.106.2-2.62.106-1.952-.361.67-.467.276-.545-1.509-.297-1.633.226-2.15.146-1.594-.246.994-.701-3.141-1.347-4.248-.663-.683.423-.431 5.262 1.318 25.3 3.576 40.968.938 95.316-6.055 124.707-3.523 14.806-5.894 20.153-17.754 40.026-29.294 49.092-45.665 86.081-55.623 125.681-.971 3.86-.971 3.86 1.182 6.064 1.183 1.213 2.156 2.6 2.159 3.085.033 3.801 26.631 12.812 40.455 13.706 2.823.182 5.276.55 5.451.817.175.267.718.232 1.207-.077.603-.381.646-.566.136-.573-.415-.004-.755-.28-.755-.613 0-.332.421-.603.936-.603 2.314 0 4.697-2.186 8.725-8.002 5.001-7.221 9.086-12.731 23.692-31.956 21.029-27.678 31.869-41.453 40.318-51.232 6.453-7.469 23.479-29.514 30.932-40.053 2.411-3.408 3.992-.264 2.881 5.733-.573 3.099-1.513 8.759-2.087 12.579-.575 3.82-2.117 13.603-3.428 21.741-3.959 24.59-6.267 44.898-7.483 65.828-.666 11.478.807 14.242 9.639 18.093 2.553 1.113 4.348 2.207 3.988 2.429-.816.505 4.535 2.01 12.064 3.394 11.057 2.033 37.316 1.267 35.886-1.046-.18-.29-.046-.528.297-.528.344 0 2.522-1.633 4.842-3.629 4.577-3.94 5.029-4.722 12.734-22.037 1.923-4.318 4.579-10.161 5.904-12.984 8.88-18.922 13.415-28.951 23.074-51.03 1.743-3.986 3.519-7.926 3.946-8.757.427-.83 1.179-2.461 1.672-3.623a413.234 413.234 0 0 1 2.097-4.831c6.153-13.93 10.341-24.649 13.094-33.517 1.238-3.986 2.608-8.334 3.046-9.663.437-1.328 1.501-5.405 2.364-9.058.864-3.654 1.834-7.595 2.156-8.757 2.562-9.247 6.623-37.226 7.89-54.352.307-4.151 1.028-13.663 1.601-21.136 1.316-17.141 1.536-81.97.327-96.022-2.298-26.687-2.656-29.012-3.899-25.283zm6.421 73.596c0 6.809.088 9.595.196 6.19.107-3.405.107-8.975 0-12.38-.108-3.405-.196-.619-.196 6.19zM556.566 581.51c0 4.816.094 6.786.209 4.378.114-2.408.114-6.349 0-8.757-.115-2.407-.209-.438-.209 4.379zm93.819 312.67c3.405.107 8.975.107 12.38 0 3.405-.108.619-.196-6.19-.196s-9.595.088-6.19.196z" clip-rule="evenodd"/><path fill="#030823" fill-rule="evenodd" d="M618.125.492c-6.671 1.713-16.506 12.983-16.506 18.915 0 1.374-.691 1.352-3.737-.12-15.264-7.375-33.398 2.658-37.361 20.67-.84 3.822-1.197 4.071-3.163 2.212-11.019-10.415-30.495 1.496-25.203 15.413.75 1.974.212 1.976-3.661.013-14.758-7.479-30.534 6-23.184 19.81l1.525 2.863h-3.209c-21.956 0-31.937 26.066-13.414 35.033 3.246 1.572 3.217.971.27 5.531-9.052 14.004-2.515 29.841 12.239 29.653 3.771-.049 4.024.029 3.472 1.06-1.227 2.293-.692 9.713.956 13.27 6.674 14.4 24.067 15.236 38.864 1.867l3.878-3.504 2.398 3.59c4.475 6.701 11.553 11.036 19.798 12.125 4.669.616 4.734.649 6.682 3.387 1.082 1.521 2.181 2.856 2.444 2.967 1.192.503.28 2.348-1.682 3.405-2.994 1.612-8.691 7.917-9.128 10.102-.31 1.552-.58 1.763-1.934 1.519-.866-.157-6.33-1.25-12.143-2.43-55.298-11.228-86.269 17.817-68.863 64.579l1.153 3.096-6.422 5.661c-82.42 72.65-85.76 142.863-8.368 175.92 13.8 5.894 37.322 9.489 40.606 6.205.108-.107.302-17.436.433-38.508.222-35.68.699-48.39 2.483-66.092.478-4.74.88-9.108 1.529-16.607 3.296-38.083 3.409-38.502 10.081-37.487 42.505 6.467 72.82-11.384 109.664-64.573 3.336-4.816 7.026-9.954 8.201-11.417 2.502-3.118 2.571-4.178.741-11.532-2.394-9.613-6.869-15.594-14.33-19.151-1.943-.926-3.601-1.819-3.684-1.985-.082-.166-10.497-.07-23.144.213-26.044.583-24.623.819-26.682-4.422-.917-2.335-.917-2.335 2.9-4.215 6.792-3.344 11.851-10.531 13.902-19.752 1.145-5.147 1.09-5.26-2.897-5.897-8.673-1.388-15.559-8.899-15.542-16.958.035-17.448 18.382-25.445 32.579-14.201 4.275 3.386 7.268-.462 10.611-13.64 1.784-7.035 1.046-6.274 5.404-5.57 7.818 1.263 13.88-.501 20.778-6.047 3.501-2.814 6.579-3.551 5.146-1.233-.184.297.152.727.747.955 2.509.963 9.532 8.819 13.387 14.976 1.04 1.661 1.896 2.778 1.902 2.483.032-1.458-7.335-11.283-11.74-15.658-4.485-4.455-6.69-7.622-5.349-7.681.271-.012 3.085-.1 6.252-.194 10.761-.322 18.717-7.606 18.791-17.202.023-2.968.023-2.968 4.409-3.676 16.202-2.613 21.751-21.945 7.82-27.242-1.411-.536-1.383-.596 1.636-3.42 7.674-7.177 8.231-17.575 1.278-23.843-6.043-5.45-13.65-4.49-20.632 2.604-1.692 1.718-3.154 3.015-3.249 2.882-.095-.133-.651-1.815-1.236-3.737-3.804-12.502-17.781-14.098-25.182-2.875-.945 1.431-.945 1.431-2.8-1.837-4.634-8.157-12.808-12.25-20.514-10.273Zm225.73 87.174c-.681 1.834-7.31 38.835-7.314 40.826-.002.668 2.2.779 11.987.604 10.513-.187 11.929-.102 11.503.692-5.048 9.416-11.414 25.482-11.414 28.805 0 6.654 3.806 12.182 9.533 13.847 4.697 1.365 17.916.978 20.317-.597 2.458-1.61 1.659-1.77-4.799-.956-23.335 2.936-27.862-5.378-16.458-30.228 2.515-5.481 4.727-10.441 4.916-11.022.27-.833 1.031-1.057 3.599-1.057 14.163 0 34.022-3.69 41.773-7.763 1.661-.872 3.548-1.734 4.195-1.913 3.985-1.109-42.74-24.552-62.125-31.17-5.114-1.745-5.09-1.745-5.713-.068zm6.095 1.65c11.167 3.45 38.145 15.94 51.509 23.848 3.653 2.162 6.914 4.053 7.247 4.202 4.113 1.845-16.402 7.968-30.498 9.103-40.601 3.267-40.937 3.144-37.752-13.892.497-2.657 1.61-8.908 2.474-13.89 1.335-7.7 2.143-10.568 2.98-10.568.09 0 1.908.538 4.04 1.197zM639.739 111.41c-4.505 5.729-1.023 21.024 4.655 20.44 4.865-.5 4.728-.385 5.46-4.588 1.933-11.099-5.137-22.179-10.115-15.852zm542.541 1.482c-4.32.236-9.89.739-12.38 1.118-2.5.379-8.61 1.236-13.59 1.903-18.31 2.454-28.54 4.335-53.94 9.93-11.21 2.467-29.18 6.844-29.53 7.192-.13.126.53.419 1.46.648 14.72 3.637 18.1 17.517 13.54 55.589-3.12 26.027-2.32 28.716 11.38 38.523 8.04 5.747 18.96 14.102 20.12 15.387 2.21 2.438-31.23 29.314-37.52 30.158-3.72.498-2.92 1.989 1.07 1.989 3.07 0 21.82-14.021 34.32-25.666l4.99-4.651 4.37 3.514c36.74 29.543 30.46 49.964-23.67 76.939-30.61 15.258-33.42 15.606-59.52 7.35-45.116-14.269-85.178-4.034-97.795 24.983-1.104 2.539-2.177 4.342-2.384 4.007-.896-1.45-1.125-28.562-.379-44.717.75-16.224.675-18.549-.554-17.261-1.759 1.845-2.808 50.535-1.306 60.653.833 5.609 1.333 3.787-7.601 27.698-6.208 16.618-11.319 19.479-26.586 14.886-11.246-3.384-12.955-3.79-13.134-3.123-1.19 4.413-12.254 37.076-13.283 39.213-1.677 3.479-2.958 2.444 12.948 10.465 18.77 9.465 26.991 9.242 37.542-1.019l3.675-3.573 6.114.894c5.421.793 32.78 4.286 66.503 8.492 6.31.787 15.55 1.979 20.54 2.649 40.17 5.399 49.66 6.437 48.73 5.326-2.71-3.264-4.61-13.109-3.62-18.769 2.62-15.035 15.91-22.749 39.19-22.749 3.8 0 5.49-.225 5.66-.755 1.6-4.938 13.75-39.784 20.37-58.428 8.71-24.539 15.11-42.811 20.73-59.182 1.76-5.149 5.02-14.524 7.24-20.835 3.58-10.207 20.42-59.484 26.15-76.509l2.17-6.455-3.02-3.208c-4.48-4.757-8.9-11.917-9.6-15.551-.1-.52-.47-2.032-.82-3.359-4.61-17.465 1.01-48.818 11.17-62.351 1.48-1.963 1.48-1.963-.21-1.869l-9.54.524zm8.04 1.043c-.11.249-.96 1.895-1.89 3.657-.92 1.762-2.57 5.431-3.66 8.153-1.72 4.306-2.71 7.6-5.24 17.328-4.93 18.976-1.17 39.023 9.77 52.082l3.43 4.094-8.14 23.999c-4.48 13.199-8.5 25.086-8.94 26.415-1.95 5.913-19.39 56.284-24.46 70.657-1.05 2.989-3.49 9.919-5.42 15.399-8.89 25.296-12.22 34.75-15.11 42.878-1.71 4.816-3.62 10.251-4.24 12.078-11.22 32.912-9.07 28.987-15.89 28.99-31.07.014-46.56 17.69-36.3 41.419.19.432-3.4.175-10.45-.75-5.91-.774-14-1.813-17.99-2.309-7.62-.948-23.94-3.055-51.632-6.666a5015.148 5015.148 0 0 0-23.552-3.024 9556.63 9556.63 0 0 1-16.909-2.107c-21.763-2.728-19.605-2.841-23.74 1.255-10.104 10.011-17.084 10.241-35.423 1.167-15.325-7.584-13.916-5.449-10.287-15.583 1.663-4.644 4.684-13.569 6.712-19.832 2.029-6.263 3.801-11.577 3.938-11.808.138-.23 1.535-.022 3.104.462 28.087 8.666 29.88 7.333 43.915-32.653 13.361-38.066 52.067-51.425 101.764-35.123 22.79 7.476 28.21 7.314 47.71-1.429 60.44-27.108 73.45-49.535 44.9-77.386-5.75-5.61-17.8-15.292-29.8-23.935-20.66-14.878-20.91-15.613-16.68-48.734 3.2-25.079 2.43-33.795-3.7-41.941-2.02-2.689-7.52-7.244-8.82-7.315-1.43-.078 25.72-6.683 34.63-8.426a911.72 911.72 0 0 0 9.66-2.006c3.82-.81 8.44-1.659 10.27-1.886 1.83-.228 3.76-.536 4.3-.687 1.35-.379 2.09 3.888.83 4.839-.68.514-.76 1.398-.38 4.103.38 2.726.29 3.636-.43 4.349-.49.496-.85 1.73-.78 2.742.13 2.11.13 2.206-.13 9.088-.11 2.823-.39 5.954-.61 6.956-.28 1.2-.13 2.224.44 2.994.74 1.019.72 1.365-.14 2.679-1.12 1.715-1.51 11.03-.54 12.951.38.736.34 1.348-.09 1.781-.36.363-.66 1.405-.66 2.315 0 2.467-.79 2.518-3.04.194-1.12-1.15-2.35-2.09-2.75-2.09-.39 0-1.14-.647-1.65-1.437-2.73-4.153-12.74-7.591-13.97-4.793-.32.726-1.2 1.603-1.97 1.95-2.55 1.165-1.09 5.916 2.24 7.299 1.03.426 2.28 1.563 2.78 2.527.5.964 1.62 2.024 2.49 2.356 1.93.734 5.36 3.509 9.07 7.346 1.73 1.79 3.29 2.869 4.16 2.869 1.88 0 2.98 2.087 2.11 4.001-.47 1.04-.46 1.848.04 2.941.56 1.247.49 1.718-.42 2.724-.95 1.048-1 1.527-.41 3.454.6 1.961.54 2.394-.51 3.505-1.27 1.353-1.58 3.594-.58 4.21.33.205.6.783.6 1.283 0 1.854 3.15 5.174 4.63 4.89.77-.147 1.71.102 2.08.554 1.07 1.29 4.6 1.04 5.36-.38.36-.661 1.45-1.619 2.44-2.129s1.79-1.343 1.79-1.849c0-.507.91-1.3 2.02-1.763 1.1-.462 2.94-1.948 4.07-3.301 1.14-1.353 3.77-4.204 5.84-6.335 2.08-2.131 3.78-4.133 3.78-4.45 0-.316.4-1.352.9-2.304 1.47-2.822 1.17-5.786-.79-7.656-2.68-2.575-7.36-2.05-7.36.826 0 .61-.77 1.22-1.96 1.563-1.46.418-2.04.983-2.27 2.21-.18 1.005-1.04 2.098-2.2 2.8-1.05.634-2.38 1.965-2.97 2.958-1.03 1.745-5.52 4.136-6.26 3.331-.19-.208.03-.511.49-.673 2.29-.814 3.25-2.587 2.1-3.863-1.06-1.167-1.05-1.238.31-2.261 1.01-.766 1.34-1.528 1.19-2.776-.18-1.462.06-1.791 1.54-2.191 2.35-.63 5.1-3.339 6.23-6.113.71-1.761 1.24-2.265 2.41-2.265.95 0 2.17-.77 3.36-2.114 1.03-1.162 2.21-2.113 2.61-2.113.41 0 1.02-.815 1.37-1.812.4-1.15 1.05-1.812 1.77-1.812.63 0 2.09-1.018 3.25-2.264 1.16-1.246 3.4-3.39 4.98-4.764 2.83-2.473 2.86-2.53 2.45-5.293-.76-5.013-5.67-6.935-7.53-2.941-.5 1.073-1.21 1.956-1.59 1.963-.37.007-1.02.421-1.43.919-.41.499-1.28.906-1.92.906-1.51 0-7.88 6.006-7.48 7.054.21.559-.28.797-1.66.797-1.58 0-2.61.649-5.25 3.321-3.59 3.637-4.49 4.096-3.64 1.854.31-.806.41-2.403.23-3.546-.2-1.23-.07-2.249.33-2.494.88-.546.86-2.932-.04-3.831-.55-.545-.48-.972.3-1.829 1.39-1.537 1.27-3.424-.29-4.458-1.29-.859-1.29-.884-.21-3.71.79-2.084.92-3.2.49-4.173-.45-1.011-.31-1.811.61-3.358 1.11-1.88 1.13-2.173.27-3.966-.85-1.787-.84-2.043.21-3.328.86-1.063.98-1.667.51-2.545-.43-.802-.41-1.543.07-2.436.5-.941.51-1.673.02-2.742-.52-1.142-.46-1.767.27-2.886.58-.885.91-2.656.87-4.656-.16-7.902-.32-7.496 3.2-8.242 5.6-1.187 24.58-3.404 33.64-3.93 1.83-.106 3.82-.243 4.43-.304.61-.062 1.02.091.9.341zm-596.346 10.568c-1.014 1.08-2.024 2.477-2.246 3.105-1.287 3.647 2.592 4.803 4.275 1.273 1.269-2.659 2.156-2.652 5.132.037 2.959 2.673 4.409 2.559 4.409-.347 0-2.562-4.485-6.031-7.8-6.031-1.393 0-2.438.544-3.77 1.963zm361.95 37.722c-.363 17.677-.431 18.594-2.238 30.021-.626 3.961-.999 7.426-.83 7.7.751 1.214-1.164.203-7.348-3.88-16.655-10.998-51.261-25.655-56.148-23.779-1.745.67-.403 1.359 5.862 3.011 5.623 1.483 19.413 6.593 20.799 7.707.474.381-.725 4.121-4.059 12.661-5.125 13.13-7.688 21.525-11.116 36.401-1.214 5.269-2.613 10.705-3.11 12.078-.496 1.374-1.031 3.178-1.189 4.008-.584 3.065-.818 3.052-17.995-1.021-14.866-3.524-19.044-4.148-17.505-2.615.519.517 16.69 4.609 27.926 7.066 5.869 1.283 5.741.813 2.538 9.252-2.779 7.325-2.796 7.406-1.508 7.157.785-.152 1.809-2.145 3.609-7.026 3.47-9.414 5.227-9.524 14.859-.929 2.417 2.156 4.125 3.214 5.191 3.214 2.89 0-9.541-10.299-14.166-11.737-1.611-.501-1.667-1.139-.413-4.644.521-1.453 1.887-6.583 3.037-11.399 5.021-21.032 6.113-24.627 11.953-39.377 2.196-5.547 3.993-10.355 3.993-10.683 0-1.526 1.73-.974 10.068 3.213 8.847 4.442 20.838 11.828 22.488 13.849 1.912 2.344-12.45 35.485-21.309 49.171-6.199 9.576-7.823 12.776-6.704 13.205 1.121.43.82.765 3.33-3.712 1.117-1.993 3.909-6.477 6.204-9.964 7.612-11.567 20.52-41.738 22.735-53.144 3.169-16.316 4.791-49.509 2.521-51.563-1.1-.995-1.139-.583-1.475 15.759zM668.41 151.999c-2.286 4.686-5.372 9.727-7.294 11.914-2.311 2.63-3.383 4.647-1.655 3.113 2.61-2.315 11.631-17.486 10.858-18.26-.123-.123-.982 1.332-1.909 3.233zm350.34 5.72c-.48 13.38-2.98 22.104-10.4 36.425-5.11 9.86-4.6 14.989 2.87 28.73 4.97 9.14 5.95 6.798 1.09-2.599-6.75-13.039-6.84-15.292-1.06-27.089 6.95-14.196 9.48-24.112 9.48-37.207 0-11.857-1.53-10.512-1.98 1.74zm38.61 4.654c-.42 4.071-3.73 14.735-6.76 21.82-1.95 4.55-1.92 6.983.04 4.386 2.91-3.84 8.73-21.981 8.74-27.237 0-4.143-1.56-3.343-2.02 1.031zm-415.883 18.031c-1.163.576-3.337 1.429-4.831 1.896-1.495.467-2.99 1.043-3.322 1.28-.332.236-1.147.564-1.812.727-1.148.282-1.145.3.075.367 1.999.109 12.909-4.185 12.909-5.081 0-.494-.841-.268-3.019.811zm177.818 21.93c-1.643 1.039-4.21 2.907-5.705 4.152-1.494 1.245-5.571 4.367-9.058 6.938-6.221 4.587-12.078 9.772-12.078 10.692 0 .256 1.291-.789 2.868-2.322 2.505-2.433 12.367-10.145 22.106-17.286 7.768-5.696 12.364-2.121 8.822 6.864-1.438 3.65-1.13 4.788.37 1.368 4.007-9.128-.107-14.971-7.325-10.406zm-105.288 23.704c-2.316 2.789-3.331 21.536-2.884 53.217.457 32.354 1.009 43.474 3.773 76.092 1.223 14.422 1.241 14.962.507 15.212-.712.242-16.692-9.206-26.856-15.88-19.928-13.083-33.344-23.486-43.447-33.69-3.248-3.281-5.608-5.187-6.427-5.191-10.61-.052 27.684 30.798 66.667 53.707 4.069 2.391 7.398 4.675 7.398 5.076 0 1.782-5.769 8.563-17.389 20.438-8.65 8.839-9.852 10.736-7.132 11.261 1.928.371 18.472-16.758 26.298-27.229 3.052-4.084 2.927-4.066 9.622-1.396 23.29 9.287 94.865 17.789 96.215 11.429.101-.475 2.249-1.76 4.773-2.855 47.283-20.516 58.271-89.544 16.547-103.951-4.805-1.659-6.191-1.662-14.497-.035-8.802 1.724-10.565 1.861-10.565.822 0-.397-.338-.262-.755.3-1.904 2.569-19.769 2.932-25.875.526-5.023-1.979-14.163-8.247-18.824-12.908-2.26-2.259-4.308-4.108-4.553-4.108-.244 0-2.884-2.477-5.867-5.503-18.136-18.406-44.337-38.217-46.729-35.334zm74.71 2.64c-4.922 6.656-21.516 35.919-17.722 31.252.54-.664 2.361-3.925 4.047-7.247 1.686-3.321 3.44-6.468 3.897-6.992.458-.525.833-1.124.833-1.333 0-.208.853-1.817 1.896-3.575a392.14 392.14 0 0 0 3.029-5.196c.624-1.099 1.409-2.322 1.746-2.718 1.005-1.181 5.407-7.262 5.407-7.471 0-.688-.884.237-3.133 3.28zm232.033-1.646c-1.16.271-2.31.362-2.57.203-.26-.159-.47-.017-.47.316 0 .372 1.56.491 4.08.311 7.3-.526 10.51 4.465 6 9.336-1.27 1.37-1.28 1.415-.12 1.2.7-.129 1.68-1.228 2.32-2.576 2.53-5.384-2.67-10.331-9.24-8.79zm2.4 12.679c-3.62 1.86-7.97 3.318-15.21 5.089-1.17.288-4.6 2.086-4.04 2.122.21.013 2.92-.757 6.04-1.712 9.79-3.005 9.19-3.044 10.36.657 1.99 6.251 3.47 7.767 12.81 13.184 8.18 4.741 20.55 10.302 29.34 13.191 4.2 1.38 5.26 1.658 9.61 2.516 6 1.184 5.9 1.185 6.22-.06.25-.935 0-1.18-1.18-1.18-14.63 0-54.53-20.402-54.56-27.906 0-.429-.4-1.527-.87-2.44-.8-1.529-.78-1.661.26-1.661.62 0 1.52-.395 2.01-.877.48-.482 1.09-.687 1.34-.453.26.233.29.108.07-.279-.22-.387-.06-.841.36-1.01.42-.167.49-.297.15-.288-.33.011-1.55.508-2.71 1.107zm-204.042 3.31c-.085.664-.251 4.333-.369 8.153-.201 6.453-.176 6.646.357 2.717.314-2.325.48-5.994.369-8.153-.112-2.159-.272-3.382-.357-2.717zm122.414 7.053c-3.904 3.056-6.748 6.097-13.944 14.916-1.179 1.444-1.369 2.489-.453 2.489.332 0 .604-.408.604-.906 0-.498.475-1.391 1.057-1.984.581-.593 2.63-3.038 4.554-5.434 1.924-2.396 5.185-5.746 7.247-7.444 4.55-3.748 4.999-4.161 4.528-4.161-.203 0-1.819 1.136-3.593 2.524zm45.692 4.723c.205.332.778.604 1.273.604 1.951 0 4.989 3.899 5.908 7.583.896 3.589.896 3.589.553.57-.424-3.74-1.41-5.739-3.834-7.779-1.8-1.514-4.678-2.236-3.9-.978zm7.647 22.948c-.302 5.668-4.148 14.152-7.141 15.754-.777.416-1.412 1.015-1.412 1.332 0 1.15 2.769-1.277 4.891-4.285 2.688-3.813 4.318-8.812 4.008-12.288-.209-2.353-.245-2.406-.346-.513zm-11.573 18.08c-1.99 1.087-5.38 1.804-10.266 2.174-2.824.213-5.246.499-5.385.636-.474.466 6.892.195 9.31-.343 5.449-1.213 7.881-1.925 8.425-2.464.71-.705-.794-.708-2.084-.003zM850.716 387.68c-1.094 1.769 7.396 7.109 9.821 6.179.638-.245.028-.641-1.814-1.178-1.907-.556-3.421-1.564-4.838-3.219-2.197-2.567-2.558-2.77-3.169-1.782zm-30.48 4.003c.006 2.966 4.091 21.849 4.97 22.975.314.402 4.963 3.014 10.33 5.804 5.368 2.79 12.477 6.696 15.798 8.68 8.641 5.16 7.691 5.422 9.889-2.735 2.136-7.927 8.211-28.84 8.836-30.421.443-1.12-.083-1.319-5.234-1.984-1.892-.245-2.962-.127-3.264.362-.254.41-.194.569.136.365.322-.2 1.926-.018 3.566.401 3.494.894 3.533 1.201 1.134 8.832-1.51 4.8-3.608 12.331-6.047 21.698-.815 3.132-1.566 5.778-1.669 5.881-.102.103-3.292-1.604-7.088-3.793-3.796-2.189-10.788-6.021-15.539-8.517-10.813-5.681-12.128-8.162-14.151-26.696-.188-1.72-1.671-2.478-1.667-.852z" clip-rule="evenodd"/><path fill="#3e6d77" fill-rule="evenodd" d="M845.127 88.874c-.34.415-1.32 4.831-2.177 9.813-.857 4.983-1.967 11.233-2.466 13.89-3.158 16.791-3.805 15.517 7.669 15.113 32.809-1.154 39.36-1.793 50.239-4.899 9.68-2.763 12.167-4.721 8.328-6.552-1.201-.572-4.235-2.29-6.742-3.816-4.026-2.45-27.907-14.641-28.681-14.641-.165 0-1.734-.656-3.488-1.457-6.681-3.051-20.465-8.206-21.945-8.206-.065 0-.397.34-.737.755zm340.473 25.015c-13.28.953-33.14 3.387-35.87 4.395-.82.302-1.19 1.109-1.31 2.794-.08 1.303-.3 4.136-.48 6.295-.17 2.159-.4 5.99-.5 8.513-.11 2.672-.53 4.992-1 5.557-.66.802-.66 1.345-.01 3.156.69 1.895.66 2.42-.22 3.941a5.75 5.75 0 0 0-.67 3.802c.21 1.325-.05 2.857-.76 4.341-1.07 2.27-1.07 2.303.24 3.173 1.31.868 1.83 3.645.87 4.608-.25.25-.5 1.586-.56 2.969-.05 1.384-.21 4.247-.35 6.364l-.26 3.849 3.25-3.353c1.9-1.96 3.99-3.516 5.04-3.745.98-.217 1.79-.696 1.79-1.064 0-1.143 4.97-5.275 8.35-6.945 1.91-.947 3.57-2.266 4.08-3.262 2.15-4.155 7.05-2.372 7.84 2.85.43 2.914-7.19 11.772-10.94 12.714-.78.195-1.53.963-1.73 1.763-.2.779-.85 1.573-1.46 1.765-.6.192-1.69 1.161-2.43 2.154-.92 1.249-1.85 1.806-3 1.806-1.36 0-1.82.391-2.42 2.061-.89 2.455-5.05 6.393-6.75 6.393-1 0-1.2.404-1.2 2.416 0 1.745-.26 2.416-.91 2.416-1.07 0-1.15.823-.27 2.482.54.994.33 1.487-1.23 2.939l-1.86 1.744 2.53-.995c1.61-.632 2.96-1.716 3.7-2.973.64-1.087 1.89-2.322 2.77-2.744 1.04-.501 1.7-1.395 1.91-2.573.25-1.489.7-1.904 2.57-2.365 1.81-.448 2.26-.842 2.26-1.978 0-3.009 4.93-3.248 7.6-.37 3.01 3.244 1.52 8.467-4.09 14.381-1.9 1.993-4.59 4.919-5.98 6.503-1.39 1.583-3.17 3.039-3.96 3.235-.78.197-1.42.74-1.42 1.207 0 .467-.84 1.358-1.86 1.979s-2.26 1.704-2.75 2.407c-.97 1.382-5.23 1.846-5.97.648-.22-.345-.89-.47-1.5-.278-1.4.445-4.82-3.063-4.83-4.946 0-.727-.24-1.471-.53-1.651-1.3-.804-1.17-2.925.26-4.254 1.33-1.226 1.4-1.556.79-3.332-.57-1.621-.51-2.271.31-3.662.81-1.372.86-1.981.3-3.228-.52-1.124-.53-1.753-.04-2.341 1.23-1.478.14-3.406-2.29-4.06-1.62-.438-2.72-1.295-3.86-3.024-.88-1.328-1.95-2.414-2.38-2.414-.44 0-1.54-.783-2.46-1.74-.91-.957-2.74-2.223-4.05-2.815-1.55-.698-2.51-1.593-2.75-2.552-.23-.92-1.13-1.796-2.39-2.321-3.62-1.511-5.04-6.53-2.2-7.775.75-.328 1.36-.906 1.36-1.286 0-3.889 7.25-1.776 14.63 4.266 6.93 5.668 6.25 5.39 6.96 2.88.34-1.235.55-5.098.45-8.586-.14-4.814.04-6.682.72-7.755.73-1.155.76-1.737.17-3.168-.53-1.283-.56-2.444-.11-4.323.35-1.413.49-3.956.31-5.651-.18-1.76-.03-3.625.36-4.344.5-.941.49-1.665-.05-2.847-.6-1.32-.54-1.928.39-3.641.85-1.591 1.02-2.82.75-5.429-.26-2.601-.15-3.448.52-3.703.79-.304.78-1.469-.04-4.205-.42-1.4-37.48 6.155-59.05 12.037-.26.07 1.03 1.21 2.85 2.532 11 7.97 12.79 17.968 8.86 49.547-3.88 31.285-3.92 31.19 16.85 46.275 35.6 25.861 44.91 37.054 43.93 52.797-.94 15.083-14.79 27.015-52.99 45.665-22.98 11.219-30.06 12.015-49.83 5.608-30.9-10.019-55.687-10.512-74.532-1.485-18.655 8.936-23.58 15.281-34.528 44.485-5.957 15.889-6.788 17.854-9.058 21.401-4.558 7.122-11.21 8.073-25.909 3.707-4.484-1.332-8.323-2.255-8.53-2.05-.208.205-2.083 5.672-4.166 12.149-2.082 6.477-5.112 15.393-6.731 19.813-3.542 9.663-4.91 7.643 10.262 15.15 18.632 9.219 24.583 9.115 34.816-.605l4.328-4.112 5.393.574c2.965.316 9.74 1.13 15.054 1.809s14.011 1.763 19.325 2.407c5.314.644 11.837 1.458 14.494 1.809 26.612 3.51 50.882 6.673 57.972 7.558 3.99.497 12.08 1.528 17.99 2.29 9.43 1.218 10.69 1.271 10.35.446-7.58-18.572.08-34.461 18.77-38.918 6.76-1.612 6.85-1.625 15.4-2.064l8.15-.42 3.15-9.059c1.73-4.982 4.22-12.184 5.53-16.003 1.32-3.82 3.79-10.886 5.49-15.702a1482.7 1482.7 0 0 0 4.03-11.474c.51-1.495 3.06-8.696 5.66-16.004 2.6-7.307 7.76-21.982 11.46-32.611 3.71-10.628 7.52-21.499 8.47-24.156.95-2.657 3.54-10.13 5.75-16.607 2.21-6.477 6.34-18.57 9.18-26.874 2.84-8.304 7.93-23.313 11.33-33.353l6.16-18.255-3.42-4.089c-10.87-12.978-14.66-33.345-9.7-52.1.31-1.163 1.14-4.396 1.85-7.186.71-2.79 1.52-5.643 1.8-6.341 2.36-5.952 5.19-12.393 6.17-14.054 1.14-1.927 1.14-2.007.07-1.905-.61.058-2.34.193-3.83.3zm-308.348 68.522c-.184.297-.559.402-.833.233-.275-.17-.666.126-.87.656-.206.538-.76.816-1.249.628-.504-.193-1.368.286-2.028 1.125-.633.804-1.258 1.354-1.39 1.221-.132-.131-.915.289-1.741.935-1.399 1.093-1.429 1.229-.454 1.981.577.443.88.975.674 1.181-.206.206.274.246 1.066.089 1.687-.334 4.73.771 4.833 1.755.04.375.033 1.001-.015 1.392-.158 1.279 1.214 1.549 2.079.407 1.126-1.487 1.114-2.361-.021-1.419-.498.414-.933.65-.966.527-.582-2.178-.393-5.262.305-4.995.756.291 1.675 2.833 1.833 5.072.038.538.523.825 1.193.708.622-.108 1.359.163 1.638.604.39.617.51.566.517-.22.005-.561-.286-1.203-.647-1.427-.361-.223-.523-.918-.359-1.545.164-.627.036-1.14-.285-1.14-.321 0-.415-.271-.21-.604.206-.332.104-.603-.225-.603s-.512-.747-.407-1.661c.155-1.344.464-1.632 1.62-1.508 1.025.11 1.193 0 .596-.385-.458-.296-.693-.773-.524-1.059.413-.698-3.702-2.64-4.13-1.948zm259.308 39.548c.23 1.581-1.21 2.223-2.64 1.179-1.46-1.067-.7-2.909 1.1-2.655.84.121 1.43.678 1.54 1.476zm-58.68 53.642c-.56.848-1.38 1.541-1.83 1.541-.45 0-1.19.476-1.65 1.057-.72.921-.71.979.11.453.51-.332.24.006-.61.752-.84.745-1.26 1.365-.93 1.376.33.013.13.299-.45.638-.59.338-1.06.927-1.06 1.307 0 .38-.68 1.398-1.5 2.261-1.4 1.459-1.44 1.661-.57 2.901 1.09 1.557 2.39 1.731 2.91.389.2-.519.64-.772.98-.562.34.21.42.703.19 1.095-.25.406.01.356.59-.116 1.07-.865 1.42-1.599.49-1.025-.3.182-.87-.074-1.28-.568-.56-.673-.57-.899-.04-.899.39 0 .52-.315.29-.698-.26-.418-.17-.533.22-.289.37.224.92-.047 1.23-.604.39-.7.92-.868 1.7-.546.74.306.87.562.37.748-1.04.39-.95 1.992.12 1.992.48 0 1.3-.604 1.81-1.342.94-1.333.94-1.333.94-.07 0 .764.49 1.398 1.21 1.588.69.18 1.21.016 1.22-.383 0-.39.27-.299.59.207 1.09 1.687.7-1.165-.42-3.058-1.1-1.86-.81-2.748.7-2.168.56.213.93 1.095.93 2.188 0 1.007.29 1.831.64 1.831.35 0 .47.273.26.608-.21.348.3.303 1.19-.105 1.02-.462 1.32-.866.87-1.147-.52-.322-.54-.921-.05-2.311.43-1.229.44-1.877.04-1.877-.33 0-.44-.271-.23-.604.2-.332.07-.603-.29-.603-.37 0-.63-.34-.57-.755.2-1.573-.09-2.011-1.4-2.11-.74-.055-1.44-.385-1.56-.732-.11-.347-.81-.631-1.55-.631-.73 0-1.62-.285-1.97-.635-.44-.443-.94-.171-1.64.906zm-.95 13.27c-.53.644-.53.952.03 1.294.49.304.57.193.24-.341-.34-.539-.26-.645.25-.334.4.251.59.829.42 1.283-.45 1.167 1.25 2.674 3.01 2.674 2.09 0 2.51-1.633.85-3.22-.76-.72-1.16-.901-.89-.403.4.748.29.737-.67-.059-1.95-1.62-2.51-1.774-3.24-.894zm25.8 53.225a3.2 3.2 0 0 1 1.34 2.597c0 .911.31 1.965.69 2.342.51.511.45 1.271-.23 2.989-.5 1.267-.78 3.203-.61 4.301.23 1.523-.03 2.348-1.09 3.477-1.36 1.442-1.37 1.536-.38 3.61 1.32 2.765 1.28 4.604-.12 6.388-.62.794-1.24 1.965-1.36 2.604-.59 3.073-6.1 2.412-7.81-.936-1.53-3.006-1.61-2.965-1.48.797.11 2.897.25 3.177 1.82 3.597 5.13 1.373 6.88 7.401 4.2 14.524-1.4 3.714.7 3.273 2.68-.564.39-.74 1.57-1.573 2.65-1.851 1.21-.313 2.02-.947 2.16-1.674.56-3.072 4.38-4.316 7.2-2.343 1.34.937 2.1 7.515.87 7.515-.25 0-2.74 2.174-5.53 4.831-2.78 2.657-5.32 4.831-5.63 4.831-.83 0-4.07 3.617-4.07 4.544 0 1.387-.71 2.703-1.46 2.703-.39 0-1.64.951-2.77 2.114-1.12 1.162-2.54 2.113-3.13 2.113-.79 0-1.09.463-1.09 1.679 0 1.59-3.32 5.568-4.64 5.568-.29 0-2-1.359-3.82-3.019-1.81-1.661-3.81-3.02-4.44-3.02-3.29 0-7.29-7.459-4.39-8.188.79-.198 1.73-1.022 2.1-1.832 1.17-2.568 3.46-3.143 4.95-1.245 1.58 2.005 2.75 2.045 3.23.11.21-.82.89-1.768 1.52-2.106.76-.405 1.04-1.026.83-1.832-.17-.67-.05-1.557.29-1.97.33-.414.61-2.337.62-4.274.02-2.473.34-3.866 1.07-4.68 1-1.101 1-1.219-.05-2.379-1.07-1.184-1.07-1.271.21-2.995 1.7-2.311 1.67-2.428-.69-2.428-1.43 0-2.49-.509-3.7-1.767-.93-.973-2.49-2.098-3.46-2.501-3.87-1.604-4.79-7.252-1.56-9.64 8.3-6.146 8.82-6.268 11.43-2.641 2.11 2.94 4.02 1.736 3.19-2.015-.33-1.482.78-6.681 1.66-7.811.3-.39.37-1.652.16-2.805-.98-5.218 4.59-9.552 8.64-6.718zm-87.32 13.766c.79.491 1.26.471 1.8-.076 1.83-1.827 5.96-.061 5.91 2.524-.04 2.181-3.27 5.395-5.07 5.05-1.31-.251-1.55-.076-1.55 1.142 0 .791-.68 2.522-1.52 3.847-1.4 2.221-1.45 2.517-.6 3.802.8 1.225.8 1.536.03 2.562-.58.761-.76 1.865-.53 3.169.23 1.297-.02 2.839-.72 4.384-.59 1.311-.88 2.573-.65 2.804.67.675 3.69-1.458 3.75-2.659.2-3.443 3.66-6.832 6.99-6.832 1.78 0 2.42.66 2.65 2.755.08.748.76 2.195 1.52 3.216 1.29 1.743 1.31 1.923.36 2.972-.56.613-1.01 1.394-1.01 1.734 0 .34-.75 1.435-1.66 2.433-4.3 4.702-6.79 8.052-6.79 9.131 0 1.232-1.1 1.915-3.07 1.915-1.39 0-1.5.779-.26 1.812 1.19.98 1.15 1.351-.3 3.019-.66.766-1.21 1.805-1.21 2.31 0 .504-.45 1.416-1 2.027-.88.967-.9 1.309-.18 2.651.65 1.218.67 1.785.1 2.704-.4.639-.73 1.344-.73 1.566 0 .745 2.38-1.741 2.74-2.855.19-.606 1.28-1.44 2.43-1.853 1.14-.415 2.08-.994 2.08-1.289 0-1.276 6.54-7.073 7.98-7.073 1 0 1.71-.493 2.18-1.521 1.45-3.176 7.04-3.711 9.81-.941 2.68 2.676 2.99 2.103-4.92 9.105-2.06 1.827-4.74 4.341-5.94 5.587-1.21 1.245-2.53 2.264-2.93 2.264-.42 0-.75.761-.75 1.711 0 1.27-.62 2.212-2.42 3.656-1.33 1.07-2.81 2.883-3.29 4.027-.64 1.538-1.24 2.08-2.29 2.08-2.5 0-3.59 1.324-3.7 4.463-.07 2.213-.41 3.109-1.47 3.909-.92.691-1.25 1.386-.98 2.075.46 1.214-1.02 3.723-2.76 4.651-3.88 2.079-7.754-6.626-7.827-17.6-.02-2.893-.584-3.537-3.101-3.537-4.705 0-15.264-17.397-10.932-18.011 1.072-.152 1.299-.466 1.006-1.388-.866-2.728 2.821-3.986 4.911-1.676.944 1.043 1.603 1.207 3.689.921 2.71-.371 3.98.342 4.711 2.645.573 1.807 1.513 1.448 1.513-.579 0-.981.31-2.475.7-3.319.57-1.261.52-1.734-.31-2.643-1.26-1.395-1.27-3.027-.04-4.393.7-.774.8-1.35.36-2.129-.38-.685-.39-1.61-.02-2.571.38-1.004.34-2.057-.13-3.179-.58-1.412-.5-1.991.53-3.663 1.09-1.764 1.13-2.155.39-3.496-1.11-1.993-1.09-3.599.05-4.857.75-.831.79-1.317.22-2.566-.58-1.286-.5-1.821.48-3.249.93-1.346 1.05-2.044.59-3.292-2.18-5.887 5.91-12.669 11.18-9.376zm-168.851 32.433c-5.522.925-7.291 1.125-13.039 1.477-10.711.654-11.969.868-11.743 1.996.111.562.947 5.176 1.855 10.253 2.15 12.011 1.924 11.697 12.394 17.188 4.766 2.5 11.518 6.206 15.004 8.237 3.486 2.031 6.661 3.692 7.055 3.692.907 0 .835.227 4.694-14.796.932-3.63 3.125-11.095 4.306-14.665 1.768-5.339.406-7.242-4.983-6.961-.389.021-.552-.368-.361-.864.281-.734.12-.78-.868-.252-1.976 1.058-5.418-.281-8.408-3.271-1.469-1.47-2.732-2.64-2.807-2.601-.074.039-1.469.294-3.099.567z" clip-rule="evenodd"/><path fill="#e0dbc7" fill-rule="evenodd" d="M1194.57 113.623c-5.2 9.482-8.98 17.881-9.84 21.903l-1 4.53c-.33 1.494-.7 3.397-.82 4.227-.12.83-.55 3.806-.96 6.612-2.43 16.481 1.13 32.58 9.12 41.324 1.64 1.795 2.98 3.565 2.98 3.934 0 1.29 1.1.655 1.71-.991 6.75-18.144 17.82-52.505 24.28-75.337 2-7.042-21.82-12.841-25.47-6.202zm-281.335 5.786c0 3.492-27.063 10.836-40.642 11.029-8.41.12-8.378.096-12.417 9.014-.978 2.159-2.643 5.828-3.7 8.153-5.581 12.279-4.248 19.172 4.075 21.06 5.413 1.227 17.965.13 20.182-1.764 1.373-1.173 1.375-1.173.503.029-.642.883-.431.809.783-.273.913-.815 1.533-1.811 1.379-2.215-.155-.404.108-.884.586-1.067.477-.183.867-.749.867-1.258 0-.508.204-.895.453-.859 1.193.172 3.117-.874 2.746-1.493-.271-.452-.104-.437.491.043.497.402 1.5.574 2.23.383.977-.256 1.327-.08 1.327.665 0 .611.276.841.698.581.453-.281.532-.164.224.333-.275.446-.125.99.36 1.302.567.365.625.68.184.989-.972.679-1.493 2.478-.835 2.885.317.196.577.629.577.961 0 .332-.299.419-.664.193-.48-.297-.48-.065.003.836.455.851 2.444 1.824 6.25 3.06 9.399 3.05 14.305 4.902 17.065 6.443 1.452.812 3.03 1.475 3.506 1.475 1.465 0 19.443 9.39 24.788 12.946 5.508 3.665 7.65 4.231 7.568 2-.028-.747.498-8.152 1.169-16.456s1.308-19.435 1.416-24.736l.196-9.639-18.42-11.363c-21.982-13.56-20.806-12.866-20.23-11.935.343.556.15.565-.833.039-.705-.377-1.281-.828-1.281-1.002 0-.174.314-.122.697.114.432.268.534.166.266-.265-.493-.799-1.567-.941-1.567-.208zm-77.534 12.255c-.145.464-.589 3.017-.988 5.674a647.346 647.346 0 0 1-.928 6.039c-1.027 6.117-5.416 38.733-6.502 48.313-.712 6.278-.706 7.342.05 7.961.485.398.67 1.042.417 1.452-.277.447-.205.583.182.343.362-.224.925.429 1.301 1.507.784 2.248.842 3.111.184 2.704-.263-.163-.513.569-.554 1.625-.072 1.831-.05 1.85.469.411.435-1.208.496-.988.304 1.095-.205 2.235-2.864 8.865-3.919 9.776-3.087 2.662-3.704 6.352-3.685 22.042.005 4.558-.041 4.729-.817 3.02-.73-1.609-.788-.963-.517 5.758.316 7.863-.376 19.481-1.012 17.003-.197-.768-.338 2.222-.313 6.643.052 9.302-.714 8.621 7.805 6.939 5.505-1.087 10.331-1.454 10.952-.833.232.232.716.418 1.076.413.36-.005.271-.252-.198-.549-.63-.399-.244-.707 1.483-1.184 1.772-.489 2.449-.466 2.806.096.335.527.473.455.48-.251.011-1.175 3.87-1.848 4.876-.85.449.444.52.318.237-.423-.478-1.256.874-1.45 2.111-.302.581.54.696.547.404.029-.402-.716 4.6-2.596 6.906-2.596.562 0 3.706-.696 6.987-1.545 3.281-.851 6.645-1.68 7.475-1.843.831-.163 3.114-.709 5.074-1.212 1.961-.504 4.27-1.007 5.133-1.118 3.785-.486 4.679-1.421 6.333-6.613.868-2.723 1.577-5.244 1.577-5.602 0-.697-3.573-2.593-4.922-2.611-6.385-.082-25.727-6.127-26.248-8.203-.934-3.722 2.723-3.849 15.167-.529.664.177 3.11.719 5.435 1.203 3.496.729 7.557 1.613 13.017 2.835.432.097 1.046-.639 1.363-1.636.317-.996.799-2.355 1.07-3.019.649-1.593 2.209-7.751 3.671-14.494 1.739-8.024 2.067-9.309 3.381-13.286.658-1.993 1.4-4.575 1.647-5.737.247-1.163.652-2.386.9-2.718.248-.332.644-1.409.88-2.394.236-.985.953-2.941 1.593-4.345.64-1.406 1.164-2.732 1.164-2.95 0-.217.383-1.251.852-2.298 5.064-11.308 5.216-10.845-4.762-14.52-12.398-4.565-15.778-5.317-16.894-3.757-.857 1.201-.889 1.205-.526.069.473-1.481.008-1.094-.993.828-.615 1.179-.602 1.358.069 1.012.448-.231.271.027-.393.573-.664.547-1.14 1.246-1.057 1.555.083.309-.053.518-.302.465-.249-.052-.86.062-1.358.255-.499.192-1.314.486-1.812.652-.498.166-.175.323.719.349.894.026 1.819.362 2.056.746.287.463.163.531-.369.202-.589-.364-.692-.215-.393.566.242.632-.05 1.708-.723 2.665-.77 1.095-.977 1.991-.649 2.814.809 2.028.619 4.994-.383 5.996-1.775 1.775-8.109-.114-8.109-2.418 0-.421-.883-.942-1.963-1.159-3.389-.683-4.104-.979-3.748-1.557.191-.308.068-.56-.274-.56-.341 0-.447-.452-.235-1.005.26-.676.155-.862-.32-.568-.422.261-.707.063-.707-.491 0-1.2 2.749-3.006 3.691-2.424.42.26.566.192.346-.162-.392-.635.933-1.966 4.267-4.287 1.623-1.129 1.963-1.2 1.963-.406 0 .575.28.786.701.526.489-.302.334-.732-.506-1.413-1.203-.973-1.185-1.202.315-4.104.993-1.923.863-2.477-.218-.933-.84 1.2-1.077 1.242-2.869.516-1.074-.435-2.632-.709-3.462-.608-15.692 1.902-23.904-3.525-24.05-15.893-.029-2.414.207-4.378.524-4.378.317 0 .577-.833.577-1.85 0-1.977 1.344-5.196 6.127-14.671 1.653-3.274 2.868-6.089 2.701-6.256-.832-.832-20.882-.935-21.14-.109zm234.999 1.563c-.59.153-.91.525-.73.828.19.304-.04.404-.51.223-1.34-.512-20.03 4.56-36.95 10.022-4.32 1.394-8.35 2.677-8.96 2.852-1.01.291-1.1 1.002-.96 8.236.28 14.707-1.6 22.597-8.99 37.812-4.98 10.224-4.99 10.251-4.35 14.141.74 4.568 6.43 15.986 8.69 17.448 1.53.993 5.42 2.013 4 1.049-1.78-1.203 4.42-.695 6.42.527 6.51 3.972 4.39 13.859-3.55 16.504-2.17.724 1.77 7.69 5.38 9.516.94.477 2.8 1.583 4.13 2.458 16.38 10.793 43.3 18.711 50.55 14.866 6.68-3.545 21.71-15.213 30.29-23.518l2.34-2.266-13.31-9.95c-20.58-15.387-21.51-17.484-18.78-41.977.36-3.159.75-6.83.87-8.159.12-1.329.6-5.541 1.06-9.361 2.7-22.377-.8-32.786-13.03-38.715-1.77-.857-2.77-1.699-2.58-2.176.16-.428.24-.747.16-.708-.07.039-.61.195-1.19.348zm-111.339 21.172c-.041 3.57-.104 9.549-.142 13.285-.038 3.737-.286 6.794-.551 6.794-.265 0-.374 1.903-.243 4.228.132 2.325.005 4.228-.282 4.23-.287.001-.572 2.102-.633 4.667-.062 2.566-.354 4.745-.648 4.843-.295.099-.417.988-.273 1.976.145.988.023 1.797-.273 1.797-.295 0-.463 1.155-.372 2.567.133 2.06.045 2.328-.446 1.358-.529-1.043-.569-.986-.297.422.29 1.5-.757 5.728-2.139 8.637-1.065 2.244-4.224 12.058-4.787 14.877-.308 1.54-1.252 3.82-2.098 5.067-.847 1.247-1.539 2.64-1.539 3.097 0 .456-.258 1.302-.575 1.879-.316.576-2.064 4.214-3.885 8.082-1.821 3.869-4.042 7.713-4.935 8.541-1.964 1.821-1.492 3.361.509 1.665 4.845-4.11 6.687-5.464 7.434-5.464.467 0 .848-.303.848-.674 0-.377.533-.535 1.208-.358.664.173 1.208.053 1.208-.268s.237-.437.526-.258c.289.179 1.139-.207 1.889-.857.751-.651 1.593-1.042 1.873-.869.28.174 1.196-.135 2.036-.685.839-.551 1.531-.766 1.536-.479.005.288.228.178.496-.244s1.962-.91 3.765-1.085c1.803-.175 3.359-.549 3.458-.83.099-.282.67-.384 1.269-.227.599.157 1.537-.162 2.083-.709.547-.547 1.471-.843 2.053-.658.582.184 1.834-.068 2.782-.56.948-.492 1.967-.744 2.265-.561.297.185.541.063.541-.27 0-.332.543-.5 1.208-.372.664.128 1.207-.055 1.207-.407s.544-.498 1.208-.324c.664.173 1.208.037 1.208-.302 0-.34.534-.478 1.187-.307.653.171 1.129.027 1.057-.318-.072-.346 1.167-.971 2.753-1.39 3.582-.945 3.225-.878 4.701-.878.684 0 1.091-.247.904-.549-.186-.302 1.632-.878 4.041-1.282 2.409-.403 6.107-1.243 8.214-1.866 2.12-.624 4.5-1.134 5.3-1.134.8 0 2.06-.339 2.8-.755.74-.415 1.46-.813 1.58-.883.13-.07-1.02-2.652-2.55-5.737-5.25-10.573-5.83-19.023-1.83-26.746 8.04-15.512 9.34-19.749 10.31-33.516.46-6.697.49-6.805.81-3.02.33 3.925.33 3.925.6-1.739.26-5.25-.73-8.518-1.7-5.613-.13.394-.45.584-.71.422-.69-.429-14.11 4.278-28.861 10.123-3.171 1.257-3.171 1.257-5.587-.101-3.003-1.688-3.214-1.267-.244.486 2.172 1.28 2.172 1.28 1.806 4.74-.202 1.902-.92 17.851-1.596 35.443s-1.387 32.131-1.58 32.309c-.193.178-.177-4.432.036-10.244.589-16.135 1.64-42.173 2.09-51.845l.403-8.666-3.929-2.387c-2.162-1.312-6.648-4.13-9.969-6.263-3.322-2.132-6.311-3.983-6.643-4.114-.333-.13-.407-.448-.166-.707.241-.259.92-.092 1.51.37.98.769.999.749.22-.243-.469-.597-1.216-.945-1.661-.774-.445.171-.809.047-.809-.274 0-.322-.204-.585-.453-.585-.249 0-.486 2.921-.526 6.492zm101.359 4.119c2.13 4.674-5.14 29.496-9.29 31.716-4.54 2.43-5.13-2.762-1.15-10.18.85-1.583 3.53-10.384 4-13.124 1.03-6.039 2.5-9.071 4.31-8.891 1.31.13 1.49.029.79-.443-.63-.425-.67-.615-.14-.622.42-.005 1.09.69 1.48 1.544zm-142.227 32.417c-.781 1.744-1.772 4.122-2.202 5.284a89.214 89.214 0 0 1-1.573 3.925c-.436.997-1.232 3.171-1.772 4.832-.538 1.66-1.22 3.563-1.513 4.227-.294.664-.824 2.159-1.178 3.322-.355 1.162-1.188 3.857-1.852 5.987-.664 2.131-1.207 4.513-1.207 5.293 0 .78-.252 1.89-.559 2.467-.308.577-.982 3.222-1.498 5.88-.841 4.334-2.204 9.653-3.904 15.246-.596 1.958-.59 1.964 4.041 5.044 2.55 1.696 6.014 4.424 7.696 6.061 4.587 4.466 6.85 4.648 9.263.747a940.88 940.88 0 0 1 5.683-8.981c7.122-11.133 7.858-12.655 15.922-32.913 5.968-14.992 6.527-13.472-8.26-22.457-12.535-7.616-15.177-8.229-17.087-3.964zm30.405 37.327c-.63 3.468-1.487 8.47-1.905 11.115-.417 2.646-.876 4.459-1.019 4.029-.498-1.494 3.207-22.313 3.855-21.665.118.119-.3 3.053-.931 6.521zm133.732 14.458c.21.332 1.28.604 2.38.604 2.57 0 3.08.767 3.18 4.831.08 3.021.04 3.131-.44 1.208-.49-1.957-.51-1.899-.33.792.14 2.014.64 3.388 1.63 4.476.79.863 1.02 1.343.53 1.066-.58-.317-.48-.014.25.819 1.14 1.302 1.14 1.334 0 2.262-.64.517-.82.771-.41.563.5-.253.62-.055.37.594-.2.534-.73.832-1.18.661-.44-.17-.99-.008-1.22.361-.27.43-.11.512.43.229.47-.243.21.123-.58.813-1.76 1.549-3.74 1.608-4.99.147-.64-.747-1.88-1.142-3.82-1.215-2.85-.108-6.57-1.701-6.02-2.578.15-.249 0-.622-.34-.831-1.62-1.005.64-4.652 3-4.826.5-.037.96-.296 1.02-.576.05-.279.46-.738.9-1.017.66-.416.62-.846-.23-2.351-1-1.766-.99-1.889.15-3.031.66-.654 1.19-1.477 1.19-1.829 0-.351.27-.472.61-.266.33.205.6.094.6-.248 0-.341.41-.464.91-.273.49.192.9.047.9-.32 0-.834 1.01-.877 1.51-.065zm-75.49 5.439c-6.3 2.205-12.768 3.967-13.718 3.737-1.078-.261-1.677 2.218-.622 2.572 2.009.674 3.767 5.394 4.116 11.058.18 2.902.456 5.66.615 6.129.158.469.09 2.507-.152 4.529-.379 3.164-.498 3.424-.853 1.864-.411-1.803-.413-1.805-.485-.186-.039.894.225 1.808.587 2.032 1.104.682.144 4.445-2.682 10.514-2.748 5.902-10.037 9.364-22.283 10.582-3.628.36-6.031-.416-3.108-1.006.532-.107-4.631-.217-11.475-.244-6.843-.027-12.442.176-12.442.453 0 .276.282.502.625.502.407 0 .429.37.064 1.057-.308.581-.566 2.823-.571 4.982-.006 2.159-.152 4.741-.325 5.737-.172.997-.379 5.209-.46 9.361-.119 6.16-.209 6.826-.494 3.623-.192-2.159-.355 2.808-.363 11.038-.007 8.229.178 14.48.411 13.89.272-.688.44-.165.467 1.457.054 3.203.871 3.732 2.227 1.438.58-.984 1.346-1.625 1.7-1.423.355.201.45.15.213-.112-.639-.708.683-2.838 1.461-2.357.414.256.495.134.213-.324-.483-.78 1.334-3.232 2.061-2.783.234.144 1.489-.881 2.788-2.279l2.363-2.541-2.566 2.387c-1.412 1.313-2.567 2.125-2.567 1.805 0-.775 6.671-6.05 7.383-5.838.307.091.387-.11.179-.446-.483-.782 5.129-4.376 6.194-3.966.441.168.648.06.462-.242-1.175-1.9 10.791-7.364 20.469-9.346 9.36-1.917 28.108-1.805 38.688.23 1.66.32 4.38.807 6.04 1.083 1.66.276 4.38.957 6.04 1.515 30.91 10.368 34.79 10.133 62.5-3.776 13.18-6.612 15.38-7.786 20.84-11.088 2.66-1.606 5.13-3.101 5.51-3.321 18.72-11.073 25.82-27.306 17.77-40.644-.67-1.117-1.47-2.581-1.77-3.254-2.39-5.355-21.21-20.616-21.21-17.195 0 .332-.43.604-.94.604-.52 0-.78.272-.57.604.2.332-.07.604-.6.604-.54 0-.81.271-.61.603.21.333 0 .604-.45.604s-1.76.985-2.9 2.188c-1.15 1.203-3.2 3.037-4.56 4.076-3.01 2.29-10.61 8.441-11.8 9.546-1.58 1.478-5.88 4.723-6.25 4.723-1.35 0-4.54 3.505-4.54 4.982 0 .914.25 1.661.54 1.661 1.06 0 1.34 4.122.42 6.309-.85 2.05-1.56 2.415-4.43 2.308-.41-.015-.77.282-.8.66-.03.378-.14 1.165-.25 1.748-.11.582.05.906.35.719.74-.457.7.742-.07 2.186-1.36 2.525-7.83.043-7.83-3.002 0-.248-.82-.333-1.81-.187-7.06 1.037-7.92-3.134-2.02-9.904 1.89-2.171 1.55-2.533-3.88-4.172-26.51-7.989-45.6-18.802-48.46-27.442-1.22-3.694-3.3-3.798-12.38-.622zM896.406 259.71c-1.972 4.747-.3 6.113 4.786 3.91.518-.224 2.18-.466 3.693-.539 3.153-.15 3.217-.808.296-3.028-5.536-4.208-7.143-4.271-8.775-.343zM967.525 317c.066 8.989-.115 15.098-.449 15.098-.329 0-.601-6.255-.654-15.098-.052-8.565.142-15.097.449-15.097.302 0 .591 6.684.654 15.097zm-30.055-13.683c-.369.446-.527.956-.349 1.133.177.178-.111.489-.641.693-.552.212-.807.117-.599-.221.201-.324-.016-.444-.483-.264-.98.376-2.648 3.969-5.028 10.833-11.373 32.801-39.223 60.76-69.49 69.764-4.325 1.286-6.051 2.425-5.363 3.538.506.819 8.634 3.283 13.208 4.004 2.837.447 3.972 2.351 2.948 4.949-.366.928-2.073 6.579-3.794 12.558a7971.628 7971.628 0 0 1-4.272 14.796c-.63 2.159-1.306 4.944-1.504 6.19-.198 1.246-.654 2.264-1.013 2.264-1.57 0 1.654 1.891 8.615 5.05 7.828 3.554 9.29 3.979 8.738 2.542-.281-.734 1.038-5.325 2.789-9.705 1.098-2.749 2.925-8.027 3.657-10.569.432-1.494.968-2.989 1.194-3.321.226-.332.582-1.509.791-2.615.211-1.106.757-2.872 1.215-3.925.458-1.053 1.159-3.138 1.558-4.632 2.107-7.903 4.382-9.655 9.945-7.66 2.546.913 9.733 2.815 15.292 4.046 7.219 1.599 12.645-2.846 15.861-12.994.421-1.328.916-2.675 1.101-2.993.321-.552 1.66-4.204 5.658-15.426 1.706-4.788 1.799-5.478 1.377-10.266-1.582-17.98-1.115-53.748.701-53.748.456 0 .829.453.829 1.007 0 .553.122.884.27.735.149-.149.046-1.621-.23-3.271s-.534-2.389-.573-1.642c-.082 1.569-.433 1.687-1.585.535-.615-.614-.65-.998-.138-1.509.377-.378.529-.686.337-.686s-.651.364-1.022.81zm169.92 119.756c-15.04.982-27.06 6.227-30.17 13.166-2.55 5.705-3 14.548-1.05 20.717 1.15 3.604 1.13 4.052-.13 3.812-.31-.058-.21.317.22.834.91 1.095 1.51 1.26.88.242-.27-.431-.17-.533.26-.265.39.236.7.851.7 1.365 0 .583.34.804.91.587.5-.191.9-.139.9.115 0 .499 15.32 2.17 20.16 2.199l2.95.018 2.97-9.058c1.64-4.982 4.6-14.022 6.6-20.088 1.99-6.066 3.45-11.297 3.25-11.625-.2-.328-.08-.596.27-.596.35 0 .64-.341.64-.759 0-.793-3.54-1.044-9.36-.664z" clip-rule="evenodd"/><path fill="#f68919" fill-rule="evenodd" d="M887.541 161.08c.313.552.114.736-.653.604-.652-.113-1.12.179-1.145.714-.022.498-.358.841-.746.762-.426-.087-.554.252-.323.854.257.669.15.854-.324.561-.389-.24-.706-.124-.706.257s-.489 1.145-1.086 1.697c-.597.551-.688.73-.203.398.752-.514.774-.401.15.772-.404.757-.964 1.234-1.244 1.061-.657-.407-1.298 1.242-.892 2.298.17.445-.11 1.158-.623 1.583-.514.427-.934 1.15-.934 1.607 0 .458-.21.832-.468.832-.66 0-.133 4.969.626 5.907.71.877 5.158.814 5.712-.082.213-.345.016-.375-.492-.072-.467.277-.008-.294 1.02-1.268 1.148-1.09 2.036-2.676 2.307-4.118.242-1.291 1.376-4.182 2.52-6.427 2.244-4.403 2.158-7.226-.219-7.226-.606 0-1.468-.339-1.915-.755-.654-.607-.725-.599-.362.041zm194.219 82.905c-.8.323-1.84.445-2.29.271-.46-.174-.66-.048-.46.28s-.04.597-.54.597c-.49 0-1.09.314-1.33.698-.26.413-.17.534.22.295.43-.269.6.492.51 2.288-.08 1.48.07 2.554.34 2.387.94-.579.49.819-.78 2.432-.7.891-1.58 1.515-1.96 1.387-.38-.128-1.05.199-1.49.726-.48.571-.62.616-.36.111.3-.569.2-.701-.28-.402-.41.256-.56.972-.33 1.679.29.929.19 1.116-.43.758-.48-.279-.61-.248-.32.076.28.302.69.573.91.603.88.116 4.34 1.855 4.19 2.104-.09.145.3-.28.88-.946.65-.759 1.05-.916 1.06-.421 0 .434.23.653.51.484.27-.168 1.29.172 2.26.757 2.45 1.476 4.04 2.031 3.55 1.243-.23-.374.04-.559.66-.447 1.04.19 1.58-.97 1.56-3.329-.01-1.311-1.22-2.929-1.89-2.518-.25.158-.77-.085-1.15-.54-.53-.637-.47-.912.25-1.188.66-.254.82-.808.55-1.883-.39-1.549.58-2.193 1.16-.768.17.416.33.017.35-.887.04-1.283-.17-1.559-.94-1.261-.85.326-.93.064-.58-1.831.34-1.799.24-2.211-.55-2.211-.53 0-.8-.272-.6-.604.46-.746-.72-.719-2.68.06z" clip-rule="evenodd"/><path fill="#111f22" fill-rule="evenodd" d="M960.665 149.216c.18.442 3.176 2.57 6.659 4.729l10.397 6.447 4.065 2.522-.403 8.65c-.45 9.662-1.501 35.714-2.089 51.83-.213 5.813-.229 10.422-.035 10.244.193-.179.917-14.854 1.61-32.611l1.385-35.517c.128-3.23.128-3.23-8.629-8.767-13.057-8.257-13.316-8.408-12.96-7.527zm-12 76.415c-1.323 5.722-3.005 16.833-2.691 17.774.143.43.602-1.383 1.019-4.028a586.366 586.366 0 0 1 1.905-11.116c1.31-7.206 1.175-8.725-.233-2.63zM966.421 317c.054 8.842.325 15.097.654 15.097.334 0 .516-6.109.45-15.097-.063-8.413-.352-15.098-.654-15.098-.307 0-.502 6.533-.45 15.098z" clip-rule="evenodd"/><path fill="#e6e2d2" fill-rule="evenodd" d="M642.987 132.648c-8.33 2.1-8.583 15.799-.352 19.092 12.236 4.896 20.69-10.656 9.813-18.047-2.159-1.467-6.074-1.899-9.461-1.045zm12.943 83.723c-.189.199-1.636.41-3.216.47-3.833.145-4.726.953-10.7 9.686-39.767 58.129-69.748 75.864-115.642 68.404l-2.476-.402-1.29 9.876c-1.452 11.107-1.837 15.129-5.215 54.565-2.228 25.992-3.035 92.206-1.154 94.57.37.466.995 4.788 1.386 9.604 3.003 36.919 5.507 41.054 29.947 49.439 21.927 7.523 76.051 8.902 97.832 2.492.997-.293 3.85-.852 6.341-1.243 11.276-1.767 45.964-10.169 82.434-19.966 3.653-.981 10.176-2.837 14.493-4.123 4.318-1.286 9.819-2.917 12.224-3.623 2.406-.706 5.095-1.952 5.976-2.769.882-.817 1.977-1.486 2.434-1.486 3.495 0 17.638-8.969 22.588-14.324 10.428-11.283 10.77-19.99 2.117-53.917-6.138-24.068-5.755-22.949-7.868-22.949-1.012-.001-5.373-.4-9.691-.888-11.54-1.304-12.188-1.391-18.117-2.444-2.989-.531-6.25-1.073-7.247-1.205-.996-.131-5.752-1.227-10.568-2.434s-9.029-2.238-9.361-2.291c-.332-.054-.755-.301-.94-.549-.185-.249-1.201-.552-2.257-.675-1.057-.123-2.265-.509-2.685-.857-4.453-3.696-7.73-3.283-11.027 1.392-1.329 1.884-3.592 4.69-5.029 6.235-1.437 1.546-3.339 3.742-4.227 4.881-7.682 9.853-17.212 17.021-18.723 14.084-.889-1.729-.325-2.482 8.703-11.625 10.231-10.361 17.256-18.664 16.67-19.702-.228-.403-5.713-3.916-12.19-7.806-40.418-24.273-72.758-52.208-60.442-52.208.348 0 4.066 3.397 8.264 7.549 4.197 4.152 7.898 7.549 8.225 7.549.326 0 1.834 1.223 3.349 2.717 1.517 1.495 3.106 2.718 3.533 2.718.427 0 .994.36 1.259.799.266.44 1.424 1.459 2.574 2.265 1.151.806 2.628 1.941 3.285 2.522.656.581 1.371 1.057 1.589 1.057.218 0 1.186.679 2.151 1.509.966.83 1.991 1.509 2.279 1.51.288 0 1.511.825 2.718 1.833 2.825 2.361 3.107 2.559 4.911 3.455.83.413 2.732 1.684 4.227 2.825 1.495 1.14 2.933 2.092 3.196 2.114.263.022.991.516 1.62 1.097.628.581 2.179 1.598 3.447 2.258 1.268.662 2.441 1.35 2.607 1.53.602.653 6.41 4.09 9.21 5.45 1.577.766 2.868 1.662 2.868 1.991 0 .328.171.427.379.219s1.144.017 2.079.501c2.135 1.103 2.616.444 2.147-2.934-.193-1.387-.761-7.687-1.263-13.998-.501-6.31-1.056-13.24-1.233-15.399-2.688-32.751-2.83-95.204-.244-106.811.796-3.569-2.93-5.725-15.754-9.115-10.075-2.663-38.91-5.1-40.503-3.423zm256.382 48.02c-.593.569-14.094 3.448-20.214 4.31-1.826.258-5.903 1.144-9.058 1.97-3.156.826-8.998 2.241-12.984 3.147-3.986.904-11.459 2.719-16.608 4.031-5.148 1.313-10.107 2.409-11.021 2.436-2.394.07-2.044.763.869 1.725 40.019 13.207 29.955 81.339-15.296 103.547-3.705 1.819-6.41 3.307-6.009 3.307.401 0 .593.219.427.489-.987 1.597 25.23-1.373 28.615-3.242 2.757-1.523 3.879-1.965 9.964-3.93 30.481-9.84 53.034-33.35 67.918-70.796 2.379-5.982 2.787-6.618 4.954-7.724 1.3-.663 2.686-1.942 3.081-2.842.395-.899.88-1.771 1.077-1.937 3.336-2.812-7.406-30.8-11.821-30.8-.41 0-1.07-.391-1.467-.87-.397-.478-1.108-.722-1.579-.541-.471.181-1.011-.074-1.2-.566-.223-.58-1.616-1.039-3.971-1.305-1.995-.226-3.957-.537-4.359-.691-.402-.154-.995-.027-1.318.282z" clip-rule="evenodd"/><path fill="#835759" fill-rule="evenodd" d="M645.858 97.074c-2.075 1.58-4.929 3.34-6.341 3.911-1.919.776-2.11.952-.758.694 2.297-.438 7.707-3.667 9.798-5.85 2.24-2.338 1.649-2.066-2.699 1.245zm-23.102 5.015c0 .862 12.866 1.145 13.709.302.21-.21-2.177-.386-5.305-.39-3.128-.005-6.298-.173-7.045-.372-.924-.248-1.359-.101-1.359.46zm17.644 7.506c-2.351 1.646-3.353 4.418-3.37 9.323-.014 4.158 1.663 12.044 2.404 11.303.166-.167-.148-1.851-.698-3.744-2-6.88-.977-14.95 2.104-16.599 4.677-2.503 8.903 2.989 9.743 12.664l.446 5.133-.126-5.435c-.228-9.832-5.484-16.161-10.503-12.645zm-49.567 6.958c-1.115.342-1.881.77-1.701.95.181.18 1.342-.007 2.581-.416 3.608-1.191 9.951-.382 14.344 1.829 2.043 1.028 3.171 1.419 2.507.868-3.692-3.062-12.847-4.731-17.731-3.231zm-5 2.637c-11.643 7.911-9.012 26.661 4.39 31.283 3.743 1.29 7.785 2.17 7.446 1.62-.158-.256-1.687-.766-3.397-1.132-15.805-3.39-20.567-20.208-8.669-30.616 3.382-2.958 3.46-3.35.23-1.155zm11.373 37.618c-1.153 6.862-5.713 14.891-10.693 18.828-1.716 1.356-2.839 2.465-2.496 2.465 4.154 0 14.918-17.732 13.842-22.8-.123-.58-.417.098-.653 1.507zm.79 28.54-9.965.347 9.663.052c5.314.028 14.69-.137 20.834-.367l11.173-.418-10.871.019c-5.978.011-15.354.176-20.834.367zm170.655 82.049c-.821 1.327 11.165 10.932 18.065 14.477 7.087 3.639 16.251 4.568 24.526 2.485 1.396-.351.704-.401-2.175-.157-7.926.673-13.776.463-16.783-.601-7.603-2.692-17.648-9.593-21.976-15.099-.721-.917-1.467-1.414-1.657-1.105zM482.8 893.578c5.896.099 15.544.099 21.439 0 5.896-.098 1.072-.179-10.719-.179-11.792 0-16.615.081-10.72.179zm164 .001c6.083.098 15.867.098 21.741-.001 5.874-.098.897-.179-11.061-.179-11.957.001-16.763.082-10.68.18z" clip-rule="evenodd"/><path fill="#111f22" fill-rule="evenodd" d="M652.415 215.593c-3.377.663-4.184 1.428-.974.923 17.816-2.806 50.761 1.673 59.612 8.105 1.831 1.33 2.289 1.454 2.289.614 0-2.28-20.439-8.307-32.739-9.653-6.846-.75-24.351-.743-28.188.011zm230.926 54.024-9.504 2.171c-3.235.738-5.765 1.458-5.623 1.6.264.264 20.36-4.05 20.814-4.468.479-.442-2.078-.129-5.687.697zm-27.175 6.284c-12.31 2.93-16.63 4.137-15.055 4.206.688.03 2.455-.326 3.926-.791 1.47-.465 6.479-1.711 11.129-2.769 8.771-1.996 12.123-2.928 10.568-2.94-.498-.003-5.254 1.029-10.568 2.294zm81.176 24.757c-.167.972-1.177 2.012-2.97 3.058-2.605 1.519-2.862 1.934-6.173 9.984-15.728 38.232-38.742 60.832-71.638 70.344-2.44.706-4.318 1.402-4.172 1.547.145.146 3.053-.564 6.46-1.576 31.648-9.402 56.541-34.637 70.752-71.724 2.543-6.635 2.686-6.855 5.21-7.971 2.705-1.197 3.459-2.202 3.035-4.043-.196-.854-.306-.771-.504.381zm-148.479 91.908c13.105 49.117 14.025 56.569 8.4 67.997-4.165 8.461-17.939 19.119-27.959 21.634-.892.224-1.756.624-1.919.888-.954 1.544 11.461-3.762 16.264-6.95 19.261-12.787 21.371-23.274 12.087-60.094-5.205-20.647-6.211-24.308-6.863-24.959-.335-.335-.339.25-.01 1.484zm-272.304 72.542c3.08 34.05 5.899 39.459 24.137 46.311 3.448 1.296 7.357 2.514 8.685 2.708 2.416.352 2.416.352-.302-.588-25.635-8.87-29.071-13.825-31.386-45.26-.85-11.531-1.235-14.796-1.748-14.796-.241 0 .036 5.231.614 11.625z" clip-rule="evenodd"/><path fill="#603433" fill-rule="evenodd" d="M648.968 94.299c-1.138 1.334-1.137 1.339.058.475.664-.48.409.001-.566 1.068-1.752 1.914-3.236 2.65-2.393 1.184.253-.438.204-.544-.115-.251-.302.277-.55.797-.55 1.157s-.377.78-.839.934c-.573.191-.686.016-.356-.553.285-.492.258-.628-.067-.33-.302.277-.556.82-.564 1.207-.008.388-.481.667-1.05.622-.57-.045-.904.132-.741.394.464.751-3.301 1.827-5.06 1.445-1.235-.267-1.387-.2-.683.3 1.052.747-.173.855-8.649.762-5.328-.059-5.328-.059-4.918 1.808.292 1.331.211 1.743-.283 1.438-.488-.302-.582.078-.317 1.283.301 1.376.237 1.534-.327.806-.567-.732-.632-.587-.341.749.499 2.29-2.787 10.628-5.038 12.785-2.21 2.117-2.084 2.094-3.72.658-.846-.743-1.193-.86-.903-.302.26.498-.257.09-1.148-.906-.891-.997-1.435-1.452-1.211-1.012.259.506-.507.331-2.091-.477-1.375-.701-2.354-1.511-2.176-1.8.178-.288-.262-.371-.979-.183-.717.187-1.153.094-.969-.207.186-.306-1.844-.628-4.586-.729-2.706-.099-5.463-.32-6.128-.492-.873-.226-.983-.157-.395.251.937.65-1.943 1.633-2.954 1.008-.317-.196-.576-.052-.576.319 0 .372-.278.503-.619.293-.34-.211-.544-.057-.453.342.091.398-.211.861-.673 1.029-.562.204-.681.05-.36-.471.318-.512.24-.627-.227-.338-.389.24-.575.65-.414.911.302.489-1.915 2.846-2.991 3.18-.332.103-.532.402-.445.665.303.908-1.128 2.876-1.793 2.465-.392-.242-.496-.136-.253.258.228.368.234 1.387.014 2.264-.294 1.169-.535 1.378-.907.783-.296-.474-.367.195-.172 1.603.253 1.826.175 2.195-.319 1.51-.71-.985-.513.935.607 5.919.321 1.429.42 2.862.22 3.185-.2.324-.139.514.135.423.557-.186 5.5 4.984 5.518 5.772.006.277.214.685.461.906.247.221.254.063.015-.352-.607-1.055-.161-.951 2.398.558 1.224.723 3.89 1.749 5.923 2.28 3.696.967 3.696.967 3.63 4.575-.07 3.816-2.328 10.825-3.295 10.227-.303-.188-.372.125-.153.695.268.699.169.896-.302.604-.471-.291-.57-.094-.302.604.25.652.161.89-.241.642-.363-.225-.602.059-.555.656.045.577-.247.986-.651.906-.403-.079-.602.199-.442.616.372.967-5.445 6.745-6.274 6.233-.341-.211-.816-.066-1.057.323-.291.472-.174.545.354.219.538-.333.645-.254.334.25-.251.406-.837.592-1.301.414-.465-.178-.845-.045-.845.296 0 .342-.272.453-.604.248-.332-.205-.604-.094-.604.247 0 .342-.365.481-.81.31-1.239-.476-.81 2.679.707 5.208 1.286 2.143 1.286 2.143 10.508 2.166 8.819.022 8.932.007 2.579-.331-5.959-.317-5.125-.4 8.1-.806 23.521-.723 26.623-.652 26.634.604.008.877.104.907.564.18.305-.483.44-1.063.301-1.289-.141-.227.489-.682 1.398-1.013 8.013-2.915 10.727-4.157 14.812-6.777 18.252-11.707 30.503-37.983 25.137-53.912-3.09-9.172-8.59-18.13-15.071-24.547-2.311-2.289-4.202-4.46-4.202-4.827 0-1.16-2.182-.72-3.379.683zm-4.223 14.718c.524.2.776.65.561.999-.235.379-.101.454.331.186.398-.245 1.12-.118 1.604.283 1.039.863 1.191 2.055.181 1.431-.435-.27-.532-.166-.259.276.24.389.736.521 1.101.296.427-.264.528-.054.282.587-.227.591-.104.939.303.854 1.096-.23 2.194 4.301 2.235 9.216.026 3.263-.135 4.277-.58 3.624-.448-.658-.527-.245-.286 1.51.243 1.775.18 2.095-.238 1.207-.514-1.094-.571-1.054-.61.432-.027 1.052.391 1.872 1.165 2.286.665.356 1.217.433 1.226.172.011-.261.299.007.642.596.342.588.838.936 1.101.773.264-.163 1.13.419 1.926 1.293.795.873 1.039 1.385.541 1.136-.499-.248-.282.059.482.682.978.8 1.26 1.469.954 2.266-.261.679-.2.986.153.768.353-.218.574.942.556 2.92-.018 1.805-.217 3.283-.444 3.283-.227.001-.602.597-.833 1.326-.231.729-.874 1.748-1.428 2.264-.554.517-.71.804-.346.638.363-.166.144.172-.488.752-.631.579-1.391.903-1.689.719-.297-.184-.541-.046-.541.305 0 .352-.203.585-.453.518-.451-.122-4.202.513-6.492 1.1-1.011.258-1.06.196-.302-.382.735-.56.595-.641-.736-.429-.904.144-1.511.049-1.35-.211.296-.479-2.268-1.544-2.649-1.102-.113.132-.602-.516-1.086-1.439-.502-.958-1.166-1.501-1.548-1.265-.379.235-.499.139-.276-.221.215-.349.029-.773-.413-.943-.511-.195-.845-1.489-.915-3.535-.06-1.775-.269-3.737-.464-4.36-.212-.677-.112-.982.249-.759.333.206.767-.272.965-1.061.198-.79 1.152-2.283 2.119-3.319.967-1.035 1.514-2.035 1.214-2.219-.3-.186-.541-.661-.536-1.057.006-.432.244-.357.595.187.662 1.024.787.576.239-.853-.201-.523-.598-.808-.883-.632-.953.589-2.611-6.563-2.595-11.197.026-7.381 3.308-11.593 7.715-9.901zm-43.349 14.732c.162 0 .112-.294-.11-.654-.8-1.294 3.275 1.271 4.507 2.837 1.381 1.756 1.66 4.142.564 4.82-.459.283-.546.14-.257-.417.322-.622.226-.606-.36.057-1.225 1.389-2.396 1.096-4.411-1.104-1.842-2.009-1.842-2.009-3.413-.774-.864.679-1.757 1.048-1.985.82-.228-.228-.257-.003-.064.499.267.696-.158.948-1.78 1.057-1.223.083-2.13-.137-2.13-.515 0-.361-.215-.526-.476-.364-.262.162-.532-.38-.6-1.205-.08-.959.115-1.352.54-1.089.436.269.537.008.295-.756-.263-.826.187-1.686 1.538-2.944 1.05-.978 1.679-1.37 1.398-.872-.412.73-.343.77.359.205 1.269-1.022 4.368-1.231 5.292-.356.439.416.931.755 1.093.755zm13.084 62.048c2.589.114 6.665.113 9.058-.001 2.393-.115.275-.207-4.708-.207-4.982.001-6.94.095-4.35.208zm205.515 17.957c-1.919 1.156-4.756 3.156-6.306 4.447-1.549 1.29-5.67 4.484-9.157 7.097-12.035 9.019-18.129 17.249-30.812 41.613-2.421 4.65-4.835 8.977-5.365 9.615-.53.638-.616.957-.192.709.471-.276 1.228.095 1.943.953 1.466 1.759 1.557 2.727.154 1.64-.861-.666-.843-.567.094.53 1.178 1.382 1.933 1.825 1.265.744-.741-1.199.727-.569 2.113.906.781.831 1.181 1.51.891 1.51-.291 0-.192.336.219.748.412.412 1.213.751 1.781.755.567.004 1.032.414 1.033.912.001.501.54.905 1.21.906.664 0 1.15.309 1.08.684-.07.376.338.648.906.604.568-.043.976.228.906.604-.07.376.337.648.906.604.568-.044.968.25.889.653-.089.453.239.587.854.351.723-.278.862-.163.504.417-.314.508-.261.655.148.402.821-.507 2.656.176 2.248.837-.17.274.01.695.399.935.474.293.544.173.212-.362-.363-.589-.215-.694.561-.396.579.223 1.183.405 1.342.405.158 0 .094.314-.142.697-.275.444-.165.533.3.245.887-.548 3.849.112 3.444.767-.158.256 3.295.334 7.675.172 4.379-.161 9.458-.275 11.284-.253 1.827.021 2.998-.082 2.601-.23-.396-.148-.562-.681-.369-1.186.288-.75.457-.771.929-.112.432.603.492.54.238-.248-.186-.581-.088-2.483.218-4.228.48-2.733 2.314-28.694 3.382-47.862.549-9.878.646-10.399 2.265-12.145 2.186-2.357 4.794-7.382 4.385-8.448-.198-.515-.09-.749.248-.54 1.166.721.687-5.473-.507-6.553-1.5-1.358-1.782-1.305-5.777 1.101zm194.525 25.25c-.18.484-1.38 1.073-2.65 1.307-5.38.994-32.282 7.546-46.397 11.302-14.202 3.779-19.713 6.287-25.413 11.565-4.263 3.946-11.491 12.214-11.347 12.978.043.229-.15 1.019-.43 1.755-.325.854-.265 1.487.166 1.754.41.253.505.143.243-.281-.887-1.436.148-.633 1.144.887.707 1.08.777 1.447.22 1.155-.45-.235-.138.163.692.884.831.722 1.102 1.133.604.914-.599-.264-.551-.108.141.46.577.472.871 1.036.655 1.253-.216.216-.06.393.347.393s.585.25.397.555c-.189.305.086.985.611 1.51.526.525.748.954.494.954-.253 0 .041.367.654.814.612.449.919 1.128.683 1.51-.237.383-.151.696.191.696.341 0 .464.408.273.906-.191.498-.056.906.302.906s.476.451.264 1.005c-.248.645-.149.858.277.595.847-.524 1.512 1.512.963 2.943-.309.805-.211.962.376.599.615-.38.702-.118.381 1.159-.294 1.168-.212 1.525.278 1.223.493-.305.577.1.291 1.401-.242 1.104-.138 1.993.262 2.24.365.226.509.899.319 1.496-.518 1.634-.018 1.686 17.276 1.791 28.092.169 33.478-2.121 36.818-15.66 2.551-10.346-.885-28.004-4.988-25.632-.44.253-.597.238-.349-.036.248-.274-.372-.998-1.378-1.609-1.488-.906-1.72-1.319-1.239-2.216.969-1.812 1.934-2.321 6.998-3.695a353.744 353.744 0 0 0 8.451-2.413c2-.606 5.8-1.714 8.46-2.461 2.66-.747 5.51-1.629 6.34-1.96.83-.331 2.31-.704 3.28-.83 2.3-.296 9.14-4.104 8.95-4.977-.09-.369.12-.672.45-.672.81 0 .77-2.602-.07-4.434-1.22-2.684-5.41-3.548-10.43-2.154-1.75.486-2.46.472-2.78-.054-.32-.508-.54-.46-.78.174zM479.793 845.569l-3.192 14.644c-1.375 6.311-3.306 16.094-4.288 21.741-.983 5.647-1.923 10.717-2.09 11.268-.273.904.62.996 9.233.944l9.534-.056-8.454-.367c-5.463-.237-.869-.365 12.984-.361 16.346.003 18.857.09 10.568.361l-10.87.357 13.181.038c13.18.038 13.18.038 12.839-1.323-.371-1.475.888-8.857 3.86-22.637 2.767-12.831 2.943-13.89 2.315-13.89-.309 0-.393-.272-.188-.604.231-.374-.85-.604-2.833-.606-4.124-.002-12.432-1.46-18.75-3.29-2.731-.791-5.174-1.309-5.43-1.151-.256.158-.465.043-.465-.257 0-.299-1.155-.885-2.567-1.301-3.541-1.044-10.687-4.187-12.624-5.552-2.11-1.486-1.973-1.587-2.763 2.042zm155.334 5.488c.734 2.41.919 42.144.193 41.708-.598-.36-.588-.228.041.547.655.808 1.728.999 5.133.913l4.304-.108-4.529-.387c-2.491-.212 5.254-.384 17.211-.381 11.958.003 19.295.178 16.306.39-5.236.369-5.142.384 2.566.415 8.099.033 8.628-.06 7.215-1.263-.626-.533-.7-3.208-.362-13.051.485-14.135.547-29.238.112-27.541-.206.803-.429.925-.748.408-.351-.568-.964-.523-2.689.197-3.543 1.481-25.626.967-34.478-.802-8.685-1.736-10.544-1.925-10.275-1.045z" clip-rule="evenodd"/><path fill="#e7ff34" d="M1094.16 348.827c-.35-2.278-.17-2.924 1.44-5.139 2.04-2.813 4.57-3.387 7.1-1.61 1.3.911 1.42 1.498 1.37 6.626-.01 1.329-.03 3.63-.03 5.115-.01 1.898-.38 3.098-1.27 4.042-1.25 1.327-1.25 1.378-.17 4.391 1.09 3.029 1.09 3.061-.23 4.842-.72.985-1.32 2.177-1.32 2.648 0 3.993-6.7 2.818-8.49-1.488-.47-1.135-.95-1.59-1.32-1.229-.36.361-.33 1.025.09 1.796.36.673.49 2.033.29 3.022-.33 1.647-.19 1.836 1.61 2.232 2.69.591 6.06 4.29 5.45 5.983-.25.691-.34 2.377-.19 3.745.16 1.56-.1 3.183-.71 4.349-1.19 2.315-1.21 3.128-.06 3.128.49 0 1.44-1.07 2.1-2.377.98-1.915 1.59-2.414 3.15-2.567 1.56-.154 2.02-.531 2.41-2.001 1.4-5.274 7.68-4.288 8.14 1.278.25 2.986-9.11 13.517-12.02 13.517-.58 0-1.05.398-1.05.885 0 .486-.55 1.175-1.21 1.531-.71.38-1.21 1.265-1.21 2.144 0 1.012-.58 1.85-1.79 2.585-.98.597-2.38 1.841-3.1 2.762-.94 1.187-1.72 1.599-2.69 1.414-1.23-.237-1.34-.075-1.07 1.611.27 1.633-.02 2.133-2.19 3.883l-2.5 2.009-2.84-2.598a298.55 298.55 0 0 1-3.64-3.372c-.44-.426-1.41-.775-2.16-.775-3.47 0-6.24-6.238-3.4-7.653.81-.405 1.68-1.302 1.94-1.991.85-2.303 2.96-2.497 5.26-.485l2.05 1.794.8-1.881c.43-1.035 1.19-2.037 1.69-2.227.5-.191.91-1.07.92-1.954.04-4.024 1.02-10.266 1.73-11.129.65-.777.65-1.18.02-2.194-.65-1.043-.61-1.528.26-3.01 1.39-2.338 1.34-2.485-.7-2.485-.99 0-2.5-.646-3.47-1.488-.95-.819-2.67-2.118-3.83-2.887-4.92-3.266-4.98-7.216-.16-10.411 1.91-1.267 4.26-2.848 5.23-3.515 1.86-1.274 3.54-.21 5.69 3.591 1 1.787 2.13.099 2.29-3.44.18-3.751.77-6.67 1.57-7.662.34-.422.43-1.887.22-3.355zm-89.86 16.288c-.71-2.323 1.45-7.428 3.87-9.122 1.67-1.165 5.3-1.233 6.81-.128.95.698 1.37.676 2.82-.151 3.36-1.909 7.37 2.643 4.28 4.859-.62.447-1.32 1.319-1.55 1.936-.34.909-.81 1.049-2.47.737-1.85-.346-2.02-.261-1.74.825.18.708-.36 2.371-1.33 4.011-1.45 2.49-1.55 2.966-.85 4.28.64 1.183.65 1.718.05 2.677-.46.732-.6 2.009-.36 3.287.27 1.449.09 2.544-.58 3.574-1.02 1.561-1.32 3.944-.49 3.944.84 0 4.35-2.814 3.98-3.185-1.67-1.67 3.14-7.081 6.3-7.081 1.39 0 3.39 2.103 2.84 2.988-.22.356.16 1.361.85 2.233 1.52 1.934 1.55 2.719.19 4.889-1.85 2.949-7.49 9.819-8.06 9.819-.3 0-.55.815-.55 1.812 0 1.473-.25 1.813-1.35 1.82-2.3.016-3.11.837-2.23 2.246.72 1.151.64 1.712-.55 3.784-2.12 3.693-2.6 5.338-1.94 6.575.5.933.5 1.61.02 2.517-1.31 2.442-.21 2.477 1.4.044.95-1.43 2.54-2.853 3.75-3.362 1.16-.484 2.11-1.195 2.11-1.58 0-1.443 6.24-6.609 7.98-6.609 1.3 0 1.68-.286 1.68-1.239 0-2.822 6.69-3.909 9.28-1.508 2.17 2.014 2.01 3.581-.57 5.589-1.2.928-4.32 3.781-6.94 6.341s-5.32 4.949-5.99 5.309c-.88.471-1.12 1.039-.88 2.034.29 1.114-.1 1.679-2.01 2.94-1.3.863-2.72 2.463-3.17 3.578-.95 2.355-1.6 2.902-3.44 2.915-1.5.01-3.34 2.356-3.16 4.047.27 2.568-.09 3.752-1.24 4.116-.86.275-1.18.852-1.1 2.004.24 3.2-2.58 5.741-5.22 4.726-1.28-.491-4.58-7.77-4.61-10.158-.1-9.589-.361-10.765-2.355-10.765-2.792 0-8.534-5.49-11.685-11.173-.554-.996-1.314-2.245-1.691-2.774-1.04-1.463-.143-4.17 1.381-4.17 1.04 0 1.197-.263.889-1.486-.276-1.099-.067-1.649.801-2.114 1.629-.872 2.077-.801 3.669.58 1.388 1.204 2.437 1.434 5.588 1.226 1.283-.085 1.903.314 2.717 1.744 1.376 2.414 1.966 2.349 1.966-.217 0-1.143.27-2.246.6-2.451.93-.577.71-2.803-.4-4.031-.86-.951-.89-1.342-.22-2.765.93-1.955 1.26-7.155.59-8.973-.33-.875-.11-1.894.71-3.243 1.12-1.833 1.14-2.101.26-3.949-1.18-2.48-1.18-3.252-.01-4.542.75-.833.79-1.317.22-2.572-.59-1.306-.51-1.785.52-3.104 1.04-1.31 1.13-1.879.62-3.554zM652.173 514.463c3.915-.649 7.934-1.432 8.931-1.739.996-.307 2.491-.551 3.321-.542.831.01-.934.608-3.921 1.331-6.061 1.465-6.668 2.153-4.378 4.96 1.708 2.093 2.701 5.335 3.102 10.13.163 1.957.584 3.846.935 4.197.351.352.639 1.264.639 2.028s.669 2.68 1.487 4.257c2.061 3.975 2.372 4.934 2.497 7.701.165 3.653 1.338 8.233 2.411 9.42.765.845.875 1.825.549 4.878-.361 3.365-.254 4.018.899 5.484.929 1.18 1.206 2.147.956 3.321-.238 1.117.04 2.246.855 3.468 1.606 2.409 1.611 5.144.008 5.562-.664.174-1.207.674-1.207 1.111 0 .437.543.967 1.207 1.178.665.211 1.211.705 1.215 1.098.003.393.174 1.727.379 2.964.335 2.03.216 2.31-1.215 2.854-.873.332-1.586.899-1.586 1.262 0 1.52 1.338 2.994 2.717 2.994 2.713 0 4.079 6.401 1.51 7.072-1.462.382-1.562 1.118-.225 1.631.747.287.902.88.644 2.469-.19 1.172-.065 2.262.286 2.479.343.212.476 1.128.294 2.036-.181.908-.062 1.919.266 2.246.392.392.389 1.508-.008 3.259-.505 2.226-.416 3.025.54 4.87 1.125 2.171 1.124 2.224-.025 3.264-1.514 1.371-1.477 2.396.127 3.52 1.182.828 1.226 1.072.507 2.809-.673 1.625-.647 2.139.18 3.54.791 1.338.85 2.102.325 4.171-.453 1.787-.454 2.76-.001 3.305.352.425.691 3.21.753 6.189.061 2.98.36 6.977.665 8.883.369 2.307.342 3.861-.08 4.649-.475.888-.382 1.712.371 3.291.927 1.946.929 2.222.027 3.599-.855 1.305-.867 1.584-.094 2.226 1.161.963 1.116 1.791-.15 2.717-.872.637-.92 1.002-.311 2.338.574 1.26.54 2.277-.163 4.976-.486 1.866-.751 3.606-.59 3.867.494.8-.953 6.492-1.836 7.226-.648.538-.683 1.014-.156 2.169.504 1.106.495 1.66-.034 2.189-.389.39-.718 1.809-.729 3.154-.012 1.345-.41 3.125-.885 3.956-.475.83-.873 2.794-.885 4.364-.017 2.366-.279 3.024-1.531 3.844-1.427.935-2.125 3.266-.978 3.266.293 0 .03 2.106-.585 4.68-.613 2.575-1.328 5.768-1.588 7.096-.441 2.256-.622 2.429-2.737 2.603-2.59.214-2.605.241-1.279 2.265.917 1.4.912 1.586-.073 2.674-.583.645-.893 1.603-.689 2.133.416 1.086-1.736 5.725-2.657 5.725-.367 0-.341.409.069 1.064.528.845.28 1.806-1.203 4.664-1.028 1.979-1.868 4.202-1.868 4.939 0 .737-.278 1.512-.617 1.721-.845.522-4.214 8.048-4.214 9.412 0 .605-.686 1.735-1.523 2.513-1.08 1-1.63 2.285-1.885 4.402-.678 5.632-7.447 8.79-10.829 5.053-1.658-1.832-1.312-7.081.658-9.984.825-1.217 1.501-2.676 1.501-3.242 0-.567.507-1.488 1.126-2.049.685-.619 1.27-2.232 1.493-4.112.221-1.873.849-3.609 1.591-4.398.674-.717 1.225-1.747 1.225-2.286 0-.541.291-1.162.645-1.382.355-.219.498-.782.318-1.251-.644-1.679 3.001-4.879 4.507-3.958 2.399 1.468 3.007-.284.721-2.073-1.931-1.511-1.94-1.544-1.05-3.674.494-1.182.898-2.768.898-3.524 0-.756.677-2.557 1.503-4.003.826-1.445 1.505-3.356 1.51-4.245.004-1.011.588-2.074 1.559-2.838.855-.672 1.503-1.711 1.441-2.309-.221-2.129.061-2.685 2.895-5.717 2.868-3.069 2.868-3.069 1.51-3.974-1.582-1.052-1.819-4.024-.464-5.813.497-.656.72-1.812.533-2.751-.212-1.061.006-1.895.634-2.415.569-.473.957-1.733.957-3.107 0-1.567.338-2.501 1.05-2.899.98-.548 1.255-1.922 1.337-6.672.014-.804.438-2.092.943-2.862.732-1.117.771-1.632.195-2.555-.584-.935-.52-1.464.343-2.78.885-1.35.946-1.911.36-3.325-.571-1.377-.53-1.969.217-3.115.61-.936.849-2.435.708-4.434-.15-2.128.066-3.331.732-4.076.859-.96.854-1.158-.054-2.161-1.155-1.277-1.331-4.965-.287-6.01.547-.547.519-1.074-.122-2.272-.66-1.233-.683-1.801-.108-2.721 1.059-1.698.89-2.857-.482-3.293-1.612-.511-1.533-2.343.151-3.518 1.05-.733 1.136-.955.375-.979-1.81-.058-2.626-1.687-1.705-3.408.724-1.352.657-1.811-.603-4.118-1.502-2.749-1.313-3.98.61-3.98 1.419 0 1.477-.474.226-1.856-1.323-1.461-1.578-5.197-.434-6.341.506-.505.819-.974.697-1.042l-1.431-.787c-1.772-.976-1.978-5.065-.331-6.556 1.531-1.384 1.54-1.865.071-3.732-1.049-1.334-1.082-1.68-.339-3.459.741-1.773.706-2.16-.34-3.747-1.469-2.228-1.649-7.8-.269-8.329 1.035-.397 1.222-2.535.273-3.121-.427-.264-.435-.63-.025-1.124.834-1.005.164-3.384-1.463-5.199-2.057-2.293-2.865-4.208-2.516-5.962.174-.872-.041-2.251-.476-3.063-.572-1.066-.622-1.853-.178-2.826.484-1.062.362-1.671-.572-2.858-2.398-3.05-3.44-6.871-2.333-8.56.853-1.301.868-1.665.125-2.85-.469-.747-1.168-2.354-1.553-3.57-.386-1.216-1.107-2.367-1.603-2.557-.597-.23-.879-1.114-.835-2.621.075-2.555-.663-5.834-1.785-7.93-.412-.77-.594-2.022-.403-2.782.223-.884-.085-1.929-.854-2.907-.661-.84-1.201-1.914-1.201-2.388 0-.473-.194-1.054-.431-1.291-.969-.969-2.411-5.746-1.891-6.266.325-.326-.315-1.975-1.586-4.086-3.098-5.145-3.484-4.746 6.149-6.342zm-21.498 381.109c1.77-.623 3.316-1.427 3.435-1.785.148-.445.573-.461 1.337-.052.685.367 10.279.599 24.753.599 34.528 0 52.788 4.805 82.679 21.758 18.6 10.549 27.202 32.018 16.94 42.279-1.39 1.39-139.899 1.911-143.516.54-8.381-3.175-9.136-16.648-2.183-38.911 4.899-15.684 9.028-21.778 16.555-24.428zm-181.484 25.145c4.335-15.068 9.492-22.968 16.678-25.552 3.094-1.113 53.289-1.846 54.223-.793.166.188 3.155 1.234 6.643 2.325 44.274 13.847 66.768 38.788 55.183 61.19-1.053 2.036-125.121 2.743-129.914.74-8.248-3.446-9.166-15.829-2.813-37.91z"/><path stroke="#e1ff01" stroke-width="14" d="M594.5 518.5c11.167 27.667 35.5 92 39.5 114 8.364 46-3.5 92.5-9 109"/><path fill="#e1ff01" d="m674.421 651.325 6.965.701zm-36.83 113.861a6.999 6.999 0 0 0 3.595 9.223 6.999 6.999 0 0 0 9.223-3.595zm7.219-249.063c4.583 14.402 11.247 38.564 16.26 63.996 5.048 25.605 8.272 51.768 6.387 70.505l13.929 1.402c2.105-20.912-1.487-48.784-6.58-74.615-5.127-26.005-11.929-50.682-16.655-65.534zm22.647 134.501c-4.896 48.652-20.104 92.329-29.866 114.562l12.818 5.628c10.186-23.198 25.899-68.318 30.977-118.788z"/></svg>