<svg xmlns="http://www.w3.org/2000/svg" fill="none" viewBox="0.17 0.9 1112.44 278.58"><path fill="#525252" fill-rule="evenodd" d="M132.11 82.484a.919.919 0 0 0 .374 1.244c18.348 9.86 39.015 11.76 59.46 11.466 9.627-.138 15.341-1.481 23.679-4.632l-.003.064a10.18 10.18 0 0 1-.09.884c-.029.216-.065.456-.103.707-.074.496-.155 1.037-.205 1.533-.075.737-.111 1.581.099 2.269 2.437 7.982 5.943 12.688 12.373 18.271 12.625 10.963 29.692 16.947 45.815 19.681 4.623.784 10.067 1.531 15.853 1.969-1.23 4.919-.861 10.035.558 14.914 2.08 7.157 6.431 13.863 11.418 18.849 9.364 9.361 20.447 13.736 32.169 16.107 7.921 1.602 16.213 2.298 24.467 2.992 3.899.327 7.79.654 11.63 1.075 2.401.264 4.801.555 7.206.846l.012.001c2.408.292 4.822.584 7.24.849.814.09 1.899.067 2.972.032l.595-.02c.908-.031 1.808-.062 2.615-.049.908.016 1.547.089 1.903.206-4.221 6.624-2.178 13.589 1.915 19.615 4.099 6.035 10.399 11.373 15.218 14.993 23.392 17.571 51.23 16.313 78.271 12.787a.92.92 0 0 0-.237-1.822c-27.026 3.524-54.179 4.655-76.93-12.434-4.777-3.589-10.878-8.779-14.802-14.556-3.925-5.779-5.53-11.901-1.868-17.621.261-.407.471-.939.317-1.507-.158-.581-.612-.903-.988-1.075-.716-.328-1.773-.406-2.769-.423-.858-.014-1.817.019-2.726.05l-.573.02c-1.099.035-2.051.051-2.713-.022a644.06 644.06 0 0 1-7.219-.847l-.014-.002a653.616 653.616 0 0 0-7.225-.847c-3.943-.433-7.889-.764-11.814-1.093-8.194-.688-16.301-1.368-24.118-2.949-11.504-2.327-22.209-6.583-31.234-15.606-4.803-4.801-8.972-11.245-10.953-18.062-1.378-4.737-1.692-9.625-.458-14.271 4.552.286 9.279.368 13.957.117 11.309-.607 22.485-3.168 30.149-9.647 1.968-1.664 3.034-3.345 3.263-5.014.232-1.694-.427-3.178-1.486-4.365-2.068-2.318-5.852-3.745-8.923-4.036-12.996-1.232-28.846 4.461-35.981 16.067a23.96 23.96 0 0 0-2.317 4.945c-5.855-.428-11.381-1.182-16.073-1.977-15.939-2.703-32.64-8.597-44.916-19.257-6.228-5.408-9.505-9.834-11.821-17.42-.093-.304-.103-.822-.029-1.547.047-.457.115-.913.185-1.378.04-.264.08-.53.117-.801.048-.357.089-.716.104-1.045.015-.318.01-.669-.065-.988-.073-.31-.254-.76-.728-1.009-.47-.246-.959-.15-1.307-.018-8.385 3.194-13.912 4.523-23.438 4.66-20.347.293-40.633-1.612-58.564-11.247a.918.918 0 0 0-1.244.374Zm159.681 51.779a22.193 22.193 0 0 1 1.981-4.109c6.675-10.858 21.747-16.385 34.242-15.2 2.784.264 6.065 1.57 7.724 3.43.805.902 1.177 1.868 1.037 2.893-.144 1.051-.852 2.358-2.629 3.86-7.203 6.09-17.887 8.615-29.061 9.215-4.445.239-8.943.171-13.294-.089Zm100.456 57.292-.001.004.001-.004Zm.093.271.004.003-.004-.003ZM215.595 90.122l.002.005a.017.017 0 0 0-.002-.005Zm.465.276.007-.001-.007.001Z" clip-rule="evenodd"/><path fill="#37484A" d="M123.657 255.033c3.769-2.13 7.02-4.466 9.811-7.463 3.43-3.678 5.913-7.982 7.8-12.53 2.139-5.153 3.653-10.567 5.441-15.861.082-.24.227-.463.343-.695.24.193.519.352.712.588 4.327 5.272 8.572 10.605 12.98 15.809 3.889 4.591 8.108 8.831 13.575 11.63 3.495 1.792 7.174 2.684 11.342 2.881 6.457 1.831 17.542-5.5 17.006-12.046.266-2.996.677-5.77 1.029-8.548.54-4.265-1.033-8.093-3.057-11.595-5.463-9.449-11.715-18.395-18.13-27.222-3.512-4.831-6.933-9.726-10.475-14.532-4.991-6.764-11.642-11.544-18.979-15.407-8.087-4.256-16.255-8.372-24.389-12.534-.824-.42-1.686-.767-2.753-1.278-.751.468-.845 1.196-.729 1.921.634 3.961.36 7.858-.665 11.973.742 2.503 2.491 4.072 3.833 5.899 1.364 1.86 2.59 3.763 3.414 6.168.69.746 1.385 1.089 2.229 1.616 4.374 2.645 9.069 4.347 12.538 8.021 1.012 1.072 1.947 2.173 2.878 3.592 2.397 3.087 2.049 6.589 1.951 9.843-.142 4.672.201 9.431-1.167 14.013-.09.296-.227.579-.278.888.012-.292.15-.553.21-.832 1.393-6.177 1.355-12.423 1.042-18.703-.082-1.642-.391-3.091-1.398-4.647-3.641-6.087-9.61-8.767-15.484-11.943-.729-.647-1.514-.802-2.213-1.496-4.086 1.273-7.1-.236-9.755-3.035-1.518-1.599-2.868-3.365-4.802-4.879-9.592.189-17.173-4.355-24.591-9.259-4.644-3.069-5.176-3.125-8.864 1.093-2.362 2.701-4.322 5.719-5.938 8.912-2.089 4.128-5.185 6.075-9.948 6.499-6.05.536-12.14.737-18.331 1.801 3.331 4.222 8.04 6.524 12.619 8.985 2.255 1.208 4.601 2.246 6.938 3.583 3.996 2.29 8.293 3.597 12.448 5.826 5.617 2.979 11.427 4.956 16.851 7.768 4.618 2.396 5.883 5.35 4.687 10.365-1.509 6.353-3.632 12.539-5.12 18.888-2.135 9.101-2.097 17.829 5.72 24.975 6.475 3.305 12.881 3.721 19.669.968Z"/><path fill="#B2D1D7" d="M125.102 161.332c.116-.857-.043-1.569.206-2.092 1.943-4.128 1.265-8.312.386-12.83-3.109-5.963-7.397-10.67-11.86-15.493-.463-.685-.785-1.221-1.21-1.907-.381-.386-.72-.532-1.054-.952.051-.411-.592-.201-.245-.39.326.566.708.84 1.209 1.256.318.459.562.733 1.102.9 3.975 1.466 7.783 1.749 11.865 1.141 5.669-.845 10.866-2.804 15.844-5.449 3.328-1.77 6.26-4.098 8.259-7.412 1.303-2.16 2.126-4.398 2.212-7.009.159-4.899-.96-9.563-2.195-14.206-1.282-4.81-2.624-9.62-4.262-14.318-2.033-5.817-4.005-11.72-8.842-16.045-2.17-1.938-4.412-3.468-7.766-3.027-3.67-.956-7.268.493-9.433 3.562-.922 1.304-1.209 2.868-2.088 4.446-1.184 5.294-.026 10.292.407 15.308.09 1.046.39 2.079.21 3.138-.33 1.938-1.441 2.713-3.383 2.255-4.292-1.016-12.962-10.533-13.473-14.79-.077-.643-.085-1.311.215-1.86 2.259-4.171.591-7.013-3.22-9.371-2.616-1.402-4.735-3.172-7.423-4.39-3.958-1.629-5.3-.763-6.269 2.61-.116.404-.279.79-.467 1.424.969 3.588 4.249 4.574 6.594 6.52.94.78 2.076 1.368 3.156 1.985-1.14-.527-2.14-1.294-3.211-1.938-2.436-1.457-4.464-3.455-6.942-5.2-5.155.665-8.44 3.884-11.273 7.584-5.549 7.24-10.03 15.162-14.026 23.333-3.902 7.986-7.791 15.994-11.209 24.19-3.019 7.249-5.463 14.743-7.993 22.184-1.736 5.106-3.28 10.28-4.72 15.476a46.229 46.229 0 0 0-1.459 7.977c-.253 2.71.88 4.107 3.598 4.493 4.245.6 8.529.943 13.074 1.402 5-.215 9.725-.403 14.446-.673 2.508-.146 5.06-.215 7.504-.72 2.238-.463 4.335-1.501 5.643-3.606 2.088-3.352 4.082-6.768 6.316-10.018 1.175-1.706 2.753-3.142 4.206-4.647.764-.788 1.321-.613 2.342.107 5.857 4.12 11.886 8.008 18.841 10.083 2.697.806 5.467 1.299 8.537.622 3.628.81 5.669-1.364 7.851-3.653Z"/><path fill="#6D4F2C" d="M44.94 186.649c-1.699-.167-3.182-.33-4.645-.218-7.29.561-14.75-6.071-16.624-11.596a58.621 58.621 0 0 1-2.436-9.98c-.313-2.058-.814-4.09-1.282-6.117-.634-2.744-1.359-5.466-1.968-8.218-.36-1.629-.566-3.292-.742-5.316-.034-.681-.253-.908-.784-1.136-2.183-.222-4.134-.523-6.295-.175-.18.883-.287 1.646-.129 2.345 1.14 4.985 2.393 9.949 3.5 14.943.968 4.381 1.543 8.861 2.778 13.161.785 2.726 2.101 5.478 3.82 7.725 3.427 4.479 7.62 8.136 13.345 9.559 1.393.347 3.293.626 3.906 1.599.622.982-.065 2.786-.18 4.231-.429 5.457-.832 10.919-1.3 16.371-.591 6.924-1.32 13.834-1.843 20.761-.553 7.348-.914 14.713-1.407 22.069-.141 2.1-.484 4.188-.656 6.288-.42 5.037-.802 10.074-1.17 15.111-.035.468.158.948.244 1.424.467-.219 1.033-.335 1.38-.678.58-.566 1.124-1.217 1.502-1.929 1.32-2.49 2.216-5.11 2.572-7.948.596-4.784 1.497-9.533 2.05-14.322.686-5.95 1.15-11.93 1.715-17.897.167-1.779.386-3.549.549-5.328.669-7.224 1.312-14.456 1.994-21.679.15-1.569.476-3.125.63-4.694.249-2.512.369-5.033.643-7.54.15-1.346.506-2.667.982-4.137 2.226-2.941 2.196-4.321-.15-6.679Z"/><path fill="#37484A" d="M89.825 32.171c-.06-7.969-4.455-14.746-12.032-17.64-1.625-.622-3.511-.84-5.26-.784-7.205.218-12.736 3.288-15.96 9.94-3.345 6.911-1.797 14.147 3.185 19.373 4.31 4.522 9.867 6.216 15.99 5.204 2.611-.433 5.124-1.668 7.362-3.584 4.572-2.95 6.394-7.27 6.715-12.509Z"/><path fill="#1A2223" d="M16.81 144.443c.33.214.425.304.52.398 2.113 3.516 4.244 4.694 7.297 4.026 3.645-.798 5.9-4.004 5.399-7.974-.313-2.482-.712-4.994-1.445-7.377-2.376-7.721-4.738-15.454-7.465-23.05-1.703-4.75-4.052-9.268-6.11-13.89-1.343-3.017-4.066-4.256-6.951-5.04-2.222-.605-4.031.65-5.703 2.301-1.008 1.963-1.137 3.837-.545 5.693 4.477 14.005 8.962 28.01 13.327 42.049.309.995.549 2.041 1.677 2.864Z"/><path fill="#37484A" d="M89.959 32.055c-.944 1.95-1.643 3.965-2.256 6.005-.759 2.543-2.796 4.159-4.356 6.375-.52 5.114 1.998 8.423 5.681 11.098.99.72 2.071 1.316 3.242 2.152 4.138-1.809 4.806-4.484 2.114-7.72-.815-.978-1.728-1.968-.858-3.352.952-1.505 2.187-.72 3.589-.3.382.03.536.021.913-.056.493-.24.845-.446.87-.725.31-3.056 1.776-5.255 4.628-6.511.368-.163.548-.622.789-1.235.463-2.8-1.39-3.91-3.242-4.467-3.5-1.05-7.101-1.886-11.114-1.264Z"/><path fill="#6D4F2C" d="M16.72 144.635c-.712-3.832-2.341-7.403-3.156-11.274-.72-3.408-2.148-6.666-3.229-10.001-1.432-4.416-2.838-8.844-4.249-13.268-.596-1.865-.973-3.832-1.818-5.577-.862-1.779-.669-3.802-1.835-5.573-.682-1.033-.137-2.872-.146-4.63C.439 95.737.002 98.016.22 100.297c.24 2.478.94 4.913 1.445 7.365.63 3.06 1.26 6.117 1.904 9.173.429 2.037.84 4.077 1.33 6.1 1.153 4.754 2.362 9.496 3.515 14.254.515 2.126.944 4.27 1.484 6.632 2.217.437 4.37.651 6.822.814Z"/><path fill="#298393" d="M117.526 71.978c.587-.562 1.089-1.145 1.26-1.813.721-2.842 2.26-4.866 5.206-5.612a212.61 212.61 0 0 1 4.215-1.024c1.346 1.423-.995-1.54 0 0 .613 1.972-1.355-1.432 0 0-.536-1.728-2.131-4.904-4.566-5.209-2.307.33-5.241-2.657-6.115-1.071-2.907-1.5-6.642-2.868-8.383-3.816-.528-.424-.927-.626-1.583-.827-.386-.034-.544-.017-.922.081-3.807 3.246-3.717 4.424.532 7.502 2.749 1.248 4.991 3.297 8.306 2.667.386-.172.553-.288.707-.42.155-.133.305-.266.459-.4.137.254.125.331-.021.224-.159-.116-.296-.06-.596.326-2.689 2.383-2.929 3.845-1.055 6.473.707.99 1.243 2.152 2.556 2.919Z"/><path fill="#B97A5C" d="M107.539 60.005c-.377-.604-.652-1.058-1.046-1.328-2.732-1.878-2.783-2.148-.703-4.6.261-.309.578-.579.874-1.26-.077-.502-.158-.614-.403-.85a4.816 4.816 0 0 0-.716-.432c-1.749-.888-3.297-1.693-4.897-2.825a7.964 7.964 0 0 0-.621-.519c-.493-.309-.84-.48-1.3-.814a10.5 10.5 0 0 1-.514-.55c-.296-.33-.476-.505-.793-.814-1.201-.651-2.05-1.89-3.482-1.217-1.604.755-2.221 2.61-1.342 4.175a8.06 8.06 0 0 0 1.5 1.92c2.029 1.887 2.063 1.874.614 4.065-.622.943-1.313 1.839-2.144 2.837-.824 1.244-1.471 2.405-2.187 3.794 1.81 2.062 3.906 3.575 6.586 4.566 2.967-2.114 6.085-3.511 9.365-4.583.622-.21 1.068-.677 1.209-1.565Z"/><path fill="#B97A5C" d="M104.567 37.688c-1.535.57-2.427 2.113-4.279 1.98-.339-.026-.943.832-1.076 1.372-.382 1.513-.583 3.07-1.068 4.724-.463.351-.557.634-.356 1.17.133.197.124.197.12.189.412.553 1.14.608 1.793 1.157l.111.116c1.947 1.145 3.778 2.542 6.278 3.12 3.023-1.122 3.327.738 2.216-1.208-.287-.322-.561-.459-.544-.677.03-.42-.172.064.407.06.545.008.836-.198 1.141-.665-1.93-2.358-2.213-5.864-2.92-6.962-.515-.154-.794.253-1.124-.021.185-.034.348-.116.626-.352-.296-1.376-.72-2.627-1.325-4.004Z"/><path fill="#30555C" d="M98.376 46.883c-1.06.956-1.883 1.972-2.818 3.16-.18.316 4.4 3.887 4.426 4.243 1.513 1.346 2.791 2.74 4.991 2.696.694-1.629 1.136-3.168 2.62-4.338-1.385-.883-7.508-5.007-9.22-5.761Z"/><path fill="#373C53" d="M83.24 66.989c2.34 2.122 4.681 4.15 7.126 6.044 1.14.883 2.465 1.522 3.734 2.225.125.069.49-.137.627-.308.085-.108.03-.472-.086-.58-.296-.256-.66-.44-1-.642-3.468-2.084-6.834-4.304-9.763-7.45-.275.05-.433.304-.639.711Z"/><path fill="#37484A" d="M106.068 41.666c-.707.086-1.389.227-2.028.476-.15.06-.154.48-.227.737.261-.008.536.026.784-.034.489-.12.965-.292 1.523-.665.068-.214-.009-.415-.052-.514Z"/><path fill="#F0EDE7" d="M112.633 128.945c.176.45.459 1.046.935 1.711.201-.077.206-.223.231-.596-.338-.476-.699-.725-1.166-1.115Z"/><path fill="#B97A5C" d="M125.385 161.17c-2.114 1.097-4.022 2.285-5.964 3.412-.412.24-.956.249-1.69.395 2.028 2.499 4.142 5.152 6.634 7.39 2.298 2.071 5.137 1.955 7.577.257.351-1.882-.335-3.523-1.39-4.977-1.591-2.182-3.31-4.274-5.167-6.477Z"/><path fill="#373C53" d="M104.657 120.312a50.367 50.367 0 0 0-1.17-6.761c-1.145-4.737-2.419-9.444-3.525-14.193-.609-2.624-.973-5.307-1.466-7.957a4.881 4.881 0 0 0-.403-1.166c-.078-.162-.305-.257-.464-.385-.128.214-.385.437-.368.638.115 1.24.21 2.491.459 3.704 1.11 5.384 2.234 10.764 3.421 16.131.648 2.932 1.403 5.843 2.196 8.741.141.502.724.879 1.32 1.248ZM49.21 156.145c-.334.926-.605 1.621-.875 2.319.678-.535 1.604-.925 2.003-1.624 3.803-6.645 7.525-13.336 11.226-20.041.193-.352-.039-.934-.073-1.41-.352.27-.828.463-1.034.818-2.52 4.394-4.995 8.814-7.49 13.221-1.227 2.173-2.466 4.33-3.757 6.717Z"/><path fill="#F0EDE7" d="M105.073 120.244c-.193 0-.188.047-.201.06.291.502.592.986 1.08 1.526-.107-.493-.398-1.037-.879-1.586Zm1.098 1.611c.326.536.639 1.085 1.085 1.797a6.097 6.097 0 0 0-.913-1.724c-.206-.043-.185-.064-.172-.073Zm6.321 6.983a19.27 19.27 0 0 1-1.124-1.145c.163.3.442.755.939 1.158.219-.052.193-.03.185-.013Zm-3.371-3.214c.056-.262-.073-.596-.296-1.089-.025.227.043.622.296 1.089Zm-.429-1.222c-.313-.235-.617-.484-1.115-.66-.192.073-.171.047-.162.034.3.211.596.433 1.097.622.215-.03.189-.008.18.004Zm.639 1.256c.129.146.245.305.365.463-.022-.133-.043-.266-.232-.411-.167-.022-.141-.039-.133-.052Zm1.887 1.92c-.159-.129-.304-.271-.455-.412.043.141.082.279.305.399.184-.026.163 0 .15.013Z"/><path fill="#5C405B" d="M97.72 47.08c.197-.227.197-.505.201-.994-.103-.214-.206-.218-.472-.223-.081.395-.004.785.27 1.218Z"/><path fill="#37484A" d="M108.621 52.138c-.791-.12-1.374-.368-2.206-.58-.248.028-.409-.234-.473-.375.926-.132 1.912-.12 3.156-.224.083.278-.095.666-.477 1.179Z"/><path fill="#111F22" d="M105.939 52.207c.232-.27.223-.544.172-1.016-1.402-.874-2.757-1.56-4.129-2.207-.545-.258-1.128-.42-1.938-.609-.18.313-.21.789-.035.883a96.992 96.992 0 0 0 5.93 2.95Zm-6.337-3.779c.33-1.09-.356-1.316-1.462-1.32-.279 1.041.356 1.32 1.462 1.32Z"/><path fill="#5C405B" d="M95.263 48.522c-.15-.489-.476-.828-.798-1.17-.034.308-.073.621.069.994.3.154.428.24.729.176Z"/><path fill="#373C53" d="M95.606 48.453c-.288-.068-.408-.06-.712-.043.064.228.313.455.557.678.107-.189.215-.373.155-.635Z"/><path fill="#5C405B" d="M106.638 52.795c.073-.176-.025-.373-.3-.596-.077.176.026.373.3.596Z"/><path fill="#111F22" d="M105.957 45.928c.231.052.497-.034.634-.068-.145-.442-.39-.892-.742-1.222-.068-.064-.561.313-.857.489.244.248.489.501.965.801Z"/><path fill="#B97A5C" d="M121.043 60.778c.559-.374 2.564-1.559 3.497-2.105-1.166-.545-3.73-2.432-6.528-2.806-3.497-.468-5.595-.936-8.159-2.807-2.564-1.87-3.73.234-5.129 1.871-1.398 1.638 1.166 4.678 2.798 5.847 1.305.936 6.76 2.105 9.325 2.573 1.165-.701 3.636-2.198 4.196-2.573Z"/><path fill="#525252" fill-rule="evenodd" d="M578.286 253.583a.92.92 0 0 0 1.145.615c19.945-6.002 35.904-19.272 50.152-33.937 6.71-6.905 9.8-11.895 13.468-20.019l.044.048c.167.184.354.416.561.688.132.174.276.369.427.573.299.403.624.843.939 1.229.468.575 1.04 1.197 1.674 1.535 7.368 3.921 13.175 4.768 21.67 4.17 16.678-1.175 32.978-9.012 46.312-18.479 3.823-2.715 8.201-6.036 12.602-9.818 2.608 4.348 6.487 7.705 10.94 10.152 6.532 3.589 14.35 5.254 21.402 5.253 13.24-.001 24.171-4.745 34.136-11.357 6.734-4.468 13.089-9.839 19.416-15.185 2.989-2.526 5.972-5.046 8.985-7.463 1.884-1.512 3.786-3.003 5.693-4.498l.01-.007c1.909-1.497 3.822-2.997 5.719-4.519.639-.513 1.39-1.296 2.125-2.079l.406-.435c.62-.664 1.234-1.322 1.814-1.883.653-.632 1.157-1.032 1.492-1.201 1.699 7.669 8.069 11.149 15.223 12.516 7.167 1.369 15.395.689 21.363-.159 28.965-4.116 47.76-24.691 64.388-46.305a.919.919 0 1 0-1.457-1.12c-16.618 21.602-35.018 41.602-63.189 45.605-5.916.841-13.899 1.484-20.759.174-6.862-1.311-12.326-4.505-13.781-11.139-.104-.472-.331-.996-.842-1.289-.522-.3-1.071-.206-1.459-.062-.738.274-1.54.967-2.256 1.659a55.02 55.02 0 0 0-1.892 1.963l-.392.419c-.752.802-1.414 1.486-1.934 1.903a623.973 623.973 0 0 1-5.703 4.505l-.011.01a633.517 633.517 0 0 0-5.708 4.509c-3.094 2.482-6.118 5.038-9.127 7.581-6.28 5.307-12.494 10.559-19.14 14.969-9.779 6.489-20.358 11.049-33.12 11.051-6.791.001-14.296-1.608-20.517-5.027-4.324-2.376-8.002-5.61-10.415-9.768 3.421-3.016 6.822-6.301 9.952-9.786 7.567-8.426 13.66-18.139 14.497-28.14.215-2.568-.22-4.511-1.238-5.853-1.034-1.362-2.549-1.945-4.137-2.036-3.102-.176-6.787 1.49-9.163 3.455-10.062 8.319-17.244 23.553-14.082 36.805a24.018 24.018 0 0 0 1.858 5.134c-4.442 3.838-8.883 7.213-12.763 9.968-13.182 9.359-29.159 17.001-45.377 18.144-8.227.579-13.675-.233-20.677-3.96-.28-.149-.653-.508-1.114-1.073-.29-.356-.564-.727-.843-1.105a57.408 57.408 0 0 0-.485-.649 12.122 12.122 0 0 0-.664-.813c-.215-.236-.467-.48-.745-.652-.27-.167-.717-.359-1.228-.199-.507.159-.784.572-.937.912-3.671 8.187-6.64 13.035-13.278 19.868-14.18 14.594-29.872 27.591-49.364 33.457a.92.92 0 0 0-.616 1.145Zm149.526-76.298a22.15 22.15 0 0 1-1.505-4.306c-2.958-12.398 3.792-26.964 13.464-34.961 2.156-1.783 5.399-3.178 7.888-3.037 1.207.069 2.153.489 2.778 1.313.642.845 1.065 2.269.871 4.588-.787 9.4-6.556 18.74-14.033 27.065-2.975 3.312-6.203 6.445-9.463 9.338Zm111.544-30.523.003.005-.003-.005Zm.258.127.005-.001-.005.001Zm-196.893 53.062.005.002-.005-.002Zm.523-.133a.046.046 0 0 0 .004-.006l-.004.006Z" clip-rule="evenodd"/><path fill="#79AEB9" d="M1084.83 73.151c-4.64-9.767-11.49-17.447-19.38-24.288a228.98 228.98 0 0 0-6.83-5.657c-1.28-1.03-1.59-2.168-1.19-3.792.8-3.253-.3-4.237-3.59-3.493-2.25.512-4.52.966-7.04 1.451-5.57-.068-10.36 2.069-15.45 3.825-5.6 2.44-10.35 5.851-15.06 9.272-1.55 1.134-2.61 2.944-3.99 4.645-.14 3.384.59 4.033 3.57 3.071 5.98-1.932 11.89-2.826 17.97-.285 7.6 3.17 11.47 9.172 11.84 17.392.65 14.54-4.43 27.319-11.29 39.671-5.86 10.566-13.33 19.766-22.77 27.369-2.61 2.104-5.82 3.302-8.26 5.974-.02 1.143.57 1.66 1.26 2.046 7.89 4.428 16.04 8.175 25.34 9.608 1.66-.535 2.99-.082 4.6.331 17.54 4.178 35.14 5.793 53.07 7.195.48-.122.67-.195 1.11-.431 3.02-5.072 3.45-10.329 2.47-16.032-.63-.807-1.28-.853-1.97-.875-6.91-.259-10.6-4.169-11-11.151-.38-6.632.63-13.128 1.65-19.597.96-6.038 1.93-12.09 3.32-18.064.85-3.616 1.93-7.086 4.14-10.425.65-4.346-1.25-8.038-1.83-11.949-.18-1.184-.82-2.3-.48-3.815.1-.771-.01-1.275-.21-1.996Z"/><path fill="#E0DBC7" d="M1030.58 159.443c-9.12-1.919-17.43-5.248-25.33-9.644-.48-.268-.99-.472-1.61-.898-.25-.318-.37-.445-.76-.635-13.84 3.842-24.825 10.955-30.089 24.759-2.119 5.558-1.656 11.391-.667 17.416 1.783 5.167 3.344 10.152 5.94 14.988 3.303 6.31 6.72 12.267 10.695 18.146 1.797.127 1.965 1.66 2.627 2.536 4.574 6.038 9.094 12.121 13.484 18.286.94 1.311 1.49.005 2.44.082 2.71-.096 4.47-1.747 6.45-2.89 2.78-1.606 5.59-3.126 8.6-4.813 1.12-1.234 1.51-2.423.8-4.006-.53-.776-1.14-1.207-1.41-2.132-.1-.322-.15-.449-.28-.762a8.883 8.883 0 0 0-.62-1.012 6.445 6.445 0 0 1-.63-1.401c-.11-.309-.17-.431-.31-.726-.48-.735-.79-1.325-1.06-2.178a6.659 6.659 0 0 0-.36-.794c-1.95-4.545-4.59-8.528-6.14-13.264-.11-.354-.17-.49-.33-.817-.54-.735-.94-1.302-1.16-2.2a4.438 4.438 0 0 0-.37-.767c-.49-.621-.73-1.129-.95-1.882a4.183 4.183 0 0 0-.36-.762c-.45-.608-.73-1.066-.92-1.806a8.066 8.066 0 0 0-.3-.789c-.23-.44-.37-.685-.61-1.13-.7-2.077-2.39-3.865-.47-6.156 1-1.469 2.24-1.787 3.61-1.306 4.51 1.592 9.27 1.837 14.19 2.685 2.78.359 5.31.159 8.13.245 10.21.023 20-1.506 29.84-2.327 2.65-.222 5.36.023 8.21-.884 1.85-1.398 3.4-2.754 5.56-3.593.33-.15.46-.218.77-.399.49-.386.76-.694 1.2-1.112.24-.222.33-.308.56-.544.39-.431.65-.721 1.08-1.134.23-.259.31-.372.5-.676.5-1.193 1.07-2.078 1.99-3.003.26-.268.36-.381.59-.676.73-1.189 1.13-2.309 2.09-3.348.24-.281.33-.404.52-.726.41-1.057.49-1.982 1.03-3.012.25-.513.38-.817.57-1.375.19-2.023 1.28-3.76.04-5.734-17.68-1.311-35.02-3.189-52.36-7.181-1.51-.513-2.8-.798-4.42-.649Z"/><path fill="#FAFAFA" d="M1002.61 148.471c.34.095.45.136.74.208 1.64-.884 3.12-1.796 4.59-2.722 7.03-4.414 12.7-10.297 17.94-16.639 5.54-6.705 9.85-14.217 13.64-21.975a72.738 72.738 0 0 0 5.31-14.716c.92-3.783 2.25-7.626 1.72-11.713-.26-1.973-.11-4.01-.04-6.015.31-8.352-5.7-15.596-12.8-18.073-4.94-1.724-9.88-2.105-14.89-.29-1.41.508-2.89.535-4.32 1.37-1.52.893-1.73-1.044-2.25-2.328-4.07 3.951-6.4 9.168-8.65 14.421-.51 1.198-.9 2.45-1.36 3.925-1.04 1.215-1.72 2.4-2.1 4.028-2.569 9.925-4.525 19.729-6.812 29.455-.621 2.64-2.074 4.636-4.147 6.251-7.546 5.879-15.614 11.005-23.9 16.263-1.974 1.497-3.789 2.795-5.118 4.605-1.126 1.537-2.169 3.148-.976 5.412.331.458.522.685.731 1.061-.087 1.892.571 3.339 1.905 4.772 1.094 1.153 2.024 2.123 3.018 3.33 1.484 2.205 3.703 2.309 6.049 2.699 1.325-.217 2.414-.385 3.748-.499.381-.072.531-.113.898-.231 2.432-1.007 4.737-1.669 7.242-2.45.363-.104.504-.154.849-.299 1.706-1.034 3.362-1.638 5.213-2.332.341-.127.472-.181.795-.336.884-.571 1.624-.929 2.654-1.147.327-.114.454-.173.753-.336.813-.64 1.52-1.057 2.437-1.542 1.148-1.166 2.573-1.493 3.834-2.491.807-.844 1.797-.785 2.707-1.379 1.21-1.157 2.48-1.833 3.94-2.608.59-.549.99-.971 1.57-1.538 3.05-2.291 5.74-4.641 7.92-7.816.53-.64.95-1.062 1.54-1.638 1.17-1.284 1.49-2.858 2.72-4.11.93-2.459 1.88-4.686 2.49-7.032.08-.313.14-.635.29-.925.09.363-.17.635-.25.953-.57 2.241-1.52 4.355-2.35 6.741-1.21 1.27-1.57 2.803-2.67 4.132-.57.586-.99 1.012-1.56 1.606-2.09 3.153-4.61 5.557-7.71 7.708-.59.562-1 .984-1.58 1.551-1.29 1.035-2.64 1.583-3.93 2.6-.74.898-1.7.843-2.632 1.365-1.221 1.234-2.741 1.597-4.079 2.658-.522.445-.908.704-.985 1.411 2.632 1.611 4.742 3.793 7.866 4.655Z"/><path fill="#9F9B8D" d="M1002.62 148.625c-2.27-1.633-4.758-3.162-7.504-4.69-.708-.431-1.229-.522-2.055-.186-.241.145-.204.186-.209.158-.803.862-2.046.572-3.176 1.221-.195.127-.159.145-.164.122-1.756 1.107-3.657 1.883-5.867 2.55-.204.127-.163.149-.168.127-2.427 1.175-4.923 2.123-7.854 2.554-.223.122-.182.149-.191.127-1.116.748-2.382.698-3.852.658-2.215-.649-4.22-1.28-6.448-1.919-2.864 1.297-5.468 2.672-8.146 3.883-13.567 6.147-23.559 15.696-28.614 29.958-2.228 6.283-4.283 12.63-6.675 18.849-1.724 4.482-3.852 8.805-5.831 13.183-1.039 2.296-2.196 4.537-3.199 6.846-.916 2.105-.372 3.125 2.228 4.708 5.105 3.389 10.183 6.528 15.46 9.763 2.573 1.03 4.352.131 5.953-1.556 3.054-3.212 6.153-6.383 9.198-9.604.259-.272.254-.789.372-1.438-2.314-8.274-3.471-16.399-3.421-24.828.041-7.435 4.792-13.532 11.104-14.925 1.043-.013 1.792-.344 2.777-.385.381-.014.562-.018.744-.009.186.009.127.022-.372.027-1.117-.023-1.979.363-3.159.39-6.434 1.452-11.094 7.608-11.071 14.993.027 7.621.748 15.043 2.84 22.351.195.676.486 1.229 1.198 1.883 1.371-1.121 2.519-2.427 3.893-3.766.953-2.499 10.11-10.547 12.179-13.382 2.07-2.836 2.169-1.202 2.673-2.196 2.246-4.4 5.486-8.211 7.474-13.015-.2-2.567-.545-4.876-.586-7.195-.131-7.616 1.861-14.507 6.916-20.427 4.977-5.825 11.303-9.667 18.141-12.793 1.675-.757 3.462-1.293 5.412-2.037Z"/><path fill="#2D3300" d="M1072.66 191.143c-1.95.459-3.78.831-5.64 1.035-3.07.34-6.15.553-9.23.848-1.42.136-2.84.354-4.26.504-3.83.403-7.66.861-11.51 1.165-2.76.218-5.54.214-8.61.372-.45.186-.61.304-.97.635-1.68 2.246-2.56 4.605-2.79 7.018-.97 10.071-2.28 20.115-2.92 30.217-.2 3.23-.75 6.41-1.27 9.894.13 5.449-.39 10.548-1.31 15.91.07 4.613-.41 8.882-.99 13.146-.11.876-.27 1.756-.11 2.636.28 1.497.92 2.822 2.59 3.039 2.22.291 3.02-1.401 3.91-3.307 1.19-7.639 2.46-14.979 2.37-22.723.06-2.917.17-5.575.45-8.215.64-6.392 1.36-12.775 2.08-19.158.11-.984.45-1.946.56-2.93.29-2.531.57-5.067.75-7.608.09-1.352.57-2.105 2.01-2.041.56.023 1.12.004 1.67.004l51.26-.013c.89 0 1.81-.109 2.67.063.51.1 1.24.577 1.34 1.007.97 4.183 1.85 8.393 2.73 12.594.48 2.259.9 4.536 1.42 6.786.66 2.903 1.47 5.77 2.09 8.683 1.11 5.162 2.1 10.352 3.21 15.514.7 3.23 1.56 6.419 2.29 9.645.61 2.685 1.29 5.371 1.64 8.097.17 1.348.65 2.373 1.6 3.149.53.426 1.55.852 1.98.617.53-.286 1-1.311.93-1.956-.25-2.295-.71-4.568-1.15-6.841-.62-3.252-1.31-6.487-1.93-9.739-.68-3.575-1.33-7.154-1.96-10.738-.72-4.133-1.36-8.279-2.12-12.403-.61-3.361-1.38-6.695-2.01-10.057-.7-3.683-1.29-7.385-1.98-11.069-.73-3.906-1.39-7.834-2.36-11.681-.42-1.674-.23-3.389-1.25-5.09-1.98-3.298-4.18-6.079-7.92-7.421-.7-.25-1.41-.495-.15-1.443 6.15-4.605 8.81-10.987 9.03-18.549.19-6.792.47-13.578.7-20.365.21-6.564.4-13.132.64-19.697.14-3.887.35-7.775.46-11.944-2.25-1.352-2.91.231-3.31 1.751-.75 2.776-1.87 5.557-1.91 8.406-.09 5.471-1.43 10.747-1.95 16.422.29 1.479.55 2.681.32 3.915-1.48 7.766-2.21 15.61-2.71 23.498-.44 6.932-4.81 10.97-11.22 13.455-.43.15-.59.227-.98.463-.22.159-.17.177-.17.15-.35.354-.86.585-1.25 1.211-.14.136-.08.154-.09.127-.28.309-.67.481-1.21.771-.28.182-.39.263-.78.604-.57.499-.9.667-1.45.812-.55.204-.86.399-1.23.825Z"/><path fill="#CDE801" d="M1094.14 146.269a389.21 389.21 0 0 1 1.54-9.572c.13-.748.48-1.519.38-2.236-.68-5.058 1.51-9.686 2.14-14.544.04-.254.29-.479.64-.694.9-.554 1.69-1.212 1.78-2.263.05-.566-.08-1.214-.15-1.779-.08-.628.02-1.2.11-1.865.17-1.347.22-2.495.25-3.933.01-3.631.37-7.363-.3-10.93a11.03 11.03 0 0 0-.62-2.148c-.56-1.393-2.56-2.218-3.95-3.248-.43-.313-.98-.458-1.68-.817-.34-.184-.47-.24-.74-.452a.091.091 0 0 0-.03-.03c-.05-.06-.16-.17-.22-.218-1.28-.948-2.79-1.35-4.51-1.749-.27-.064-.56-.1-.84-.045-.37.074-.64.225-.98.544-2.56 3.034-3.8 6.3-4.38 9.957-.55 3.475-1.61 6.868-2.22 10.339-.7 3.905-1.15 7.857-1.7 11.79-.06.44.04.921-.09 1.329-1.81 5.525-1.25 11.228-1.23 16.875.02 4.646 4.35 9.754 8.92 10.579 1.23.223 2.59-.245 4.15-.376 2.98-.136 3.53-2.069 3.73-4.514Z"/><path fill="#A3A3A3" d="M959.029 140.15c-.336-3.884 2.436-5.92 4.814-8.157.395-.372.889-.635 1.425-1.139-1.089-1.592-2.741-1.338-4.266-1.36-4.465-.068-8.93.013-13.395-.041-3.571-.041-3.916-.327-3.925-3.779-.045-13.174-.072-26.348.014-39.521.032-4.442 1.733-6.16 6.216-6.71 1.443-.177 2.9-.131 4.352-.131 13.731-.005 27.466.009 41.197-.014 1.661 0 3.363.2 5.179-.812.71-1.397 1.16-2.604 1.61-4.056-19.403-.235-38.797-.222-58.196-.208-.78 0-1.565-.05-2.341.013-2.364.186-3.794 1.679-3.794 4.106-.018 19.398-.018 38.791.005 58.189 0 2.304 1.066 3.334 3.421 3.375 5.79.095 11.585.149 17.684.245Z"/><path fill="#9F9B8D" d="M1043.23 31.607c2.84-1.547 3.22-4.49 4.6-6.773.22-.363.25-.839.43-1.233 1.1-2.378 1.11-2.373 3.22-.985 5.38 3.534 10.76 1.701 13.98-4.123 2-3.602.92-9.763-1.39-12.34-3.83-4.268-11.28-4.119-14.8.59-1.5 2.014-1.54 1.969-3.86.944-1.2-.531-2.38-1.148-3.63-1.506-1.67-.481-2.77-1.361-3.54-2.999-.91-1.923-2.95-2.141-4.85-2.277-.43-.032-.88.118-1.32.208-4.06.83-4.93 2.364-3.55 6.528.17 1.225.85 1.865 1.56 2.36 2.64 1.841 3.96 4.06 2.69 7.357-.42 1.107-.11 2.25 1.1 2.822 1.08.508 1.92.014 2.62-.821.5-.599 1.01-1.211 1.72-1.547.74-.35 1.52-.336 2.21.15.75.521.8 1.284.59 2.086-.26.98-.75 1.842-1.32 2.672-2.3 3.376-.84 7.295 3.54 8.887Z"/><path fill="#DBB385" d="M1043.41 31.749c-2.14-.55-2.28-2.85-3.58-4.038-.38-.335-.43-1.007-.76-1.415-.61-.744-.68-1.134.24-1.82 1.3-.974 1.86-2.553 2.6-4 .78-1.51.55-2.504-.71-3.425-.96-.699-3.17-.708-3.99.086-.59.572-.92 1.415-1.51 1.991-.38.368-1.16.772-1.5.608-.46-.213-.94-.975-.92-1.474.06-.953.32-1.964.75-2.817.9-1.756.2-2.949-1.1-4.038-1.33-1.116-2.66-2.236-4.19-3.425-3.09 3.112-8.27 11.006-11.21 14.394.56 1.425 1.58 2.296 2.74 3.357 1.41.345 2.62.223 4.05.25.93.027 1.55-.277 2.21-.313.74-.045 1.49 0 2.23-.082-.72.173-1.44.037-2.41.132-1.91.503-3.63.159-5.56.363-1.95 1.098-.67-1.856-2.27-.35-.35 2.083-.67 3.956-.76 5.843-.11 2.21.46 2.954 2.51 3.72 1.54.576 3.26.84 4.64 1.66 2.07 1.225 3.93 2.818 6.07 4.36 3.55-.699 6.91-1.51 10.26-2.314 1.68-.399 3.35-.784 5.17-1.397-.93-2.032-1.99-3.837-3-5.856Z"/><path fill="#579AA8" d="M1087.87 90.064c1.79.68 3.42 1.143 5.31 1.587.18-3.125-1.77-5.516-2.96-8.188-1.56-3.525-3.4-6.923-5.33-10.447-.21.426-.21.925-.22 1.674.44 5.33 2.01 10.188 3.2 15.374Z"/><path fill="#E1FF01" d="M1019.97 33.299c1.97-.847 2.41-2.609 2.66-4.648.82-1.339-2.46.568-.68-1.346-.32-1.645-1.46-1.94-2.95-1.983-.77.739-1.37 1.387-1.86 2.106-1.53 2.238-1.32 3.413.9 4.876.54.355 1.17.572 1.93.995Z"/><path fill="#DBB385" d="M961.696 145.952c-.24-1.515-.776-3.044-1.533-4.682-2.464-.127-4.334.713-6.008 2.504-.386.35-.472.595-.3 1.053 1.216 1.107 2.51 1.243 3.88 1.175 1.211-.064 2.437-.046 3.961-.05Z"/><path fill="#263471" d="M953.683 145.059c.304-.299.308-.535.317-.943-4.347-.191-8.698-.209-13.05-.214-.435 0-.88.055-1.302.159-.132.032-.304.304-.291.449.019.173.2.449.341.467.649.1 1.311.168 1.969.168a634.04 634.04 0 0 0 12.016-.086Z"/><path fill="#5579C3" d="M1093.56 91.629c-.11.204.01.376.36.485.11-.222-.01-.372-.36-.485Z"/><path fill="#254147" d="M1053.26 43.402c.85-.023 1.42.027 1.95-.091.21-.045.38-.458.46-.735.03-.104-.25-.417-.41-.426-.77-.055-1.59-.195-2.33-.019-3.66.894-7.36 1.425-11.14 1.298-.37-.014-.74.317-1.12.485.39.272.75.758 1.15.78 3.79.245 7.48-.421 11.44-1.292Zm34.57 46.925c-.38-3.235-.92-6.438-1.58-9.613-.37-1.792-.94-3.543-1.52-5.544-.43-.068-1.1.168-1.08.25.3 1.275.79 2.513 1.01 3.797.63 3.566 2.03 6.981 2.11 10.974.32.267.59.226 1.06.136Z"/><path fill="#E5E5E5" d="M1000.89 78.55c-16.85-.272-33.694-.326-50.542-.231-1.802.009-3.68.73-5.377 1.456-1.366.585-1.997 2.014-2.21 3.493-.109.767-.041 1.56-.041 2.34-.005 13.946-.014 27.891-.014 41.84 0 3.19-.431 3.162 2.973 3.158a3084.58 3084.58 0 0 1 19.38.027c1.996-.939 3.752-1.824 5.377-2.899 5.459-3.615 10.949-7.204 16.281-11.005 2.818-2.01 5.931-3.92 7.056-7.54.681-2.191 1.234-4.432 1.747-6.668.835-3.63 1.588-7.277 2.378-10.915.558-2.567 1.089-5.14 1.683-7.703.39-1.71.879-3.398 1.309-5.353Z"/><path fill="#254147" d="M1029.97 82.805c-.71 1.915-1.36 3.652-1.8 5.444-.67 2.749-1.22 5.53-1.76 8.31-.08.427.21.926.32 1.389.29-.454.71-.871.85-1.37.49-1.783 1.11-3.57 1.27-5.394.19-2.114.76-4.065 1.49-6.02.18-.494.07-1.098.12-1.932-.1-.381-.21-.477-.49-.427Zm-14.28 43.953c-2.71 2.263-5.38 4.79-8.05 7.557.78-.072 1.77-.176 2.33-.721 2.09-2.032 4.79-3.561 5.72-6.836Z"/><path fill="#5E5C54" d="M1019.67 120.857c2.33-1.978 2.59-5.09 3.37-7.997.06-.232-.19-.545-.29-.817-.19.254-.44.485-.54.767-.89 2.563-1.75 5.135-2.54 8.047Z"/><path fill="#254147" d="M975.5 150.389c2.877.644 5.413-.513 7.909-2.25-2.564.521-5.186 1.279-7.909 2.25Zm8.032-2.673c2.282.49 4.129-.621 5.917-2.259-1.906.531-3.866 1.288-5.917 2.259Zm22.718-11.593c-1.8-.377-2.92.78-4 2.209 1.33-.495 2.66-1.234 4-2.209Zm-6.655 4.037c-1.384.472-2.732 1.202-4.057 2.187 1.38-.472 2.736-1.202 4.057-2.187Z"/><path fill="#5E5C54" d="M1019.62 121.084c-1.89.449-1.86 2.309-2.63 3.833 2.04-.054 1.87-2.028 2.73-3.475.02-.24-.06-.317-.1-.358Z"/><path fill="#202844" d="M971.507 151.028c1.257 1.896 2.482.49 3.839-.222-1.18-.145-2.442-.068-3.839.222Z"/><path fill="#254147" d="M989.585 145.045c1.057.191 2.323.549 3.199-.93-.99.086-2.042.404-3.199.93Zm9.996-5.126c.959-.055 2.079.404 2.659-1.102.02-.245.01-.25.01-.255-.84.3-1.68.604-2.605 1.121-.082.218-.073.231-.064.236Zm-6.743 3.728c.494.259 1.003.268 1.77.286.453-.313.658-.635.907-1.143.045-.186.036-.2.032-.209-.967.068-2.097-.426-2.709 1.066Z"/><path fill="#373C53" d="M1029.85 82.737c-.04.218.29.21.46.214.59-.513 1.02-1.026 1.4-1.81-1.35-.495-1.25.803-1.86 1.596Z"/><path fill="#254147" d="M1017 125.158c-.44.286-.88.585-1.34 1.107-.02.227 0 .245.02.259.45-.286.89-.586 1.33-1.116 0-.236-.01-.241-.01-.25Z"/><path fill="#373C53" d="M1033.08 79.816c-.47.032-.93.313-1.4.817-.01.222.05.281.08.308.47-.267.9-.571 1.32-1.125Z"/><path fill="#254147" d="M1007.61 134.547c-.46.29-.92.576-1.36 1.098.02.231.02.24.02.245.47-.291.93-.581 1.36-1.107-.01-.232-.02-.236-.02-.236Z"/><path fill="#373C53" d="M1033.1 79.602c.39-.109.77-.227 1.16-.345-.35-.032-.71-.063-1.12.114-.07.2-.05.222-.04.231Z"/><path fill="#254147" d="M1022.33 27.005c-.49.166-.69.237-.89.337-.7.371-1.41.746-2.11 1.121.9.033 1.79.067 2.94.036 2.04-.742 3.83-1.426 5.71-2.334-.19-.747-.63-.458-1.22-.522-1.51.375-2.82.827-4.43 1.362Z"/><path fill="#254147" d="M1026.85 25.476c.07.224.43.363 1 .476a43.2 43.2 0 0 0 3.2-1.309c.17-.08.28-.312.41-.469-.21-.023-.45-.109-.63-.05-1.23.4-2.46.838-3.98 1.352Zm11.6-4.471c.19.182.5.136.56-.004.24-.649.42-1.32.58-1.996.01-.037-.34-.164-.52-.245-.21.662-.42 1.32-.62 2.245Zm0 .277c-.16.096-.33.191-.49.286.14.005.28.005.45-.14.04-.15.04-.15.04-.146Z"/><path fill="#254147" fill-rule="evenodd" d="M1034.48 79.38c0-.376-.3-.68-.68-.68-1.27 0-3.74.962-4.73 4.344-.58 1.954-1.83 7.427-3.1 12.997-.05.184-.09.367-.13.55-1.24 5.417-2.48 10.834-3.13 13.231-.18.676-.36 1.363-.54 2.058-1.18 4.512-2.44 9.337-5.68 13.343-3.78 4.665-13.22 11.871-21.8 16.384l-.563.296c-4.168 2.194-8.736 4.598-12.73 6.406-2.087.945-4 1.718-5.606 2.213-1.637.504-2.843.682-3.573.545-2.861-.536-6.277-1.569-7.625-2.018a.68.68 0 1 0-.43 1.291c1.375.458 4.857 1.512 7.804 2.064 1.085.204 2.573-.073 4.225-.582 1.685-.519 3.657-1.319 5.767-2.273 4.032-1.825 8.632-4.246 12.789-6.434l.576-.304c8.666-4.56 18.286-11.87 22.216-16.732 3.45-4.253 4.78-9.392 5.95-13.888.18-.687.36-1.36.53-2.011.67-2.425 1.91-7.86 3.14-13.247.04-.197.09-.393.13-.589 1.28-5.6 2.52-11.014 3.08-12.916.82-2.788 2.75-3.368 3.43-3.368.38 0 .68-.305.68-.68Z" clip-rule="evenodd"/></svg>
