<svg xmlns="http://www.w3.org/2000/svg" width="1690" height="1651" fill="none"><path fill="#111F22" fill-rule="evenodd" d="M1230.42 6.378c-17.6.337-35.93.674-40.75.75l-8.75.137v31.306l32.25-.664c17.74-.365 39.4-.953 48.14-1.306l15.9-.644-.69-13.884c-.88-17.673-.42-16.734-7.93-16.5-3.39.105-20.57.468-38.17.805ZM498.999 41.286c-38.27 8.083-54.106 28.928-52.699 69.366.761 21.869.545 22.702-9.022 34.797-18.283 23.115-16.643 44.985 4.82 64.282 8.659 7.786 15.449 10.391 43.02 16.503 13.124 2.909 24.642 8.74 39.806 20.15 21.141 15.907 39.446 21.425 47.788 14.406 3.997-3.363 3.896-3.642 5.105 13.975 2.605 37.954 29.228 57.477 62.454 45.8l5.847-2.055-.725 18.877-.724 18.878h55.255v-12h-5.29c-14.154 0-28.718-6.775-40.893-19.023l-8.683-8.735-6.546-.417c-15.991-1.019-26.553-16.692-19.949-29.604 7.059-13.804 22.361-16.019 36.085-5.224 3.581 2.818 4.671 1.205 2.399-3.551-7.558-15.817-2.878-41.877 7.63-42.49.411-.024 2.772-.444 5.247-.934 3.014-.597 9.618-.383 20 .65 50.364 5.007 82.103-11.747 83.808-44.24 1.566-29.835-21.519-43.081-64.308-36.898-28.421 4.106-33.192 2.205-38.998-15.534-9.744-29.771-22.66-38.35-61.502-40.856-23.943-1.544-27.464-3.57-45.636-26.265-20.238-25.273-40.795-34.82-64.289-29.858ZM728.997 257.9c-3.732 4.744-2.011 16.722 2.77 19.281 7.51 4.019 11.526-13.405 4.669-20.261-2.39-2.39-5.065-2.038-7.439.98Zm-32.958 2.945c-2.557 3.252-2.906 11.99-.652 16.348 4.302 8.32 12.05 3.006 11.257-7.719-.691-9.344-6.393-13.983-10.605-8.629Zm27.385 38.926c-7.113 2.523-9.511 8.705-6.006 15.483 5.246 10.144 18.055 6.837 21.525-5.558 2.662-9.506-4.245-13.923-15.519-9.925Zm11.566 2.529c6.563 3.513-3.954 18.911-10.94 16.017-5.319-2.203-7.906-10.131-4.355-13.344 3.799-3.438 11.387-4.764 15.295-2.673Zm545.93 585.156c-.02 52.429-6.59 93.597-17.54 109.869-4.11 6.105-3.26 6.825 6.16 5.215 38.5-6.597 49.1-75.728 18.7-121.991-7.51-11.432-7.32-11.617-7.32 6.907ZM729.864 1025.95c-7.393 19.59-43.776 94.32-62.961 129.32-18.414 33.58-48.267 84.55-57.989 99-6.976 10.36-7.988 14-3.9 14 1.281 0 3.367-2.26 6.246-6.75 56.743-88.6 132.507-236.56 121.905-238.07-1.682-.24-2.502.38-3.301 2.5Zm-577.94 481.97c-10.724 8.61-12.352 10.02-30.68 26.6-23.168 20.97-21.681 26.23 25.266 89.43 6.368 8.57 11.815 16.2 12.103 16.95.443 1.15-22.592 1.37-146.613 1.37-16.48 0-11.617-.15-7.213 4.26 1.197 1.2 1679.633 2.35 1683.393 1.15 1.21-.38 1.75-1.34 1.55-2.75l-.31-2.16-650-.26-219.996-.25-.018-9.75c-.036-19.03-10.085-31.68-29.482-37.09-4.746-1.33-19.932-1.59-110.808-1.89l-105.307-.36.641 16.3c.707 17.97 2.131 24.93 5.942 29 1.393 1.49 2.532 2.95 2.532 3.25 0 .3-73.79.55-163.978.55H254.967l-11.597-17.75c-25.743-39.4-76.814-117.96-78.667-121-2.537-4.18-1.749-4.45-12.779 4.4Z" clip-rule="evenodd"/><path fill="#D8E5E7" fill-rule="evenodd" d="M1277.92 34.617c0 2.759-4.76 3.077-64.22 4.284l-32.73.665-.27 18.599-.28 18.6-55.13.258-55.13.259-.6-2.26c-.34-1.241-.62-9.047-.62-17.346l-.02-15.09-88.246-.054c-48.537-.03-113.512-.384-144.387-.787l-56.137-.733-.754 17.876c-.723 17.146-.004 135.448 1.051 172.877.279 9.9.95 39.6 1.491 66 .541 26.4 1.203 53.175 1.471 59.5.268 6.325.742 21.85 1.054 34.5.482 19.582 1.696 48.376 3.961 94 .587 11.826 3.327 96.958 4.311 133.918l.689 25.919 3 .89c23.602 7 31.598 13.117 34.019 26.024.678 3.614.775 3.678 8.006 5.287 43.946 9.777 41.597 50.824-3.915 68.42l-8.46 3.27-1.683 7.636c-5.536 25.115-17.519 51.112-27.386 59.414-2.569 2.162-2.876 3.149-3.515 11.296-2.218 28.299-6.657 58.973-8.84 61.093-6.036 5.861-80.901 14.289-127.236 14.323l-13.011.01-2.845 43.75c-1.565 24.063-3.077 46.028-3.36 48.812l-.515 5.063 123.87-.06c114.145-.06 219.317.76 247.367 1.93 6.33.26 29.95.75 52.5 1.09 22.55.33 54.95.95 72 1.38 64.95 1.63 119.6.18 124.55-3.29 14.14-9.902 20.21-44.639 22.39-128.175 2.48-95.085 2.58-759 .12-772.288-.52-2.764-2.06-61.355-1.72-65.462.16-2.062.04-3.75-.27-3.75s-.57 1.059-.57 2.352ZM175.244 1649.01c14.752.16 38.602.16 53 0 14.399-.15 2.33-.28-26.82-.28s-40.931.13-26.18.28Zm457.007 0c34.006.15 89.356.15 123 0 33.645-.14 5.823-.26-61.827-.26s-95.178.12-61.173.26Z" clip-rule="evenodd"/><path fill="#254147" fill-rule="evenodd" d="M875.357 161.272c-5.424 2.211-6.904 9.107-2.944 13.711l2.414 2.806h112.559c111.294 0 112.584-.023 114.564-2.003 3.59-3.588 3.67-7.771.23-11.62l-3.02-3.377-110.828-.196c-61.439-.108-111.787.194-112.975.679Zm261.563 1.94c-6.84 6.846.2 17.747 10.07 15.579 10.84-2.381 8.23-18.502-2.99-18.502-3.26 0-4.78.631-7.08 2.923Zm-264.465 61.532c-1.695 1.694-2.455 3.566-2.455 6.045s.76 4.351 2.455 6.045l2.454 2.455 106.796.183c58.735.1 113.475.213 121.635.25l14.83.067 2.42-2.806c3.82-4.446 2.68-11.338-2.25-13.584-1.74-.794-36.75-1.11-122.933-1.11H874.909l-2.454 2.455Zm2.433 57.028c-5.445 2.993-6.028 10.688-1.104 14.562 2.492 1.96 3.755 2.005 48.475 1.734l45.915-.279 2.413-2.806c3.084-3.586 3.084-7.802 0-11.388l-2.413-2.806-45.337-.226c-37.828-.189-45.77.012-47.949 1.209Zm1.612 99.233c-6.331 1.531-8.478 8.873-4.087 13.978l2.414 2.806 128.693.261c87.37.178 129.93-.075 132.57-.787 7.94-2.136 8.82-12.444 1.33-15.571-3.29-1.375-255.333-2.039-260.92-.687Zm-1.197 57.481c-6.796 3.283-5.77 13.72 1.558 15.844 2.49.722 42.878.961 127.979.757l124.33-.298 2.42-2.806c3.33-3.88 3.15-8.107-.51-11.771l-2.93-2.923-125.32.068c-86.229.046-126.016.399-127.527 1.129Zm.054 92.786c-5.424 2.211-6.904 9.107-2.944 13.711l2.414 2.806h112.559c111.294 0 112.584-.023 114.564-2.003 3.59-3.588 3.67-7.771.23-11.62l-3.02-3.377-110.828-.196c-61.439-.108-111.787.194-112.975.679Zm261.563 1.94c-6.84 6.846.2 17.747 10.07 15.579 10.84-2.381 8.23-18.502-2.99-18.502-3.26 0-4.78.631-7.08 2.923Zm-264.465 61.532c-1.695 1.694-2.455 3.566-2.455 6.045s.76 4.351 2.455 6.045l2.454 2.455 106.796.183c58.735.1 113.475.213 121.635.25l14.83.067 2.42-2.806c3.82-4.446 2.68-11.338-2.25-13.584-1.74-.794-36.75-1.11-122.933-1.11H874.909l-2.454 2.455Zm2.433 57.028c-5.445 2.993-6.028 10.688-1.104 14.562 2.492 1.96 3.755 2.005 48.475 1.734l45.915-.279 2.413-2.806c3.084-3.586 3.084-7.802 0-11.388l-2.413-2.806-45.337-.226c-37.828-.189-45.77.012-47.949 1.209Zm1.612 99.233c-6.331 1.531-8.478 8.873-4.087 13.978l2.414 2.806 128.693.261c87.37.178 129.93-.075 132.57-.787 7.94-2.136 8.82-12.444 1.33-15.571-3.29-1.375-255.333-2.039-260.92-.687Zm-1.197 57.481c-6.796 3.283-5.77 13.72 1.558 15.844 2.49.722 42.878.961 127.979.757l124.33-.298 2.42-2.806c3.33-3.88 3.15-8.107-.51-11.771l-2.93-2.923-125.32.068c-86.229.046-126.016.399-127.527 1.129Z" clip-rule="evenodd"/><path fill="#AAC2B6" fill-rule="evenodd" d="M1071.67 1649.02c32.04.14 84.47.14 116.5 0 32.04-.15 5.83-.27-58.25-.27-64.07 0-90.28.12-58.25.27Z" clip-rule="evenodd"/><path fill="#30555C" fill-rule="evenodd" d="M495.444 915.016c-16.536 40.885-57.195 106.394-107.529 173.254-9.079 12.06-18.398 24.76-21.268 29-.932 1.37-6.853 9.7-13.157 18.5-35.725 49.86-65.742 97.81-95.588 152.68-3.892 7.16-20.895 41.76-23.704 48.24-6.845 15.79-14.44 34.1-14.76 35.58-.18.82-.618 2.64-.975 4.03-2.59 10.13 90.435 85.8 138.221 112.44l10.26 5.72 7.632-4.76c51.206-31.91 121.933-95.66 174.683-157.44l3.836-4.49-.581 8.5-1.709 25c-1.411 20.6-.561 65.07 1.566 81.91 1.91 15.12 6.296 37.22 7.657 38.59 8.578 8.61 228.342-.12 233.141-9.27 44.899-85.55 80.804-224.85 90.786-352.22 2.233-28.49 2.957-110.65 1.047-118.85-.043-.18-55.918-.18-124.168 0l-124.09.34.6-6.004c.329-3.3 1.709-23.325 3.065-44.5 1.356-21.175 2.681-40.638 2.943-43.25l.478-4.75H500.196l-4.752 11.75Zm240.753 109.314c2.611 4.16-44.819 101.45-77.976 159.94-31.618 55.77-51.13 86.22-54.061 84.37-3.193-2.01-2.379-3.94 10.093-23.96 42.782-68.66 92.693-163.53 115.079-218.74 1.661-4.09 4.844-4.84 6.865-1.61Z" clip-rule="evenodd"/><path fill="#E5C48B" fill-rule="evenodd" d="M1179.92 74.59c0 1.52-4.57 1.68-55.25 1.924l-55.25.267 55.28.242c56.78.248 59.4.085 55.85-3.469-.35-.343-.63.123-.63 1.035Z" clip-rule="evenodd"/><path fill="#F1EEE5" fill-rule="evenodd" d="M1069.92 39.265v37h109.84l.62-2.79c.33-1.533.37-17.227.08-34.874-.3-17.648-.54-33.043-.54-34.211V2.265h-110v37ZM644.798 371.302c-21.452 2.505-38.64 11.293-50.129 25.63-8.727 10.889-8.679 10.472-1.724 14.765 23.16 14.295 33.602 48.321 35.007 114.068 1.153 54.002 3.753 63.498 33.362 121.849 57.889 114.083 6.085 212.555-89.722 170.547-5.042-2.211-9.73-4.266-10.418-4.565-.8-.349-1.252.304-1.255 1.812-.021 11.092-4.965 74.929-6.553 84.607l-.533 3.25 38.796-.007c98.405-.019 184.348-6.646 192.55-14.848 1.831-1.831 6.7-36.428 8.323-59.145l.679-9.5 4.686-5c13.497-14.403 25.232-46.337 31.236-85 2.18-14.035 3.594-51.798 2.016-53.849-.486-.633-1.464-3.293-2.173-5.911-2.588-9.565-12.891-17.527-27.522-21.267-3.85-.984-7.314-2.056-7.697-2.381-.907-.771-1.623-14.028-2.326-43.092-.312-12.925-.981-35.65-1.486-50.5-.505-14.85-1.189-36-1.521-47-1.032-34.235-14.544-67.955-41.875-104.5-3.267-4.367-5.376-8.114-5.049-8.97.308-.808.317-1.226.02-.93-.296.297-2.907-1.742-5.802-4.53-14.492-13.958-50.984-20.194-90.89-15.533Z" clip-rule="evenodd"/><path fill="#433428" fill-rule="evenodd" d="M616.939 1486.52c.009 1.78.346 2.75.75 2.14.726-1.09 34.853-4.18 52.235-4.72 4.675-.15-5.338-.36-22.25-.47l-30.75-.2.015 3.25Z" clip-rule="evenodd"/><path fill="#C87A5A" fill-rule="evenodd" d="M741.527 229.907c-12.82 5.46-27.713 3.422-53.103.813-33.371-3.43-45.811 17.976-31.487 46.072 2.631 5.161.144 7.724-3.934 4.053-7.244-6.52-19.296-8.4-26.561-4.142-18.736 10.98-9.586 39.371 13.145 39.912 5.928.141 6.478.354 8.191 3.17 20.699 34.039 77 32.89 100.925-2.881 14.548-21.75 14.788-69.322.461-87.324l-1.74-2.185-5.897 2.512Zm-6.142 24.982c2.409.925 5.539 7.756 5.537 12.087-.004 9.744-7.476 14.549-12.39 7.967-5.862-7.852-.702-22.953 6.853-20.054Zm-31.11 5.382c4.647 5.523 4.43 16.168-.419 20.556-4.597 4.161-10.932-2.704-10.932-11.845 0-10.374 6.047-15.015 11.351-8.711Zm32.928 39.145c5.851 3.131 2.285 17.438-5.326 21.374-12.376 6.4-23.894-12.436-12.265-20.056 5.167-3.385 12.678-3.948 17.591-1.318Zm-93.279 64.6-.001 6.75h55.999l.001-6.75.001-7.75h-56v7.75ZM831.32 696.52c-.096 17.663-2.325 39.537-5.058 49.642-.895 3.308 2.194 2.52 15.33-3.913 37.899-18.563 37.275-53.658-1.128-63.461-9.827-2.509-9.026-4.061-9.144 17.732Zm-579.425 758.72c-6.859 10.43-13.146 19.16-13.971 19.38-1.064.29-.964.45.347.53 9.546.6 45.396 35.75 45.716 44.82.052 1.46.227 1.39.945-.39.485-1.21 7.637-11.66 15.893-23.24 14.545-20.4 14.942-21.09 12.805-22.23-6.664-3.55-40.162-29.44-45.64-35.27-3.329-3.55-2.281-4.62-16.095 16.4Zm417.529 37.17c-6.785 1.61-39.211 6.03-52.019 7.09-2.079.17-2.257.91-3.461 14.42-1.031 11.58-1.574 14.34-2.895 14.72-.894.27-.03.26 1.92-.02 6.842-.97 46.298 4.94 56.955 8.53 2.156.72 2.519.53 2.637-1.4.075-1.23 1.15-11.03 2.39-21.78 2.782-24.12 2.927-23.56-5.527-21.56Z" clip-rule="evenodd"/><path fill="#7C8C01" fill-rule="evenodd" d="M741.924 393.97a12497.1 12497.1 0 0 0 9.631 13.451c13.731 19.158 25 41.472 32.999 65.344l2.345 7-.573-17-.573-17-4.99-9.417c-7.525-14.198-12.247-20.691-22.244-30.583-8.822-8.73-20.139-16.774-16.595-11.795Zm-172.28 15.8c-57.765 14.61-178.477 166.173-171.809 215.719 4.519 33.582 34.424 76.525 91.821 131.852l10.232 9.863-7.549 28.78c-14.202 54.147-26.478 103.551-25.88 104.15 1.046 1.045 25.987 1.945 56.578 2.039l29.613.092 1.152-10.25c1.703-15.159 3.951-45.173 4.662-62.25.343-8.25.785-15.528.981-16.173.232-.763 3.821.38 10.258 3.267 63.691 28.562 116.474-8.173 116.524-81.094.02-30.22-6.304-51.218-28.314-94-25.33-49.236-30.239-67.186-30.082-110 .311-84.773-21.828-131.19-58.187-121.995ZM205.768 1471.6c-9.554 3.56-42.651 25.85-42.141 28.38.112.55 8.387 13.56 18.389 28.89 10.002 15.34 20.965 32.17 24.361 37.39 3.397 5.23 15.753 24.24 27.459 42.25l21.283 32.75h37.627l2.749-3.25c15.259-18.04 10.689-72-9.671-114.18-1.045-2.17-1.9-4.27-1.9-4.68 0-20.46-57.31-55.33-78.156-47.55Zm403.332 57.69c-21.988 4.57-34.898 26.87-35.159 60.72l-.017 2.25h199v-2.15c0-10.74-16.686-27.39-34.405-34.33-31.983-12.52-114.953-29.5-129.419-26.49Z" clip-rule="evenodd"/><path fill="#9F5B43" fill-rule="evenodd" d="M266.599 1432.82c-1.509 3.16-1.495 3.2 2.654 7.15 9.263 8.81 42.649 34.29 44.935 34.29.47 0 .576.45.236 1-1.568 2.54.662.59 3.666-3.21 1.834-2.32 2.731-3.84 1.994-3.38-2.246 1.38-32.665-20.82-46.814-34.17l-5.154-4.86-1.517 3.18Zm409.241 51.86c-.579.58-33.098 5.09-47.321 6.57-8.846.92-11.061.88-11.734-.18-.503-.79-.836.73-.846 3.85-.013 4.41.24 5.1 1.735 4.74.962-.22 7.6-1.07 14.75-1.87 15.815-1.78 31.354-4.04 37.822-5.49 2.645-.59 5.192-.84 5.662-.55 1.196.74 2.422-5.48 1.3-6.6-.504-.51-1.12-.72-1.368-.47Z" clip-rule="evenodd"/><path fill="#8E3129" fill-rule="evenodd" d="M269.091 1430.15c1.746 4.64 48.704 40.58 50.576 38.7.414-.41-.145-1.41-1.245-2.21-1.099-.8-2.976-2.31-4.171-3.34-1.196-1.04-3.446-2.69-5-3.67-3.426-2.15-21.545-15.91-29.827-22.64-3.3-2.69-6.793-5.52-7.761-6.31-2.004-1.61-3.062-1.83-2.572-.53Zm370.833 55.65c-7.425.71-15.382 1.32-17.683 1.37-3.88.09-6.858 2.89-5.021 4.72.925.93 57.419-6.01 58.603-7.19.873-.88-22.768-.15-35.899 1.1Zm-8.674 107.21c26.304.15 69.054.15 95 0 25.946-.15 4.424-.27-47.826-.27s-73.478.12-47.174.27Z" clip-rule="evenodd"/><path fill="#fff" fill-rule="evenodd" d="M1069.92 1.265c-.97.632 18.07.975 54.75.985 55.58.015 56.25.04 56.25 2.015 0 1.883.6 1.988 10.25 1.792l10.25-.207-9.29-.33c-7.67-.273-9.41-.63-9.93-2.043-.35-.942-1.11-2.043-1.7-2.447-1.66-1.13-108.81-.903-110.58.235ZM778.959 42.2c-.685 1.28-1.035 25.286-1.035 70.941 0 44.926-.349 69.223-1 69.625-.55.34-1-.254-1-1.319 0-2.026-2.703-9.181-3.469-9.181-.243 0 .251 1.913 1.097 4.25 1.713 4.728 2.192 14.212 1.014 20.098-.528 2.64-.435 3.642.294 3.191.585-.361 1.1-1.868 1.143-3.348l.079-2.691.914 2.5c.503 1.375 1.325 9.025 1.826 17 .604 9.611.73-10.955.374-61-.296-41.525-.205-83.487.202-93.248l.741-17.748 87.142.391c53.818.241 75.862.103 57.643-.36-67.388-1.72-144.819-1.242-145.965.9Zm503.411 413.066c-.04 208.315.16 274.234.6 199 .84-142.369.89-474.497.07-495-.34-8.525-.64 124.675-.67 296Zm-501.853-184.5c.397 59.918 2.078 118.573 3.436 119.92.783.776.955.658.613-.42-.262-.825-.731-12.3-1.042-25.5-.311-13.2-1.039-44.25-1.617-69-.578-24.75-1.192-50.175-1.363-56.5-.172-6.325-.184 7.85-.027 31.5Zm-57.248 32.951c-3.808 1.657-4.953 4.668-3.295 8.67 3.522 8.503 13.644 5.359 15.556-4.832.995-5.307-4.751-7.106-12.261-3.838Zm246.655 699.524c15.239.81 83.636 1.32 82.916.62-.23-.23-22.24-.63-48.92-.9-28.165-.29-42.418-.17-33.996.28Zm92.996 1.12c0 1.06 32.55 1.91 64.41 1.69 33.07-.23 29.31-.44-28.16-1.57-19.94-.39-36.25-.45-36.25-.12Zm-757.917 616.13c-.134 2.91-5.01 13.07-8.172 17.03l-3.001 3.75 142.797-.25 142.797-.25-141.831-.25-141.832-.26 2.862-3.75c4.169-5.46 7.88-14.2 6.98-16.44-.34-.85-.549-.71-.6.42Zm-301.424 21.6c-2.107 2.33-2.105 4.56.006 6.3 1.52 1.26 1.542 1.19.257-.88-3.822-6.13-14.271-5.69 147.691-6.25l6.891-.5-6.595-.25c-140.921-.24-146.66-.17-148.25 1.58Zm878.345-1.08c162.906.67 378.686.68 377.656.02-.64-.4-99.93-.63-220.66-.51-120.721.13-191.371.35-156.996.49Zm-796.672 9.01c40.606.14-33.244.14 7 0 40.245-.15 147.022-.27 66.172-.27s-113.777.12-73.172.27Zm289.922 0c37.813.14 99.688.14 137.5 0 37.813-.15 6.875-.27-68.75-.27s-106.562.12-68.75.27Zm546 0c60.913.14 160.586.14 221.496 0 60.92-.15 11.08-.26-110.75-.26-121.821 0-171.658.11-110.746.26Z" clip-rule="evenodd"/><path fill="#5C7A7D" fill-rule="evenodd" d="M1293.41 575.707c-33.35 10.641-68.8 74.429-55.57 99.98 15.57 30.054 46.63 8.275 64.73-45.379 3.52-10.425 9.83-25.313 14.03-33.084 12.07-22.355 3.72-30.105-23.19-21.517Z" clip-rule="evenodd"/><path fill="#37484A" fill-rule="evenodd" d="M1270.3 554.682c-8.32 1.508-17.04 2.937-19.39 3.176-2.34.238-4.25.889-4.25 1.448 0 .559-2.52 2.129-5.61 3.492-30.61 13.522-63.39 71.833-67.91 120.818-6.53 70.62 13.98 115.881 90.68 200.11 62.29 68.405 71.64 83.945 71.69 119.214.06 38.18-12.67 56.99-51.72 76.39-117.28 58.27-29.59 200.7 101.86 165.42 110.16-29.57 114.6-163.13 5.98-179.87-20.05-3.09-18.67-1.85-16.96-15.28.84-6.5 1.43-26.26 1.32-43.9-.16-28.346-1.21-44.312-5.7-87.082l-1.16-11.059 27.41.608c64.8 1.434 85.66-35.096 85.46-149.703-.26-152.102-78.95-227.845-211.7-203.782Zm45.14 19.681c9.26 3.514 9.47 7.896 1.12 23.355-4.19 7.753-10.49 22.606-14 33.007-15.95 47.261-34.49 65.186-55.96 54.102-38.68-19.961 27.5-126.151 68.84-110.464Z" clip-rule="evenodd"/><path fill="#111F22" fill-rule="evenodd" d="M1352.09 524.119c-34.98 4.212-64.88 12.247-86.35 23.202-20.26 10.335-19.96 11.182 2.59 7.261 135.73-23.614 212.77 49.995 213.03 203.544.2 114.698-20.63 151.257-85.35 149.821l-27.37-.608 1.16 11.068c4.48 42.804 5.53 58.783 5.69 87.153.11 17.66-.48 37.43-1.31 43.93-1.72 13.44-3.1 12.2 16.93 15.29 91.43 14.13 107.96 127.38 24.57 168.36-120.26 59.11-236.96-38.42-159.97-133.68l9.58-11.86-8.06 4.1c-99.42 50.47-74.85 174.2 39.15 197.16 3.11.63 8.21 1.64 11.33 2.26 17.8 3.5 151.93 2.53 169.37-1.24 114.02-24.61 133.83-151.12 31.78-203.02-60.83-30.93-78.22-97.478-36.98-141.483 1.11-1.182 8.53-10.226 16.49-20.094 7.96-9.869 27.38-31.968 43.16-49.109 64.51-70.092 83.4-108.761 83.47-170.934.15-125.015-108.33-199.742-262.91-181.121Z" clip-rule="evenodd"/><path fill="#30555C" fill-rule="evenodd" d="M1122.32 1532.92c.18 57 .39 104.7.47 106 .12 1.88 52.81 2.37 256.68 2.37H1636v-212h-514l.32 103.63Z" clip-rule="evenodd"/><path fill="#E1FF01" fill-rule="evenodd" d="M1247.94 817.782c-13.07 7.104-16.94 25.495-7.1 33.775 8.94 7.529 19.29 6.83 27.48-1.854 16.36-17.347 0-42.986-20.38-31.921Zm-25.79 170.899c-13.13 8.006-16.61 27.159-7.41 40.779 15.61 23.1 52.39 12.35 52.39-15.33 0-22.552-25.79-37.147-44.98-25.449Zm27.19 305.859c-78.7.63-69.22-8.81-68.6 68.26l.5 61.53 196.85.48 196.86.48v-61.38c0-77.75 7.31-68.92-57.12-68.96-27.26-.02-84.83-.23-127.93-.47-43.1-.25-106.36-.22-140.56.06Z" clip-rule="evenodd"/><path fill="#E1FF01" d="M926.282 975.092c-10.349-7.678-11.207-27.318-1.399-32.053 16.355-7.895 32.72 2.071 31.098 18.941-1.658 17.256-15.731 23.469-29.699 13.112Z"/><path fill="#E1FF01" fill-rule="evenodd" d="M1069 985.289c56.89 0 103-46.115 103-103s-46.11-103-103-103-103 46.115-103 103 46.11 103 103 103Zm61.08-128.064a7.262 7.262 0 0 0 .35-10.265 7.268 7.268 0 0 0-10.27-.351l-64.35 60.104-30.08-36.319c-2.55-3.09-7.13-3.52-10.22-.962a7.26 7.26 0 0 0-.96 10.226l39.91 48.194 75.62-70.627Z" clip-rule="evenodd"/></svg>