<svg xmlns="http://www.w3.org/2000/svg" width="1586.981" height="1410.997" fill="none"><path fill="#485f61" d="M686.052 1273.612c-208.893 0-416.133-.02-623.359.02-19.778 0-39.015-1.19-52.318-16.02-10.013-11.14-10.29-24.43-10.29-37.69C.1 922.242.085 624.56.07 326.88c0-35.016-.19-70.043.06-105.06.233-32.773 19.865-49.272 58.033-49.272 490.567 0 981.148.224 1471.718-.548 29.95-.05 57.19 20.932 57.1 49.186-.94 335.062-.62 670.137-.62 1005.196 0 28.64-16.79 44.38-50.3 46.92-6.06.46-12.22.25-18.31.25-276.68.04-553.356.05-831.698.06zm-67.024 128.69c8.2-18.29 10.76-36.96 16.328-54.85 2.631-8.45 8.917-16.37 8.172-26.6 9.443-6.15 19.602-5.39 29.557-5.39 95.588-.04 191.161-.04 286.748.01 12.236 0 24.442-.2 38.256-1.27 13.741 20.08 19.271 42.22 28.021 63.37 2.69 6.51 4.52 13.3 6.7 21.11-4.56 10.71-14.64 7.84-22.73 7.86-95.373.21-190.756.13-286.124.13-28.286 0-56.557.03-84.829-.02-6.62-.01-13.404.51-20.099-4.35z"/><path fill="#111f22" d="M999.624 1313.022c-1.579 10.11-9.97 6.82-15.729 6.82-112.135.15-224.27.08-338.102.09 2.325-13.5 6.754-26.96 10.19-40.59 2.25-8.9 9.647-7.38 16.664-7.38 76.95 0 153.9.02 230.863.04 22.702 0 45.404.21 68.091-.06 8.464-.1 14.048.35 15.963 9.57 2.178 10.41 7.82 20.29 12.06 31.51z"/><path fill="#050e3d" d="M616.674 1401.032c19.208.31 36.925.82 54.642.83 114.796.07 229.606.04 344.404 0 4.97 0 9.92-.42 15.98-1.34 22.13-.34 43.18.34 64.24.36 83.85.08 167.69-.05 251.54-.09 3.88 0 7.8-.22 11.65.12 5.04.44 13.28-1.57 12.82 5.21-.43 6.03-8.32 4.76-13.66 4.76-106.05.05-212.11.06-318.16.06-244.867-.01-489.734-.02-734.6-.04-1.668 0-3.349.15-4.986-.02-4.532-.49-11.592 2.04-12.177-4.1-.672-7.04 6.607-6.04 12.031-6.05 40.536-.01 81.071 0 121.593.04 64.392.05 128.8.15 194.683.26z"/><path fill="#fcfcfc" d="M1465.47 1168.792c-7 12.32-19.89 11.87-32.6 11.87-178.32-.01-356.65-.01-534.973-.01-214.433 0-428.865.02-643.298.01-5.525 0-11.066-.35-17.424-1.47 1.33-4.77 5.57-5.89 9.881-6.91 62.946-14.88 104.023-49.12 126.198-101.29 16.255-38.25 38.124-74.248 67.316-107.918 1.024-1.42 1.418-1.993 2.471-3.387 1.125-1.345 1.593-1.856 3.581-3.848 2.047-1.943 2.573-2.403 3.903-3.574 2.968-2.553 5.204-4.346 7.982-7.11 14.822-14.793 30.932-27.27 44.307-41.74 7.996-8.641 19.018-17.744 12.557-30.333-6.447-12.564-20.48-16.163-35.39-18.093-76.935-9.974-133.346 18.143-176.747 69.495-43.577 51.577-70.02 110.328-95.515 169.358-4.78 11.07-10.423 21.88-14.179 34.33-5.92 15.18-20.787 23.55-30.435 35.27-4.108 4.99-8.756 9.44-10.16 16.61-30.054.46-39.468-7.37-39.775-32.06-.19-15.61-.088-31.22-.424-48.13-2.909-10.11 5.452-14.09 11.051-18.72 38.738-32.01 72.93-67.24 103.57-105.02 28.168-34.753 50.504-72.121 67.695-111.707 5.643-12.987 3.742-15.926-12.703-17.171-17.103-1.295-34.323-1.594-51.412.61-7.133.92-14.238 2.304-22.16-1.407-5.687-8.953-.6-15.64 4.37-23.423 17.571-18.504 34.82-35.526 58.078-47.554 13.01-6.725 26.692-11.494 41.106-14.806 8.113-1.868 11.884-5.43 13.097-12.49 6.622-38.252 10.613-76.443 6.988-115.306-2.324-24.967-3.333-49.91-12.469-73.891-11.256-29.55-24.354-31.791-48.81-8.667-1.49 1.407-2.836 2.9-4.926 5.267a364.463 364.463 0 0 1-2.997 3.449 94.63 94.63 0 0 0-4.283 5.218c-1.126 1.494-1.579 2.092-2.792 3.549-43.81 52.722-73.25 110.102-95.982 170.295-13.595 36.012-25.509 72.36-34.148 109.479-.658 2.815-1.754 5.467-4.488 8.705-2.31 1.768-3.947 2.14-6.84 1.332-1.273-26.648-1.638-52.673-1.638-78.698.058-144.357.22-288.715.6-434.38 4.706-8.306 12.19-10.784 20.947-11.42 7.762-.56 15.54-.41 23.315-.41 369.998-.012 739.996-.012 1110.005.013 9.43 0 18.9-.486 29.71 1.394 9.35 4.633 8.1 8.518.32 11.294-6.26 2.242-13.13 1.457-19.76 1.557-26.59.386-53.23-1.108-79.72 2.59-9.6 1.345-11.43 4.209-6.22 11.008 9.09 11.867 18.71 23.46 27.51 35.488 5.25 7.173 11.25 14.258 8.83 24.606-2.08 3.15-4.54 4.146-7.12 5.093-21.05 7.67-29.4 17.109-26.55 35.762 4.23 27.619 3.28 55.387 7.6 83.156 13.16 84.164 41.96 162.737 97.58 233.926 46.1 59.01 96.14 115.53 145.75 172.337 9.48 10.859 21.7 20.384 26.14 35.29.44 23.722.22 46.512-1.23 70.042-13.28-3.36-16.06-13.92-22.33-21.85-57.03-72.175-104.61-149.33-160.87-221.925-32.85-42.374-70.81-81.138-114.26-115.93-12.18-9.75-21.39-8.13-27.38 5.443-8.96 20.272-10.98 41.278-7.44 62.796 9.98 60.617 35.71 116.776 66.53 171.515 5.04 8.954 11.02 17.558 15.46 26.698 5.44 11.182 14.01 13.199 26.61 9.426 17.91-5.367 34.5-12.938 51.1-20.571 4.86-2.23 9.18-5.38 16.14-6.151 9.91 1.482 14.18 6.649 16.81 14.37-9.29 27.955-32.11 45.699-58.22 60.469-6.57 3.72-6.17 4.17-2.12 8.79 35.29 40.37 80.97 70.96 128.45 99.9 21.69 13.23 45.17 24.14 66.23 39.56z"/><path fill="#eae7d9" d="M1304.12 338.123c-389.062-.784-776.908-.772-1164.755-.996-8.815 0-15.904 2.216-24.178 5.989-1.579-15.951-2.28-32.002-2.178-48.053.102-14.12 13.726-26.348 35.156-26.311 389.25.56 778.485.41 1169.255.423 1.81.41 119.58-2.175 136.58 4.325 16 52.825 8.38 44.833 18.5 66.5-8.2 7.085-158.38 2.108-168.38-1.877z"/><path fill="#fefefe" d="M1302.61 338.486c8.8-2.042 17.69.735 26.62-4.146 5.6-1.27 8.99 1.295 12.57 3.412 28.98 17.184 57.93 18.616 86.92.025 1.77-1.134 3.76-1.943 7.06-3.064 13.38-1.344 25.77-3.45 35.64 7.447 1.08 20.82 1.51 40.693 1.52 60.555.02 128.742-.07 257.485-.28 387.535-12.1-2.914-9.47-12.54-10.56-20.347-10.3-73.492-33.63-143.187-82.16-206.718-3.24-4.134-5.29-7.683-8.39-11.755-.95-1.27-1.33-1.78-2.85-3.723l-2.81-3.5c-.87-1.144-1.19-1.618-1.98-2.776-.76-1.145-1.07-1.593-2.4-3.312-1.38-1.681-1.73-2.08-2.59-3.1-.8-1.046-1.1-1.47-1.81-2.541-.7-1.058-.98-1.47-2.22-3.063-.97-1.17-1.98-2.291-2.46-2.864s-1.36-1.756-1.78-2.341c-1.01-1.37-1.7-2.092-3.09-3.213-1.46-1.12-2.23-1.818-3.51-3.15-.9-.984-1.27-1.395-2.76-3.001-1.93-2.03-2.69-2.864-3.96-4.396-2.28-3.001-3.93-5.366-6.45-8.268-1.44-1.556-2.32-2.415-3.96-3.872-3.65-3.188-5.98-6.152-8.93-9.825-.96-1.22-1.34-1.706-2.89-3.611a226.943 226.943 0 0 0-2.99-3.537c-1-1.183-1.4-1.656-2.44-2.826-1.55-1.607-2.5-2.503-4.27-4.035-18.59-26.174-45.34-41.677-78.54-51.527.56-12.215-7.56-20.384-14.13-29.026-9.02-11.867-17.87-23.858-27.6-35.277-8.12-9.513-5.98-11.804 7.66-13.124 32.6-3.175 65.21-2.23 97.84-2.553 4.21-.037 9.1 1.096 11.98-4.483z"/><path fill="#a0b501" d="M1224.96 422.314c38.7 4.907 64.17 23.909 83.84 51.353 1.38.897 1.9 1.158 2.82 2.08.42.66 1.08 1.955 1.24 2.652.79 1.457 1.49 2.167 2.89 3.262.66.424.5.523.56.449.51.41.96.884 2.05 2.092 3.67 4.246 6.72 7.745 10.52 11.929 1.27.996 1.78 1.32 2.78 2.328 2.98 3.624 5.47 6.55 8.1 10.385.51 1.918 1.11 2.802 2.72 4.022.76.449.51.51.55.399.5.41.94.934 2.08 2.192 1.5 1.618 2.32 2.478 3.87 3.897.75.548 2.24 1.17 2.59 1.818.6 1.096.86 1.544 1.27 2.74.64 1.232 1.14 1.718 2.31 2.976.67.772 1.14.87 1.08 1.07.44.436.95.673 1.73 1.607.63 1.17.98 1.644 1.47 2.939.69 1.282 1.23 1.73 2.5 2.926.75.734.95.685.98.784.53.486 1.03.872 2.11 1.98.57.722 1.09 2.017 1.22 2.702.77 1.432 1.45 2.142 2.81 3.263.62.448.56.51.6.485.5.399.94.835 1.9 2.005 2.98 3.873 5.47 6.998 8.06 11.07 7.96 16.997 15.62 33.11 27.83 47.28 4.44 5.156 8.01 11.083.42 16.214-7.47 5.055-14.53 2.739-20.46-2.74-3.01-2.777-5.59-5.915-7.56-9.277-19.21-32.587-45.71-61.127-69.42-91.224-6.86-8.692-15.09-16.238-24.03-23.298-2.4-1.893-5.19-4.445-8.57-2.964-2.65 1.158-1.51 4.246-1.42 6.55.15 4.333-.26 8.505-5.17 12.353-13.42-1.146-14.9-11.755-21.77-17.97-6.27-5.677-10.6-18.802-21.47-12.177-9.45 5.753 2.16 14.332 7 20.397 18.65 23.335 37.68 46.446 54.77 70.64 5 7.073 12.85 13.237 11.58 23.56-8.73 7.384-20.01 9.215-29.12 14.382-4.43 2.503-11.11 5.019-7.51 10.585 3.42 5.292 9.68 2.378 14.73.759 10.64-3.412 19.78-10.435 33.32-9.39 10.42 6.402 14.78 14.757 16.49 25.34-4.78 9.926-15.21 13.014-23.64 18.069-4.18 2.503-9.2 5.405-6.68 10.062 3.29 6.1 9.4 2.839 14.34 1.17 8.19-2.777 15.51-7.272 25.48-9.04 10.93 1.93 13.33 8.779 15.54 16.76-8.07 10.734-21.08 15.827-30.09 24.643-3.84 3.773-11.19 7.62-6.21 12.727 5.77 5.902 11.71-.113 17.02-3.026 9.02-4.97 14.8-14.208 28.24-14.681 11.2 8.305 16.17 18.653 19.44 30.769-8.92 14.594-20.19 26.872-28.96 40.469-2.94 4.558-7.77 9.813-1.18 13.735 6.81 4.047 10.86-2.092 14.53-5.952 8.45-8.903 11.12-21.717 26.22-26.436 15.5 17.533 23.03 37.468 32.35 56.583 12.98 26.597 25.47 53.382 39.12 79.73 3.17 6.127 4.28 12.664 7.35 19.849.63 28.117.68 55.3.63 83.74-67.75-75.708-138.12-151.093-196.42-233.701-31.03-43.981-51.6-91.448-64.23-141.842-12.05-48.065-19.17-96.367-21.18-145.416-1.1-27.308 6.08-37.867 34.04-42.637zM118.023 857.989c8.712-28.628 15.54-56.583 24.763-83.953 25.011-74.214 56.981-145.876 111.857-209.37 5.497 3.1 4.824 7.384 3.947 11.593-15.247 72.994-31.663 145.74-53.575 217.576-24.047 78.81-59.715 154.32-88.103 231.887a1025.73 1025.73 0 0 0-13.975 40.83c-1.652 5.17-5.555 13.2 1.915 14.94 7.426 1.74 9.092-7.08 10.876-12.05 9.02-25.33 18.58-50.5 28.505-75.575 1.783-4.483 3.333-9.028 7.543-13.685 15.627-8.978 30.595-16.96 45.14-25.502 3.64-2.13 7.514-4.022 10.408-6.936 2.705-2.715 4.094-5.828 1.272-8.953-2.967-3.288-6.84-2.33-10.48-.785-4.459 1.905-8.333 4.608-12.63 6.749-5.117 2.54-9.868 6.488-17.44 2.976-4.503-8.268.263-14.73 2.91-21.268 9.413-23.211 19.382-46.272 28.11-69.695 1.52-4.096 3.522-7.981 9.18-10.895 29.382-.598 57.156-5.205 85.764-1.146 15.334 2.167 10.086 8.742 7.966 13.735-14.925 35.152-33.007 69.022-56.645 100.7-36.135 48.45-78.338 92.54-127.76 131.61-1.902 1.5-2.75 3.97-4.606 6.87-3.625 1.77-6.958 2.3-9.824 3.59-9.209 4.09-13.463 1.55-13.93-6.94-1.418-25.74-.337-51.3 4.195-76.88 4.02-22.636 5.408-45.611 9.326-68.261 3.918-22.626 4.152-45.787 12.791-68.91-2.134-8.032-2.456-14.806 2.5-22.252z"/><path fill="#7c8c01" d="M1317.17 946.66c-25.58 12.304-49.8 24.669-77.81 30.808-10.82 2.366-14.88.025-19.27-7.185-29.04-47.68-55.53-96.48-71.99-148.305-11.9-37.444-23.68-75.86-8.89-115.407 3.32-8.853 6.92-17.096 17.43-20.496 11.24-3.636 17 4.807 23.44 10.136 66.62 55.039 118.5 119.603 164.97 187.455 36.89 53.893 74.77 107.25 114.77 159.516 3.01 3.92 5.43 8.16 8.94 13.05 6.81 13.54 3.33 26.9 4.05 41.32-8.55 1.78-11.09-4.29-14.53-8.77-49.75-64.88-100.84-128.96-156.16-190.472-42.75-47.53-77.32-98.97-107.26-152.938-3.16-5.703-5.82-16.623-16.11-12.028-8.4 3.76-.19 11.705 2.4 17.557 5.73 12.975 17.67 24.369 13.24 40.607-5.04 5.167-19.32 2.527-14.74 12.302 3.56 7.62 13.24 3.449 20.49 2.142 1.59-.286 3.14-.784 5.96-1.146 12.01 3.749 14.1 12.29 16.62 21.605-1.12 7.247-7.29 10.024-11.89 13.884-3.51 2.939-7.77 6.226-3.62 10.696 3.19 3.425 7.93 2.354 12.15.984 4.1-1.332 7.37-4.022 12.76-5.367 8.42-.323 11.82 4.209 15.12 8.493 20.2 26.286 42.93 51.04 64.14 76.73 3.47 4.196 7.46 8.243 5.79 14.83z"/><path fill="#7c8c01" d="M1467.01 1169.042c-43.61-19.98-83.08-44.43-121.44-70.27-29.09-19.58-54.81-42.02-78.03-66.57-4.56-4.83-8.72-8.33 2.46-13.73 26.18-12.63 45.94-31.292 58.79-55.823 9.64-1.644 12.3 4.42 16.14 8.69 39.66 44.133 74.73 90.923 109.91 137.663 5.88 7.8 15.27 13.94 17.17 24.93-.16 12.12 4.67 23.94-5 35.11z"/><path fill="#a0b501" d="M1269.08 511.868c3.68-6.19 5.04-11.581 2.62-17.346-1.31-3.076-3.56-6.562 1.31-8.617 4.49-1.893 8.77-.461 12.06 2.528 8.33 7.546 18.08 13.909 24.92 22.725 24.99 32.2 53.87 62.236 73.81 97.227 1.2 2.09 3.49 3.723 4.77 5.79 3.96 6.475 9.98 10.01 17.3 5.105 7.99-5.354.22-9.401-3.27-14.046-10.28-13.697-21.43-27.183-22.94-45.388 27.18 29.848 45.48 64.627 60.01 101.012 16.81 42.05 22.56 86.007 31.74 130.137 1.15 19.575 1.24 38.564 1.3 58.874-6.93 1.955-8.01-2.876-9.59-6.612-24.08-57.255-56.63-111.347-85.4-166.86-4.44-8.566-12.59-15.59-14.37-26.273 1.75-7.147 1.59-12.564-8.13-15.266-9.51-8.156-14.76-17.383-18.81-28.254.42-8.393 3.67-16.773-10.47-19.525-11.03-4.31-14.09-13.1-18.88-20.185-12.33-18.267-29.91-33.82-37.98-55.026z"/><path fill="#7c8c01" d="M446.958 959.738c-36.267 41.774-58.954 88.634-82.416 135.204-22.717 45.12-66.089 68.61-119.532 81.13-2.105.48-4.079 1.38-7.397 2.13-19.72-.28-38.504 5.23-57.756-2.76 6.71-18.7 21.898-31.65 41.881-41.96 14.501 3.05 28.11 4.25 41.808 4.83 5.891.25 13.901 1.92 14.822-4.9.877-6.52-7.426-6.97-13.098-8.2-7.952-1.73-16.226-2.31-24.967-5.49-2.719-10.31 4.62-15.25 14.062-19.99a442.196 442.196 0 0 1 45.082 7.55c6.55 1.43 14.721 2.5 16.33-5.05 1.461-6.88-6.52-7.59-12.44-8.72-9.167-1.74-18.712-2.43-27.57-7.97-2.369-3.62-1.887-6.53.482-8.58 14.048-12.18 26.181-26.12 44.98-35.3 11.986-1.56 21.503 3.47 31.838 4.22 6.154.44 14.925 2.88 16.445-4.72 1.418-7.09-6.929-8.41-13.376-9.76-2.66-.56-5.408-.85-9.004-2.29-5.643-6.24-.556-9.33 3.698-12.22 27.321-18.578 55.724-35.973 82.227-55.436 3.83-2.802 8.2-5.081 13.901-1.718z"/><path fill="#050e3d" d="M1338.4 603.303c5.65 10.186 10.87 19.5 17.17 29.25 5.21 3.886 8.32 7.883 10.38 13.424a4182.06 4182.06 0 0 0 33.71 62.672c25.54 46.483 50.27 93.254 72.05 141.99 1.04 16.924 1.09 33.323 1.09 51.092-15.12-18.08-22.6-40.457-33.26-61.588-15.47-30.657-29.22-61.95-47.1-92.88-9.5-4.433-10.01-11.892-12.29-19.612-1.28-12.64-11.58-21.107-16.32-32.364-7.07-5.105-10.77-10.758-11.68-18.591-3.1-6.587-6.39-12.203-10.61-18.354-8.58-4.881-11.12-11.742-13.73-19.7-2-10.272-8.8-17.42-15.14-25.95-8.25-4.11-10.57-10.435-13.11-17.445-19.24-33.808-44.68-63.42-68.9-93.702-3.1-3.873-7.28-7.248-9.59-11.407-2.88-5.18-4.51-11.754 2.56-15.092 5.45-2.565 12.24-3.374 17.22 3.05 8.42 10.822 17.78 21.12 27.67 32.215 18.96 24.867 37 49.16 56.02 73.966 7.98 4.93 10.64 11.568 13.86 19.026z"/><path fill="#111f22" d="M1472.69 1133.532c-31.02-31.82-54.78-69.02-83.44-103.42-18.81-22.58-36-46.168-58.32-67.548-4.01-5.454-6.71-10.734-13.38-14.657-7.12-15.39-20.76-26.162-31.11-38.763-16.69-20.347-33.94-40.37-52.09-60.542-7.21-5.068-11.01-11.282-14.32-18.865-.87-9.377-7.38-15.566-12.61-23.2-7.47-3.697-10.85-9.14-14.55-15.24.95-15.864-10.84-26.884-16.21-39.86-1.09-2.64-2.73-5.105-4.05-7.682-3.37-6.6-4.94-13.648 4.65-16.7 7.78-2.477 12.79 1.745 16.45 8.245 11.62 20.62 24.04 40.93 36.16 61.35 28 47.182 65.78 88.81 102.88 130.774 48.79 55.2 92.43 113.398 139.04 170.968.96 11.63.96 22.76.9 35.14zm-1149.167-89.66c-19.486 10.35-32.145 25.42-47.523 39.21-4.225 7.85-9.589 13.69-18.638 17.87-8.96 3.38-11.665 10.54-17.878 16.14-2.236 8.58-9.852 12.48-16.723 17.88-18.14 10.53-29.06 25.67-43.59 39.19-6.886 7.23-15.438 7.1-25.45 6.67-4.4-5.34-4.679-9.52 1.14-14.73 12.103-10.81 22.774-22.81 34.381-35.24 18.99-24.5 43.46-43.75 65.547-64.77 52.435-49.91 116.623-88.064 178.136-128.857 14.428-9.563 23.71-6.201 27 9.812-2.208 2.565-3.655 4.346-5.906 6.562-1.87.785-2.82 1.308-3.859 2.703-.22.697-.848.236-.556.485-.979.498-1.988 1.059-2.236 2.69.467.697.263 1.096.043 1.195-3.683-1.78-6.43-.361-9.136 1.47-30.712 20.944-61.454 41.86-92.444 63.72-5.044 8.56-13.186 13.05-22.308 18z"/><path fill="#eae7d9" d="M1437.68 337.314c16.39-18.828 22.18-39.947 15.38-64.751 14.65 2.826 20.19 11.854 19.94 24.418-.29 14.494-.12 28.989-.44 44.815-10.46-4.233-21.69-5.404-34.88-4.482zM117.964 857.042c-.204 6.612-3.742 12.912-2.485 20.919-5.277-5.055-1.623-12.066-2.149-19.824 1.462-1.158 2.617-1.133 4.634-1.095z"/><path fill="#7c8c01" d="M460.305 947.645c-7.587-15.204-11.855-16.25-26.298-6.625-60.285 40.109-123.318 77.432-174.832 126.392-22.073 20.99-44.892 41.43-68.457 62.32 4.737-23.6 16.153-45.86 26.503-68.27 19.18-41.55 39.513-82.774 67.77-120.691 25.888-34.716 56.308-65.374 102.867-80.764 37.451-12.39 75.677-16.338 114.108-3.076 19.925 6.886 24.573 18.105 14.998 34.43-13.185 22.464-37.627 36.946-56.659 56.284z"/><path fill="#a0b501" d="M260.826 560.134c-.745-1.357-.935-1.967-.643-2.278 11.022-12.403 19.048-31.293 41.75-26.673 23.023 4.695 22.774 25.739 26.868 41.154 12.556 47.368 9.18 95.596 7.104 143.648-.614 14.158-7.368 27.619-6.798 41.964.147 3.524-3.01 4.657-6.563 5.143-45.638 6.164-77.27 29.885-104.914 60.268-5.306-2.577-5.043-6.425-3.918-10.1 9.43-30.955 18.375-62.01 26.912-93.141.497-1.818 2.061-3.312 4.4-5.541 13.288-6.35 27.263-8.094 39.995-12.776 5.102-1.88 10.204-3.76 15.19-5.815 4.954-2.054 11.708-4.308 9.325-9.962-2.617-6.213-9.356-2.951-14.384-1.718-5.336 1.308-10.189 3.736-15.335 5.492-8.697 2.95-17.176 6.773-27.949 5.279-4.108-13.075-.54-24.568 5.905-36.634 13.098-8.256 28.257-10.97 40.595-18.292 4.78-2.827 13.346-5.317 10.232-11.12-3.669-6.836-11.329-2.69-17.366-.61-8.478 2.926-15.51 9.638-26.707 6.375-2.105-15.191 2.017-28.913 5-42.823 2.338-10.97 6.051-22.774-8.699-31.84z"/><path fill="#111f22" d="M248.664 714.602c-7.353 20.596-13.39 40.706-19.31 60.84-4.488 15.267-8.844 30.559-13.069 46.983-1.345 7.969-8.61 13.274-6.914 21.99-14.107 34.306-28.885 67.354-40.039 102.606-.044 12.066-5.453 21.43-12.557 31.342-14.31 28.069-23.184 56.659-34.06 84.679-2.427 6.23-4.546 12.57-7.207 18.74-2.017 4.7-5.7 8.59-12.25 7.6-6.9-1.03-8.069-5.95-7.528-10.99 1.988-18.44 10.32-35.49 16.665-52.93 25.888-71.144 58.881-140.353 81.978-212.202a1542.351 1542.351 0 0 0 35.96-131.606c8.67-38.266 16.826-76.62 25.45-116.08-.029-1.182.06-1.07 0-1.108 1.637-1.046 1.798-2.69 3.13-4.607.773-.436.817-.71.978-.672 13.142-.486 17.425 4.856 16.591 15.652-1.52 19.687-7.674 38.676-10.729 59.26 3.991 8.803 1.725 15.95-3.538 23.622-7.323 11.443-6.022 23.57-9.838 35.91 1.988 7.859 2.851 14.446-3.713 20.97zm781.456 183.047c14.75-15.541 34.03-15.902 52.07-11.12 11.94 3.163 22.08 11.692 24.23 24.48 2.71 16.126-.57 29.637-17.85 39.125-14.96 8.219-38.65 7.347-52.47-2.552-14.14-10.124-18.8-25.888-11.82-40.345 1.47-3.026 3.26-5.915 5.84-9.588z"/><path fill="#254147" d="M258.62 559.41c.38 1.507-.322 2.989-1.96 4.757-.336-1.42.278-3.101 1.96-4.757zm189.946 400.462c-.672-.647-.628-1.62.38-2.702 1.404.834 1.185 1.68-.38 2.702zm2.266-2.99c-.424-.771.044-1.692 1.447-2.726.44.785-.058 1.68-1.447 2.727zm-67.418-656.376c20.801-7.646 41.851-2.528 62.39-2.38 5.233.039 3.844 5.99 3.771 9.577-.117 5.429-4.137 7.546-9.91 6.998-17.777-1.693-35.64-.25-53.664-2.03-13.215-1.307-29.309 1.333-44.117 2.08-4.415.224-8.844-.012-13.274-.05-6.914-.062-7.996-5.006-8.2-8.791-.22-4.035 1.593-8.791 8.303-8.567 17.951.598 36.15-3.026 54.701 3.163zm-109.899 14.282c-9.896.286-17.878-.374-17.585-9.812.292-9.44 9.21-7.658 16.05-7.858 8.86-.25 17.732.1 26.605-.062 7.294-.137 11.373 1.793 11.154 8.854-.22 6.81-3.962 9.127-11.417 8.915-7.748-.224-15.51-.037-24.807-.037zm-107.998.015c-6.432-.125-11.534.348-16.299-.548-5.774-1.084-7.002-5.342-6.842-9.937.161-4.595 2.983-6.898 8.201-7.011 7.704-.161 15.422-.062 23.141-.261 7.528-.2 14.135 1.905 13.828 8.804-.263 6.238-5.993 9.6-13.93 8.978-2.193-.187-4.415-.025-8.099-.025zm37.597-15.477c10.98-3.4 21.46-1.806 31.84-2.18 7.498-.273 9.866 4.209 9.778 8.854-.088 4.558-2.324 9.14-9.882 8.816-6.578-.286-13.215-.336-19.778.05-13.39.797-16.723-4.421-11.958-15.54z"/><path fill="#fcfcfc" d="M1379.14 727.564c8.84 2.952 6.18 12.179 12.83 17.732-8.23 11.357-16.4 21.817-24.86 32.102-3.77 4.582-7.59 9.987-15.92 5.989-8.35-4.01-8.07-11.132-4.04-15.988 10.7-12.888 17.03-28.316 31.99-39.835zm-27.79-51.464c4.36 5.354 7.72 11.082 11.24 17.756-11.9 4.097-18.78 13.237-28.55 19.077-6.64 3.972-13.56 8.654-20.14 2.204-7.14-6.998-1.04-13.15 5.64-17.856 10.1-7.11 20.52-13.884 31.81-21.181zm-52.77-81.485c7.34 3.76 8.99 10.199 13.15 16.313-11.7 3.91-22.51 9.189-33.53 14.22-6.01 2.752-13.77 5.043-18.83-1.731-5.73-7.658.1-12.078 7.44-15.366 10.07-4.532 20.34-8.766 31.77-13.436zm28.15 44.006c8.38 3.375 10.29 10.547 13.6 18.193-9.26 5.44-18.58 10.235-28.41 14.133-5.9 2.34-13.78 4.122-17.67-1.855-3.6-5.53-2.45-11.456 5.7-15.28 9.04-4.245 17.41-9.488 26.78-15.191zM157.17 979.273c1.126-10.36 4.663-20.26 11.563-30.21 10.905-2.14 17.892-8.752 25.538-13.497 8.522-5.28 14.413-3.897 19.646 1.744 6.315 6.799-.658 11.89-6.037 15.067-16.08 9.5-32.935 18.055-50.71 26.896zM1219.3 829.785c7.66 3.337 11.7 9.514 13.93 17.745-6.78 2.789-10.15 9.762-18.19 9.538-5.3-.15-11.57 1.357-14.15-4.358-2.15-4.745-.82-8.991 4.29-12.253 4.77-3.064 9.24-6.463 14.12-10.672zm-27.51-38.963c10.59.51 9.48 8.804 14.5 14.046-1.98 5.168-7.17 4.545-11.03 5.504-8.82 2.204-19.34 4.969-22.09-6.363-2.84-11.705 7.5-12.427 18.62-13.187z"/><path fill="#eae7d9" d="M1339.16 603.156c-6.17-3.96-10.31-9.875-13.49-17.371 16.37.212 18.6 2.976 13.49 17.37zm27.82 43.096c-6.99-1.72-7.01-7.335-10.05-12.365 10.48-1.183 12.82 3.91 10.05 12.365z"/><path fill="#fcfcfc" d="M257.581 1101.552c4.517-5.8 10.262-11.39 17.074-17.26 10.95 2.9 20.904 5.66 31.648 5.74 9.605.07 17.118 4.14 15.73 12.42-1.272 7.58-9.005 12.29-18.58 9.15-14.516-4.77-30.873-3.03-45.872-10.05zm-34.864 34.41c1.272-8.04 9.794-11.22 15.232-17.6 13.01 1.45 24.94 3.67 36.998 5.08 7.69.9 10.95 5.04 10.584 10.37-.482 6.84-7.265 10-14.296 8.96-15.773-2.33-32.248-.74-48.518-6.81zm101.377-91.39c2.353-8.48 11.621-12.14 20.362-17.51 9.093 1.13 17.425.06 25.1 3.95 6.402 3.24 7.513 7.38 6.826 12.84-.833 6.68-6.607 5.9-12.177 6.51-13.726 1.52-25.537-5.41-40.11-5.79z"/><path fill="#37484a" d="M1437.78 393.338c-37.59 29.362-72.38 28.31-106.47-3.108-16.45-22.813-24.93-45.986-12.06-73.62 22.13-51.642 102.25-61.875 133.58.317 14.37 26.425 8.33 57.47-15.05 76.41z"/><path fill="#eae7d9" d="M1379.34 349.05c-2.51-13.99-14.72-18.983-21.79-28.065-1.63-2.073-4.86-4.246-3-6.65 3.04-3.93 5.83-.043 7.92 1.87 5.56 5.154 10.94 10.523 16.05 16.107 3.6 3.929 7.03 6.635 13.32 2.548 1.96-.274 2.84-.317 3.67.935-4.07 6.693-2.75 10.896 2.23 15.17 5.38 4.606 10.28 9.787 15 15.04 1.79 1.987 6.33 4.347 2.31 7.6-2.32 1.87-4.85-.791-7-2.533-8.33-6.736-13.3-17.2-25.05-20.942-1.91.274-2.86.288-3.66-1.08zm26.77-26.221c.93-7.197 6.06-10.71 9.82-8.118 3.05 2.1-2.63 5.858-6.23 8.88-1.9.519-2.8.547-3.59-.762zm-46.68 45.996c.69-4.117 1.64-6.592 5.79-7.686 1.89-.288 2.76-.331 3.58.907-1.69 3.267-3.35 5.253-5.89 7.613-1.81.432-2.72.46-3.48-.834z"/><path fill="#eae7d9" d="M1361.45 369.372c-.98 3.41-3.04 6.693-6.3 4.088-2.98-2.39.54-3.973 3.42-5.671 1.45.1 1.88.504 2.88 1.583zm11.31-13.7c.6-4.131 1.06-6.937 5.66-7.801 1.49.216 1.94.633 3.01 1.785-1.04 2.605-2.67 4.49-5.2 6.808-1.79.46-2.69.503-3.47-.792z"/><path fill="#eae7d9" d="M1374.78 356.217c-1.07 2.548-2.7 4.419-5.19 6.707-1.29.029-1.72-.345-2.76-1.367-.08-3.44.74-6.016 5.07-6.981 1.43.159 1.87.562 2.88 1.64zm24.63-26.784c.67-4.16 1.35-6.822 5.79-7.714 1.46.187 1.9.576 2.94 1.669-1.05 2.62-2.68 4.549-5.21 6.895-1.82.46-2.74.489-3.52-.85z"/><path fill="#eae7d9" d="M1393.51 335.289c-.06-3.425.9-5.887 5.05-6.98 1.45.172 1.9.575 2.91 1.698-1.06 2.576-2.69 4.433-5.17 6.693-1.29.014-1.74-.375-2.79-1.411z"/><path fill="#fcfcfc" d="M248.723 715.237c-.409-6.4.585-12.651 2.631-19.674 15.174-5.591 29.236-10.56 43.46-15.18 7.353-2.378 16.211-6.437 20.947 2.416 4.941 9.202-3.157 13.735-11.767 16.512-17.805 5.728-35.098 12.688-55.27 15.926zm13.492-57.168c-.088-6.7 1.111-13.71 2.938-21.754 9.941-4.893 19.136-8.816 27.965-13.56 6.36-3.412 15.54-5.392 20.831 1.63 5.54 7.373-.41 11.569-7.982 15.429-13.624 6.974-27.263 13.76-43.752 18.255z"/><path fill="#afafbf" fill-rule="evenodd" d="M660.1 352.076c50.401.222 132.43.222 182.283 0 49.854-.222 8.617-.404-91.638-.404-100.256 0-141.046.182-90.645.404zm477.94 96.838c0 42.608.19 60.258.43 39.22.24-21.036.24-55.898 0-77.47-.23-21.571-.43-4.36-.43 38.25zm-490.209-69.496c44.49.224 117.288.224 161.776 0 44.49-.223 8.09-.407-80.888-.407-88.977 0-125.375.184-80.888.407zm569.1 315.425c-13.8 13.797 2.89 35.167 20.39 26.116 15.89-8.217 9.93-31.281-8.08-31.281-6.1 0-7.9.757-12.31 5.165zm-77.36 125.47c0 57.23.19 80.64.42 52.027.23-28.613.23-75.44 0-104.052-.23-28.614-.42-5.203-.42 52.026zM262 1028.043c29.45.23 77.641.23 107.09 0 29.45-.23 5.354-.42-53.546-.42s-82.994.19-53.545.42zm720.894 0c71.705.22 188.595.22 259.755 0 71.15-.22 12.49-.4-130.38-.4-142.862 0-201.082.18-129.375.4z" clip-rule="evenodd"/><path fill="#37484a" d="M422 184.254c1 235.833 0 713.074 0 736 0 21.606-81 51.5-100.5 56 11.5 25.498 12 29.998 16.5 39.998 241.5 0 782.3 11.5 807.5-.5 25.2-12 31.5-48.998 31.5-85.498l-40.5-765.5z"/><path fill="#d8e5e7" d="M396.5 900.254c0 49-62.667 72.167-76 75.5 241.5 0 759.3 12 784.5 0 25.2-12 31.5-29 31.5-65.5v-746h-740c1 235.833 0 713.074 0 736z"/><path fill="#37484a" fill-rule="evenodd" d="M566.726 259.769c-8.239 3.358-10.487 13.833-4.472 20.827l3.667 4.262h170.98c169.052 0 171.013-.035 174.022-3.042 5.45-5.451 5.578-11.805.355-17.651l-4.584-5.13-168.356-.298c-93.327-.164-169.807.295-171.612 1.032zm397.324 2.947c-10.399 10.399.303 26.958 15.294 23.664 16.463-3.616 12.505-28.105-4.543-28.105-4.949 0-7.267.959-10.75 4.44zm-401.732 93.468c-2.575 2.573-3.729 5.417-3.729 9.182 0 3.766 1.154 6.61 3.73 9.183l3.727 3.729 162.225.278c89.223.152 172.366.324 184.762.38l22.537.102 3.666-4.263c5.808-6.753 4.078-17.222-3.409-20.634-2.648-1.206-55.83-1.686-186.742-1.686H566.046zm3.696 86.627c-8.27 4.546-9.157 16.235-1.677 22.12 3.785 2.977 5.704 3.045 73.635 2.634l69.745-.424 3.666-4.263c4.684-5.447 4.684-11.851 0-17.298l-3.666-4.263-68.867-.343c-57.462-.287-69.526.018-72.836 1.837zm2.45 150.737c-9.618 2.325-12.88 13.478-6.21 21.232l3.667 4.263 195.48.396c132.728.27 197.377-.114 201.392-1.195 12.05-3.245 13.385-18.903 2.017-23.653-4.999-2.09-387.86-3.097-396.347-1.043zm-1.82 87.314c-10.323 4.987-8.764 20.84 2.367 24.068 3.782 1.096 65.133 1.459 194.398 1.15l188.87-.453 3.666-4.262c5.07-5.894 4.791-12.315-.775-17.881l-4.44-4.44-190.374.103c-130.979.07-191.416.607-193.712 1.715z" clip-rule="evenodd"/><path fill="#cde801" fill-rule="evenodd" d="M638.596 1.686c-20.862 6.574-31.062 32.386-20.33 51.446 15.705 27.898 58.328 23.174 66.571-7.378 7.368-27.32-19.16-52.603-46.24-44.068zm444.654 37.66c-14.24 6.439-16.09 25.527-3.38 34.843 8.12 5.948 23.2 2.42 27.82-6.505 8.87-17.155-7.41-36.037-24.44-28.338zM262.306 175.182c-44.267 12.558-49.335 75.516-7.65 95.063 29.764 13.96 66.603-5.353 71.314-37.386 5.416-36.842-28.57-67.631-63.664-57.677zm979.764 64.964c-34.39 9.64-44.57 54.79-17.56 77.906 29.21 25 73.17 4.278 72.84-34.331-.25-28.96-28.36-51.12-55.28-43.575zM225.564 345.718c-11.596 6.29-11.407 25.715.31 31.775 14.625 7.563 32.051-5.533 27.514-20.676-3.5-11.681-16.9-17.027-27.824-11.1z" clip-rule="evenodd"/><path fill="#fefefe" fill-opacity=".75" d="M792.22 1042.102c-145.63-17.54-215.633-159.114-169.678-277.933 32.78-84.828 126.621-144.218 225.967-123.44 96.674 20.235 153.711 77.422 169.501 174.253 22.79 139.847-106.966 248-225.79 227.12z"/><path fill="#111f22" fill-rule="evenodd" d="M1018.6 1044.022c21.96 19.41 385.44 274.07 415.9 284.98 36 24.99 86-45.22 52-70.5-11.92-8.86-394.06-274.743-405.06-279.361-28.04-11.756-33.01-29.57-21.72-56.52 14.78-35.298 16.61-73.024 12.03-110.311-17.9-145.77-143.545-244.36-289.172-227.638C627.09 602.506 539.883 734.857 558.252 875.5c26.457 202.87 269.5 289.27 418.303 167.51 14.027-11.47 25.065-14.01 42.045 1.01zM622.543 764.169c-45.956 118.819 24.046 260.393 169.676 277.933 118.825 20.88 248.581-87.273 225.791-227.12-15.79-96.831-72.827-154.018-169.5-174.254-99.347-20.777-193.188 38.613-225.967 123.44z" clip-rule="evenodd"/><path fill="#33b0cb" fill-rule="evenodd" d="M998.945 776.495c-13.078 7.104-16.949 25.495-7.108 33.775 8.943 7.529 19.293 6.83 27.483-1.854 16.36-17.347 0-42.986-20.375-31.921zm-25.792 170.899c-13.13 8.006-16.617 27.163-7.417 40.775 15.618 23.103 52.394 12.353 52.394-15.321 0-22.557-25.79-37.152-44.977-25.454z" clip-rule="evenodd"/><path fill="#33b0cb" d="M677.282 933.803c-10.349-7.678-11.207-27.318-1.399-32.053 16.355-7.895 32.72 2.07 31.098 18.94-1.658 17.257-15.73 23.47-29.699 13.113z"/><path fill="#33b0cb" fill-rule="evenodd" d="M820 944c56.885 0 103-46.115 103-103s-46.115-103-103-103-103 46.115-103 103 46.115 103 103 103zm61.08-128.064a7.262 7.262 0 1 0-9.915-10.615l-64.353 60.103-30.077-36.32a7.263 7.263 0 0 0-11.188 9.266l39.911 48.194z" clip-rule="evenodd"/></svg>