<svg xmlns="http://www.w3.org/2000/svg" width="1470.639" height="1033.1" fill="none"><path fill="#a0b501" fill-rule="evenodd" d="M192.216 386.753c-21.502 4.181-29.268 23.835-35.144 88.948-3.839 42.53-14.01 55.048-64.235 79.047-64.052 30.606-72.57 52.435-43.298 110.962 17.296 34.585 14.23 55.093-8.78 58.71-24.15 3.797-36.995 16.772-40.197 40.61-4.104 30.567 14.287 50.222 54.476 58.218 43.15 8.587 56.077 11.852 80.758 20.392 22.344 7.735 48.59 13.494 61.485 13.494 2.657 0 2.978-30.178 2.201-207.659-.958-219.207-1.075-216.278 8.695-217.926 12.574-2.118 12.802-.404 12.802 96.33v88.963l7.061-2.153c12-3.66 25.074-17.16 36.115-37.29 10.96-19.983 18.351-24.7 17.077-10.904-1.94 21.002-30.135 53.984-50.155 58.67l-10.186 2.385.405 76.552c.867 164.01-.31 155.663 20.751 147 18.508-7.613 34.472-27.873 54.752-69.48 9.543-19.578 25.606-30.13 57.755-37.937 17.605-4.275 18.065-4.86 14.78-18.705-4.089-17.238-14.002-32.869-30.574-48.214-28.969-26.82-28.45-39.233 2.908-69.779 54.081-52.676 27.537-112.892-49.763-112.892h-27.533l-3.839-5.809c-2.11-3.195-7.744-19.79-12.519-36.88-15.397-55.107-28.254-70.006-55.798-64.653zM1225.31 398.33c6.71 16.771-12.31.873-14.77-.05-13.06-4.897-15.65-4.887-16.07.05-.19 2.172-5.04 9.72-10.8 16.771-5.74 7.05-9.31 12.202-7.91 11.45 18.48-9.999 13.41 20.871-6.13 37.267-6.88 5.776-11.16 11.025-11.16 13.691 0 5.888 11.94-2.25 27.69-18.859 17.06-18.006 32.05-19.942 32.05-4.139 0 15-38.91 58.098-58.08 64.34-3.34 1.086-3.88 3.96-3.88 20.752 0 17.982.3 19.347 3.88 17.626 6.4-3.089 30.57-25.504 41.96-38.932 19.32-22.756 32.77-15.346 18.15 9.997-8.48 14.705-51.61 53.898-59.31 53.898-5.2 0-5.59 3.787-2.68 26.14l1.51 11.616 21.74-18.878c24.17-20.98 23.69-20.764 31.27-14.124 12.36 10.815 5.08 25.842-25.4 52.374-19.93 17.358-20.75 18.402-18.25 23.211 1.44 2.771 2.62 10.66 2.62 17.531 0 15.878 1.03 15.795 21.83-1.776 20.28-17.128 25.03-19.633 31.51-16.599 5.31 2.488.66 11.637 14.21-5.32 17.35-17.047 15.67-51.07 81.21-59.508l4.98 1.274v-97.767c0-104.905.04-105.337 10.66-100.363 6.91 3.235 7.64 14.71 11.78 185.512l.48 19.782 12.32 2.41c66.34 12.977 90.7-3.303 87.38-58.37l-1.34-22.327 10.03-13.183c20.81-27.345 18.34-51.625-8.58-84.415-6.7-8.159-17.94-27.556-21.82-37.64-1.32-3.423-10.11-95.287-113.24-94.646 0 0-39.17 7.275-66.58 27.42-27.42 20.144-21.26 73.784-21.26 73.784zm-104.22 18.382c-3.84 3.691-5.78 6.711-4.31 6.711 1.48 0 7.23 3.323 12.78 7.385 14.67 10.728 14.53 10.726 14.53.211 0-8.518-.8-10.037-8.01-15.24l-8.02-5.778zm-13.51 33.878c0 4.227.96 7.685 2.14 7.685 1.18 0 9.56 5.663 18.63 12.585 19.61 14.965 20.05 15.048 20.55 3.861.31-7.177-.47-9.118-4.43-10.945-2.65-1.222-10.29-5.857-16.98-10.3-17.94-11.913-19.91-12.197-19.91-2.886zm-2.95 45.925c-9.18 13.325-6.54 17.831 22.86 39.026l18.81 13.56.66-12.934c.63-12.222.33-13.149-5.49-16.853-3.39-2.157-12.33-8.494-19.86-14.086-14.24-10.562-15.33-11.12-16.98-8.713zm-15.41 44.498c-.54.82-2.24 4.972-3.79 9.232-17.65 48.492-52.26 86.25-97.615 106.508-13.837 6.18-28.385 13.374-32.326 15.988-5.394 3.578-10.938 25.158-11.662 23.176-.529-1.449 1.414 4.02 0 0-3.965-11.275-12.302-18.83-20.776-18.83-12.678 0-16.479 5.028-26.343 34.852-2.993 9.051-21.668 21.411-26.208 32.06-9.866 23.146 3 23.5 6.933 29.878 5.157 14.05 5.845 27.701 2.294 45.547-5.823 29.256 19.024 55.224 55.272 55.224 37.574 0 57.685-20.879 52.891-55.22-4.72-33.785-2.509-38.605 35.18-35.722 65.37 5.003 94.74 1.595 120.42-13.978l8.34-6.059-.03-26.36-.04-26.359-29.03-9.51c-66.81-21.884-87.26-36.514-67.76-48.466 8.24-5.05 45.86 5.276 88.34 24.241l8.52 3.803v-17.466c0-11.71-.83-17.465-2.51-17.465-6.83 0-63.67-38.906-68.59-46.96-11.69-19.109 17.92-15.779 50.81 5.713 8.93 5.828 16.61 10.258 17.09 9.844 3.26-2.854-4.05-37.572-8.47-40.237-2.65-1.597-12.18-8.132-21.18-14.52-9.01-6.39-19.17-13.593-22.58-16.01-3.42-2.414-6.65-3.72-7.18-2.904zm119.01 159.311c-1.68 2.387-22.02 13.703-30.4 16.92-5.88 2.256-6.09 2.84-6.09 17.237v14.901l5.72-4.696c9.22-7.559 36.98-46.32 33.18-46.32-.56 0-1.64.88-2.41 1.958z" clip-rule="evenodd"/><path fill="#3b3a35" d="M651.258 869.892H613.22c-47.618-3.03-136.149 10.243-188.434 28.25l-23.013 7.926-122.804 53.844c-84.694 35.774-114.104 63.82-148.15 67.05-11.666 1.11-14.633 3.01-8.117 5.19 1.925.65 223.014 1.06 559.694.92 340.904-.15 603.724-.98 593.134-1.87-37.57-3.18-62.78-13.29-103.79-41.6-50.38-34.782-60.42-37.725-115.28-33.77l-314.128-92.403-4.438 13.07-46.352-3.583c-25.433 0-39.72-3.824-40.284-3.024z"/><path fill="#485f61" d="M1329.31 593.74c-76.59 4.992-75.42 33.305-110.55 93.596-18.23 31.291-32.76 51.575-42.33 59.105-3.95 3.106-4.72 6.012-4.91 18.394-.26 17.275-1.84 23.273-6.89 26.057-6.8 3.755-12.8-3.524-12.8-15.524 0-5.693-.38-10.349-.84-10.349-.46 0-6.68 3.084-13.83 6.856-26.22 13.836-57.39 16.924-108.57 10.754-38.339-4.622-46.337 1.802-43.514 29.978 3.454 34.49-.562 44.281-22.143 54.001-48.188 21.701-90.264-8.45-80.599-57.759 2.35-12 2.164-14.979-1.677-26.658l-4.324-13.149-30.958.554c-23.562.422-172.714-25.599-187.47-28.317l-19.389-3.572-19.359-7.509c-10.647-4.13-32.802-15.393-49.23-25.029-29.567-17.342-50.02-25.49-59.983-24.033-.084.075-2.363 1.295-5.53 2.965-1.088.574-2.28 1.201-3.526 1.852-4.867 2.55-125.167 52.635-126.689 52.15-1.52-.489-2.766-.17-2.766.707 0 .875-7.717 3.58-17.147 6.006-38.129 9.817-43.138 14.011-65.866 55.171-33.686 61.01-69.419 72.621-144.88 47.083-24.962-8.45-48.128-14.609-76.333-20.298l-17.7-3.568 1.482 57.143c2.398 92.342 14.55 122.335 57.311 141.445 24.305 10.87 120.802-17.05 240.572-69.586 43.61-18.645 94.42-59.502 172.582-73.768 78.162-14.266 295.468 4.06 288.382 6.788 67.11 20.351 159.16 77.971 249.484 71.156 25.51-1.925 35.27-1.952 45.36-.128 21.51 3.888 26.24 6.444 86.98 47.008 39.32 26.26 64.16 28.31 183.6 29.42 10.82 0 36.81-8.9 54.26-44.494 17.46-35.593 7.28-114.059 0-148.283 55.39-247.284-72.97-252.599-100.21-246.165z"/><path fill="#9f9b8d" fill-rule="evenodd" d="M752.177 453.213c-12.09 3.582-71.7 18.9-83.017 21.33l-6.926 1.49 2.132 4.475c1.173 2.462 2.15 5.82 2.17 7.462.021 1.641 1.09 5.418 2.372 8.393 1.284 2.975 2.59 7.668 2.901 10.43.311 2.762 1.115 6.036 1.787 7.275.671 1.238 1.118 3.668.992 5.4-.125 1.731.158 3.745.628 4.476 1.785 2.776 3.298 10.764 2.238 11.823-.59.591-.648 1.726-.129 2.56 1.428 2.287 1.677 5.412.432 5.412-2.104 0-1.114 4.215 1.126 4.801 2.357.616 3.107 4.602 1.101 5.842-.626.387-.783 1.277-.35 1.977 1.016 1.644 1.305 4.432 1.94 18.716.288 6.463.814 13.765 1.17 16.227.531 3.686.991 9.461 1.873 23.502.038.615-.248 4.14-.636 7.833-.388 3.694-.733 7.471-.764 8.394-.033.923-.503 3.19-1.045 5.036-.542 1.847-1.232 5.12-1.535 7.274-.839 5.992-1.825 10.403-2.878 12.87-.524 1.231-1.549 5.008-2.278 8.394-.728 3.385-2.105 6.773-3.057 7.53-.953.755-1.902 3.021-2.108 5.035-.206 2.014-.829 4.67-1.385 5.9-.557 1.231-1.65 4.001-2.432 6.156-1.409 3.885-9.245 21.465-10.94 24.545-2.757 5.004-8.267 4.06-8.93-1.53-.366-3.08 2.29-10.035 4.31-11.284.598-.369 1.088-1.585 1.088-2.702 0-3.686 4.64-12.64 6.85-13.217 1.737-.455 1.89-.873.803-2.185-1.48-1.785 1.422-12.657 4.298-16.098.812-.972 1.477-2.45 1.477-3.285 0-.836 1.114-2.706 2.477-4.157 2.001-2.129 2.235-3.026 1.217-4.657-1.212-1.94-.038-7.83 3.036-15.232 2.33-5.609 5.13-40.925 3.383-42.67-.33-.33-.692-2.7-.804-5.265-.11-2.565-.547-5.797-.969-7.182-.509-1.669-.3-2.518.62-2.518 1.082 0 1.091-.354.041-1.619-.74-.89-1.23-2.779-1.09-4.197.14-1.418-.139-3.49-.619-4.607s-.322-3.237.352-4.716c.845-1.855.863-2.91.056-3.408-.643-.397-.887-1.843-.542-3.213.344-1.37.138-4.19-.459-6.267-.707-2.468-.698-4.162.026-4.886 1.721-1.72 1.316-5.096-1.078-8.97-1.202-1.945-2.176-4.522-2.163-5.728.04-3.759-.823-7.703-2.282-10.429-.772-1.44-1.133-3.656-.8-4.92.33-1.265-.38-4.33-1.58-6.812-1.199-2.48-2.179-5.262-2.179-6.179 0-1.996-1.945-8.185-4.252-13.534-.919-2.13-1.757-4.648-1.863-5.596-.272-2.439-2.528-7.562-3.607-8.189-.5-.29-5.944.145-12.099.97-6.154.823-14.539 1.516-18.633 1.54l-7.444.04 1.485 4.933c.816 2.713 1.224 5.193.908 5.511-.318.316.727 3.174 2.322 6.348 1.594 3.175 2.9 6.632 2.9 7.683 0 1.05.977 3.828 2.172 6.172 1.195 2.345 2.493 5.72 2.884 7.498.39 1.78 1.175 3.523 1.743 3.875.57.35 1.033 1.837 1.033 3.304 0 1.466.503 2.976 1.12 3.357.614.38 1.118 2.461 1.118 4.622 0 2.162.754 4.686 1.676 5.608.923.923 1.955 3.027 2.294 4.677 1.582 7.696 3.55 14.008 6 19.243.724 1.548 1.48 4.066 1.68 5.596.365 2.791 1.015 4.913 3.061 9.99.99 2.453 2.61 9.065 3.72 15.173.223 1.231.486 2.24.583 2.24.097 0 .43 3.147.737 6.993.346 4.315.13 6.995-.566 6.995-.69 0-.79 1.185-.257 3.077.476 1.693.666 8.114.421 14.27-.247 6.154-.45 11.946-.455 12.87-.017 3.811-2.449 17.494-3.45 19.4-1.756 3.346-1.98 1.661-.8-6.013 1.487-9.67 1.311-35.753-.255-37.639-.67-.808-.998-2.965-.73-4.793.308-2.1-.057-3.534-.99-3.892-.865-.332-1.479-2.325-1.48-4.8 0-2.326-1.024-6.927-2.276-10.22-1.252-3.295-1.962-6.983-1.578-8.195.426-1.34-.049-3.03-1.212-4.317-1.269-1.403-1.677-3.05-1.213-4.902.478-1.9-.197-4.396-2.115-7.833-1.549-2.774-2.719-6.45-2.6-8.168.428-6.233-.185-11.026-1.207-9.415-.537.85-1.544 1.191-2.239.762-.694-.428-.968-1.255-.61-1.835.36-.58-.917-4.38-2.837-8.444-1.92-4.063-3.216-7.662-2.882-7.997.335-.335.2-1.158-.3-1.83-.499-.674-1.61-3.489-2.47-6.259-.86-2.77-2.252-5.564-3.093-6.209-.843-.646-1.638-3.24-1.767-5.765-.13-2.526-.9-5.393-1.715-6.373-.813-.98-1.617-3.422-1.784-5.427-.169-2.004-.425-3.77-.569-3.925-.144-.154-.326-.74-.403-1.306-.077-.564-.517-1.403-.979-1.864-1.494-1.495-.889-2.963.933-2.264 1.124.431 1.603.168 1.311-.72-.253-.77-1.555-1.56-2.89-1.758-1.37-.2-2.447-1.178-2.467-2.238-.064-3.409-2.854-5.796-6.8-5.82-2.088-.01-9.325-.757-16.085-1.657-12.566-1.672-19.183-.402-14.143 2.715 1.173.724 1.396 2.8.928 8.632-.446 5.578-.348 6.607.36 3.762.723-2.916.872-1.579.581 5.241-.215 5.036-.084 9.465.292 9.841.376.376.73 14.89.782 32.25.055 17.362-.264 29.804-.708 27.65-.444-2.154-.538.446-.209 5.781.33 5.334.183 10.37-.325 11.19-.507.822-.776 2.88-.6 4.571.178 1.693-.117 3.08-.655 3.08-.539 0-.773 1.761-.522 3.916.252 2.154-.013 3.917-.589 3.917-.577 0-.826 1.51-.555 3.357.307 2.102.001 3.357-.82 3.357-.72 0-.98.536-.576 1.192 1.011 1.634-.485 9.086-1.675 8.35-.527-.326-.695.416-.373 1.65.323 1.23.071 2.238-.559 2.238-.629 0-.86 1.085-.514 2.413.46 1.757.246 2.175-.784 1.54-1.054-.653-1.21-.233-.616 1.643.595 1.873.438 2.295-.612 1.646-.922-.57-1.132-.42-.607.428 1.05 1.7-.316 5.98-1.646 5.158-.565-.35-.695.228-.289 1.286.497 1.295.314 1.66-.56 1.12-.872-.54-1.055-.175-.559 1.12.497 1.293.314 1.658-.56 1.118-.872-.54-1.055-.175-.559 1.12.497 1.294.314 1.66-.56 1.118-.872-.539-1.055-.175-.559 1.12.464 1.208.3 1.65-.445 1.19-.673-.418-1.117.107-1.03 1.214.085 1.077-.509 1.81-1.328 1.638-.816-.169-1.164.21-.775.838.896 1.45-2.132 5.9-3.252 4.78-.458-.458-.73-.33-.607.286.478 2.366-.086 4.02-1.146 3.365-.657-.406-.807.096-.369 1.237.54 1.405.34 1.675-.745 1.005-.985-.61-1.214-.485-.685.374.941 1.522-1.963 6.123-3.129 4.957-.439-.438-.433.151.011 1.311.56 1.456.41 1.86-.488 1.306-.872-.54-1.055-.175-.559 1.12.507 1.321.32 1.662-.6 1.093-.735-.454-1.224-.41-1.088.097.481 1.776-1.483 5.985-2.499 5.357-.565-.35-.695.227-.289 1.286.54 1.405.34 1.675-.745 1.005-.957-.592-1.213-.483-.725.307.921 1.491-3.075 8.395-4.205 7.266-.44-.44-.436.148.008 1.307.56 1.456.41 1.86-.488 1.306-.872-.539-1.055-.175-.559 1.12.497 1.294.314 1.66-.56 1.118-.872-.539-1.055-.174-.559 1.12.497 1.294.314 1.66-.56 1.12-.872-.54-1.055-.176-.559 1.118.497 1.295.314 1.66-.56 1.12-.872-.54-1.055-.176-.559 1.118.497 1.295.314 1.66-.56 1.12-.872-.54-1.055-.176-.559 1.118.497 1.295.314 1.66-.56 1.12-.872-.54-1.055-.175-.559 1.118.497 1.295.314 1.66-.56 1.12-.872-.54-1.055-.175-.559 1.12.497 1.294.314 1.658-.56 1.118-.872-.54-1.055-.175-.559 1.12.497 1.294.314 1.66-.56 1.118-.872-.539-1.055-.175-.559 1.12.54 1.405.34 1.675-.745 1.004-.928-.574-1.213-.48-.762.248.97 1.57-1.452 8.292-2.708 7.516-.549-.34-.666.247-.26 1.303.496 1.295.313 1.66-.56 1.12-.873-.54-1.056-.175-.56 1.12.471 1.225.302 1.65-.468 1.175-.78-.482-.98.107-.573 1.67.43 1.642.222 2.161-.65 1.621-.859-.529-1.039-.157-.547 1.128.497 1.295.314 1.66-.56 1.12-.846-.524-1.065-.2-.63.935.37.958.082 1.737-.637 1.737-.718 0-.994.503-.614 1.12.381.614.13 1.118-.559 1.118-.688 0-.937.508-.553 1.13.931 1.507-.474 5.773-1.662 5.04-.513-.318-.65.51-.302 1.837.43 1.643.222 2.161-.65 1.622-.832-.514-1.049-.18-.618.945.367.955.157 1.736-.466 1.736-.625 0-.85 1.086-.504 2.413.404 1.547.204 2.15-.559 1.678-.763-.47-.965.131-.56 1.68.404 1.546.204 2.148-.559 1.677-.763-.47-.965.131-.56 1.68.404 1.547.204 2.15-.559 1.678-.763-.47-.965.131-.56 1.678.443 1.696.232 2.168-.709 1.587-.977-.604-1.133 0-.572 2.23.508 2.023.368 2.812-.41 2.331-.735-.455-.959.114-.593 1.512.323 1.231.093 2.24-.509 2.24s-.839 1.333-.527 2.964c.373 1.951.153 2.708-.643 2.215-1.382-.853-.198 4.135 1.921 8.095 3.852 7.197 42.275 18.241 46.46 13.352.99-1.156 2.368-1.75 3.061-1.32.783.482.952.275.445-.544-.484-.783.7-2.76 2.905-4.85 2.046-1.942 2.995-3.097 2.107-2.569-.889.528-.136-1.096 1.671-3.612 1.81-2.515 3.794-4.287 4.413-3.937.618.35.765.237.323-.252-.695-.77 5.478-10.662 6.654-10.662.24 0 .076.582-.363 1.293-.499.806-.307.987.511.481.721-.446 1.067-1.204.768-1.687-.298-.482.235-1.832 1.184-3 .95-1.167 1.358-1.416.911-.55-.542 1.041-.375 1.297.494.76.721-.445 1.067-1.204.768-1.686-.298-.483.235-1.832 1.184-3 .95-1.168 1.358-1.416.911-.55-.555 1.066-.378 1.3.55.725.752-.464 1.1-1.11.773-1.439-1.114-1.114 1.66-4.849 3.02-4.069.737.424.981.371.541-.116-1.182-1.31 1.266-5.258 2.708-4.366.68.42.94.284.577-.303-.88-1.425.988-4.316 2.79-4.316.791 0 1.483-.504 1.536-1.119.21-2.428 1.872-4.989 2.846-4.387.567.35.937.221.824-.287-.41-1.836 1.532-4.809 2.678-4.1.646.4.885.256.53-.317-.355-.574.366-2.288 1.603-3.81 1.236-1.523 1.874-2.06 1.417-1.195-.55 1.046-.39 1.301.481.761.721-.445 1.084-1.176.806-1.625-.756-1.224 1.302-4.065 2.945-4.065.791 0 1.483-.504 1.536-1.119.227-2.633 1.913-4.968 3.098-4.29.705.402.921.332.481-.155-1.026-1.137 2.086-5.628 3.9-5.628.756 0 1.39-.503 1.405-1.119.054-2.048 4.116-7.265 5.157-6.622.564.348.905.22.76-.29-.475-1.645 2.526-6.04 3.65-5.347.6.372.955.26.792-.248-.478-1.472 3.155-6.03 4.073-5.112.458.457.711.33.562-.287-.477-1.968 1.395-5.049 2.612-4.297.647.4.885.256.53-.317-.355-.574.366-2.289 1.603-3.81 1.236-1.523 1.874-2.06 1.417-1.195-.565 1.071-.394 1.303.537.727.752-.465 1.1-1.112.773-1.44-1.068-1.067 1.642-4.86 2.912-4.074.748.462.92.25.432-.538-.448-.726-.034-1.594.94-1.968.96-.368 1.48-1.095 1.158-1.615-.712-1.153 3.375-3.503 4.368-2.51 1.173 1.173.792 3.875-.44 3.114-.75-.463-.912.96-.469 4.131.46 3.287.327 4.342-.413 3.29-.747-1.065-.946.164-.635 3.916.333 4.025.172 4.876-.61 3.23-.77-1.626-.922-.707-.553 3.356.372 4.084.22 4.99-.559 3.358-.77-1.613-.907-.674-.487 3.357.433 4.171.274 5.168-.624 3.917-.894-1.247-1.037-.24-.559 3.917.454 3.947.31 5.118-.49 3.975-.81-1.157-.97-.196-.563 3.357.454 3.948.3 4.631-.742 3.3-1.1-1.406-1.195-1.32-.586.532.933 2.838-.542 16.905-1.594 15.201-.436-.705-.589 1.635-.34 5.202.26 3.73.048 5.911-.498 5.137-.547-.778-.842 2.061-.696 6.715.183 5.833-.002 7.133-.668 4.703-.548-1.998-.696 1.85-.367 9.513.394 9.133 1.075 13.682 2.35 15.668.987 1.538 1.671 3.213 1.518 3.72-.152.508.194.632.77.276 1.457-.9 4.725.498 3.98 1.703-.336.544.105.714.981.38.876-.337 2.314.11 3.196.991 5.22 5.221 46.802 6.67 46.802 1.63 0-1.419 5.832-7.063 6.953-6.727.44.131.48-.593.09-1.61-.472-1.233-.277-1.582.587-1.048.873.54 1.056.174.56-1.119-.497-1.295-.315-1.66.56-1.119.872.54 1.055.174.56-1.12-.542-1.405-.34-1.675.744-1.005.933.578 1.213.482.754-.259-.93-1.505 1.935-8.435 3.034-7.336.452.453.46-.125.014-1.285-.559-1.456-.408-1.86.488-1.306.873.54 1.056.175.56-1.119-.54-1.406-.34-1.675.745-1.005.973.602 1.214.483.703-.345-.964-1.558 3.055-10.638 4.201-9.492.454.454.462-.122.017-1.282-.559-1.455-.408-1.859.488-1.306.873.54 1.056.175.56-1.119-.497-1.294-.315-1.659.56-1.119.821.508 1.071.218.684-.79-.335-.877.047-2.3.852-3.164.805-.863 1.63-2.308 1.833-3.21.203-.904.707-1.898 1.12-2.213.412-.313.8-1.199.86-1.968.26-3.249.505-3.735 1.555-3.086.656.406.806-.096.37-1.237-.542-1.405-.34-1.675.744-1.005.99.613 1.214.485.677-.384-1.05-1.7.316-5.98 1.646-5.159.565.351.695-.227.29-1.285-.498-1.295-.316-1.66.558-1.12.822.51 1.072.22.685-.79-.335-.877.047-2.288.852-3.137.805-.848 1.514-2.172 1.575-2.942.252-3.15.487-3.744 1.287-3.25.462.285.918-.79 1.014-2.39.096-1.6.896-3.442 1.777-4.09.881-.65 1.366-1.88 1.08-2.736-.317-.936-.027-1.248.727-.78.772.476 1.017.163.64-.82-.335-.876.15-2.354 1.08-3.282.928-.929 1.376-2 .996-2.383-.382-.38-.076-.693.678-.693s1.097-.445.76-.99c-.896-1.45 1.64-8.069 2.814-7.344.548.34.666-.247.261-1.304-.497-1.295-.315-1.659.56-1.119.821.508 1.071.218.684-.79-.335-.877.09-2.293.942-3.147.854-.854 1.345-2.178 1.09-2.942-.255-.764.112-1.389.816-1.389.703 0 .967-.504.586-1.119-.38-.616-.174-1.119.46-1.119.631 0 .827-.838.435-1.862-.478-1.244-.285-1.596.581-1.06.846.522 1.066.198.63-.937-.367-.956-.125-1.737.537-1.737s.914-.755.56-1.679c-.355-.923-.213-1.678.314-1.679.527 0 1.04-1.37 1.136-3.043.098-1.673.698-3.217 1.336-3.429.637-.213.882-1.109.543-1.993-.339-.883-.106-1.606.517-1.606.624 0 .85-1.086.504-2.413-.46-1.757-.247-2.176.784-1.539 1.042.645 1.216.248.66-1.504-.417-1.314-.267-2.378.335-2.378.6 0 .805-1.086.46-2.413-.475-1.81-.26-2.185.852-1.495 1.082.668 1.291.408.767-.957-.93-2.428.318-8.71 1.578-7.93.53.326.68-1.066.33-3.097-.489-2.829-.355-3.3.573-2.014.918 1.272 1.035.757.48-2.132-.507-2.636-.355-3.578.494-3.053.847.524 1.021-.516.56-3.358-.46-2.84-.289-3.88.56-3.357.842.522 1.043-.563.641-3.464-.46-3.318-.314-3.862.691-2.542.992 1.302 1.116.614.554-3.078-.398-2.615-.298-4.756.222-4.756s.76-2.33.533-5.18c-.288-3.64-.037-4.946.851-4.398.911.563 1.057-.956.53-5.453-.422-3.58-.295-6.233.297-6.233.567 0 .858-3.642.648-8.113-.272-5.8-.053-7.635.768-6.435.807 1.178.998-1.825.642-10.072-.28-6.463-.139-10.59.314-9.17.452 1.418.822-12.809.822-31.616 0-18.987-.438-34.196-.987-34.196-.54 0-.744-3.759-.449-8.354.338-5.262.133-8.105-.553-7.68-.68.42-.913-2.085-.62-6.679.257-4.042.068-7.103-.42-6.8-.488.3-.887-.238-.887-1.197 0-2.168.561-2.243-12.869 1.736z" clip-rule="evenodd"/><path fill="#82acb0" fill-rule="evenodd" d="M1111.66 109.2c-3.21.485-3.78 1.365-2.08 3.171.58.62.59 3.86.02 7.778-.53 3.693-1.25 13.513-1.59 21.823-.9 22.187-1.16 22.991-6.15 18.944-9.6-7.79-13.02-8.95-16.02-5.44-2.16 2.511-1.61 6.64.86 6.64.82 0 2.23 1.146 3.15 2.547.91 1.401 3.49 3.531 5.73 4.734 2.23 1.203 4.33 3.03 4.65 4.057.33 1.03 1.88 2.191 3.44 2.584 2.88.723 3.55 10.636 1.09 16.382-1.78 4.192 3.27 9.985 8.71 9.985 2.84 0 20.8-18.513 21.54-22.199 1.09-5.482-5.13-10.117-7-5.22-.36.923-1.37 1.68-2.24 1.68-.88 0-1.93.868-2.34 1.933-.99 2.588-7.73 9.257-9.36 9.257-.94 0-.91-.455.09-1.664.76-.916 1.1-2.41.75-3.322-.35-.912-.16-1.955.43-2.318.59-.364 1.07-1.558 1.07-2.655 0-1.096 1.27-2.57 2.82-3.275 1.54-.705 3.39-2.548 4.09-4.096.71-1.547 1.87-2.814 2.59-2.814 3.97 0 18.64-16.22 17.46-19.307-1.08-2.835-4.58-4.404-4.58-2.053 0 .563-2.53 2.584-5.63 4.491-3.1 1.908-5.93 4.217-6.28 5.133-.35.915-1.19 1.664-1.86 1.664-.68 0-2.93 1.637-5.02 3.637l-3.78 3.637.26-7.834c.15-4.309-.11-8.69-.56-9.739-.45-1.047-.41-2.558.09-3.357.51-.799 1.02-4.222 1.15-7.608.13-3.385.55-8.42.94-11.19 2.35-16.816 2.16-17.289-6.44-15.987zm-169.357 26.89c.967 1.711-1.202 35.597-2.79 43.587l-1.155 5.811-7.487-4.828c-15.706-10.128-52.948-25.536-49.935-20.66.34.548 1.47 1.004 2.51 1.012 2.431.02 20.341 6.24 21.606 7.503.533.533-1.252 6.387-4.019 13.178-2.739 6.72-6.28 17.78-7.87 24.578-3.269 13.977-6.178 24.308-7.162 25.428-.365.416-7.635-.915-16.155-2.959-8.519-2.042-15.065-3.317-14.547-2.832.52.484 6.987 2.253 14.372 3.931 16.231 3.685 15.594 3.162 12.88 10.59-1.215 3.32-2.007 6.236-1.762 6.481.244.245 1.561-2.619 2.926-6.362 2.985-8.19 4.011-8.38 12.09-2.256 3.294 2.5 6.212 4.32 6.485 4.048.607-.607-6.953-6.62-10.798-8.59-1.539-.788-2.962-1.57-3.162-1.739-1.895-1.59 15.33-57.75 18.814-61.347 1.11-1.145 21.273 9.207 26.823 13.772l3.87 3.183-4.336 11.59c-5.12 13.69-9.67 23.077-16.714 34.48-2.835 4.588-5.137 8.87-5.119 9.512.02.644.594.164 1.277-1.067.685-1.23 3.423-5.557 6.087-9.61 7.42-11.297 17.985-36.029 21.126-49.447 2.57-10.977 4.627-45.356 2.815-47.033-1.137-1.053-1.283-1.043-.67.045zm-352.082 40.855c-2.627 2.615-5.279 5.634-5.895 6.708-1.03 1.801-1.64 1.83-7.833.364-52.013-12.296-84.163 13.16-69.556 55.076l2.062 5.914-15.243 14.651c-61.583 59.197-66.998 110.541-15.265 144.723 14.764 9.756 27.604 14.302 42.052 14.89l12.31.502.113-35.66c.092-28.806.683-42.009 3.075-68.676 3.972-44.276 3.742-43.129 8.604-42.918 46.954 2.045 66.911-9.224 100.85-56.94 5.617-7.9 10.583-14.59 11.035-14.87.882-.545-1.24-11.559-3.137-16.28-1.349-3.357-8.255-9.698-12.195-11.197-1.51-.574-12.523-1.044-24.474-1.044h-21.728zm126.217 34.732c-2.642 12.97-1.693 75.36 1.753 115.287.68 7.878.898 14.662.484 15.076-2.806 2.806-63.685-40.238-67.808-47.942-1.339-2.5-4.436-2.913-4.436-.59 0 4.474 32.172 29.567 56.75 44.264 16.185 9.68 16.173 7.703.148 24.175-10.73 11.032-12.69 13.922-9.432 13.922 1.463 0 19.56-19.119 24.71-26.105l2.237-3.037 6.793 2.784c15.583 6.385 43.837 10.961 68.74 11.132l17.344.118 10.435-5.472c44.972-23.586 46.727-104.35 2.06-94.705-35.44 7.651-39.376 6.257-73.147-25.908-11.21-10.678-23.767-20.344-31.824-24.497l-4.074-2.1zM1071.52 317.92c-.73 1.366-1.41 3.506-1.5 4.756-.91 12.082-2.7 16.024-5.34 11.787-2.03-3.245-12.05 1.584-12.05 5.806 0 1.91 8.1 8.742 10.36 8.742 1.48 0 1.92.58 1.5 1.96-.32 1.075-1.13 5.386-1.78 9.58-1.41 8.991-6.73 17.567-6.73 10.843 0-1.89-2.89-1.242-5.04 1.13-2.08 2.297-.7 7.823 1.95 7.823.55 0 2.66 1.26 4.67 2.798 3.77 2.875 9.03.784 6.86-2.728-.42-.679.17-1.189 1.38-1.189 2.23 0 6.97-4.349 6.97-6.405 0-.674 3.27-3.797 7.27-6.942 7.6-5.969 9.15-9.443 5.56-12.424-1.45-1.205-2.52-.617-6.93 3.788-5.06 5.063-8.47 5.68-6.18 1.12 2.2-4.37-.07-11.592-3.65-11.592-1.56 0-2.92-6.496-1.53-7.355.48-.297 1.42.48 2.09 1.728 1.8 3.37 5.27 2.816 7.33-1.168 1.34-2.598 1.47-3.81.51-4.965-.92-1.11-.94-2.146-.05-3.806.67-1.253 1.32-4.503 1.44-7.224.32-7.565-4.23-11.45-7.11-6.063zm-82.76 13.272c-1.256 1.254-2.142 3.667-2.129 5.788.025 3.99-.83 17.067-1.117 17.067-.099 0-.31 4.657-.47 10.348-.31 10.938-.95 12.962-3.204 10.128-1.924-2.417-10.899-3.72-10.899-1.584 0 .866-.777 1.87-1.727 2.235-3 1.152 4.88 12.833 10.46 15.508 2.494 1.195 3.043 2.27 3.306 6.461.6 9.558 5.411 16.213 8.095 11.197.664-1.239.836-2.253.383-2.253-.452 0-.218-.605.52-1.343.74-.739 1.343-2.332 1.343-3.542s2.518-4.552 5.595-7.426c3.074-2.873 5.594-5.622 5.594-6.107 0-.485 3.34-4.073 7.41-7.972 4.96-4.744 7.19-7.663 6.75-8.817-.87-2.265-7.29-2.302-8.16-.046-.35.924-1.26 1.68-2.02 1.68s-3.24 1.888-5.5 4.196c-5.624 5.727-8.397 8.12-9.375 8.085-1.364-.045-.238-7.056 1.591-9.905 1.323-2.059 1.397-2.85.327-3.512-1.5-.928-.554-3.34 1.312-3.34 1.26 0 3.785-2.784 8.315-9.183 3.08-4.343 2.19-10.963-1.48-10.963-1.96 0-6.102 4.337-5.333 5.58.676 1.095-3.724 3.931-4.653 3.001-.305-.306-.036-1.524.597-2.706.633-1.185.96-4.24.726-6.792-.232-2.553.045-4.93.618-5.285.574-.355 1.043-1.638 1.043-2.85 0-1.216.882-2.543 1.958-2.95 2.874-1.089 5.004-3.489 4.484-5.056-.81-2.41-11.868-2.136-14.36.358z" clip-rule="evenodd"/><path fill="#e7ff34" d="M474.171 886.784c-11.549-5.973-1.82-50.896 12.354-57.049 42.854-18.6 125.402 24.651 108.28 56.736-1.467 2.75-115.352 3.045-120.634.313zm148.091-4.164c-5.529-10.693 5.76-46.793 16.294-52.106 12.45-6.278 57.433-2.908 79.844 5.981 38.735 15.367 50.246 28.657 42.315 48.857l-1.209 3.077h-65.563c-69.942 0-68.622.108-71.68-5.809z"/><path fill="#3b3a35" d="m654.57 477.21 4.73-1.004c1.23-.26 2.327-.53 2.435-.603.737-.485 4.073 8.131 4.931 12.74 1.307 7.014 1.386 7.274 3.127 10.446.79 1.436 1.692 4.955 2.007 7.82.315 2.863 1.03 6.062 1.59 7.106.558 1.045 1.015 3.611 1.015 5.704 0 2.092.361 4.163.801 4.604 1.591 1.591 3.327 10.664 2.247 11.745-.59.591-.648 1.726-.129 2.56 1.618 2.592 1.606 5.412-.024 5.412-2.327 0-.877 4.157 1.684 4.828 2.263.592 2.952 4.607 1 5.815-.627.387-.785 1.277-.352 1.977.988 1.6 1.255 4.104 1.991 18.715.326 6.463 1.063 16.771 1.64 22.904.576 6.134.81 11.54.52 12.008-.29.47-.02 1.806.603 2.97.622 1.161.813 2.43.425 2.818-.388.388-.872 3.602-1.074 7.142-.203 3.54-.416 7.191-.475 8.115-.058.923-.549 3.19-1.092 5.036-.54 1.846-1.244 5.12-1.56 7.274-1.122 7.638-2.019 11.766-2.8 12.87-.435.616-1.457 4.141-2.272 7.834-.815 3.693-2.239 7.333-3.165 8.09-.926.754-1.853 3.021-2.059 5.035-.205 2.013-.829 4.67-1.385 5.9-.557 1.231-2.788 6.52-4.96 11.751-2.17 5.232-4.737 11.023-5.7 12.87-.965 1.847-1.756 3.91-1.76 4.583-.018 2.926-4.387 5.332-7.285 4.012-3.714-1.692-3.712-6.624.004-12.512 1.54-2.437 2.828-5.324 2.863-6.413.126-3.772 4.985-12.059 6.975-11.897 2.242.182 2.453-.845.563-2.735-1.493-1.493 1.533-12.606 4.347-15.975.813-.97 1.477-2.449 1.477-3.284 0-.836 1.115-2.706 2.478-4.157 2.13-2.266 2.277-2.957 1.055-4.916-.899-1.44-1.042-2.76-.386-3.589.571-.722 1.4-3.326 1.843-5.788.443-2.462 1.197-4.98 1.675-5.596 2.104-2.706 5.198-40.923 3.455-42.665-.335-.334-.699-2.705-.81-5.27-.11-2.565-.548-5.797-.97-7.182-.509-1.67-.3-2.518.62-2.518 1.082 0 1.091-.355.042-1.619-.74-.89-1.23-2.779-1.09-4.197.14-1.418-.152-3.525-.648-4.684-.543-1.266-.36-2.975.458-4.285 1.02-1.636 1.041-2.559.084-3.714-.702-.846-.985-2.454-.629-3.576.355-1.12.15-3.768-.457-5.884-.726-2.533-.725-4.224.006-4.954 1.727-1.728 1.303-6.423-.79-8.736-1.044-1.154-2.037-3.459-2.206-5.125-.656-6.426-1.173-8.735-2.528-11.266-.772-1.44-1.132-3.656-.8-4.92.33-1.265-.38-4.33-1.58-6.812-1.198-2.48-2.179-5.262-2.179-6.18 0-1.927-1.909-8.086-4.088-13.187-.828-1.94-1.509-4.458-1.51-5.596-.003-1.138-.999-3.7-2.213-5.692l-2.208-3.62z"/><path fill="#3b3a35" d="M605.027 483.867c-.615-.38-1.119-1.165-1.119-1.745 0-.58 2.28-1.053 5.064-1.053 5.56 0 6.736 1.456 7.614 9.417.231 2.096 1.44 5.768 2.686 8.16 1.247 2.391 2.62 6.437 3.051 8.99.431 2.551 1.5 5.234 2.374 5.96.875.726 1.595 2.14 1.598 3.142.005 1.002.778 3.3 1.72 5.105.941 1.806 1.472 3.91 1.178 4.675-.294.765.192 1.993 1.078 2.728.887.736 1.612 3.075 1.612 5.198s.755 4.615 1.677 5.537c.923.923 1.955 3.027 2.294 4.677 1.575 7.666 3.494 13.76 6.15 19.523.641 1.394 1.33 3.786 1.53 5.316.364 2.791 1.014 4.913 3.061 9.99.99 2.453 2.61 9.065 3.718 15.173.224 1.231.484 2.238.578 2.238.976 0 1.03 13.363.057 13.964-.826.51-.91 1.685-.25 3.476 2.125 5.774-.416 40.421-3.387 46.167-1.739 3.362-1.963 1.645-.784-6.013 1.488-9.67 1.311-35.753-.254-37.64-.67-.808-.989-3.029-.709-4.938.33-2.258-.015-3.673-.99-4.048-.875-.335-1.5-2.276-1.502-4.652 0-2.243-1.024-6.773-2.276-10.067-1.252-3.295-1.98-6.923-1.619-8.063.362-1.14-.165-3.33-1.173-4.866-1.034-1.579-1.528-3.746-1.136-4.98.417-1.314-.306-3.902-1.813-6.49-1.83-3.145-2.54-6.245-2.633-11.51-.088-4.889-.605-7.365-1.608-7.7-.957-.319-1.172.006-.609.917.575.93.342 1.225-.684.868-.855-.298-1.428-1.279-1.272-2.18.156-.902-1.24-4.783-3.1-8.625-1.863-3.842-3.114-7.424-2.783-7.959.332-.536.19-1.229-.314-1.54-.504-.313-1.609-3.117-2.459-6.234-.848-3.115-1.915-5.666-2.372-5.666-1.26 0-3.506-7.62-2.652-9 .412-.668-.114-2.167-1.168-3.332-1.054-1.163-2.056-3.777-2.225-5.805-.17-2.027-.426-3.81-.57-3.966-.145-.154-.326-.742-.403-1.306-.077-.564-.517-1.403-.979-1.864-1.459-1.46-.908-2.97.84-2.3 1.974.758 2.21-.544.422-2.332-.69-.69-1.949-.99-2.798-.664-1 .384-1.542-.213-1.542-1.7 0-1.26-.503-2.603-1.119-2.983zm10.7 217.675c4.347-5.235 11.042-13.672 14.877-18.75 3.836-5.079 7.266-9.233 7.621-9.233.356 0 .155.63-.444 1.398-.6.77-4.77 6.184-9.266 12.031-4.495 5.848-11.544 14.661-15.667 19.585-9.416 11.25-27.97 35.035-45.177 57.915-7.29 9.695-13.512 17.626-13.824 17.626-.313 0-.078-.629.521-1.399.6-.769 7.93-10.464 16.293-21.543 23.922-31.697 30.147-39.659 45.066-57.63z"/><path fill="#0d4336" fill-rule="evenodd" d="M840.937 81.997c-1.649.86-3.182 1.38-3.407 1.155-.225-.224-.229 1.46-.007 3.745.302 3.12.113 3.736-.758 2.475-.85-1.232-.993-.485-.539 2.797.444 3.207.3 4.017-.515 2.856-.81-1.157-.97-.197-.563 3.358.392 3.403.23 4.487-.515 3.428-.746-1.064-.946.168-.635 3.917.354 4.267.2 4.975-.703 3.228-1.037-2.009-1.097-1.95-.588.56.312 1.54.574 4.006.582 5.484l.015 2.685 19.863-.972c10.924-.535 22.458-.988 25.63-1.007 3.353-.02 5.228-.423 4.476-.962-.76-.545-.038-.727 1.751-.442 1.674.268 2.81.11 2.526-.352-.709-1.147 4.863-2.45 6.404-1.498.808.5.921.25.325-.715-.654-1.057-.414-1.29.836-.81 1.563.6 1.888-.874.806-3.649-.119-.308-.178-.879-.13-1.267.05-.39-.772-.642-1.825-.56-1.053.081-1.794-.463-1.648-1.21.165-.839-.442-1.087-1.582-.65-1.34.514-1.597.301-.933-.773.592-.957.482-1.213-.308-.725-1.49.921-8.394-3.076-7.265-4.205.441-.44-.147-.436-1.307.008-1.455.56-1.859.408-1.306-.488.54-.873.175-1.055-1.119-.56-1.294.497-1.659.315-1.119-.56.54-.872.175-1.055-1.119-.559-1.294.497-1.659.315-1.119-.56.54-.872.175-1.055-1.119-.559-1.294.497-1.659.315-1.119-.56.54-.872.175-1.055-1.119-.559-1.405.54-1.675.34-1.004-.745.626-1.012.485-1.216-.444-.642-1.803 1.115-8.11-1.547-7.19-3.036.428-.694.17-.823-.643-.32-1.669 1.03-8.144-1.495-7.305-2.85.331-.537-.26-.646-1.318-.24-1.226.47-1.65.301-1.176-.469.483-.78-.107-.98-1.669-.573-1.798.47-2.183.257-1.507-.837.604-.977.471-1.198-.394-.663-1.709 1.056-5.977-.32-5.15-1.659.85-1.373.5-1.31-3.047.54zm304.573 23.028c1.31 1.033.24 1.195-5.04.755-4.77-.397-5.9-.266-3.92.453 2 .723.72.88-4.47.542-4.68-.303-6.48-.126-5.04.497 2.04.881 1.98.975-.62 1.046-5.84.16-8 6.671-8.01 24.14 0 1.231-.45 4.978-1 8.326-.67 4.072-.61 6.328.17 6.81.8.498.81 2.26.03 5.663-.63 2.717-1.16 6.17-1.17 7.668l-.03 2.727 3.14-3.007c1.73-1.654 3.68-3.007 4.35-3.007.66 0 2.03-1.252 3.03-2.783 1-1.53 3.83-3.807 6.28-5.058 2.46-1.253 4.46-3.022 4.46-3.932 0-3.619 4.9-1.4 6.56 2.972 1.05 2.768-6.05 12.16-9.19 12.16-.48 0-2.12 1.483-3.64 3.297-1.53 1.813-3.64 3.571-4.7 3.905-1.05.336-2.42 1.747-3.03 3.14-.61 1.388-2.24 3.024-3.62 3.631-1.39.608-2.52 1.91-2.52 2.891 0 .983-.35 2.133-.77 2.556-.98.981-1.31 5.2-.41 5.2 1.13 0 6.54-6.579 5.92-7.198-.32-.315.75-1.078 2.38-1.696 1.62-.618 2.95-1.892 2.95-2.829 0-2.47 4.85-2.145 7.23.486 1.81 1.99 1.88 3.581.37 8.367-.53 1.707-15.73 16.742-19.06 18.865-5.19 3.3-12.38-.326-12.18-6.138.11-3.143.89-9.298 1.18-9.298 2.03 0 .39-8.758-1.79-9.586-1.47-.557-2.96-1.793-3.33-2.749-.36-.956-2.14-2.498-3.93-3.428-2.93-1.512-13.25-10.844-13.25-11.976 0-.248 1.25-1.908 2.78-3.687l2.78-3.238 5.18 2.783c2.84 1.531 5.42 3.414 5.73 4.183.31.77 1.27 1.4 2.15 1.4.88 0 1.88.754 2.24 1.677.78 2.036 2.26 2.215 2.3.28.02-.769.4-8.198.85-16.507.78-14.553 1.13-19.108 2.16-28.333.64-5.699-.21-5.879-14.44-3.05-6.56 1.305-12.96 2.047-14.21 1.65-1.66-.528-2.04-.34-1.4.69.67 1.081-.02 1.242-2.94.681-2.09-.403-3.18-.325-2.41.173 1.95 1.26-8.97 3.954-12.26 3.026-2-.564-2.2-.464-.89.451 1.39.972 1.24 1.18-.84 1.193-3.26.023-3.18 1.242.31 4.525 1.56 1.463 2.57 3.338 2.26 4.17-.32.83-.11 1.216.47.856 4.54-2.8 6.49 18.435 3.55 38.59-1.73 11.876-2.3 31.254-.9 30.978.56-.112 1.28.496 1.59 1.351.39 1.063.08 1.28-.98.682-.85-.48-.65.074.44 1.231 1.1 1.157 2.86 2.11 3.92 2.116 1.06.007 1.93.767 1.93 1.69 0 .93 1 1.677 2.24 1.68 1.26 0 2.1.643 1.93 1.481-.17.816.23 1.15.89.744 1.39-.858 4.69 1.526 3.89 2.811-.29.477.33.797 1.39.713 1.05-.084 1.93.434 1.94 1.152.02.718.49 1.725 1.05 2.24.59.54.68.344.21-.468-.44-.769-.33-1.399.25-1.399 1.63 0 3.63 2.897 2.71 3.92-.46.503-.29.605.38.226 2.21-1.258 19.04 11.771 17.8 13.78-.27.425.76 1.942 2.28 3.37 1.52 1.428 2.77 2.178 2.77 1.667 0-.51 1.06.032 2.35 1.205 3.57 3.225 6.81 10.287 6.02 13.107-.54 1.935-.44 2.1.49.775.92-1.318 1.2-.839 1.32 2.24.3 8-.78 13.84-2.37 12.856-.62-.382-.76.148-.34 1.257.48 1.248.31 1.654-.49 1.16-.68-.419-1.6-.173-2.04.548-.51.818-.33 1.01.48.511 2.28-1.41 1.37 1.103-1.31 3.626-1.43 1.344-3.02 2.062-3.54 1.594-.51-.467-.62-.293-.23.387.98 1.722-4.31 6.484-6.03 5.422-.83-.51-1.09-.386-.65.316.97 1.581-2.18 4.056-3.86 3.021-.83-.51-1.05-.354-.58.407.9 1.457-3.31 4.006-4.94 2.996-.62-.382-.99-.028-.82.787.17.82-.56 1.414-1.64 1.33-1.1-.088-1.63.356-1.21 1.028.46.745.02.91-1.19.446-1.29-.496-1.66-.313-1.12.56.54.874.18 1.056-1.12.56-1.29-.497-1.66-.314-1.12.56.54.873.18 1.055-1.12.558-1.09-.42-1.64-.28-1.26.327.86 1.394-8.08 5.941-9.7 4.935-.82-.507-.94-.262-.34.708.67 1.085.4 1.285-1.01.745-1.05-.405-1.65-.309-1.33.214.85 1.367-7.84 5.038-9.5 4.013-.86-.533-1.1-.4-.64.352.91 1.468-3.21 2.964-5.04 1.832-.76-.472-1-.319-.58.371 1 1.61-1.84 2.53-9.23 2.996-4.95.311-5.44.213-2.34-.47 2.85-.628 1.93-.753-3.35-.456-8.18.46-12.64-.343-11.57-2.08.44-.712.17-.826-.69-.292-1.88 1.16-14.73-2.766-13.83-4.224.39-.632.14-.78-.58-.339-.7.433-3.09.445-5.32.028-2.52-.475-3.52-1.08-2.66-1.613.76-.47-1.08-.65-4.09-.4-3.04.253-4.614.075-3.54-.4 1.05-.47-4.843-.854-13.103-.854-8.262 0-14.16.38-13.11.842 1.17.516.283.71-2.286.505-2.308-.186-4.197.118-4.197.677 0 .557-.78.714-1.736.347-1.126-.432-1.458-.215-.945.616.54.873.021 1.081-1.62.652-1.329-.349-2.156-.212-1.839.302.741 1.2-3.54 2.588-5.068 1.644-.635-.393-1.018-.048-.849.767.185.89-.67 1.45-2.144 1.4-1.348-.044-2.355.46-2.238 1.12.118.66-.648 1.133-1.7 1.053-1.054-.082-1.809.422-1.679 1.12.13.695-.77 1.29-2.002 1.318-1.23.028-2.136.587-2.01 1.24.123.654-1.38 2.645-3.34 4.424-3.092 2.806-3.277 2.864-1.384.44 2.166-2.778 2.166-2.783-.005-.813-1.204 1.093-2.194 2.855-2.2 3.917-.008 1.062-.554 1.835-1.214 1.717-.66-.117-1.164.89-1.119 2.238.045 1.35-.496 2.344-1.202 2.211-.79-.149-1.044.677-.66 2.147.487 1.863.227 2.236-1.176 1.698-1.275-.489-1.617-.209-1.169.957.892 2.324-7.446 24.118-8.886 23.227-.673-.415-.822-.169-.354.587.967 1.564-.266 6.011-1.46 5.271-.465-.286-.806.58-.76 1.924.046 1.343-.505 2.452-1.223 2.462-.717.01-1.724.478-2.238 1.037-.542.592-.346.682.467.214 2.618-1.506 1.411 1.393-1.55 3.722-2.12 1.67-4.557 2.316-8.673 2.303-4.147-.012-5.26-.32-4.045-1.118 1.182-.774.551-.883-2.13-.368-2.725.524-3.587.368-3.022-.547.503-.814.195-1.052-.842-.654-.9.345-3.35.154-5.445-.425-4.523-1.249-4.083-1.99-11.582 19.53-5.81 16.674-5.783 16.435-2.094 18.117 1.574.717 2.555 1.8 2.18 2.405-.4.652.104.801 1.24.365 1.295-.497 1.66-.314 1.12.56-.54.873-.175 1.055 1.118.56 1.295-.498 1.66-.315 1.12.56-.54.872-.175 1.054 1.118.56 1.295-.498 1.66-.316 1.12.558-.516.832-.21 1.07.847.664 2.217-.852 6.56 1.572 5.6 3.125-.42.68-.309.963.247.63.557-.335 4.638-.269 9.071.144 4.431.414 7.832.527 7.556.252-.484-.485 5.652-4.612 6.86-4.612.328 0 .235.63-.208 1.4-.443.77.533.176 2.172-1.315 3.617-3.296 3.974-4.616.46-1.702-1.663 1.378-1.49.99.505-1.145l3.023-3.235 15.747 2.076c9.192 1.211 15.155 2.452 14.323 2.981-1.024.65-1.05.911-.094.923.732.01 1.582-.387 1.887-.882.306-.495 11.037.48 23.845 2.164 12.81 1.685 30.565 3.936 39.455 5.004 10.22 1.225 15.37 2.25 13.99 2.781-1.2.463.59.59 3.97.281 4.86-.443 5.8-.283 4.48.754-1.43 1.122-1.37 1.218.37.652 1.13-.366 4.28-.665 7-.665 3.73 0 4.94-.428 4.94-1.745 0-.959-.5-1.438-1.1-1.063-.68.418-.89-.74-.54-3.012.44-2.9.34-3.213-.5-1.455-.8 1.698-1.08.617-1.12-4.476-.05-4.885.25-6.257 1.07-5.036.83 1.23.94.811.38-1.566-.46-1.995-.34-2.986.33-2.574.6.37 1.05-.437 1-1.79-.05-1.483.51-2.342 1.4-2.156.82.17 1.15-.23.74-.888-.4-.658-.13-1.93.62-2.826 1.6-1.927 3.8-2.208 2.65-.337-.5.807-.31.987.51.481.72-.445 1.03-1.255.7-1.802-.9-1.458 4.74-4.807 6.78-4.024 1.12.431 1.46.218.96-.6-.55-.894.17-1.046 2.46-.512 2.06.481 2.69.39 1.73-.252-1.74-1.16 1.58-1.92 13.54-3.1 4.15-.41 7.55-1.21 7.55-1.776 0-.568.46-.749 1.02-.404.56.346.76-.506.46-1.893-.46-2.08-.33-2.227.74-.84 1.07 1.39 1.17 1.273.63-.678-.38-1.372 1.23-7.9 3.84-15.616 2.48-7.292 4.5-13.437 4.5-13.656 0-.22.59-.039 1.3.4.8.5.98.306.48-.516-1.01-1.629 1.41-9.339 2.69-8.553.5.314.64-.515.29-1.843-.4-1.548-.2-2.15.56-1.679.76.471.96-.13.56-1.679-.41-1.547-.21-2.149.56-1.678.76.471.96-.13.56-1.679-.47-1.798-.26-2.183.83-1.507.99.607 1.2.472.66-.41-1.16-1.87 2.6-12.654 4.09-11.734.72.444.87.213.38-.578-1.16-1.879 3.72-16.01 5.21-15.09.72.444.88.212.39-.578-1.17-1.887 5.95-22.728 7.45-21.803.73.45.87.208.36-.616-1.22-1.973.29-7.079 1.82-6.137.77.48.94.273.44-.543-1.17-1.89 8.19-29.442 9.69-28.516.73.45.87.208.36-.616-1.22-1.973.29-7.079 1.81-6.137.78.48.95.273.45-.542-1.05-1.7 5.92-22.746 7.26-21.918.56.344.72-.135.37-1.065-.82-2.126 1.65-9.837 2.89-9.066.51.314.65-.515.3-1.844-.47-1.798-.26-2.183.83-1.507 1 .617 1.2.472.63-.448-1.07-1.735.24-7.113 1.54-6.309.54.334.7-.479.35-1.808-.4-1.547-.2-2.15.56-1.678.77.471.97-.13.56-1.679-.37-1.435-.18-2.14.47-1.736.6.374 1.1-.178 1.1-1.224-.01-6.198.46-8.149 1.79-7.372.77.45.44-.276-.73-1.613-2.56-2.912-3.75-3.228-1.78-.472.76 1.077.06.537-1.56-1.2-1.63-1.738-2.62-3.704-2.21-4.37.44-.7.23-.889-.48-.447-1.56.96-3.98-3.382-3.13-5.599.41-1.059.17-1.363-.66-.849-.88.541-1.06.176-.56-1.119.49-1.269.31-1.656-.53-1.14-.89.552-1.06-.49-.57-3.579.43-2.734.34-3.525-.24-2.123-.8 1.943-.99 1.767-1.45-1.34-.31-2.17-.09-3.31.58-2.898.7.436.84-3.472.39-10.97-.45-7.44-.33-11.042.34-9.97.71 1.124.83.237.36-2.692-.46-2.828-.31-4.124.42-3.672.71.433.92-.417.58-2.23-.42-2.205-.2-2.707.89-2.03.98.606 1.18.46.62-.458-1.22-1.973.29-7.079 1.81-6.137.78.477.95.274.46-.524-.93-1.502.24-6.022 1.38-5.329.41.255.85-1.249.96-3.34.19-3.702.08-3.805-4.11-3.805-2.37 0-5.23-.298-6.35-.664-1.75-.567-1.8-.469-.37.65zm-67.44 211.81c1.29 1.662 1.22 11.963-.11 14.052-.51.805-.62 2.663-.25 4.133 1.62 6.468-4.75 11.932-8.51 7.292l-2.02-2.504v2.922c0 1.607.43 2.922.96 2.922 3.96 0 6.57 4.51 5.61 9.67-1.29 6.906-.85 7.057 4.37 1.506 4.59-4.868 7.41-5.463 9.59-2.016 1.69 2.693-.48 6.071-7.76 12.054-3.33 2.742-6.06 5.42-6.06 5.948 0 2.334-12.46 13.575-13.88 12.522-.8-.59-3.57-2.48-6.15-4.2-6.1-4.062-6.71-5.895-3.13-9.472 2.47-2.475 3.15-2.676 4.69-1.398 2.53 2.098 4.93-.514 5.73-6.226.34-2.42.92-5.155 1.29-6.078 1.84-4.64.81-7.238-4.22-10.61-7.06-4.74-7.3-8.085-.9-12.799 4.81-3.536 4.83-3.54 6.68-1.26 3.39 4.172 5.71-.51 5.47-11.05-.12-5.107 5.88-8.882 8.6-5.409zm-74.55 13.408c1.07 1.92-2.5 7.068-3.92 5.648-.954-.956-3.13 5.315-3.58 10.32-.222 2.462-.678 5.61-1.012 6.995-.944 3.894 1.45 2.972 3.21-1.236 1.506-3.609 4.972-5.689 7.032-4.222 1.79 1.276 3.78 6.99 2.91 8.374-3.31 5.29-9.982 13.031-11.237 13.031-.996 0-1.275.752-.818 2.196.384 1.208.06 3.348-.72 4.756-2.196 3.965-2.364 9.643-.194 6.545.888-1.268 2.122-2.305 2.742-2.305.621 0 2.327-1.422 3.787-3.159 4.63-5.508 11.32-9.5 14.56-8.689 5.24 1.318 4.53 3.653-3.53 11.633-4.22 4.177-9.44 9.711-11.59 12.3-2.145 2.585-4.537 4.701-5.31 4.701-.82 0-1.41 1.406-1.41 3.358 0 1.846-.47 3.357-1.045 3.357-.574 0-1.204 1.386-1.399 3.078-1.009 8.778-8.657 1.612-9.824-9.205-.446-4.135-1.193-5.862-2.908-6.715-2.447-1.216-7.8-7.098-10.755-11.814-2.5-3.99 2.06-10.387 5.76-8.077 1.23.77 3.503 1.398 5.05 1.398 1.547 0 2.812.503 2.812 1.12 0 .614.534 1.118 1.185 1.118.652 0 .861-.526.464-1.168-.398-.643-.15-1.857.547-2.699.877-1.055.905-1.754.093-2.257-.648-.4-.934-1.83-.636-3.177.3-1.348.858-7.486 1.246-13.64.67-10.668 1.014-15.134 1.403-18.143.677-5.254 14.507-8.023 17.087-3.422zm-173.318 30.45c-5.705.717-10.736 1.277-11.177 1.244-.442-.03-.809 2.79-.815 6.27-.007 3.48.294 5.831.67 5.225.374-.607 1 .887 1.388 3.32.39 2.431 1.461 5.047 2.383 5.812.922.765 1.405 1.832 1.071 2.371-.332.54.26.648 1.315.243 1.295-.497 1.66-.314 1.12.56-.54.873-.175 1.055 1.118.56 1.406-.54 1.675-.34 1.005.745-.6.97-.483 1.214.337.707 1.627-1.006 10.566 3.541 9.704 4.935-.376.608.165.748 1.263.327 1.406-.54 1.675-.34 1.005.745-.604.976-.483 1.215.352.698 1.52-.938 6.093 1.282 5.297 2.571-.306.496.753.65 2.353.345 1.6-.306 3.153-1.486 3.45-2.623.297-1.137 1.065-1.744 1.705-1.348.685.423.83.176.35-.6-1.186-1.919.404-8.15 1.852-7.256.721.445.874.214.385-.577-.447-.726-.47-2.886-.05-4.799.42-1.913 1.087-2.959 1.482-2.325.393.635.83-1.816.966-5.446.242-6.383.157-6.6-2.583-6.6-1.787 0-2.55-.459-2.068-1.24.521-.844-.037-.985-1.753-.44-1.886.6-2.297.441-1.635-.63.62-1.003.353-1.225-.897-.745-1.018.39-2.414-.127-3.26-1.209-1.36-1.739-1.3-1.757.757-.214 2.002 1.502 2.097 1.498.904-.037-1.66-2.134-4.862-2.239-17.994-.589z" clip-rule="evenodd"/><path fill="#002312" fill-rule="evenodd" d="M837.781 79.825c0 1.042-5.506 33.282-6.169 36.127-1.612 6.905 65.993.1 68.061-6.853.57-1.917-26.24-15.987-44.94-23.584-13.57-5.514-16.952-6.649-16.952-5.69zm10.697 4.358c60.22 23.96 58.421 33.128-6.5 33.163-10.222.006-9.615 1.786-6.288-18.46 3.146-19.146 2.754-18.696 12.788-14.703zm214.782 35.315-12.31 3.071 3.36 1.76c11.1 5.824 13.79 14.98 11.12 37.787-2.99 25.516-3.17 33.54-.84 38.05 1.74 3.363 23.9 21.711 29.26 24.233 23.95 11.252 33.56 39.561 18.5 54.465-12.74 12.608-49.05 31.73-65.25 34.357l-6.22 1.011 6.73-.472c13.68-.96 50.55-19.675 64.54-32.763 17.91-16.758 10.92-38.26-19.24-59.137-32.35-22.399-30.73-18.512-25.71-61.423 2.06-17.61-.22-27.778-7.74-34.588-3.28-2.968-2.98-3.718 1.84-4.549 6.12-1.055 19.13-4.912 16.51-4.89-1.23.01-7.78 1.4-14.55 3.088zm84.64 40.668c1.66 7.653 4.26 13.38 8.34 18.365 5 6.115 5.35 4.741-17.88 70.786-1.61 4.566-2.68 8.541-2.39 8.833.66.66-.35 3.417 12.79-35.042 6.1-17.85 11.61-33.802 12.25-35.449 1.01-2.605.68-3.625-2.53-7.834-5.04-6.61-8.3-13.254-9.18-18.75-.4-2.533-1.11-4.842-1.58-5.13-.47-.29-.39 1.61.18 4.221zm-17.12 111.344c-2.24 6.618-9.71 27.894-16.6 47.283-6.88 19.39-15.03 42.626-18.09 51.636l-5.57 16.383-8.59.804c-23.51 2.204-34.11 11.067-33.62 28.112.15 5.112.21 4.99.92-1.915 1.67-16.327 12.37-23.942 34.7-24.684l7.24-.24 5.79-16.95c3.18-9.323 10.34-29.753 15.92-45.4 17.6-49.44 23.58-67.059 22.76-67.059-.44 0-2.62 5.413-4.86 12.03zm-171.4 35.472c-12.518 5.147-20.914 12.31-26.03 22.205-1.525 2.946-3.15 5.123-3.613 4.837-.463-.287-.949.763-1.079 2.333-.13 1.57-2.286 8.424-4.79 15.233-8.97 24.378-11.273 25.956-30.29 20.744-4.849-1.329-8.974-2.21-9.167-1.959-.193.252-2.776 7.76-5.738 16.685-2.962 8.925-6.114 17.668-7.006 19.428-.89 1.761-1.118 2.891-.504 2.511.613-.379 1.284-.242 1.491.303 4.002 10.581 35.646 14.95 44.684 6.17l4.024-3.91 35.141 4.51a22560.39 22560.39 0 0 0 61.997 7.861c14.77 1.844 28.49 3.587 30.49 3.873 2 .287 3.64.122 3.64-.367 0-.488-3.65-1.195-8.11-1.572-4.47-.377-17.68-1.957-29.38-3.512a7766.397 7766.397 0 0 0-39.163-5.09 6187.393 6187.393 0 0 1-21.26-2.717l-18.178-2.434-14.82-1.984-3.084 2.9c-10.25 9.637-17.125 10.026-33.528 1.894-6.335-3.14-11.518-6.324-11.518-7.075 0-1.486 9.04-27.836 11.308-32.963l1.402-3.167 7.913 2.056c18.672 4.851 21.57 2.868 30.603-20.945 3.25-8.564 5.893-16.159 5.875-16.877-.018-.717.345-1.473.807-1.679.462-.205 2.075-2.81 3.585-5.79 4.637-9.149 12.071-14.76 30.265-22.845 5.455-2.424.457-1.299-5.968 1.343z" clip-rule="evenodd"/><path fill="#d8e5e7" fill-rule="evenodd" d="M1161.36 106.603c-.8 2.237-1.93 3.782-2.49 3.433-.57-.35-.75.08-.42.957.34.876-.09 2.292-.94 3.145-.86.854-1.32 2.25-1.04 3.098.31.928.02 1.236-.74.771-.79-.492-1.01-.142-.58.964.37.956.16 1.737-.47 1.737-.62 0-.85 1.085-.5 2.413.4 1.546.2 2.148-.56 1.677-.75-.463-.98.093-.61 1.504.33 1.231.1 2.24-.51 2.24-.6 0-.85 1.26-.55 2.797.29 1.54.09 2.797-.44 2.797s-.82 2.894-.64 6.435c.24 4.683.02 5.978-.82 4.758-.88-1.28-1.15-.617-1.15 2.797 0 3.35.28 4.054 1.11 2.798.79-1.198 1.01-.095.74 3.852-.23 3.237.27 6.83 1.18 8.66.86 1.72 1.24 3.637.86 4.261-.39.623-.2 1.133.41 1.133 1.14 0 3.01 4.327 2.57 5.958-.14.51.21.638.78.29.56-.348 1.84.621 2.85 2.156 1 1.533 2.52 2.787 3.38 2.787 2.3 0 26.48-74.122 24.74-75.856-.35-.35-6.04-.86-12.66-1.133l-12.02-.496zm-259.269 4.083c-.375.608-1.094.85-1.598.54-.502-.312-1.555.208-2.339 1.152-.784.943-2.127 1.448-2.983 1.12-.857-.33-1.289-.163-.96.368.814 1.315-8.908 3.941-10.637 2.872-.934-.577-1.094-.39-.495.58.674 1.09-.07 1.32-3.105.966-2.215-.259-3.713-.015-3.365.547.362.586-2.269.754-6.254.398-4.139-.368-6.622-.197-6.232.433.551.894-3.26 1.525-8.147 1.348-.763-.027-1.14.347-.84.833.562.912-7.212 18.213-8.428 18.755-.379.168-.27 2.938.24 6.155.51 3.218 1.006 6.432 1.102 7.142.095.711.928 1.003 1.85.65 1.022-.393 1.385-.174.931.561-.468.756.043 1 1.37.653 1.16-.305 2.45-.006 2.863.663.414.67 1.352 1.21 2.085 1.2.801-.01.662-.45-.346-1.102-1.193-.77.157-1.09 4.664-1.103 3.49-.009 7.266-.315 8.393-.68 1.705-.555 1.768-.463.371.541-1.49 1.073-1.49 1.21.007 1.225.926.01 2.37-1.532 3.208-3.425 1.901-4.295 6.052-6.452 8.501-4.42 2.074 1.721 2.213 4.666.313 6.598-.768.784-.895 1.333-.279 1.222 1.956-.35 6.151 1.38 5.58 2.302-.3.49.46.625 1.692.303 1.231-.323 2.24-.04 2.24.63 0 .671.83.895 1.861.5 1.178-.453 1.59-.273 1.118.49-.482.78.107.98 1.67.572 1.328-.347 2.132-.175 1.787.384-.345.56.681 1.094 2.281 1.191 1.6.096 3.49.97 4.2 1.941.71.972 1.554 1.503 1.875 1.182.782-.783 6.468 1.856 6.468 3.002 0 .498.716.63 1.592.293.876-.336 2.597.394 3.823 1.62 1.228 1.228 2.526 1.94 2.885 1.58.358-.36.652-.066.652.652s.954 1.306 2.118 1.306c1.165 0 2.436.827 2.825 1.84.387 1.01.986 1.556 1.33 1.213.343-.344 2.33.088 4.412.96 4.855 2.027 4.981 2.011 4.981-.656 0-1.23.377-2.238.84-2.237.462 0 .664-2.518.45-5.596-.212-3.078.09-5.596.672-5.596.614 0 .85-3.407.56-8.114-.274-4.463-.04-11.45.518-15.529.942-6.866.845-7.524-1.29-8.862-21.96-13.752-36.48-22.052-37.03-21.163zm-72.147 10.263c-.002.791-1.76 13.524-3.908 28.296-4.215 29.006-4.646 35.2-2.595 37.252 2.031 2.031 2.206 5.646.405 8.393-.893 1.363-1.715 2.982-1.829 3.597-.453 2.462-2.513 6.058-3.22 5.62-.414-.255-.55 2.061-.304 5.146.245 3.084.066 6.457-.399 7.494-.844 1.878-1.226 6.761-1.94 24.826-.208 5.232-.793 10.463-1.303 11.624-.529 1.204-.452 2.861.176 3.858 1.292 2.048 7.485 3.978 7.991 2.49.19-.557 1.575-.79 3.078-.518 1.502.273 2.732-.027 2.732-.666 0-.68 1.158-.87 2.798-.46 1.538.385 2.797.27 2.797-.259 0-.528 1.134-1.01 2.518-1.07 4.426-.194 20.395-4.179 21.136-5.276.392-.58 1.274-.71 1.958-.287.685.423 1.874.375 2.643-.108.77-.48 1.902-.92 2.518-.974 6.102-.545 12.705-2.117 12.217-2.907-.336-.543.145-1.276 1.07-1.63.923-.354 1.404-1.358 1.07-2.23-.335-.873.032-1.587.816-1.587.784 0 1.094-.33.688-.736-.405-.405-.212-1.366.427-2.137.844-1.017.536-1.84-1.12-3.002-1.258-.88-1.988-1.898-1.623-2.263s-.394-.386-1.685-.049c-1.368.358-2.349.084-2.349-.656 0-.797-1.044-1.009-2.797-.57-1.607.404-2.798.22-2.798-.433 0-.624-1.007-.87-2.238-.55-1.23.322-2.238.093-2.238-.509 0-.603-1.259-.854-2.797-.56-1.594.306-2.798.012-2.798-.679 0-.668-.755-.925-1.678-.57-.924.354-1.679.056-1.679-.66 0-.719-.45-1.028-1-.687-1.415.873-2.406-2.229-1.124-3.51 1.212-1.213 7.72-.533 7.72.807 0 .488 1.006.623 2.237.302 1.231-.322 2.238-.093 2.238.51 0 .601 1.26.853 2.798.56 1.593-.307 2.797-.013 2.797.678 0 .668.704.945 1.566.613.86-.33 1.855-.129 2.211.446.354.574 1.992.788 3.637.473 2.066-.395 2.746-.175 2.198.71-1.163 1.883.316 1.561 3.112-.677 1.395-1.116 2.266-2.859 2.028-4.049-.24-1.196.061-1.794.703-1.398.668.413.885-.212.536-1.547-.323-1.23-.07-2.239.56-2.239.628 0 .88-1.007.56-2.238-.324-1.23-.094-2.239.508-2.239s.854-1.259.56-2.797c-.295-1.539-.043-2.798.56-2.798.601 0 .838-1.334.526-2.965-.31-1.629-.115-2.687.435-2.348.551.34 1.061-.949 1.133-2.86.071-1.914.647-3.65 1.28-3.862.632-.21.871-1.445.531-2.742-.417-1.597-.202-2.104.666-1.567.831.514 1.05.181.617-.945-.367-.955-.126-1.736.537-1.736.661 0 .913-.756.56-1.679-.356-.923-.104-1.679.56-1.679.661 0 .88-.837.488-1.862-.478-1.243-.285-1.596.582-1.06.846.523 1.065.198.63-.937-.367-.955-.157-1.736.466-1.736.625 0 .886-.95.582-2.112-.303-1.162-.004-2.45.665-2.864 3.016-1.865.29-9.824-2.99-8.73-.764.255-1.389-.112-1.389-.816 0-.703-.414-1.023-.92-.71-.505.312-2.155-.072-3.666-.857-1.51-.783-3.362-1.22-4.115-.968-.753.251-1.37-.002-1.37-.562s-1.582-.787-3.516-.502c-2.436.357-3.275.125-2.73-.755.431-.698.553-1.269.271-1.269-1.388 0-5.439 9.95-6.007 14.757-.82 6.936-1.086 7.048-7.988 3.394-6.725-3.56-7.004-4.784-2.189-9.564 1.967-1.953 3.148-2.843 2.624-1.978-.609 1.005-.533 1.311.21.853.64-.396 1.376-2.175 1.638-3.953l.475-3.235-7.103.525c-4.238.314-7.689.036-8.56-.687-.803-.666-1.776-.896-2.162-.51-3.22 3.221-9.472-7.258-9.187-15.396.298-8.502.425-9.056 1.876-8.16.754.467.99.31.564-.378-.93-1.505 1.934-8.435 3.033-7.336.452.454.46-.125.015-1.284-.56-1.456-.409-1.86.488-1.306.872.54 1.055.174.56-1.12-.472-1.226-.303-1.65.467-1.176.766.475.991-.069.62-1.495-.496-1.89-1.569-2.254-6.89-2.33-3.468-.05-7.689-.32-9.382-.599-2.02-.332-3.078-.013-3.08.931zm214.296 2.784c-4.88 1.15-32.72 9.245-36.93 10.738l-4.48 1.588-.02 9.6c-.01 5.277-.35 9.93-.76 10.338-.41.408-.49 1.397-.18 2.198.3.8.04 1.775-.59 2.165-.63.39-.86 1.448-.52 2.351.35.903.09 1.643-.57 1.643-.662 0-.914.755-.56 1.678.355.924.103 1.68-.559 1.68s-.938.69-.615 1.533c.324.844-.17 2.296-1.1 3.225-.93.928-1.378 2.001-.998 2.382.382.381.121.693-.577.693-.699 0-.983.751-.63 1.67.365.951-.128 1.964-1.148 2.354-.983.38-1.51 1.137-1.169 1.69.341.55.056 1.001-.632 1.001-.688 0-.94.503-.559 1.12.38.614.234 1.118-.327 1.118-1.733 0 .536 10.573 3.544 16.512 1.56 3.078 2.523 5.911 2.14 6.294-.382.382.018.743.89.8 13.27.874 12.96.707 13.75 7.373.42 3.53.1 5.04-1.33 6.155-1.62 1.27-1.73 1.235-.76-.255.61-.953.18-.7-.97.56-1.14 1.26-2.28 2.164-2.52 2.01-1.64-1.059-2.78-.087-1.59 1.35.74.896 1.06 2.103.7 2.68-.35.58.14 1.352 1.1 1.72.97.374 1.39 1.242.94 1.97-.5.81-.32.997.49.496.73-.449 1.6-.035 1.97.94.37.96 1.13 1.462 1.68 1.12.56-.345 1.31.16 1.68 1.118.37.96 1.12 1.465 1.67 1.124.55-.34 1-.056 1 .632 0 .688.5.94 1.12.56.62-.38 1.12-.129 1.12.56 0 .687.5.94 1.12.56.61-.382 1.12-.13 1.12.558 0 .688.5.94 1.12.56.61-.38 1.12-.129 1.12.56 0 .688.5.94 1.11.56.62-.382 1.12-.176 1.12.458 0 .632.71.88 1.57.548.86-.33 1.9-.063 2.3.595.41.657 1.73 1.196 2.95 1.196 1.21 0 2.47.7 2.8 1.554.37.95 1.51 1.317 2.94.944 1.29-.337 2.06-.156 1.71.402-.34.56.65 1.094 2.21 1.187 1.56.094 3.18.718 3.59 1.39 1.5 2.427 13.21 2.19 17.06-.348 1.95-1.282 4.4-2.855 5.47-3.494 1.06-.64 2.83-1.899 3.94-2.798 1.77-1.44 1.91-1.435 1.14.044-.48.923.15.42 1.4-1.12 1.25-1.538 2.76-2.797 3.35-2.797.6 0 2.16-1.376 3.49-3.057 1.32-1.68 2.96-2.94 3.64-2.798.69.143 1.83-.87 2.56-2.25.72-1.382 2.22-3.522 3.34-4.758 1.12-1.235 1.7-2.308 1.3-2.385-.41-.078-1.28-.203-1.95-.28-.66-.077-1.85-1.022-2.64-2.099-.78-1.076-1.98-1.958-2.65-1.958-.67 0-1.67-.8-2.21-1.78-.55-.978-1.2-1.7-1.46-1.605-1.34.505-4.25-1.497-3.63-2.5.4-.647.2-.854-.43-.462-1.47.907-11.5-6.676-11.5-8.693 0-.829-.82-1.82-1.81-2.2-1.14-.44-1.59-1.507-1.22-2.918.32-1.223.12-2.225-.43-2.225-.56 0-1.01-4.154-1-9.232.01-6.448.35-8.727 1.12-7.555.78 1.195.89.63.4-1.956-.41-2.146-.16-4.278.61-5.208.74-.897.99-2.823.58-4.477-.4-1.596-.36-3.785.1-4.863.45-1.078.72-3.875.59-6.215-.13-2.339.36-4.979 1.1-5.865.82-.996 1.04-3.005.58-5.259-.41-2.006-.85-4.78-.97-6.165-.12-1.386-.62-2.518-1.12-2.518-.5 0-.59-.504-.21-1.12.38-.615.13-1.119-.56-1.119-.69 0-.97-.45-.63-1 .34-.553-.21-1.32-1.22-1.707-1-.386-1.51-1.023-1.12-1.413 1-.997-1.54-3.823-2.76-3.07-.55.34-1.3-.167-1.67-1.126-.37-.959-1.12-1.465-1.67-1.123-.55.34-1 .055-1-.633 0-.688-.47-.96-1.04-.607-.58.354-1.36.132-1.75-.494-.73-1.178-1.8-1.246-5.6-.35zm-99.278 21.244c-.498 18.067-.703 21.265-1.897 29.45-.674 4.615-2.068 11.162-3.099 14.547-1.032 3.386-1.929 6.407-1.995 6.715-.066.308-.749 1.692-1.519 3.078-.768 1.385-1.11 2.518-.759 2.518.351 0 .022 1.132-.73 2.518-.755 1.385-1.443 3.273-1.533 4.197-.332 3.46-1.85 6.724-2.84 6.113-.566-.35-.696.228-.29 1.286.497 1.295.315 1.66-.559 1.12-.809-.5-1.076-.227-.709.73.323.841-.183 3.007-1.125 4.814-2.349 4.505-2.172 5.308 1.038 4.694 1.52-.29 2.536-.16 2.257.291-.279.451 2.38-.338 5.908-1.752 3.53-1.415 10.948-3.734 16.487-5.153 5.54-1.419 10.322-2.898 10.63-3.287.308-.388 1.441-.569 2.518-.404 1.076.167 1.958-.216 1.958-.848 0-.633 1.007-.887 2.237-.566 1.23.322 2.54.095 2.911-.505.37-.6 1.378-.82 2.24-.49.86.331 1.564.06 1.564-.604 0-.719 1.101-.929 2.73-.52 1.5.376 3.062.145 3.47-.516.407-.659 1.445-.928 2.306-.598.861.331 1.565.06 1.565-.605 0-.723 1.231-.95 3.077-.568 1.693.35 2.428.356 1.632.012-1.044-.45-1.113-1.024-.25-2.062.88-1.06.713-1.624-.63-2.14-1.047-.402-1.55-1.41-1.182-2.368.352-.919.186-1.67-.369-1.67-1.036 0-2.897-4.374-2.499-5.875.122-.463-.166-.84-.639-.84-.696 0-.853-11.039-.172-12.03.107-.154.268-.657.36-1.12.726-3.676 5.747-13.47 6.625-12.928.61.376.8.186.422-.423-.84-1.362 1.49-9.31 2.73-9.31.493 0 .615-.732.272-1.626-.342-.894-.267-2.2.167-2.904 2.362-3.823.607-19.07-1.964-17.054-3.44 2.697-27.846 10.502-30.268 9.68-1.369-.465-3.08-.734-3.804-.597-.723.137-1.682-.345-2.13-1.073-.547-.884-.297-1.046.753-.492.865.457.314-.213-1.225-1.485-1.538-1.274-3.453-2.079-4.254-1.79-.8.29-1.2.111-.885-.398.315-.509-1.422-2.047-3.859-3.417l-4.43-2.49zm93.788 4.27c.19 1.79-.18 3.883-.82 4.654-.64.771-.86 1.892-.49 2.492.37.6.19 1.394-.41 1.764-.6.37-.81 1.412-.46 2.316.35.903.09 1.642-.57 1.642-.66 0-.92.756-.56 1.68.35.922.06 1.678-.66 1.678s-1.02.47-.66 1.042c.35.573.13 1.357-.5 1.744-.62.387-1.13 1.56-1.13 2.606 0 1.9-4.2 5.33-5.25 4.283-.3-.305-.16-1.725.33-3.156.49-1.432.78-2.979.66-3.442-.12-.462.27-.839.86-.839.6 0 .77-.838.37-1.862-.39-1.024-.25-1.577.32-1.228.56.348 1.14-.95 1.28-2.886.14-1.936.7-3.667 1.24-3.848.54-.179.73-1.643.42-3.252-.36-1.875-.14-2.663.62-2.197.73.454.95-.118.59-1.518-.64-2.434 1.56-5.896 3.36-5.295.61.204 1.27 1.833 1.46 3.622zm-131.98 25.781c.284.741-.183 2.047-1.036 2.901-.854.854-1.345 2.178-1.09 2.942.255.764-.067 1.39-.714 1.39-.648 0-.856.837-.463 1.861.477 1.243.284 1.596-.582 1.061-.846-.524-1.066-.199-.63.935.368.958.081 1.737-.638 1.737-.717 0-1.05.413-.738.918.764 1.234-3.193 13.857-4.069 12.981-.38-.38-.413.367-.076 1.658.337 1.292.122 2.35-.48 2.35-.603 0-.84 1.333-.528 2.964.401 2.1.18 2.725-.759 2.144-.953-.588-1.122-.004-.6 2.072.423 1.686.252 2.892-.41 2.892-.625 0-.873 1.007-.55 2.238.321 1.231.038 2.238-.63 2.238s-.945.704-.613 1.566c.33.86.11 1.87-.49 2.24-1.155.713-.5 4.878 1.09 6.93.521.671.7 1.552.397 1.957-.303.405-.222.493.18.195.4-.299 1.444.331 2.32 1.4 1.067 1.3 1.354 1.385.873.261-.396-.924.892.084 2.862 2.238 1.97 2.154 3.177 3.161 2.682 2.238-.655-1.223-.29-1.147 1.34.28 3.715 3.251 5.736 2.352 9.432-4.197 1.977-3.502 3.984-5.839 4.66-5.423.694.431.855.2.387-.557-.983-1.59 1.976-6.077 3.25-4.925.503.458.583.25.174-.465-.959-1.677.315-5.032 1.607-4.233.544.336.658-.253.253-1.309-.497-1.295-.314-1.66.56-1.119.872.54 1.055.174.56-1.119-.54-1.406-.34-1.676.744-1.005.95.587 1.213.482.736-.292-.865-1.4 2.97-11.862 3.98-10.854.37.371.643.012.607-.799-.153-3.513.361-5.479 1.282-4.909.546.338.97-.01.943-.774-.12-3.313.364-5.397 1.141-4.917 3.905 2.411.412-5.435-3.669-8.242-2.66-1.83-5.61-4.103-6.557-5.05-.948-.948-2.014-1.653-2.37-1.567-1.159.28-7.266-2.564-7.266-3.383 0-.437-1.714-.797-3.81-.797-2.51 0-3.633.46-3.292 1.35zm154.97 49.845c1.82.97 2.18 2.115 1.89 5.875-.26 3.29.04 4.587 1.03 4.39 1.95-.39 1.75 3.63-.27 5.306-.92.761-1.39 1.83-1.05 2.375.83 1.345-.31 1.248-3.14-.267-1.3-.693-3.85-1.334-5.69-1.427-5.14-.259-7.67-4.705-3.56-6.267 2.44-.926 2.94-1.712 2.53-3.899-.95-4.958 3.81-8.467 8.26-6.086zm-66.71 2.103c-.364.588-1.4.786-2.304.44-.903-.346-1.643-.089-1.643.573 0 .662-.704.934-1.565.603-.86-.33-1.885-.084-2.274.546-.39.631-1.53.831-2.535.445-1.32-.506-1.572-.289-.908.786.69 1.113.315 1.327-1.496.854-1.548-.405-2.15-.204-1.679.56.458.74-.069.98-1.398.633-1.715-.449-2.132.042-2.132 2.514 0 1.69.463 2.786 1.03 2.436.565-.35.707.202.314 1.226-.393 1.024-.289 1.862.232 1.862s.718 2.392.44 5.316c-.377 3.951-.202 4.885.68 3.637.914-1.293 1.19-.586 1.203 3.078.01 2.745-.508 4.756-1.223 4.756-.764 0-.97 1.075-.538 2.798.404 1.614.22 2.798-.439 2.798-.626 0-1.08.377-1.008.84.074.461.01 1.216-.14 1.678a16.338 16.338 0 0 0-.428 1.68c-.259 1.382-6.77 7.537-7.677 7.255-.462-.144-.839.295-.839.977 0 .682-.78.94-1.737.572-1.117-.429-1.456-.214-.952.603.548.888-.108 1.045-2.18.526-1.63-.41-2.964-.318-2.964.203s-6.723.72-14.938.441l-14.94-.507-.803 22.417c-.63 17.636-.49 22.916.662 24.761 1.921 3.076 2.081 3.014 5.692-2.206 1.7-2.456 5.442-6.088 8.318-8.07 2.875-1.985 6.162-4.507 7.302-5.606 1.142-1.1 2.638-1.652 3.326-1.227.731.453.94.27.502-.437-.858-1.389 3.167-2.992 4.87-1.94.62.384 1.128.111 1.128-.606 0-.72.78-1.006 1.737-.638 1.126.432 1.458.215.944-.617-.539-.872-.02-1.08 1.621-.65 1.327.346 2.412.114 2.412-.515 0-.63 1.243-.907 2.764-.616 1.52.291 2.498.097 2.172-.429-.326-.527 5.23-.958 12.343-.958 8.512 0 12.934.413 12.934 1.208 0 .753 1.234.937 3.264.491 3.8-.835 11.52.373 10.71 1.676-.3.492.54.61 1.87.261 1.32-.347 2.13-.174 1.79.384-.35.56.94 1.075 2.85 1.147 1.91.072 3.66.673 3.88 1.336.22.663 1.12.928 2.01.59.88-.34 1.6-.076 1.6.586 0 .662.76.914 1.68.56.92-.355 1.68-.134 1.68.49s1.01.87 2.24.55c1.23-.324 2.23-.15 2.23.382 0 .534 2.14.971 4.76.971 2.62 0 6.18.398 7.93.884 2.33.65 2.95.533 2.35-.442-.58-.938.04-1.162 2.11-.766 1.81.347 2.66.13 2.23-.574-.42-.677.17-.905 1.46-.567 1.2.312 2.84-.147 3.65-1.019.81-.87 2.21-1.305 3.1-.962.91.347 1.32.133.94-.483-.38-.609-.16-1.107.48-1.107 1.85 0 20.06-8.89 20.86-10.18.39-.64 1.45-.884 2.34-.542 1.04.4 1.33.155.82-.672-.54-.874-.17-1.057 1.12-.56 1.06.407 1.64.277 1.29-.288-.61-.989 3.55-2.984 5.27-2.529.46.122.84-.24.84-.805 0-1.358 8.07-6.338 9.51-5.867.62.201.81.06.44-.314-.86-.86 8.21-10.333 9.38-9.804.48.215.8-.023.72-.53-.24-1.476 1.4-5.96 2.18-5.957.39.001.54-3.525.34-7.834-.21-4.31-.8-7.836-1.33-7.836-1.1 0-2.81-4.498-2.35-6.156.18-.615-.01-.786-.42-.38-.4.404-3.54-2.366-6.97-6.156-7.46-8.247-9.13-9.887-7.01-6.893.87 1.231-.04.755-2.02-1.055-2.98-2.722-3.85-3.034-5-1.796-1.12 1.215-1.07 1.347.29.692.92-.444-.3.866-2.73 2.913-2.43 2.048-4.94 3.745-5.6 3.773-.65.028-1.06.643-.91 1.366.24 1.195-3.58 4.044-5.56 4.14-.45.021-1.62 1.181-2.6 2.576-.98 1.394-2.32 2.198-2.99 1.785-.71-.436-.9-.233-.45.485.72 1.167-3.45 4.31-5.11 3.847-.42-.118-1.08.781-1.47 2-.39 1.22-1.55 2.224-2.59 2.233-1.39.013-1.51.254-.45.923 2.11 1.341 2.65 7.71.72 8.453-.88.334-1.61 1.254-1.63 2.043-.1 3.733-4.09 6.516-7.11 4.951-1.59-.824-2.53-1.854-2.1-2.287.43-.434.01-.49-.93-.129-2.33.895-8.44-3.883-6.5-5.084.78-.48 1.53-1.544 1.67-2.363.13-.819.6-2.37 1.03-3.446.56-1.397.26-1.959-1.07-1.959-1.03 0-1.59-.457-1.24-1.015.34-.557-.38-.75-1.61-.429-1.23.323-2.24.04-2.24-.629 0-.668-.76-.924-1.68-.57-.92.354-1.68.057-1.68-.66 0-.718-.45-1.03-.99-.693-1.36.84-7.96-1.562-7.96-2.894 0-.59-.51-.765-1.12-.384-.62.38-1.12.128-1.12-.56 0-.688-.5-.94-1.12-.559-.61.38-1.12.157-1.12-.494 0-.65-.37-1.065-.84-.919-1.41.45-8.11-2.709-8.11-3.825 0-.577-.5-.738-1.12-.358-.61.381-1.12.13-1.12-.56 0-.688-.48-.95-1.08-.585-.59.367-2.1-.358-3.35-1.613-1.26-1.253-2.28-1.905-2.28-1.45 0 .456-1.39-.668-3.08-2.496-1.69-1.828-2.95-3.712-2.8-4.185.16-.475-.3-.862-1.02-.862s-.98-.328-.58-.728c.4-.4-.14-1.393-1.212-2.203-2.343-1.78-3.275-1.887-4.148-.475zm-72.666 55.265c-1.909 1.528-2.924 3.15-2.45 3.912.442.718.287 1.305-.346 1.305-.632 0-.828.838-.435 1.862.477 1.243.284 1.596-.582 1.061-.846-.524-1.066-.199-.63.935.368.958.081 1.737-.638 1.737-.717 0-.994.504-.613 1.12.38.615.212 1.12-.372 1.12-1.079 0-5.212 8.808-4.857 10.35.106.463-.249.84-.79.84-.54 0-1.65 1.636-2.466 3.637-.815 2.001-2.26 4.304-3.212 5.12-.953.814-1.1 1.162-.333.772 2.748-1.39 1.323.874-3.357 5.342-2.615 2.497-3.748 3.86-2.517 3.03 1.231-.83-1.164 1.643-5.322 5.498-4.159 3.855-7.228 7.547-6.822 8.205.44.71.212.87-.56.393-.727-.449-1.595-.035-1.969.94-.368.96-1.075 1.492-1.573 1.184-.497-.308-1.992.83-3.322 2.525-1.33 1.695-2.075 2.412-1.654 1.594.42-.819-1.012-.325-3.182 1.097-2.169 1.423-3.737 2.921-3.484 3.331.674 1.091-2.884 2.23-4.278 1.368-.659-.407-.866-.212-.464.44.821 1.33-2.28 2.868-3.839 1.905-.56-.346-1.018-.066-1.018.622s-.43.986-.954.662c-1.212-.749-7.998 1.766-7.998 2.962 0 .492-1.334.561-2.964.151-2.108-.529-2.733-.368-2.16.556.441.716 1.275 1.01 1.852.653.578-.357 1.352.138 1.721 1.101.37.961 1.402 1.75 2.296 1.75.894 0 1.38.397 1.078.884-.3.487 1.181.684 3.291.438 2.437-.286 3.838.03 3.838.86 0 .718.451 1.028 1.002.688.551-.342 1.29.133 1.643 1.053.353.92.28 1.672-.162 1.673-.443 0-.882 1.325-.974 2.943-.094 1.62-.598 3.256-1.119 3.637-.523.381-1.06 2.2-1.197 4.04-.136 1.84-.737 3.51-1.336 3.71-.598.198-.81 1.085-.472 1.97.34.882.075 1.605-.587 1.605-.662 0-.934.704-.602 1.565.33.861.083 1.885-.547 2.274-.63.39-.862 1.45-.515 2.352.345.903.12 1.643-.504 1.643s-.87 1.007-.549 2.238c.322 1.231.107 2.238-.477 2.238-3.748 0-.238 5.294 5.336 8.05 6.021 2.975 10.137 3.934 9.88 2.302-.398-2.517.275-4.8 1.24-4.205.632.392.82-.057.44-1.053-.368-.955-.167-1.737.446-1.737s1.091-.628 1.062-1.398c-.13-3.51.385-5.397 1.316-4.822.557.346.731-.458.383-1.787-.404-1.548-.204-2.15.56-1.679.715.442 1.013-.045.748-1.224-1.056-4.67 5.696-20.736 8.857-21.073 1.641-.176 2.984.104 2.984.62s1.007.674 2.238.352c1.231-.322 2.238-.039 2.238.63 0 .668.755.924 1.68.57.922-.355 1.677-.157 1.677.44 0 .595 1.334.828 2.964.516 1.797-.344 2.695-.13 2.28.542-.447.72 1.35.785 5.14.186 3.204-.507 5.998-1.439 6.21-2.07.21-.634.856-.859 1.433-.502.58.357.98.235.891-.273-.392-2.257.197-3.795 1.212-3.169.657.407.807-.096.37-1.236-.498-1.295-.315-1.66.56-1.119.82.508 1.071.218.683-.792-.335-.876.047-2.287.852-3.136.806-.848 1.48-2.046 1.498-2.662.1-3.235 1.96-8.33 2.841-7.786.56.346.716-.153.35-1.109-.367-.955-.166-1.737.447-1.737s1.091-.629 1.062-1.399c-.123-3.318.362-5.41 1.14-4.927.463.286.645-1.824.408-4.69-1.186-14.31-1.243-45.425-.08-43.82 1.001 1.38 1.11 1.28.616-.56-.33-1.23-.74-4.378-.912-6.994l-.31-4.75c0 .002-1.467 1.177-3.259 2.61zM1075.39 391.8c.75.473.06.83-1.61.84-3.8.022-9.78 2.08-13.45 4.631-1.6 1.12-3.17 1.785-3.47 1.48-.31-.304-1.26.341-2.11 1.433-1.37 1.738-1.35 1.845.17.866 1.36-.88 1.34-.757-.09.582-1 .936-1.58 2.39-1.3 3.233.34 1.016.02 1.233-.93.645-.94-.583-1.16-.443-.64.403.44.71.46 1.848.04 2.53-1.4 2.26-1.71 12.192-.38 12.192.69 0 .96.755.6 1.678-.35.924-.12 1.68.51 1.68s.91.382.62.851c-1.32 2.143 2.53 4.575 8.28 5.221 3.36.378 8.42.964 11.24 1.304l5.13.617 2.58-8.193a3726.11 3726.11 0 0 1 6.34-19.793c2.06-6.379 3.75-11.919 3.75-12.31 0-.392-3.73-.712-8.29-.712-4.56 0-7.7.37-6.99.822z" clip-rule="evenodd"/><path fill="#f55741" fill-rule="evenodd" d="M875.146 151.764c-1.13 1.693-3.188 5.49-4.57 8.434l-2.516 5.356 2.957 1.125c3.421 1.3 5.928.65 5.928-1.54 0-.838 1.257-4.002 2.793-7.03 4.588-9.045.754-14.344-4.592-6.345zM713.182 222.27c-1.63 17.272.016 79.775 2.646 100.442 1.165 9.152.846-1.16-1.28-41.408-.682-12.926-.973-33.196-.646-45.044.628-22.785.446-26.34-.72-13.99zm342.318 4.282c-1.03 1.035-1.6 2.61-1.26 3.497.83 2.165-1.28 5.931-3.33 5.931-.9 0-1.64.442-1.64.982 0 1.95 3.4 3.746 6.12 3.228 1.52-.29 2.5-.099 2.17.427-1.25 2.031 4.9.84 6.86-1.328 2.02-2.232 2.01-2.3-.28-2.9-1.99-.522-2.32-1.397-2.17-5.828.19-5.86-2.78-7.702-6.47-4.009z" clip-rule="evenodd"/><path fill="#f7efd7" fill-rule="evenodd" d="M662.994 198.92c-4.73 1.001-7.61 3.033-7.61 5.366 0 .886-.505 1.298-1.12.917-.615-.38-1.119.375-1.119 1.68 0 1.302-.504 2.058-1.119 1.677-.615-.38-1.119.094-1.119 1.054 0 .96-.504 1.744-1.119 1.744s-1.119.78-1.119 1.733c0 .952-1.385 3.05-3.077 4.66-1.692 1.61-2.362 2.51-1.487 2 .964-.562.744.2-.56 1.94-1.183 1.576-2.54 2.63-3.017 2.34-.476-.292-.732-.114-.568.394.492 1.517-3.166 6.012-4.16 5.112-.504-.457-.602-.277-.214.402.386.678-.074 2.19-1.023 3.357-.949 1.168-1.356 1.368-.904.445.483-.987.401-1.295-.197-.747-.56.514-1.062 1.27-1.115 1.68-.284 2.192-1.946 4.57-2.819 4.03-.55-.34-1 .057-1 .884 0 1.712-12.292 14.24-12.344 12.58-.019-.594-.55-.196-1.18.888-1.812 3.112-13.243 11.088-14.648 10.221-.823-.509-.958-.28-.38.652.582.943.377 1.267-.597.942-.817-.27-2.436.457-3.6 1.621-1.162 1.163-2.856 1.83-3.764 1.482-1.06-.408-1.364-.169-.849.662.535.866.182 1.06-1.06.582-1.026-.393-1.863-.173-1.863.49 0 .662-.78.904-1.737.536-1.125-.432-1.458-.214-.944.617.54.872.021 1.081-1.62.651-1.328-.347-2.413-.119-2.413.505 0 .666-1.272.841-3.077.421-2.418-.562-2.718-.449-1.399.528 1.282.95.535 1.085-3.16.568-2.82-.394-4.573-.25-4.205.348.348.563-1.25 1.252-3.554 1.531-2.303.278-4.324.175-4.49-.229-.168-.404-3.44-.545-7.274-.313-5.09.31-6.517.105-5.292-.752 1.031-.72 1.164-1.18.346-1.192-.733-.009-1.652.5-2.042 1.133-.39.631-1.554 1.01-2.584.84-1.245-.207-2.003.596-2.256 2.388-.3 2.122-.612 2.362-1.46 1.12-.745-1.092-.934-.116-.608 3.15.262 2.625.026 4.453-.532 4.11-.55-.342-1 1.306-.998 3.663.006 4.736-.225 7.618-2.618 32.821-.907 9.54-1.695 19.361-1.753 21.823-2.668 115.273.778 128.835 33.528 131.91 2.77.26 9.066 1.028 13.992 1.708 4.926.68 12.731 1.323 17.344 1.428 4.614.104 9.203.59 10.2 1.08.996.488 2.09.608 2.433.266.604-.604 4.33-.933 22.281-1.966 4.743-.273 9.128-.809 9.747-1.19.618-.384 2.781-.592 4.806-.465 3.496.22 11.92-1.34 19.427-3.598 1.89-.569 4.995-1.033 6.901-1.033 1.904 0 3.631-.389 3.837-.863.557-1.289 16.6-4.865 17.984-4.008.658.407.891.243.516-.363-.658-1.065 13.208-4.616 15.34-3.929.56.181 1.318-.16 1.687-.757.37-.597 2.178-1.299 4.02-1.56 1.84-.262 4.103-.79 5.026-1.179.923-.386 2.937-.856 4.476-1.045 1.54-.188 3.428-.736 4.196-1.219.77-.482 1.868-.587 2.441-.234.573.355 1.378.1 1.791-.569.413-.667 1.423-.956 2.244-.64.82.314 1.65.128 1.844-.415.194-.543 1.611-1.19 3.15-1.44 1.54-.25 4.247-1.048 6.017-1.775 4.501-1.846 11.657-3.364 12.392-2.628.338.338.614.05.614-.64 0-.69 1.89-1.599 4.196-2.018 27.711-5.039 35.96-23.925 26.461-60.59-2.833-10.938-5.4-20.979-5.708-22.315-.475-2.072-1.118-2.338-4.36-1.812-2.462.4-3.804.168-3.804-.658 0-.883-1.979-1.072-6.434-.616-4.712.484-5.986.342-4.756-.532 1.66-1.18-4.7-1.98-10.63-1.34-3.27.355-15.143-2.28-14.556-3.23.275-.445-.818-.558-2.43-.25-2.204.421-2.707.2-2.03-.895.62-1.002.46-1.183-.513-.582-1.478.915-10.125-1.447-10.125-2.764 0-2.01-5.235-3.069-7.895-1.595-1.505.834-2.34 1.534-1.857 1.556.483.021.332 1.061-.336 2.31-.668 1.247-1.705 1.965-2.305 1.595-.6-.372-.952-.25-.783.27.382 1.173-4.233 7.177-4.96 6.451-.289-.29-1.49.6-2.665 1.978-2.117 2.481-2.116 2.49.1.908 1.23-.878-.66 1.413-4.2 5.091-4.12 4.282-7.457 6.773-9.269 6.923-5.418.448-2.756-4.61 8.092-15.377 5.601-5.56 9.888-10.11 9.526-10.11-.364 0 .272-.68 1.41-1.514 1.947-1.424 1.96-1.674.215-4.167-1.022-1.458-1.858-2.267-1.858-1.799 0 .47-1.123-.194-2.495-1.473-1.373-1.278-3.639-2.612-5.036-2.962-1.398-.35-2.54-1.117-2.54-1.7 0-.587-.427-.8-.95-.479-.52.323-2.01-.403-3.31-1.613-1.298-1.21-2.849-2.199-3.447-2.199-.596 0-1.754-.669-2.573-1.487-.818-.819-2.798-2.204-4.4-3.078-5.87-3.205-12.176-7.802-12.176-8.879 0-.608-.73-1.105-1.623-1.105s-2.116-.88-2.719-1.958c-.603-1.077-1.508-1.897-2.014-1.82-1.897.282-3.676-.976-2.976-2.107.401-.65.194-.846-.464-.44-.654.405-2.463-.777-4.017-2.624-1.555-1.849-3.255-3.36-3.778-3.36-1.316 0-12.622-11.569-12.622-12.917 0-5.79 11.02-.574 13.733 6.501.41 1.067 1.33 1.94 2.046 1.94.717 0 2.286 1.131 3.487 2.517 1.201 1.385 2.587 2.518 3.08 2.518 1.793 0 16.721 11.475 15.942 12.254-.44.441-.267.635.387.43 1.648-.518 11.708 5.95 11.011 7.078-.31.504.164.636 1.057.292.893-.342 2.004-.006 2.47.746.586.95.364 1.09-.726.456-.93-.539-1.192-.495-.64.108.513.56 1.27 1.043 1.678 1.073 2.255.167 5.741 1.905 5.29 2.637-.29.47.095.852.856.852 1.834 0 7.47 3.73 7.47 4.944 0 .524.837.633 1.861.24 1.243-.478 1.596-.284 1.061.582-.524.846-.199 1.066.935.63.956-.367 1.76-.99 1.787-1.386.028-.397.257-3.49.508-6.875.296-3.962.148-5.158-.413-3.358-1.009 3.246-1.875-5.98-3.518-37.49-1.784-34.253-1.177-76.41 1.084-75.014.411.255.718-1.565.68-4.045-.062-3.969-.49-4.684-3.598-5.99-11.612-4.883-38.792-8.389-48.727-6.288zm235.772 45.592c-6.229.853-54.977 11.681-61.545 13.67l-3.357 1.017 3.15 1.26c1.732.693 3.843 1.26 4.692 1.26.848 0 2.326 1.12 3.284 2.488.958 1.367 1.742 2.044 1.742 1.505 0-.54.995-.082 2.211 1.02 1.217 1.1 1.891 2.563 1.5 3.251-.392.687-.304.878.198.424 1.217-1.103 6.36 5.971 5.662 7.79-.302.784-.03 1.428.601 1.428.633 0 .84.504.46 1.12-.382.615-.106 1.118.612 1.118.717 0 1.027.723.688 1.606-.339.884-.015 1.808.72 2.052.876.292 1.471 4.212 1.728 11.4.307 8.584.088 10.765-1.013 10.085-1.062-.657-1.238-.024-.717 2.582.383 1.914.201 3.616-.408 3.82-.604.202-1.214 2-1.355 3.993-.14 1.996-.618 3.628-1.06 3.63-.443.001-.515.757-.16 1.68.354.924.056 1.68-.66 1.68-.719 0-.995.503-.614 1.118.38.616.128 1.12-.56 1.12-.688 0-.94.503-.559 1.118.38.616.128 1.12-.56 1.12-.688 0-.94.501-.563 1.114.38.612-.724 2.458-2.45 4.1-1.728 1.642-2.413 2.56-1.522 2.041 2.248-1.312-2.389 5.02-5.89 8.042-1.546 1.335-3.07 2.168-3.389 1.85-.318-.318-1.238.478-2.043 1.77-.807 1.29-2.075 2.346-2.82 2.346-.744 0-1.867.882-2.494 1.958-.628 1.077-1.156 1.55-1.175 1.048-.026-.699-6.663 2.306-10.03 4.544-4.07 2.702 4.468 2.236 25.662-1.403 27.391-4.703 54.494-29.514 68.373-62.592 3.173-7.56 5.787-12.194 7.354-13.038 3.776-2.03 4.841-14.452 1.24-14.452-.613 0-.825-.755-.47-1.678.354-.924.102-1.679-.559-1.679-.663 0-.904-.78-.537-1.737.435-1.135.215-1.459-.63-.935-.874.54-1.057.175-.56-1.12.438-1.14.288-1.642-.369-1.236-1.046.646-1.289.17-1.555-3.04-.45-5.458-12.127-11.37-20.253-10.258z" clip-rule="evenodd"/><path fill="#f55741" d="M651.258 123.103c1.672.438 1.668.33 1.12-.559-.549-.889.76-.717 3.47-.717 3.332 0 5.588.45 7.16 3.515 1.025 2 1.007 4.074 1.602 4.46 1.783 1.151-.27 7.612-2.86 8.998-2.703 1.446-8.956 2.817-8.879 1.826-.534-.042-2.907-1.499-4.016-2.472-1.34-1.175-2.215-2.36-1.943-2.632.272-.273-.675-1.396-1.249-2.906-1.537-4.043 2.301-10.374 5.595-9.513z"/><path fill="#dbb385" fill-rule="evenodd" d="M655.387 87.977c-4.573 4.318-10.914 6.32-17.629 5.563-4.435-.5-4.826-.328-5.426 2.403-3.266 14.874-6.187 18.283-12.179 14.217-13.32-9.04-28.552-1.285-28.552 14.54 0 6.51 5.67 12.942 13.188 14.967 5.262 1.418 5.448 1.994 2.977 9.247-2.207 6.476-8.44 13.81-13.202 15.531l-3.678 1.33 2.884 3.16 2.885 3.16 22.56.324c12.407.18 22.357.127 22.111-.118-.905-.9 4.462-4.648 5.88-4.104.805.31 1.464.045 1.464-.588s.503-.839 1.12-.459c.614.381 1.118.13 1.118-.559 0-.688.503-.94 1.12-.56.614.381 1.118.074 1.118-.68s.272-1.099.605-.766c.332.333 3.48-2.2 6.994-5.632 3.514-3.43 6.766-6.137 7.228-6.014.462.122.713-.245.56-.817-.154-.573.726-1.869 1.957-2.882 1.231-1.012 1.483-1.514.56-1.115-.923.4-.672-.088.56-1.084 1.23-.995 2.111-2.04 1.958-2.32-.722-1.32-.162-2.81.826-2.199.634.391.822-.057.44-1.053-.368-.958-.08-1.737.638-1.737.717 0 .994-.504.613-1.119-.38-.616-.174-1.119.46-1.119.631 0 .858-.756.505-1.679-.355-.923-.103-1.679.56-1.679.662 0 .881-.837.488-1.862-.49-1.28-.292-1.6.64-1.025.994.614 1.15.024.586-2.222-.498-1.986-.363-2.809.385-2.346.736.455 1.122-1.306 1.068-4.87-.046-3.07-.55-5.58-1.12-5.58-.569 0-.772-1.009-.45-2.24.373-1.426.148-1.97-.619-1.495-.762.471-.942.06-.49-1.118.393-1.026.174-1.863-.489-1.863-.662 0-.904-.78-.537-1.737.436-1.134.216-1.459-.63-.935-.874.54-1.056.176-.559-1.119.495-1.294.313-1.659-.56-1.119-.874.54-1.056.175-.559-1.119.437-1.14.287-1.643-.37-1.237-1.014.627-1.603-.912-1.21-3.168.087-.508-.357-.605-.987-.214-.63.39-1.21.175-1.287-.477-.077-.65-.203-1.646-.28-2.21-.077-.565-.599-1.446-1.158-1.96-.592-.54-.682-.346-.214.467 1.807 3.141-.35 1.1-3.23-3.058-1.699-2.45-3.608-4.136-4.24-3.744-.636.392-.83.188-.435-.452 2.02-3.268-2.352-2.87-5.966.544zm-.644 14.342c3.906 3.907 4.587 17.777.921 18.736-1.288.337-.973.556.924.641 8.322.375 11.615 13.741 4.315 17.515-9.529 4.928-18.704-3.64-13.883-12.965.94-1.815 2.546-3.3 3.571-3.3 1.7 0 1.705-.125.076-1.4-4.049-3.168-4.494-17.588-.619-20.048 2.02-1.283 2.712-1.162 4.695.821zm158.998 85.914c-.99 1.33-1.483 1.664-1.095.74.388-.923-.89.084-2.84 2.24-1.95 2.153-3.196 3.16-2.769 2.237.427-.923-.574-.168-2.225 1.68-1.65 1.845-2.615 2.601-2.143 1.677.472-.923-.876.101-2.996 2.275-2.12 2.175-6.12 5.9-8.89 8.276-2.77 2.38-4.28 3.961-3.357 3.518.923-.443.671.01-.56 1.005-1.23.995-2.238 2.31-2.238 2.922 0 .611-.755 1.59-1.678 2.172-.923.584-1.204 1.07-.626 1.08.58.008.076.808-1.119 1.777-1.194.97-1.5 1.417-.68.996 1.106-.567 1.026.133-.309 2.715-.99 1.914-2.374 3.481-3.076 3.481-.703 0-.949.328-.548.728.4.401-.146 1.446-1.213 2.321-1.067.877-1.307 1.272-.533.88 1.11-.564 1.135-.118.115 2.12-.709 1.56-1.714 2.571-2.233 2.251-.518-.32-.657.16-.309 1.068.348.908-.413 2.696-1.692 3.975-1.278 1.278-2.037 2.325-1.685 2.325.352 0-.189.83-1.202 1.842-4.397 4.397 18.13 19.421 29.12 19.421 12.85 0 16.395-1.053 15.61-4.637-.417-1.888-.236-3.197.438-3.197.718 0 .965-3.026.666-8.114-.35-5.974-.193-7.376.598-5.315.751 1.954.89-.318.461-7.529-.338-5.679-.212-10.967.281-11.75.493-.784.907-5.62.922-10.745.021-8.012.34-9.552 2.262-10.96 1.231-.902 2.113-1.87 1.96-2.15-.727-1.327-.16-2.808.838-2.19.615.38 1.175.031 1.243-.774.35-4.107.392-9.626.072-9.307-.2.2-1.805-.05-3.567-.555-2.616-.75-3.53-.477-5.003 1.501zm180.717 21.593c-.019 1.418-3.12 2.583-8.938 3.362-2.137.286-4.226 1.071-4.642 1.746-.418.673-1.565.915-2.55.537-.985-.378-1.79-.166-1.79.472 0 .65-.985.847-2.239.45-1.378-.439-2.238-.202-2.238.613 0 .775-.93 1.083-2.238.74-1.23-.32-2.238-.098-2.238.496s-.527.754-1.172.356c-1.457-.9-12.256 1.6-12.256 2.837 0 .497-1.007.64-2.238.318-1.3-.34-2.238-.035-2.238.73 0 .723-.494 1.011-1.096.638-1.429-.883-10.094 1.715-10.094 3.026 0 .556-.494.704-1.096.332-1.815-1.122-5.635 1.565-13.316 9.366-4.01 4.073-6.544 6.902-5.628 6.287.915-.616.157.21-1.682 1.834l-3.347 2.952 3.468 3.951c4.181 4.763 8.364 15.294 8.577 21.596.152 4.503.216 4.573 3.227 3.53 1.69-.585 10.076-.889 18.637-.676 9.142.227 15.307-.033 14.938-.629-.346-.559.457-.73 1.784-.384 1.327.347 2.413.121 2.413-.504 0-.623.781-.834 1.737-.467.995.382 1.444.194 1.053-.439-.627-1.015.911-1.604 3.167-1.212.508.088.602-.36.21-.994-.393-.636.07-1.456 1.03-1.824.958-.369 1.464-1.119 1.123-1.67-.34-.552-.056-1.003.632-1.003.688 0 .94-.503.56-1.119-.38-.615-.229-1.119.337-1.119.568 0 .81-1.386.54-3.078-.31-1.937-.132-2.57.48-1.71.591.83 1.038-2.012 1.138-7.229.116-6.076-.167-8.117-.965-6.962-.838 1.212-1.017.71-.694-1.945.266-2.173.003-3.31-.67-2.894-.647.4-.815-.075-.406-1.143.386-1.005.142-2.172-.542-2.594-.798-.494-.95-.205-.427.802.447.865.098.7-.778-.368-.875-1.068-1.92-1.614-2.32-1.213-.4.401-.729-.123-.729-1.164 0-1.209 1.214-2.136 3.357-2.565 1.846-.369 3.357-1.097 3.357-1.616 0-.519.755-.654 1.678-.3.925.355 1.68.034 1.68-.714s.753-1.069 1.677-.714c.924.354 1.68.097 1.68-.57 0-.669 1.006-.952 2.237-.63 1.231.321 2.238.095 2.238-.504 0-.603 1.064-.753 2.378-.335 1.707.542 2.142.371 1.538-.604-.609-.987-.15-1.14 1.68-.56 1.714.545 2.273.404 1.751-.44-.955-1.545 0-1.578 2.772-.094 1.735.927 2.015.817 1.485-.572-.479-1.237-.16-1.524 1.14-1.025.99.381 1.8.15 1.8-.512 0-.663.84-.882 1.86-.489 1.26.481 1.6.286 1.06-.595-.69-1.114.34-1.702 2.68-1.534.84.062.43-8.242-.49-9.727-.97-1.582-11.802-1.18-11.833.44-.013.615-.51.363-1.107-.56s-1.092-1.108-1.102-.41zm-493.84 570.766c.321.835-.033 1.52-.786 1.52-.818 0-1.134.9-.784 2.237.321 1.231.12 2.238-.45 2.238-.57 0-.7 1.334-.292 2.965.524 2.087.364 2.73-.538 2.172-1.283-.793-1.88 2.587-1.414 8.013.12 1.384-.346 2.518-1.034 2.518-.818 0-.985 1.21-.483 3.497.572 2.6.42 3.283-.589 2.658-1.014-.627-1.156.082-.56 2.798.582 2.65.443 3.418-.51 2.828-.96-.594-1.1.308-.525 3.38.594 3.166.451 3.982-.585 3.34-.96-.593-1.268-.056-1.028 1.798.188 1.453-.028 3.236-.479 3.961-.62.995 5.053 1.348 23.123 1.435l23.944.117.65-2.588c.357-1.423.357-3.705 0-5.072-.41-1.568-.144-2.484.721-2.484.903 0 1.131-.954.668-2.798-.386-1.539-.219-2.798.37-2.798 1.023 0 1.201-1.147 1.265-8.154.018-1.992.475-2.84 1.268-2.35.847.523 1.011-.145.52-2.106-.449-1.789-.224-3.039.597-3.312 3.374-1.124-.343-3.93-6.105-4.608-8.73-1.025-25.016-5.947-31.768-9.599-3.488-1.886-5.547-2.523-5.196-1.606zM643.19 806.93l.151 20.903 23.252.117 23.25.118-.366-13.745c-.232-8.755-.046-12.122.516-9.27.731 3.706.91 2.803 1.041-5.25.187-11.45.398-11.229-9.24-9.632-5.74.951-10.375.907-19.488-.183-6.577-.787-13.216-1.496-14.754-1.576-1.539-.08-3.184-.65-3.655-1.265-.47-.616-.79 8.287-.707 19.783z" clip-rule="evenodd"/><path fill="#1a2223" d="M1146.88 384.922c.06-7.332 1.26-15.226 2.67-17.542 9.67-15.807 19.16 3.76 12.56 25.884-3.73 12.51-3.43 12.74 6.62 5.018 29.5-22.665 31.81 2.451 2.51 27.223-9.94 8.403-12.75 12.05-12.69 16.458l.09 5.665 3.2-6.44c8.18-16.482 22.12-18.382 21.99-2.999-.09 11.07-7.48 21.825-18.96 27.591-6.59 3.313-9.87 10.233-6.99 14.745 1.97 3.08 9.75-2.694 32.09-23.804 16.52-15.623 26.05-15.798 26-.476-.04 13.082-32.25 49.99-51.57 59.098-10.23 4.82-15.59 40.477-6.49 43.133 3.26.95 32.37-24.466 44.53-38.883 19.87-23.528 31.29-16.984 16.34 9.356-6.76 11.906-53.3 53.246-59.94 53.246-4.23 0-4.4.902-3.26 17.91 1.64 24.415 1.87 24.44 26.09 2.8 21.58-19.29 24.87-20.966 30.85-15.732 11.02 9.65 1.14 28.714-27.19 52.457-19.95 16.718-21.02 18.005-18.42 22.267 1.52 2.488 2.98 10.841 3.24 18.56.61 17.794 1.03 17.755 25.68-2.42 11.05-9.052 21.98-16.458 24.29-16.458 21.62 0-6.37 38.53-38.27 52.677-12.46 5.528-12.25 4.88-12.29 37.715-.03 29.798-1.84 39.334-7.45 39.334-7.22 0-8.3-5.295-8.74-42.916l-.43-37.436-38.98-13.7c-57.85-20.337-68.23-26.794-62.08-38.607 5.82-11.182 32.3-5.675 84.92 17.658 16.83 7.464 17.24 7.168 17.24-12.477 0-16.134-.3-17.236-5.25-19.21-13.65-5.442-61.59-37.954-65.82-44.638-12.14-19.149 16.89-14.75 50.94 7.721 14.63 9.664 19.31 11.426 17.13 6.471-.69-1.582-1.92-10.58-2.74-19.999l-1.47-17.124-17.74-11.464c-36.63-23.676-53.46-41.78-45.41-48.833 5.99-5.24 13.27-2.188 38.34 16.071 30.27 22.057 27.6 21.776 27.6 2.904 0-11.087-.79-15.498-2.77-15.517-9.45-.097-54.76-39.628-54.76-47.78 0-16.829 12.96-17.69 33.17-2.203 25.97 19.902 24.36 19.523 24.36 5.714 0-6.52-.9-11.854-2-11.854-7.87 0-42.47-27.748-41.83-33.547 1.1-9.9 8.19-9.148 25.16 2.665 7.94 5.53 14.69 9.731 15 9.336 4.17-5.324-1.94-23.18-9.51-27.765-10.66-6.47-17.61-17.143-14.23-21.873 3.92-5.468 12.97-5.265 18.07.406 6.22 6.924 6.5 6.574 6.6-8.386zm180.36 117.395c-.53-53.507-.54-98.373-.02-99.705 1.39-3.58 8.85-2.938 11.23.968 3.36 5.5 11.04 196.972 8.01 199.623-.57.501-4.92-.105-9.65-1.346l-8.61-2.256zM201.067 647.445c0-160.512.621-210.235 2.655-212.015 1.46-1.278 4.248-2.323 6.195-2.323 8.693 0 8.85 1.665 8.85 94.293 0 100.822-1.332 94.102 16.81 84.798 11.694-5.998 16.978-12.167 29.654-34.627 10.208-18.088 14.567-21.267 14.136-10.306-.71 18.068-25.834 48.368-46.243 55.77l-12.144 4.405v229.696h-19.913z"/><path fill="#9f9b8d" d="M615.01 14.672c2.09-5.935 6.5-11.443 10.584-13.22 7.718-3.36 16.7-.695 20.15 5.978 2.218 4.29 5.163 6.8 5.163 4.4 0-2.993 6.512-7.51 10.83-7.51 4.55 0 11.55 5.996 11.55 9.894 0 3.655 2.134 3.97 4.71.696 7.093-9.02 20.761-6.24 22.802 4.637.974 5.19-.096 8.678-4.038 13.17l-3.35 3.815 3.926 3.927c8.126 8.127 2.963 19.08-10.294 21.834-3.709.77-4.3 1.346-4.865 4.746-1.482 8.912-6.477 13.565-15.316 14.268-5.66.45-6.829.973-9.62 4.312-4.74 5.668-9.105 7.518-17.804 7.547-7.087.024-7.554.182-7.554 2.55 0 3.32-4.167 14.391-5.984 15.9-1.043.865-2.544.385-5.6-1.789-5.683-4.044-15.385-4.773-20.527-1.544-13.445 8.448-10.443 27.756 4.917 31.624 5.807 1.462 5.858 2.642.57 13.213-7.597 15.188-28.17 15.733-36.886.98-2.239-3.792-3.686-3.97-6.534-.806-13.452 14.943-36.82 9.555-36.82-8.49v-5.96l-4.825-.544c-12.095-1.365-17.147-14.936-9.664-25.963 3.387-4.992 3.491-4.393-1.24-7.184-14.314-8.447-6.863-29.474 10.945-30.888 3.934-.312 4.713-.743 4.386-2.427-3.195-16.465 7.306-25.97 20.916-18.93l3.54 1.83v-5.64c0-11.415 12.257-18.04 21.174-11.446 4.37 3.23 4.064 3.404 6.255-3.563 4.622-14.694 20.765-23.252 31.878-16.9 4.18 2.39 5.006 2.076 6.625-2.517z"/><path fill="#000725" d="M651.363 121.813c-3.036.038-5.12-16.136-2.428-18.828 4.238-4.238 8.644 1.433 8.67 11.16.016 6.41-.956 7.602-6.242 7.668z"/></svg>