<svg xmlns="http://www.w3.org/2000/svg" fill="none" viewBox="69 0 1179.17 687.38"><path stroke="#404040" stroke-linecap="round" stroke-width="3" d="M294.01 95.183c29.607 15.914 63.029 19.021 96.32 18.542 15.752-.227 24.947-2.441 38.768-7.706 3.162-1.204-.145 6.878.843 10.114 3.88 12.709 9.416 20.164 19.746 29.136 20.321 17.652 47.88 27.348 74.046 31.786 28.33 4.806 75.424 8.723 99.691-11.799 12.224-10.338-1.28-18.358-10.836-19.264-20.804-1.973-46.04 7.187-57.311 25.525-13.123 21.354-1.29 48.314 14.689 64.293 30.014 30.014 71.126 28.184 110.527 32.508 7.873.864 15.726 1.906 23.599 2.769 4.82.529 16.941-1.556 14.327 2.529-12.906 20.166 11.908 42.772 27.572 54.541 37.657 28.294 82.536 26.344 126.66 20.588"/><path fill="#37484A" d="M270.56 393.95c6.152-3.478 11.457-7.292 16.013-12.185 5.599-6.005 9.652-13.032 12.731-20.457 3.492-8.413 5.963-17.252 8.882-25.896.133-.392.371-.756.56-1.134.391.315.846.574 1.161.959 7.062 8.609 13.991 17.315 21.186 25.812 6.348 7.496 13.235 14.417 22.158 18.988 5.704 2.925 11.709 4.381 18.512 4.703 10.54 2.988 28.632-8.98 27.757-19.667.434-4.892 1.106-9.42 1.68-13.956.882-6.963-1.687-13.213-4.99-18.931-8.917-15.426-19.121-30.032-29.591-44.443-5.732-7.888-11.317-15.88-17.098-23.726-8.147-11.044-19.002-18.848-30.977-25.154-13.2-6.95-26.533-13.669-39.81-20.465-1.343-.686-2.75-1.252-4.493-2.085-1.225.763-1.379 1.952-1.19 3.135 1.036 6.467.588 12.829-1.084 19.548 1.21 4.087 4.066 6.649 6.257 9.63 2.225 3.038 4.227 6.145 5.571 10.072 1.126 1.218 2.26 1.777 3.639 2.638 7.139 4.319 14.803 7.097 20.465 13.095 1.651 1.75 3.177 3.549 4.696 5.865 3.912 5.039 3.345 10.757 3.184 16.069-.231 7.629.329 15.398-1.903 22.88-.147.483-.371.945-.455 1.448.021-.475.245-.902.343-1.357 2.274-10.086 2.211-20.283 1.7-30.536-.133-2.681-.637-5.046-2.281-7.587-5.942-9.938-15.685-14.313-25.273-19.499-1.19-1.057-2.471-1.309-3.611-2.442-6.67 2.078-11.591-.385-15.923-4.956-2.477-2.61-4.682-5.494-7.838-7.964-15.657.308-28.031-7.111-40.139-15.118-7.58-5.011-8.447-5.102-14.466 1.785-3.857 4.409-7.055 9.336-9.694 14.551-3.408 6.739-8.461 9.917-16.237 10.61-9.876.875-19.814 1.204-29.92 2.939 5.438 6.894 13.123 10.653 20.597 14.67 3.682 1.974 7.51 3.667 11.325 5.851 6.522 3.737 13.535 5.872 20.317 9.511 9.169 4.865 18.652 8.091 27.506 12.682 7.537 3.913 9.602 8.735 7.649 16.923-2.463 10.373-5.928 20.472-8.356 30.837-3.486 14.859-3.423 29.109 9.336 40.776 10.568 5.396 21.025 6.075 32.104 1.581Z"/><path fill="#CBE0E4" d="M272.919 240.97c.188-1.4-.07-2.562.335-3.416 3.171-6.74 2.065-13.57.63-20.947-5.074-9.736-12.073-17.42-19.358-25.294-.756-1.12-1.281-1.995-1.974-3.114-.623-.63-1.176-.868-1.722-1.554.084-.672-.966-.329-.399-.637.532.924 1.155 1.372 1.974 2.051.518.748.917 1.196 1.799 1.469 6.488 2.394 12.703 2.856 19.365 1.862 9.253-1.379 17.735-4.577 25.861-8.895 5.431-2.891 10.218-6.691 13.48-12.101 2.128-3.528 3.471-7.181 3.611-11.444.259-7.999-1.567-15.614-3.583-23.194-2.093-7.852-4.283-15.705-6.957-23.376-3.317-9.497-6.537-19.135-14.432-26.197-3.541-3.163-7.201-5.662-12.674-4.94-5.991-1.561-11.863.804-15.398 5.815-1.505 2.128-1.974 4.683-3.408 7.258-1.932 8.644-.042 16.804.665 24.993.147 1.708.636 3.394.342 5.123-.538 3.164-2.351 4.43-5.522 3.682-7.005-1.659-21.157-17.197-21.99-24.146-.126-1.05-.14-2.142.35-3.038 3.688-6.81.966-11.45-5.256-15.3-4.269-2.288-7.727-5.179-12.115-7.166-6.46-2.66-8.651-1.246-10.232 4.262-.189.658-.455 1.288-.763 2.324 1.581 5.858 6.936 7.467 10.764 10.645 1.533 1.274 3.387 2.233 5.151 3.24-1.862-.86-3.492-2.113-5.242-3.163-3.975-2.38-7.286-5.641-11.331-8.49-8.413 1.085-13.774 6.341-18.4 12.381-9.057 11.821-16.37 24.755-22.893 38.095-6.369 13.039-12.717 26.113-18.295 39.494-4.928 11.835-8.917 24.069-13.046 36.219-2.835 8.336-5.354 16.784-7.706 25.266a75.38 75.38 0 0 0-2.379 13.025c-.413 4.423 1.434 6.705 5.872 7.335 6.928.98 13.92 1.54 21.339 2.288 8.161-.349 15.873-.657 23.579-1.098 4.094-.238 8.259-.35 12.248-1.176 3.653-.756 7.076-2.45 9.211-5.886 3.408-5.473 6.662-11.051 10.309-16.357 1.918-2.785 4.493-5.13 6.866-7.586 1.245-1.288 2.155-1.001 3.821.175 9.56 6.726 19.401 13.074 30.753 16.461 4.402 1.316 8.923 2.121 13.935 1.015 5.921 1.323 9.252-2.226 12.815-5.963Z"/><path fill="#6D4F2C" d="M142.075 282.305c-2.771-.273-5.193-.539-7.58-.357-11.898.917-24.076-9.911-27.134-18.932a95.616 95.616 0 0 1-3.975-16.293c-.511-3.36-1.33-6.677-2.093-9.988-1.036-4.479-2.219-8.923-3.213-13.417-.587-2.659-.923-5.375-1.21-8.678-.056-1.113-.413-1.484-1.281-1.855-3.563-.364-6.747-.854-10.274-.287-.294 1.442-.47 2.688-.21 3.829 1.861 8.139 3.905 16.244 5.71 24.398 1.582 7.152 2.52 14.466 4.536 21.486 1.28 4.451 3.43 8.944 6.236 12.612 5.592 7.314 12.437 13.284 21.78 15.607 2.275.567 5.375 1.022 6.376 2.611 1.015 1.603-.105 4.549-.294 6.908-.7 8.909-1.357 17.826-2.12 26.728-.966 11.303-2.156 22.586-3.01 33.896-.903 11.996-1.491 24.02-2.295 36.03-.231 3.429-.791 6.838-1.071 10.267a2437.096 2437.096 0 0 0-1.911 24.671c-.056.763.259 1.547.399 2.324.763-.357 1.687-.546 2.254-1.106.944-.924 1.833-1.988 2.449-3.15 2.156-4.066 3.619-8.342 4.2-12.976.972-7.81 2.442-15.565 3.345-23.383 1.12-9.714 1.876-19.477 2.799-29.22.273-2.904.63-5.795.896-8.699 1.092-11.793 2.142-23.601 3.255-35.394.245-2.561.777-5.102 1.029-7.663.406-4.102.602-8.217 1.049-12.311.245-2.198.826-4.354 1.603-6.754 3.633-4.801 3.584-7.055-.245-10.904Z"/><path fill="#37484A" d="M215.339 30.095c-.098-13.011-7.272-24.076-19.639-28.8-2.652-1.015-5.732-1.372-8.587-1.281-11.758.357-20.787 5.368-26.05 16.23-5.459 11.282-2.932 23.096 5.2 31.628 7.034 7.383 16.105 10.148 26.099 8.496 4.262-.707 8.364-2.722 12.017-5.85 7.461-4.816 10.435-11.87 10.96-20.423Z"/><path fill="#1A2223" d="M96.163 213.394c.539.35.693.497.847.651 3.45 5.739 6.928 7.664 11.912 6.572 5.949-1.302 9.63-6.537 8.811-13.018-.511-4.052-1.162-8.154-2.358-12.045-3.878-12.605-7.734-25.231-12.185-37.633-2.779-7.755-6.614-15.131-9.974-22.676-2.19-4.927-6.635-6.95-11.345-8.231-3.625-.987-6.579 1.064-9.308 3.759-1.645 3.205-1.855 6.264-.89 9.294 7.308 22.865 14.628 45.731 21.753 68.652.504 1.624.896 3.331 2.737 4.675Z"/><path fill="#5F6B00" d="M420.252 380.216c3.932-1.825 3.925-1.822 5.777 1.634.394.734.906 1.409 1.369 2.108-.062-.729.032-1.505-.195-2.174-.822-2.423.41-3.68 2.496-4.159 3.463-.797 13.01-12.83 16.529-13.343 1.702-.246 3.855-1.527 5.058.719 1.477 2.759 3.485 5.219 1.272 8.96-7.321 12.391-20.279 36.395-27.355 48.929-1.827 3.233-2.22 3.4-4.804 1.199-7.335-6.248-14.605-12.585-21.875-18.905-.376-.328-.578-.853-1.141-1.58-1.268-1.893-.446-3.295.314-4.587 3.514-6.012 6.824-12.163 11.56-17.772 3.031-2.383 5.97-2.336 9.256-.779.558.424.809.642 1.03 1.127.079.172-.083.504.07.388.086-.639.328-1.059.639-1.765Zm-120.269 55.346c-16.944.329-47.153.014-63.783 0-3.842 0-4.017-.063-3.737-3.996.371-5.263 1.092-10.505 1.561-15.769.245-2.722.273-5.466.399-8.664 1.707-2.94 4.36-2.961 6.921-2.996 5.824-.091 11.654-.154 17.89.091 2.75.371 4.836 1.379 5.795 3.535.692 1.553 1.721 2.113 3.058 2.911 1.932 1.155 6.096 2.296 1.722 5.634-.098.077-.329.014-.28.252.301-.161.616-.301.917-.469 3.317-1.819 5.914-1.231 7.642 2.632-.594.721.196.308-.371.686-1.21.812-2.456 1.533-3.912 1.82 1.519-.126 2.73-1.05 4.458-1.729 3.717-1.148 6.348.441 9.148 2.652.497 4.543 17.121-2.652 12.572 13.41Z"/><path fill="#6D4F2C" d="M212.764 434.145c0-4.36-.301-8.497-.553-13.018 1.42-2.359 1.294-4.577 1.21-6.838-.678-18.883-2.029-37.731-3.156-56.579-1.036-17.301-.854-34.693-3.297-52.351-3.268-3.492-5.081.595-7.901 1.218-.189 9.742-.105 19.205.091 28.66.462 22.361 1.015 44.723 1.463 67.084.189 9.463.189 18.932.356 28.394.063 3.682.168 3.71 3.752 3.738a82.562 82.562 0 0 0 8.035-.308Z"/><path fill="#37484A" d="M215.556 29.905c-1.54 3.185-2.68 6.474-3.681 9.806-1.239 4.15-4.564 6.789-7.111 10.407-.847 8.35 3.261 13.753 9.273 18.12 1.617 1.176 3.381 2.149 5.291 3.513 6.754-2.953 7.846-7.32 3.451-12.604-1.33-1.596-2.821-3.213-1.4-5.474 1.554-2.456 3.57-1.175 5.858-.49.623.05.875.036 1.491-.09.805-.392 1.379-.728 1.421-1.183.504-4.99 2.897-8.58 7.551-10.631.602-.266.896-1.015 1.288-2.016.756-4.57-2.267-6.383-5.291-7.293-5.711-1.715-11.59-3.08-18.141-2.065Z"/><path fill="#1A2223" d="M198.668 306.416c2.47.245 5.41 1.281 6.635-2.464 2.974-5.032 1.315-9.175-2.17-13.318-4.444-2.331-8.427-4.613-12.591-6.481-2.393-1.071-5.088-1.484-8.063-2.177-13.556-.014-26.7-.042-40.306.021 2.674 3.184 1.75 6.691.518 10.603 6.684.49 13.389.644 20.094.7 6.719.056 13.438-.021 20.149.035 3.591.028 7.055.623 10.24 2.499 3.891 2.302 6.005 5.48 5.494 10.582Z"/><path fill="#6D4F2C" d="M96.016 213.71c-1.162-6.257-3.822-12.087-5.151-18.407-1.176-5.564-3.507-10.883-5.27-16.329-2.338-7.208-4.634-14.438-6.936-21.661-.973-3.044-1.59-6.257-2.968-9.105-1.407-2.905-1.092-6.208-2.995-9.099-1.113-1.687-.224-4.689-.238-7.559-3.017 2.324-3.73 6.047-3.374 9.771.392 4.045 1.533 8.02 2.359 12.024 1.029 4.997 2.058 9.987 3.107 14.977.7 3.325 1.372 6.656 2.17 9.96 1.883 7.761 3.856 15.502 5.739 23.271.84 3.471 1.54 6.971 2.422 10.827 3.618.714 7.131 1.064 11.135 1.33Z"/><path fill="#E1FF01" d="M394.908 399.892c3.059-4.031 5.739-8.181 8.441-12.318 1.82-2.785 3.667-5.55 5.823-8.531-2.842-4.892-5.998-9.575-9.511-14.299-1.827 8.21-7.566 12.843-14.411 16.517-3.807 2.051-8.021 2.653-12.64 3.416-.056 3.625 3.478 3.289 5.431 4.724 5.235 3.828 10.967 6.964 16.867 10.491Z"/><path fill="#298393" d="M260.551 95.086c.959-.917 1.778-1.868 2.058-2.96 1.176-4.64 3.689-7.944 8.497-9.162a346.125 346.125 0 0 1 6.88-1.672c2.197 2.323-1.624-2.513 0 0 1 3.22-2.212-2.338 0 0-.875-2.82-3.478-8.007-7.453-8.504-3.765.54-8.554-4.339-9.982-1.75-4.744-2.449-10.841-4.682-13.682-6.229-.861-.693-1.512-1.021-2.583-1.35-.63-.056-.889-.029-1.505.133-6.215 5.298-6.068 7.222.868 12.248 4.487 2.036 8.147 5.382 13.557 4.353.63-.28.903-.47 1.155-.686.252-.217.497-.434.749-.651.224.413.203.539-.035.364-.259-.19-.483-.098-.973.532-4.388 3.891-4.78 6.278-1.722 10.568 1.155 1.617 2.03 3.514 4.171 4.766Z"/><path fill="#B97A5C" d="M244.251 75.538c-.616-.987-1.064-1.728-1.707-2.17-4.459-3.065-4.543-3.506-1.148-7.51.427-.503.945-.944 1.427-2.057-.126-.819-.258-1-.657-1.386a7.863 7.863 0 0 0-1.169-.706c-2.856-1.45-5.382-2.765-7.993-4.613a12.732 12.732 0 0 0-1.015-.847c-.805-.504-1.372-.784-2.12-1.33-.357-.356-.497-.51-.84-.895a23.214 23.214 0 0 0-1.295-1.33c-1.96-1.064-3.345-3.087-5.683-1.988-2.618 1.232-3.626 4.263-2.191 6.817a13.162 13.162 0 0 0 2.45 3.136c3.31 3.08 3.366 3.058 1.001 6.635-1.015 1.54-2.142 3.002-3.5 4.633-1.343 2.03-2.4 3.926-3.569 6.194 2.953 3.366 6.376 5.837 10.75 7.454 4.843-3.45 9.931-5.733 15.286-7.482 1.014-.343 1.742-1.106 1.973-2.555Z"/><path fill="#E1FF01" d="M237.518 403.56c7.006.42 13.69.448 20.367.609 2.023.049 4.038.483 6.453.812 2.387-3.486 4.381-7.041 6.488-10.925a8.785 8.785 0 0 0-3.401.154c-7.615 1.875-15.209 1.721-22.747-.308-1.749-.469-3.352-1.477-5.382-2.31-2.771 3.555-3.394 7.447-1.778 11.968Z"/><path fill="#B97A5C" d="M239.401 39.102c-2.506.93-3.961 3.45-6.985 3.233-.553-.042-1.54 1.358-1.757 2.24-.622 2.47-.951 5.011-1.742 7.713-.756.574-.91 1.036-.581 1.91.217.322.203.322.196.308.672.903 1.862.994 2.925 1.89.224.23.196.203.182.189 3.178 1.869 6.166 4.15 10.247 5.095 4.934-1.834 5.431 1.204 3.618-1.974-.469-.524-.917-.748-.889-1.105.049-.686-.28.105.665.098.889.014 1.365-.322 1.862-1.085-3.15-3.85-3.612-9.575-4.766-11.366-.84-.252-1.295.413-1.834-.035.301-.056.567-.19 1.022-.574-.483-2.247-1.176-4.29-2.163-6.537Z"/><path fill="#30555C" d="M229.295 54.114c-1.729 1.561-3.073 3.22-4.598 5.159-.294.518 7.18 6.347 7.222 6.928 2.471 2.198 4.557 4.472 8.147 4.402 1.134-2.66 1.855-5.172 4.276-7.082-2.26-1.442-12.255-8.175-15.047-9.407Z"/><path fill="#373C53" d="M204.589 86.94c3.821 3.464 7.643 6.774 11.632 9.868 1.862 1.441 4.024 2.484 6.096 3.632.203.112.798-.224 1.022-.504.14-.175.049-.77-.14-.945-.483-.42-1.078-.72-1.631-1.05-5.662-3.4-11.156-7.026-15.936-12.163-.448.084-.707.496-1.043 1.161Z"/><path fill="#37484A" d="M241.851 45.597c-1.155.14-2.268.37-3.311.777-.245.098-.252.784-.371 1.204.427-.014.875.042 1.281-.056a7.369 7.369 0 0 0 2.485-1.085c.112-.35-.014-.68-.084-.84Z"/><path fill="#F0EDE7" d="M252.566 188.093c.287.735.749 1.708 1.526 2.793.329-.126.336-.364.378-.973-.553-.777-1.141-1.183-1.904-1.82ZM401.13 408.466c-.399-.308-.861-.315-1.679-.238-.343.49-.35.896-.364 1.595.657-.153 1.315-.615 2.043-1.357Z"/><path fill="#B97A5C" d="M273.38 240.704c-3.45 1.792-6.565 3.73-9.735 5.571-.672.392-1.561.406-2.758.644 3.311 4.08 6.761 8.413 10.828 12.066 3.751 3.381 8.384 3.192 12.367.42.574-3.072-.546-5.753-2.268-8.126-2.597-3.562-5.403-6.977-8.434-10.575Z"/><path fill="#373C53" d="M239.548 173.998a82.438 82.438 0 0 0-1.911-11.037c-1.868-7.734-3.947-15.419-5.753-23.173-.993-4.284-1.588-8.665-2.393-12.99-.126-.658-.371-1.302-.658-1.904-.126-.266-.497-.42-.756-.63-.21.35-.63.714-.602 1.043.189 2.023.343 4.066.749 6.047 1.813 8.791 3.646 17.574 5.585 26.337 1.057 4.787 2.289 9.539 3.583 14.27.231.819 1.183 1.435 2.156 2.037Zm-90.502 58.503c-.546 1.512-.987 2.645-1.428 3.786 1.106-.875 2.618-1.511 3.269-2.652 6.208-10.848 12.283-21.774 18.323-32.72.315-.574-.063-1.526-.119-2.302-.574.44-1.351.755-1.687 1.336-4.115 7.174-8.154 14.39-12.227 21.585-2.002 3.548-4.024 7.069-6.131 10.967Z"/><path fill="#F0EDE7" d="M240.227 173.886c-.315 0-.308.077-.329.098.476.819.966 1.609 1.764 2.491-.175-.805-.651-1.693-1.435-2.589Zm1.792 2.632c.532.875 1.042 1.771 1.77 2.932-.238-.735-.693-1.742-1.49-2.813-.336-.07-.301-.105-.28-.119Zm10.316 11.4a32.075 32.075 0 0 1-1.834-1.868c.266.489.721 1.231 1.533 1.889.357-.084.315-.049.301-.021Zm-5.501-5.248c.091-.427-.119-.973-.483-1.778-.042.371.07 1.015.483 1.778Zm-.7-1.995c-.511-.385-1.008-.791-1.82-1.078-.315.119-.28.077-.266.056.49.343.973.707 1.792 1.015.35-.049.308-.014.294.007Zm1.043 2.05c.21.238.399.497.595.756-.035-.217-.07-.434-.378-.672-.273-.035-.231-.063-.217-.084Zm3.079 3.136c-.259-.21-.497-.441-.742-.672.07.231.133.455.497.651.301-.042.266 0 .245.021ZM401.2 408.165c.336.014.749.154.994.014.609-.35 1.141-.833 1.708-1.26-.721-.098-1.442-.259-2.163-.252-.189 0-.378.504-.553 1.141.021.357.014.357.014.357Z"/><path fill="#5C405B" d="M228.224 54.437c.322-.371.322-.826.329-1.624-.168-.35-.336-.357-.77-.364-.133.644-.007 1.28.441 1.988Z"/><path fill="#37484A" d="M246.018 62.694c-1.291-.197-2.242-.602-3.602-.948-.404.046-.666-.382-.771-.612 1.511-.215 3.12-.196 5.151-.365.136.453-.155 1.086-.778 1.925Z"/><path fill="#111F22" d="M241.641 62.807c.378-.44.364-.888.28-1.658-2.289-1.428-4.501-2.548-6.74-3.605-.889-.42-1.841-.685-3.164-.993-.294.51-.343 1.287-.056 1.441a157.962 157.962 0 0 0 9.68 4.816Zm-10.345-6.173c.539-1.777-.58-2.148-2.386-2.155-.455 1.7.581 2.155 2.386 2.155Z"/><path fill="#5C405B" d="M224.214 56.788c-.245-.798-.777-1.35-1.302-1.91-.056.503-.119 1.014.112 1.623.49.252.7.392 1.19.287Z"/><path fill="#373C53" d="M224.773 56.676c-.469-.112-.664-.098-1.161-.07.105.371.511.742.909 1.106.175-.308.35-.609.252-1.036Z"/><path fill="#5C405B" d="M242.781 63.766c.119-.287-.042-.609-.489-.972-.126.286.042.608.489.972Z"/><path fill="#111F22" d="M241.669 52.554c.378.084.812-.056 1.036-.112-.238-.721-.637-1.456-1.211-1.995-.112-.105-.917.511-1.4.798.399.406.798.819 1.575 1.309Z"/><path fill="#B97A5C" d="M266.293 76.8c.913-.611 4.185-2.546 5.707-3.437-1.902-.891-6.088-3.971-10.654-4.582-5.707-.764-9.132-1.528-13.317-4.583-4.186-3.054-6.088.382-8.371 3.055-2.283 2.673 1.902 7.637 4.566 9.547 2.13 1.527 11.034 3.436 15.22 4.2 1.902-1.146 5.935-3.59 6.849-4.2Z"/><path fill="#79AEB9" d="M1186.96 236.27c-10.23-21.53-25.33-38.46-42.72-53.54-4.92-4.27-9.95-8.4-15.03-12.47-2.83-2.27-3.51-4.78-2.63-8.36 1.77-7.17-.66-9.34-7.91-7.7-4.97 1.13-9.96 2.13-15.51 3.2-12.28-.15-22.83 4.56-34.05 8.43-12.36 5.38-22.82 12.9-33.19 20.44-3.43 2.5-5.77 6.49-8.8 10.24-.3 7.46 1.31 8.89 7.86 6.77 13.18-4.26 26.21-6.23 39.62-.63 16.74 6.99 25.27 20.22 26.08 38.34 1.43 32.05-9.77 60.22-24.87 87.45-12.92 23.29-29.38 43.57-50.18 60.33-5.76 4.64-12.84 7.28-18.22 13.17-.04 2.52 1.27 3.66 2.79 4.51 17.38 9.76 35.35 18.02 55.83 21.18 3.67-1.18 6.6-.18 10.15.73 38.64 9.21 77.44 12.77 116.94 15.86 1.07-.27 1.48-.43 2.45-.95 6.67-11.18 7.6-22.77 5.45-35.34-1.38-1.78-2.83-1.88-4.33-1.93-15.25-.57-23.37-9.19-24.26-24.58-.84-14.62 1.4-28.941 3.65-43.201 2.1-13.309 4.25-26.649 7.32-39.819 1.86-7.97 4.24-15.62 9.11-22.98 1.43-9.58-2.76-17.72-4.04-26.34-.39-2.61-1.8-5.07-1.04-8.41.21-1.7-.03-2.81-.47-4.4Z"/><path fill="#9F9B8D" d="M1067.41 426.49c-20.11-4.23-38.42-11.57-55.83-21.26-1.05-.59-2.18-1.04-3.54-1.98-.55-.7-.83-.98-1.68-1.4-30.5 8.47-54.71 24.15-66.31 54.58-4.67 12.25-3.65 25.11-1.47 38.39 3.93 11.39 7.37 22.38 13.09 33.04 7.28 13.91 14.81 27.04 23.57 40 3.96.28 4.33 3.66 5.79 5.59 10.08 13.31 20.03 26.72 29.72 40.31 2.06 2.89 3.28.01 5.37.18 5.97-.21 9.86-3.85 14.22-6.37 6.12-3.54 12.32-6.89 18.95-10.61 2.46-2.72 3.33-5.34 1.77-8.83-1.17-1.71-2.53-2.66-3.11-4.7-.23-.71-.33-.99-.62-1.68-.48-.91-.8-1.4-1.36-2.23-.64-1.1-.99-1.87-1.39-3.09-.25-.68-.37-.95-.7-1.6-1.05-1.62-1.73-2.92-2.32-4.8-.29-.73-.43-1.03-.79-1.75-4.31-10.02-10.13-18.8-13.54-29.24-.25-.78-.37-1.08-.72-1.8-1.2-1.62-2.07-2.87-2.57-4.85-.28-.73-.42-1.01-.81-1.69-1.07-1.37-1.61-2.49-2.1-4.15-.28-.73-.4-1.01-.78-1.68-1-1.34-1.62-2.35-2.04-3.98-.23-.73-.34-1.02-.65-1.74-.52-.97-.83-1.51-1.36-2.49-1.54-4.58-5.26-8.52-1.03-13.57 2.22-3.24 4.94-3.94 7.97-2.88 9.94 3.51 20.41 4.05 31.26 5.92 6.14.79 11.71.35 17.92.54 22.49.05 44.07-3.32 65.76-5.13 5.84-.49 11.82.05 18.09-1.95 4.07-3.08 7.49-6.07 12.25-7.92.74-.33 1.02-.48 1.7-.88 1.08-.85 1.68-1.53 2.64-2.45.53-.49.74-.68 1.24-1.2.87-.95 1.44-1.59 2.38-2.5.5-.57.69-.82 1.1-1.49 1.1-2.63 2.36-4.58 4.38-6.62.58-.59.8-.84 1.31-1.49 1.6-2.62 2.48-5.09 4.6-7.38.54-.62.74-.89 1.16-1.6.9-2.33 1.08-4.37 2.26-6.64.55-1.13.83-1.8 1.26-3.03.41-4.46 2.82-8.29.09-12.64-38.96-2.89-77.18-7.03-115.39-15.83-3.33-1.13-6.17-1.76-9.74-1.43Z"/><path fill="#FAFAFA" d="M1005.77 402.3c.74.21.99.3 1.62.46 3.63-1.95 6.88-3.96 10.12-6 15.5-9.73 27.99-22.7 39.54-36.68 12.21-14.78 21.71-31.34 30.06-48.44 5.03-10.29 9-21.32 11.7-32.44 2.02-8.34 4.95-16.81 3.78-25.82-.57-4.35-.24-8.84-.07-13.26.68-18.41-12.58-34.38-28.22-39.84-10.89-3.8-21.76-4.64-32.81-.64-3.11 1.12-6.37 1.18-9.52 3.02-3.36 1.97-3.82-2.3-4.96-5.13-8.97 8.71-14.1 20.21-19.06 31.79-1.13 2.64-1.99 5.4-2.99 8.65-2.31 2.68-3.79 5.29-4.64 8.88-5.66 21.88-9.97 43.49-15.01 64.93-1.37 5.82-4.57 10.22-9.14 13.78-16.63 12.96-34.41 24.26-52.67 35.85-4.35 3.3-8.35 6.16-11.28 10.15-2.48 3.39-4.78 6.94-2.15 11.93.73 1.01 1.15 1.51 1.61 2.34-.19 4.17 1.26 7.36 4.2 10.52 2.41 2.54 4.46 4.68 6.65 7.34 3.27 4.86 8.16 5.09 13.33 5.95 2.92-.48 5.32-.85 8.26-1.1.84-.16 1.17-.25 1.98-.51 5.36-2.22 10.44-3.68 15.96-5.4.8-.23 1.11-.34 1.87-.66 3.76-2.28 7.41-3.61 11.49-5.14a17 17 0 0 0 1.75-.74c1.95-1.26 3.58-2.05 5.85-2.53.72-.25 1-.38 1.66-.74 1.79-1.41 3.35-2.33 5.37-3.4 2.53-2.57 5.67-3.29 8.45-5.49 1.78-1.86 3.95-1.73 5.96-3.04 2.67-2.55 5.47-4.04 8.69-5.75 1.29-1.21 2.18-2.14 3.46-3.39 6.73-5.05 12.64-10.23 17.45-17.23 1.16-1.41 2.1-2.34 3.4-3.61 2.58-2.83 3.28-6.3 6-9.06 2.05-5.42 4.14-10.33 5.47-15.5.18-.69.31-1.4.64-2.04.2.8-.37 1.4-.55 2.1-1.24 4.94-3.34 9.6-5.17 14.86-2.66 2.8-3.46 6.18-5.88 9.11-1.27 1.29-2.18 2.23-3.44 3.54-4.61 6.95-10.17 12.25-16.99 16.99-1.31 1.24-2.21 2.17-3.49 3.42-2.84 2.28-5.81 3.49-8.66 5.73-1.62 1.98-3.75 1.86-5.8 3.01-2.69 2.72-6.04 3.52-8.99 5.86-1.15.98-2 1.55-2.17 3.11 5.8 3.55 10.45 8.36 17.34 10.26Z"/><path fill="#5E5C54" d="M1005.79 402.64c-5-3.6-10.49-6.97-16.54-10.34-1.56-.95-2.71-1.15-4.53-.41-.53.32-.45.41-.46.35-1.77 1.9-4.51 1.26-7 2.69-.43.28-.35.32-.36.27-3.87 2.44-8.06 4.15-12.93 5.62-.45.28-.36.33-.37.28-5.35 2.59-10.85 4.68-17.31 5.63-.49.27-.4.33-.42.28-2.46 1.65-5.25 1.54-8.49 1.45-4.88-1.43-9.3-2.82-14.21-4.23-6.31 2.86-12.05 5.89-17.95 8.56-29.9 13.55-51.92 34.6-63.06 66.04-4.91 13.85-9.44 27.84-14.71 41.55-3.8 9.88-8.49 19.41-12.85 29.06-2.29 5.06-4.84 10-7.05 15.09-2.02 4.64-.82 6.89 4.91 10.38 11.25 7.47 22.44 14.39 34.07 21.52 5.67 2.27 9.59.29 13.12-3.43 6.73-7.08 13.56-14.07 20.27-21.17.57-.6.56-1.74.82-3.17-5.1-18.24-7.65-36.15-7.54-54.73.09-16.39 10.56-29.83 24.47-32.9 2.3-.03 3.95-.76 6.12-.85.84-.03 1.24-.04 1.64-.02.41.02.28.05-.82.06-2.46-.05-4.36.8-6.96.86-14.18 3.2-24.45 16.77-24.4 33.05.06 16.8 1.65 33.16 6.26 49.27.43 1.49 1.07 2.71 2.64 4.15 3.02-2.47 5.55-5.35 8.58-8.3 2.1-5.51 22.28-23.25 26.84-29.5 4.56-6.251 4.78-2.65 5.89-4.84 4.95-9.7 12.09-18.1 16.47-28.69-.44-5.66-1.2-10.75-1.29-15.86-.29-16.79 4.1-31.98 15.24-45.03 10.97-12.84 24.91-21.31 39.98-28.2 3.69-1.67 7.62-2.85 11.93-4.49Z"/><path fill="#2D3300" d="M1160.13 496.37c-4.28 1.01-8.33 1.83-12.41 2.28-6.77.75-13.57 1.22-20.36 1.87-3.13.3-6.24.78-9.37 1.11-8.45.89-16.9 1.9-25.37 2.57-6.09.48-12.22.47-18.98.82-.99.41-1.34.67-2.13 1.4-3.71 4.95-5.64 10.15-6.15 15.47-2.15 22.2-5.03 44.34-6.43 66.61-.45 7.12-1.67 14.13-2.8 21.81.27 12.01-.86 23.25-2.9 35.07.16 10.17-.91 19.58-2.17 28.98-.26 1.93-.6 3.87-.24 5.81.61 3.3 2.01 6.22 5.7 6.7 4.89.64 6.66-3.09 8.62-7.29 2.61-16.84 5.41-33.02 5.22-50.09.14-6.43.38-12.29.98-18.11 1.43-14.09 3.01-28.16 4.59-42.23.24-2.17.99-4.29 1.24-6.46.64-5.58 1.26-11.17 1.64-16.77.21-2.98 1.27-4.64 4.44-4.5 1.23.05 2.46.01 3.69.01l112.95-.03c1.97 0 3.99-.24 5.89.14 1.12.22 2.73 1.27 2.95 2.22 2.15 9.22 4.07 18.5 6.03 27.76 1.05 4.98 1.97 10 3.11 14.96 1.47 6.4 3.24 12.72 4.62 19.14 2.45 11.38 4.63 22.82 7.08 34.2 1.53 7.12 3.43 14.15 5.04 21.26 1.34 5.92 2.83 11.84 3.6 17.85.38 2.97 1.44 5.23 3.54 6.94 1.16.94 3.41 1.88 4.37 1.36 1.16-.63 2.19-2.89 2.04-4.31-.56-5.06-1.57-10.07-2.53-15.08-1.37-7.17-2.9-14.3-4.26-21.47-1.5-7.88-2.93-15.77-4.31-23.67-1.59-9.11-3.01-18.25-4.67-27.34-1.36-7.41-3.05-14.76-4.45-22.17-1.53-8.12-2.83-16.28-4.35-24.4-1.61-8.61-3.06-17.27-5.2-25.75-.93-3.69-.5-7.47-2.75-11.22-4.37-7.27-9.23-13.4-17.46-16.36-1.54-.55-3.12-1.09-.33-3.18 13.55-10.15 19.42-24.22 19.89-40.89.42-14.97 1.04-29.93 1.54-44.89.48-14.47.89-28.95 1.41-43.42.31-8.57.79-17.14 1.02-26.33-4.96-2.98-6.4.51-7.3 3.86-1.65 6.12-4.12 12.25-4.21 18.53-.18 12.06-3.14 23.69-4.29 36.2.64 3.26 1.22 5.91.71 8.63-3.27 17.12-4.87 34.41-5.98 51.8-.97 15.28-10.59 24.18-24.73 29.66-.94.33-1.29.5-2.14 1.02-.49.35-.38.39-.38.33-.78.78-1.9 1.29-2.75 2.67-.31.3-.19.34-.21.28-.62.68-1.47 1.06-2.67 1.7-.62.4-.85.58-1.71 1.33-1.27 1.1-1.99 1.47-3.19 1.79-1.22.45-1.91.88-2.73 1.82Z"/><path fill="#CDE801" d="M1207.48 397.45c1.08-7.41 2.23-14.261 3.4-21.101.28-1.65 1.04-3.35.83-4.93-1.5-11.15 3.33-21.35 4.72-32.06.07-.559.63-1.055 1.4-1.529 1.98-1.221 3.72-2.673 3.93-4.99.12-1.247-.18-2.676-.33-3.919-.17-1.386.05-2.647.25-4.111.36-2.97.47-5.5.54-8.67 0-.956-.02-1.881-.06-2.787-.2-6.16.56-12.437-.19-18.554-.32-2.63-.82-5.152-1.77-7.489-1.25-3.07-5.65-4.89-8.72-7.16-.94-.69-2.15-1.011-3.69-1.801-.74-.406-1.04-.527-1.63-.996a.3.3 0 0 1-.06-.065 4.008 4.008 0 0 0-.51-.481c-2.8-2.09-6.14-2.976-9.92-3.856-.61-.141-1.24-.219-1.86-.099-.82.161-1.41.495-2.15 1.197-5.64 6.69-8.39 13.891-9.66 21.951-1.2 7.66-3.54 15.139-4.9 22.789-1.53 8.61-2.53 17.321-3.74 25.991-.13.97.1 2.03-.2 2.93-3.99 12.18-2.75 24.749-2.7 37.199.04 10.24 9.58 21.5 19.65 23.32 2.72.49 5.72-.539 9.14-.829 6.57-.3 7.79-4.56 8.23-9.95Z"/><path fill="#A3A3A3" d="M909.72 383.96c-.74-8.56 5.37-13.051 10.61-17.981.87-.82 1.96-1.4 3.14-2.51-2.4-3.51-6.04-2.95-9.4-3-9.84-.15-19.68.03-29.52-.09-7.87-.09-8.63-.72-8.65-8.33-.1-29.04-.16-58.08.03-87.12.07-9.79 3.82-13.58 13.7-14.79 3.18-.39 6.39-.29 9.59-.29 30.26-.01 60.53.02 90.79-.03 3.66 0 7.41.441 11.42-1.789 1.55-3.08 2.54-5.74 3.53-8.94-42.75-.52-85.49-.491-128.24-.461-1.72 0-3.45-.11-5.16.03-5.21.41-8.36 3.7-8.36 9.05-.04 42.76-.04 85.51.01 128.27 0 5.08 2.35 7.35 7.54 7.44 12.76.21 25.53.33 38.97.541Z"/><path fill="#CCC7B5" d="M1095.28 144.69c6.26-3.41 7.09-9.9 10.14-14.93.49-.8.55-1.85.95-2.72 2.43-5.24 2.44-5.23 7.1-2.17 11.86 7.79 23.7 3.75 30.81-9.09 4.39-7.94 2.01-21.52-3.08-27.2-8.43-9.41-24.86-9.08-32.6 1.3-3.31 4.44-3.4 4.34-8.52 2.08-2.64-1.17-5.23-2.53-7.99-3.32-3.69-1.06-6.1-3-7.81-6.61-2.01-4.24-6.49-4.72-10.69-5.02-.95-.07-1.94.26-2.9.46-8.96 1.83-10.87 5.21-7.82 14.39.37 2.7 1.86 4.11 3.43 5.2 5.82 4.06 8.73 8.95 5.94 16.22-.94 2.44-.26 4.96 2.41 6.22 2.38 1.12 4.24.03 5.78-1.81 1.1-1.32 2.22-2.67 3.79-3.41 1.63-.77 3.36-.74 4.88.33 1.64 1.15 1.75 2.83 1.28 4.6-.57 2.16-1.65 4.06-2.9 5.89-5.06 7.44-1.86 16.08 7.8 19.59Z"/><path fill="#DBB385" d="M1095.67 145c-4.71-1.21-5.01-6.28-7.89-8.9-.82-.74-.93-2.22-1.66-3.12-1.34-1.64-1.5-2.5.52-4.01 2.87-2.15 4.11-5.63 5.74-8.82 1.71-3.33 1.2-5.52-1.57-7.55-2.11-1.54-6.98-1.56-8.79.19-1.31 1.26-2.03 3.12-3.33 4.39-.83.81-2.55 1.7-3.31 1.34-1.01-.47-2.08-2.15-2.02-3.25.12-2.1.69-4.33 1.65-6.21 1.99-3.87.44-6.5-2.42-8.9-2.93-2.46-5.86-4.93-9.24-7.55-6.82 6.86-18.23 24.26-24.71 31.73 1.24 3.14 3.49 5.06 6.04 7.4 3.12.76 5.77.49 8.94.55 2.03.06 3.4-.61 4.86-.69 1.64-.1 3.28 0 4.91-.18-1.58.38-3.18.08-5.31.29-4.21 1.11-7.99.35-12.25.8-4.29 2.42-1.48-4.09-5-.77-.78 4.59-1.48 8.72-1.68 12.88-.23 4.87 1.01 6.51 5.53 8.2 3.4 1.27 7.18 1.85 10.24 3.66 4.56 2.7 8.64 6.21 13.37 9.61 7.83-1.54 15.22-3.33 22.61-5.1 3.69-.88 7.39-1.73 11.39-3.08-2.04-4.48-4.38-8.46-6.62-12.91Z"/><path fill="#CCC7B5" d="M1193.67 273.549c3.94 1.5 7.52 2.52 11.7 3.5.4-6.889-3.9-12.159-6.52-18.049-3.45-7.77-7.5-15.261-11.76-23.031-.46.94-.46 2.04-.49 3.69.98 11.75 4.44 22.46 7.07 33.89Z"/><path fill="#30555C" d="M1044.02 148.417c4.35-1.866 5.32-5.749 5.85-10.244 1.82-2.953-5.42 1.251-1.47-2.969-.73-3.625-3.24-4.275-6.52-4.371-1.7 1.629-3 3.057-4.09 4.643-3.38 4.933-2.91 7.524 1.97 10.749 1.19.781 2.59 1.259 4.26 2.192Z"/><path fill="#DBB385" d="M915.6 396.749c-.53-3.34-1.71-6.71-3.38-10.32-5.43-.28-9.55 1.57-13.24 5.52-.85.77-1.04 1.31-.66 2.32 2.68 2.44 5.53 2.74 8.55 2.59 2.67-.14 5.37-.1 8.73-.11Z"/><path fill="#263471" d="M897.94 394.78c.67-.66.68-1.18.7-2.08-9.58-.42-19.17-.461-28.76-.471-.96 0-1.94.121-2.87.351-.29.07-.67.67-.64.99.04.38.44.989.75 1.029 1.43.22 2.89.37 4.34.37 8.61.01 17.22-.029 26.48-.189Z"/><path fill="#5579C3" d="M1206.19 277c-.24.45.03.83.81 1.07.23-.49-.04-.82-.81-1.07Z"/><path fill="#254147" d="M1117.38 170.69c1.88-.05 3.14.06 4.31-.2.45-.1.84-1.01 1.01-1.62.06-.23-.56-.92-.9-.94-1.71-.12-3.51-.43-5.13-.04-8.08 1.97-16.23 3.14-24.57 2.86-.8-.03-1.63.7-2.45 1.07.84.6 1.65 1.67 2.52 1.72 8.35.54 16.49-.93 25.21-2.85Zm76.2 103.44c-.85-7.13-2.04-14.19-3.49-21.19-.82-3.95-2.08-7.81-3.34-12.22-.96-.15-2.43.37-2.39.55.65 2.81 1.73 5.54 2.23 8.37 1.38 7.86 4.47 15.39 4.64 24.19.71.59 1.31.5 2.35.3Z"/><path fill="#E5E5E5" d="M1001.98 248.17c-37.14-.6-74.26-.72-111.39-.51-3.97.02-8.11 1.61-11.85 3.21-3.01 1.29-4.4 4.44-4.87 7.7-.24 1.69-.09 3.44-.09 5.16-.01 30.74-.03 61.48-.03 92.23 0 7.03-.95 6.97 6.55 6.96 14.02-.02 28.03-.01 42.71.06 4.4-2.07 8.27-4.02 11.85-6.39 12.03-7.97 24.13-15.88 35.88-24.26 6.21-4.43 13.07-8.64 15.55-16.62 1.5-4.83 2.72-9.77 3.85-14.7 1.84-8 3.5-16.04 5.24-24.06 1.23-5.66 2.4-11.33 3.71-16.98.86-3.77 1.93-7.49 2.89-11.8Z"/><path fill="#254147" d="M1066.07 257.549c-1.58 4.22-3.01 8.05-3.97 12-1.48 6.06-2.7 12.19-3.88 18.32-.18.94.45 2.04.7 3.06.64-1 1.57-1.92 1.87-3.02 1.09-3.93 2.46-7.87 2.81-11.89.41-4.66 1.67-8.96 3.27-13.27.41-1.09.17-2.42.26-4.26-.21-.84-.46-1.05-1.06-.94Zm-31.47 96.89c-5.98 4.99-11.86 10.56-17.76 16.66 1.72-.16 3.9-.39 5.14-1.59 4.6-4.48 10.55-7.85 12.62-15.07Z"/><path fill="#5E5C54" d="M1043.36 341.43c5.13-4.36 5.72-11.221 7.43-17.631.13-.51-.41-1.199-.64-1.799-.41.56-.98 1.07-1.2 1.69-1.95 5.65-3.84 11.32-5.59 17.74Z"/><path fill="#254147" d="M946.02 406.53c6.34 1.42 11.93-1.13 17.43-4.96-5.65 1.15-11.43 2.82-17.43 4.96Zm17.7-5.89c5.03 1.08 9.1-1.37 13.04-4.98-4.2 1.17-8.52 2.84-13.04 4.98Zm50.07-25.56c-3.98-.83-6.43 1.72-8.82 4.87 2.94-1.09 5.86-2.72 8.82-4.87Zm-14.67 8.899c-3.05 1.04-6.02 2.65-8.94 4.82 3.04-1.04 6.03-2.65 8.94-4.82Z"/><path fill="#5E5C54" d="M1043.26 341.93c-4.18.99-4.11 5.09-5.8 8.45 4.48-.12 4.12-4.47 6.01-7.66.04-.53-.13-.7-.21-.79Z"/><path fill="#202844" d="M937.22 407.939c2.77 4.18 5.47 1.08 8.46-.49-2.6-.32-5.38-.15-8.46.49Z"/><path fill="#254147" d="M977.06 394.75c2.33.42 5.12 1.21 7.05-2.05-2.18.19-4.5.89-7.05 2.05Zm22.03-11.301c2.11-.12 4.58.89 5.86-2.43.04-.54.03-.55.03-.56-1.86.66-3.72 1.33-5.75 2.47-.18.48-.16.51-.14.52Zm-14.86 8.221c1.09.57 2.21.59 3.9.63 1-.69 1.45-1.4 2-2.52.1-.41.08-.44.07-.46-2.13.15-4.62-.94-5.97 2.35Z"/><path fill="#373C53" d="M1065.8 257.4c-.09.48.64.46 1 .47 1.31-1.13 2.25-2.26 3.1-3.99-2.98-1.09-2.75 1.77-4.1 3.52Z"/><path fill="#254147" d="M1037.47 350.91c-.97.63-1.93 1.29-2.94 2.44-.04.5 0 .54.03.57.99-.63 1.96-1.29 2.95-2.46 0-.52-.04-.53-.04-.55Z"/><path fill="#373C53" d="M1072.92 250.959c-1.05.07-2.06.69-3.1 1.8-.02.49.11.62.18.68 1.03-.59 1.99-1.26 2.92-2.48Z"/><path fill="#254147" d="M1016.79 371.61c-1.02.64-2.03 1.27-3.01 2.42.04.51.06.53.06.54 1.02-.64 2.03-1.28 2.99-2.44-.03-.51-.04-.52-.04-.52Z"/><path fill="#373C53" d="M1072.95 250.489c.87-.24 1.71-.5 2.56-.76-.77-.07-1.55-.14-2.47.25-.15.44-.11.49-.09.51Z"/><path fill="#254147" d="M1049.23 134.544c-1.08.365-1.54.523-1.96.744-1.56.817-3.11 1.644-4.67 2.471 1.99.072 3.96.147 6.5.079 4.49-1.637 8.43-3.143 12.57-5.146-.42-1.645-1.39-1.01-2.69-1.151-3.32.828-6.22 1.825-9.75 3.003Z"/><path fill="#254147" d="M1059.18 131.175c.16.494.96.8 2.22 1.049a98.185 98.185 0 0 0 7.04-2.885c.39-.176.61-.688.9-1.033-.46-.051-.98-.24-1.38-.112-2.72.884-5.43 1.849-8.78 2.981Zm25.56-9.855c.43.4 1.12.3 1.24-.01.53-1.43.93-2.91 1.28-4.4.02-.08-.75-.36-1.15-.54-.46 1.46-.91 2.91-1.37 4.95Zm.01.61-1.08.63c.31.01.62.01 1-.31.07-.33.07-.33.08-.32Z"/><path fill="#254147" fill-rule="evenodd" d="M1076.01 250a1.5 1.5 0 0 0-1.5-1.5c-2.81 0-8.25 2.122-10.44 9.577-1.27 4.307-4.03 16.373-6.83 28.651-.1.405-.19.81-.28 1.214-2.73 11.939-5.46 23.881-6.9 29.163-.4 1.491-.8 3.006-1.2 4.538-2.59 9.946-5.37 20.582-12.52 29.413-8.32 10.284-29.13 26.169-48.029 36.117l-1.24.653c-9.187 4.836-19.252 10.135-28.055 14.12-4.6 2.083-8.816 3.788-12.354 4.878-3.609 1.113-6.267 1.503-7.876 1.202-6.304-1.182-13.832-3.459-16.802-4.449a1.5 1.5 0 1 0-.948 2.846c3.03 1.01 10.702 3.333 17.198 4.551 2.391.449 5.671-.161 9.312-1.283 3.712-1.144 8.058-2.907 12.708-5.012 8.886-4.023 19.024-9.36 28.184-14.183l1.271-.669c19.101-10.052 40.291-26.167 48.971-36.883 7.59-9.376 10.53-20.704 13.11-30.616.39-1.515.78-2.997 1.17-4.433 1.45-5.345 4.19-17.327 6.9-29.202l.3-1.296c2.82-12.347 5.56-24.281 6.79-28.474 1.81-6.145 6.04-7.423 7.56-7.423a1.5 1.5 0 0 0 1.5-1.5Z" clip-rule="evenodd"/></svg>
