<svg xmlns="http://www.w3.org/2000/svg" fill="none" viewBox="0 17 551 530.85"><path fill="#E5E5E5" d="M102 187.282C102 93.238 178.112 17 272 17s170 76.238 170 170.282V532H102V187.282Z"/><path fill="#122023" d="M352.547 479.916c-4.166-.178-7.572-.248-10.964-.056-.802.047-1.956.769-2.275 1.487-3.768 8.398-7.404 16.852-11.26 25.555-2.262 1.305-4.486 1.412-6.752 1.412-22.003-.004-44.002.015-66.006-.028-2.35-.004-4.851.333-7.009-1.965-11.312-7.545-14.483-18.453-14.535-30.777-.08-18.429-.061-36.853-.098-55.699 1.046-.995 2.078-.657 2.998-.16 9.495 5.114 19.611 6.066 30.153 4.837 4.982-.581 6.286.493 7.985 5.292 2.28 6.437 5.315 12.396 10.683 16.881 3.692 3.087 7.877 4.781 12.765 4.799 2.501.01 5.213-.244 5.236 3.796.014 2.177 2.323 1.877 3.946 1.928 4.706.16 9.116-1.661 13.775-2.017 4.94-.376 9.186-.094 12.085 4.776 1.788 2.998 4.781 2.974 8.009 2.158 6.362-1.609 12.254-4.926 19.005-5.142 2.637-.085 5.363-.16 7.174 1.863 3.331 3.711 6.934 2.58 10.678 1.191 5.17-1.923 10.181-4.344 15.787-4.865 2.778-.258 5.508-.089 7.652 1.867 2.853 2.599 5.818 2.163 9.191 1.206 6.296-1.788 12.532-5.522 19.053-4.391 7.544 1.304 14.732.825 22.14-.122 3.725-.474 7.511.595 10.575 3.091 4.335 3.524 3.922 8.173-.878 10.993-3.974 2.336-8.398 3.195-12.864 3.777-15.924 2.073-31.941 3.288-47.892 5.067-5.668.628-11.396.319-17.669 1.384 1.82.675 3.087.52 4.279.356 15.313-2.13 30.777-2.787 46.104-4.79 5.949-.779 11.903-1.544 17.857-2.285 3.8-.474 7.286-1.693 10.546-3.612 5.18-3.045 5.236-8.76.033-11.828-5.25-3.096-11.048-2.791-16.636-1.543-3.805.849-7.155 1.013-10.95-.268-5.518-1.858-10.998.221-16.266 1.844-2.843.877-5.804 1.37-8.572 2.627-2.064.939-4.602 1.018-6.352-.797-4.209-4.359-9.215-3.012-13.911-1.802-3.866.995-7.671 2.468-11.386 4.082-3.482 1.51-6.733 1.679-9.933-1.314-4.138-3.87-9.209-1.764-13.713-.802-4.199.896-8.314 2.491-12.395 3.95-3.862 1.38-6.874.577-8.98-2.805-2.205-3.547-5.306-4.514-9.229-4.148-4.485.418-8.904 1.192-13.328 2.027-5.218.981-5.94.3-6.498-4.94-1.427-1.112-3.153-.732-4.744-.709-7.928.118-13.816-3.523-18.255-9.796-2.965-4.194-5.282-8.726-6.591-13.746-.512-1.971-.484-3.871 1.731-4.42 8.14-2.017 16.083-4.832 24.804-5.892 6.602 3.593 12.086 8.308 18.903 10.969 14.642 5.719 29.764 9.115 45.396 10.49 8.055.708 16.055 2.308 24.19 1.736 12.583-.882 25.114-2.008 36.9-7.122 9.195-3.988 16.805-9.787 21.989-18.504.929-1.567 1.877-3.087 4.077-3.889 7.103-.713 13.836-.342 20.995-.347 9.341-.244 18.255-.066 27.169-.085 1.633-.004 3.28.01 5.114 1.094 21.596 4.621 34.662 17.828 42.196 37.762 10.819 28.643-7.079 63.605-31.963 74.513-12.696 5.564-25.926 9.19-39.621 9.434-30.796.545-61.61.174-92.904.174a496.05 496.05 0 0 0-1.674-9.472c-1.441-1.666-1.281-3.369-1.394-5.002-.779-11.668-1.975-23.308-2.58-34.985-.188-3.617-1.605-4.875-5.227-4.964-5.888-.14-11.663 1.065-17.917.962-.657-.033-.92-.056-1.952-.291Z"/><path fill="#82ACB0" d="M452.324 411.681c-2.247 3.054-4.133 5.888-6.249 8.534-10.256 12.836-24.411 17.913-40.071 19.85-5.771.713-11.57 1.75-17.345 1.713-15.089-.094-30.12-1.309-44.782-5.147-8.454-2.214-17.035-4.298-25.072-7.61-6.108-2.519-11.452-6.892-17.424-10.565-13.264-8.628-22.67-19.729-25.011-35.53-2.74-18.518-2.304-37.082-.193-55.666 1.699-14.947 4.762-29.628 7.741-44.34.451-2.22 1.047-4.392 1.84-6.503.6-1.6 1.477-3.228 3.565-2.543 1.947.638 2.121 2.421 1.727 4.133-1.342 5.842-2.416 11.739-3.599 17.345 6.709-7.778 13.714-15.538 24.34-18.574 7.535-2.153 15.225-1.731 22.778-.502 5.095.831 10.523 1.15 15.093 4.922 4.166 10.171 8.36 19.958 11.968 29.956 3.017 8.365 5.602 16.913 7.882 25.513 1.173 4.419 1.262 9.125 1.868 13.943 4.001.338 8.163.474 12.254 1.075 23.435 3.453 44.866 11.306 61.62 28.928 2.406 2.529 4.053 5.78 6.324 8.853 5.255 7.253 4.021 14.549.746 22.215Z"/><path fill="#F7EFD7" d="M349.888 281.142c-10.777-3.664-21.929-5.457-33.358-4.26-6.554.685-12.437 3.692-17.26 8.191-4.945 4.612-9.515 9.623-14.085 14.296 1.492-6.827 3.144-14.047 4.579-21.31.221-1.112-.534-2.421-.839-3.636-.713.896-1.882 1.703-2.069 2.698-3.66 19.165-8.361 38.227-10.425 57.566-1.82 17.049-1.792 34.493 1.562 51.547 1.699 8.632 6.62 15.768 12.822 21.938 3.294 3.279 6.747 6.399 10.205 9.871-5.954 1.788-11.983 3.308-18.016 4.8-2.867.708-5.747 1.36-10.012 2.369 4.297 6.99 7.643 13.887 12.344 19.676 5.221 6.433 13.69 5.269 21.572 5.978l-2.759 5.446c2.618-.154 4.485-.14 6.315-.398 4.734-.667 9.435-1.6 14.183-2.149 3.819-.446 7.126.694 9.003 4.41 1.923 3.805 4.654 4.035 8.482 2.754 6.174-2.064 12.485-3.875 18.875-5.053 2.439-.45 6.296.296 7.68 1.989 3.002 3.669 5.935 2.407 9.134 1.427 5.654-1.727 11.232-3.702 16.914-5.321 3.359-.957 6.263-.225 8.862 2.637 1.079 1.182 3.857 1.647 5.593 1.253 4.888-1.112 9.552-3.439 14.468-4.152 4.533-.657 9.271.22 13.925.305 2.027.037 4.091-.019 6.076-.39 6.366-1.191 12.677-2.059 18.799.99 5.954 2.965 6.695 9.604 1.056 13.207-3.416 2.182-7.474 4.082-11.434 4.574-21.839 2.703-43.735 4.95-65.621 7.291-2.158.23-4.359.033-6.54.033l-.338-1.187c.994-.483 1.951-1.309 2.979-1.403 10.744-.985 21.511-1.75 32.25-2.782 8.797-.844 17.58-1.895 26.348-3.007 4.875-.62 9.726-1.488 14.558-2.384 1.563-.291 3.359-.666 4.481-1.651 1.717-1.515 4.274-3.791 4.039-5.386-.3-2.06-2.683-4.307-4.734-5.517-4.513-2.665-9.472-1.699-14.469-1.061-3.795.488-7.788-.727-11.635-.441-5.423.399-10.823 1.323-16.176 2.327-2.736.516-5.283 2.069-8.023 2.492-3.106.478-5.804.262-9.008-1.999-2.707-1.914-7.91-1.159-11.767-.38-5.174 1.041-10.068 3.415-15.186 4.837-1.459.403-4.124.056-4.805-.934-3.621-5.259-8.717-3.256-13.098-2.627-4.49.648-8.727 2.914-13.165 4.124-6.442 1.755-7.765 1.281-10.974-3.303-1.131-1.614-3.828-3.054-5.766-3.003-6.395.179-12.761 1.258-19.16 1.633-4.181.244-5.166-1.417-3.491-5.32-19.236 1.332-25.419-12.18-30.819-27.16-12.879.892-26.067 2.088-38.002-6.08-7.272-8.445-14.258-16.759-18.391-27.09-5.527-13.826-5.94-28.009-3.139-42.327 2.055-10.505 4.499-20.967 7.45-31.256 4.523-15.782 12.597-29.773 22.839-42.595 7.68-9.613 17.031-17.209 27.376-23.665 2.092-1.304 4.616-1.918 7.286-2.852 16.068 6.442 32.911 8.731 49.168 13.202.858.235 1.815.174 2.641.507 4.715 1.933 9.017 1.567 13.127-2.149 2.754 6.498 5.161 13.01 7.573 19.86Z"/><path fill="#E1FF01" d="M285.336 444.888c-4.701-5.789-8.047-12.686-12.344-19.676l-1.032.375c5.4 14.98 11.583 28.492 30.819 27.16-1.675 3.903-.69 5.564 3.491 5.32 6.399-.375 12.765-1.454 19.16-1.633 1.938-.051 4.635 1.389 5.766 3.003 3.209 4.584 4.532 5.058 10.974 3.303 4.438-1.211 8.675-3.477 13.164-4.124 4.382-.629 9.477-2.632 13.099 2.627.681.99 3.346 1.337 4.805.934 5.118-1.422 10.012-3.796 15.186-4.837 3.857-.779 9.06-1.534 11.767.38 3.204 2.261 5.902 2.477 9.008 1.998 2.74-.422 5.287-1.975 8.022-2.491 5.354-1.004 10.754-1.928 16.177-2.327 3.847-.286 7.84.929 11.635.441 4.997-.638 9.956-1.604 14.469 1.061 2.051 1.21 4.434 3.457 4.734 5.517.235 1.595-2.322 3.87-4.039 5.386-1.122.985-2.918 1.36-4.481 1.651-4.832.896-9.683 1.764-14.558 2.384-8.769 1.112-17.551 2.162-26.348 3.007-10.739 1.032-21.506 1.797-32.25 2.782-1.028.094-1.985.92-2.979 1.403l.337 1.187c2.182 0 4.382.197 6.541-.033 21.886-2.341 43.782-4.588 65.621-7.291 3.96-.492 8.018-2.392 11.434-4.574 5.639-3.603 4.898-10.242-1.056-13.207-6.123-3.05-12.433-2.182-18.799-.99-1.985.371-4.049.427-6.076.39-4.654-.085-9.392-.962-13.925-.305-4.916.713-9.58 3.04-14.469 4.152-1.735.394-4.513-.071-5.592-1.253-2.599-2.862-5.503-3.594-8.862-2.637-5.682 1.619-11.26 3.594-16.914 5.321-3.199.98-6.132 2.242-9.134-1.427-1.384-1.693-5.241-2.439-7.68-1.989-6.39 1.178-12.701 2.989-18.875 5.053-3.828 1.281-6.559 1.051-8.482-2.754-1.877-3.716-5.184-4.856-9.003-4.41-4.748.549-9.449 1.482-14.183 2.149-1.83.258-3.697.244-6.315.398 1.074-2.12 1.74-3.439 2.759-5.447-7.882-.708-16.351.456-21.572-5.977Z"/><path fill="#5E5C54" d="M247.901 506.283c2.046-.047 3.922.521 5.808.525 24.42.104 48.845.122 73.71.258-3.007 7.925-6.338 15.811-10.021 23.529-.652 1.365-2.778 2.885-4.227 2.89-30.5.169-60.996.244-91.496.075-10.237-.056-20.639-7.117-21.675-20.545-.789-10.232-3.331-20.324-4.837-30.514-2.051-13.882-3.801-27.812-5.795-41.699-1.426-9.904-3.11-19.77-4.569-29.67-2.13-14.473-4.138-28.961-6.24-43.439-1.309-9.018-2.895-17.997-3.941-27.043-.328-2.805.005-6.113 1.239-8.59 2.519-5.062 6.985-6.085 12.08-3.275 4.805 2.646 7.615 6.826 8.722 12.24 2.177 10.641 4.551 21.244 6.69 31.894 2.079 10.35 3.909 20.751 5.959 31.105 1.933 9.778 4.049 19.522 6.005 29.295 2.252 11.236 4.359 22.501 6.634 33.733 2.125 10.504 4.222 21.023 6.643 31.462 1.291 5.55 4.772 8.036 10.613 8.285 2.829.117 5.686-.099 8.698-.516Z"/><path fill="#E0DBC7" d="M468.59 371.014c1.116-6.61 2.515-12.991 3.988-19.357 2.74-11.856 5.47-23.712 8.309-35.544 2.148-8.961 4.569-17.856 6.685-26.822 2.66-11.279 5.072-22.618 7.713-33.902 1.727-7.365 3.336-14.788 5.658-21.975 1.412-4.373 5.452-6.17 10.003-6.188 8.998-.038 17.997.033 27.324.244-2.764 14.877-6.217 29.491-9.59 44.12-5.292 22.974-10.397 45.992-15.703 68.962-1.928 8.341-3.884 16.678-5.794 25.025-1.178 5.146-2.486 6.24-7.722 6.301-8.863.103-17.73.046-26.597.018-1.351-.004-2.712-.014-4.274-.882Z"/><path fill="#122023" d="M328.175 124.249c2.993 1.206 5.672 2.416 8.717 3.782 4.781-4.105 8.614-4.232 12.484.169 5.954-4.514 8.642-4.106 14.671 2.153 4.377-3.566 8.595-7.328 13.151-10.622 4.78-3.453 7.867-2.646 10.926 2.309 1.004 1.623 1.84 3.354 2.947 5.4 2.697-.563 5.456-1.699 8.154-1.563 3.185.155 6.864.629 9.331 2.374 3.238 2.285 2.262 6.156.648 9.416-1.938 3.927-3.993 7.798-6.104 11.903.619.249 1.384.671 2.205.868 5.935 1.426 7.511 3.824 4.987 9.242-2.65 5.696-7.3 9.421-13.849 9.693-6.104.254-11.349-1.576-14.436-7.793-2.534-2.026-1.915-5.601-4.931-7.642-4.044 2.43-8.628 3.969-13.705 2.637-1.262-.334-1.745.741-2.374 1.613-4.245 5.893-8.144 6.991-15.468 4.115-2.242 5.972-7.295 7.586-13.451 7.863-18.034.31-25.372 19.072-12.442 32.353-1.407 5.893-7.398 7.887-13.272 4.415-6.935-2.899-8.675-7.633-5.152-13.934-7.924-5.714-8.721-10.326-3.031-17.584-5.658-6.671-5.878-10.167-1.581-14.628-.403-4.138-.99-7.704-.938-11.26.014-.957 1.966-1.886 3.322-3.13.155-.685.159-1.079.394-1.75.596-1.637 1.051-3.026 3.11-3.241 1.075-.127 1.858-.174 2.9-.334.628-.084 1.173.329 1.285-.004.146-.432-.394-.854-.544-1.652-.042-.727.042-1.13.427-1.74 1.816-1.061 4.33-.188 4.753-3.284.206-1.521 2.622-.925 3.894-1.75.769-1.075-.324-2.281.314-3.674.854-.91 1.698-1.032 2.913-.971.737.141 1.145.263 1.844.488 1.234.333 2.018.23 2.431-.802.933-2.313 2.932-3.055 5.47-3.435Z"/><path fill="#122023" d="M298.495 141.294a41.668 41.668 0 0 1-2.927-2.036c-2.163 2.529-3.725 5.963-5.916 6.427-1.877.399-5.269-2.111-6.583-4.213-2.524-4.044-5.517-4.152-9.482-3.199-3.171.76-6.474 1.248-9.735 1.313-3.969.075-6.197-2.716-5.114-6.488.939-3.275 2.6-6.339 4.12-9.914-1.769-1.501-4.509-3.162-6.287-5.545-1.708-2.29-3.777-5.63-3.256-7.966.882-3.941 4.837-5.691 8.961-6.114 1.769-.183 3.542-.333 5.423-.506.362-4.232.836-8.206.995-12.19.15-3.766 2.121-4.719 5.33-3.795a57.271 57.271 0 0 1 7.417 2.717c4.316 1.923 7.192.97 8.956-3.251.634-1.511 1.159-3.069 1.657-4.627 1.271-3.969 2.89-4.696 6.746-2.786 3.022 1.496 5.968 3.143 8.9 4.696 3.125-4.114 4.359-10.65 10.861-9.848 7.085.873 9.843 6.775 11.908 13.348 2.064 0 4.278-.131 6.474.033 3.317.244 4.79 2.51 3.448 5.513-1.684 3.767-3.668 7.398-5.001 10.049.859 3.214 2.599 6.029 1.999 8.201-1.323 4.804-4.926 7.971-10.552 8.82-1.862 1.032.924 3.617.305 5.602-.366.324-4.415-.91-4.903-.807-.999-.131-1.674-.53-2.702.009 2.186.202 3.162 1.464 3.448 3.256.188 1.187-.67 1.431-1.942 1.342-.675-.188-1.018-.371-1.567-.774-1.159-.263-2.097-.103-3.223-.469a5.195 5.195 0 0 0-.91-.066c-.521.061-.69.244-.704.802.042.413.066.587.108 1.037-.028 2.309-.849 3.43-3.369 2.853-1.248.028-3.068-2.196-2.829 1.182.638 2.792-1.182 2.89-3.096 3.233-1.06.333-1.365.994-1.736 1.97-.253.422-.38.572-.783.84-1.689.183-2.905.835-4.439 1.351Z"/><path fill="#82ACB0" d="M352.473 479.292c8.754-.629 17.213-1.159 26.151-1.722 1.032 15.675 2.013 30.566 2.932 45.856-.84.854-1.778 1.149-2.369 1.773-7.361 7.807-16.486 9.487-26.789 8.624-7.601-.638-15.3-.127-23.698-.127 3.261-7.432 6.381-14.483 9.454-21.558 4.588-10.57 9.144-21.159 13.671-32.086-.042-.352-.037-.272-.079-.267.122-.127.276-.259.727-.493Z"/><path fill="#5E5C54" d="M468.21 371.15a661.472 661.472 0 0 1 32.527-.319c2.96.047 4.401-.971 5.011-3.791 3.091-14.272 6.197-28.539 9.411-42.778 2.655-11.766 5.517-23.486 8.206-35.243 2.721-11.907 5.235-23.862 8.036-35.746 2.004-8.477 4.335-16.88 6.855-25.461 8.9 1.44 8.923 7.202 7.15 15.163-4.044 18.147-8.229 36.262-12.438 54.371-3.401 14.634-6.953 29.239-10.368 43.867-.54 2.318-.732 4.715-1.178 7.436-.75 6.916-1.731 13.423-3.518 19.771-1.122 3.988-1.596 8.374-6.217 10.603-3.012.755-5.634 2.177-8.309 2.271-8.496.3-17.011.234-25.513.07-6.53-.127-9.702-3.519-9.655-10.214Z"/><path fill="#122023" d="M280.958 239.17c-5.466-10.49-3.702-17.926 5.226-22.716 4.757-2.548 9.698-1.783 14.605-.38 1.417.403 2.815.863 4.574 1.356 3.477-.423 6.156 1.088 8.929 2.036 7.858 2.683 15.923 4.785 23.753 8.487 1.98 1.004 3.772 1.651 5.461 2.51 4.697 2.378 7.399 6.249 7.314 11.518-.093 5.794-2.8 10.124-8.754 12.386a1041.75 1041.75 0 0 1-33.104-7.601c-6.991-1.717-14.009-3.35-21.014-5.01-2.322-.554-4.757-.803-6.99-2.586Z"/><path fill="#BA5C2E" d="M338.313 227.798c-6.812-1.675-13.601-3.73-20.366-5.874-3.95-1.253-7.854-2.651-12.001-4.208-.113-3.589.004-6.953.201-10.716 5.18 1.797 9.567.821 13.297-3.659 1.308-.901 2.486-.357 3.471.201 8.356 4.729 21.127-3.237 22.234-14.741.169-1.773-.08-3.598.873-5.606 4.339-2.576 8.749-1.366 13.422-1.239 2.243.751 2.407 2.534 2.895 4.072.896 2.82 2.482 5.114 4.879 6.855 2.778 2.017 5.335 1.196 7.915-.488 4.865-3.172 4.884-3.143 8.168 2.186.77 5.152.558 5.302-6.502 4.861-.746 3.734-1.375 7.506-2.276 11.213-1.267 5.193-5.287 8.346-10.575 8.379-8.365.052-16.725.014-25.602.014 0 2.693 0 5.513-.033 8.75Z"/><path fill="#E1FF01" d="M280.508 239.114c9.069 1.811 17.917 3.847 26.756 5.912 9.28 2.167 18.57 4.297 27.817 6.591 2.121.526 4.086 1.666 6.404 2.703.596 2.195.91 4.218 1.206 6.591-3.261 5.659-7.601 5.462-13.09 3.979-13.474-3.641-27.178-6.437-40.7-9.927-3.739-.967-7.164-3.172-10.955-5.035-1.065-4.095-1.28-7.811 2.562-10.814Z"/><path fill="#5E5C54" d="M511.368 379.361c1.656-3.444 3.983-6.306 4.926-9.567 1.919-6.648 3.092-13.507 4.804-20.535.31 14.708.587 29.67.385 44.627-.117 8.736-6.77 15.923-15.435 17.87-10.721.291-21.314.263-32.34.16-.375-3.2.84-6.217.638-9.674 8.15-.287 16.111-.244 24.073-.305 9.041-.071 13.057-4.162 13.048-13.165 0-3.003-.033-6.005-.099-9.411Z"/><path fill="#BA5C2E" d="M332.059 170.251c.769-.793 1.637-1.642 2.552-1.694 6.193-.347 8.647-2.233 10.387-8.281 7.845 4.884 12.091 3.425 16.693-5.921 5.818 3.242 10.983 1.849 16.322-3.373 1.333 3.589 2.473 6.658 3.683 10.082-.586 3.702-1.238 7.043-1.825 10.749-1.196 4.166-3.279 2.993-5.667 1.009-2.867-7.488-4.631-8.868-11.767-9.097-2.51-.08-5.029.347-5.592 3.298-.568 2.988 1.721 3.748 4.063 4.236 1.173.244 2.317.591 3.532 1.581.371 2.942-.961 4.988-2.955 7.085-5.222 1.234-10.148.755-15.426.478-4.772-3.462-8.868-7.286-14-10.152Zm142.292 231.46c1.426 3.51 1.722 6.672-.929 9.839-6.944.347-13.742.399-20.943.446.136-2.731 1.215-5.471 1.111-8.164-.168-4.509-1.083-8.994-1.717-13.845 9.29-2.074 18.077 2.585 22.478 11.724Z"/><path fill="#82ACB0" d="M374.096 171.982c1.957 1.032 3.5 3.467 5.682.469 8.327-1.961 10.228-.98 14.502 7.394.952 1.562 1.154 2.885.286 4.659-1.839 5.564-4.884 9.285-10.903 10.331-1.722-1.436-3.106-2.956-4.533-4.518-.093.042-.412.103-.609.291-7.315 7.084-14.376 5.179-17.148-4.64-.202-.718-.362-1.445-.629-2.501-.784-1.543-.502-2.618.582-3.899a202.574 202.574 0 0 0 3.476-6.169c2.59-4.049 5.771-3.129 9.294-1.417Z"/><path fill="#E1FF01" d="M394.749 184.842c-.446-1.291-.488-2.6-.455-4.303 2.603-.338 5.179-.549 7.642-.126 1.098.187 1.98 1.651 2.956 2.533-1.013.624-1.98 1.652-3.054 1.788-2.201.281-4.457.084-7.089.108Z"/><path fill="#BA5C2E" d="M320.044 128.8c.664-.146.688-.218.943-.212a.593.593 0 0 0 .554-.307.59.59 0 0 0-.136-.696c-.79-.743-1.004-1.404-1.971-2.172-1.112-1.576-.347-2.749 2.59-1.408 1.131.592 1.276.531 1.6.357.051-.047 1.408-.938 1.407-1.407-.004-2.285-.703-2.984 1.135-2.984.92 1.21 1.577 2.397 2.276 3.936-1.872 1.989-5.494 1.82-5.513 5.564 0 .132-1.389.254-2.411.272-.408-.3-.54-.483-.474-.943Zm-21.928 12.503c1.529-.582 4.396-2.163 7.915-1.694.858.695 1.684.7.938 1.694-4.223.652-5.752 2.379-6.606 3.27-1.52-.169-1.83-1.313-2.215-2.754-.093-.277-.117-.469-.032-.516Z"/><path fill="#FEFEFE" d="M352.491 479.146c.065.23-.15.404-.582.601-.028-.183.141-.413.582-.601Z"/><path fill="#0E1140" d="M353.472 354.134a13503.45 13503.45 0 0 0-27.465 30.294c.403-2.257.211-4.04.994-5.1 9.947-13.512 20.02-26.939 35.239-35.178.394-.211.723-.732 1.098-.746 1.178-.052 2.365.07 3.547.122-.554.924-.887 2.158-1.694 2.726-3.753 2.651-7.638 5.123-11.719 7.882Zm19.057 6.512c-2.857 10.504-5.536 20.709-10.856 29.81-.676-.248-1.351-.497-2.027-.741.652-2.158 1.295-4.321 1.957-6.474 2.73-8.825 5.386-17.669 8.276-26.442.488-1.478 2.012-2.614 3.059-3.904.07 1.591.215 3.186.173 4.776-.023.873-.366 1.736-.582 2.975Z"/><path fill="#82ACB0" d="M331.553 169.847a255.367 255.367 0 0 1 12.747 9.022c-1.506 2.177-3.603 1.67-5.982 1.365-1.37-.478-2.046-1.309-2.834-1.989-6.319-5.47-14.91-3.181-17.748 4.72-2.318 6.451.234 13.577 5.808 16.238 5.55 2.646 11.26.872 14.793-4.565 1.341-2.069 1.933-4.364 2.252-6.766.215-1.623.004-3.317 1.126-5.076 1.773-.938 3.157-.868 4.485.812.164 11.79-4.359 18.771-13.409 21.609-4.63 1.45-8.726.319-12.986-2.106-11.983-8.839-9.327-26.273 1.848-31.523 2.829-1.333 6.329-1.258 9.9-1.741Z"/><path fill="#BA5C2E" d="M303.83 137.175c1.525-1.014 2.965-1.689 4.293-2.675-.357.127.018-.398 0 0 .488-.469-.469-3.068-.216-3.57.192-.366 2.951 1.633 3.284 1.408 1.877-.469 2.623-.469 2.623-3.144.286-.642.624-.807 1.501-.558.549.948.976 1.822 1.361 2.711.556 1.285-.429 2.694-1.829 2.694h-3.267l.461 2.778a1 1 0 0 1-.986 1.163c-1.295.003-2.532.014-3.979.061-1.984.628.596 2.27-1.984 3.209-.798-.221-2.815-3.27-1.262-4.077Zm11.692-9.82c1.234.014 5.254 1.178 6.601 1.412.399.155.478.348.328.756-2.346.703-5.053-.648-6.315-.615-.342.019-.389-.033-.417-.061-.329-.37-.465-.769-.197-1.492Z"/><path fill="#BA5C2E" d="M316.488 127.497c-.648 1.004-1.433 1.496-2.417 2.501-.227-.364-.364-.961-.475-1.631-.089-.544.295-1.064.844-1.105.647-.049 1.316-.019 2.048.235Z"/><path fill="#E1FF01" d="M337.474 178.982c2.312.15 4.245.192 6.544.197 5.813.028 11.255.089 17.111.127.187 1.046-.038 2.116-.371 3.509-4.706.399-9.303.478-14.15.844-1.431.08-2.618-.122-4.1-.37-3.228 1.243-6.339 1.435-9.857 1.351-.878-.319-1.3-.638-1.83-1.408.3-4.381 3.27-4.396 6.653-4.25Z"/><path fill="#122023" d="M374.364 171.869c-2.979.558-5.945.751-9.172 1.089-1.868-.165-3.641-.141-5.044-.854-1.745-.892-3.978-2.088-4.584-3.688-1.083-2.871.925-4.898 3.754-5.456 5.878-1.154 15.393.586 15.046 8.909Z"/><path fill="#BA5C2E" d="M374.021 175.965c3.368 3.477 5.133 7.122 2.233 11.344-1.192 1.732-3.059 4.293-4.523 4.232-2.003-.084-4.476-1.262-5.878-3.608-.24-.469-.873-4.091-.709-4.457-1.342.258 1.342-.258 0 0-.065.268.071-.267 0 0-1.656-.577 1.633.573 0 0-.53-6.183 3.294-9.317 8.877-7.511Z"/><path fill="#E0DBC7" d="M389.451 184.602c-2.317 6.418-4.686 7.418-9.547 4.293.544-1.149 1.103-2.322 1.736-3.809 2.444-2.168 4.954-1.901 7.811-.484Z"/><path fill="#E1FF01" d="M389.982 184.705c-2.651.15-5.062.075-7.868.033-.445-1.243-.497-2.524-.511-4.189 2.407-2.173 4.879-1.816 7.783-.582.54 1.618.69 3.063.596 4.738Z"/><path fill="#E0DBC7" d="M389.654 179.845c-2.318.347-4.767.404-7.614.39-.366-1.469-.329-2.876-.296-4.279 1.802.173 3.725.019 5.353.638 1.037.389 1.637 1.933 2.557 3.251Z"/><path fill="#BA5C2E" d="M331.759 183.992a168.6 168.6 0 0 1 10.04-.835c.723 5.447-.159 10.397-4.133 14.441-4.72 4.809-10.646 5.635-16.149 2.121-5.006-3.2-7.183-10.632-5.245-16.632 3.383-10.481 15.815-12.255 21.45-4.288-2.097 1.327-4.321 2.364-6.615 3.716-1.117 1.027-2.088.314-3.073.112-2.473-.507-4.579.146-5.841 2.327-1.459 2.52-.737 4.992 1.004 7.099 1.651 1.998 3.697 2.847 6.46 1.445-1.314-1.042-2.594-.319-3.687-.751-2.515-.995-4.092-2.815-3.575-5.513.492-2.571 2.594-3.5 5.137-3.326 1.318.094 2.585 1.004 4.227.084Z"/><path fill="#122023" d="M331.904 183.683c.089 2.383-.023 3.931-2.88 1.984-1.103-.75-3.374-.539-4.692.099-.718.347-1.21 3.153-.652 3.72 1.154 1.178 3.031 1.727 4.696 2.29 1.06.356 2.266.267 3.406.375-1.032 1.075-2.346 3.219-3.049 3.036-2.543-.662-5.518-1.549-7.141-3.397-2.182-2.477-2.074-6.043.413-8.6 2.435-2.505 5.428-3.059 8.712-.441.563.3.803.521 1.187.934Z"/><path fill="#E1FF01" d="M118.131 460.417c-2.659 18.558-5.686 36.67-8.477 54.811a457.162 457.162 0 0 0-3.238 26.061c-.464 4.889-2.161 6.649-7.457 6.563-23.436-.361-46.879-.224-70.32-.115-3.038.012-4.116-.533-4.597-3.955-2.648-18.857-5.8-37.645-8.632-56.479-1.278-8.494-2.201-17.04-3.29-25.975 1.152-2.7 3.336-2.425 5.302-2.436 31.867-.092 63.735-.092 95.602-.023 1.697.012 3.382.052 5.107 1.548Z"/><path fill="#E0DBC7" d="M57.783 387.087c-2.401-1.531-5.032-2.941-6.356-5.147-7.583-12.633-11.928-26.532-14.948-40.872-1.874-8.895-4.574-17.756-5.193-26.749-1.078-15.619-1.64-31.369-.843-46.982.488-9.56 3.233-19.189 6.18-28.394 3.988-12.472 11.428-22.68 23.51-28.75 9.182-4.608 20.582 1.003 25.047 11.67 6.924 16.558 5.967 33.489 3.789 50.73-1.737 13.71-2.528 27.54-3.783 41.777.642 3.118-1.468 4.471-2.826 6.007-11.566 13.028-15.762 28.354-13.956 45.44.59 5.582 2.877 10.706 5.892 15.458.882 1.393 2.367 2.476 2.069 4.791-3.92 3.961-7.91 6.838-13.848 4.351-2.533-3.153-2.768-6.666-2.911-9.962-.872-19.596-4.373-39.049-3.336-58.737.928-17.733 2.344-35.421 5.256-52.971 1.066-6.425 1.908-12.89 3.542-19.866-2.338 1.296-2.218 2.906-2.465 4.276-2.28 12.655-4.58 25.345-5.485 38.155-1.244 17.688-2.533 35.364-1.244 53.195.929 12.81.917 25.689 3.015 38.413.212 1.364.058 2.717-1.106 4.167Z"/><path fill="#82ACB0" d="M76.234 386.33c-12.822-16.667-12.289-34.257-4.167-51.939 3.135-6.832 8.523-12.621 12.976-19.218 9.302-8.77 18.439-17.287 27.741-25.609 9.451-8.46 18.765-17.126 28.732-24.938 5.875-4.602 13.011-6.849 20.634-3.256 4.952 2.333 7.468 6.964 7.801 11.676.498 6.986.292 14.311-1.279 21.103-8.11 35.089-28.531 62.268-56.37 83.933-7.021 5.468-16.231 8.099-24.829 11.979-2.109-3.209-.344-5.983.74-8.706 12.592-31.661 29.643-60.737 50.701-87.464.516-.653 1.146-1.255 1.347-2.865-4.849 4.442-8.047 9.531-11.572 14.288-16.673 22.531-30.056 46.925-40.774 72.831-1.468 3.543-2.047 7.601-5.612 10.443-2.694.826-4.58.138-6.07-2.258Z"/><path fill="#3B3A33" d="M44.95 455.631c-12.988-9.062-25.672-17.957-33.96-31.788-5.227-8.717-9.262-17.848-10.74-27.901-1.33-9.021 2.762-17.154 9.657-18.066 4.207-.556 9.303.258 13.023 2.27 15.263 8.248 28.474 18.971 36.882 35.094 3.313 2.327 2.333 5.841 2.769 8.655 1.209 7.858 1.971 15.796 1.536 23.78-.11 1.966.55 4.7-1.674 5.417-2.19.705-3.376-1.766-4.522-3.393-10.512-14.954-21.161-29.805-32.263-44.328-2.832-3.703-5.571-7.52-9.498-10.254 6.69 8.397 13.16 16.954 19.625 25.511 7.457 9.858 14.306 20.129 21.213 30.372 1.198 1.771 3.147 3.628 1.937 5.932-1.22 2.327-3.863 1.565-5.978 1.679-1.68.092-3.376.069-5.428-.332-1.415-.499-2.138-1.215-2.579-2.648Zm30.67-25.351c7.233-9.4 14.627-17.579 24.313-23.494 13.223-8.076 26.509-16.169 41.978-18.828 5.554-.957 11.727-.241 17.258 1.152 5.875 1.479 7.216 8.07 3.542 13.211-7.267 10.174-16.736 18.043-27.248 24.405-12.546 7.589-25.654 14.243-38.447 21.425-3.468 1.949-6.683 4.356-10.23 6.855-.322 1.347-.855 2.138-1.967 2.957-2.975.935-5.697.746-8.374.556-4.098-.286-4.837-1.673-2.79-5.124 2.074-3.49 4.355-6.832 7.118-9.852 12.97-14.186 27.511-26.446 44.001-36.333 1.095-.659 2.488-1.049 3.049-3.244-6.196 3.21-11.681 6.609-16.919 10.409-12.22 8.861-23.385 18.88-33.226 30.366-1.124 1.312-2.155 3.53-4.414 2.51-1.788-.814-1.444-2.883-1.53-4.539-.16-3.09.218-6.087 1.84-9.194.642-1.123 1.106-1.937 2.046-3.238Z"/><path fill="#122023" d="M75.356 432.125c-1.1 4.93-2.093 9.526-2.878 13.166 6.099-5.331 11.997-10.959 18.382-15.951 11.468-8.97 23.189-17.608 34.945-26.193.974-.717 3.02.04 4.568.114-.774 1.124-1.307 2.579-2.35 3.324-9.09 6.54-18.977 12.169-27.248 19.608-9.514 8.557-17.636 18.679-26.33 28.148-2.488 2.711-.465 2.963 1.736 2.975 2.7.017 5.399-.012 8.569-.046 2.59-1.485 5.003-.929 7.29-.906 8.506.092 17.017-.401 25.958.493 1.009.711 1.577 1.198 2.219 2.069-.041.573-.144.751-.465 1.169-.412.298-.613.367-1.083.602-26.102.075-51.934-.04-77.76-.097-9.285-.023-18.576.08-28.326.229-.917-.052-1.375-.201-2.143-.516-.654-.55-.774-.997-.648-1.857.568-.647 1.06-.934 1.857-1.278 4.563-1.622 8.982-.785 13.315-.768 6.883.029 13.796-.659 21.103.653 3.474.247 6.511.178 9.538.298 3.536.138 3.238-1.662 1.765-3.662-13.893-18.851-27.867-37.634-41.732-56.502-.928-1.261-1.18-3.02-1.748-4.551 1.536.705 3.6.986 4.522 2.173a2877.195 2877.195 0 0 1 30.148 39.456c4.517 6.018 8.718 12.271 13.813 19.487 1.325-13.435-.378-25.437-2.304-37.782-.332-4.861-.275-9.389-.653-13.877-.384-4.642-1.186-9.25-1.909-14.311-.699-6.964-1.593-13.475-1.845-20.021-.66-16.896-1.834-33.827-1.295-50.695.538-17 2.774-33.96 4.516-50.908.585-5.675 1.788-11.309 3.084-16.874.31-1.33 2.149-2.304 3.284-3.439.39 1.421 1.347 2.963 1.077 4.247-5.972 28.543-9.365 57.39-8.373 86.53.601 17.693 2.957 35.335 4.768 53.343 2.184 2.929 2.39 6.059 2.459 9.022.235 9.468 1.868 18.765 2.957 28.13.528 4.551.224 9.079-.366 14.003-.241 1.026-.361 1.656-.379 2.304a1.546 1.546 0 0 1-.303.842c1.094-.103-.07-.877.395-1.553 1.869-16.702 6.74-32.315 11.222-48.013.556-1.938 1.29-3.841 2.82-5.766 5.28-11.269 9.578-22.64 15.384-33.169 9.125-16.547 19.138-32.607 29.053-48.707 3.319-5.388 7.365-10.345 11.355-15.28 1.031-1.273 3.1-1.691 4.699-2.505-.51 1.536-.653 3.359-1.581 4.568-15.705 20.405-30.051 41.68-40.752 65.208-4.51 9.916-8.402 20.107-12.592 30.567-2.688 8.683-5.514 16.937-7.967 25.293-1.347 4.591-2.063 9.366-3.043 14.472.022.419-.018.425-.035.43-.579.545-.556 1.267-.694 2.304Z"/><path fill="#E1FF01" d="M46.463 457.006c-11.16.258-22.353.252-34.034.172 1.02-.653 2.522-1.708 4.04-1.731 9.154-.16 18.307-.091 27.954-.155.997.448 1.501.952 2.04 1.714Zm71.858-.298c-10.638.436-21.396.504-32.624.55-.184-.602.108-1.175.63-1.851 9.056-.08 17.877-.12 26.698-.006 1.731.017 3.45.608 5.296 1.307Z"/><path fill="#1C2284" d="M9.644 458.256c.31.28.4.733.487 1.536-.247-.224-.476-.797-.487-1.536Z"/><path fill="#E0DBC7" d="M119.77 460.353c-.137-.223-.04-.418.287-.831.269.063.332.338.31.613-.012.098-.241.167-.597.218Zm-44.333-28.102c-.029-.51.138-1.226.453-2.189.011.499-.126 1.244-.453 2.189Zm-8.563 11.171c.103-.361.562-.166.808-.212.075.826-.092 1.691-.258 2.562-.218-.665-.436-1.324-.55-2.35Z"/></svg>