<svg xmlns="http://www.w3.org/2000/svg" width="991" height="1244" fill="none"><path fill="#B6B6C8" fill-rule="evenodd" d="M203.008 161.226c-.036.661 1.518 4.356 3.454 8.211 5.108 10.17 4.812 11.477-3.872 17.034-2.128 1.363-3.871 3.139-3.871 3.948 0 .808 2.851-.866 6.335-3.723 4.001-3.279 6.312-6.295 6.27-8.188-.065-2.881-8.179-19.748-8.316-17.282Zm-11.195 33.467c-7.783 7.252-45.073 10.455-42.995 3.694 1.145-3.724.295-3.097-2.14 1.576l-1.737 3.334 18.793-.594c14.032-.445 19.864-1.189 23.017-2.939 5.763-3.197 11.597-7.995 9.77-8.033-.822-.017-2.941 1.316-4.708 2.962Zm39.002 769.586c6.425.261 16.562.26 22.526-.004 5.965-.263.708-.476-11.681-.474-12.39.001-17.27.217-10.845.478Z" clip-rule="evenodd"/><path fill="#3F3D41" fill-rule="evenodd" d="M32.097 243.444c-.36.58 11.482.894 26.316.696 50.331-.672 55.247-1.158 14.733-1.455-22.216-.163-40.688.179-41.049.759Zm10.696 28.148c6 .265 15.822.265 21.823 0 6-.263 1.091-.48-10.911-.48-12.003 0-16.912.217-10.912.48ZM.017 919.968c.597.594 16.246.911 34.778.702l33.693-.381-34.778-.701c-19.127-.387-34.29-.215-33.693.38Zm271.031 81.982c.003 8.52.235 11.82.516 7.34.28-4.48.277-11.448-.006-15.485-.283-4.037-.513-.371-.51 8.145Zm588.329 163.67c10.648.24 28.071.24 38.718 0 10.647-.24 1.935-.44-19.359-.44-21.295 0-30.005.2-19.359.44Z" clip-rule="evenodd"/><path fill="#111F22" fill-rule="evenodd" d="M519.274 2.266c-2.956 1.054-8.975 4.736-13.375 8.183-13.71 10.738-15.553 11.318-36.38 11.467-28.371.203-41.121 13.068-35.693 36.018 3.01 12.735 3.244 21.823.809 31.529-4.036 16.096 1.443 30.073 11.478 29.272 3.345-.268 7.547.468 10.044 1.76 2.361 1.22 4.591 2.218 4.957 2.218.366 0 .312-4.668-.118-10.373-3.31-43.754 11.808-65.092 38.534-54.39 15.335 6.141 20.602 5.768 28.03-1.984 12.529-13.077 20.321-12.906 33.122.727 9.464 10.08 20.233 9.425 25.922-1.575 6.368-12.314-1.648-25.049-17.348-27.56-7.954-1.272-14.5-5.694-21.37-14.439-8.935-11.371-17.765-14.72-28.612-10.853Zm35.985 81.074c-3.7 1.487-7.109 7.877-5.16 9.675 2.167 2 18.536 3.265 19.616 1.516 2.567-4.152-5.72-13.717-10.88-12.558-.218.05-1.827.664-3.576 1.367ZM492.1 90.204c-7.815 4.764-7.229 17.134.614 12.937 1.588-.851 4.759-1.546 7.047-1.546 10.03 0 12.65-9.295 3.591-12.739-4.908-1.865-6.245-1.706-11.252 1.348Zm62.867 15.522c-3.256 6.086-.084 17.393 4.692 16.711 2.506-.357 3.073-1.526 3.429-7.067.669-10.396-4.459-16.485-8.121-9.644Zm-19.586 6.076c.923 1.743 3.797 5.951 6.385 9.354 5.675 7.462 5.875 10.288.995 14.126-2.04 1.605-3.1 2.918-2.357 2.918 1.967 0 7.475-6.193 7.475-8.405 0-1.039-2.963-6.224-6.585-11.525-6.636-9.713-9.014-12.313-5.913-6.468Zm-39.546.963c-3.539 6.614-.074 17.347 5.396 16.713 3.241-.376 3.759-1.147 4.126-6.142.804-10.948-5.546-17.998-9.522-10.571Zm-21.162 67.32c.085 16.885 54.954 50.039 74.97 45.3 8.28-1.961 8.236-1.888 8.608-14.714.326-11.314.008-11.724-7.022-9.052-16.941 6.443-50.222-1.868-68.366-17.069-6.628-5.554-8.2-6.41-8.19-4.465ZM74.119 245.17l42.237.735.365 7.743c.731 15.499 2.74 18.303 13.11 18.303 3.817 0 6.94-.639 6.94-1.419 0-.781-2.822-1.312-6.271-1.183-8.819.334-10.624-1.661-10.624-11.742 0-14.87 3.396-13.862-45.454-13.493l-42.54.32 42.237.736Zm-25.694 25.017c9.874.242 26.03.242 35.902 0 9.873-.242 1.795-.439-17.951-.439-19.746 0-27.823.197-17.951.439Zm630.389 12.598c0 .674 5.861 5.398 13.023 10.497 97.869 69.67 119.839 162.644 48.617 205.739-41.091 24.863-74.155 17.014-164.788-39.113-6.011-3.723-11.249-6.451-11.637-6.063-.389.389 3.08 3.044 7.708 5.901l8.414 5.193-17.044 15.082c-82.105 72.658-102.832 82.1-139.828 63.703-35.162-17.486-64.337-59.962-87.404-127.259-6.14-17.912-6.493-20.618-2.692-20.618 1.566 0 1.659-.851.468-4.271-1.118-3.205-2.123-4.067-4.038-3.46-3.602 1.143-5.171-4.331-2.187-7.628 4.849-5.359-3.811-9.209-8.791-3.91-3.591 3.824-4.313 11.629-.949 10.268l4.097-1.66c4.214-1.712 4.299 5.337.105 8.682-4.127 3.291-4.1 8.725.033 7.053l4.036-1.636c1.423-.58 3.516 3.969 7.939 17.246 25.215 75.713 62.467 124.152 103.748 134.904 28.862 7.519 54.707-6.063 117.666-61.835l26.437-23.419 17.208 10.147c62.577 36.904 90.616 44.281 123.871 32.589 78.094-27.459 82.229-111.892 9.008-183.912-19.066-18.753-53.02-45.79-53.02-42.22ZM179.547 453.41c-53.644 13.886-44.506 93.505 10.758 93.736 35.69.149 58.123-34.691 43.249-67.176-8.955-19.564-33.812-31.787-54.007-26.56Zm386.166 72.903c-1.559 1.558-1.055 8.237.758 10.051 1.155 1.154 1.883 9.948 2.28 27.527l.581 25.831-18.118.885c-9.965.488-41.401 1.307-69.857 1.821l-51.739.933-6.054 6.484c-71.352 76.412-146.89 409.655-139.445 615.175l.927 25.57h171.319v-7.82c0-17.36-11.659-49.2-18.014-49.2-.476 0-2.325-1.46-4.108-3.25-1.784-1.78-3.971-2.79-4.858-2.24-.935.58-1.23.38-.704-.48.993-1.6-4.964-4.77-13.941-7.42-3.332-.98-11.271-1.48-19.006-1.19l-13.284.5 8.447-8.47c11.089-11.11 33.261-60.59 48.573-108.39.991-3.09 15.705-40.16 32.697-82.359 16.992-42.202 35.702-88.927 41.578-103.833 12.4-31.454 12.712-31.782 12.063-12.671-.86 25.337-3.329 195.663-4.243 292.843l-.886 93.98H728.09v-3.97c0-34.53-32.752-62.1-76.678-64.55-12.529-.69-15.956-1.26-13.376-2.21 16.942-6.26 25.495-13.85 32.692-29 4.593-9.66 5.342-14.77 7.98-54.44.825-12.39 2.761-41.21 4.304-64.06 3.271-48.396 8.961-144.208 11.916-200.623 1.137-21.681 2.55-47.974 3.143-58.428 3.476-61.359.584-132.452-6.641-163.229l-3.055-13.012-20.62.819c-11.341.451-37.725.983-58.633 1.183l-38.013.363-.393-25.342c-.266-17.19.131-26.326 1.236-28.402 3.161-5.938-1.968-13.648-6.239-9.376Zm323.033 153.436c-6.321 23.833-4.188 42.016 7.673 65.424 3.197 6.308 3.383 7.422 1.581 9.475-6.423 7.318-12.201 26.15-12.16 39.635.037 12.278 6.619 64.182 7.967 62.832.358-.356-.706-10.918-2.365-23.468-6.649-50.336-3.203-67.953 17.375-88.831 4.75-4.819 6.736-7.439 4.412-5.821-2.323 1.616-6.055 4.867-8.295 7.225l-4.072 4.286-4.119-8.711c-9.865-20.858-11.555-33.44-7.513-55.92 2.067-11.494 1.808-14.768-.484-6.126Zm-85.082 105.36c-25.157 13.122-16.418 46.643 48.788 187.151l14.317 30.85.898-13.251c8.808-129.932-21.509-226.914-64.003-204.75Zm149.271 76.953c-1.095 2.601-4.602 8.017-7.793 12.035-4.551 5.736-6.46 9.95-8.879 19.59-2.547 10.158-4.138 13.518-9.201 19.442-8.656 10.127-14.352 18.939-15.923 24.632-2.097 7.593-.649 6.721 2.255-1.359 1.502-4.177 6.344-11.748 11.414-17.846 8.595-10.338 10.412-14.21 14.492-30.898.791-3.237 3.688-8.577 6.439-11.87 5.432-6.502 11.062-16.579 9.908-17.734-.396-.395-1.616 1.408-2.712 4.008ZM.205 892.836c0 .907 14.725 1.408 41.36 1.408 46.894 0 45.528-.328 44.036 10.564-.887 6.471.782 13.199 3.742 15.08 2.375 1.51 13.314 1.361 14.276-.194.453-.733-1.881-1.197-5.34-1.063-9.067.35-10.785-1.755-10.785-13.216 0-14.527 1.81-13.987-46.774-13.987-26.072 0-40.516.502-40.516 1.408Zm16.542 26.394c9.487.244 25.007.244 34.494 0 9.486-.243 1.724-.443-17.247-.443s-26.733.2-17.247.443Zm199.57 46.365c-9.886 2.575-13.375 11.313-13.375 33.493v17.642h14.079v-35.196h53.149l.88 4.4c.484 2.42.88 10.373.88 17.676v13.28l6.687-.43 6.688-.43.394-18.002c.68-31.03-1.19-32.578-39.816-32.925-14.712-.134-28.017.088-29.566.492Zm717.558 73.875c-4.2 8.08-6.385 14.44-7.475 21.78-1.572 10.57-2.168 11.76-14.857 29.78-3.251 4.62-6.308 10.22-6.793 12.45-.679 3.12.057 2.42 3.158-2.98 2.223-3.87 6.974-11 10.559-15.85 7.076-9.56 8.826-13.93 10.193-25.46.563-4.75 3.041-11.63 6.71-18.64 3.2-6.11 5.508-11.42 5.128-11.8-.379-.38-3.36 4.45-6.623 10.72Zm-135.991 1.9c1.594 11.07 15.289 27.19 25.21 29.68 2.744.69 3.312 1.93 3.846 8.37 1.045 12.61 12.587 25.3 31.873 35.06 11.388 5.76 10.244 3.34-1.479-3.13-18.809-10.38-29.283-23.07-29.283-35.48 0-4.57-.514-5.26-5.215-6.96-8.208-2.97-19.157-14.9-22.723-24.76-2.667-7.38-2.94-7.72-2.229-2.78Zm38.634 127.06c.01 1.36 3.178 18.27 7.04 37.58 3.86 19.31 7.02 35.31 7.02 35.55 0 .24 14.787.44 32.862.44h32.862l5.883-35.55c3.236-19.56 5.87-36.66 5.856-38.02-.027-2.29-3.157-2.46-45.785-2.46-42.647 0-45.756.17-45.738 2.46Z" clip-rule="evenodd"/><path fill="#111F22" d="M525.033 156.337c10.902 11.462 31.293 5.93 31.293-8.49 0-1.434-.474-2.532-1.056-2.442-.581.09-4.54.773-8.799 1.515-4.259.743-12.021 1.022-17.247.621-11.427-.876-12.083.501-4.191 8.796Z"/><path fill="#CBE0E4" fill-rule="evenodd" d="M177.786 74.914c-19.345 3.93-34.48 18.397-41.074 39.266-4.641 14.683-13.446 18.389-43.694 18.389-52.232 0-76.641 54.115-31.366 69.543 10.244 3.49 200.498 3.39 203.996-.107 7.238-7.238.802-29.151-10.401-35.409-11.47-6.407-13.117-10.214-14.543-33.625-2.554-41.928-27.771-65.197-62.918-58.057Zm23.33 79.581c14.386 27.746 14.569 25.051-2.575 37.836l-14.256 10.633h-39.956l15.843-31.326c24.379-48.202 24.756-48.362 40.944-17.143Zm223.571 76.611c-160.174 56.614-176.303 171.852-50.624 361.689l4.09 6.177 18.339-1.127c10.087-.619 20.557-1.182 23.267-1.25 2.757-.069 5.676-1.118 6.623-2.381 1.466-1.951 7.678-2.383 45.757-3.181 24.234-.51 55.708-1.329 69.942-1.822l25.881-.897-.67-24.374c-.448-16.254-1.244-25.065-2.395-26.45-2.379-2.866-1.354-10.799 1.636-12.671 4.263-2.67 7.482.636 6.878 7.062-.862 9.156-.948 55.157-.104 55.998.994.991 115.666-1.801 116.708-2.841 2.772-2.771 1.471-69.52-1.356-69.52-18.501 0-44.293-11.039-94.612-40.495l-12.26-7.176-19.442 17.255c-62.679 55.629-83.887 68.911-110.204 69.013-46.031.178-88.239-47.441-118.441-133.63-4.443-12.683-7.527-19.524-8.645-19.187-5.961 1.796-6.437 1.709-7.414-1.369-.785-2.476-.17-3.943 2.681-6.396 4.218-3.629 4.898-6.801 1.236-5.766-6.544 1.85-6.683 1.792-7.141-3.001-.46-4.816 5.117-12.854 8.919-12.854 4.286 0 8.31 6.876 5.708 9.753-2.904 3.207-1.927 5.766 1.825 4.785 1.865-.488 2.875.261 3.5 2.595 1.415 5.284 1.058 7.971-1.121 8.459-3.707.827 11.007 41.738 25.095 69.767 53.734 106.916 100.957 108.073 211.008 5.171l8.096-7.572-5.74-3.622c-3.158-1.994-6.642-3.97-7.744-4.394-2.733-1.048-2.546-4.691.242-4.691 1.234 0 3.928 1.184 5.983 2.632 63.63 44.827 116.22 62.855 150.252 51.51 93.239-31.082 75.147-142.487-35.057-215.848-8.698-5.791-9.381-6.58-7.121-8.231 2.385-1.746 2.383-1.828-.051-1.828-1.402 0-6.116-2.148-10.476-4.774-22.932-13.807-104.982-47.363-89.244-36.497 3.725 2.572 27.219 21.565 33.799 27.325 2.517 2.203 4.576 4.618 4.576 5.365 0 4.007-44.141 68.109-45.105 65.503-.559-1.512-2.465-20.92-4.237-43.128l-3.219-40.379-4.341.973c-9.712 2.179-53.165.787-65.938-2.112-6.775-1.537-12.319-2.665-12.319-2.506 0 .159 5.613 9.402 12.473 20.54 24.203 39.292 51.985 89.307 50.458 90.835-.448.448-3.862-1.797-7.586-4.99-6.964-5.969-75.267-55.941-102.165-74.747-18.445-12.895-18.545-11.53 3.503-47.671 6.719-11.013 8.052-10.719-13.703-3.029Zm457.746 95.315c-9.962 3.437-22.229 15.717-25.998 26.024-4.632 12.667-4.958 149.798-.386 161.777 14.134 37.026 66.37 39.024 84.647 3.236l3.507-6.867V357.129l-3.248-6.527c-10.945-22-35.469-32.132-58.522-24.181Zm-431.867 24.112 4.35 6.779 8.115-.556c7.904-.541 32.973 3.749 64.723 11.076l12.96 2.99.701 5.825c1.453 12.078 2.202 43.134 1.039 43.134-.666 0-9.157-3.801-18.87-8.448-16.215-7.756-18.448-8.45-27.305-8.479-15.812-.052-43.538-2.571-47.331-4.299-8.965-4.085-9.209-23.483-.418-33.435l2.889-3.272-4.518-8.156c-4.12-7.436-4.55-9.938-1.712-9.938.565 0 2.985 3.051 5.377 6.779Zm245.706.815c10.211 4.266 26.17 38.867 17.926 38.867-.887 0-15.706-2.177-32.93-4.836-17.223-2.66-37.969-5.618-46.099-6.572-19.482-2.29-19.603-2.695-3.248-10.902 33.274-16.697 52.299-21.593 64.351-16.557Zm-646.16 99.46c-61.057 6.272-63.012 98.102-2.713 127.494l11.233 5.477 39.422.715 39.421.715 6.434 3.784c22.625 13.3 20.817 49.577-3.076 61.767-4.504 2.296-8.341 2.734-24.068 2.745-48.094.031-66.673 4.846-83.27 21.581-32.585 32.852-16.078 91.328 28.65 101.501 14.538 3.306 136.686 3.303 139.993-.003 2.322-2.323 3.318-38.371 1.332-48.296l-.88-4.4h-64.587c-56.472 0-64.588-.265-64.588-2.112 0-1.689-2.112-2.112-10.559-2.112h-10.56V688.69h12.119c11.018 0 12.019-.224 11.023-2.463-.602-1.355-1.367-5.158-1.7-8.448l-.606-5.983H204.35v-57.549c0-31.651-.364-59.369-.809-61.595l-.81-4.048h-12.213c-51.012 0-67.187-71.055-21.087-92.627 10.467-4.898 8.834-5.212-28.084-5.395-19.166-.096-45.616-.281-58.78-.412-13.164-.13-27.768.157-32.455.638ZM13.227 895.289c5.228.27 13.78.27 19.007 0 5.228-.272.95-.493-9.503-.493-10.454 0-14.731.221-9.504.493Zm180.916 347.761c16.456.23 43.382.23 59.836 0 16.455-.22 2.992-.41-29.918-.41s-46.372.19-29.918.41Z" clip-rule="evenodd"/><path fill="#7C8C01" fill-rule="evenodd" d="M180.168 139.256c-4.131 4.325-13.39 21.24-28.71 52.445-4.923 10.027-5.103 9.855 10.305 9.855 13.345 0 28.508-2.898 28.508-5.449 0-.614 1.704-2.014 3.785-3.113 2.082-1.098 5.127-3.264 6.769-4.813 1.642-1.549 4.373-3.748 6.071-4.887 3.805-2.553 3.886-5.443.342-12.316-1.509-2.929-3.395-7.067-4.189-9.195-.795-2.129-2.131-3.872-2.97-3.872-.839 0-1.166-.583-.727-1.294.441-.712-.201-2.296-1.425-3.52-1.224-1.225-1.819-2.226-1.32-2.226.498 0-.09-.994-1.305-2.21-1.217-1.215-2.623-3.853-3.127-5.861-.899-3.579-4.556-8.823-6.154-8.823-.445 0-3.079 2.376-5.853 5.279Zm697.851 471.81c-36.221 16.455-34.89 91.464 3.811 214.895 7.527 24 9.788 26.881 6.805 8.664-6.219-37.968-3.776-65.153 7.136-79.46 2.37-3.106 2.305-3.544-1.844-12.672-7.605-16.725-9.56-24.001-9.56-35.597 0-10.102 3.18-31.71 4.924-33.453 2.413-2.413 3.021 2.951 1.249 11.024-4.501 20.509-2.848 34.727 6.425 55.26 3.631 8.039 2.77 7.96 11.504 1.056 3.919-3.098 7.702-5.632 8.407-5.632 2.838 0 .924 3.724-3.618 7.04-22.939 16.741-27.653 38.206-20.546 93.566 1.601 12.462 2.213 21.978 1.502 23.307-.661 1.236-.711 3.042-.109 4.015 1.369 2.216 8.947-23.312 22.091-74.427 15.698-61.049 19.164-104.063 10.945-135.814-8.273-31.955-30.021-50.449-49.122-41.772Zm90.119 187.017c-19.719 4.977-39.974 47.812-52.697 111.448-3.971 19.869-3.88 20.298 2.739 12.871 10.635-11.932 14.12-18.018 17.128-29.913 2.16-8.539 4.201-13.09 7.717-17.197 2.629-3.072 6.186-8.59 7.907-12.265 2.815-6.015 6.646-9.088 6.646-5.332 0 2.791-5.399 12.028-10.977 18.777-4.242 5.134-6.019 8.891-7.304 15.445-2.454 12.516-4.658 16.953-13.33 26.829-7.952 9.057-20.974 36.016-18.561 38.427.417.417 10.562-11.371 23.159-26.906 2.565-3.164 5.74-7.02 7.056-8.569 6.592-7.759 15.734-20.376 15.734-21.715 0-.834.536-1.515 1.192-1.515 4.089 0 29.649-44.176 34.055-58.853 7.39-24.622-3.102-45.915-20.464-41.532Z" clip-rule="evenodd"/><path fill="#5F6B00" fill-rule="evenodd" d="M943.38 970.664c-17.196 11.589-37.907 77.956-37.88 121.396l.003 5.63 2.115-4.06c1.163-2.23 4.009-5.99 6.327-8.36 2.317-2.37 4.212-5.14 4.212-6.15 0-1.02.634-1.85 1.408-1.85.774 0 1.412-.79 1.416-1.76.006-.96.911-3.49 2.015-5.6 1.103-2.11 2.341-7.63 2.754-12.25.752-8.45 2.271-12.35 6.847-17.55 1.358-1.54 3.228-4.9 4.154-7.46.925-2.56 2.188-4.65 2.808-4.65 2.354 0 .947 5.01-3.861 13.76-3.415 6.21-5.367 12.02-6.196 18.42-1.529 11.82-3.209 16.08-9.789 24.84-13.27 17.66-15.124 21.69-16.211 35.23-.58 7.22-.488 12.03.214 11.23 23.546-26.99 65.744-108.86 68.679-133.252 2.777-23.05-13.196-38.224-29.015-27.564Zm-166.516 33.476c-23.761 6.91-16.621 41.37 15.286 73.77 22.633 22.98 76.852 63.29 80.238 59.65 1.895-2.04-5.5-18.33-8.857-19.52-2.091-.74-4.752-1.88-5.914-2.53-7.349-4.14-9.386-5.48-12.586-8.32-1.967-1.74-3.961-3.17-4.431-3.17-4.145 0-15.349-18.15-15.386-24.93-.029-5.21-.715-5.99-10.186-11.65-4.453-2.66-8.095-5.22-8.095-5.69 0-.46-1.11-2.07-2.464-3.57-5.816-6.44-10.6-21.74-6.799-21.74 1.222 0 2.223 1.15 2.223 2.54 0 8.87 12.122 23.67 23.511 28.71 5.267 2.33 6.069 3.26 6.159 7.19.281 12.03 4.6 19.35 16.657 28.23 21.479 15.81 22.552 12.7 6.951-20.17-23.413-49.33-57.306-84.333-76.307-78.8Z" clip-rule="evenodd"/><path fill="#767A8D" fill-rule="evenodd" d="M53.353 268.776c7.936.251 20.925.251 28.862 0 7.936-.25 1.443-.456-14.431-.456-15.874 0-22.368.206-14.431.456Zm177.396 713.806c7.162.256 18.882.256 26.046 0 7.162-.255 1.302-.465-13.023-.465-14.326 0-20.187.21-13.023.465Z" clip-rule="evenodd"/><path fill="#3E6D77" fill-rule="evenodd" d="M461.997 219.45c-18.058 5.637-16.235 3.749-33.271 34.444-4.157 7.49-7.559 14.225-7.559 14.967 0 .742 14.414 11.677 32.03 24.302 17.616 12.623 43.617 31.547 57.78 42.053 14.163 10.504 27.128 20.05 28.812 21.211 4.966 3.427-20.18-42.251-47.666-86.586-7.202-11.615-12.592-21.296-11.981-21.511.611-.217 4.855.584 9.433 1.781 18.171 4.749 61.645 6.447 73.134 2.856 2.784-.87 2.951.223 6.094 39.668 3.824 48.008 3.075 46.551 14.752 28.728 31.206-47.626 32.258-49.399 30.539-51.47-3.174-3.824-34.552-28.598-43.514-34.357-9.875-6.344-10.695-6.368-11.899-.348-2.248 11.243-51.73 10.795-79.279-.716-4.55-1.901-4.734-2.277-4.734-9.619 0-9.471.153-9.406-12.671-5.403Z" clip-rule="evenodd"/><path fill="#849DA2" fill-rule="evenodd" d="M28.652 917.815c5.194.269 14.064.272 19.711.003 5.649-.267 1.4-.488-9.441-.49-10.841-.003-15.462.217-10.27.487Zm173.42 82.725c.003 9.29.231 12.91.506 8.04.276-4.87.274-12.47-.004-16.892-.279-4.422-.504-.438-.502 8.852Zm318.268 199.92c0 21.69.196 30.36.434 19.28.238-11.08.238-28.82-.002-39.42-.238-10.6-.433-1.54-.432 20.14Zm349.597 42.59c8.712.25 22.967.25 31.677 0 8.712-.25 1.584-.45-15.839-.45-17.422 0-24.549.2-15.838.45Z" clip-rule="evenodd"/><path fill="#3C5B5B" fill-rule="evenodd" d="m456.476 1237.41-.111 3.16-85.53.37-85.53.38 85.573.34c90.296.36 88.864.45 86.434-5.6-.398-.99-.775-.38-.836 1.35Zm116.393 4.24c28.844.21 76.045.21 104.889 0 28.843-.21 5.244-.39-52.445-.39s-81.288.18-52.444.39Z" clip-rule="evenodd"/><path fill="#6D7034" fill-rule="evenodd" d="M282.351 1181.46c0 12 .217 16.91.48 10.91.265-6 .265-15.82 0-21.82-.263-6.01-.48-1.1-.48 10.91Z" clip-rule="evenodd"/><path fill="#CDE801" fill-rule="evenodd" d="M162.372 1018.3c-7.786 1.45-14.584 5.68-19.664 12.24-8.298 10.71-8.049 7.6-8.049 100.23v85.18l3.317 6.74c8.988 18.25 15.104 19.58 87.493 19.03l57.02-.43-.469-42.23c-.507-45.84 1.474-82.92 7.563-141.5 1.891-18.2 3.445-34.69 3.452-36.64l.013-3.56-62.3-.09c-34.264-.06-65.033.41-68.376 1.03Zm277.494 38.21c-4.607 14.2-33.751 87.09-36.683 91.75-1.912 3.04-6.189 8.43-9.504 11.97l-6.027 6.44 12.181.15c14.607.17 24.91 3.65 35.416 11.96l7.037 5.56v-66.21c0-36.41-.21-66.2-.468-66.2-.257 0-1.136 2.06-1.952 4.58Z" clip-rule="evenodd"/><path fill="#F5B3BE" fill-rule="evenodd" d="M583.658 134.68c.001 13.938.212 19.45.468 12.247.257-7.201.255-18.605-.002-25.342-.258-6.735-.468-.843-.466 13.095ZM106.95 672.85c18.832.222 49.243.222 67.579 0 18.338-.223 2.93-.404-34.238-.404-37.169.001-52.172.183-33.341.404Zm-.097 50.684c18.004.223 47.465.223 65.467 0 18.005-.222 3.274-.405-32.733-.405s-50.737.183-32.734.405Z" clip-rule="evenodd"/><path fill="#F6906B" fill-rule="evenodd" d="M539.697 47.693c-1.789.34-5.59 3.147-8.447 6.233-10.342 11.171-14.586 11.787-32.648 4.729-25.57-9.992-35.804 3.16-35.87 46.107-.017 10.646-.348 19.335-.735 19.308-.388-.026-2.288-.953-4.224-2.059-7.696-4.4-15.165-2.611-18.81 4.505-6.545 12.774 1.235 26 15.293 26 5.43 0 6.183.404 6.985 3.753 5.575 23.326 47.774 48.633 77.091 46.233 41.201-3.372 50.007-26.155 43.417-112.318-1.973-25.788-1.763-25.194-8.887-25.194-5.077 0-6.464-.829-12.873-7.69-6.259-6.704-12.951-11.042-16.074-10.42-.53.105-2.428.47-4.218.813Zm28.66 37.649c7.145 7.144 4.016 10.889-8.638 10.34l-9.728-.422-.431-4.44c-.837-8.615 11.937-12.339 18.797-5.478Zm-61.622 4.367c6.06 4.243 3.203 11.887-4.443 11.887-2.306 0-6.357.781-8.999 1.737-8.911 3.223-10.961-6.84-2.715-13.321 3.871-3.041 12.031-3.195 16.157-.303Zm56.556 17.337c2.327 5.62 1.377 14.316-1.774 16.23-3.821 2.322-8.007-3.425-8.007-10.995 0-9.463 6.572-12.98 9.781-5.235Zm-20.584 11.697c3.619 5.173 6.58 9.997 6.58 10.721 0 2.7-5.757 8.505-9.847 9.931-4.979 1.736-5.98-.595-1.065-2.475 8.703-3.328 9.039-6.223 1.936-16.626-3.584-5.251-6.517-10.466-6.514-11.588.004-2.517.586-1.861 8.91 10.037Zm-39.334-7.951c5.288 5.289 4.247 19.272-1.496 20.098-4.284.617-7.499-4.711-7.499-12.432 0-9.013 4.13-12.533 8.995-7.666Zm52.953 37.056c0 14.42-20.391 19.952-31.293 8.49-7.892-8.295-7.236-9.672 4.191-8.796 5.226.401 12.988.122 17.247-.621 4.259-.742 8.218-1.425 8.799-1.515.582-.09 1.056 1.008 1.056 2.442Zm-81.637 59.693c.025 24.279-.024 24.12 8.371 27.082 28.17 9.94 69.075 10.264 74.505.59 2.688-4.79 1.095-11.821-2.354-10.383-17.159 7.152-77.727-22.139-77.727-37.591 0-.642-.634-1.169-1.408-1.169-.879 0-1.4 8.082-1.387 21.471ZM674.59 352.024c-11.106 2.365-49.101 19.004-51.218 22.431-.413.666 5.399 1.989 12.915 2.938 11.753 1.485 58.829 8.436 73.354 10.831l4.781.788-.912-6.789c-3.13-23.296-17.818-34.693-38.92-30.199Zm-218.46 6.965c-6.243 2.544-12.436 14.831-12.436 24.666 0 14.268 3.215 15.652 39.981 17.211l23.791 1.008 16.764 8.25c9.219 4.538 17.013 8.25 17.32 8.25 1.378 0-1.181-44.474-2.643-45.906-4.744-4.654-75.976-16.251-82.777-13.479Z" clip-rule="evenodd"/><path fill="#111F22" d="M450.735 135.818c-8.266-2.935-8.608-5.126-1.543-9.886 4.668-3.147 4.694-3.217 1.171-3.217-5.188 0-14.943 12.588-9.837 12.692 3.455.07 4.822 2.52 3.151 5.643l-1.716 3.207 4.033-2.852c2.925-2.067 4.896-2.53 7.158-1.683 1.764.662 3.466.617 3.911-.102.433-.702-2.414-2.412-6.328-3.802Z"/><path fill="#CDE801" fill-rule="evenodd" d="M74.522 673.975c-1.017 1.017 1.49 10.693 3.248 12.533 2.809 2.942.749 3.591-11.394 3.591H53.705v28.158h10.559c8.51 0 10.56.415 10.56 2.14 0 1.898 11.06 2.096 97.736 1.76l97.737-.381 3.632-3.412c5.61-5.273 5.61-35.771 0-41.043l-3.632-3.413-97.475-.38c-53.61-.209-97.845-.007-98.3.447Z" clip-rule="evenodd"/></svg>