<svg xmlns="http://www.w3.org/2000/svg" width="853.077" height="1182.209" fill="none"><g clip-path="url(#a)" transform="translate(-217.583 -53.531)"><path fill="#e28e69" d="M1026.92 1184.6c-26.17 13.79-54.27 17.57-84.23 14.47 9.16 26.46 19.23 52.49 28.51 78.81 4.99 14.15 3.11 27.79-5.82 40.45-7.12 10.09-13.72 20.58-19.96 31.24-2.2 3.75-3.46 8.46-3.77 12.83-.74 10.58 3.55 14.3 13.95 16.31 7.39 1.43 14.97 3.96 21.4 7.79 11.34 6.75 14.36 6.66 25.63-5.55-2.1-7.96-2-15.39 2.07-22.39 2.16-3.71 1.58-6.71-.76-10.07-5.14-7.37-6.04-15.78-5.15-24.46.14-1.33-.23-3.43 1.65-3.59.69-.05.47 2.12.36 3.26-.79 8.76.65 16.99 5.51 24.46 2.81 4.32 2.33 8.38-.2 12.8-2.95 5.15-5.42 11.12.42 15.69 5.96 4.67 12.29 2.24 17.67-1.72 4.96-3.64 8.52-8.65 11.16-14.25.51-1.08 1.58-3.05 2-2.74 1.42 1.05.25 2.64-.19 3.91-1.54 4.42-4.39 7.92-7.77 11.11-2.87 2.7-6.4 4.71-8.62 8.81 4.55 24.3 9.18 47.97 13.83 71.63.29 1.49.29 3.39 1.21 4.36 2.92 3.08 6.2 5.8 9.34 8.66 2.47-3.45 6.83-6.78 7.06-10.38.74-11.38.6-22.92-.38-34.29-4.8-55.89-9.63-111.78-15.19-167.6-2.31-23.08-6.47-45.96-9.73-69.55z"/><path fill="#cbe0e4" d="M878.77 798.671c28.93 23.47 55.19 48.69 79.13 76.42 30.95 35.85 58.32 74.05 79.15 116.72 16.97 34.749 28.49 70.939 25.7 110.169-3.69 51.95-36.36 106.47-96.64 118.83-4.41.9-9.11.39-14.52.5-2.39-3.94-6.15-4.81-9.46-6.27-37.12-16.31-54.64-45.84-58.06-85.22-1.21-13.93-3.45-27.37-11.07-40.06-20.47-34.11-32.96-71.36-40.64-110.359-7.27-36.97-11.64-74.15-10.58-111.88.06-2.08.49-4.29-.83-6.22-1.95 1.57-1.31 3.81-1.3 5.76.16 63.73 8.33 126.08 32.79 185.479 3.26 7.91 4.37 15.9 3.77 24.18-1.87 26.04-10.86 49.27-28.77 69.54-5.49 2.98-10.73 2.83-15.9 2.83-85.09.04-170.18.04-255.27 0-4.57 0-9.17.03-14.26-2.13-18.61-17.77-28.59-39.18-33.97-63.34-4.86-21.83-2.34-42.86 2.94-64.21 12.52-50.669 23.79-101.639 36.33-152.309.29-1.19.64-2.38.69-3.6.04-1.05.8-2.8-.58-2.92-1.08-.1-1.06 1.87-1.34 2.99-6.04 23.98-11.88 48.01-17.38 72.11-6.51 28.57-13.32 57.07-20.2 85.549-6.86 28.4-6.02 56.24 3.55 83.82.9 2.6 1.97 5.15 1.73 8.7-7.46 8.76-13.98 17.68-22.16 24.66-28 23.92-59.45 30.56-94.82 17.95-35.08-12.51-55.8-38.57-68.83-71.63-12.68-32.19-18.95-66.02-22.85-100.349-2.01-17.72-4.83-35.35-7.27-53.83 15.65-15.54 34.86-22.94 55.45-27.05 8.28-1.65 16.8-3.72 26.01-.36 6.25 12.56 11.81 24.85 17.26 37.86-9.22 3.66-18.78 1.51-28.12 3.33-17.4 3.39-31.92 11.46-44.25 23.89-1.03 1.04-2.83 3.21-2.54 3.33 1.99.84 2.86-1.3 4.08-2.32 14.99-12.5 31.35-21.82 51.19-24.38 6.81-.88 13.31-.52 20.54.83 3.23 4.22 5.81 8.22 8.47 12.17 4.81 7.14 9.52 14.63 19.73 13.95 9.89-.66 16-7.05 20.05-15.18 8.47-17 15.66-34.67 24.66-51.37 23.11-42.91 45.49-86.43 80.19-121.67 18.31-18.6 39.74-32.47 65.14-39.66 2.61-.74 5.06-2.07 8.28-3.23 1-.4 1.3-.7 2.05-1.47.81-.72 1.17-.97 2.12-1.53 1.02-.48 1.44-.64 2.52-1.02 24.28-5.33 47.37-12.61 71.74-17.66 61.73 1.61 116.38 19.45 160.62 63.42 5.17 5.17 11.33 9.36 15.73 16.24z"/><path fill="#e0dbc7" d="M897.12 53.96c53.38-2.78 101.91 7.44 141.13 45.4 48.78 47.211 40.27 116.691-10.61 157.491-24.52 19.67-52.75 31.17-84.2 34.74-2.57.29-6.12 4.66-6.72 7.63-4.14 20.57-10.01 40.62-21.48 58.21-5.77 8.85-13.91 16.54-22.18 23.27-6.57 5.35-15.6 2.84-21.93-3.85-5.75-6.07-6.49-15.6-1.85-23.59 4.04-6.94 12.38-10.18 20.43-7.74 7.36 2.24 15.06 7.32 21.91-.03 6.98-7.49 4.45-15.89 1.56-24.75-2.49-7.62-2.4-16.05-3.89-24.04-.26-1.38-2.54-3.13-4.11-3.41-18.17-3.28-36.96-4.44-54.48-9.77-42.99-13.1-76.63-38.28-91.4-82.61-12.44-37.32 2.44-77.73 33.64-105.64 29.42-26.29 64.9-37.51 104.18-41.31z"/><path fill="#7c8c01" d="M426.78 82.16c33.62-1.66 65.19 2.99 94.31 18.911 29.54 16.16 49.84 40.5 55.1 73.85 5.17 32.77-4.86 62.56-27.11 87.65-5.26 5.93-10.9 11.55-16.65 17.01-3.18 3.02-3.21 4.62-.89 8.94 5.06 9.45 8.25 19.91 12.11 30 1.28 3.35 1.83 7.05 3.47 10.19 5.53 10.6 13.54 12.56 23.09 5.77 2.21-1.57 4.02-3.72 5.91-5.7 7.9-8.32 15.28-9.7 24.38-4.49 8.36 4.79 12.72 14.46 10.45 23.2-2.48 9.57-10.52 15.82-20.97 15.37-18.33-.78-32.96-10.59-45.97-21.94-12.53-10.93-23.47-23.76-34.57-36.23-3.01-3.38-4.9-4.46-8.88-2.23-19.61 10.95-40.84 18.09-62.91 20.53-52.6 5.82-102.47-.19-140.74-42.23-23.11-25.39-30.05-55.8-22.39-88.99 9.61-41.63 37.95-68.01 74.15-87.24 24.14-12.81 50.35-18.86 78.11-22.37z"/><path fill="#111f22" d="M879.14 798.56c-13.3-10.62-26.3-22.32-39.9-33.27-22.32-17.96-47.86-29.72-75.82-35.43-19.26-3.93-38.91-5.98-59.15-8.94-3.75-2.54-3.48-6.04-3.51-9.33-.14-15.22.06-30.44-.1-45.66-.07-6.93 2.33-12.25 7.7-16.66 8.94-7.34 17.42-15.21 26.11-23.99 1.45-1.06 2.37-1.47 4.09-1.86 8.64.74 15.06 6.57 23.72 7.09 2.93 4.62 1.8 9.28 2.27 13.73.09.83.02 2.1 1.03 2.11.94.01.99-1.25 1.1-2.08.64-4.77-.4-9.69 1.63-14.94 1.6-2 3.4-2.49 5.05-3.27 21-9.97 26.36-35.83 11.15-53.67-11.04-12.95-30.16-15.07-43.78-4.83-2.19 1.65-4.03 3.76-7.39 4.89-1.69.07-2.52-.34-3.57-1.69-1.01-13.69 1.76-26.61.75-39.79-1.31-17.2-9.73-28.39-25.23-34.91-29.83-12.55-59.83-24.68-89.89-36.66-3.67-1.46-7.56-2.57-10.59-6.37 15.86-16.78 35.46-24.86 58.14-26.06 17.13-.9 33.8.84 50.5 7.39 2.03.94 2.54 2.34 3.03 3.79 6.35 18.37 14.3 22.65 33.04 17.8 1.18-.31 2.35-.55 4.16-.08 7.49 11.39 14.38 22.43 21.27 33.48.16.26.46.5.48.77 2.06 20.47 14.97 23.13 32.49 21.59 16.7-1.46 28.2 10.47 27.24 27.43-.75 13.32 4.71 21.73 20.43 20.06 13.32-1.42 26.35.73 32.89 13.92 3.58 7.21 4.76 16.17 4.94 24.39.29 13.68 3.58 17.58 17.08 20.49 17.44 3.76 34.22 9.89 41.92 28.05 10.72 25.31 3.63 51.94-24.62 64.63-7.64 3.43-10.01 7.71-8.58 16.12 1.48 8.68 2.11 17.95.72 26.58-1.94 12.02-11.67 17.41-22.69 20.36-2.34.63-4.79.85-7.1 1.56-12.84 3.92-15.66 9.77-11.01 23.26z"/><path fill="#3e6d77" d="M539.5 1143.9c4.54.68 8.39 1.84 12.24 1.85 88.29.09 176.58.08 264.87-.01 3.29 0 6.57-.84 10.59-1.5 3.86 2.03 7.55.29 11.34 1.55 14.56 3.14 19.65 8.88 22.7 23.29 4.51 21.25 9.6 42.38 14.31 64.28-6.5-.42-12.82-.32-19.59 1.79-3.62.38-6.71.46-10.58.4-3.29-1.53-6.07-1.33-8.81-1.34-37.19-.23-74.38-1.27-111.58-1-55.44.41-110.87.03-166.31.01-15.54-.01-31.05.86-47.35 1.88-5.11.46-9.43.56-14.57.56-1.12-.27-1.44-.43-2.1-1.02 5.11-24.52 10.1-48.74 16.25-72.65 2.43-9.43 10.37-14.5 20.85-15.95 2.54-1.56 4.62-2.39 7.74-2.14z"/><path fill="#e28e69" d="M379.65 902.89c-29.58.14-56.16 10.02-81.14 26.85-4.36-27.65-7.72-55.37-11.91-82.96-2.25-14.83-10.33-25.99-24.16-32.96-11.03-5.56-21.79-11.71-32.31-18.18-3.71-2.28-7.04-5.84-9.37-9.54-5.63-8.99-3.59-14.29 4.63-20.96 5.85-4.74 11.35-10.54 15.22-16.94 6.83-11.29 9.54-12.63 25.23-7.16 1.89 8.01 5.48 14.52 12.36 18.79 3.65 2.26 4.55 5.18 4.07 9.25-1.07 8.92 2.09 16.76 6.96 24.01.74 1.11 1.41 3.14 3.14 2.39.64-.28-.58-2.09-1.21-3.05-4.82-7.35-7.42-15.3-6.64-24.18.45-5.13-1.88-8.49-6.2-11.2-5.03-3.16-10.01-7.26-7.01-14.05 3.06-6.92 9.79-7.76 16.4-6.8 6.09.88 11.59 3.62 16.55 7.33.96.72 2.83 1.94 3.05 1.47.76-1.6-1.02-2.45-2.01-3.36-3.43-3.18-7.6-4.93-12.08-6.15-3.8-1.03-7.86-1.15-11.75-3.71-7.42-23.59-14.47-46.65-21.49-69.72-.44-1.46-1.34-3.13-.99-4.41 1.13-4.09 2.74-8.04 4.17-12.04 3.8 1.88 9.21 2.77 11.11 5.84 6.01 9.69 11.31 19.94 15.8 30.44 22.05 51.58 44.08 103.17 65.43 155.05 8.84 21.44 15.93 43.59 24.15 65.95zm360.83-278.629c-1.24.79-1.97.99-3.27 1.32-7.39-.38-12.51 2.29-17.19 7.38-6.49 7.05-13.03 14.19-21.81 18.77-4.11 2.14-6.74 5.94-8.49 11.04-13.76 7.34-28.58 9.69-42.76 13.98-6.94 2.1-13.88 4.55-21.91 5.27-53.33 2.31-85.29-43.67-88.5-89.11 4.02-3.35 7.15-.55 10.2 1 6.05 3.07 12.02 3.8 18.47 1.43 3.37-1.24 7.66-2.9 9.81 1.22 2.08 3.98-2.03 5.81-4.74 7.54-7.81 4.99-5.86 12.69-5.51 19.8.32 6.44 4.93 9.61 10.55 11.05 11.92 3.07 23.98 8.49 35.77-.44 1.34-1.01 3.97-1.58 3.47-3.45-.43-1.61-3.34-.79-5.12-2.62-1.31-6.96 6.92-11.18 3.7-18.82-.23-14.01 2.23-15.98 14.03-10.93 17.76 7.61 35.37 3.13 51.74-2.75 15.47-5.55 30.73-5.61 45.92-3.56 11.24 1.52 21.1-.17 31.05-4.15 5.04-2.01 9.95-3.07 15.04-.78 2.6 1.17 4.68 3.14 4.56 6.27-.12 3.09-2.82 3.6-5.13 4.36-.58.19-1.17.37-1.78.44-15.35 1.66-23.9 10.75-28.1 25.74z"/><path fill="#e28c67" d="M740.63 625.021c-.17-17.65 8.04-25.65 27.27-29.24 2.11-.39 4.1-1.49 6.14-2.26-2.28-1.67-4.39-4.36-6.88-4.77-3.04-.51-6.6.37-9.58 1.55-10.31 4.08-20.01 6.57-31.94 4.76-14.59-2.22-29.61-2.6-44.88 2.96-13.88 5.06-29.66 5.08-44.67 6.71-2.89.31-6.1-2.21-9.14-3.47-11.67-4.84-11.66-4.84-11.73 8.45-7.22-.71-13.58-5.47-21.59-4.23-5.41.84-10.59 1.28-10.65 8.35-.07 6.63 3.3 10.84 9.83 12.23 5.12 1.08 10.23-.44 15.98-.15.98.71 1.27 1.55 1.69 1.63 3.24.58 6.5 1.01 9.76 1.49-2.61 2.42-5 5.15-7.87 7.21-10.25 7.35-38.18 5.25-46.86-3.34-7.01-6.93-3.9-26.54 4.94-31.7 1.39-.81 2.4-2.28 3.59-3.44-1.51-.56-3.59-2.06-4.43-1.54-11.7 7.21-21.58 1-32.32-4-.72-4.05-.81-8.01-.79-12.83 8.72-1.76 17.05 3.09 26.45.22 3.05-.66 5.41-.76 8.44-.09 8.33 6.09 8.92 6.18 12.91-2.17 5.17-10.83 12.01-20.87 15.81-33.08.68-2.44 1.5-4.06 3.46-5.76 1.51-.7 2.44-.75 4.01-.21 1.79 2.04 1.61 3.89 1.21 6.45-4.64 26.93 20.18 48.35 41.91 45.61 12.51-1.02 21.27-7.24 28.69-16.87 8.49-13.49 9.63-14.02 23.78-8.06 10.38 4.37 20.61 9.11 31.26 12.81 1.58.55 3.68 2.03 4.77.45.57-.83-2.06-1.72-3.34-2.43-1.34-.74-2.66-1.47-3.53-3.48 16.44-23.16 53.65-17.11 62.03 12.09 5.62 19.6-5.25 41.27-24.34 44.19-4.61-4.14-2.32-9.62-3.46-14.46-.2-.87-.45-2.13-1.27-2.17-1.73-.09-1.35 1.52-1.33 2.52.1 5.04 1.47 10.17-1.84 15.3-8.97 4.8-14.23-2.64-21.49-5.23z"/><path fill="#e08b68" d="M603.89 452.601c34.71 13.57 68.96 27 102.87 41.27 22.66 9.53 26.85 24.82 26.67 47.93-.07 9.06-2.05 18.11-3.11 27.98-3.35 2.97-6.44 1.15-9.5-.05-4.83-1.89-9.5-4.19-14.39-5.94-10.68-3.82-17.77-8.91-20.34-22.21-4.7-24.26-31.33-34.34-54.67-23.09-7.72 3.72-13.84 10.14-22.88 12.91-2.2.33-3.65.18-5.71-.65-3.32-4.41-5.32-8.71-5.35-14.34 4.38-4.9 3.03-7.85-2-9.91-4.68-1.92-9.39-3.75-15.22-3.94-5.09-1.3-9.91-.98-14.41-4.03 12.22-15.63 24.83-30.67 38.04-45.93z"/><path fill="#111f22" d="M731.72 414.57c-3.09-9.01-6.75-17.459-7.95-26.259-2.52-18.42 14.16-33.601 33.94-31.831 13.55 1.21 23.47 6.95 26.71 21.34.19.87 4.09 1.75 5.92 1.29 20.66-5.27 33.5.54 42.58 19.62 7.88 16.53-1.12 38.01-19.1 42.69-9.08 2.36-19 2.221-28.5 1.991-7.19-.17-14.34-2.271-22.23-3.551-1.85-.68-2.48-1.669-2.82-2.889-5.01-17.95-9.54-21.501-28.55-22.401z"/><path fill="#3e6d77" d="M838.57 1145.77c-1.78 1.05-4.02 2.23-6.27 2.25-1.42.01-2.85-1.72-4.32-3.33 12.11-17.48 21.19-35.74 24.76-56.29 2.25-12.93 1.6-25.61-3.67-38.19-12.65-30.17-21.49-61.53-24.69-94.16-2.88-29.37-4.98-58.82-6.81-88.28-.27-4.31 2.84-8.82 4.39-13.24.81 4.37 2.46 8.77 2.3 13.11-1.47 40.42 3.06 80.38 11.78 119.62 8.5 38.27 22.13 74.8 42.78 108.73 5.87 9.64 7.46 23.09 7.56 34.81.26 31.78 26.4 74.74 60.42 83.41 1.84.47 2.92 3.9 4.15 6.51-22.45-3.87-39-16.72-51.86-34.77-16.18-22.72-20.4-48.86-23.1-75.93-.99-9.95-8.34-19.26-12.79-28.86-.99 1.1-2.49 2.04-2.87 3.31-3.46 11.51-6.06 23.32-10.28 34.54-2.89 7.69-8.05 14.52-11.96 21.87-.63 1.18-.02 3.01.48 4.89z"/><path fill="#a21d3d" d="M624.35 682.8a289.33 289.33 0 0 1 29.6-10.67c11.19-3.36 22.51-6.25 34.19-9.9 1.11-1.14 1.72-1.87 2.49-2.33 3.07-1.84 6.61-2.92 8.99.37 2.37 3.29-1.06 5.48-2.96 7.65-8.8 10.05-18.26 19.49-27.18 29.46-12.73 14.24-26.22 27.82-40.87 41.16-.51.43-.55.35-.51.37-.41.4-.87.77-1.76 1.29-.41.17-1.02.37-1.34.39-.41-18.95-.51-37.94-.65-57.79z"/><path fill="#3e6d77" d="M540.14 1143.32c-2.04 1.36-4.13 2.08-6.93 2.78-6.59-9.33-12.47-18.62-18.3-27.95-.45-.72-.5-1.7-1.02-3.11-10.87-24.37-15.86-49.28-10.96-75 5.09-26.68 12.07-52.999 18.11-79.499 6.45-28.26 12.73-56.57 19.17-84.83 1.47-6.48 3.08-12.94 5.1-19.26.49-1.52 2.89-2.42 4.4-3.61.52 1.58 1.68 3.27 1.44 4.73-1.27 7.75-2.66 15.5-4.45 23.14-8.33 35.6-16.79 71.17-25.21 106.74-3.69 15.579-7.58 31.109-11.02 46.739-9.06 41.3 3.26 76.83 29.67 109.13z"/><path fill="#e1ff01" d="M730.65 414.551c17.99-4.63 30.9 5.45 31.58 24.5-2.44 5.81-5.01 10.86-7.78 16.53-5.34 1.97-10.45 4.26-15.64 4.47-14.48.58-22.97-8.2-24.59-24.93 3.02-9.03 6.77-16.82 16.43-20.57z"/><path fill="#3e6d77" d="M511.42 1235.66c1.4-1.2 3.63-3.03 5.9-3.09 29.22-.8 58.44-1.56 87.67-1.89 27.33-.3 54.66-.06 81.98-.06 24.87 0 49.74-.24 74.61.07 25.87.32 51.74 1.13 77.6 1.83 1.67.04 3.31 1.03 5.21 2.24-1.57.82-3.38 1.11-5.2 1.11-108.97.01-217.95 0-327.77-.21z"/><path fill="#7c8c01" d="M598.12 514.621c1.55 4.96 2.94 9.32 4.32 14.38-.19 4.6-2.74 3.46-5.56 2.74-5.91-6.05-8.72-14-16.51-17.58-6.44-2.96-12.84-5.71-20.74-5.42-8.89-2.98-26.73 5.76-29.19 13.72-.9 2.91.83 3.85 2.94 4.56 4.29 1.43 8.75 2.49 12.61 6.19.95 2.47.33 4.07-1.42 5.94-4.93 1.99-8.87-.06-12.93-1.2-6.68-1.88-8.18-.74-7.48 6.3.89 8.99 5.45 16.01 12.89 22 4.55 4.22 9.98 5.02 15.52 7.23 4.2 2.88 11.01-.39 11.75 7.27-9.44 4.21-17.99 2.51-26.99-2.11-6.95-7.44-14.78-13.93-19.11-22.24-13.41-25.71 10.35-61.01 46.46-58.44 5.37.76 9.97 1.56 15.28 2.48 8.5 2.03 13.51 7.48 18.16 14.18z"/><path fill="#a21d3d" d="M280.49 731.48c11.43.49 21.79 2.53 29.37 11.15 1.33 1.51 1.35 4.17 1.97 6.3-2.08-.49-4.24-.76-6.22-1.5-7.95-3-15.69-6.82-23.87-8.82-2.46-.6-8.48 3.51-8.68 5.82-.28 3.31 2.47 8.891 5.35 10.091 7.79 3.25 8.1 8.639 8.84 15.799.8 7.77 4.64 15.211 7.05 22.821.65 2.05.91 4.209 1.35 6.319-2.25-.88-5.89-1.2-6.5-2.73-3.52-8.8-7.34-17.72-8.9-26.97-.69-4.1-1.16-6.24-4.49-8.88-5.71-4.52-12.58-9.179-9.36-19.109 4.6-3.77 9.03-6.931 14.09-10.291z"/><path fill="#3e6d77" d="M398.14 945.45c-9.92 1.5-19.86 2.04-29.62 3.64-17.31 2.84-30.98 12.67-43.79 23.99-1.98 1.75-4.87 2.46-7.35 3.66.97-2.73 1.18-6.22 3.03-8.07 20.54-20.54 44.86-31.14 75.24-27.09 1.4 1.22 1.98 2.3 2.49 3.87zm458.14 290.2c5.05-4.66 11.1-7.5 18.57-1.85-5.53.88-11.64 1.46-18.57 1.85zm-362-.94c.57-.39.99-.15 1.52.53-.4.21-1 .09-1.52-.53z"/><path fill="#e28c67" d="M628.86 739.061c6.41-8.15 13.44-16.32 20.76-24.22 14.62-15.79 29.42-31.4 44.07-47.16 1.9-2.05 3.3-4.57 4.94-6.87-2.89.25-5.79.49-9.37.8 1.82-3.83 3.71-8.37 6.97-11.48 7.77-7.4 16.26-14.04 24.31-21.16 4.47-3.95 8.84-7.55 15.69-3.86-9.22 9.83-19.03 18.92-28.41 28.45-2.22 2.26-4.15 5.93-4.22 8.99-.38 18.84-.18 37.69-.13 57.42-24.6 6.99-49.23 13.09-74.61 19.09z"/><path fill="#3e6d77" d="M454.46 1008.01c-9.98-8.759-19.56-16.989-29.02-25.359-2.05-1.82-3.65-4.14-5.47-6.23 3.26.32 7.2-.44 9.67 1.12 23.56 14.93 40.49 35.699 51.98 60.979 2.97 6.54 5.72 13.21 8 20.01.64 1.93-.74 4.53-1.2 6.83-1.48-1.51-3.66-2.76-4.35-4.57-7.12-18.9-15.77-36.91-29.61-52.78z"/><path fill="#e28c67" d="M626.44 740.37c-.09-.47.33-.94 1.22-1.42.09.46-.31.95-1.22 1.42z"/><path fill="#3e6d77" d="M973.601 150.312c17.16-6.62 27.119.62 29.989 9.51 4.57 14.17-1.06 25.52-14.659 29.15-8.95 2.39-19.31-2.45-23.6-11.02-4.84-9.66-2.17-19 8.27-27.64zm-62.291.298c17.16-6.62 27.12.62 29.99 9.51 4.57 14.17-1.06 25.52-14.66 29.15-8.95 2.39-19.31-2.45-23.6-11.02-4.84-9.66-2.17-19 8.27-27.64zm-50.892-2.87c14.06.88 20.65 8.31 20.36 22.09-.24 11.52-7.9 19.35-19.43 19.87-10.4.47-20.43-7.76-21.23-17.42-1.15-13.75 6.15-22.91 20.3-24.54z"/><path fill="#d4d4d4" d="M487.83 163.47c7.07 7.71 8.88 15.84 4.13 24.61-4.13 7.63-11.33 11.8-19.59 11.05-8.44-.77-15.55-5.42-18.03-14.48-2.31-8.42.32-15.67 6.67-21.31 5.38-4.77 16.77-7.11 26.82.13zm-111.546 69.318c-13.68 8.65-25.78 6.08-31.49-6.11-3.96-8.45-1.19-18.52 6.6-23.99 8.47-5.95 19.5-5.1 26.63 2.05 5.72 5.73 6.42 16.74 1.5 24.15-.81 1.21-1.82 2.29-3.24 3.9zm59-20c-13.68 8.65-25.78 6.08-31.49-6.11-3.96-8.45-1.19-18.52 6.6-23.99 8.47-5.95 19.5-5.1 26.63 2.05 5.72 5.73 6.42 16.74 1.5 24.15-.81 1.21-1.82 2.29-3.24 3.9z"/><path fill="#7c8c01" d="M607.48 530.631c10.16-5.87 19.39-12.651 29.72-16.421 25.42-9.29 50.97 7.591 53.12 34.521.39 4.84 2.2 6.75 6.09 8.29 10.92 4.33 21.77 8.81 33.31 13.4.95.66 1.33 1.059 2.18 1.539 3.29 1.6 6.31 2.851 9.07 4.511 1.54.93 2.65 2.57 3.95 3.89-2.07.69-4.56 2.5-6.14 1.9-11.37-4.27-22.55-9.04-33.79-13.63-4.39-1.79-9.16-5.45-13.1-4.72-3.59.66-6.29 6.12-9.95 9.78-2.31-1.01-2.69-2.97-3.02-5.69-.14-4.07.3-7.38 1.61-10.45 2.72-6.39 1.9-12.341-2.22-18.591-10.4-15.74-24.05-20.949-40.34-15.299-15.93 6.15-23.06 16.4-22.16 31.24.79 13.009 11.49 24.42 26.1 27.84 3.25.76 6.57 1.28 10.11 3.31 1.24 1.81 1.31 3.2.36 5.2-12.54 3.22-22.79-.65-31.71-8.62-10.9-9.74-16.33-21.7-13.93-37.4 3.24-3.56 2.17-6.42.13-9.89-.47-1.84-.38-3.07.61-4.71z"/><path fill="#e1ff01" d="M761.66 631.44c-.36-6.46-1-12.09-.76-17.68.1-2.32 2.1-4.55 3.24-6.82 1.52 1.76 4.09 3.38 4.34 5.3.67 5.03.32 10.19.61 16.15.19 6.25.58 11.7-.09 17.03-.3 2.41-2.71 4.55-4.17 6.82-1.01-2.15-2.65-4.23-2.89-6.46-.46-4.46-.17-9-.28-14.34z"/><path fill="#111f22" d="M609.83 625.69c-6.84 1.27-13.33 3.02-19.71 2.68-6.31-.34-10.52-8.94-9.77-16.94.68-7.35 5.95-8.13 11.61-8.29 8.11-.22 16.42-.92 22.67 7.1 4.46 7.04-1.5 10.51-4.8 15.45zm-8.19-82.01c-5.83 13.97-11.57 27.87-18.77 40.96-3.82 6.94-7.7 2.92-10.01-3.16 6.11-13.18 12.71-25.49 19.19-38.58 1.17-1.03 1.99-1.37 3.54-1.53 2.43.26 4.06.87 6.05 2.31z"/><path fill="#7c8c01" d="M593.8 541.81c-6.58 13.18-13.39 25.62-20.62 38.53-2.86.59-5.31.71-8.49.94-4.71-1.43-8.68-2.97-13.17-4.99 2.99-4.15 7.97-3.17 12.25-4.39 6.08-1.74 11.5-3.97 13.96-11.16 1.1-5.87 2.77-10.84 5.06-16.41 3.25-3.87 6.19-6.89 11.01-2.52zm58.85 50.131c-.75-1.55-.77-2.99-.84-5.16.11-2.04.82-3.09 2.05-3.4 10.76-2.7 17.83-10.84 26.58-17.42.73 2.18.81 4.32.91 7.26-6.53 11.13-15.74 17.33-28.7 18.72z"/><path fill="#3e6d77" d="M602.26 543.521c-1.7.3-3.29.04-5.25-.72-3.09-4.03-2.95-7.82-.83-12.38 2.25-.37 3.93-.1 5.93-.27 1.67-.3 3.03-.16 5.1 0 .7 1.29.7 2.56.48 4.94-.91 1.92-1.88 2.36-3.04 3.41-1.02 1.73-1.65 3.09-2.39 5.02zm5.64-8.27c.03 2.93.05 5.87-.52 8.98-.2-1.25.2-2.67.52-4.68-.73-1.32-.98-2.17-.42-3.72.4-.56.41-.57.42-.58z"/><path fill="#3e6d77" d="M607.3 535.341c.58.75.57 1.58.55 3.02-.81.6-1.6.58-2.99.53.23-1.18 1.04-2.33 2.44-3.55z"/><path fill="#111f22" d="M599.03 515.181c-6.39-4.52-12.02-9.09-18-14.13 6.67 1.83 14.08 3.34 20.57 6.66 5.42 2.77 3.88 6.15-2.57 7.47z"/><path fill="#d86" d="M596.24 529.391c.52 4.05.55 7.7.49 12.14-.09.78-.97.88-.97.88s-.88-.01-1.31.07c-3.35.61-6.27 1.13-9.76 1.94-4.34.5-4.65-2.81-5.76-5.07-2.31-4.71-5.45-8.21-11.1-7.93-5.4.28-8.88 3.5-11.07 8.27-.76 1.66-1.63 3.3-2.05 5.07-.58 2.49-2.57 6.13.56 7.07 2.05.61 2.24-3.7 3-5.9.8-2.3 1.36-4.69 2.73-6.73 2.07-3.09 5.03-4.28 8.67-3.75 4.16.6 5.26 3.65 5.54 7.23.47 5.95-.9 12.34 4.56 17.65-2.92 11.1-11.12 15.54-28 15.46-5.61-2.03-10.43-4.09-15.65-6.69-1.59-10.87 1.54-20.16 6.88-29.64 1.19-1.95 1.92-3.32 2.65-5.27 1.08-10.89 7.05-18.95 13.02-27.42 16.03-1.68 31.85 8.03 37.57 22.62z"/><path fill="#fefefe" d="M559.67 506.191c-4.49 9.21-8.71 17.94-13.46 27.04-3.35-.75-6.18-1.83-8.98-2.99-3.85-1.6-7.68-3.26-11.52-4.89 2.91-3.71 5.23-8.17 8.84-10.97 7.32-5.69 14.93-11.69 25.12-8.19zm-16.86 32.539c-1.73 9.56-4.14 18.99-6.81 29.12-10.12-6.84-14.54-16.78-14.42-29.21.06-5.84 2.9-5.86 6.87-4.67 4.61 1.36 9.12 3.07 14.36 4.76z"/><path fill="#d86" d="M681.11 565.3c-7.48 10.01-15.36 18.69-28.81 20.39-17.48.54-30.48-6.05-37.15-22.19-6.72-16.27 2.66-37.16 21.16-41.3 14.87 3.07 28.75 7.08 42.23 14.37 9.45 9 6.1 18.51 2.57 28.73z"/><path fill="#111f22" d="M678.97 536.36c-13.49-4.07-27.16-8.72-41.4-13.8 13.58-8.18 32.57-1.99 41.4 13.8zm-98.65 23.72c-5.29.16-7.54-2.64-7.1-7.92.28-3.33.51-6.78-.08-10.03-.35-1.91-2.53-5.09-3.55-4.96-2.56.32-6.12 1.58-7.14 3.56-2.04 3.97-2.48 8.73-3.96 13.04-.49 1.42-2.05 3.34-3.23 3.42-1.28.09-4-2.04-3.85-2.62 1.83-7.15 2.8-15.05 6.74-20.92 2.14-3.19 9.59-4.21 14.48-3.85 7.88.59 8.13 8.47 10.93 14.53-.67 5.27-1.92 10.16-3.24 15.75zm68.63-22.96c5.45 6.07 10.43 11.91 14.64 18.26.92 1.38-.95 4.6-1.53 6.98-1.9-1.21-4.33-2.03-5.58-3.73-1.92-2.61-2.5-6.32-4.65-8.64-2.21-2.39-6.17-5.62-8.36-4.99-3.08.89-5.6 4.76-7.61 7.84-1 1.54.11 4.3-.53 6.26-.96 2.97-2.62 5.71-3.98 8.56-1.16-3.06-3.26-6.12-3.25-9.18.02-4.69.83-9.63 2.5-14.01 3.13-8.18 10.38-8.11 18.35-7.35z"/></g><defs><clipPath id="a"><path fill="#fff" d="M0 .74h1280v1235H0z"/></clipPath></defs></svg>