<svg xmlns="http://www.w3.org/2000/svg" width="1485" height="1222" fill="none"><path fill="#AAF" fill-rule="evenodd" d="M543.117 392.672c5.523.319 14.955.323 20.96.003 6.006-.317 1.488-.58-10.04-.581-11.527-.004-16.441.257-10.92.578Zm505.233.012c14.15.274 37.73.276 52.4.001 14.67-.274 3.09-.498-25.73-.499-28.82 0-40.82.224-26.67.498Z" clip-rule="evenodd"/><path fill="#F5F4EE" fill-rule="evenodd" d="M685.781 190.362A243927.598 243927.598 0 0 1 547.3 279.118c-48.168 30.852-97.228 62.28-109.02 69.841-11.793 7.561-21.841 14.194-22.333 14.74-.489.547 60.483.995 135.494.995h136.383l.475-38.065.476-38.065 4.921-11.149c20.181-45.729 77.726-44.241 97.07 2.509 4.271 10.322 4.305 10.671 4.78 47.584l.476 37.186h131.214c109.184 0 130.844-.373 129.024-2.22-2-2.019-41.46-27.265-183.343-117.292-46.555-29.54-121.854-77.815-131.744-84.463l-4.493-3.02-50.899 32.663Zm445.989 97.454c0 14.247.23 20.075.51 12.952.28-7.123.28-18.782 0-25.905-.28-7.123-.51-1.295-.51 12.953Zm-814.43 2.506c.002 12.869.237 17.913.521 11.208.286-6.703.283-17.232-.003-23.398-.287-6.163-.521-.678-.518 12.19Zm308.116-19.964c19.776 7.522 31.138 33.234 24.518 55.487-9.764 32.816-47.073 41.063-67.66 14.955-26.431-33.521 5.054-84.929 43.142-70.442Zm254.946 2.194c38.791 19.741 26.5 83.617-16.191 84.156-41.607.525-54.575-62.157-17.164-82.968 9.643-5.365 24.135-5.879 33.355-1.188ZM357.956 398.201c1.298 2.803 6.032 11.854 10.519 20.114 4.487 8.259 8.158 15.556 8.158 16.213 0 .656-39.916 1.059-88.703.892-48.785-.167-88.029.022-87.205.416.958.461 1.371 17.119 1.147 46.264-.192 25.047-.361 67.96-.375 95.361-.019 39.387-.416 49.563-1.895 48.597-1.028-.672-.781.224.551 1.99 2.271 3.012 4.297 145.161 4.312 302.787l.003 25.487h236.53l.379-256.957.379-256.957 73.731-.433 73.732-.435v514.782H474.633l-15.444 21.502-15.442 21.504-8.873 1.032c-15.077 1.76-18.376 4.72-44.922 40.31l-24.305 32.59-28.566-.36-28.566-.36-27.822 38.85c-15.301 21.37-29.28 40.73-31.064 43.02-1.783 2.29-3.243 4.53-3.243 4.98 0 .45 18.507.83 41.125.83h41.125l21.378-25.91 21.379-25.9h187.884v50.13h353.312v-51.8l99.181.06 99.18.07 18.72 24.35c10.29 13.4 20.1 25.39 21.79 26.66 3.37 2.51 83.58 3.2 82.7.71-.25-.69-13.92-20.15-30.39-43.25l-29.94-42.01-15.72-.07c-8.64-.04-23.98-.09-34.08-.11l-18.36-.04-7.09-9.52c-3.9-5.24-12.82-17.78-19.81-27.88-19.29-27.82-28.15-35.6-41.07-36.042-2.2-.076-7.21-6.391-17.24-21.727l-14.15-21.619H896.122l-.048-43.035c-.026-23.671-.021-131.028.01-238.574.031-107.545.053-203.998.048-214.339l-.01-18.802h149.708v514.75h233.07l1.05-59.471c.58-32.708 1.01-102.086.96-154.174-.1-107.2-.01-108.635 6.54-116.101 4.44-5.054 4.47-5.163.59-2.393-2.24 1.594-4.44 2.899-4.89 2.899-.46 0-.65-43.267-.43-96.147l.4-96.15-87.96.47c-48.37.257-87.95-.117-87.95-.834 0-1.112 11.2-21.566 20.1-36.72l2.7-4.596H355.597l2.359 5.096Zm456.94 43.048 4.855.323-.005 257.39-.004 257.39-78.958-.433-78.957-.433.553-256.539c.302-141.097 1.081-256.915 1.729-257.375 1.079-.767 139.651-1.063 150.787-.323Zm-482.489 47.237c10.875 4.541 22.922 16.938 28.573 29.401l4.424 9.755.479 47.235.478 47.237-50.63-.441-50.631-.44v-91.92l3.893-9.268c11.892-28.303 38.959-41.774 63.414-31.559Zm858.343 4.04c21.93 13.323 27.85 28.167 27.69 69.377-.07 17.029.5 31.788 1.28 32.854.77 1.063 1.21 7.455.96 14.206l-.44 12.27h-101.8v-91.92l3.93-9.192c12.46-29.143 44.53-42.085 68.38-27.595Zm201.58 118.679c0 31.253.2 43.803.45 27.887.24-15.915.24-41.486 0-56.823-.25-15.337-.45-2.316-.45 28.936Zm-931.572 17.966.46 7.103 10.105.495 10.106.493.052 67.193c.028 36.955.196 87.685.374 112.734l.322 45.542h14.222V637.11l11.603.002 11.602.001-.096 110.72c-.109 127.663-1.187 114.898 9.696 114.898h8.528l-.232-79.803c-.128-43.893.083-94.657.471-112.811l.702-33.007h19.107v-15.041h-97.483l.461 7.102Zm454.826.418v7.521h22.456v225.621h9.357l9.357.001-.423-112.812-.422-112.81h24.049v225.621h14.971V637.269l9.361-.497 9.35-.498.46-7.103.46-7.102h-98.976v7.52ZM286.807 750.756v113.646h-22.456V637.11h22.456v113.646Zm38.561-.418-.385 113.228h-22.456l-.385-113.228-.385-113.228h23.996l-.385 113.228Zm41.918 0-.385 113.228h-22.456l-.325-113.228-.325-113.228h23.876l-.385 113.228Zm772.494 0-.38 113.228-10.86.492-10.85.491V637.11h22.48l-.39 113.228Zm41.06-97.769c.26 8.502.48 59.455.48 113.228v97.769h-22.46l-.38-113.228-.39-113.228h22.27l.48 15.459ZM1218 750.83v113.719l-10.86-.491-10.85-.492-.39-113.228-.38-113.228H1218v113.72Zm-201.75 305.77c6.44 8.73 13.08 17.94 14.76 20.47l3.05 4.6H736.659c-177.702 0-297.198-.62-296.899-1.52.274-.84 7.45-10.24 15.944-20.9l15.446-19.37 266.694.42 266.696.42 11.71 15.88ZM0 1186.12c.002 19.3.22 26.97.485 17.04s.264-25.73-.003-35.1c-.266-9.37-.483-1.24-.482 18.06Z" clip-rule="evenodd"/><path fill="#CCC7B5" fill-rule="evenodd" d="M761.758 51.742c7.205.306 18.995.306 26.199 0 7.205-.308 1.31-.558-13.1-.558-14.409 0-20.303.25-13.099.558ZM442.006 442.688c-.55.611-.999 116.411-.999 257.329v256.219l74.106.055 74.106.055V441.573h-73.108c-40.21 0-73.557.501-74.105 1.115Zm454.126 17.687c.004 10.341-.017 106.793-.048 214.339-.032 107.546-.036 214.907-.011 238.58l.048 43.042 74.855-.045 74.854-.047V441.573H896.121l.011 18.802ZM529.685 489.56c10.494 5.201 20.793 17.015 26.328 30.198 4.42 10.527 7.459 102.311 3.387 102.311-.923 0-1.62 3.239-1.62 7.521 0 4.137.54 7.521 1.202 7.521.66 0 1.166 50.952 1.123 113.228l-.08 113.228-19.418-.499c-13.046-.335-19.795-1.159-20.563-2.507-.807-1.418-1.15-1.24-1.166.603-.019 2.27-3.78 2.622-28.99 2.709l-28.967.1-.941-26.106c-1.3-36.071-1.156-200.756.175-200.756.597 0 .847-3.323.558-7.384-.473-6.631-.169-7.46 2.984-8.142 1.93-.418.141-.667-3.976-.555l-7.486.204v-14.206c0-13.658.13-14.201 3.369-14.074l3.368.134v-31.406c0-62.247 29.642-92.48 70.713-72.122Zm458.72.495c10.84 5.931 18.835 15.208 24.285 28.195l3.95 9.393-.22 44.288c-.13 24.359-.86 48.99-1.63 54.734-.99 7.354-.92 10.446.22 10.446 1.15 0 1.63 32.859 1.63 112.81v112.811l-9.73.128c-5.36.071-27.925.259-50.157.418l-40.421.289-.749-77.714c-1.464-151.938.182-258.594 4.125-267.529 13.424-30.41 42.734-42.472 68.697-28.269ZM686.903 591.611l-24.327.459.001 63.049.002 63.048 3.183-7.18c8.234-18.569 14.809-20.396 73.439-20.396 59.436 0 69.035 2.748 76.099 21.782 3.738 10.076 4.423.784 4.447-60.221l.023-61.001H765.5c-29.847 0-65.216.207-78.597.46Zm269.808 154.968c0 60.667.187 85.243.417 54.612.227-30.63.227-80.266-.002-110.304-.228-30.036-.415-4.975-.415 55.692Zm202.129 4.178.02 112.81h22.46l.04-38.023.04-38.021-.44 37.603-.45 37.606h-20.88l-.4-112.393-.4-112.393.01 112.811Zm-814.412 2.507.017 110.303 10.48.11 10.479.109-10.095-.6-10.095-.6-.401-109.814-.401-109.812.016 110.304Zm317.269 36.768c.002 16.545.226 23.088.499 14.538.272-8.549.271-22.086-.003-30.083-.274-7.995-.497-1.001-.496 15.545Zm-458.102 61.836c.001 17.465.223 24.382.492 15.373.27-9.01.268-23.299-.003-31.754-.271-8.455-.491-1.083-.489 16.381Zm458.129 8.357c.001 22.06.214 30.855.473 19.542.261-11.313.259-29.363-.001-40.111-.261-10.747-.472-1.492-.472 20.569Zm618.296 59.33c0 20.682.21 29.143.47 18.801.27-10.34.27-27.261 0-37.603-.26-10.34-.47-1.88-.47 18.802Z" clip-rule="evenodd"/><path fill="#818CA1" fill-rule="evenodd" d="M688.658 331.268c0 18.844.219 26.552.485 17.131s.266-24.84 0-34.261c-.266-9.421-.485-1.713-.485 17.13Zm323.032 34.673c8.8.294 23.63.295 32.93.001 9.31-.294 2.11-.535-16.01-.536-18.11-.002-25.73.239-16.92.535ZM265.059 749.92c0 62.506.185 87.834.415 56.284.227-31.551.227-82.691-.002-113.646-.228-30.956-.413-5.143-.413 57.362Zm232.045 6.685c0 58.829.189 82.653.418 52.943.229-29.712.229-77.844-.002-106.961-.229-29.119-.416-4.81-.416 54.018Zm440.076 0c.002 20.223.217 28.267.481 17.875.263-10.392.262-26.938-.002-36.768-.265-9.831-.48-1.329-.479 18.893Zm-20.917 40.946c0 35.389.199 49.866.442 32.172.242-17.693.242-46.65 0-64.343-.243-17.694-.442-3.218-.442 32.171Zm20.913 30.919c.001 19.303.22 26.971.485 17.04.265-9.932.263-25.726-.003-35.097-.267-9.372-.484-1.246-.482 18.057Zm-398.585 212.67c16.208.27 43.156.27 59.884 0 16.73-.27 3.469-.49-29.467-.49s-46.622.22-30.417.49Zm122.862 0c17.909.26 47.215.26 65.123 0 17.908-.27 3.256-.49-32.562-.49-35.817 0-50.469.22-32.561.49Zm113.109-.01c8.484.3 21.958.3 29.942 0 7.984-.3 1.043-.54-15.425-.54-16.467 0-23.001.24-14.517.54Zm91.351.01c25.79.25 67.559.25 92.819 0 25.261-.26 4.159-.47-46.891-.47-51.051 0-71.718.21-45.928.47Zm-420.687 68.52c18.376.26 48.019.26 65.871 0 17.853-.27 2.818-.49-33.411-.49-36.23.01-50.837.22-32.46.49Z" clip-rule="evenodd"/><path fill="#5C6F9C" fill-rule="evenodd" d="M324.833 285.318c.002 13.787.234 19.206.515 12.039.282-7.164.28-18.445-.003-25.069-.284-6.621-.513-.758-.512 13.03Zm783.877 148.324c0 .691 40.04 1.254 88.99 1.254 48.94 0 89.3-.563 89.68-1.254.38-.69-39.67-1.253-88.99-1.253-49.33 0-89.68.563-89.68 1.253Zm-867.831.836c24.554.257 64.302.257 88.329-.002 24.025-.257 3.934-.468-44.647-.468-48.58 0-68.237.211-43.682.47Zm675.317 128.27c-.002 15.626.223 22.244.5 14.705.277-7.537.278-20.323.003-28.411-.274-8.088-.502-1.921-.503 13.706Zm-456.633 6.685c.002 12.868.237 17.912.521 11.207.286-6.703.283-17.232-.003-23.398-.287-6.163-.521-.678-.518 12.191ZM1118.39 730.71c0 49.177.19 69.294.42 44.706.23-24.588.23-64.825 0-89.413-.23-24.587-.42-4.47-.42 44.707Zm-832.375 26.74c0 58.369.187 82.246.416 53.063.231-29.186.231-76.942 0-106.126-.229-29.183-.416-5.306-.416 53.063Zm465.197-65.612c5.523.319 14.955.322 20.959.003 6.007-.317 1.489-.58-10.039-.581-11.528-.004-16.441.257-10.92.578Zm67.743 104.887c0 36.768.198 51.572.439 32.895.241-18.675.241-48.757 0-66.85-.242-18.092-.44-2.813-.439 33.955ZM65.883 917.056c.002 22.061.215 30.855.474 19.542.26-11.313.259-29.363-.002-40.11-.26-10.748-.472-1.493-.472 20.568Zm1303.907-4.178c0 13.328.24 18.78.52 12.116.29-6.663.29-17.57 0-24.233-.28-6.663-.52-1.212-.52 12.117ZM913.191 1133.48c0 14.25.231 20.08.51 12.96.282-7.13.282-18.78 0-25.91-.279-7.12-.51-1.29-.51 12.95Z" clip-rule="evenodd"/><path fill="#3E6D77" fill-rule="evenodd" d="M758.764 16.648c8.027.3 21.165.3 29.193 0 8.027-.3 1.459-.546-14.597-.546s-22.624.245-14.596.546ZM1058.4 271.94c0 12.869.23 17.913.52 11.208.28-6.703.28-17.232 0-23.398-.29-6.163-.52-.678-.52 12.19Zm-739.552 14.206c0 14.248.23 20.075.51 12.953.282-7.123.282-18.782 0-25.905-.28-7.123-.51-1.295-.51 12.952Zm814.412 0c0 14.248.23 20.075.51 12.953.28-7.123.28-18.782 0-25.905-.28-7.123-.51-1.295-.51 12.952Zm-537.834-11.557c-19.737 11.011-27.035 35.43-16.997 56.879 15.925 34.03 60.592 29.738 70.155-6.744 9.611-36.667-22.69-67.131-53.158-50.135Zm134.564-3.295c-28.471 12.683-27.553 61.776 1.335 71.44 33.286 11.132 57.322-35.923 32.503-63.629-8.063-9.001-23.282-12.516-33.838-7.811Zm-471.253 42.839c8.029.299 21.164.299 29.193 0 8.029-.301 1.46-.546-14.597-.546-16.056 0-22.625.245-14.596.546Zm818.993.004c10.55.287 27.39.285 37.43-.002 10.04-.289 1.41-.525-19.18-.523-20.58 0-28.8.237-18.25.525Zm-699.226 51.846-31.813.451v25.002H259.86c-47.757 0-86.831.456-86.831 1.014 0 .557 5.221 9.943 11.602 20.854l11.602 19.843 89.077.453c48.992.249 89.237.4 89.433.335 1.945-.651-21.853-40.828-24.184-40.828-1.579 0-2.524-.388-2.099-.861.424-.472 176.294-.843 390.824-.823 355.086.035 390.136-.201 390.966-2.618 1.76-5.105 1.02-22.43-.96-22.58-5.22-.396-723.541-.629-750.786-.242Zm742.556 45.249c-5.97 10.9-10.86 20.311-10.86 20.914 0 .604 39.85.904 88.55.667l88.55-.431 11.69-19.22c6.44-10.57 11.73-19.689 11.76-20.262.04-.573-40.19-1.142-89.39-1.264l-89.45-.22-10.85 19.816ZM663.239 495.89c0 27.576.205 39.091.457 25.59.25-13.502.251-36.064 0-50.138-.25-14.075-.455-3.028-.457 24.548Zm-162.91 14.99c-16.633 6.618-20.398 16.477-20.398 53.401v29.448l29.568-.453 29.567-.453-.015-30.082c-.018-33.691-.673-36.516-10.614-45.663-8.565-7.88-18.419-10.054-28.108-6.198Zm454.914.558c-15.333 8.04-18.681 17.906-18.691 55.098l-.009 27.193 29.567-.453 29.568-.453v-30.082c0-45.517-15.051-64.613-40.435-51.303Zm-651.938 2.418c-3.626 2.069-8.653 6.648-11.171 10.178l-4.578 6.418-.466 31.64-.465 31.641 28.91-.455 28.91-.455v-27.576c0-46.38-15.651-65.929-41.14-51.391Zm852.115 1.374c-13.8 7.828-16.77 17.03-16.77 51.938v26.491h58.39V564.94c0-45.793-15.63-64.454-41.62-49.71ZM88.352 597.002c0 25.277.208 35.619.462 22.979.254-12.638.254-33.32 0-45.959-.254-12.638-.462-2.298-.462 22.98Zm-11.947 30.082c0 39.985.195 56.342.434 36.35.238-19.991.238-52.706 0-72.7-.24-19.991-.434-3.635-.434 36.35Zm840.122-32.589c.281 1.838.522 8.419.533 14.623l.021 11.281h97.309V595.33h-48.545c-37.494 0-48.691-.476-49.188-2.089-.355-1.148-.413-.585-.13 1.254Zm-460.175-1.138c-3.169.503-3.368 1.317-3.368 13.789v13.253H557.78V595.33h-48.531c-26.692 0-48.754-.565-49.03-1.255-.274-.69-2.013-1.013-3.867-.718Zm711.868 1.579-49.03.439v25.024h100.3v-12.436c0-15.213 6.56-13.547-51.27-13.027Zm-902.372 12.929v12.534h98.808V595.33h-98.808v12.535Zm273.136 31.393c-.406 1.18-.538 15.656-.291 32.172l.447 30.026.338-31.26.337-31.261 10.105-.583 10.105-.585-10.151-.327c-7.107-.229-10.375.315-10.89 1.818Zm-58.379 58.855c.002 32.172.202 45.096.448 28.721.245-16.374.244-42.696-.002-58.495-.245-15.796-.446-2.398-.446 29.774Zm37.372-28.411c.001 16.545.226 23.088.498 14.538.273-8.549.271-22.086-.003-30.083-.274-7.995-.497-1.001-.495 15.545Zm-429.695-4.179c0 12.41.235 17.485.523 11.281.288-6.203.288-16.358 0-22.562-.288-6.203-.524-1.128-.524 11.281Zm907.331 45.96c-.001 37.687.196 53.344.437 34.791.24-18.553.241-49.388 0-68.522-.239-19.134-.437-3.956-.437 33.731Zm221.587 59.33c0 50.096.19 70.589.42 45.542.23-25.049.23-66.037 0-91.084-.23-25.049-.42-4.554-.42 45.542Zm188.61-10.863c0 35.849.2 50.277.44 32.061.24-18.215.24-47.545 0-65.179-.24-17.633-.44-2.731-.44 33.118Zm-887.845-33.425c.001 14.707.23 20.499.509 12.873.277-7.627.275-19.66-.005-26.74-.28-7.081-.506-.841-.504 13.867Zm.012 56.823c.001 16.545.226 23.088.498 14.538.273-8.549.271-22.086-.003-30.083-.274-7.995-.497-1.001-.495 15.545Zm210.807 17.555c-7.455 5.075-11.014 28.842-6.362 42.5 3.799 11.156 18.969 14.326 27.681 5.786l5.292-5.186v-35.085l-5.09-5.682c-6.077-6.784-13.758-7.616-21.521-2.333Zm266.754 33.418c0 15.167.228 21.372.505 13.788s.277-19.992 0-27.576-.505-1.379-.505 13.788Zm419.222 81.057c0 22.979.21 32.613.47 21.405.26-11.206.26-30.007 0-41.782-.25-11.772-.47-2.603-.47 20.377Zm-1277.943-31.34c12.607.281 32.818.279 44.913 0 12.093-.281 1.778-.51-22.924-.51-24.702.002-34.597.231-21.989.51Zm1144.073 1.675c.02 2.054.38 2.311 1.2.862.87-1.533 11.71-2.183 42.27-2.534l41.1-.474-42.29-.39c-39.43-.362-42.3-.19-42.28 2.536Zm-484.325 68.939-22.456.973 21.993.349c13.396.213 22.356-.304 22.919-1.322.509-.919.717-1.514.463-1.322-.255.192-10.568.787-22.919 1.322Zm-668.823 2.92c10.909.286 28.762.286 39.673 0 10.909-.284 1.983-.518-19.837-.518s-30.747.234-19.836.518Zm1229.928-.003c7.25.307 18.7.305 25.45-.004 6.76-.309.83-.56-13.17-.558-14 .002-19.52.256-12.28.562ZM913.785 1134.31l-.447 25.91h118.022c68.79 0 117.81-.63 117.52-1.5-.28-.82-8.58-11.82-18.46-24.44-9.89-12.61-18.19-23.6-18.47-24.4-.28-.83-43.91-1.47-99.11-1.47h-98.607l-.448 25.9Z" clip-rule="evenodd"/><path fill="#CDE801" fill-rule="evenodd" d="M739.95 1.447c-2.343 2.616-1.153 97.519 1.223 97.519 1.892 0 2.245-3.808 2.245-24.234V50.5h26.825c34.141 0 31.562 1.445 31.562-17.69V17.145l-28.819-.453-28.819-.454-.475-6.685c-.489-6.908-1.961-10.095-3.742-8.106ZM319.454 238.934c-.837 38.76.241 74.249 2.232 73.511 1.276-.473 1.919-8.293 2.211-26.809l.414-26.142 22.791-.461 22.793-.462.428-16.249.429-16.25-22.136-.463c-21.329-.446-22.19-.6-23.614-4.223-3.507-8.927-5.084-3.94-5.548 17.548Zm813.936-17.548c-1.42 3.613-2.31 3.778-22.81 4.223l-21.33.465-.25 13.323c-.14 7.328-.31 14.642-.38 16.25-.11 2.627 2.17 3.01 22.33 3.76l22.46.836.41 26.447c.77 48.905 4.01 32.946 4.48-21.99.4-47.553-.42-54.749-4.91-43.314Zm-79.08 27.437c-2.28 2.548-1.1 61.989 1.25 62.998 1.95.834 2.25-3.341 2.25-31.575 0-29.712-.56-34.704-3.5-31.423Zm-653.724 32.31c0 28.89.795 35.408 3.681 30.195.728-1.317 1.416-42.624.954-57.353-.746-23.777-4.635-.984-4.635 27.158ZM76.466 423.047c-36.7 10.267-31.093 68.666 6.592 68.666 25.784 0 39.409-30.561 24.759-55.536-5.921-10.091-20.455-16.18-31.35-13.13Zm1314.374.318c-13.11 3.374-23.07 18.091-23.07 34.087 0 39.562 50.55 47.975 60.63 10.089 6.95-26.113-13.64-50.332-37.56-44.176ZM71.6 860.6l-4.865.675v95.05H202.97V884.46h-45.501c-40.11 0-45.609.313-46.409 2.644-.5 1.454-.909 13.111-.909 25.905v23.26H98.174v-74.752l-6.946-1.063c-7.074-1.083-10.968-1.053-19.627.146Zm1316.09-.012c-6.02.845-5.88-.129-6.21 40.585l-.28 34.261-5.96.511-5.96.512-.41-25.581-.42-25.58-43.04-.443c-23.67-.244-43.07.132-43.1.836-.74 15.973-1 59.732-.39 64.368l.83 6.268h131.36V861.5l-5.61-1.036c-5.79-1.068-12.6-1.028-20.81.124ZM100.363 1052.2c-36.566 19.01-35.267 106.5 1.88 126.58 37.743 20.4 70.784-23.76 47.027-62.85-9.695-15.95-10.544-18.36-12.221-34.75-2.861-27.98-17.052-39.19-36.686-28.98Zm1258.717.35c-8.18 5.46-12.34 14.32-12.34 26.25 0 11.84-3.21 21.83-10.44 32.5-9.37 13.81-12.02 20.82-11.98 31.72.14 41 48.92 55.5 71.93 21.39 31.83-47.16 1.69-137.87-37.17-111.86Z" clip-rule="evenodd"/><path fill="#111F22" fill-rule="evenodd" d="M689.523 129.136c-25.113 17.351-54.419 37.493-65.123 44.765a76874.557 76874.557 0 0 0-73.357 49.954 277680.075 277680.075 0 0 1-93.408 63.644l-39.512 26.905-49.564.005c-27.261.002-66.477.039-87.147.08l-37.585.076-11.653 24.651c-6.41 13.559-14.647 30.855-18.305 38.439l-6.65 13.788h139.472v-25.069h61.689l18.185-11.527a5832.778 5832.778 0 0 0 36.898-23.63c10.293-6.657 53.072-34.094 95.065-60.973a127380.34 127380.34 0 0 0 126.504-81.079c59.735-38.363 43.886-38.164 101.054-1.272 26.348 17.003 65.422 42.032 86.831 55.618 134.283 85.223 181.563 115.463 184.713 118.15 3.21 2.727 6.99 3.045 36.68 3.067 39.13.03 37.39-.672 36.61 14.82l-.6 11.895h70.78c38.94 0 70.79-.368 70.79-.817 0-.45-3.6-8.16-8-17.131-4.41-8.973-12.53-25.903-18.05-37.622l-10.05-21.308-48.94-.126c-26.92-.07-66.2-.018-87.29.114-47.58.297-20.5 14.66-192.211-101.917a79228.16 79228.16 0 0 0-102.221-69.232c-32.341-21.865-59.714-40.771-60.825-42.013-5.311-5.928-8.032-4.55-54.78 27.745Zm42.211 116.949c-31.478 7.258-41.263 26.258-41.935 81.432l-.475 38.857h105.198l-.475-38.021c-.784-62.626-22.597-91.425-62.313-82.268Zm22.631 25.623c21.427 9.995 26.217 46.445 8.351 63.517-21.866 20.894-53.73 4.33-53.73-27.929 0-26.869 23.895-45.608 45.379-35.588Zm94.565 2.531c-31.808 16.131-29.2 68.513 3.958 79.507 44.802 14.852 69.864-57.522 27.514-79.459-7.981-4.133-23.37-4.158-31.472-.048ZM675.675 442.904l-11.602.489-.114 50.485c-.063 27.766-.28 59.101-.482 69.632-.202 10.53-.073 20.87.289 22.98l.656 3.833h153.851V442.416h-65.498c-36.023 0-70.719.219-77.1.488ZM497.79 487.248c-14.373 4.476-26.01 14.993-33.195 30.004-3.147 6.577-3.41 9.473-3.858 42.571l-.48 35.514h97.397l.575 12.953c.316 7.122.512-7.73.437-33.008l-.138-45.96-3.944-9.392c-10.465-24.915-35.489-39.315-56.794-32.682Zm454.33.47c-26.505 9.085-35.039 27.636-35.039 76.169v31.45h99.069l-.51-34.678-.5-34.679-5.14-10.586c-11.418-23.506-35.897-35.212-57.88-27.676Zm-648.845.55c-27.636 9.419-36.458 26.987-37.187 74.062l-.511 33.007h99.345l-.528-33.843c-.882-56.626-25.009-85.532-61.119-73.226Zm844.885 5.03c-22.84 12.891-28.01 25.323-28.71 69.055l-.53 33.031 48.99-.441 49-.441-.25-32.54c-.45-60.179-30.38-90.178-68.5-68.664Zm-395.789.911c31.777 18.344 20.32 72.884-15.267 72.68-26.792-.154-42.812-34.005-27.948-59.056 9.471-15.962 28.677-22.017 43.215-13.624ZM516.514 510.25c18.444 5.184 22.518 14.673 22.537 52.498l.015 30.082-29.567.453-29.568.453v-29.448c0-32.629.726-36.085 9.601-45.689 8.099-8.762 16.387-11.327 26.982-8.349Zm465.73 3.224c11.42 7.878 13.434 15.263 13.434 49.274v30.082l-29.568.453-29.567.453.009-27.193c.015-49.469 18.981-71.498 45.692-53.069Zm-655.751-.254c15.212 7.714 17.952 15.654 17.952 52.034v27.576l-28.91.455-28.91.455.465-31.641.466-31.64 4.578-6.418c9.011-12.631 22.446-16.863 34.359-10.821Zm858.247 3.971c10.6 7.826 12.3 14.426 12.3 47.756v28.719h-58.39v-26.491c0-48.141 19.69-69.491 46.09-49.984Zm203.92 20.668c0 8.047.57 11.032 2.25 11.749 1.95.837 2.24 11.677 2.24 83.512v82.548h-17.05c-16.86 0-17.06-.046-17.98-4.104-1.08-4.809-9.34-7.366-15.72-4.869-5.09 1.991-6.81 23.126-2.18 26.899 4.27 3.485 15.15 2.725 17.35-1.213 1.69-3.022 3.49-3.343 18.73-3.343h16.85v130.359h11.98l.02-17.13c.01-9.423 0-78.513-.02-153.536-.03-119.691.24-136.663 2.23-138.503 1.54-1.424 2.26-5.169 2.26-11.687v-9.59l-5.73 1.707c-4.53 1.35-6.71 1.154-10.48-.94l-4.75-2.647v10.788Zm-1315.936-.302c0 4.84 1.048 11.147 2.33 14.015 2.077 4.648 2.236 21.661 1.465 156.52l-.865 151.305h13.538V729.038h16.415c15.007 0 16.557.295 18.055 3.42 1.425 2.975 2.848 3.356 10.907 2.925l9.266-.495.432-13.576c.411-12.924.268-13.626-2.995-14.602-8.789-2.629-17.647-.727-17.647 3.789 0 7.324-33.183 11.069-34.707 3.916-2.298-10.793-1.38-162.267.992-163.749 1.76-1.1 2.767-4.665 3.352-11.874.896-11.027.518-11.535-6.382-8.606-2.582 1.097-5.807 1.143-9.08.134l-5.076-1.564v8.801Zm230.548 212.79.003 112.393h20.959V639.064l-10.482-.555-10.484-.554.004 112.392Zm158.133-111.894c-1.109 2.002-.954 198.248.169 213.841l.752 10.446h17.605l.208-11.281c1.478-80.129.312-212.662-1.869-212.665-1.327-.002-5.448-.468-9.161-1.037-4.045-.618-7.131-.341-7.704.696Zm455.673 111.894.003 112.393h19.462V639.076l-9.734-.562-9.734-.559.003 112.392Zm87.952-111.891-8.604.501v223.941l9.354-.496 9.36-.498.41-111.02c.22-61.063-.12-111.452-.75-111.975-.64-.525-5.03-.729-9.77-.453ZM265.848 750.765V862.74h19.462V638.79h-19.462v111.975Zm79.367 0-.06 111.975h20.998V638.79h-20.877l-.061 111.975Zm152.681 0V862.74h19.462l.092-7.939c.051-4.365.22-54.754.374-111.973l.283-104.036h-10.105l-10.106-.002v111.975Zm41.721-80.639c-.506 80.173-.498 167.917.015 179.661l.568 12.953h19.077V638.79h-19.462l-.198 31.336Zm418.172 58.495c.237 49.407.644 99.794.903 111.974l.473 22.145h19.296V638.79h-21.103l.431 89.831Zm161.401 22.144V862.74h19.46V638.79h-19.46v111.975Zm40.78-.418.39 111.557h19.46V759.001c0-56.596-.23-106.797-.52-111.557l-.52-8.654h-19.19l.38 111.557Zm37.43 0 .38 111.557 9.36.498 9.36.496V638.79h-19.49l.39 111.557Zm-511.398-56.36c-23.181 7.756-23.297 8.485-23.39 146.608l-.077 114.064h155.738l-.015-115.735-.015-115.735-3.535-8.475c-4.051-9.713-12.005-17.771-20.272-20.536-6.764-2.262-101.743-2.431-108.434-.191Zm64.303 109.256 5.09 5.682v35.085l-5.292 5.186c-14.531 14.244-29.141 2.6-29.141-23.224 0-26.075 15.553-38.123 29.343-22.729ZM456.042 1060.78l-15.21 19.22h295.101c235.697 0 294.867-.42 293.957-2.08-.64-1.15-6.79-9.8-13.67-19.22l-12.52-17.13H471.253l-15.211 19.21Zm-104.486 73.51c-10.909 13.18-19.836 24.4-19.836 24.95 0 .54 50.863.98 113.03.98h113.03v-50.13l-93.194.12-93.193.12-19.837 23.96Z" clip-rule="evenodd"/><path fill="#569073" fill-rule="evenodd" d="M262.479 957.579c33.143.251 87.375.251 120.516 0 33.142-.251 6.026-.456-60.258-.456-66.283 0-93.399.205-60.258.456Zm840.611 0c32.73.251 86.29.251 119.02 0 32.73-.252 5.95-.458-59.51-.458s-92.24.206-59.51.458Zm380.6 151.671c0 61.58.18 86.53.41 55.44.23-31.09.23-81.47 0-111.97s-.41-5.06-.41 56.53Z" clip-rule="evenodd"/><path fill="#8EBBC5" fill-rule="evenodd" d="M48.77 958.062c-23.818 1.25-35.807 8.461-43.658 26.259l-3.5 7.933-.233 108.636c-.129 59.74.115 111.07.543 114.06l.779 5.43H1482.98v-113.7c0-98.3-.31-114.526-2.29-119.821-4.95-13.216-14.12-22.518-26.77-27.154-7.47-2.74-445.79-3.604-444.35-.876 8.75 16.599 26.28 39.007 31.35 40.055 3.11.645 8.88 3.116 12.81 5.506 7.27 4.39 9.39 7.04 37.52 46.78l14.49 20.47h68.32l16.3 22.98c8.97 12.64 22.95 32.26 31.07 43.6 8.13 11.34 14.5 20.92 14.16 21.29-.82.93-989.448.99-990.277.06-.364-.4 3.265-5.99 8.064-12.41 4.801-6.43 18.834-25.99 31.185-43.49l22.456-31.8 29.201-.12 29.202-.11 23.196-31.16c26.091-35.05 29.801-38.48 44.623-41.272l10.426-1.96 13.132-18.374c7.222-10.106 13.64-19.126 14.263-20.045 1.196-1.77-389.666-2.48-422.29-.767Zm77.347 94.458c6.784 5.77 10.371 14.4 11.555 27.78 1.328 15.04 3.882 22.43 12.001 34.74 21.99 33.35 3.458 71.14-33.441 68.19-30.058-2.4-46.94-35.24-42.174-82.05 2.717-26.69 7.988-36.98 25.613-50 6.221-4.59 20.319-3.88 26.446 1.34Zm1259.333-.26c29.63 20.89 34.42 84.65 8.7 115.92-35.53 43.21-93.03-6.01-61.3-52.46 9.2-13.46 11.9-20.96 13.14-36.42 2.15-26.86 21.19-39.91 39.46-27.04Z" clip-rule="evenodd"/><path fill="#30555C" fill-rule="evenodd" d="M1371.79 678.979c-10.73 2.03-25.39 26.651-15.88 26.651.81 0 2.18 2.282 3.05 5.069l1.58 5.068 15.78-.472 15.78-.473.18-15.577c.12-10.859-.41-16.12-1.75-17.362-2.86-2.65-12.33-4.119-18.74-2.904ZM94.057 683.053l-4.865 2.36v30.359l16.029-.475c15.718-.466 16.046-.555 16.902-4.653.746-3.575 1.943-4.322 8.299-5.169 4.084-.545 6.584-1.108 5.554-1.254-1.029-.143-1.872-1.363-1.872-2.71 0-13.07-26.233-25.161-40.047-18.458Zm1313.583 16.992c-1.57 1.757-1.21 122.238.37 123.329 5.82 4.013 22.57-42.227 22.57-62.293 0-23.797-16.64-68.07-22.94-61.036ZM67.474 711.386c-18.617 32.488-18.94 68.022-.923 101.289 8.372 15.456 8.381 15.407 8.812-47.823.448-65.678.174-67.538-7.89-53.466Zm22.4 19.74c-.396 1.154-.544 28.782-.327 61.395l.393 59.297 6.737 3.616c4.487 2.409 9.615 7.579 15.351 15.483l8.616 11.868h82.326v-62.053l-4.525-4.25c-6.203-5.828-7.348-8.587-12.705-30.631l-4.669-19.219-8.168-.993c-18.585-2.258-36.069-20.863-28.735-30.578 2.629-3.483 2.624-3.491-.451-.601-5.951 5.592-21.589 2.782-21.589-3.879 0-2.495-31.391-1.966-32.254.545Zm1268.406 2.132c-1.79 2.743-4.14 4.126-7.02 4.126-3.46 0-4.97 1.289-7.55 6.411-4.2 8.345-13.28 14.786-24.23 17.191-10.17 2.233-13.33 6.672-19.76 27.758-4.57 15-5.95 17.791-13.06 26.408l-5.86 7.091.41 29.852.41 29.854 38.41.446 38.4.445 5.27-7.966c5.29-7.992 17.96-22.533 24.96-28.637l3.75-3.264.47-53.081c.6-67.25 2.34-60.876-16.6-60.812-14.53.05-15.45.264-18 4.178Z" clip-rule="evenodd"/><path fill="#579AA8" fill-rule="evenodd" d="M175.274 621.221c-.823.307-3.298.999-5.499 1.539-11.484 2.816-18.828 16.074-25.85 46.662-2.918 12.715-6.455 25.289-7.859 27.943-2.953 5.581-2.421 6.575 4.325 8.109l4.942 1.123.44 13.093c.346 10.253-.089 13.746-1.997 16.101-7.263 8.958 10.789 27.399 29.157 29.787l8.138 1.058 4.669 19.219c5.203 21.409 6.284 24.142 11.847 29.951 5.795 6.05 5.63 8.771 5.49-91.224l-.132-93.319-3.732-3.681c-5.405-5.333-17.832-8.634-23.939-6.361Zm1116.526 1.893c-10.57 5.82-10.13 1.641-10.63 100.042-.25 48.701-.04 90.349.45 92.548l.9 4 3.76-3.943c5.56-5.824 9.22-13.156 13.34-26.672 6.53-21.442 9.65-25.857 19.86-28.099 10.7-2.351 19.93-8.757 23.96-16.627l3.01-5.885-4.72-2.634c-11.53-6.434-6.78-31.045 5.99-31.045 7.41 0 7.55-.292 3.67-7.843-1.56-3.04-5.21-15.304-8.12-27.254-7.97-32.837-12.44-41.407-24.5-47.034-6.54-3.05-21.05-2.811-26.97.446Z" clip-rule="evenodd"/><path fill="#E6E2D2" fill-rule="evenodd" d="M371.393 259.406c-.509.92-4.927 1.672-9.82 1.672h-8.894v14.068c0 20.789-1.784 19.357 24.114 19.357h22.296v-36.768h-13.386c-7.362 0-13.801.752-14.31 1.671Zm688.947 3.647c-1.28 8.555-1.14 27.023.22 29.409.92 1.61 6.54 2.021 22.81 1.672l21.6-.467.42-16.142.43-16.145-9.41-1.048c-5.18-.576-15.22-1.447-22.32-1.935l-12.92-.889-.83 5.545ZM722.482 496.221c-30.324 17.841-19.304 69.027 14.863 69.027 9.189 0 22.11-7.21 26.66-14.876 19.197-32.347-11.201-71.99-41.523-54.151Zm-649.514 5.265c-8.63 8.998-7.553 20.986 2.355 26.234 5.535 2.931 16.863 1.151 16.863-2.649 0-.883.957-1.605 2.127-1.605 3.29 0 4.327-8.893 1.818-15.593-4.172-11.15-15.579-14.296-23.163-6.387Zm1318.452-.991c-8.25 7.789-9.52 17.145-3.2 23.68 12.12 12.554 30.48 2.358 25.98-14.43-3.14-11.684-15.06-16.527-22.78-9.25Z" clip-rule="evenodd"/><path fill="#B9B9B9" fill-rule="evenodd" d="M365.271 565.243c0 16.086.225 22.668.5 14.624.274-8.042.274-21.203 0-29.247-.275-8.042-.5-1.463-.5 14.623Zm315.644 26.309c5.558.321 14.654.321 20.211 0 5.557-.322 1.011-.584-10.105-.584s-15.663.262-10.106.584Zm56.044.01c14.152.275 37.731.276 52.398.002 14.668-.274 3.091-.498-25.728-.5-28.819 0-40.821.224-26.67.498Zm-434.563 74.793c.002 16.545.227 23.088.499 14.538.273-8.548.271-22.086-.003-30.083-.274-7.995-.497-1.001-.496 15.545Zm64.465 83.563c0 62.506.186 87.834.415 56.283.227-31.55.227-82.69-.002-113.646-.227-30.955-.413-5.142-.413 57.363Zm772.449-66.85c0 25.737.21 36.032.46 22.878.25-13.153.25-34.211 0-46.796-.26-12.583-.46-1.82-.46 23.918Zm-679.648 44.288c0 41.824.194 58.934.432 38.021.238-20.91.238-55.13 0-76.042-.238-20.911-.432-3.802-.432 38.021Zm519.442-5.849c0 21.141.215 29.559.476 18.708.262-10.853.26-28.151-.002-38.439-.262-10.29-.476-1.411-.474 19.731Zm-654.187 68.522c0 36.767.198 51.571.439 32.895.241-18.675.241-48.757 0-66.851-.243-18.091-.44-2.812-.439 33.956Zm235.02 1.671c.002 26.657.208 37.328.46 23.713.251-13.614.251-35.424-.002-48.466-.251-13.043-.458-1.904-.458 24.753Zm-257.458 36.629c.04 29.626.391 35.063 2.293 35.641 1.629.497 1.741.285.406-.773-1.325-1.05-1.966-11.012-2.293-35.642l-.456-34.184.05 34.958Zm257.081 23.045-.283 11.208-10.854.576-10.854.578 10.901.331c12.622.385 12.716.274 11.919-14.06l-.546-9.84-.283 11.207Zm-21.616 229.866c6.793.31 17.908.31 24.702 0 6.793-.31 1.235-.57-12.351-.57-13.587 0-19.145.26-12.351.57Zm54.567 0c7.163.3 19.29.3 26.947 0 7.66-.3 1.798-.56-13.023-.56s-21.086.25-13.924.56Zm149.719-.01c5.523.32 14.954.32 20.959 0 6.006-.31 1.488-.58-10.039-.58-11.528 0-16.441.26-10.92.58Zm238.921 26.75c6.833.31 17.612.31 23.949-.01 6.35-.31.76-.56-12.416-.56-13.175 0-18.364.26-11.533.57Zm-463.484 113.64c5.523.32 14.954.32 20.959 0 6.007-.32 1.488-.58-10.039-.58-11.528 0-16.441.26-10.92.58Zm630.343 0c5.55.32 14.65.32 20.21 0 5.55-.32 1.01-.59-10.11-.59-11.11 0-15.66.27-10.1.59Zm106.22 0c5.53.32 14.96.32 20.96 0 6.01-.32 1.49-.58-10.04-.58-11.52 0-16.44.26-10.92.58Z" clip-rule="evenodd"/></svg>