<svg xmlns="http://www.w3.org/2000/svg" fill="none" viewBox="0 -0.02 141.03 40.11"><g fill="#fff" clip-path="url(#a)"><path d="M45.3 32.5a59 59 0 0 1-5.5.7v-17a46 46 0 0 1 5.5-.8v17.1Zm76-21.2V6.1h-18.7a12.7 12.7 0 0 1 5 5.2h13.7Zm.8 22.5v-5.2h-14.6c-.7 1.3-1.6 2.5-2.7 3.5-.7.6-1.5 1.2-2.4 1.7H122Zm-102.3 0c0-.2 5-7.2 5-7.2h6.9v-4.3h-4l4-5.9v17.4l5.9-.3V6h-6L13.3 32.8c1.3.6 6.6 1 6.6 1Z"/><path d="m57.5 8.6-.8-.6c-2-1.5-5-2.2-9-2.2a47.6 47.6 0 0 0-7.8.7v5.2l7-.6H48c.9 0 1.6 0 2.3.2.8 0 1.3.3 1.8.6s1 .7 1.2 1.2c.2.5.4 1.2.4 2 0 1.5-.6 2.6-1.6 3.2-1 .6-2.5.9-4.6.9l-7.7-.3V24l7.7.4c4 0 7-.7 9-2.2.9-.6 1.5-1.3 2-2.1a9.1 9.1 0 0 1-2.5-6.4 9.8 9.8 0 0 1 1.4-5.2Zm21.1 4.1 5.9-1.3V6h-6v6.6Zm5.9.1c-2.1.4-4 .8-6 1.4v19.6h6v-21Z"/><path d="M57.9 13.8a7.4 7.4 0 0 0 2.3 5.5c.7.6 1.4 1.1 2.3 1.6l2.5 1c2 .8 3.4 1.4 4.2 2 .8.6 1.2 1.4 1.2 2.2 0 .5 0 .9-.2 1.2a2 2 0 0 1-.7 1c-.3.1-.7.4-1.3.5l-2 .2a13.4 13.4 0 0 1-7.1-1.7l-1.7 5a18.6 18.6 0 0 0 3.2 1.3l2.4.5c1 .2 2 .3 3.2.3 3.4 0 6-.7 7.7-2.2a7.4 7.4 0 0 0 2.6-6c0-1.4-.2-2.5-.5-3.4a7 7 0 0 0-1.5-2.4 9 9 0 0 0-2.5-1.8c-1-.6-2.2-1-3.6-1.6l-1.7-.8c-.6-.1-1-.4-1.5-.7l-1-1c-.2-.3-.3-.7-.3-1.2 0-.8.3-1.5 1-2a6 6 0 0 1 3-.5c1.2 0 2.3.1 3.2.4.9.3 1.7.7 2.4 1.1l1.7-5L72 6a15.7 15.7 0 0 0-8.5 0c-1.2.4-2.2 1-3 1.7-.8.7-1.5 1.6-2 2.6-.4 1-.6 2.2-.6 3.5ZM87 6v5.5c2-.3 4-.4 6-.4 3 0 5 .8 6.4 2.2 1.4 1.5 2 3.7 2 6.6 0 2.8-.6 5-2 6.5-1.5 1.6-3.7 2.4-6.6 2.4a47 47 0 0 1-5.8-.4v5.4a26.3 26.3 0 0 0 5.5.3c2.3 0 4.4-.2 6.3-.8a12 12 0 0 0 7.7-7c.7-1.9 1-4 1-6.4a17 17 0 0 0-1-6.4c-.7-1.8-1.7-3.3-3-4.4-1.3-1.2-2.9-2-4.7-2.5-1.9-.6-3.9-.8-6.1-.8l-3.8.1-2 .2Zm33 10.8h-10.7a26.5 26.5 0 0 1 0 5H120v-5ZM.7 34.1l-.6 1.2C-.3 37 1 38.1 4.4 39c9.9 2.3 27.5 1 53.8-4.2L56 33.6c-.2-.1-.2-.4-.1-.7v-.1c-19.1 3.6-34.1 4-42.9 2.8-7.4-1.1-7-4 1.1-8.3l2.3-1.2c.2-.1 1-1.5 1.1-1.5l-8.3 3.6a26.6 26.6 0 0 0-8.5 6ZM140.4 2.4c-.2-.3-.7-.6-1.2-.8-1.9-1-5.4-1.5-10.5-1.6-7.1-.2-16 1-26.5 2.7 9-1.1 16.2-1.6 21.7-1.3 9.3.5 11.1 2.8 5.2 7-5.1 3.4-9.9 5.3-13.7 6.8h-.2 5.8c.4 0 .6.2.9.4.2.2.3.5.3.8v.3c8-3.2 12.6-6.3 16.3-9.4 2.5-2 3.1-3.7 2-5Z"/><path d="M129.5 4.7c0 3-6.7 7.5-14 10.5 3.8-1.5 8.6-3.4 13.8-7 6-4.1 4.1-6.4-5.3-6.9-5.5-.3-12.7.2-21.8 1.3 5.5-.5 11-.8 16.9-.6 6.7.1 10.2.8 10.4 2.7Z"/></g><defs><clipPath id="a"><path fill="#fff" d="M0 0h141v40H0z"/></clipPath></defs></svg>