<svg xmlns="http://www.w3.org/2000/svg" viewBox="0 0 200 247.92"><path d="M0 0c.137.047-.14-.043 0 0" style="fill:#231f20;fill-opacity:1;fill-rule:nonzero;stroke:none" transform="matrix(2.40454 0 0 -2.40454 72.338 4.11)"/><path d="M0 0c.026.008-.024-.006 0 0" style="fill:#231f20;fill-opacity:1;fill-rule:nonzero;stroke:none" transform="matrix(2.40454 0 0 -2.40454 72.338 4.11)"/><path d="M0 0c.13 7.972-2.299 17.647-4.64 22.795-2.596 5.89-6.556 9.467-12.376 11.058a39.39 39.39 0 0 1-9.801 1.213c-3.377 0-6.686-.409-9.816-1.213-5.816-1.591-9.781-5.168-12.369-11.058C-51.348 17.647-53.775 7.972-53.647 0c-.128-7.972 2.299-17.649 4.645-22.799 2.588-5.886 6.553-9.465 12.369-11.053 3.13-.807 6.439-1.217 9.816-1.217 3.38 0 6.67.41 9.801 1.217 5.82 1.588 9.78 5.167 12.376 11.053C-2.299-17.649.13-7.972 0 0m-26.767-36.047h-.088c-4.057 0-7.968.606-11.662 1.719-3.975 1.382-7.657 4.144-9.935 7.598-3.764 5.5-7.176 16.129-7.323 26.713v.032c.147 10.584 3.559 21.214 7.323 26.717 2.278 3.451 5.96 6.223 9.935 7.604 3.694 1.119 7.69 1.71 11.75 1.71 4.056 0 8.051-.591 11.751-1.71 3.972-1.381 7.66-4.153 9.94-7.604C-1.318 21.229 2.095 10.599 2.237.015v-.032C2.095-10.601-1.318-21.23-5.076-26.73c-2.28-3.454-6.053-6.227-10.025-7.606a39.647 39.647 0 0 0-11.583-1.711" style="fill:#64614f;fill-opacity:1;fill-rule:nonzero;stroke:none" transform="matrix(2.40454 0 0 -2.40454 164.954 86.674)"/><path d="M0 0c-.389.653-.071.07-.474.829" style="fill:#fff;fill-opacity:1;fill-rule:nonzero;stroke:none" transform="matrix(2.40454 0 0 -2.40454 110.178 47.213)"/><path d="M0 0c-.026 1.459 1.401 2.195 2.299 3.163.245.232.334.696.162 1.078-.109.241-.264.359-.465.409-.313.071-.578.024-.779-.149-.278-.261-.353-.599-.339-.963L-.126 3.48a1.911 1.911 0 0 0 .39 1.509c.466.498 1.166.635 1.848.59.543-.09 1.178-.417 1.403-.986.289-.617.192-1.412-.265-1.933-.59-.627-1.358-.97-1.849-1.678l2.522.15c.021-.308.042-.615.055-.901" style="fill:#64614f;fill-opacity:1;fill-rule:nonzero;stroke:none" transform="matrix(2.40454 0 0 -2.40454 102.825 166.476)"/><path d="m0 0-.017-.047-1.642-5.04-1.05.345 1.128 3.446.017.059c-.42.149-.925.291-1.33.435l.214.655c.53-.141 1.075-.232 1.54.153.168.133.197.168.289.267" style="fill:#64614f;fill-opacity:1;fill-rule:nonzero;stroke:none" transform="matrix(2.40454 0 0 -2.40454 81.297 151.313)"/><path d="M0 0c-.133-.156-.372-.276-.63-.337-.261-.065-.526-.073-.716.006a.811.811 0 0 0-.507.529c-.1.347 0 .711.291.918.133.087.315.172.512.228.204.04.41.053.557.031.363-.043.619-.319.69-.668A.807.807 0 0 0 0 0m-2.204 2.43c-.128.217-.128.587.1.805.128.137.317.235.521.284.199.054.417.055.597-.009.296-.09.465-.416.46-.669a.647.647 0 0 0-.216-.466c-.128-.116-.31-.2-.5-.243a1.154 1.154 0 0 0-.549-.018.662.662 0 0 0-.413.316M1.266.991c-.133.496-.41.895-.963 1.054l-.32.069c.33.232.633.702.524 1.156-.078.519-.452.849-.924 1.027-.412.129-.896.106-1.353-.017-.465-.104-.896-.311-1.209-.616-.329-.377-.51-.842-.332-1.337.112-.454.597-.726.993-.781l-.248-.209c-.42-.403-.472-.878-.361-1.381.121-.557.571-.995 1.117-1.156.407-.103.902-.095 1.386.019.483.12.924.341 1.237.63.408.399.602.988.453 1.542" style="fill:#64614f;fill-opacity:1;fill-rule:nonzero;stroke:none" transform="matrix(2.40454 0 0 -2.40454 126.26 160.412)"/><path d="M0 0c-.173-.108-.438-.156-.704-.136-.265.013-.519.095-.68.216a.82.82 0 0 0-.322.666c.007.354.211.672.552.782a1.61 1.61 0 0 0 1.097-.067C.273 1.31.436.972.4.612A.822.822 0 0 0 0 0m-1.379 2.973c-.055.246.057.601.336.741.157.093.375.131.579.114.208-.012.417-.073.566-.185.261-.17.325-.537.242-.775a.652.652 0 0 0-.346-.385 1.201 1.201 0 0 0-.548-.079 1.144 1.144 0 0 0-.531.147.65.65 0 0 0-.298.422M1.503.569c.021.51-.124.976-.602 1.29l-.285.162c.379.121.809.478.839.947.083.521-.18.948-.573 1.261-.358.244-.82.362-1.297.386-.474.036-.95-.031-1.334-.229-.431-.262-.742-.655-.723-1.179-.024-.466.358-.874.723-1.041l-.303-.127c-.524-.255-.716-.697-.754-1.209-.05-.573.249-1.119.723-1.433.353-.23.832-.367 1.329-.402.491-.028.982.057 1.368.239.507.256.865.762.889 1.335" style="fill:#64614f;fill-opacity:1;fill-rule:nonzero;stroke:none" transform="matrix(2.40454 0 0 -2.40454 92.938 163.949)"/><path d="m0 0-4.908-2.114-.436 1.017 4.903 2.119" style="fill:#64614f;fill-opacity:1;fill-rule:nonzero;stroke:none" transform="matrix(2.40454 0 0 -2.40454 153.602 39.653)"/><path d="m0 0-1.261 5.497 1.164-.116C.135 4.02.375 2.478.65 1.331c.502 1.07 1.045 2.531 1.542 3.813l1.147-.114L1.017-.103" style="fill:#64614f;fill-opacity:1;fill-rule:nonzero;stroke:none" transform="matrix(2.40454 0 0 -2.40454 109.164 19.27)"/><path d="m0 0-1.192-2.133-1.007.559L-.834.874l-.766.434-1.91-3.427 4.66-2.605 1.912 3.43-.773.431-1.37-2.453-1.305.733L.811-.45" style="fill:#64614f;fill-opacity:1;fill-rule:nonzero;stroke:none" transform="matrix(2.40454 0 0 -2.40454 58.998 26.827)"/><path d="m0 0-1.49-.002h-.01c.026 1.185-.159 1.885.547 2.022.247.066.55.04.733-.145C.083 1.583-.009 1.098 0 0m-2.303-.002h-1.313c.04 1.22-.159 1.877.59 1.956.443.033.562-.064.663-.335.086-.272.06-.561.06-1.621M.709 2.416c-.254.576-.872.803-1.51.772-.538-.068-.945-.431-1.175-.986a1.08 1.08 0 0 1-.899.794c-.535.066-1.05-.08-1.305-.533-.353-.45-.2-2.436-.235-3.581l5.302.005.002.386C.858 1.382.981 1.638.709 2.416" style="fill:#64614f;fill-opacity:1;fill-rule:nonzero;stroke:none" transform="matrix(2.40454 0 0 -2.40454 50.5 87.198)"/><path d="m0 0 .849.221 1.075-4.175-.853-.219-.393 1.542-4.29-1.106-.272 1.082L.398-1.55" style="fill:#64614f;fill-opacity:1;fill-rule:nonzero;stroke:none" transform="matrix(2.40454 0 0 -2.40454 153.705 46.792)"/><path d="M0 0c.592.09 1.151.337 1.528.778.323.365.37.716.32 1.108l-.609 3.82-1.09-.175.614-3.817c.035-.288-.164-.585-.42-.732A1.171 1.171 0 0 0-.142.816 1.24 1.24 0 0 0-.65.821c-.289.058-.566.251-.628.564L-1.896 5.2l-1.083-.177.614-3.814c.075-.389.229-.707.654-.954.49-.298 1.099-.358 1.696-.256" style="fill:#64614f;fill-opacity:1;fill-rule:nonzero;stroke:none" transform="matrix(2.40454 0 0 -2.40454 88.915 19.999)"/><path d="m0 0-.185 1.322L2.119.97h.007L2.121.968h.009-.011Zm3.083 1.683-5.545 1.114.151-1.083 1.209-.22.263-1.91-1.095-.543.145-1.085L3.244.547" style="fill:#64614f;fill-opacity:1;fill-rule:nonzero;stroke:none" transform="matrix(2.40454 0 0 -2.40454 152.217 69.032)"/><path d="m0 0 .1.017.12.03.088.036c.353.19.436.659.415 1.038-.01.386-.13.777-.49.922-.19.05-.425.066-.553-.128-.604-.893-.185-2.782-1.737-3.112-.678-.116-1.273.183-1.623.725-.482.854-.519 2.2.03 3.036.332.433.78.702 1.321.706l.068-1.025c-.334-.043-.661-.213-.813-.543-.222-.534-.173-1.384.223-1.699.147-.162.474-.14.654-.046.619.443.493 1.548.804 2.288.102.315.396.632.685.792.547.235 1.248.15 1.689-.283.711-.672.742-1.988.415-2.785-.185-.554-.789-.955-1.408-.99L-.078-.002" style="fill:#64614f;fill-opacity:1;fill-rule:nonzero;stroke:none" transform="matrix(2.40454 0 0 -2.40454 157.704 87.044)"/><path d="M0 0c.099.597.04 1.209-.263 1.694-.244.425-.564.577-.958.657l-3.815.593-.173-1.081 3.82-.607c.287-.043.505-.336.564-.62.041-.162.041-.337.01-.514a1.191 1.191 0 0 0-.169-.485c-.146-.249-.412-.455-.729-.415l-3.816.591-.171-1.084 3.821-.599c.393-.047.742.002 1.106.327.439.375.68.939.773 1.531" style="fill:#64614f;fill-opacity:1;fill-rule:nonzero;stroke:none" transform="matrix(2.40454 0 0 -2.40454 54.371 67.652)"/><path d="m0 0-.59 2.251-.005.009.005-.004-.003.01.005-.013L1.138.695Zm-.649 3.455-.977-.594L-.455-2.67l.938.564L.206-.91 1.851.093l.939-.796.931.569" style="fill:#64614f;fill-opacity:1;fill-rule:nonzero;stroke:none" transform="matrix(2.40454 0 0 -2.40454 70.172 21.093)"/><path d="m0 0-2.246.943.442 1.063L.777.925l.347.815-3.619 1.512-2.065-4.925 3.622-1.512.343.817-2.592 1.084.575 1.377 2.264-.951" style="fill:#64614f;fill-opacity:1;fill-rule:nonzero;stroke:none" transform="matrix(2.40454 0 0 -2.40454 130.922 16.96)"/><path d="m0 0-1.342.394c.297.91.427 1.83 1.067 1.778.261-.045.438-.114.588-.301C.561 1.564.241.879 0 0m1.062 1.911c-.003.365-.022.668-.325.961-.292.304-.758.442-1.216.412-1.189-.182-1.346-1.545-2.007-3.708l5.114-1.525.323 1.07L.927-.28l-.081.023C.981.238 1.183.86 1.28.995c.365.844 1.72.017 2.256.094l.313 1.062c-.911-.05-2.136.766-2.787-.24" style="fill:#64614f;fill-opacity:1;fill-rule:nonzero;stroke:none" transform="matrix(2.40454 0 0 -2.40454 50.204 49.998)"/><path d="M0 0c-.187-.183-.344-.283-.586-.293-.402-.02-.762.641-1.329 1.355l1.104.848C-.242 1.138.422.489 0 0m-.801 3.318L-5.036.082l.673-.885L-2.69.475l.074.051c.312-.4.703-.927.751-1.085.471-.795-1.005-1.399-1.247-1.882l.669-.877C-1.948-2.545-.567-2.041-1-.923c.298-.218.557-.38.974-.303.419.058.805.352 1.05.744.547 1.07-.46 1.999-1.825 3.8" style="fill:#64614f;fill-opacity:1;fill-rule:nonzero;stroke:none" transform="matrix(2.40454 0 0 -2.40454 144.405 27.83)"/><path d="m0 0-9.195.013v2.674L0 2.692Zm-.924-13.167c-.427-.339-.78-.627-1.294-1.027.038 1.022.182 2.062-.311 2.668-1.206 1.196-2.298 2.285-3.386 3.352-.403.436-.728 1.061-.462 1.638.125.277.298.591.486.841 0-.562.246-.882.563-1.199 1.479-1.451 4.037-3.475 4.243-4.332.22-.578.151-1.268.161-1.941m-2.012-.363c-.285-.313-.384-.427-.716-.753l-.673.808v2.249c-.946-.464-.718-1.806-.718-2.971-.559.456-.842.715-1.38 1.222-.303 1.343.498 2.106 1.107 3.052l2.38-2.28zM-2.37-1.5c.564-.462.849-.718 1.384-1.227.304-1.344-.502-2.106-1.104-3.049l-2.384 2.278v1.327c.284.311.384.425.715.751l.673-.809v-2.244c.948.461.716 1.807.716 2.973m-4.119-1.034c.432.335.78.626 1.294 1.029-.038-1.023-.18-2.062.313-2.669 1.209-1.201 2.301-2.287 3.387-3.353.405-.436.725-1.06.462-1.637a4.993 4.993 0 0 0-.486-.843c0 .561-.242.885-.562 1.203-1.478 1.45-4.036 3.471-4.242 4.331-.223.574-.152 1.271-.166 1.939m-.426-17.916c-.259-.441-.669-.891-1.136-1.114-.805-.453-2.021-.33-2.746.199-.662.474-1.076 1.187-1.086 1.917 2.038.003 3.328.003 5.257.003-.021-.436-.093-.583-.289-1.005m-5.669-1.114h-1.812v3.249l-2.82-.002v1.308h2.832l.889 1.05c.431-.504.467-.541.916-1.05h2.827v-1.308l-2.832.002zm-3.604.199c-.729-.529-1.94-.652-2.749-.199-.464.223-.881.673-1.135 1.114-.192.422-.27.569-.287 1.005 1.923 0 3.221 0 5.259-.003-.012-.73-.424-1.443-1.088-1.917m5.735 12.038.006 7.889c1.128.016 1.491-.015 2.662.007v-7.896zm-.856-.774c.9-.04 1.81-.789 2.161-1.628.358-.858.218-1.979-.336-2.693-.692-.84-1.652-1.286-2.771-1.085-.705.156-1.399.586-1.804 1.246.576.193 1.396.525 1.558 1.084-.043.872.557 1.571 1.002 2.266.228.3.256.482.19.81m-10.204-6.135c-.438.289-.54.573-.694.974-.372 1.696 1.678 2.306 2.164 3.716.381 2.358.495 4.841 2.135 6.678.161 3.463 1.282 6.527 3.744 9.044-.116.782-.436 1.458-.67 2.186-.323.013-.541.075-.832.334a1.843 1.843 0 0 0-.356.893c-.858-1.064-1.919-2.252-3.087-2.97-.214-.121-.486.133-.877.495-1.434 1.135-1.676 3.695-3.861 3.584-.993.333-.946 1.502-1.109 2.377.367.269.967.256 1.407.084 1.366-.73 2.276-2.267 3.563-3.296.343-.274.654-.635.971-.767.846.728 1.522 1.353 2.098 2.476.395.641 1.054.916 1.784.925l.519.612-.275 1.529a11.111 11.111 0 0 0-1.332 2.158c.187.876.301 1.896 1.188 2.38.58.36 1.052-.46 1.528.06.346.071.647-.024.89-.221.36-.627.784-1.249.808-1.977-.22-.707-.554-1.362-.889-2.024-.076-.144-.28-.191-.418-.299.084-.298.154-.63.361-.867.263-.055.515-.101.83-.044.256.773 1.088 1.12 1.782 1.329l1.524.993c-.244 1.157.498 2.173.086 3.324-.873.412-1.122 1.393-1.309 2.167.14.477.375.99.72 1.397l.05-.061c.835-.967 1.598-1.964 1.863-3.166.149-1.536.299-3.109.199-4.712-.825-.821-1.818-1.308-2.751-1.916l-.694-1.331c-.083-1.374-.487-2.609-.697-3.939.592-1.607 1.294-3.747.777-5.233-.398-.886-1.23-1.369-1.848-1.862l-1.563-1.249c1.569-1.726 1.19-3.683 1.257-6.186-.017-.604 1.066-1.107.49-1.796-.483-.773-1.235-1.399-1.11-2.413-.481-.807-1.626-.979-2.171-.972a.193.193 0 0 0-.206.197c.114.415.436.74.607 1.133.559.854.303 2.034.995 2.828-.568 1.86-1.431 3.583-1.668 5.566l-.014.128c-.468-.912-.209-1.806.035-2.526-1.538-1.939-3.206-3.804-3.206-6.354-.659-1.168-1.593-2.232-2.081-3.468-.161-.207-.47-.027-.657.082m-1.137 5.815c-.536-.374-1.031-.406-1.557-.405-.171.002-.477.026-.652.081-.396.099-.957.313-1.294.848l-.066.126-.06.161-.073.17-.029.27.003 4.996c-.045.628-.28.641-.792 1.022l.183.062 2.024.662c.286-.315.353-.717.379-1.133v-3.904c-.005-.254.216-.398.507-.412.346 0 .488.13.517.404.026 1.75-.029 2.24 0 3.83.045.534.521 1.068.971 1.19.562.268 1.24.164 1.74-.085.903-.426.858-2.19.848-3.621-.353.232-.41.26-.763.357-.308.067-.647.008-.886-.175-.292-.267-.322-.526-.327-.993-.024-1.657.158-2.796-.673-3.451m-.979 18.472c.384.104.756-.135 1.05-.357-.045-1.55-.045-1.532-.079-3.16h-.853l-.004.26c-.034 1.233-.086 2.041-.114 3.257m-3.557-5.364 9.195.005V.021l-9.195-.008zm5.816 11.397h-.804l-.346-2.865a3.147 3.147 0 0 1-1.164.667c-.203 1.217-.222 1.303-.334 2.198h-.775v.85c1.337.004 2.079-.002 3.42-.002zm-3.456 6.188.003.007c.208-.615.597-1.056 1.213-1.348-.071.329-.358.624-.451.969-.267.674-.241 1.636.197 2.223.311.461.759.65 1.249.807-.187-.556-.244-1.218-.016-1.781.322.244.339.259.587.501.093.09.136.119.216.18.458-.973.972-2.313.671-3.447l-.185-.487c-.073.8-.204 1.184-.742 1.473-.071-.465.228-.8.297-1.407.22-.94.047-1.872-.534-2.414h-1.5c-1.147 1.225-1.225 3.064-1.005 4.724m14.645-1.764.474-.83-1.183-1.294c-.32.307-.346.336-.663.668.609.639.668.705 1.372 1.456m3.616 5.194c.465.135 1.098.076 1.491-.273.529-.382.683-1.03.554-1.632-.369-1.3-1.822-1.542-2.999-1.85l-.645.877c.239 1.12.367 2.414 1.599 2.878m2.43-17.249c.075-.002.433.074.441.299v4.692c.646.151 1.298.372 1.907.497V9.112c.37.043.553.09 1.005.159V5.543l-1.161-.174-.363-1.504h-4.135l-.617 1.339c-1.002.093-1.073.093-2.083.165.948 1.222 1.922 2.439 2.581 3.777v1.907l1.865.239V6.771c0-.157.23-.318.462-.318zM.583 21.517c-1.125 2.56-3.367 4.443-6.1 5.224a31.5 31.5 0 0 1-8.132 1.082h-.088c-2.787 0-5.567-.39-8.133-1.082-2.733-.781-4.971-2.664-6.101-5.224-2.455-5.258-4.06-12.818-4.06-20.249 0-7.436 1.605-14.992 4.06-20.249 1.13-2.559 3.368-4.446 6.101-5.226a31.594 31.594 0 0 1 8.133-1.078h.088c2.785 0 5.568.388 8.132 1.078 2.733.78 4.975 2.667 6.1 5.226 2.448 5.257 4.06 12.813 4.06 20.249 0 7.431-1.612 14.991-4.06 20.249" style="fill:#64614f;fill-opacity:1;fill-rule:nonzero;stroke:none" transform="matrix(2.40454 0 0 -2.40454 133.52 89.72)"/><path d="M0 0c.578 0 .929.392.929 1.033 0 .611-.465.882-.99.882h-1.925L-1.984 0Zm.114-1.281c-.785.049-1.512.044-2.098.044v-.014l-.007-2.222c1.635.021 1.693 0 2.251.065.57.066.837.57.837 1.065S.73-1.319.114-1.281m48.949 2.864-.002.009v-.014l-.986-3.318h1.979l-.991 3.318zm-23.574.25c-.467.036-1.316-.018-2.095 0V-.215c1.523-.004 1.756.001 2.23.044.471.048.775.474.775 1.057-.005.587-.437.901-.91.947M64.155-2.64c-.026-.591-.175-1.092-.739-1.552-.652-.562-1.536-.788-2.432-.783h-.021c-.891-.005-1.778.221-2.432.783-.559.46-.713.961-.737 1.552v5.776h1.645V-2.64c.014-.471.379-.817.784-.975.23-.093.489-.136.754-.13.261-.006.521.037.746.13.411.158.78.547.787.975l.003 5.776h1.642zm-13.08-2.152-.576 1.733h-2.87l-.576-1.733h-1.625l2.78 7.942h1.711l2.778-7.942zM39.581.138l.005-1.375h-3.643l-.002-2.22h4.176l.002-1.321h-5.837v7.944h5.837l-.002-1.314-4.169-.004V.141Zm-13.016-4.93c-.377.003.182 3.151-1.181 3.232-.763.051-1.242.019-2 .008l.007-3.24h-1.654v7.939c1.519-.011 2.391-.02 3.754-.02 1.228-.06 2.45-.553 2.533-1.887.093-1.542-.779-1.896-1.597-2.161 1.893-.406 1.192-2.616 1.697-3.871zM14.94-2.65c-.019-.594-.17-1.095-.73-1.556-.654-.558-1.54-.786-2.431-.782h-.024c-.896-.004-1.778.224-2.429.782-.564.461-.714.962-.74 1.556v5.772h1.638l.005-5.772c.014-.472.374-.823.789-.973.225-.099.488-.144.749-.129.26-.015.521.03.746.129.413.15.78.542.787.973l.003 5.772h1.637ZM.114-4.789H-3.64v7.93c1.592-.005 2.519 0 3.837 0 1.223 0 2.187-.664 2.28-1.877.082-.839-.18-1.566-1.188-1.819.891-.246 1.465-1.06 1.469-2.114.005-.9-.694-2.12-2.644-2.12m-11.452-2.18h83.176V5.25h-83.176z" style="fill:#64614f;fill-opacity:1;fill-rule:nonzero;stroke:none" transform="matrix(2.40454 0 0 -2.40454 27.263 197.143)"/><path d="M0 0c-2.413 0-3.342 1.507-3.342 2.663l1.519.056c0-.63.595-1.45 1.702-1.45.853 0 1.801.18 1.801 1.112 0 1.688-4.777.699-4.777 3.377 0 1.426.971 2.646 3.071 2.646 2.912 0 3.173-1.977 3.173-2.484l-1.528-.055c0 .647-.394 1.244-1.467 1.244-1.166 0-1.619-.508-1.619-1.062 0-1.429 4.804-.695 4.804-3.372C3.337.9 1.955 0 0 0m-8.75.179-.576 1.733h-2.87l-.573-1.733h-1.628l2.787 7.945h1.704L-7.124.179zm-8.833 6.591h-2.369V.179h-1.655l-.007 6.591-2.377-.001v1.298h6.408zM-28.608.179h-1.662v7.949h1.662zm-9.063.023c-.372 0 .182 3.148-1.178 3.233-.765.043-1.242.008-2 .001l.007-3.234h-1.652v7.936c1.517-.009 2.389-.017 3.756-.017 1.226-.065 2.449-.557 2.529-1.893.095-1.541-.78-1.894-1.595-2.159 1.894-.411 1.187-2.615 1.697-3.867zm-10.966 4.893V3.723l-3.64.003V1.501h4.171l.005-1.321h-5.835v7.949h5.837l-.007-1.315-4.166-.003V5.099ZM-61.368.179h-1.522l-2.692 7.945 1.737.003c.55-1.984 1.138-4.226 1.714-5.887.58 1.661 1.17 3.903 1.713 5.884l1.716.003zm-11.326-2.194h83.176v12.222h-83.176zm61.942 8.583-.003-.01-.002.01v-.014l-.993-3.326h1.981l-.983 3.326zm-27.988.248c-.467.043-1.32-.011-2.095 0V4.77c1.514-.005 1.751.002 2.223.05.469.048.782.47.777 1.053-.004.588-.436.908-.905.943" style="fill:#be1536;fill-opacity:1;fill-rule:nonzero;stroke:none" transform="matrix(2.40454 0 0 -2.40454 174.796 243.075)"/></svg>
