<svg xmlns="http://www.w3.org/2000/svg" width="1215" height="1654" fill="none"><path fill="#FAF" fill-rule="evenodd" d="M606.75 248.819c19.375 1.313 43.283 1.398 43.28.153-.002-.743-11.568-1.206-25.699-1.027-14.131.178-22.044.573-17.581.874Z" clip-rule="evenodd"/><path fill="#9C9CA5" fill-rule="evenodd" d="M142.317 427.032c-.002 24.793.252 35.187.564 23.095.31-12.091.312-32.376.002-45.079-.31-12.702-.566-2.81-.566 21.984Zm28.529 608.568c.624 2.29 6.293 2.71 36.653 2.77l35.914.06-35.081-.55c-25.127-.4-35.526-1.19-36.651-2.77-1.14-1.61-1.369-1.47-.835.49Z" clip-rule="evenodd"/><path fill="#73738C" fill-rule="evenodd" d="M149.529 432.438c-.002 24.793.253 35.187.565 23.095.31-12.09.312-32.376.001-45.079-.31-12.702-.566-2.81-.566 21.984Zm402.035 117.206c.002 13.884.285 19.326.628 12.092.344-7.233.341-18.593-.004-25.245-.346-6.65-.627-.732-.624 13.153Zm85.977 414.808c-.076 1.037 2.213 8.746 5.085 17.13 4.802 14.022 5.179 14.595 4.697 7.132-.488-7.564-3.972-19.343-4.533-15.327-.137.992-1.345-1.037-2.681-4.508s-2.492-5.463-2.568-4.427Zm11.769 38.018c.696 2.85 2.359 8.32 3.695 12.17 1.338 3.84 2.431 9.01 2.431 11.49 0 3.79.423 4.15 2.704 2.25 2.97-2.46 3.791-8.09.922-6.32-.979.61-1.394.04-.92-1.25 1.216-3.31-3.556-16.19-5.384-14.53-.828.75-.92.35-.202-.9.72-1.25-.002-3.58-1.603-5.18-2.676-2.674-2.807-2.492-1.643 2.27Zm-458.535 83.16c12.703.31 32.989.31 45.079 0 12.092-.31 1.698-.57-23.095-.57-24.794 0-34.686.26-21.984.57Zm174.802 558.97c7.685.34 20.264.34 27.949 0 7.685-.33 1.398-.61-13.974-.61s-21.66.28-13.975.61Zm261.459.01c31.487.28 83.012.28 114.501 0 31.487-.27 5.725-.5-57.251-.5-62.975 0-88.739.23-57.25.5Zm347.194 0c8.229.33 21.212.33 28.85-.01 7.64-.34.91-.61-14.961-.61-15.867 0-22.117.28-13.889.62Zm-457.187 9.02c91.985.26 242.504.26 334.487 0 91.985-.26 16.724-.47-167.244-.47-183.967 0-259.226.21-167.243.47Z" clip-rule="evenodd"/><path fill="#111F22" fill-rule="evenodd" d="M595.931 58.443c-3.857 1.369-3.629 1.473 1.573.723 6.399-.921 4.955 5.673-1.728 7.882-2.095.692-2.066.256.155-2.45 2.523-3.073 2.442-3.154-1.222-1.202-2.159 1.15-5.202 1.602-6.762 1.003-1.558-.597-2.835-.215-2.835.853 0 1.08-1.35 1.42-3.051.768-2.374-.91-1.677-1.7 3.156-3.567 5.408-2.086 5.536-2.265.995-1.38-7.306 1.425-17.516 6.182-12.82 5.975 7.232-.32 10.108.292 9.093 1.934-.572.924-.088 2.265 1.073 2.983 1.244.77 1.63.526.941-.588-.644-1.04.034-2.353 1.504-2.917 1.47-.565 2.586-.448 2.481.261-.555 3.725.532 5.795 3.046 5.795 1.545 0 2.31.812 1.697 1.804-.614.991.198 1.803 1.803 1.803s2.416-.812 1.803-1.803c-.664-1.073 1.484-1.804 5.303-1.804 3.529 0 6.417-.811 6.417-1.803 0-3.523 17.908-2.059 22.053 1.803 2.13 1.984 3.284 3.607 2.566 3.607s-.436 1.623.626 3.606c1.312 2.452 1.332 3.678.063 3.832-6.652.804-11.142 3.71-10.064 6.518.707 1.843.179 2.35-1.7 1.629-4.05-1.555-3.298 1.222 1.071 3.948 2.086 1.304 3.257 1.499 2.598.435-1.228-1.987.79-2.571 7.13-2.063 2.999.24 3.15-.025.902-1.569-2.081-1.428-1.181-1.862 3.907-1.884 3.635-.014 6.921-.956 7.299-2.09.469-1.406 3.392-1.657 9.2-.786 5.86.88 8.114 1.944 7.231 3.415-.831 1.387-.265 1.315 1.608-.204 1.944-1.574 3.273-1.722 4.059-.45.642 1.04.512 1.934-.29 1.989-.803.054 2.192 1.543 6.655 3.31 8.221 3.253 10.819 3.249 10.819-.014 0-.992-.948-1.217-2.109-.5-1.419.877-1.733.321-.958-1.697.633-1.651.28-3-.788-3-1.094 0-1.421-1.352-.75-3.101.655-1.704.611-2.521-.096-1.814-.708.707-2.277-.128-3.489-1.858-2.367-3.38-2.585-7.037-.375-6.3 2.426.808 1.349-2.16-2.45-6.762-2.049-2.48-3.251-3.579-2.676-2.443.577 1.136-.254 2.566-1.847 3.177-2.061.79-2.596.332-1.857-1.594.57-1.486.458-2.582-.25-2.434-4.151.869-11.476-4.124-9.516-6.486 2.754-3.318-8.166-7.153-15.282-5.368-2.715.681-6.651 1.426-8.747 1.653-7.138.774-7.411.929-4.708 2.676 2.101 1.358 1.573 1.755-2.36 1.776-2.786.015-4.647.704-4.137 1.53.511.827-.252 1.503-1.696 1.503-1.445 0-2.626-1.082-2.626-2.405 0-1.322-1.013-2.202-2.254-1.953-1.238.249-2.03-.624-1.758-1.937.272-1.314-.337-1.875-1.352-1.245-1.017.627-1.848.28-1.848-.769 0-2.25-8.019-2.223-14.426.049Zm12.327 39.36c-2.413 1.898-6.782 3.804-9.71 4.237-5.32.786-5.32.786.645 1.057 3.464.156 5.5 1.026 4.853 2.073-.614.992.198 1.803 1.803 1.803 1.853 0 2.423-.822 1.563-2.254-1.015-1.689-.631-1.668 1.536.089 1.944 1.574 3.273 1.722 4.059.451.642-1.041 2.743-1.892 4.669-1.892 3.738 0 3.947-2.964.472-6.719-2.881-3.115-4.737-2.899-9.89 1.154ZM568.857 1556.27c-.022 3.69-.447 4.29-1.675 2.35-1.358-2.14-2.498-2.21-6.517-.38-2.678 1.22-5.305 1.78-5.839 1.25-.532-.53.026-.97 1.241-.97s1.704-.82 1.084-1.82c-1.461-2.36-6.016.83-12.805 8.98l-5.214 6.26 7.212-5.26c3.967-2.89 6.2-4.12 4.959-2.74-3.812 4.25-2.692 7.04 2.454 6.11 3.127-.57 5.586.23 7.326 2.37 1.894 2.34 2.878 2.61 3.556.98 2.339-5.62 4.142-1.13 4.708 11.72.411 9.36.734 6.1.978-9.92.198-13.14-.044-23.89-.54-23.89-.495 0-.914 2.23-.928 4.96Zm348.587 71.34c-.503.82-1.851 1.12-2.995.68-2.903-1.11-6.498 3.16-4.87 5.8 1.329 2.15 28.284 3.24 30.3 1.22.52-.52-.42-3.03-2.089-5.58-3.051-4.65-17.818-6.19-20.346-2.12Zm-406.712 15.2c10.164.32 26.8.32 36.965 0 10.164-.32 1.848-.58-18.483-.58-20.33 0-28.647.26-18.482.58Zm333.706.01c21.142.28 55.222.28 75.733 0 20.513-.29 3.215-.53-38.438-.53-41.653 0-58.435.24-37.295.53Z" clip-rule="evenodd"/><path fill="#111F22" fill-rule="evenodd" d="M576.078 28.227c-58.682 32.72-116.805 65.697-121.279 68.804-2.762 1.918 1.05 4.102 28.4 16.264 17.373 7.725 31.59 14.656 31.59 15.403 0 .744-2.795 5.508-6.212 10.586s-8.43 16.191-11.14 24.698c-8.702 27.316-17.902 36.694-43.52 44.358-53.563 16.025-77.79 66.163-56.725 117.404 9.558 23.252 7.42 30.695-12.036 41.869-35.849 20.594-45.776 38.464-46.024 82.863-.181 32.347-.861 33.977-20.383 48.931-43.889 33.616-49.005 98.97-10.816 138.16 23.324 23.935 67.46 45.517 85.56 41.84 2.249-.458 5.915-1.2 8.147-1.655 4.03-.817 4.057-1.049 4.155-34.711.196-68.726 27.976-179.065 55.16-219.095 18.234-26.851 52.766-48.711 102.315-64.77 23.256-7.537 23.609-8.015 24.779-33.432 1.03-22.356 1.538-21.196-13.195-30.064-12.86-7.738-25.998-21.561-32.286-33.968l-4.362-8.61-7.84 1.074c-15.21 2.085-26.396-7.364-26.396-22.294 0-11.753 9.358-20.325 22.188-20.325 5.865 0 6.559-.745 15.521-16.679 12.372-21.992 14.599-23.829 31.977-26.374 17.736-2.596 25.97-7.93 35.799-23.186 8.453-13.12 8.392-13.095 12.158-5.195 6.054 12.692 26.568 29.889 35.723 29.945 7.919.047 18.922 10.341 27.619 25.837 7.555 13.463 9.445 15.654 13.524 15.659 11.551.016 23.639 14.341 20.994 24.878-1.953 7.781-12.289 16.588-19.465 16.588-5.833 0-6.641.728-11.45 10.326-5.801 11.58-21.636 28.409-31.814 33.81-7.456 3.958-7.714 5.124-6.772 30.563.795 21.449 2.625 24.424 17.391 28.259 105.498 27.403 189.974 136.601 190.019 245.626l.008 17.703 5.86-4.095c52.153-36.451 56.082-88.683 9.908-131.723l-14.867-13.859v-26.712c0-37.19-7.512-51.794-37.011-71.95-21.229-14.505-23.169-20.689-14.379-45.822 6.643-18.993 7.132-34.348 1.623-51.127-6.74-20.531-18.154-32.002-50.238-50.488-15.92-9.171-20.159-16.927-21.602-39.506-1.689-26.483-5.696-34.069-29.86-56.538-10.276-9.557-19.637-19.678-20.803-22.491-1.165-2.815-2.642-4.998-3.28-4.854-2.051.467-16.319-4.477-16.187-5.61.398-3.415-.64-3.961-3.351-1.763-1.763 1.43-2.51 1.57-1.768.335.883-1.471-1.371-2.535-7.231-3.415-5.808-.871-8.731-.62-9.2.786-.379 1.134-3.664 2.076-7.299 2.09-5.089.022-5.988.456-3.908 1.884 2.249 1.544 2.097 1.809-.901 1.569-6.34-.508-8.358.076-7.13 2.063.658 1.064-.512.869-2.598-.435-4.369-2.726-5.121-5.503-1.071-3.949 1.879.722 2.407.215 1.7-1.628-1.078-2.807 3.412-5.714 10.064-6.518 1.269-.154 1.249-1.38-.064-3.832-1.062-1.983-1.343-3.606-.625-3.606.717 0-.437-1.623-2.566-3.607-4.146-3.862-22.053-5.326-22.053-1.803 0 .992-2.889 1.803-6.417 1.803-3.819 0-5.967.73-5.303 1.803.613.992-.199 1.804-1.804 1.804-1.604 0-2.416-.812-1.803-1.803.613-.992-.151-1.804-1.697-1.804-2.513 0-3.601-2.07-3.045-5.795.104-.709-1.012-.826-2.481-.261-1.47.564-2.148 1.877-1.504 2.917.689 1.114.303 1.358-.941.588-1.162-.718-1.645-2.06-1.073-2.983 1.015-1.642-1.861-2.254-9.094-1.934-4.695.207 5.514-4.55 12.821-5.974 4.54-.886 4.412-.707-.995 1.38-4.833 1.865-5.531 2.655-3.156 3.566 1.7.653 3.051.312 3.051-.768 0-1.068 1.277-1.45 2.835-.853 1.559.598 4.603.148 6.761-1.003 3.664-1.953 3.746-1.871 1.223 1.201-2.222 2.707-2.25 3.143-.155 2.45 6.682-2.208 8.127-8.802 1.727-7.881-5.202.75-5.429.646-1.572-.723 6.407-2.272 14.425-2.3 14.425-.049 0 1.05.832 1.396 1.848.768 1.016-.629 1.625-.068 1.353 1.246-.272 1.313.519 2.186 1.758 1.937 1.241-.247 2.254.631 2.254 1.953 0 1.323 1.181 2.405 2.625 2.405 1.445 0 2.207-.676 1.697-1.504-.51-.825 1.351-1.514 4.137-1.529 3.932-.021 4.461-.418 2.36-1.776-2.703-1.747-2.431-1.902 4.708-2.676 2.095-.227 6.032-.972 8.747-1.653 7.115-1.785 18.035 2.05 15.282 5.368-1.96 2.362 5.364 7.355 9.515 6.486.709-.148.821.948.251 2.434-.739 1.926-.204 2.384 1.857 1.594 1.592-.611 2.424-2.041 1.847-3.177-.576-1.136.62-.036 2.657 2.443l3.706 4.508 5.918-3.332c3.255-1.834 13.424-7.38 22.597-12.328l16.679-8.995.213 10.526c.119 5.788.119 11.132 0 11.875-.117.743.801 1.354 2.041 1.354 1.679.002 2.024-3.332 1.353-13.073l-.902-13.074-48.685-24.74C649.395 11.827 627.072.671 626.567.641c-.507-.03-23.227 12.384-50.489 27.586Zm42.07 68.421c3.474 3.755 3.265 6.719-.473 6.719-1.925 0-4.026.851-4.668 1.891-.786 1.272-2.115 1.124-4.059-.45-2.167-1.757-2.551-1.778-1.536-.089.86 1.432.29 2.254-1.564 2.254-1.604 0-2.416-.811-1.803-1.803.648-1.048-1.388-1.917-4.852-2.074-5.965-.27-5.965-.27-.646-1.056 2.929-.433 7.298-2.339 9.71-4.238 5.154-4.053 7.009-4.27 9.891-1.154Zm-45.162 80.596c-7.671 1.823-14.921 6.688-14.921 10.012 0 3.611 5.252 3.362 9.464-.448 2.029-1.835 6.542-3.17 11.012-3.253 10.147-.191 13.684-2.356 9.204-5.633-3.63-2.654-5.985-2.762-14.759-.678Zm66.542 3.095c.424 2.199 2.692 3.15 8.204 3.433 4.191.214 10.376 2.095 13.746 4.178 7.303 4.513 13.019 1.392 7.023-3.837-8.482-7.399-30.216-10.232-28.973-3.774Zm-68.719 20.172c-5.059 9.452-.519 23.378 6.86 21.037 5.981-1.899 5.097-23.207-.999-24.076-2.485-.353-4.645.767-5.861 3.039Zm80.42-2.177c-2.732 2.732-1.275 22.325 1.747 23.485 5.31 2.037 8.738-2.02 9.326-11.038.708-10.869-5.583-17.939-11.073-12.447Zm-36.902 24.493c.528 11.075 8.971 17.523 11.807 9.015.44-1.321-.801-2.254-3.006-2.254-3.305 0-3.756-1.081-3.756-9.015 0-6.935-.644-9.016-2.791-9.016-2.278 0-2.692 2.068-2.254 11.27Zm82.581 10.305c0 5.44 7.188 8.61 10.195 4.497 3.021-4.133.15-8.041-5.907-8.041-3.06 0-4.288 1.016-4.288 3.544Zm-207.964 311.41c-2.469 2.466-1.017 3.482 5.559 3.887 8.964.556 17.88 3.533 26.146 8.733 3.72 2.34 6.762 3.792 6.762 3.229 0-.564 1.96 1.252 4.354 4.034 4.346 5.051 7.839 4.932 5.87-.2-1.56-4.064-15.976-13.928-18.784-12.851-1.345.517-1.998.214-1.45-.673 2.278-3.685-25.022-9.594-28.457-6.159Zm224.752 14.209c-6.838 3.518-14.833 8.312-17.765 10.656-9.514 7.602-3.327 6.856 11.176-1.35 7.779-4.4 15.97-8.571 18.201-9.269 3.862-1.206 5.844-6.433 2.44-6.433-.891 0-7.213 2.878-14.052 6.396Zm-134.895 24.945c-3.967 1.109-8.024 2.519-9.016 3.13-.992.611-6.266 2.517-11.72 4.235-5.455 1.717-14.877 5.051-20.937 7.41-13.15 5.115-41.547 10.298-51.899 9.472-8.435-.675-10.73 2.338-3.314 4.349 4.304 1.167 27.21-.669 34.713-2.782 17.418-4.907 79.261-25.932 79.28-26.952.032-1.857-8.412-1.297-17.107 1.138Zm183.436 19.454c-4.236.948-7.319 2.34-6.854 3.094.467.754-1.749 1.383-4.921 1.399-13.136.065-28.755 2.922-25.607 4.685 5.592 3.128 49.589-5.579 49.589-9.815 0-1.754-1.992-1.65-12.207.637ZM550.096 801.298c-1.478 61.816-3.752 111.388-5.175 112.811-.939.94-26.513-18.306-64.176-48.292-20.064-15.978-19.033-16.465-21.598 10.206-9.752 101.42-5.282 320.777 10.618 521.117 2.047 25.78 4.103 48.7 4.57 50.92l.847 4.05 61.668-.44 61.67-.44 2.379-21.64c2.335-21.26 15.027-111.13 25.718-182.12 8.039-53.37 21.065-151.31 27.024-203.17l2.005-17.46-13.592-42.95c-15.807-49.944-28.353-97.577-26.072-98.985 2.952-1.825 4.681.9 7.774 12.256 6.514 23.925 19.804 68.515 29.436 98.772 5.525 17.357 10.262 35.037 10.525 39.287.264 4.25 6.178 24.94 13.145 45.98 46.572 140.65 70.455 236.7 82.142 330.36 1.61 12.89 3.345 26.81 3.858 30.93 1.245 10.01.563 9.91 61.286 9.52l50.987-.33 1.193-14.65c5.332-65.54 7.381-209.93 3.518-248.16-.552-5.45-2.201-22.09-3.667-36.96-6.715-68.12-19.725-134.66-43.363-221.792-8.437-31.1-18.744-64.557-20.448-66.382-1.397-1.497-74.552 27.289-103.298 40.645-8.702 4.043-16.141 7.025-16.531 6.627-4.192-4.283-42.439-141.624-42.54-152.757-.065-7.036-2.2-7.646-16.294-4.64-16.812 3.585-50.838 2.375-69.519-2.472l-12.809-3.325-1.281 53.484ZM797.95 1594.73c.105 26.25.833 42.79 1.857 42.15.927-.57 1.685.16 1.685 1.62 0 1.47 1.015 3.15 2.254 3.74 1.24.59.427.73-1.804.32-2.23-.42-4.057-.02-4.057.88 0 .96-46.776 1.63-113.314 1.63H571.256l-1.215-36.39c-1.228-36.75-1.742-40.49-4.895-35.68-1.499 2.28-2.085 2.2-4.211-.58-1.655-2.16-4.026-2.94-7.178-2.37-5.146.93-6.263-1.85-2.454-6.12 1.933-2.17 1.74-2.17-1.353 0-7.276 5.1-13.37 11.41-12.451 12.9.518.84.006 1.52-1.141 1.52-1.145 0-5.857 3.33-10.469 7.39-21.395 18.83-63.589 32.4-73.066 23.5-11.026-10.36-37.975 7.44-42.212 27.88l-1.463 7.05-29.674.9c-133.874 4.07-25.51 6.31 304.812 6.31 330.324 0 438.714-2.24 304.8-6.31l-29.688-.9-1.668-7.21c-4.554-19.71-33.553-39.74-41.602-28.73-10.435 14.27-57.238-4.74-87.903-35.7-9.594-9.69-17.714-17.62-18.042-17.62-.33 0-3.257-.76-6.504-1.69l-5.902-1.69.173 43.2Zm139.839 35c1.67 2.55 2.609 5.06 2.09 5.58-2.016 2.02-28.971.93-30.3-1.22-1.629-2.64 1.967-6.91 4.87-5.8 1.143.44 2.492.14 2.995-.68 2.528-4.07 17.294-2.53 20.345 2.12Zm-390.093 13.08c-10.164.32-26.8.32-36.965 0-10.164-.32-1.848-.58 18.483-.58s28.647.26 18.482.58Zm372.474.01c-20.511.28-54.59.28-75.732 0-21.141-.29-4.359-.53 37.294-.53s58.951.24 38.438.53Z" clip-rule="evenodd"/><path fill="#7C8C01" d="M544.921 914.109c1.423-1.423 3.697-50.995 5.175-112.811l1.281-53.484 12.809 3.325c18.681 4.847 52.707 6.057 69.519 2.472 14.094-3.006 16.229-2.396 16.294 4.64.101 11.133 38.348 148.474 42.54 152.757.39.398 7.829-2.584 16.531-6.627 28.746-13.356 101.901-42.142 103.298-40.645 1.704 1.825 12.011 35.282 20.448 66.382 23.638 87.132 36.648 153.672 43.363 221.792 1.466 14.87 3.115 31.51 3.667 36.96 3.863 38.23 1.814 182.62-3.518 248.16l-1.193 14.65-50.987.33c-60.723.39-60.041.49-61.286-9.52-.513-4.12-2.248-18.04-3.858-30.93-11.687-93.66-35.57-189.71-82.142-330.36-6.967-21.04-12.881-41.73-13.145-45.98-.263-4.25-5-21.93-10.525-39.287-9.632-30.257-22.922-74.847-29.436-98.772-3.093-11.356-4.822-14.081-7.774-12.256-2.281 1.408 10.265 49.041 26.072 98.985l13.592 42.95-2.005 17.46c-5.959 51.86-18.985 149.8-27.024 203.17-10.691 70.99-23.383 160.86-25.718 182.12l-2.379 21.64-61.67.44-61.668.44-.847-4.05c-.467-2.22-2.523-25.14-4.57-50.92-15.9-200.34-20.37-419.697-10.618-521.117 2.565-26.671 1.534-26.184 21.598-10.206 37.663 29.986 63.237 49.232 64.176 48.292Z"/><path fill="#CCC7B5" fill-rule="evenodd" d="M722.944 458.77c-.674 1.09-.71 8.597-.079 16.679 4.897 62.763 5.687 67.622 10.256 63.053 1.394-1.394 1.42-7.579.089-21.548-1.026-10.777-2.415-28.723-3.087-39.881-1.18-19.593-3.199-24.743-7.179-18.303Zm-223.451 3.759c-2.727 11.375-1.856 74.404 1.033 74.981 2.505.501 3.038-3.734 4.201-33.312.734-18.637 1.472-36.299 1.641-39.247.39-6.809-5.341-8.828-6.875-2.422Zm142.758 226.955c-27.583 13.836-49.399 25.156-48.483 25.156.917 0 4.756 2.454 8.532 5.455l6.863 5.454 4.654-4.307c9.355-8.661 50.685-34.464 74.276-46.372 10.105-5.101 12.947-9.315 6.863-10.179-1.405-.2-25.124 10.958-52.705 24.793Zm168.257 18.165c-34.262 29.772-95.606 44.403-146.051 34.834-17.848-3.386-16.647-4.434-13.664 11.917 1.347 7.389 2.537 12.447 2.645 11.241.133-1.502 2.041-1.113 6.055 1.237 49.042 28.703 110.123 9.571 146.314-45.827 14.483-22.17 14.348-21.784 4.701-13.402Zm-267.77 26.154c-31.523 11.713-67.148 12.932-89.725 3.07-13.861-6.055-10.747.377 7.384 15.251 30.495 25.016 56.808 30.981 81.378 18.445l7.034-3.588.57-18.059c.314-9.934.572-18.003.572-17.931 0 .073-3.246 1.338-7.213 2.812Z" clip-rule="evenodd"/><path fill="#79AEB9" fill-rule="evenodd" d="M569.055 389.922c-10.794 34.199-14.53 65.269-15.864 131.968l-1.033 51.583 8.236 5.668c9.225 6.345 11.36 6.643 22.915 3.182 5.837-1.747 9.261-1.907 12.2-.569 2.831 1.285 6.71 1.253 12.622-.107 4.696-1.082 16.651-2.975 26.568-4.208l18.032-2.245v-65.066c0-35.785.714-80.441 1.587-99.233l1.585-34.168-8.408 7.402c-25.789 22.698-57.527 20.907-72.405-4.088-1.587-2.667-2.598-1.008-6.035 9.881Zm-424.865-6.617c-.46 1.24-1.042 22.07-1.295 46.289l-.459 44.036-10.385 2.357c-16.093 3.653-26.764 10.385-23.876 15.058.805 1.3 3.879.399 9.115-2.668 4.346-2.548 12.999-5.662 19.229-6.923l11.326-2.291.481-45.624.484-45.622 16.647.624c27.217 1.02 35.468 10.244 35.542 39.736.039 15.955 1.455 19.795 5.496 14.925 6.682-8.051-1.329-43.729-11.905-53.015-9.674-8.493-47.867-13.709-50.4-6.882Zm9.458 107.867c-23.817 5.739-41.691 31.014-29.244 41.344 3.067 2.546 3.181 2.24 3.453-9.345.312-13.295 13.181-23.595 33.029-26.435 5.856-.836 8.597-2.084 8.597-3.911 0-3.251-6.428-3.922-15.835-1.653ZM572.49 723.623l-20.736 8.823-.55 7.227c-.532 7.005-.339 7.283 6.311 9.005a1601.69 1601.69 0 0 1 14.975 3.985c43.538 11.839 99.275-5.256 59.128-18.135-15.966-5.122-29.583-12.005-33.797-17.083-3.006-3.622-1.356-4.024-25.331 6.178ZM177.586 828.116c-29.44 8.957-37.92 38.802-46.051 162.067l-1.226 18.597-7.001-14.394c-19.446-39.96-77.006-51.583-108.252-21.862-20.53 19.531-.591 39.256 27.304 27.012 31.434-13.796 57.701 6.494 57.701 44.574v6.33l-7.443-6.72C53.71 1008.57-.043 1038.39 0 1095.1c.054 69.38 81.773 96.34 120.253 39.67 2.979-4.39 3.062-4.04 3.156 13.14l.093 17.64 19.384-.51 19.384-.51 1.374-22.54c.756-12.4 1.973-30.25 2.705-39.67l1.331-17.13 44.177-.45c52.532-.52 47.117-3.14 55.08 26.67 3.565 13.35 8.249 30.76 10.411 38.69l3.931 14.43 16.25.51c27.338.86 27.163 2.09 9.07-63.83-47.418-172.74-86.386-264.678-115.63-272.798-7.887-2.189-7.207-2.175-13.383-.296Zm438.18 60.623c0 3.638 8.57 34.115 11.701 41.606 1.329 3.182 1.945 6.259 1.368 6.834-.577.577-.101 1.049 1.055 1.049 1.158 0 2.105 2.46 2.105 5.467 0 3.008 1.175 8.282 2.612 11.721s2.045 6.266 1.353 6.28c-.693.017-.368.624.723 1.353 1.091.728 2.768 3.72 3.727 6.646.959 2.927 2.202 4.55 2.761 3.607.897-1.515-5.606-26.139-8.789-33.271-.664-1.487-1.419-4.468-1.679-6.623-.259-2.154-2.959-13.431-5.999-25.058-3.04-11.627-5.528-21.427-5.528-21.777 0-.35-1.218-.637-2.705-.637-1.488 0-2.705 1.261-2.705 2.803Zm-421.828 17.092c6.523 3.491 14.362 22.826 36.898 91 15.727 47.579 18.612 42.379-23.487 42.379-41.772 0-37.707 5.06-34.298-42.767 6.548-91.806 7.877-97.574 20.887-90.612ZM84.781 1068.08c12.26 7.58 14.52 24.3 5.651 41.83-15.774 31.19-58.718 11.97-51.217-22.92 3.98-18.51 29.248-28.99 45.566-18.91ZM1116.94 1238.4c-7.77 4.23-8.86 9.73-10.83 54.74-1.03 23.48-2.14 43.53-2.48 44.56-.33 1.03-11.3 6.66-24.38 12.52-33.17 14.86-41.18 26.82-27.26 40.74 7.98 7.98 47.99-3.77 78.94-23.19 10.82-6.79 20.82-104.65 12.36-121.01-5.41-10.45-16.2-13.88-26.35-8.36Z" clip-rule="evenodd"/><path fill="#CDE801" fill-rule="evenodd" d="M1174.56 298.627c-10.03 6.757-13.42 15.468-17.71 45.46-24.56 171.688-44.74 205.981-69.69 118.452-14.87-52.157-23.31-63.411-45.94-61.236-31.86 3.062-31.96 28.53-.47 120.228 57.32 166.863 136.62 101.437 169.18-139.578 6.29-46.53 6.67-66.455 1.46-74.831-7.98-12.801-24.71-16.659-36.83-8.495Z" clip-rule="evenodd"/><path fill="#F1EEE5" fill-rule="evenodd" d="M714.233 77.801c-9.584 15.505.143 57.229 13.171 56.504l10.977-.611v-27.682c0-15.225-.607-28.06-1.352-28.521-.745-.463-1.109 11.661-.813 26.939l.539 27.782H714.94v-26.898c0-19.83.592-27.136 2.254-27.807 1.625-.654 1.655-.948.107-1.051-1.182-.078-2.563.526-3.068 1.345ZM586.973 250.77c.779 18.372 38.72 24.784 54.324 9.179 10.412-10.411 10.141-10.532-23.728-10.532-16.859 0-30.628.61-30.596 1.353Zm-22.597 109.399c-83.975 27.087-107.633 52.992-135.16 148.002-18.086 62.426-30.311 165.43-20.363 171.579.745.459 1.352 2.553 1.352 4.652 0 7.037 13.099 30.48 22.295 39.902 8.134 8.334 8.994 9.986 8.581 16.475-.851 13.389-5.399 38.485-9.205 50.808-2.081 6.735-4.265 16.86-4.854 22.498l-1.071 10.253 16.47 12.125c9.059 6.668 16.483 13.428 16.497 15.02.023 2.4.305 2.459 1.641.348 1.264-1.998 6.019.939 22.061 13.626 60.039 47.483 60.5 47.797 61.775 41.792.882-4.163 4.703-110.315 4.67-129.793l-.016-10.204-9.348 4.509c-24.71 11.919-48.025 6.091-80.496-20.127-17.39-14.039-20.585-21.347-6.741-15.411 39.679 17.007 78.896 7.494 183.846-44.594 30.637-15.208 57.008-27.398 58.602-27.091 6.623 1.275 2.015 6.318-13.33 14.591-20.919 11.277-57.954 34.064-64.914 39.939-7.188 6.067-4.557 8.15 19.797 15.673 64.079 19.797 132.262 9.181 172.306-26.822 10.799-9.709 11.068-8.76 1.877 6.61-35.592 59.513-90.738 80.953-144.054 56.004-16.236-7.598-15.695-2.324 7.964 77.535 20.565 69.416 17.239 63.044 29.639 56.761 17.786-9.014 102.232-42.81 142.367-56.978 29.669-10.472 30.56-19.203 6.61-64.713-22.382-42.528-31.845-76.291-24.763-88.339 69.006-117.381-7.162-288.737-148.203-333.418-24.049-7.62-22.495-8.32-22.664 10.201-.08 8.678-1.007 29.977-2.06 47.333-1.053 17.355-1.855 59.955-1.785 94.666l.127 63.11-16.775 2.006c-26.972 3.225-42.395 7.054-82.124 20.39-50.867 17.074-79.645 20.601-81.23 9.955-.356-2.387-3.179-4.36-8.877-6.205-10.001-3.238-13.239-7.362-9.932-12.656 1.902-3.046 1.825-3.83-.464-4.708-3.71-1.423-3.709-13.033.002-14.456 2.034-.783 2.458-2.597 1.63-7.004-1.415-7.542 3.186-10.943 18.721-13.832 8.004-1.487 11.123-2.905 11.76-5.339 2.301-8.799 31.202-.874 46.819 12.837 3.673 3.224 6.677 7.27 6.677 8.992 0 2.431 6.492 7.316 9.723 7.316.296 0 1.06-22.922 1.698-50.94 1.649-72.234 5.744-101.862 19.943-144.253 4.236-12.644 7.229-22.923 6.651-22.844-.577.081-6.73 1.98-13.672 4.219Zm165.657 100.669c.596 2.232 1.098 8.899 1.11 14.815.015 5.918.942 22.002 2.06 35.742 2.08 25.56 1.08 32.167-4.09 26.997-2.036-2.035-6.787-51.091-6.901-71.243-.063-11.141 5.354-15.514 7.821-6.311ZM506.567 478.87c-3.472 60.889-3.365 59.888-6.427 60.474-4.885.933-5.42-64.263-.645-78.506 4.001-11.935 8.173-1.294 7.072 18.032Zm249.846 72.354c0 1.709 3.119 2.74 10.024 3.312 13.798 1.145 24.231 14.763 18.917 24.691-1.263 2.36-1.295 3.932-.096 4.674 3.475 2.147 1.765 8.042-3.449 11.897-2.893 2.138-5.619 5.261-6.057 6.94-1.439 5.498-41.556 14.485-64.793 14.514l-8.488.011-3.759-13.073c-2.069-7.191-4.988-17.017-6.488-21.835-3.396-10.9-2.218-12.514 16.802-23.012 9.65-5.328 15.7-7.445 22.229-7.779 4.934-.25 9.501-.99 10.152-1.639 2.364-2.365 15.006-1.271 15.006 1.299Z" clip-rule="evenodd"/><path fill="#CDE801" fill-rule="evenodd" d="M716.938 77.755c-1.344.449-1.998 9.49-1.998 27.563v26.898h21.732l-.498-27.232-.498-27.233-8.37-.33c-4.603-.182-9.27-.032-10.368.334Z" clip-rule="evenodd"/><path fill="#C87A5A" fill-rule="evenodd" d="M614.868 139.414c-4.782 15.067-21.599 27.233-42.378 30.656-16.676 2.748-16.03 2.21-29.01 24.164-10.557 17.855-10.741 18.044-17.936 18.416-14.847.762-23.975 12.633-19.977 25.976 3.175 10.599 10.659 14.921 23.69 13.684l9.959-.945 4.099 8.933c5.577 12.157 21.05 28.371 34.361 36.006l11.003 6.311.019 20.168c.02 20.342-1.572 28.4-6.314 31.978-27.461 20.704 16.459 54.976 49.094 38.311 18.241-9.317 36.707-39.067 24.248-39.067-3.794 0-6.326-11.362-7.099-31.86l-.83-21.945 7.741-3.949c10.698-5.458 25.61-20.866 31.507-32.556 5.642-11.183 7.025-12.405 14.1-12.443 13.402-.072 21.249-17.224 13.288-29.038-3.933-5.835-7.036-7.52-17.891-9.703-3.915-.788-6.356-3.83-12.397-15.441-8.74-16.798-11.881-19.656-28.661-26.068-14.58-5.572-26.535-15.439-32.635-26.939-4.84-9.123-6.292-9.968-7.981-4.649ZM589.62 180c0 3.02-1.515 3.759-9.317 4.544-5.13.515-10.866 2.338-12.765 4.057-6.3 5.701-13.251 2.964-9.634-3.794 4.78-8.931 31.716-13.013 31.716-4.807Zm76.257.335c11.11 8.262 6.057 14.436-6.365 7.779-3.7-1.984-9.735-3.606-13.41-3.606-7.598 0-10.09-2.46-6.67-6.582 3.28-3.954 19.932-2.436 26.445 2.409Zm-85.401 17.824c5.73 5.733 2.485 26.018-4.164 26.018-4.976 0-8.33-5.638-8.33-14.003 0-12.904 5.916-18.591 12.494-12.015Zm80.309-.198c3.816 4.596 4.456 16.629 1.153 21.67-6.158 9.397-13.715 3.583-13.715-10.548 0-12.532 6.569-18.347 12.562-11.122Zm-39.961 21.274c.373 5.82 1.347 8.549 3.049 8.549 3.718 0 5.126 3.402 2.647 6.39-2.642 3.181-9.229 3.43-12.197.462-2.301-2.301-3.031-21.611-.9-23.744 3.565-3.565 6.874.167 7.401 8.343Zm-97.921 13.031c0 3.978-5.606 5.96-8.545 3.021-3.032-3.032-.042-7.821 4.48-7.179 2.66.377 4.065 1.816 4.065 4.158Zm185.378-.671c2.708 4.324.193 8.811-4.941 8.811-5.709 0-9.533-6.18-6.264-10.12 2.741-3.303 8.756-2.6 11.205 1.309Zm-58.255 18.353c0 7.898-20.434 21.111-32.647 21.111-11.897 0-34.873-15.963-31.299-21.746 1.733-2.804 63.946-2.187 63.946.635ZM477.124 550.974c-15.302 2.239-19.135 4.765-19.135 12.613 0 4.436-1.134 7.468-3.421 9.142-4.023 2.944-2.773 12.081 1.652 12.081 1.47 0 2.67.811 2.67 1.803 0 .992-.724 1.803-1.61 1.803-9.091 0-1.147 11.351 10.266 14.667 19.798 5.754 42.046 3.028 78.389-9.609l21.226-7.38-8.604-5.758c-4.734-3.166-12.615-7.11-17.514-8.763-4.9-1.654-10.58-4.564-12.623-6.47-4.147-3.868-21.607-13.006-23.886-12.501-.806.178-2.683-.152-4.171-.73-5.112-1.993-13.54-2.319-23.239-.898Zm262.609.658c-4.71 1.448-8.565 3.368-8.565 4.266 0 .898-5.07 4.207-11.27 7.353-14.053 7.134-26.596 14.437-26.596 15.484 0 11.93 8.231 31.319 13.294 31.314 12.127-.011 38.812-4.191 52.999-8.3 8.197-2.375 16.108-4.317 17.581-4.317 1.473 0 2.678-.811 2.678-1.803 0-.992 1.015-1.599 2.254-1.352 1.282.256 2.506-1.76 2.841-4.681.563-4.919.339-5.085-5.409-3.973-6.118 1.183-4.669-1.275 3.545-6.01 9.504-5.478-3.111-22.867-17.828-24.575-7.342-.853-10.648-2.02-10.648-3.763 0-3.132-3.83-3.04-14.876.357ZM495.635 1454.76c-.469 1.22 3.244 22.32 8.25 46.9 13.881 68.14 7.025 83.86-43.642 100.06-7.967 2.54-9.092 7.2-1.803 7.46 28.596 1.01 52.001-10.33 80.765-39.13 14.007-14.02 19.655-18.49 24.527-19.41l6.329-1.18 4.398-47.31c2.934-31.56 3.788-47.74 2.567-48.61-3.404-2.4-80.442-1.25-81.391 1.22Zm283.768-1.28c-3.879.89-4.27-2.56 3.161 27.82 3.473 14.21 8.22 35.16 10.55 46.56l4.234 20.74 6.129 1.76c3.987 1.14 11.488 7.18 21.456 17.27 22.265 22.54 41.712 34.67 65.197 40.69 20.148 5.16 32.781-1.93 14.751-8.28-47.973-16.89-53.031-27.24-47.214-96.59l4.231-50.42-39.67-.14c-21.818-.07-41.091.19-42.825.59Z" clip-rule="evenodd"/><path fill="#5F6B00" fill-rule="evenodd" d="M1017.45 1022.96c-26.159 5.26-31.401 11.56-28.548 34.29 2.851 22.7 10.325 26.87 38.738 21.65 29.29-5.38 31.7-7.62 31.7-29.36 0-28.36-7.95-33.4-41.89-26.58Zm26.38 15.8c1.52 4.99 1.87 17.56.55 19.7-.67 1.07-9.07 3.36-18.68 5.1-20.91 3.76-22.78 2.68-21.88-12.63l.53-9.02 14.42-2.96c19.54-4 23.89-4.04 25.06-.19Zm-771.969 353.46c-14.575 11.32-3.345 35.49 14.903 32.07 13.706-2.57 18.614-21.58 7.9-30.6-6.58-5.54-16.73-6.19-22.803-1.47Z" clip-rule="evenodd"/></svg>