<svg xmlns="http://www.w3.org/2000/svg" width="234.667" height="165.333"><defs><clipPath id="a" clipPathUnits="userSpaceOnUse"><path d="M-78 122.169h192v-192H-78Z"/></clipPath></defs><path d="M0 0v52.338l46-26.17Zm102.322 68.806c-2.024 7.622-7.988 13.624-15.56 15.661C73.037 88.169 18 88.169 18 88.169s-55.037 0-68.762-3.702c-7.572-2.037-13.536-8.039-15.56-15.661C-70 54.992-70 26.169-70 26.169s0-28.822 3.678-42.637c2.024-7.622 7.988-13.624 15.56-15.662C-37.037-35.831 18-35.831 18-35.831s55.037 0 68.762 3.701c7.572 2.038 13.536 8.04 15.56 15.662C106-2.653 106 26.169 106 26.169s0 28.823-3.678 42.637" clip-path="url(#a)" style="fill:#fff;fill-opacity:1;fill-rule:nonzero;stroke:none" transform="matrix(1.33333 0 0 -1.33333 93.333 117.559)"/></svg>
