<svg xmlns="http://www.w3.org/2000/svg" viewBox="0 0 161.98 113.387"><defs><clipPath id="a"><path d="M-133.144 145.782H416.88v-255.118h-550.024Z"/></clipPath></defs><path d="M0 0v36.446l31.562-18.223Zm70.353 47.464a15.218 15.218 0 0 1-10.741 10.74c-9.474 2.539-47.464 2.539-47.464 2.539s-37.989 0-47.463-2.539a15.215 15.215 0 0 1-10.74-10.74c-2.539-9.474-2.539-29.241-2.539-29.241s0-19.767 2.539-29.241a15.215 15.215 0 0 1 10.74-10.74c9.474-2.539 47.463-2.539 47.463-2.539s37.99 0 47.464 2.539a15.218 15.218 0 0 1 10.741 10.74c2.538 9.474 2.538 29.241 2.538 29.241s0 19.767-2.538 29.241" clip-path="url(#a)" transform="matrix(1.33333 0 0 -1.33333 64.792 80.99)"/></svg>
