<svg xmlns="http://www.w3.org/2000/svg" width="1204" height="1656" fill="none"><path fill="#E1FF01" d="m447.374 375.335 92.546-24.483 124.864 6.855 38.683 13.221 82.263 446.571H463.533l-16.159-442.164Z"/><path fill="#C8C8DB" fill-rule="evenodd" d="M1098.32 525.413c9.25.161 24.68.162 34.27.001 9.6-.161 2.02-.292-16.83-.293-18.85 0-26.7.131-17.44.292Z" clip-rule="evenodd"/><path fill="#878796" fill-rule="evenodd" d="M351.834 219.626c0 16.159.134 22.906.298 14.995.164-7.912.165-21.133 0-29.379-.163-8.248-.297-1.775-.298 14.384ZM53.685 1237.14c9.414 9.43 17.338 17.14 17.608 17.14.269 0-7.214-7.71-16.628-17.14-9.415-9.42-17.338-17.13-17.608-17.13-.269 0 7.214 7.71 16.628 17.13Z" clip-rule="evenodd"/><path fill="#111F22" fill-rule="evenodd" d="M627.569 3.409a1725.022 1725.022 0 0 1-14.69 6.688C590.222 20.292 471.953 74.076 449.332 84.47a307736.972 307736.972 0 0 1-66.798 30.692c-10.616 4.876-21.468 9.635-24.114 10.575l-4.813 1.709-.607 6.425c-.334 3.534-.61 31.214-.614 61.512l-.007 55.087h4.581l.646-31.583c.355-17.372.646-44.746.647-60.833l.002-29.249 2.204.497c3.571.804 87.718 30.343 115.728 40.625 13.846 5.083 14.647 5.77 8.994 7.727-18.72 6.481-21.744 28.995-5.966 44.415 4.241 4.144 4.575 4.293 5.594 2.49 10.167-17.988 31.434-12.856 45.479 10.976 7.888 13.382 10.665 10.681 9.939-9.667l-.406-11.395 2.791.973c12.368 4.311 21.412-10.737 14.696-24.452-2.057-4.2-2.379-5.593-1.374-5.927 8.574-2.858 11.26-11.935 7.379-24.94-.333-1.117.02-1.714 1.015-1.714.84 0 5.613-2.125 10.608-4.723l9.083-4.722 4.392 2.349c6.729 3.6 14.902 2.87 24.782-2.213 6.945-3.574 7.714-3.768 9.734-2.451 10.667 6.952 17.258 8.235 26.821 5.22 5.107-1.61 5.311-1.597 10.008.603 4.752 2.226 13.371 2.487 21.676.656 2.065-.457 3.067.256 6.408 4.557 9.329 12.012 19.673 14.693 26.879 6.969 5.224-5.6 7.091-12.744 4.861-18.607-.916-2.409-.715-2.939 1.882-4.971 11.246-8.802 6.112-26.54-8.998-31.086-2.971-.893-1.201-2.052 11.307-7.405 26.795-11.468 79.473-34.387 80.948-35.219 2.163-1.22-7.092-5.354-36.127-16.139-12.658-4.7-48.248-17.984-79.09-29.519C658.66 10.18 633.32.78 633.191.824c-.13.045-2.659 1.208-5.622 2.585Zm78.67 192.842c.336 4.775.621 10.54.634 12.813.024 4.76 1.551 4.882 4.236.338 3.502-5.928 1.513-18.088-3.389-20.711-2.082-1.114-2.089-1.08-1.481 7.56Zm-39.007-.719c-10.285 4.528-10.317 20.386-.037 18.034 3.336-.764 5.464-.57 10.614.965 8.123 2.42 9.499 1.942 9.499-3.299 0-10.697-11.326-19.554-20.076-15.7Zm-69.532 1.919c-11.769 7.269-10.751 21.877 1.233 17.699 2.295-.8 4.189-.689 8.112.476 8.52 2.53 11.658.43 10.286-6.882-1.705-9.089-12.835-15.491-19.631-11.293Zm71.056 26.523c-3.895 3.895-3.852 14.131.077 18.313 4.835 5.147 10.64 1.136 10.64-7.352 0-9.816-5.865-15.813-10.717-10.961Zm-68.142 2.408c-3.549 8.494-.422 18.213 5.861 18.213 9.337 0 8.09-20.432-1.306-21.364-2.749-.273-3.276.092-4.555 3.151Zm-472.5 31.885c-50.554 9.538-81.249 67.438-71.146 134.206 6.564 43.387 30.26 119.724 66.336 213.704 26.299 68.516 67.04 167.661 62.224 151.43-8.98-30.263 11.207-110.811 46.946-187.325l8.262-17.69-2.045-5.386c-2.612-6.879-2.939-7.237-8.496-9.303-3.314-1.232-88.223-35.05-103.719-41.31-2.667-1.077-2.47-5.529.291-6.589.793-.304 6.597 1.596 12.901 4.221 14.741 6.14 92.233 37.312 92.755 37.312.478 0-15.795-47.491-17.026-49.691-.475-.848-15.948-7.849-34.386-15.556-35.339-14.774-36.248-15.227-36.248-18.081 0-4.783 2.636-4.039 35.287 9.956 17.488 7.495 31.852 13.629 31.92 13.63.067.002-.975-2.972-2.316-6.607-1.341-3.636-6.146-16.956-10.676-29.601-9.642-26.91-7.168-23.488-21.566-29.842-67.144-29.636-80.906-37.094-76.523-41.477 2.332-2.332 4.932-1.246 67.267 28.085 10.442 4.914 19.126 8.934 19.297 8.934.172 0-.76-2.849-2.07-6.33-3.536-9.392-26.892-78.401-28.909-85.411-1.703-5.921-1.698-6.087.187-7.794 3.768-3.409 4.702-1.292 20.965 47.544 8.648 25.971 16.016 47.184 16.371 47.141.357-.044 5.557-9.657 11.557-21.364 12.708-24.79 10.977-22.162 14.081-21.383 4.034 1.013-8.408 31.327-20.999 51.167-1.393 2.196 4.713 21.208 25.508 79.427 8.52 23.852 5.825 24.239 20.666-2.966 12.803-23.468 14.265-25.471 17.227-23.615 3.372 2.114 2.14 5.13-12.576 30.786l-14.862 25.91 4.695 14.2c2.581 7.81 4.698 14.843 4.701 15.629.007 1.714-1.209 3.636 11.119-17.588 12.696-21.857 22.358-37.241 32.728-52.105l8.68-12.441-2.051-6.656c-5.997-19.453-51.051-121.488-62.178-140.815-23.559-40.915-65.567-63.64-104.179-56.356Zm405.46 27.743c-.114 4.561 16.198 27.497 27.065 38.057 21.73 21.115 58.24 34.129 95.748 34.129h9.131l.612-3.06c.337-1.683.612-8.274.612-14.647v-11.585l-4.162 1.484c-44.556 15.887-92.148.427-125.426-40.744-1.958-2.424-3.57-4.06-3.58-3.634Zm572.146 240.383c7.95.165 20.95.165 28.89 0 7.95-.164 1.45-.299-14.44-.299-15.89 0-22.39.135-14.45.299Zm-246.051 76.254c-32.019.844-114.084 7.992-124.864 10.876-32.147 8.6-34.751 14.734-70.007 164.962l-4.059 17.297 1.933 3.79c7.177 14.066 4.574 42.911-4.839 53.632l-3.278 3.734 80.277-.638c159.403-1.265 225.751-3.648 235.556-8.46 8.519-4.18 14.836-17.287 12.147-25.199-3.254-9.574-2.618-13.815 7.389-49.211 5.705-20.18 20.456-75.243 26.496-98.912 2.82-11.042 5.44-20.296 5.83-20.566 1.75-1.226 1.07-17.272-.97-22.732-6.87-18.36-12.63-20.543-70.534-26.744-9.026-.967-74.153-2.274-91.077-1.829ZM94.071 790.237c-2.093 2.093-1.436 4.111 7.53 23.14 18.464 39.187 26.108 53.147 44.081 80.51 19.385 29.51 22.441 41.771 19.222 77.123-3.112 34.18.141 43.29 23.629 66.19 17.922 17.47 20.343 21.45 30.741 50.59 13.101 36.72 34.733 68.02 44.432 64.3 3.824-1.47 2.771-3.72-5.471-11.74-11.893-11.56-31.966-47.75-24.737-44.6.48.21 3.958 1.98 7.728 3.93 8.461 4.39 20.631 8.73 32.563 11.61 10.879 2.63 10.314-1.36 4.711 33.33-2.392 14.8-5.734 35.5-7.428 46-5.311 32.91-9.428 57.37-20.116 119.48-5.701 33.12-11.024 64.41-11.829 69.53-4.242 26.98-11.989 73.01-18.954 112.62-4.31 24.51-9.038 51.7-10.507 60.42l-2.671 15.86 2.351 2.5c3.81 4.06 12.783 1.56 12.783-3.56 0-.88 7.193-42.62 18.616-108.02 3.294-18.86 8.787-50.87 12.208-71.14l6.221-36.87 5.328-7.2c7.49-10.13 41.988-63.12 45.661-70.13 2.506-4.79 1.915-6.08 17.364 37.88 39.362 112 35.646 102.9 41.99 102.9 8.838 0 8.587-1.74-6.405-44.43-7.025-20-14.352-40.99-16.284-46.65-4.118-12.06-14.506-39.91-16.991-45.54-.95-2.15-3.094-8.21-4.765-13.46l-3.038-9.53 9.942-16.42c33.935-56.01 72.204-110.83 77.033-110.35 15.948 1.61 14.75 1.25 15.327 4.64.609 3.59 6.148 65.46 9.791 109.38 1.363 16.42 2.914 32.95 3.446 36.72.532 3.77 1.631 15.23 2.443 25.46.811 10.24 2.78 33.37 4.377 51.42 5.477 61.92 7.837 89.65 9.837 115.56 1.863 24.13 6.123 75.64 7.443 89.99.89 9.67 5.738 13.4 11.521 8.85 3.238-2.55 3.271-4.46.639-37.14-10.984-136.39-12.574-155.3-25.043-297.72-.825-9.43-3.244-36.05-5.376-59.16-2.131-23.12-3.875-42.87-3.875-43.91 0-1.71.545-1.82 6.121-1.31 3.367.32 11.189.79 17.383 1.06 17.191.76 44.447 2.5 44.816 2.87.181.18.745 5.78 1.254 12.44.509 6.66 2.9 37.45 5.314 68.42 2.414 30.98 4.625 59.62 4.914 63.66 4.349 60.79 10.44 119.13 13.21 126.53 12.389 33.12 106.825 41.07 142.507 12.01 2.967-2.42 5.395-4.15 5.395-3.84 0 .72-6.459 50.19-8.628 66.09l-1.674 12.27 7.425 4.95 7.427 4.95 8.094-69.13c10.883-92.94 11.124-94.54 18.236-121.51 4.481-17 13.475-62.01 16.046-80.31 3.481-24.77 8.855-81.23 8.902-93.52.031-7.88.46-8.33 8.403-8.88 3.723-.25 18.811-1.37 33.528-2.49 14.716-1.12 26.893-1.89 27.059-1.7.409.46 20.028 38.93 48.11 94.35 17.18 33.91 23.387 47.06 23.562 49.95.131 2.15 2.696 18.9 5.701 37.21 3.005 18.31 7.25 44.32 9.434 57.78 2.184 13.47 9.221 56 15.639 94.53l11.668 70.04-1.157 11.07c-1.388 13.27-3.817 11.03 20.766 19.19 66.536 22.09 163.386 49.48 194.396 54.98 49.25 8.72 82.87-19.08 65.83-54.43l-2.6-5.39-11.28-.22c-38.78-.75-130.49-22.81-140.17-33.72-4.13-4.64-7.9-19.41-8.92-34.88-.54-8.18-.8-9.11-2.65-9.5-1.14-.23-17.48-4.25-36.336-8.92-48.857-12.12-50.734-11.52-64.791 20.75-1.5 3.44-2.961 6.26-3.246 6.26-.571 0-3.319-16.36-14.303-85.2-4.084-25.58-8.466-52.91-9.74-60.72-4.027-24.7-12.024-74.42-19.057-118.5-3.739-23.43-9.24-57.76-12.225-76.3-2.985-18.53-5.315-33.79-5.178-33.91.527-.44 22.543-2.48 22.901-2.12.616.62 8.589 53.61 15.5 103.03 10.117 72.34 11.24 80.03 14.802 101.36 13.128 78.59 18.729 86.06 68.685 91.52 74.298 8.11 92.338-3.05 107.538-66.55 31.79-132.85 32.21-271.03 1-337.92-18.66-40.021-68.05-86.9-123.921-117.637l-12.241-6.734-6.275 2.256c-13.344 4.797-38.009 8.586-73.051 11.22-21.607 1.623-122.745 1.589-150.326-.051-42.363-2.52-91.305-6.975-121.094-11.023-14.307-1.944-15.48-1.961-32.807-.488-27.372 2.327-49.871 3.511-75.75 3.986-12.927.237-28.352.868-34.277 1.404-5.924.537-17.383 1.001-25.462 1.034l-14.69.059-12.731 25.14c-23.808 47.014-43.536 79.843-53.153 88.454-24.875 22.27-64.454 15.21-74.105-13.222-5.383-15.854-1.552-31.739 17.839-73.949 4.824-10.503 10.747-23.504 13.161-28.89l4.39-9.793-13.964-3.636c-26.324-6.854-57.378-19.422-78.333-31.702l-4.169-2.443 7.828 17.422c19.736 43.928 38.844 89.784 43.273 103.848 3.227 10.248 3.906 23.45 2.855 55.545l-.769 23.47-10.283 1.8c-17.506 3.05-15.57 3.89-19.722-8.59-1.971-5.93-5.663-19.81-8.205-30.85-6.091-26.461-7.256-30.04-22.46-69.043a41548.202 41548.202 0 0 1-17.537-45.049c-2.507-6.463-8.102-18.362-12.434-26.441-8.95-16.693-23.729-46.715-27.829-56.534-3.536-8.468-9.332-10.35-9.332-3.031 0 3.349 12.186 29.915 23.077 50.308 12.706 23.792 16.725 32.584 25.722 56.264 4.297 11.311 11.322 29.38 15.611 40.152 10.157 25.519 10.907 27.922 17.732 56.804 3.183 13.47 6.944 27.93 8.357 32.14 1.413 4.21 2.287 8.11 1.941 8.67-.407.66.363.81 2.188.43 25.153-5.25 41.761-7.42 56.93-7.44 19.443-.03 27.695 1.41 66.832 11.6 10.503 2.73 30.114 6.98 43.58 9.44 59.284 10.82 95.172 31.09 95.864 54.13l.109 3.65-4.896.31c-12.779.81-147.86-11.45-188.03-17.06-74.945-10.48-106.043-26.65-89.241-46.42l2.081-2.45-2.545 2.24c-2.631 2.31-3.969 4.48-5.868 9.52l-1.107 2.93-1.331-3.73c-3.528-9.89-10.666-19.73-23.946-32.98-23.311-23.27-26.127-30.5-23.485-60.285 2.522-28.432 1.214-41.597-5.806-58.395-2.9-6.942-5.006-10.467-24.462-40.96-5.638-8.834-14.407-25.116-23.208-43.09-7.781-15.89-15.566-31.755-17.3-35.256-3.22-6.503-5.765-8.256-8.304-5.717Zm208.35 239.753c4.829 9.85 4.86 9.38-.701 10.63-5.292 1.19-5.162 1.43-5.162-9.79 0-11.82.451-11.88 5.863-.84Zm472.368 22.15c49.636 4.86 95.271 23.97 110.81 46.39 3.815 5.51-20.523 8.72-115.048 15.16-12.12.83-24.348 1.7-27.177 1.93l-5.141.43-.005-22.21c-.002-12.21-.29-27.17-.639-33.24l-.636-11.03 11.657.58c6.411.31 18.193 1.21 26.179 1.99Zm-450.411 67.49c15.106 2.03 38.48 4.6 63.012 6.91 7.487.71 10.522-5.5-20.128 41.21-14.437 22.01-31.261 47.83-37.386 57.39-13.173 20.56-11.445 19.87-15.816 6.35-1.954-6.05-8.039-23.88-13.52-39.62l-9.968-28.61 3.972-22.63c2.185-12.44 3.972-23.09 3.972-23.66 0-.66 1.463-.79 4.072-.38 2.241.36 12.046 1.73 21.79 3.04Zm-299.827 1.11c-3.101 1.3-1.011 5.51 7.834 15.79 33.96 39.45 155.743 189.03 170.967 209.98 6.565 9.04 8.042 10.19 11.013 8.6 3.129-1.67 2.173-4.98-3.663-12.7-15.217-20.12-76.492-95.98-123.783-153.26-57.944-70.18-58-70.24-62.368-68.41Zm827.626 1.09c.253.41 2.288 11.32 4.523 24.24 2.236 12.92 6.045 34.88 8.466 48.8 4.901 28.16 4.98 29.98.915 21.06-3.655-8.02-26.488-55.57-36.278-75.54-8.872-18.11-9.419-16.37 5.618-17.84 15.969-1.56 16.227-1.57 16.756-.72Zm-564.433 75.69c0 .56 4.627 14.39 10.283 30.74 5.655 16.34 10.283 30.2 10.283 30.81 0 2.63-44.243 70.59-44.822 68.85-.191-.57.816-7.57 2.237-15.55 4.99-28.02 6.252-35.26 9.787-56.13 4.752-28.06 9.196-53.73 9.877-57.05.523-2.55 2.355-3.85 2.355-1.67Zm251.13 304.49c-12.363 5.01-27.45 39.93-34.098 78.93-2.789 16.36-5.351 13.56 19.964 21.85 182.963 59.87 232.433 66.35 249.613 32.67 7.162-14.04 3.412-35.65-6.408-36.93-63.926-8.33-134.068-26.98-141.037-37.52-2.947-4.45-6.077-18.56-6.824-30.75l-.624-10.21-11.369-2.29c-13.039-2.63-44.667-10.53-56.837-14.2-8.971-2.71-9.384-2.76-12.38-1.55Z" clip-rule="evenodd"/><path fill="#A0B501" fill-rule="evenodd" d="M1078.92 251.824c-14.39 5.142-38.05 38.325-41.28 57.896-.17 1.077-.87 2.96-1.54 4.183-.67 1.223-.96 2.655-.63 3.183.33.527.19.958-.3.958-1.05 0-4.17 11.041-4.94 17.503-1.12 9.357-.58 21.479 1.26 28.526a109.8 109.8 0 0 1 1.1 4.679c.26 1.227 1.83 7.397 3.48 13.71 1.66 6.314 3.22 13.023 3.46 14.908.25 1.885.64 4.749.87 6.365 1.06 7.365 1.3 18.877.46 21.545-.52 1.616-1.09 4.528-1.28 6.47-.39 4.153-3.98 10.669-5.86 10.669-5.56 0-10.3-11.841-16.85-42.111-4.06-18.737-7.16-30.335-8.57-32.073-.55-.673-.71-1.224-.36-1.224 1.37 0-3.43-7.744-6.3-10.16-3.919-3.297-10.233-3.534-14.056-.527-2.533 1.992-6.184 7.749-4.914 7.749.348 0 .071.677-.616 1.507-3.637 4.38-1.749 20.056 3.886 32.279 1.49 3.232 3.269 7.308 3.953 9.059.684 1.751 1.557 3.183 1.941 3.183.383 0 .701.551.705 1.224.005.674 1.273 3.868 2.819 7.1 1.545 3.232 2.907 6.493 3.028 7.247.119.754.797 1.739 1.507 2.189.707.45.997.824.647.832-.36.008.87 4.282 2.74 9.498 3.36 9.412 7.9 25.523 8.78 31.159 1.9 12.164 2.31 21.242 1.2 26.188-.46 2.057-.98 4.938-1.15 6.403-1.65 14.388-17.552 29.489-28.065 26.659-3.753-1.012-11.646-8.607-14.831-14.275-.886-1.575-6.77-12.119-13.075-23.43-23.96-42.979-30.893-50.211-49.103-51.211-18.067-.992-31.175 9.518-34.556 27.707-1.72 9.255-2.417 23.994-1.135 23.994.644 0 .94.374.658.831-.283.457.462 1.881 1.656 3.164 1.193 1.282 2.055 2.684 1.916 3.114-.141.429.408 1.034 1.218 1.345.81.311 1.229.959.93 1.442-.297.482-.074.876.496.876s1.037.578 1.037 1.284c0 .707.827 2.173 1.839 3.259 1.011 1.086 2.143 2.932 2.514 4.102.371 1.17 1.039 2.128 1.483 2.128.443 0 1.084 1.102 1.422 2.448.338 1.347 1.047 2.449 1.574 2.449.529 0 .961.665.961 1.478s.859 2.214 1.909 3.113 1.684 1.996 1.411 2.438c-.274.443-.005.805.597.805.603 0 .823.441.49.98-.333.538-.138.979.432.979.57 0 1.037.63 1.037 1.399s.603 2.002 1.34 2.738c.737.738 1.648 2.312 2.024 3.499.377 1.186 1.122 2.157 1.656 2.157.535 0 .699.441.366.979-.333.539-.172.98.356.98.529 0 1.471 1.542 2.093 3.427.622 1.886 1.564 3.428 2.092 3.428s.73.374.448.831c-.283.457.326 1.732 1.351 2.834 1.027 1.101 1.6 2.27 1.273 2.597-.327.326-.054.593.606.593s.952.404.647.896c-.304.493-.22 1.043.187 1.224.408.181 2.242 3.193 4.076 6.694 1.834 3.501 3.632 6.586 3.995 6.855.362.27 2.267 3.795 4.232 7.835 1.966 4.04 4.454 8.887 5.53 10.773 1.075 1.885 3.124 6.172 4.552 9.526 2.931 6.882 2.24 6.575 17.039 7.594 11.015.759 46.452 5.254 51.412 6.522 14.25 3.639 23.34 17.058 22.93 33.858-.23 9.798-1.46 8.467 12.01 13.006 6.1 2.057 14.03 5.067 17.62 6.69 3.59 1.623 6.78 2.692 7.1 2.377.31-.317.57-.06.57.568 0 .628.33 1.071.74.983.4-.088 6.25 2.489 13.01 5.727 45.38 21.764 88.98 4.765 73.31-28.581-4.55-9.665-31.13-21.947-57.38-26.51-1.51-.262-8.04-1.538-14.5-2.836-6.46-1.298-18.61-3.457-26.99-4.799-19.47-3.118-39.03-11.539-39.1-16.84-.01-.572-.86-1.946-1.89-3.054-13.956-14.979-.31-27.965 23.96-22.796 3.21.682 6.5 1.303 7.31 1.379.82.078 1.92.392 2.45.699.53.307 3.39 1.148 6.35 1.869 6.8 1.654 6.12 1.468 7.83 2.152 2.85 1.135 31.86 10.395 34.28 10.94 1.35.303 5.1 1.15 8.35 1.881 31.39 7.069 77.55-8.733 84.22-28.834 3.57-10.737-3.54-29.544-10.42-27.588-.48.135-.87-.126-.87-.579 0-3.155-9.49-3.93-55.82-4.562-37.81-.516-42.32-.689-45.05-1.72-.8-.305-3.01-1.047-4.89-1.647-18.81-5.986-21.2-24.674-4.24-33.006 6.67-3.272 16.96-3.549 70.45-1.901 35.59 1.098 38.01.351 43.14-13.321 4.92-13.109-2.02-39.758-9.71-37.272-.4.131-.73-.159-.73-.643 0-6.048-28.54-.325-61.7 12.37-.81.31-1.91.626-2.45.703-29.37 4.169-36.69-.119-23.7-13.889 14.28-15.138 31.2-22.047 58.13-23.737 29.51-1.852 40.97-11.099 36.55-29.494-4.62-19.274-21.2-19.97-57.27-2.404-28.72 13.989-30.51 12.956-19.93-11.479 27.9-64.409 31.01-95.037 11.38-111.846-6.91-5.913-17.97-8.03-26.33-5.041ZM926.019 509.271c.673.037 1.224.509 1.224 1.047 0 .539.244.736.541.438.457-.456 3.163 2.104 8.878 8.403.602.664 1.403 2.178 1.779 3.365.377 1.186 1.096 2.158 1.599 2.158.502 0 .913.661.913 1.469s.467 1.469 1.037 1.469c.57 0 .789.403.484.896-.304.493-.22 1.043.187 1.224.408.18 2.283 3.302 4.168 6.938 1.885 3.634 3.784 6.609 4.22 6.61.436 0 .52.442.187.98-.333.539-.112.98.49.98s.846.403.541.896c-.304.492-.188 1.043.261 1.224.964.389 7.58 13.922 10.214 20.894 8.637 22.857 5.098 33.941-9.969 31.219-12.599-2.277-15.319-7.515-28.003-53.919-10.021-36.661-10.179-38.641-2.968-37.028 1.646.368 3.544.7 4.217.737ZM970 847.97c-8.87 4.681-78.708 7.133-235.894 8.286-44.86.33-83.987.902-86.95 1.275-2.962.371-10.895.318-17.628-.118-21.925-1.42-25.836-1.19-43.09 2.532-23.186 5.001-37.475 7.332-53.217 8.679l-13.809 1.183-6.717 6.165c-4.166 3.823-9.571 7.54-14.229 9.786-6.619 3.19-7.221 3.693-5.064 4.226 5.317 1.315 51.075-.568 86.033-3.541 17.327-1.473 18.5-1.455 32.807.489 122.809 16.687 290.489 16.936 342.489.509 16.847-5.322 27.401-23.133 22.503-37.975-1.347-4.082-2.054-4.228-7.234-1.496Zm87.98 597.29c-13.75 5.59-22.87 22.67-21.71 40.63 1.44 22.06 6.05 34.4 14.47 38.72 26.29 13.49 144.91 37.03 144.82 28.75-.11-10.05-66.04-80.06-93.34-99.11-14.13-9.87-32.78-13.66-44.24-8.99Zm-418.901 44.47c-23.484 9.6-26.909 66.35-4.654 77.11 21.588 10.43 83.956 25.24 133.505 31.69 5.625.73 5.631.75-2.866-11.38-40.49-57.81-103.562-106.58-125.985-97.42Z" clip-rule="evenodd"/><path fill="#4F8C99" fill-rule="evenodd" d="M156.335 301.995c-1.452 1.452-1.439 2.061.151 7.59 2.008 6.982 25.372 76.009 28.897 85.373 1.31 3.48 2.242 6.329 2.07 6.329-.171 0-8.855-4.02-19.297-8.933-62.335-29.331-64.935-30.417-67.267-28.085-4.383 4.382 9.379 11.841 76.523 41.476 14.398 6.355 11.924 2.932 21.566 29.843 4.53 12.644 9.335 25.965 10.676 29.6 1.341 3.635 2.383 6.61 2.316 6.608-.068-.001-14.432-6.136-31.92-13.631-32.651-13.994-35.287-14.738-35.287-9.955 0 2.853.909 3.307 36.248 18.081 18.438 7.707 33.911 14.707 34.386 15.555 1.231 2.201 17.504 49.691 17.026 49.691-.522 0-78.014-31.172-92.755-37.312-6.304-2.625-12.108-4.524-12.901-4.221-2.761 1.061-2.958 5.513-.291 6.59a133388.98 133388.98 0 0 0 104.467 41.673c4.432 1.747 5.406 2.951 8.426 10.408 1.247 3.08 2.887 3.753 2.4.986-.052-.294.789-1.481 1.867-2.64 1.186-1.272 1.631-2.523 1.123-3.163-.46-.583-2.935-7.449-5.499-15.259l-4.661-14.2 14.862-25.91c14.716-25.655 15.948-28.672 12.576-30.786-2.962-1.856-4.424.148-17.227 23.616-14.841 27.204-12.146 26.817-20.666 2.966-20.795-58.22-26.901-77.232-25.508-79.427 3.961-6.24 23.493-46.281 23.493-48.159 0-2.085-1.647-3.399-4.263-3.399-.641 0-6.223 9.894-12.405 21.988-6.181 12.093-11.505 21.678-11.831 21.3-.325-.378-7.525-21.62-15.999-47.205-17.398-52.527-17.013-51.671-21.296-47.388ZM77.046 709.278c-59.097 11.237-87.168 91.057-58.062 165.108 8.445 21.487 13.33 29.732 45.501 76.792 17.446 25.52 23.484 40.849 36.168 91.822 29.44 118.32 74.217 169.34 146.449 166.86 22.106-.75 20.542 0 22.437-10.76 2.935-16.66 12.265-74.54 12.907-80.07l.637-5.49-9.177-2.22c-12.042-2.91-24.192-7.24-32.68-11.63-3.77-1.96-7.248-3.73-7.728-3.94-7.229-3.15 12.844 33.04 24.737 44.6 8.242 8.02 9.295 10.27 5.471 11.74-9.699 3.72-31.331-27.58-44.432-64.3-10.398-29.14-12.819-33.12-30.741-50.59-23.488-22.9-26.741-32.01-23.629-66.189 3.219-35.353.163-47.614-19.222-77.124-17.985-27.38-25.613-41.314-44.126-80.605-8.764-18.601-9.618-21.63-6.627-23.504 3.048-1.91 4.941.389 10.924 13.266 13.072 28.138 28.464 57.73 37.063 71.257 4.965 7.81 11.818 18.607 15.23 23.993 15.076 23.805 18.191 39.449 15.005 75.361-2.642 29.785.174 37.015 23.485 60.285 12.983 12.96 20.512 23.22 23.659 32.24 1.313 3.77 2.477 3.83 3.282.17.342-1.57 2.031-4.35 3.749-6.18 1.72-1.84 2.412-2.43 1.536-1.32-15.571 19.72 15.399 35.59 89.731 45.98 40.17 5.61 175.251 17.87 188.03 17.06l4.896-.31-.109-3.65c-.692-23.04-36.58-43.31-95.864-54.13-13.466-2.46-33.077-6.71-43.58-9.44-39.137-10.19-47.389-11.62-66.832-11.6-15.169.02-31.777 2.19-56.93 7.44-1.825.38-2.595.23-2.188-.43.346-.56-.528-4.46-1.941-8.67s-5.174-18.67-8.357-32.14c-6.825-28.882-7.575-31.285-17.732-56.803-4.289-10.773-11.314-28.841-15.611-40.152-8.997-23.68-13.016-32.473-25.722-56.264-10.891-20.394-23.077-46.959-23.077-50.308 0-7.32 5.796-5.438 9.331 3.031 4.101 9.818 18.88 39.841 27.83 56.533 4.332 8.08 9.927 19.978 12.434 26.442 2.507 6.463 10.398 26.735 17.537 45.049 15.204 39.002 16.369 42.582 22.46 69.042 2.542 11.04 6.234 24.92 8.205 30.85 4.152 12.48 2.216 11.64 19.722 8.59l10.283-1.8.769-23.47c1.051-32.094.372-45.297-2.855-55.544-4.363-13.851-22.729-57.975-42.859-102.965-4.069-9.095-7.12-17.028-6.777-17.627.342-.601.293-.797-.108-.436-6.94 6.222-34.046-36.113-40.236-62.842-3.632-15.683-3.982-16.232-21.535-33.806-31.691-31.73-59.513-43.137-90.73-37.202ZM737.59 1060.6c.349 6.07.637 21.03.639 33.24l.005 22.21 5.141-.43c2.829-.23 15.057-1.1 27.177-1.93 94.525-6.44 118.863-9.65 115.048-15.16-18.517-26.72-70.618-45.12-136.989-48.38l-11.657-.58.636 11.03Zm-704.704 38.51c-32.255 7.82-42.77 48.17-22.593 86.71 7.003 13.37 11.97 19.09 45.027 51.86 58.457 57.95 107.508 99.46 162.893 137.87 9.426 6.54 17.61 12.28 18.188 12.76.72.59 1.572-2.38 2.715-9.49l1.666-10.36-3.135-4.94c-1.726-2.72-13.248-21.69-25.605-42.16-12.357-20.47-29.833-49.11-38.834-63.65-9.002-14.55-23.328-37.9-31.837-51.91-48.215-79.36-50.49-82.9-58.243-90.62-14.368-14.31-32.96-20.26-50.242-16.07Zm8.42 35.2c39.106 46.01 147.686 179.4 169.397 208.1 5.836 7.72 6.792 11.03 3.663 12.7-2.971 1.59-4.448.44-11.013-8.6-15.224-20.95-137.007-170.53-170.967-209.98-8.845-10.28-10.935-14.49-7.834-15.79 3.297-1.38 5.71.58 16.755 13.57Zm361.762-3.55c-5.016 5.96-60.838 91.38-61.043 93.41-.122 1.21-1.842 6.34-3.823 11.41-12.936 33.08-5.707 75.33 14.596 85.33 20.742 10.21 56.2-4.18 79.359-32.21 2.673-3.24 5.275-5.62 5.783-5.31.508.31.637.11.289-.46-.35-.56-1.971-16.6-3.603-35.65-5.049-58.88-9.735-110.86-10.289-114.13-.578-3.39.678-3.01-15.393-4.64-3.025-.31-4.05.08-5.876 2.25Zm36.472 1.81c0 1.6 4.061 46.43 8.897 98.2 1.448 15.49 2.008 16.58 4.755 9.24 12.47-33.33 15.822-71.64 8.741-99.9l-1.982-7.9-5.064-.19c-2.785-.1-7.377-.44-10.205-.77-4.649-.53-5.142-.41-5.142 1.32Z" clip-rule="evenodd"/><path fill="#EAE7D9" fill-rule="evenodd" d="M358.683 175.065c0 14.274.137 20.114.304 12.976.167-7.137.167-18.815 0-25.952-.167-7.137-.304-1.297-.304 12.976Zm349.436 38.439c-.549.689-1.157 10.64-1.392 22.769-.229 11.85-.113 18.901.259 15.669.371-3.232.723-13.015.781-21.741.094-14.008.308-15.982 1.821-16.864.943-.549 1.217-1.011.609-1.028-.607-.016-1.543.522-2.078 1.195Zm-349.651 18.544-.213 19.279 3.872 2.176c5.212 2.929 5.45 5.157 6.203 58.052l.208 14.562-10.283-.162c-12.329-.194-38.338-1.85-38.968-2.481-.247-.246 2.057-11.971 5.12-26.054 3.063-14.084 5.343-25.833 5.067-26.11-.277-.276-.77.762-1.096 2.307-1.227 5.818-3.544 16.309-5.379 24.353a1038.04 1038.04 0 0 0-1.966 8.814c-.468 2.155-1.318 5.986-1.89 8.514-2.385 10.539-2.842 10.332 25.932 11.688 28.439 1.338 25.784 3.235 24.852-17.753-.395-8.888-.759-23.922-.809-33.41-.099-18.937-.595-20.671-6.748-23.616l-2.646-1.268-.522-19.085-.521-19.085-.213 19.279Zm-8.047 2.756v13.71h-3.477c-8.233 0-17.263 10.305-17.02 19.423.046 1.709.655.58 1.763-3.264 3-10.409 7.203-14.36 15.512-14.579l4.189-.111.006-14.445c.003-7.945-.214-14.445-.484-14.445-.269 0-.489 6.17-.489 13.711Zm132.226 23.203c-.224 14.757 26.376 26.275 37.739 16.341l3.865-3.379-4.613 3.134c-11.965 8.129-25.618 3.36-34.008-11.878-1.631-2.962-2.973-4.86-2.983-4.218Zm184.435 11.694c-.316 5.466-7.328 14.371-7.998 10.159-.172-1.083-1.147-2.416-2.167-2.962-3.167-1.695.028-4.884 7.272-7.257 1.019-.334 1.594-.866 1.277-1.184-.317-.317-2.647.13-5.178.992-6.153 2.096-17.703 2.875-27.493 1.852l-7.995-.834 1.784 3.469c7.613 14.794 29.38 17.259 38.469 4.357 2.697-3.828 4.697-11.172 3.042-11.17-.475 0-.931 1.16-1.013 2.578Zm-137.158 20.924c-.026 4.579.265 12.952.648 18.608.68 10.059.695 10.112.735 2.448.021-4.309-.271-12.682-.649-18.607-.687-10.771-.687-10.771-.734-2.449Zm159.867 18.132c-4.394 6.378-14.163 15.676-18.793 17.883l-3.277 1.562.194 10.836.193 10.837.542-10.481.54-10.481 4.636-3.066c5.15-3.407 16.784-15.522 18.976-19.761 2.197-4.247 1.058-3.238-3.011 2.671Zm-157.75 32.676c.044 13.957.066 14.095 2.492 15.544l2.449 1.463-2.181-1.835c-2.031-1.709-2.202-2.769-2.493-15.544l-.311-13.711.044 14.083Zm-37.776 23.085c-.622.622-32.903 6.971-43.085 8.474l-8.435 1.245 4.579 6.427c28.407 39.869 47.717 96.316 71.382 208.655.76 3.607.946 3.873 1.027 1.469.055-1.616-.37-4.632-.945-6.702-.575-2.071-.856-3.955-.623-4.187.232-.232 42.292-.414 93.466-.403 65.707.013 93.959-.3 96.161-1.068 3.989-1.39 3.821-1.67 4.846 8.022.632 5.96.735 2.129.372-13.779-.299-13.15.196-40.398 1.229-67.574 2.825-74.342 1.122-111.173-5.999-129.729-.412-1.075.078-1.524 1.732-1.584 2.122-.078 2.085-.151-.447-.912-1.516-.454-3.279-1.224-3.917-1.71-2.043-1.552-11.787-3.346-16.341-3.007l-4.407.327-.228 4.407c-2.525 49.071-26.257 64.864-91.239 60.72-17.341-1.107-20.736-1.73-47.597-8.739-28.019-7.31-43.58-24.681-43.58-48.646 0-10.239-3.81-15.847-7.951-11.706Zm154.36 7.902c-10.056 4.81-22.159 6.755-38.102 6.121-7.817-.311-10.912-.209-7.927.261 11.973 1.884 32.095.461 40.92-2.895 5.565-2.115 11.378-5.009 11.962-5.953.762-1.233 1.231-1.403-6.853 2.466Zm142.758 33.036c3.347 2.712 3.524 3.588 17.847 87.889 5.719 33.665 12.265 71.967 14.546 85.117l4.147 23.91 52.598.084c28.928.046 52.597-.014 52.597-.132.003-4.75-44.317-83.166-60.425-106.912-1.866-2.75-2.266-4.681-2.34-11.262-.074-6.645-.238-7.423-1.007-4.76-1.377 4.77-2.305 4.11-12.174-8.674a15296.86 15296.86 0 0 0-11.657-15.074c-9.638-12.438-44.768-46.518-47.951-46.518-.651 0-2.451-1.322-3.999-2.938-1.549-1.616-3.283-2.936-3.856-2.933-.573.003.18.994 1.674 2.203Zm-450.99 9.44c-12.086 10.57-36.003 35.014-38.85 39.705-.842 1.388-2.348 2.784-3.348 3.101-1.272.403-1.656 1.19-1.281 2.625.376 1.438-.867 3.96-4.177 8.475-66.336 90.474-120.749 238.945-106.227 289.848.974 3.415-1.163 1.797-3.52-2.665-1.075-2.036-1.925-2.887-1.949-1.952-.024.91.397 1.928.936 2.261.538.333.979 1.203.979 1.933 0 .731-4.737-3.397-10.528-9.174-10.493-10.468-10.498-10.472-1.662-1.141 13.451 14.201 15.967 17.657 17.063 23.435 10 52.731 32.457 74.671 100.415 98.104 46.421 16.006 133.504 26.083 184.889 21.394 42.956-3.92 61.619-32.354 55.226-84.138l-.79-6.389 4.217-1.708c2.319-.94 3.335-1.53 2.258-1.313-1.077.218-2.684.696-3.569 1.062-1.359.562-1.715-.3-2.28-5.521-1.275-11.773-7.459-25.935-16.587-37.984-4.727-6.238-5.486-7.838-5.552-11.706-.083-4.773-.091-4.763-2.45 2.7-.267.847-2.564-.653-6.533-4.263-21.447-19.515-52.53-35.089-83.162-41.666-8.299-1.781-7.882-.752-6.742-16.669 2.581-36 .508-73.97-6.867-125.759-13.737-96.48-22.214-125.784-42.684-147.55l-5.218-5.547-12.007 10.502Zm760.187 73.563c6.61.768 26.1 1.238 25.38.613-.22-.196-7.46-.581-16.07-.855-9.31-.297-13.09-.198-9.31.242Zm2.75 102.016c2.08.833 20.23.789 24.18-.059 1.62-.346-3.53-.625-11.45-.618-7.91.006-13.64.311-12.73.677Zm-81.95 68.131c-1.05 4.102-19.64 75.305-20.26 77.612-.34 1.236 1.18 1.469 9.62 1.469 12.15 0 19.02 2.652 26.13 10.084 2.43 2.533 3.78 3.724 3.02 2.647-.76-1.077-2.87-3.54-4.67-5.473-2.89-3.099-3.1-3.665-1.77-4.773 1.77-1.465 2.16-19.345.63-28.502-.49-2.927-1.42-8.847-2.06-13.156-.64-4.309-1.51-9.157-1.94-10.773-.42-1.616-1.34-6.243-2.04-10.283-.7-4.105-2.29-8.998-3.59-11.092-2.3-3.7-2.67-7.792-.91-10.208.57-.775.51-1.224-.17-1.224-.58 0-1.48 1.653-1.99 3.672ZM608.962 776.255c-1.885.333 2.276.605 9.248.605 6.972 0 11.379-.278 9.793-.619-3.66-.786-14.562-.778-19.041.014ZM297.586 1031.81l-.049 9.13 3.183-.67c4.988-1.05 5.044-1.69.857-9.89l-3.942-7.71-.049 9.14Zm825.944 122.58c0 13.2.14 18.59.31 12 .17-6.6.17-17.4 0-24-.17-6.6-.31-1.2-.31 12Zm-892.779 56.98c2.07.83 24.134.79 28.052-.05 1.587-.34-4.449-.62-13.414-.62s-15.553.3-14.638.67Zm302.558 200.09c.585 1.08 2.643 3.48 4.572 5.34 3.431 3.3 3.51 3.54 3.605 11.26.054 4.34.449 11.41.88 15.72.758 7.59.771 7.51.393-2.36-.216-5.6-.408-12.65-.428-15.67-.035-5.22-.275-5.73-5.061-10.86-2.763-2.96-4.545-4.51-3.961-3.43Zm517.961 16.01c-.42 6.66-.56 12.31-.31 12.55.63.63 1.93-19.16 1.46-22.19-.21-1.35-.73 2.99-1.15 9.64Zm-417.092 47.89c-.594 17.32-.695 16.71 2.386 14.46 1.971-1.44 2.011-1.59.307-1.09-1.911.55-1.952.19-1.615-14.11.191-8.08.145-14.68-.102-14.68s-.686 6.94-.976 15.42Zm513.662 142c3.63.18 9.58.18 13.22 0 3.63-.19.66-.35-6.61-.35-7.28 0-10.25.16-6.61.35Z" clip-rule="evenodd"/><path fill="#E5AA96" fill-rule="evenodd" d="M713.182 558.472c-.001 10.772.142 15.313.318 10.09.175-5.223.176-14.037.001-19.587-.174-5.549-.318-1.276-.319 9.497Z" clip-rule="evenodd"/><path fill="#CC7966" fill-rule="evenodd" d="M408.601 651.504c-.001 9.157.146 13.035.328 8.617.181-4.417.182-11.909.001-16.649-.179-4.738-.328-1.125-.329 8.032Z" clip-rule="evenodd"/><path fill="#5F6B00" fill-rule="evenodd" d="m711.143 378.517 2.083 9.739c3.763 17.593 4.966 47.048 3.514 85.99-2.566 68.819-2.317 127.003.605 141.617.55 2.748.571 2.755 3.563 1.208 12.093-6.254 28.482-8.575 95.916-13.583l8.569-.637v-2.773c0-1.525-1.564-11.952-3.476-23.171l-7.394-43.412c-22.506-132.181-20.793-123.618-25.535-127.594-11.663-9.775-64.225-30.077-77.872-30.077-.302 0-.289 1.212.027 2.693Zm-279.438-1.024c-21.71 3.746-75.408 23.671-75.408 27.98 0 .516 2.313 3.444 5.141 6.507 13.793 14.938 23.592 41.876 31.021 85.28 15.046 87.903 19.234 135.163 16.406 185.105l-.805 14.214 11.721 3.115c29.364 7.807 53.969 20.154 74.502 37.391 7.951 6.673 7.992 6.671 10.216-.38 11.685-37.048 19.784-98.439 16.379-124.152-9.734-73.483-40.889-175.921-66.198-217.659-11.35-18.717-12.092-19.279-22.975-17.401ZM323.136 888.255c-27.935 60.601-30.635 67.124-33.027 79.818-10.309 54.707 55.106 70.137 85.941 20.27 34.643-56.029 52.994-95.436 44.441-95.436-14.116 0-62.318-5.454-82.802-9.368-11.518-2.201-11.337-2.26-14.553 4.716Z" clip-rule="evenodd"/><path fill="#BC4B37" fill-rule="evenodd" d="m437.58 375.864-3.427.758 3.917-.153c5.621-.22 13.635 10.884 27.101 37.551 3.672 7.271 6.678 12.761 6.681 12.199.022-4.744-27.625-51.72-30.159-51.243-.376.071-2.227.47-4.113.888Zm276.572 191.91c0 9.426.147 13.282.327 8.569.18-4.713.18-12.425 0-17.138-.18-4.713-.327-.857-.327 8.569Zm-235.44 158.067c0 .269 2.094 1.928 4.652 3.687 2.558 1.759 7.808 5.948 11.665 9.31 5.084 4.433 7.259 5.788 7.908 4.929 1.151-1.524 3.463-9.567 2.909-10.121-.232-.232-.984 1.584-1.671 4.038-1.722 6.152-1.857 6.144-9.887-.564-7.479-6.25-15.576-12.113-15.576-11.279Z" clip-rule="evenodd"/><path fill="#844734" fill-rule="evenodd" d="M619.885 146.905c-.621.621-1.129.823-1.129.451 0-.373-2.901.861-6.447 2.742-3.546 1.881-7.292 3.42-8.325 3.42-1.032 0-1.877.379-1.877.842 0 1.578-8.065.272-12.803-2.072-2.599-1.286-4.462-1.866-4.141-1.289.32.578.001.51-.71-.149-1.267-1.174-7.727 1.713-8.626 3.857-.181.43-.732.533-1.224.228-.493-.304-.896-.086-.896.484s-.33.965-.735.876c-1.513-.331-6.121 1.388-6.121 2.283 0 .512-.44.659-.979.326-2.094-1.294-2.784.618-1.41 3.908 3.704 8.863.907 17.002-7.744 22.534-1.346.862-1.218 1.499 1.067 5.301 6.304 10.486.451 25.548-9.927 25.548-5.86 0-9.583 3.414-6.78 6.217 1.078 1.079.342 11.48-1.198 16.936-1.985 7.03-3.773 7.332-7.075 1.198-3.916-7.281-12.168-18.638-14.43-19.863-1.077-.584-2.191-1.369-2.476-1.745-2.337-3.098-15.68-6.038-17.084-3.766-.318.515-1.162.713-1.875.44-1.795-.688-9.551 5.42-11.356 8.944-.817 1.596-1.791 3.04-2.165 3.209-.373.17-.453.897-.178 1.614.276.719.045 1.59-.513 1.935-.558.344-.753 1.929-.434 3.523.358 1.792.066 3.532-.766 4.557-.933 1.151-.968 1.433-.113.918.941-.565 1.21.613 1.127 4.954-.124 6.549.2 8.366 1.844 10.347.648.782 1.274 2.558 1.388 3.945.115 1.388.507 2.34.869 2.116.671-.415 2.183 3.306 1.944 4.784-.072.444.322.528.873.187.553-.341 1.022-.264 1.044.172.022.436 1.402 2.335 3.067 4.22 1.665 1.885 2.695 2.831 2.288 2.102-.714-1.279 4.262 1.42 5.378 2.917.269.361 3.205.591 6.525.512 3.32-.079 5.847-.336 5.614-.569-.383-.388 5.096-3.202 6.631-3.406.938-.125 2.265-1.568 2.408-2.617.067-.493.177-1.365.244-1.935.068-.57.526-.788 1.019-.484.493.305 1.123 0 1.402-.676.311-.751.769-.372 1.177.973.369 1.213 1.046 2.204 1.505 2.204.459 0 .558.771.219 1.713-.338.943-.252 1.384.193.981.444-.403 1.571 1.435 2.504 4.085 1.905 5.409 6.081 11.853 11.197 17.278 1.887 2 3.431 4.042 3.431 4.538 0 .494.441.628.98.295.538-.333.979.082.979.921 0 .839.413 1.527.918 1.527.504 0 3.038 2.184 5.631 4.853 5.764 5.937 14.971 12.906 16.115 12.199.462-.285.84-.071.84.477 0 1.311 8.123 6.044 10.71 6.239 1.111.084 2.021.453 2.021.819 0 .901 12.149 5.715 15.466 6.128 1.459.182 4.59.872 6.958 1.533 2.368.661 5.122.988 6.119.728.998-.261 2.05-.092 2.338.374.58.937 26.635.597 31.306-.408 11.166-2.402 22.035-6.092 22.035-7.48 0-.686 3.484-1.999 4.319-1.627.197.087 1.322-.943 2.5-2.29 1.179-1.346 1.819-1.787 1.423-.979-.895 1.822-.774 1.705 5.037-4.897 2.608-2.962 5.127-5.265 5.597-5.117.471.148.596-.153.277-.668-.318-.515.2-1.517 1.151-2.228.952-.71 1.865-1.951 2.029-2.759.165-.808.929-1.953 1.698-2.546.771-.591 1.114-1.363.763-1.714-.35-.35-.098-.637.562-.637s.929-.441.596-.979c-.333-.539-.113-.98.49-.98.602 0 .822-.44.489-.979-.333-.539-.112-.979.49-.979s.823-.441.49-.98c-.333-.538-.138-.979.431-.979.57 0 .986-.33.922-.734-.381-2.414.259-5.168 1.084-4.659.554.343.719-.05.385-.922-.321-.836-.11-1.52.47-1.52.579 0 .799-.661.49-1.469-.311-.808-.03-1.469.625-1.469.654 0 .94-.647.637-1.437-.304-.79-.19-1.662.254-1.935.442-.275.592-1.61.332-2.97-.26-1.359-.057-2.471.451-2.471s.73-1.323.493-2.938c-.237-1.616-.003-2.938.52-2.938.524 0 .817-1.763.654-3.918-.165-2.178.142-3.917.691-3.917.622 0 .765-2.183.386-5.888-.332-3.237-.311-6.358.045-6.935.814-1.316 1.195-62.585.389-62.585-.325 0-.612-3.558-.638-7.906-.032-5.092-.493-8.316-1.296-9.059-.97-.896-1.082-.862-.504.156.409.72-1.62-.34-4.508-2.355-7.063-4.927-10.241-7.423-9.693-7.612 1.813-.622-4.369-6.179-6.645-5.974-1.443.131-3.421.282-4.396.335-1.077.059-1.497.541-1.073 1.228.385.621.301.887-.186.589-.488-.298-3.751-.682-7.252-.853-4.342-.212-7.455-.975-9.793-2.4-3.676-2.24-4.744-2.282-9.304-.363-4.796 2.019-14.179 1.842-17.871-.336-1.751-1.033-3.184-1.598-3.184-1.254 0 .344-.992-.31-2.204-1.452-3.383-3.19-5.185-3.929-6.46-2.654Zm56.086 47.419c.779-.299 1.556-.182 1.725.261.17.444 2.023 1.961 4.118 3.373 2.095 1.412 3.517 2.568 3.16 2.568-.357 0-.03.991.726 2.203 2.298 3.682 4.011 11.897 2.255 10.812-.569-.352-.733.037-.391.927.877 2.288-2.659 2.812-7.434 1.101-5.148-1.843-12.579-2.809-10.45-1.357 1.069.727.559.825-1.865.36-2.15-.413-3.118-.289-2.724.349.376.608-.334.81-1.836.523-4.184-.8-6.353-12.959-2.572-14.411.708-.271 1.109-.828.891-1.235-.219-.407.415-1.513 1.407-2.455.991-.942 1.803-1.532 1.803-1.31 0 .223 1.653-.399 3.672-1.382 2.574-1.254 4.035-1.489 4.884-.786.667.553 1.85.759 2.631.459Zm-65.953 3.532c4.845 3.265 7.761 8.105 7.744 12.853-.027 7.072-.695 7.297-14.676 4.926-1.346-.229-4.317.081-6.603.687-5.325 1.413-7.107.115-7.107-5.176 0-12.433 11.207-19.649 20.642-13.29Zm-2.525 24.771c6.767 1.83 7.429 20.927.784 22.595-8.788 2.205-13.607-13.516-6.537-21.328 1.746-1.93 2.604-2.119 5.753-1.267Zm68.621.193c3.572 2.456 5.288 13.182 2.86 17.877-4.585 8.866-13.211 4.086-13.211-7.319 0-9.249 4.934-14.281 10.351-10.558Zm-6.549 43.228c3.572 2.262-2.872 15.95-8.367 17.769-1.703.564-3.36 1.712-3.682 2.55-.411 1.074-1.309 1.345-3.024.914-1.342-.337-2.439-.215-2.439.27 0 1.122-7.621 1.272-8.306.165-.28-.455-1.392-.596-2.468-.314-1.138.297-1.958.03-1.958-.639 0-.634-.4-.904-.891-.601-1.265.782-4.102-.465-3.452-1.517.298-.482-.298-.877-1.323-.877s-2.704-.991-3.73-2.203c-1.854-2.189-1.853-2.194.144-.735 1.104.808.549.143-1.235-1.478-1.784-1.62-3.436-3.936-3.668-5.145-.233-1.209-.695-2.637-1.026-3.174-.554-.896 2.588-1.522 4.899-.975 2.874.68 22.034.361 22.034-.368 0-.471 1.322-.592 2.938-.269 1.616.323 2.938.205 2.938-.262 0-.468.684-1.113 1.52-1.434.872-.334 1.265-.17.922.385-.678 1.096.789 1.329 1.827.291.373-.374 1.658-.827 2.857-1.008 1.198-.181 2.325-.758 2.504-1.281.4-1.166 1.217-1.184 2.986-.064Zm-137.104 25.555c-.104 2.424-.287 6.712-.406 9.53-.136 3.26.146 4.901.778 4.511.665-.411.768 4.731.315 15.597-.427 10.23-.324 16.428.278 16.8.528.326.858 4.284.738 8.842-.12 4.537.088 8.06.463 7.828.374-.231.958.301 1.296 1.183.338.882.882 1.338 1.206 1.013.815-.814 6.219 2.081 6.219 3.332 0 .556.44.739.979.406.539-.333.979-.113.979.49 0 .602.404.846.896.541.493-.304 1.06-.059 1.262.544.201.603 1.624 1.236 3.165 1.404 1.539.17 3.168.89 3.62 1.602.451.712.827.91.836.441.008-.47.606-.364 1.329.236.723.599 1.604.801 1.958.447.355-.355.645-.084.645.602 0 .707.637 1.003 1.469.683.808-.309 1.469-.106 1.469.452 0 .569.861.741 1.958.393 1.168-.371 1.959-.177 1.959.481 0 .607.41.85.912.54.501-.31 1.193-.109 1.536.448.344.556 1.055.746 1.58.421.525-.324 1.607-.048 2.404.613.797.662 1.73.924 2.071.583.341-.341 1.206-.135 1.922.46.716.593 1.968.824 2.783.511.815-.312 1.482-.203 1.482.245 0 .446 1.102.602 2.448.345 1.355-.26 2.449-.009 2.449.56 0 .566 1.101.829 2.448.584 1.346-.243 2.448-.023 2.448.49 0 .514 1.074.739 2.386.501 1.312-.237 2.661.013 2.997.557.36.582 2.259.725 4.619.348 2.598-.415 3.794-.293 3.398.347-.817 1.323 22.092 1.124 23.065-.2.439-.598.725-.48.735.303.009.759.502.98 1.21.542.658-.406 2.453-.643 3.989-.526 1.915.146 2.57-.146 2.085-.93-.503-.816.037-.957 1.888-.492 1.656.416 2.594.252 2.594-.452 0-.606.661-.849 1.469-.539.808.31 1.469.15 1.469-.354s.616-.682 1.37-.392c.754.289 1.661.055 2.017-.521.355-.575 1.501-1.046 2.547-1.046 1.046 0 1.901-.467 1.901-1.037 0-.57.441-.765.979-.432.539.333.98.113.98-.489 0-.603.394-.851.876-.554.483.299 1.14-.144 1.462-.983.322-.839.983-1.28 1.469-.979.486.3 1.147-.14 1.469-.98.322-.839.92-1.371 1.327-1.181 1.052.488 7.099-5.985 6.143-6.576-.433-.268-5.572-.493-11.418-.501-12.275-.017-20.717-.549-23.005-1.45-.879-.345-3.807-.712-6.506-.812-2.699-.102-4.722-.493-4.494-.869.603-1-6.156-2.09-7.564-1.22-.817.505-.941.329-.392-.559.582-.942.355-1.126-.828-.671-.896.343-1.63.197-1.63-.324 0-.522-.33-.877-.734-.791-.405.087-2.022-.371-3.596-1.018-1.575-.649-3.471-.944-4.213-.659-.744.285-1.082.082-.753-.45.511-.828-.765-1.195-3.08-.885-.344.046-.895-.289-1.224-.746-.331-.456-4.428-2.704-9.106-4.996-16.828-8.244-30.945-20.906-42.848-38.431-3.468-5.106-6.7-9.553-7.184-9.883-.483-.329-.884-.99-.891-1.469-.065-4.166-2.695-5.412-2.872-1.359Zm477.209 446.632c-1.26.504-3.24.698-4.41.433-4.07-.924-13.29 22.164-15.834 39.659-.118.808-.484 2.13-.814 2.938-10.961 26.833-7.34 52.418 7.08 50.022.75-.125 1.654.242 2.008.814.414.672 1.675.747 3.54.212 1.59-.457 3.89-.465 5.09-.019 1.38.51 2.2.436 2.2-.197 0-.556.77-.915 1.71-.801.94.116 3.25-.477 5.13-1.319 1.88-.841 3.82-1.281 4.32-.976.49.304.58.044.19-.577-.66-1.067.66-1.607 2.85-1.165.54.108.68-.097.32-.457-.36-.359 1.63-2.715 4.41-5.236 2.78-2.521 5.06-5.238 5.06-6.039 0-.8.58-1.333 1.3-1.186.71.148 1.02-.183.67-.734-.34-.552-.15-1.004.42-1.004s.95-.33.84-.734c-.36-1.378 1.31-5.142 2.28-5.142.53 0 .74-.376.46-.835-.64-1.031 1.53-6.999 2.54-6.999.4 0 .5-.616.21-1.37-.29-.754-.12-1.624.39-1.936.5-.31.69-1.743.41-3.182-.33-1.729-.14-2.395.56-1.962.69.428.9-.216.6-1.862-.25-1.383-.15-3.004.22-3.602 1.01-1.64.99-19.283-.02-18.655-.49.298-.66-.612-.39-2.022.3-1.569.11-2.329-.49-1.959-.6.371-.79-.397-.48-1.988.27-1.427.09-2.594-.41-2.594s-.65-.403-.35-.896c.31-.493.15-1.043-.36-1.224-.5-.18-1.05-.936-1.23-1.679-.17-.742-1.2-2.285-2.27-3.428-1.08-1.141-2.75-3.178-3.72-4.525-.97-1.346-1.46-1.852-1.1-1.122.45.913-.15.803-1.92-.358-1.41-.926-2.57-1.98-2.57-2.341 0-.363-.98-.733-2.19-.824-1.2-.09-2.32-.578-2.49-1.083-.17-.505-1.17-.694-2.22-.419-1.05.275-1.91.05-1.91-.501 0-.579-1.67-.84-3.97-.619-2.44.236-3.73.012-3.37-.582.7-1.123.7-1.122-2.29.075Zm-398.116 40.324c.362.586-1.342.819-4.43.605-2.76-.191-5.018-.003-5.018.417.001.421-1.431.766-3.182.766-5.779.001-8.569.416-8.569 1.277 0 .466-.881.618-1.957.337-1.077-.282-2.216-.095-2.531.415-.315.51-1.381.671-2.367.358-.986-.314-2.065-.13-2.397.407-.332.537-1.251.728-2.041.424-.791-.302-1.438-.016-1.438.638s-.633.946-1.405.649c-.774-.297-1.549-.114-1.721.406-.173.52-1.744 1.045-3.489 1.169-1.746.123-3.175.602-3.176 1.063-.001.462-.635.597-1.408.3-.773-.297-1.558-.082-1.744.475-.186.558-1.536 1.084-3 1.169-1.465.085-2.663.533-2.663.994-.001.462-.662.586-1.47.275-.808-.309-1.469-.089-1.469.49 0 .58-.661.8-1.469.49-.808-.31-1.469-.192-1.469.262 0 .455-1.152.827-2.56.827-1.407 0-2.943.606-3.412 1.346-.469.741-.86.962-.869.493-.007-.47-.675-.307-1.483.364s-1.476.835-1.484.365c-.009-.47-.379-.281-.823.419-.444.7-1.76 1.344-2.923 1.433-1.163.087-2.115.553-2.115 1.035 0 .481-.684.613-1.52.291-.837-.32-1.277-.19-.98.29.296.48-.783 1.334-2.398 1.897-1.616.563-2.97 1.377-3.012 1.809-.041.432-.223 1.557-.403 2.499-.18.942.131 1.714.693 1.714.628 0 .829 1.683.525 4.39-.273 2.414-.109 4.15.362 3.859.471-.292.857 4.37.857 10.358 0 5.989-.367 10.661-.816 10.384-.45-.277-.817.137-.817.922 0 .784.383 1.426.851 1.426.469 0 .456.767-.031 1.713-.485.942-.684 2.266-.443 2.938.242.674.003 1.224-.53 1.224-.532 0-.738.882-.457 1.959.3 1.144.03 1.959-.647 1.959-.714 0-.921.753-.538 1.958.342 1.078.193 1.959-.332 1.959s-.705.95-.401 2.112c.376 1.436.193 1.89-.57 1.418-.706-.436-.924-.177-.588.7.294.767-.13 2.059-.944 2.872-.813.813-1.206 1.751-.873 2.085.334.333.092.606-.535.606-.629 0-1.056.331-.949.735.398 1.506-1.348 5.149-2.212 4.615-.494-.305-.636.127-.317.959.32.834.866 1.351 1.214 1.15.347-.202 4.703-.668 9.679-1.037 4.977-.369 10.045-.825 11.262-1.012 1.219-.186 4.348-.632 6.955-.989 2.608-.357 5.628-.821 6.712-1.029 1.084-.209 3.995-.618 6.469-.909 3.811-.449 10.875-1.93 19.293-4.049 2.469-.62 5.023-1.116 14.2-2.757 6.744-1.206 16.641-1.246 42.55-.173 15.891.658 24.203-5.892 25.463-20.071.124-1.393.478-2.941.787-3.44 2.385-3.86.104-27.995-3.288-34.793-.974-1.954-1.497-3.826-1.16-4.162.335-.336-.125-.611-1.022-.611-.898 0-1.534-.33-1.412-.735.121-.404-1.052-2.056-2.608-3.672s-2.501-2.277-2.101-1.469c.401.808-.363.285-1.697-1.161-1.335-1.448-2.693-2.366-3.017-2.041-.325.325-.591.051-.591-.61 0-.66-.405-.949-.9-.644-.495.307-1.487.002-2.203-.677-.717-.677-2.405-1.356-3.752-1.506-1.347-.151-2.587-.677-2.757-1.169-.169-.493-.985-.636-1.812-.318-.828.317-1.894-.039-2.37-.79-.476-.752-.872-.923-.881-.381-.009.571-1.924.835-4.548.626-3.063-.244-4.095-.637-3.183-1.216 1.926-1.22-2.187-1.168-5.441.069-1.382.526-2.513.636-2.513.245-.001-.391-1.533-.762-3.406-.825-1.983-.068-3.158.282-2.815.837Zm347.517 630.451c.333.54.138.98-.432.98-.57 0-1.037.66-1.037 1.47 0 .81.357 1.47.795 1.47.437 0 .691 4.19.566 9.3-.126 5.12.124 9.31.556 9.31.432 0 .858 4.29.946 9.54.216 12.77.467 16.75 1.054 16.64.269-.05 2.252.42 4.407 1.05 7.611 2.22 67.564 16.84 69.074 16.84.4 0 1.04-1.66 1.41-3.68.97-5.23 3.17-9.73 7.77-15.91 3.19-4.29 4.01-6.22 4.01-9.46 0-2.24.26-3.9.58-3.7.33.2.62-1.72.66-4.26.15-11.45.78-20.67 1.45-21.35 2.55-2.54-1.77-3.58-7.1-1.7-1.67.59-31.27.43-41.62-.23-11.45-.73-29.003-3.36-35.85-5.38-7.42-2.19-8.069-2.27-7.239-.93Zm-414.803 13.4c-.506 6.92-.561 21.61-.083 22.35.677 1.05 1.245 13.62 1.316 29.12.025 5.24.397 9.31.828 9.04.43-.26.707 3.82.615 9.08l-.169 9.56 11.263 3.19c24.973 7.09 60.445 15.18 61.197 13.96.23-.37.512-2.4.627-4.51.27-4.9 4.648-13.78 8.79-17.83 2.705-2.65 3.181-3.77 2.987-7.06-.128-2.15.214-3.91.76-3.91.982 0 1.076-2.71 1.044-30.12-.008-7.13.379-12.97.859-12.97.481 0 .756-1.43.612-3.18-.253-3.1-.38-3.18-4.537-3.02-14.375.57-44.247.06-44.918-.77-.27-.33-2.914-.87-5.876-1.19-11.211-1.22-26.192-6.09-32.431-10.53-1.554-1.11-2.851-1.65-2.884-1.21Z" clip-rule="evenodd"/><path fill="#541E2E" fill-rule="evenodd" d="M705.32 226.967c0 7.271.154 10.245.343 6.61.188-3.635.188-9.586 0-13.221-.189-3.635-.343-.661-.343 6.611Zm-176.616 46.028c-.014.808.631 3.632 1.433 6.276.802 2.645 1.529 7.713 1.615 11.263.086 3.55.316 4.912.51 3.027.728-7.083 1.204-8.143 3.008-6.697 1.017.814.785.099-.609-1.89-1.234-1.76-3.074-5.506-4.089-8.324-1.013-2.819-1.855-4.463-1.868-3.655ZM1015.19 1415.62c5.55.17 14.36.17 19.59 0 5.22-.18.68-.32-10.09-.32-10.78 0-15.05.14-9.5.32Zm-410.344 20.56c4.47.18 11.521.18 15.669 0 4.15-.18.493-.33-8.125-.33s-12.013.15-7.544.33Z" clip-rule="evenodd"/></svg>