<svg xmlns="http://www.w3.org/2000/svg" width="534" height="498"><path d="M462.75 308.496c2.297 20.73-2.176 107.973-18.14 122.094-9.317 8.246-20.954 11.383-32.403 14.644-13.207 3.758-26.566 7.18-40.055 9.676-14.851 2.746-29.879 4.887-44.922 6.184-17.964 1.547-36.046 2.941-54.035 2.508-20.836-.5-41.644-2.813-62.418-4.774-27.55-2.605-54.109-9.594-80.257-18.539-20.516-7.02-34.645-25.516-34.961-47.89-.29-20.692-.098-81.551.007-102.856 1.704-2.121 3.45-1.395 5.051-.79 29.172 11.056 59.7 18.052 88.707 29.599 11.031 4.39 21.824 9.285 32.926 14.78a23.07 23.07 0 0 1 2.723 1.54c.722.488 1.004.695 1.683 1.246 14.66 9.191 26.656 7.012 40.223 16.75 16.226 11.648 34.25 14.008 53.379 8.75 12.41-3.406 23.586-9.691 35.094-15.184 28.945-28.804 59.214-37.254 91.433-37.914 5.195-.11 10.367-2.785 15.965.176Zm0 0" style="stroke:none;fill-rule:nonzero;fill:#30555c;fill-opacity:1"/><path d="M417.613 340.363c-39.785.672-77.129 10.094-112.062 29.133-10.254 5.59-21.32 9.317-33.078 9.652-14.938.43-28.176-4.62-39.883-13.91-10.621-8.422-30.403-31.12-48.121-36.933 3.57-4.625 18.93 3.293 12.941 0-6.66-3.668-13.219-7.575-20.555-10.043-7.433-2.5-15.242-3.688-22.46-6.836-9.54-4.156-19.57-6.953-29.262-10.688-5.63-2.172-11.211-4.379-17.258-5.254-1.98-.289-5.078-.66-4.46-3.707.565-2.78 3.397-3.32 5.878-3.004 4.8.618 9.187 2.805 13.879 3.97 27.332 6.765 53.723 16.612 80.64 24.741 11.141 3.364 22.208 7.813 34.598 6.043 6.488-.925 12.488-2.968 18.621-4.726 15.836-4.535 31.559-9.719 47.535-13.473 13.18-3.094 25.832-7.574 38.559-11.723 17.719-5.773 36.043-9.203 53.703-15.105 7.945-2.652 10.668-.723 11.684 7.516.437 3.578 1.59 6.16 5.5 6.796 1.199.2 2.21.942 2.968 2.563.141 14.652.04 28.793.348 43.465.25.746.3.969.285 1.523Zm0 0" style="stroke:none;fill-rule:nonzero;fill:#111f22;fill-opacity:1"/><path d="M419.07 305.973c-7.562 1.175-8.984-3.133-8.914-9.235.047-4.347-2.207-5.304-7.644-3.715-9.524 2.786-19.012 5.723-28.59 8.336-3.578.977-7.352 1.223-11.035 1.797-.875.137-1.813.094-2.63.395-10.706 3.996-21.21 8.637-32.128 11.926-17.621 5.312-35.461 9.93-53.305 14.464-7.512 1.91-15.25 3.016-22.933 4.149-2.184.32-4.637-.258-6.805-.942-12.988-4.086-25.934-8.312-38.899-12.503-13.335-4.31-26.628-8.739-40.015-12.883-6.543-2.028-13.234-3.582-19.899-5.2-1.285-.312-2.77-.027-4.109.231-.547.105-.957.887-1.43 1.355.508.383.965.954 1.54 1.122 10.163 2.933 20.406 5.613 30.492 8.793 4.832 1.523 9.277 4.21 14.058 5.933 5.992 2.164 12.262 3.563 18.196 5.856 8.867 3.433 18.093 6.23 24.468 14.253 3.453 4.348 1.547 5.415-2.957 6.118-.414.027-.375.004-.375.02-.437-.602-.574-1.52-1.84-1.427-11.441-4.64-22.441-9.925-33.855-14.09-12.95-4.726-26.313-8.312-39.41-12.656-9.89-3.277-45.871-15.543-56.082-19.093-.489-.918-.77-1.829-.656-2.68.703-5.192-1.376-7.121-6.668-8.485-12.489-3.214 1.57.907-10.75-2.988-1.665-.527-3.434-.707-5.61-1.156-.32-1.523.512-2.527 1.766-2.871 6.879-1.91 13.472-5.012 21.261-4.945 11.532 2.273 22.114 6.246 32.895 9.57 39.902 12.293 79.695 24.941 119.688 36.93 7.933 2.375 15.98.718 23.828-1.57 41.8-12.184 83.714-23.977 125.562-36.005 33.926-9.75 67.68-20.086 101.68-29.574 2.07-.578 4.16-1.133 6.066-2.16 2.711-1.457 4.531-3.59 4.364-6.832-.168-3.285-2.258-5.2-5.188-6.16-5.965-1.957-12.113-3.278-18.195-4.774-27.149-6.656-54.203-13.687-81.375-20.25-1.922-.46-3.805-1.039-5.89-2.23-5.185-4.313-10.43-7.457-17.071-7.297-6.078.145-10.93-3.77-16.594-5.086-2.805-.652-5.102-1.578-7.305 1.582-1.203.441-1.941.11-2.941-.695-4.39-6.531-11.367-6.508-17.43-7.223-6.886-.812-13.02-1.922-18.687-6.5-4.38-3.535-10.227-4.719-15.906-5.824-4.301-.836-9.344-.93-11.34-6.469 1.597-1.488 3.207-1.36 4.808-1.02 14.336 3.09 28.66 6.215 42.903 9.778 12.832 3.215 25.5 7.016 38.511 9.648 16.993 3.442 33.407 9.454 50.41 12.82 13.336 2.637 26.446 6.223 39.5 9.731 10.84 2.91 21.832 5.43 32.622 8.703 10.336 3.133 19.433 8.055 28.187 14 2.23 1.516 4.414 3.082 6.133 5.782 2.5 12.824-5.719 19.957-17.438 22.933-10.773 2.742-21.468 5.777-32.214 8.625-12.282 3.258-24.579 6.457-36.868 9.684-8.859 2.324-17.714 4.652-26.886 7.254-1.336 4.25-.457 8.328-1.07 12.75Zm0 0" style="stroke:none;fill-rule:nonzero;fill:#111f22;fill-opacity:1"/><path d="M533.91 244.648c-6.8-3.878-13.133-9.043-20.347-12.234-9.336-4.133-19.293-6.941-29.118-9.851-11.707-3.465-23.52-6.59-35.36-9.567-11.019-2.77-22.151-5.074-33.198-7.726-5.516-1.32-10.922-3.106-16.434-4.434-11.902-2.879-23.887-5.418-35.758-8.418-15.687-3.965-31.246-8.414-46.953-12.305-8.262-2.047-16.707-3.347-25.515-4.98-5.329 1.777-9.407-1.516-13.801-2.422-8.43-1.738-16.2-1.988-24.594 1.203-9.14 3.473-18.945 5.274-28.383 8.05-15.117 4.454-30.16 9.157-45.332 13.403-23.422 6.551-46.676 13.696-70.37 19.297-11.817 2.793-23.403 6.586-34.884 10.621-7.96 2.797-16.129 4.8-24.465 6.086-3.554.547-7.082 1.234-10.441 2.496-7.074 2.653-7.773 5.383-2.797 11.64-.324 9.614 5.387 12.333 13.258 14.305 10.652 2.676 21.332 5.614 31.527 10.844-1.37 3.824-5.11 3.453-7.86 4.461-4.5 1.653-9.007 4.172-14.522 2.68-11.711-4.164-23.036-8.203-34.477-11.828-4.703-1.496-7.535-4.473-8.79-8.887-1.952-6.867-2.073-13.844 1.438-20.277 2.918-5.34 8.73-6.309 13.946-7.84a1841.794 1841.794 0 0 1 35.84-10.149c11.804-3.218 23.687-6.136 35.492-9.347 7.89-2.149 15.691-4.61 23.554-6.871 16.95-4.871 33.918-9.696 50.868-14.57 11.906-3.423 23.773-6.989 35.707-10.321 15.945-4.45 31.8-9.426 47.988-12.734 6.285-1.286 13.45 1.027 20.094 2.32 7.941 1.543 15.757 3.734 23.617 5.672a2351.81 2351.81 0 0 1 20.219 5.07c10.046 2.578 20.07 5.23 30.113 7.813a6012.438 6012.438 0 0 0 31.797 8.082c17.937 4.5 35.906 8.902 53.824 13.472 13.289 3.391 26.496 7.125 39.8 10.461a1266.163 1266.163 0 0 0 37.81 8.86c7.277 1.578 14.718 9.097 16.507 17.925Zm0 0" style="stroke:none;fill-rule:nonzero;fill:#111f22;fill-opacity:1"/><path d="M21.992 490.926c-5.664 7.793-13.59 8.512-17.363 1.613-1.168-2.133-1.203-5.129-1.066-7.687 1.007-18.727 2.28-37.438 3.3-56.164 1.114-20.508 2.035-41.024 3.074-61.532.157-3.031.477-6.054.743-9.504 1.855-1.843 3.468-.488 4.96.172 3.829 1.707 8.008 1.613 12.34 2.871 1.25 1.239 1.457 2.446 1.493 4.168a14.698 14.698 0 0 1-.211 1.848c-1.153 4.7-.508 9.012-.559 13.762-1.504 19.996-1.805 39.59-3.512 59.582-1.253 3.86-.832 7.355-.789 11.3-.007 5.31.239 10.145-.289 15.442-1.308 4.066-.715 7.82-1.015 11.953-1.414 4.164-.164 8.066-1.106 12.176Zm0 0" style="stroke:none;fill-rule:nonzero;fill:#79aeb9;fill-opacity:1"/><path d="M57.953 277.781c5.727-1.73 11.195-3.18 16.656-4.636 1.883-.504 3.758-1.028 5.922-1.81 2.899-3.687 7.125-3.417 10.668-4.632 2.469-.844 5.078-1.34 7.961-2.332.676-.164.95-.219 1.633-.328 6.602-2.016 12.941-3.477 19.492-5.688 3.594-.707 6.664-1.77 10.149-2.87 2.261-.563 4.062-1.223 6.296-1.923 24.313-7.023 48.239-13.882 72.504-21.058 2.77-.715 5.184-1.164 7.868-2.176 2.488-.648 4.59-1.164 6.96-2.242 6.282-1.043 11.633-4.395 18.176-3.707 2.114 2.914 1.157 5.516 0 8.512-1.636 2.449-3.8 3.199-6.082 3.836-38.89 10.882-77.61 22.378-116.777 33.832-8.277 1.796-15.473 6.054-24.102 6.441-8.218 2.086-16.054 4.008-24.164 6.242-10.066 2.895-19.863 5.469-29.66 8.047-1.379.363-2.734.797-4.113 1.125-5.102 1.207-8.176 4.031-8.043 9.645.082 3.582-.035 7.171-.07 11.253-2.426 2.653-5.067 2.375-8.153.844-.242-3.75-.18-7.125.016-10.496.785-13.773 5.672-16.219 17.37-19.816 6.4-1.969 12.817-3.867 19.493-6.063Zm0 0" style="stroke:none;fill-rule:nonzero;fill:#ccc7b5;fill-opacity:1"/><path d="M20.285 313.832c2.942-.02 5.465.012 8.457.008 6.945 2.445 12.324 6.277 15.637 12.547 4.047 7.656 3.937 20.883-5.918 29.304-2.266 2.989-5.082 4.293-8.594 5.122-.597.12-.836.152-1.441.082-6.356.933-11.813-.56-17.32-3.668C2.34 350.41-2.126 342.176.991 331.082c2.715-9.68 9.207-15.16 19.293-17.25Zm0 0" style="stroke:none;fill-rule:nonzero;fill:#e1ff01;fill-opacity:1"/><path d="M29.05 360.59c3.02-1.63 5.798-2.934 8.856-4.418-.515 44.32-1.289 88.82-2.125 133.316-.125 6.676-5.191 10.352-10.32 7.414-1.625-.93-2.504-3.168-3.738-5.218-.121-4.043-.223-7.672-.153-11.696 1.442-4.004.325-7.75 1.012-11.82.23-5.45.234-10.488.25-16.023 1.16-3.786.211-7.2.824-10.934 1.309-20.145 2.383-39.883 3.469-60.113 1.266-4.844.164-9.293.84-14.094.234-.414.226-.926.226-1.18 1.098-1.691.293-3.375.86-5.234Zm0 0" style="stroke:none;fill-rule:nonzero;fill:#4f8c99;fill-opacity:1"/><path d="M418.84 306.883c.129-4.586.265-8.672.703-13.074.32 16.902.34 34.117.277 51.832-.375-2.27-.906-5.036-.933-7.801-.11-10.152-.043-20.305-.047-30.957Zm-194.5 38.23c.086-.66.45-1.18.808-1.695.344.703.692 1.41 1.02 2.473-.523.035-1.04-.301-1.828-.778Zm.012-116.36c-2.098.997-3.965 1.673-6.23 2.368-1.595.613-1.888-.219-2.255-1.082-.465-1.105.903-3.297-1.64-3.16-2.012.113-3.336 1.2-3.235 3.465.043.894.031 1.793-.62 2.93-24.325 7.382-48.485 14.43-73.071 21.398-2.875-2.152-4.844-2.672-5.574 1.758-3.485 1.082-6.743 1.875-10.442 2.668-3.367.527-5.476-2.282-8.484-1.836-4.922.726-9.469 1.761-11.168 7.75-.465.324-.664.37-1.172.375-1.516-.63-3.063-.547-4.145-2.196-1.859-6.164.047-9.347 6.914-11.625 6.977-2.304 14.157-3.902 21.297-5.605 1.223-.29 2.606-.27 3.633-.922 7.098-4.48 15.41-4.144 23.168-5.96 11.352-2.657 22.317-6.602 33.516-9.786 11.515-3.277 22.386-8.59 34.195-10.973 2.5-.504 4.86-1.691 6.64-3.414 7.274-7.027 16.18-10.05 25.966-11.234 2.882-.344 5.335-2.047 8.046-2.984 4.18-1.438 8.13-1.422 11.528 1.832 3.02 2.894 6.844 1.687 10.25 1.726 3.133.04 6.258-1.285 9.457-1.766 2.777-.414 4.406-5.625 2.61-9.164-2.395-4.726-4.72-9.43-10.224-11.918-5.093-2.308-9.234-7.738-15.527-5.757-8.933 2.808-18.64 3.453-26.555 9.273-4.902 3.602-11.007 3.79-16.628 5.172-2.536.625-5.305.476-7.633 1.973-6.008 3.859-13.242 3.972-19.711 6.535-12.809 5.078-26.297 7.988-39.649 11.219-13.757 3.332-26.996 8.417-40.734 11.707-8.453 2.02-16.418 6.437-25.504 5.597-.734-.07-1.531-.047-2.012.504-4.296 4.926-10.925 4.996-16.23 7.824-4.418 2.36-9.137 2.996-14.047 1.246-1.617-.574-3.684-1.324-4.848.672-1.12 1.918.442 3.364 1.575 4.727a41.861 41.861 0 0 0 4.496 4.62c.925.825 2.054 1.696 1.523 3.153-.61 1.672-2.18 1.723-3.61 1.617-1.433-.109-2.847-.195-4.663.223-3.723.309-6.852-.406-10.176-1.96-1.3-.716-2.055-1.657-3.602-1.75-1.507-.04-2.55-.372-3.59-1.524-2.066-2.672-5.91-5.992-5.308-7.332 1.273-2.856 4.523-5.79 7.558-6.703 8.126-2.446 16.579-3.797 24.876-5.688 3.445-.785 6.843-1.793 10.238-2.785 18.664-5.461 37.316-10.973 55.988-16.406 12.27-3.575 24.559-7.055 36.856-10.54 13.859-3.921 27.738-7.785 41.593-11.702 14.192-4.004 28.832-6.903 42.434-12.38 14.058-5.663 26.59-2.378 39.957 2.145 4.402 1.844 8.262 4.149 12.437 5.317 6.793 1.898 13.446 3.359 18.98 8.496 2.43 2.254 6.802 2.648 10.395 3.375 5.293 1.078 10.79 1.293 15.98 2.71 2.313.63 4.079 3.278 6.106 5.407-1.906 2.367-3.984 1.117-5.988.676-10.797-2.407-21.484-5.23-32.219-7.86-2.414-.586-4.824-1.418-7.761-.375-1.586.176-2.426-.203-3.012-1.328-.555-1.062.484-3.176-1.422-3.078-.645.035-.129 2.273.047 3.488.867 6.211 5.527 11.735 12.308 12.414 9.067.91 17.254 4.72 26.004 6.5 16.844 3.434 33.594 7.414 50.012 12.36 14.211 4.277 28.922 6.539 42.895 11.816 7.289 2.754 15.367 3.39 22.949 5.563 3.148.902 7.55.941 7.617 5.355.066 4.375-3.582 6.55-7.441 7.324-22.508 4.532-43.942 12.832-66.016 18.89-12.355 3.395-24.48 7.813-36.898 11.177-8.957 2.425-17.82 5.18-27.04 6.582-6.574 1-12.539 4.195-19.015 5.73-15.672 3.7-30.985 8.79-46.649 12.559-.511.12-.957.484-1.804.976-2.164.82-3.942.895-6.133.102-1.934-4.613-1.2-6.762 2.758-7.227 23.472-2.773 45.355-11.773 68.136-17.156 32.997-7.793 65.004-19.035 97.817-27.43 3.168-.812 6-2.32 8.879-3.78 3.012-1.532 3.3-3.802 1.418-6.138-2.914-3.613-5.903-6.949-11.453-6.777-4.414.137-8.973-1.144-13.07-2.625-9.176-3.316-18.95-3.73-28.15-6.61-10.718-3.359-22.007-4.406-32.519-8.726-4.332-1.781-9.187-3.07-14.082-3.082-5.882-.02-8.476 2.113-9.875 7.805-5.898 24.047-21.402 36.156-46.203 36.25-11.836.047-23.586.394-34.922-4.356-6.691-2.8-13.449-.257-19.863 2.172-8.207 3.106-16.238 6.656-24.812 8.785-3.66.91-7.239 1.922-11.04 2.125-3.214.172-6.46.63-9.515 1.66-2.106.708-5.38.626-5.817 3.02-.394 2.164 2.704 2.926 4.348 4.191 2.188 1.676 4.04 3.336.867 6.207-1.48.56-2.566.489-3.949-.19-1.89-2.142-3.031-5.013-6.75-2.856-2.184.613-3.965.543-5.969-.63-.894-.202-.73-1.937-2.156-.757-7.156-1.41-14.2-2.043-20.293-6.54-.223-1.339-.082-2.355.723-2.808 6.074-3.398 11.793-7.758 18.617-9.351 7.476-1.739 15.289-2.696 22.488-5.024 11.64-3.761 24.38-4.3 34.957-11.324 1.2-.797 2.668-1.043 4.094-1.215 9.418-1.152 18.535-1.332 27.73 2.524 19.18 8.043 38.133 6.015 56.372-3.457 9.101-4.727 10.828-17.543 2.98-23.395-6.695-6.351-14.379-9.492-23.441-10.508-1.317-.465-2.274-.644-3.66-.347-2.989.453-5.614.425-8.622.136-1.37-.226-2.351-.48-3.746-.273-1.14.176-1.91.203-3.078.133-8.988-1.04-17.363-.97-24.637 4.773-1.253.988-2.625 1.938-4.16 2.363-5.172 1.434-8.675 4.598-10.761 9.938Zm0 0" style="stroke:none;fill-rule:nonzero;fill:#111f22;fill-opacity:1"/><path d="M307.637 192.719c1.25-4.211 3.66-2.14 5.687-1.649 13.371 3.27 26.735 6.551 40.524 9.77.945.187 1.468.43 2.277.68 4.73-1.344 8.656 1.003 12.758 1.855 7.844 1.617 15.558 3.82 23.355 5.672 1.582.375 3.024 1.047 4.715 2.226 11.36 3.176 22.34 6.184 33.363 8.989 12.918 3.285 25.872 6.398 38.817 9.57 10.523 2.582 21.055 5.152 31.582 7.715 4.734 1.152 9.207 2.91 9.414 8.613.191 5.16-2.965 7.91-7.899 9.29-16.753 4.667-33.464 9.491-50.16 14.378-14.465 4.238-28.867 8.692-43.324 12.965-8.629 2.555-17.312 4.934-25.96 7.434-11.669 3.375-23.313 6.851-34.99 10.187-8.472 2.422-17 4.633-25.472 7.043-11.515 3.273-22.914 7.004-34.527 9.883-11.961 2.969-23.504 8.87-36.254 7.137-6.563-.895-12.98-3.102-19.363-5.032-15.36-4.644-30.672-9.453-45.989-14.246-12.293-3.844-24.539-7.84-36.847-11.633-13.309-4.105-26.664-8.05-39.996-12.086-4.547-1.375-9.075-2.812-14.04-4.27 7.06-2.507 14.547-4.972 22.438-7.437 7.656.442 14.223 3.184 20.942 6.48 6.824 2.247 13.445 4.11 20.464 6.048.578.054.762.039 1.168.176 2.051.636 3.875 1.12 6.102 1.683 2.621-.527 4.574.184 6.738 1.55 1.031.657 1.774 1.04 2.84 1.45 8.066-.754 14.91 2.852 22.023 4.8 17.551 4.798 34.864 10.478 52.665 14.353 1.062.234 2.042.636 3.16 1.703 2.183.425 4.027.574 6.324.664 5.793-2.16 11.57-2.262 17.027-3.809 21.196-6.008 42.387-12.004 63.656-17.68 43.926-11.714 87.278-25.425 131.254-36.933 5.371-1.406 10.582-3.38 16.036-4.512.507-.11 1.039-.164 1.468-.516-.55-.25-1.117.06-1.691-.093-19.274-4.914-38.395-10.383-57.613-15.5-31.157-8.297-62.329-16.535-93.454-24.953-8.128-2.196-16.355-4.02-24.398-6.512-2.48-.77-5.535-1.238-4.82-5.453Zm0 0" style="stroke:none;fill-rule:nonzero;fill:#579aa8;fill-opacity:1"/><path d="M397.262 211.152a253.427 253.427 0 0 1-19.532-3.875c-6.875-1.652-13.683-3.566-20.918-5.554-.476-3.328 1.465-4.594 4.079-3.875 4.273 1.175 8.386 2.922 12.558 4.445 1.649.602 3.66 2.184 4.86 1.707 6.375-2.54 10.535 3.41 16.086 3.832 1.011.078 1.882 1.914 2.867 3.32Zm0 0" style="stroke:none;fill-rule:nonzero;fill:#111f22;fill-opacity:1"/><path d="M41.941 247.922a181.16 181.16 0 0 0 10.235 2.64c15.445 2.56 29.886 7.208 44.558 12.5 1.25.77 2.164 1.278 3.25 2.036-5.988 2.117-12.152 3.98-18.746 5.906-12.558-3.824-24.68-7.758-36.832-11.594-8.816-2.781-8.836-2.719-8.527-12.703 1.168-.11 2.262.258 3.707.672.973-.055 1.566.012 2.355.543Zm0 0" style="stroke:none;fill-rule:nonzero;fill:#579aa8;fill-opacity:1"/><path d="M138.98 276.23c-6.812-1.664-13.539-3.734-20.546-6.128 6.195-2.457 12.629-4.743 19.164-6.684 13.625-4.047 27.297-7.934 40.957-11.844 11.453-3.277 22.945-6.43 34.382-9.765 9.235-2.692 18.422-5.575 27.997-8.551.867-.512 1.421-.649 2.43-.414 7.534 8.719 17.656 9.758 27.66 10.605 7.703.649 15.363-.324 22.78-2.765 9.65-3.176 11.692-5.954 11.579-15.926-.008-.895-.028-1.793.41-3.024 4.766-.3 6.316 2.235 6.578 6.508.781 13.004-1.883 15.946-13.824 21.45-9.746 4.495-19.66 6.265-29.996 5.98-9.25-.254-18.23-2.45-26.559-6.883-1.543-.82-3.633-.844-5.472-.84-5.614.004-11.23.145-16.84.371-1.383.055-3.04.254-4.051 1.055-7.762 6.094-17.363 6.422-26.348 8.633-10.785 2.648-21.793 4.586-32.308 8.039-6.368 2.082-11.965 6.437-17.993 10.183Zm0 0" style="stroke:none;fill-rule:nonzero;fill:#111f22;fill-opacity:1"/><path d="M243.828 233.492c-.89-.195-1.36-.242-2.183-.347 0-2.583.347-5.098.949-8.41 9.004-5.008 18.547-6.731 27.765-9.458 2.985-.879 5.293.758 6.2 3.715.98 3.211-.16 5.781-3.418 6.813-9.524 3.02-18.946 6.41-29.313 7.687Zm0 0" style="stroke:none;fill-rule:nonzero;fill:#ccc7b5;fill-opacity:1"/><path d="M224.563 229.063c-.57-5.313 2.148-8.446 6.964-10.387 3.243-1.309 6.36-3.047 9.305-4.946 7.086-4.574 14.738-4.539 23.023-3.078-.105 2.196-1.898 2.102-3.398 2.457-7.07 1.676-13.473 4.41-17.863 11.145-.297.266-.328.34-.309.375a793.445 793.445 0 0 1-17.722 4.434Zm-122.774 36.289c-.773-3.528-.117-6.606 3.656-7.72 4.985-1.468 10.172-4.01 15.063 1.29-3.363 1.578-7.055 3.058-10.809 4.355-2.457.848-5 1.43-7.91 2.075Zm108.824-31.817c-.406-2.2-1.226-5.058-.148-6.558.969-1.348 4.023-1.2 6.156-1.715.176 1.816.348 3.636.809 5.664-1.938.984-4.172 1.762-6.817 2.61Zm-78.734 23.192c-.016-1.868.336-3.727.687-5.582 1.41.91 2.825 1.82 4.282 3.09-1.508 1.074-3.051 1.788-4.97 2.492Zm122.32 51.148a1101.239 1101.239 0 0 1-42.02-10.293c-11.765-3.129-23.449-6.562-35.507-10.113 2.168-1.598 3.082-2.934-.086-4.684-1.68-.93-3.191-2.176-4.758-3.3-1.078-.77-2.121-1.59-3.18-2.387 1.434-.977 2.75-2.465 4.332-2.844 9.649-2.317 19.422-4.113 29.012-6.621a125.758 125.758 0 0 0 18.637-6.457c9.726-4.258 19.004-5.504 29.422-1.387 12.074 4.774 25.113 3.14 37.66 1.707 14.336-1.64 25.055-9.672 31.937-22.32 1.805-3.313 2.543-7.301 3.305-11.078 1.746-8.602 8.922-12.168 17.27-9.418 9.78 3.222 19.882 5.46 29.855 8.11 4.242 1.124 8.5 2.194 12.742 3.312 8.996 2.359 17.93 5.003 27.004 7.007 5.028 1.11 10.274 1.344 15.434 1.637 3.457.195 12.242 9.05 11.672 12.606-.192 1.203-1.723 2.722-2.97 3.144a1452.205 1452.205 0 0 1-32.952 10.684c-12.414 3.855-24.817 7.757-37.336 11.242-14.746 4.098-29.652 7.613-44.414 11.66-14.93 4.09-29.719 8.672-44.66 12.703-4.938 1.328-10.137 1.844-15.25 2.29-3.051.253-5.414.558-5.149 4.8Zm0 0" style="stroke:none;fill-rule:nonzero;fill:#111f22;fill-opacity:1"/><path d="M97.066 262.918a184.274 184.274 0 0 1-16.918-3.914c-9.015-2.524-17.988-5.215-27.261-8.133.41-.46 1.093-.684 1.797-.773 2.101-.262 4.207-.473 6.308-.703-1.578-1.586-3.164-3.172-4.746-4.762-.25-.25-.48-.531-.742-.778-2.363-2.253-5.465-4.898-2.77-8.03 1.149-1.337 5.09-.196 7.75-.329 3.63-.176 7.813.586 10.75-.965 5.836-3.082 13.864-2.234 17.547-9.332.164-.312 1.043-.527 1.461-.394 9.828 3.09 17.969-3.176 26.88-4.98 8.171-1.653 16.058-4.657 24.089-7.005 9.297-2.718 18.59-5.453 27.926-8.015 9.023-2.48 18.195-4.457 27.125-7.211 7.742-2.387 15.218-5.614 22.86-8.336 1.358-.485 2.976-.2 4.433-.492 1.945-.387 3.847-.98 5.757-1.508.137-.04.25-.418.313-.403 8.262 2.13 12.254-6.652 19.496-7.593 4.586-.598 9.07-2.59 13.41-4.403 4.305-1.793 13.102-.863 16.723 2.18 1.355 1.14 2.742 2.625 4.344 3.024 6.925 1.718 8.68 8.058 11.57 13.082 1.176 2.046.094 5.449-.137 8.222-.367 4.551-3.972 2.32-6.23 2.793-3.227.672-6.5 1.578-9.754 1.57-3.82-.003-7.668.56-10.95-3.449-1.25-1.527-6.538-.023-9.921.54-4.11.679-8.555 1.038-12.102 2.949-5.14 2.773-11.422 2.507-15.89 7.46-3.704 4.11-8.895 6.426-14.993 7.387-6.875 1.078-13.363 4.5-20.105 6.625-13.754 4.336-27.504 8.703-41.395 12.598-5.168 1.445-10.812 1.164-16.039 2.465-4.933 1.226-9.527 3.754-14.41 5.257-6.27 1.93-12.68 3.399-19.027 5.086-5.836 1.536-8.281 4.91-7.149 10.27ZM307.5 192.266c1.703 6.332 7.656 4.937 11.531 6.164 12.906 4.086 26.063 7.418 39.168 10.847 9.235 2.414 18.598 4.32 27.809 6.797 12.238 3.29 24.36 7.035 36.594 10.332 9.207 2.485 18.57 4.403 27.785 6.871 9.34 2.504 18.57 5.422 27.867 8.059 3.39.965 6.867 1.598 10.277 2.508 1.336.363 2.582 1.07 3.871 1.617-1.32.633-2.586 1.484-3.972 1.871-9 2.527-18.04 4.914-27.035 7.426-13.586 3.785-27.149 7.652-40.735 11.457-15.96 4.473-31.95 8.848-47.887 13.394-16.476 4.704-32.878 9.664-49.367 14.32-11.562 3.266-23.172 6.391-34.851 9.223-8.914 2.157-17.97 3.754-27.442 5.532-.008-.754.332-1.914.938-2.075 16.844-4.457 33.738-8.73 50.57-13.222 9.254-2.469 18.39-5.387 27.637-7.899 7.898-2.144 15.926-3.828 23.805-6.031 6.812-1.902 13.48-4.324 20.253-6.371 12.09-3.645 24.215-7.16 36.317-10.77 6.633-1.976 13.226-4.101 19.87-6.039 4.579-1.332 9.208-2.484 13.821-3.683 1.543-.399 3.418-.274 4.617-1.13 2.196-1.558 4.004-3.667 5.977-5.546-1.95-1.266-3.734-3.094-5.871-3.703a1664.661 1664.661 0 0 0-39.992-10.88c-15.97-4.124-31.973-8.097-47.996-11.987-11.184-2.715-22.516-4.864-33.622-7.844-9.69-2.602-19.269-5.715-28.687-9.176-6.84-2.512-6.14-9.371-7.05-15.043-.106-.664 1.624-2.367 2.046-2.226 1.152.382 2.527 1.316 2.957 2.375.574 1.421.336 3.16.797 4.832Zm0 0" style="stroke:none;fill-rule:nonzero;fill:#111f22;fill-opacity:1"/><path d="M242.723 224.547c3.03-10.332 12.132-11.445 21.214-13.422 1.051-.313 1.778-.328 2.848-.469.762-.41 1.23-.55 2.082-.36 3.633.204 6.926.255 10.703.227.926-.316 1.399-.406 2.23-.207 4.544 1.258 8.97 1.86 12.915 3.579 3.902 1.699 7.316 4.515 11.12 7.167 3.313 11.532-.464 17.481-11.651 20.977-11.168 3.496-22.485 3.89-33.614 1.621-6.257-1.277-13.59-2.496-17.12-9.937 9.421-3.25 18.831-6.356 28.394-8.875 3.52-.93 4.578-2.727 3.683-5.664-1-3.27-3.402-3.227-6.453-2.25-8.574 2.746-17.277 5.12-26.351 7.613Zm0 0" style="stroke:none;fill-rule:nonzero;fill:#e1ff01;fill-opacity:1"/><path d="M173.426 285.613c-1.98-.043-3.996-.46-6.297-1.125 2.625-4.734 4.441-1.968 6.297 1.125ZM120.25 255.16c.129-.484.43-.781.75-1.05.012-.012.23.238.352.363-.309.289-.618.582-1.102.687Zm-78.11-7.375c-.562.254-1.18.192-2-.113.52-.227 1.231-.215 2 .113Zm239.84-37.52c-.308.247-.77.282-1.578.247.25-.196.832-.325 1.578-.246Zm-12.93-.027c-.292.266-.76.328-1.57.34.23-.21.82-.383 1.57-.34Zm-108.566 72.239c.07.164-.449.12-.687.015.043-.453.328-.472.687-.015Zm0 0" style="stroke:none;fill-rule:nonzero;fill:#111f22;fill-opacity:1"/><path d="M527.309 298.691c-.016 13.29-.063 26.582-.137 39.872-.078 15.582-7.715 26.171-22.45 31-1.507.492-3.167.507-5.07.921-1.062 1.567-2.457 1.766-3.754 1.723-8.816-.281-17.687-.098-26.656-2.574-9.582-5.074-12.512-13.692-13.914-23.227-1.93-13.086-5.691-25.636-11.133-37.683-3.074-6.813-11.468-10.059-18.367-7.2-1.754.727-1.805 2.153-1.91 3.622-.152 2.05.035 4.171-1.68 6.128-1.797 7.829-3.449 15.422-4.8 23.07-1.692 9.528-3.145 19.102-4.684 28.657-.84 5.223-2.102 10.43-2.356 15.684-.421 8.859-9.503 17.117-17.445 16.336-3.36-.332-6.777-.09-10.582-.063-5.18 1.063-9.637-.71-14.55-1.637-11.087-3.75-16.423-11.25-17.325-22.554-1.453-18.094-4.168-36.075-5.789-54.137-1.187-13.2-3.133-26.465-2.066-39.79.652-8.12-3.61-13.003-9.832-16.917-5.543-3.485-11.864-5.266-17.711-8.078-5.176-2.485-10.57-4.602-15.286-8.614-.78-3.3 1.793-2.992 3.375-3.546 5.383-1.88 11.094-2.75 16.243-5.325 6.238-3.113 11.867-7 15.789-12.96.648-.985 1.484-1.82 2.894-2.438 7.645 1.809 15.117 3.125 21.875 6.996 7.614 4.363 15.621 8.023 23.29 12.031 1.523-.793.995-2.254 1.773-3.488 2.715-1.797 4.62.004 6.687.965 15.77 7.34 24.27 20.676 29.996 36.687.524 4.192 6.184-2.402 7.262 1.262 2.547.492-.21 9.008 2.266 8.867 2.773.207 3.98 2.317 5.746 3.586 4.992 3.598 7.75 2.395 8.449-3.734.133-1.176.16-2.363.898-3.735 5.11-4.441 6.594-10.199 6.88-16.156.628-13.164.468-26.305-4.75-38.789-.563-1.355-.887-2.824-.301-4.637 8.117-2.898 16.171-5.109 23.886-8.18 17.461-6.937 28.47-.542 38.067 13.735 8.386 12.477 12.324 26.777 14.355 41.48 1.469 10.735 1.875 21.614 2.817 32.84Zm0 0" style="stroke:none;fill-rule:nonzero;fill:#9f9b8d;fill-opacity:1"/><path d="M385.773 234.094c-.289 2.25-.382 4.246-.488 6.515-15.238-8.062-29.652-16.933-46.55-21.035.05-2.691-.68-4.64-2.727-6.582-5.742-5.414-9.797-12.054-12.926-19.297-6-13.87-9.871-28.328-11.984-43.265-.618-4.364.148-8.797-.293-13.493.457-7.98 1.207-15.558 4.59-22.945 1.386-2.805 2.632-5.265 5.058-6.941 6.55-4.54 12.188-4.23 18.309 1.418 5.957 5.496 9.64 12.554 12.836 19.855 1.058 2.422 2.14 4.836 3.242 7.598.21.504.285.71.45 1.23.358 1.766.733 3.188 1.663 4.746 2.633 6.286 4.735 12.438 7.277 18.758.313 1.973 1.176 3.324 2.375 4.848 2.727 5.148 4.957 10.226 8.516 14.894 1.004 1.63 1.793 3.036 3.133 4.438 5.691 6.75 12.281 11.906 19.726 15.984 1.036.57 2.06 1.157 3.024 1.852 1.973 1.418 2.394 2.926.34 4.633-1.73 1.43-2.867 3.36-4.485 5.308-4.472 4.871-7.242 10.301-8.918 16.348-.48 1.691-.87 3.437-2.168 5.133Zm0 0" style="stroke:none;fill-rule:nonzero;fill:#7c8c01;fill-opacity:1"/><path d="M300.918 299.055c.719-5.809-3.422-9.778-5.344-14.535-3.137-7.77-6.066-15.625-9.25-23.7-.437-2.5-.71-4.73-.984-7.332 2.601-6.715 7.433-10.308 14.308-11.527 8.747 4.379 17.211 8.559 25.66 12.781 3.262 1.63 6.704 3.028 9.669 5.098 5.558 3.87 8.933 8.55 9.097 16.234.344 16.598 1.793 33.192 3.25 49.746 1.442 16.395 3.399 32.739 5.219 49.094 1.02 9.168 6.8 14.188 15.297 17.137-1.219 1.644-3.008 1.578-4.738 1.594-5.664.046-11.274-.54-17.188-1.875-6.21-.98-9.305-3.618-10.86-8.997-5.355-18.55-10.406-37.199-16.296-55.578-2.68-8.367-7.063-16.183-10.645-24.265-1.336-3.008-3.453-4.532-7.195-3.875Zm0 0" style="stroke:none;fill-rule:nonzero;fill:#7b786d;fill-opacity:1"/><path d="M384.273 100.61c11.895 8.906 22.008 19.417 31.153 31.003 15.129 19.16 26.004 40.516 33.984 63.461 1.832 5.266 3.305 10.66 4.606 16.059-2.743.047-4.938 1.242-7.653 1.285-7.734 1.285-14.14 4.43-19.316 10.434-2.356 2.738-2.711 6.144-4.29 9.085-3.913-.968-5.57-4.109-7.378-6.792-1.734-2.575-3.473-3.875-6.813-2.364-3.203-.554-4.738-2.527-5.683-5.46.472-5.184.031-10.008-1.04-14.645-1.464-6.34-2.085-12.805-3.105-19.192-4.058-25.445-7.039-51.09-15.453-75.652-.793-2.305-1.543-4.867.988-7.223Zm0 0" style="stroke:none;fill-rule:nonzero;fill:#7c8c01;fill-opacity:1"/><path d="M384.258 100.34c.746 4.43.336 9.094 1.738 13.125 5.309 15.234 8.11 30.937 10.176 46.86 1.183 9.132 3 18.183 4.473 27.28 1.449 8.954 2.867 17.915 4.175 26.891.106.727-.777 1.59-1.52 2.426-3.562.215-5.378-1.879-7.105-4.516 1.977-2.761 3.996-5.203 6.164-7.824-9.03-5.164-18.062-10.398-24.843-19.043.457-2.351 2.562-1.937 4.113-2.465 4.183-1.422 8.785-1.847 12.11-5.488-6.188 1.074-12.032 3.793-18.676 3.746a287.684 287.684 0 0 1-9.04-15.008c1.254-2.168 3.23-2.16 5.13-2.324 2.628-.227 5.206-.605 7.956-2.688-2.84-1.023-4.957.067-7.078.438-2.715.484-5.394 1.688-8.379.023-2.554-6.457-4.89-12.699-7.273-19.257 1.582-2.121 3.773-1.621 5.77-1.625 7.066-.02 13.656-2.11 20.183-4.493 1.152-.418 2.57-.812 2.79-3.078-9.9 3.489-19.618 6.852-30.384 4.7-.289-.38-.285-.57-.328-1.043-2.93-6.7-2.746-13.754-4.14-20.477-1.254-6.066-2.73-12.02-4.903-17.809-.367-.976-.605-1.968-.012-3.308 1.684-1.16 3.145-2.012 4.883-2.938 1.813.188 1.711 1.621 2.098 2.63 1.918 5 5.726 7.503 10.851 7.523 4.672.027 8.016-2.496 9.864-7.258.351-.684.652-.996 1.336-1.305 1.629 4.664 6.015 4.828 9.87 6.305Zm0 0" style="stroke:none;fill-rule:nonzero;fill:#f1eee5;fill-opacity:1"/><path d="M300.145 241.941c-6.297 1.887-10.457 6.16-14.575 10.989-3.144.46-4.3-.766-3.59-3.68 3.293-13.457 6.118-27.047 9.965-40.34 4.356-15.058 10.11-29.719 14.293-44.82 2.403-8.684 2.89-17.899 4.461-27.172 2.328 12.133 3.625 24.773 6.738 36.945 4.047 15.79 9.801 31.067 23.415 42.063-.77.996-1.532 1.98-2.364 3.265-6.008 8.422-13.308 14.809-22.992 18.02-5 1.66-10.098 3.031-15.351 4.73Zm0 0" style="stroke:none;fill-rule:nonzero;fill:#ccc7b5;fill-opacity:1"/><path d="M351.105 76.07c-4.793.942-7.777-.617-9.328-5.222-.453-1.36-2.27-2.598-3.746-3.211-4.543-1.887-7.101-4.782-6.644-9.992.418-4.825-2.774-9.63-.02-14.543.895-1.602 1.246-3.512 1.95-5.625.484-4.34 3.316-6.907 5.753-9.586 4.094-4.5 8.614-8.524 15.094-10.063 4.957-1.922 9.7-3.613 14.2-5.797 4.199-2.043 7.773-1.683 11.378 1.223.895.719 2.707 1.246 3.625.828 7.883-3.637 9.77-.879 12.031 4.219 5.301-.922 8.223 2.687 7.536 9.012-.926 8.539-3.762 15.957-11.727 20.812-3.48-.738-3.258-4.578-5.586-5.98-1.004-.098-1.59.402-1.918 1.058-2.05 4.168-5.234 6.602-9.965 7.035-2.773.254-3.8 2.547-4.652 4.797-.875 2.32-2.23 4.149-4.621 5.04-3.586 1.34-6.371.019-7.54-3.63-.269-.84-.405-1.726-.863-2.496-1.562-2.656-4.828-3.633-7.246-2.18-2.386 1.43-3.117 5.91-.546 8.204 5.242 4.687 4.082 10.199 2.835 16.097Zm0 0" style="stroke:none;fill-rule:nonzero;fill:#111f22;fill-opacity:1"/><path d="M350.887 76.71c-.012-2.937-.082-5.452.058-7.96.168-3.031-.035-5.395-3.234-7.332-3.106-1.875-3.156-5.961-1.64-8.766.87-1.609 4.437-3.035 6.226-2.535 2.203.613 4.664 3.028 5.445 5.223.77 2.168 1.305 4.37 3.547 4.05 2.188-.312 5.543-1.683 5.98-3.261 1.442-5.188 4.391-7.418 9.528-7.988 1.582-.172 3.223-1.825 4.394-3.188 1.399-1.625 2.32-3.668 3.88-6.223 2.066 3.286 3.82 6.075 5.69 9.149 3.173 9.254 4.09 18.187.235 27.21-3.476 8.138-6.672 9.653-15.762 6.864-3.144 1.715-5.668-.328-8.316-.68-2.473-.332-4.742-1.425-7.457-2.109-.652-.32-.984-.559-1.492-1.023-.692 0-.262-1.13-.684-.575.473.395.727.66 1.176 1.137 3.437 5.664 8.773 9.106 13.027 13.582.801.844 1.934 1.395 2.418 2.906-.765 6.243-6.965 8.942-11.457 8.649-6.418-.414-10.672-4.418-11.8-11.149-.004-5.398.128-10.476.238-15.98Zm0 0" style="stroke:none;fill-rule:nonzero;fill:#a95138;fill-opacity:1"/><path d="M333.367 36.238c-5.07 1.153-9.918 2.742-14.785 2.79-6.883.062-10.832-3.583-7.27-11.524-6.015-2.86-6.496-5.336-1.652-10.043 3.16-3.074 6.692-5.445 6.063-10.992-.391-3.45 4.074-5.86 8.156-5.207 4.05.652 7.871 1.336 11.914-.871 1.5-.825 4.61.14 6.398 1.242 5.036 3.113 8.7 7.48 9.68 13.949-.238.723-.523 1.113-.95 1.219-10.038 2.539-15.655 9.078-17.554 19.437Zm0 0" style="stroke:none;fill-rule:nonzero;fill:#111f22;fill-opacity:1"/><path d="M426.043 222.934c4.285-3.457 8.352-6.79 12.707-9.676 1.73-1.153 4.113-1.313 6.54-1.93 1.862 1.176 2.616 2.7 2.323 4.973.028.86.149 1.398.528 2.082 5.71 14.312 7.699 29.027 6.37 44.101-.534 6.063-1.386 12.344-7.363 16.442-2.984-1.942-2.316-5.215-3.082-7.942-2.707-9.636-6.91-18.394-14.07-25.554-.625-.625-1.113-1.364-1.5-2.532.149-3.406-.098-6.578 1.328-9.453 1.395-2.816.867-5.066-1.562-7.035-1.02-.832-2.02-1.777-2.219-3.476Zm0 0" style="stroke:none;fill-rule:nonzero;fill:#a94f36;fill-opacity:1"/><path d="M345.309 94.887c1.492 4.207 3.046 8.148 3.878 12.238 1.946 9.578 3.547 19.234 5.227 29.219-3.582-6.504-7.105-13.375-10.664-20.223-.406-.773-1.023-1.437-1.527-2.168-8.157-11.742-17.79-11.941-26.43-.394.941-8.364 9.2-17.454 17.441-19.38 2.13-.492 4.23-1.1 6.368-1.577 2.238-.493 4.34-.48 5.707 2.285Zm0 0" style="stroke:none;fill-rule:nonzero;fill:#ccc7b5;fill-opacity:1"/><path d="M374.145 95.23c-5.493-5.238-10.868-10.726-16.282-16.53-.039-.313.035-.712.235-.74 5.496 1.259 10.793 2.552 16.449 3.903.246 3.825.133 7.582.094 11.739-.082.718-.23 1.05-.496 1.628Zm0 0" style="stroke:none;fill-rule:nonzero;fill:#111f22;fill-opacity:1"/><path d="M333.191 36.668c.133-10.992 8.098-20.043 18.309-20.676 1.164.387 1.965.836 2.871 1.551-8.492 4.73-15.945 10.437-20.719 19.441-.23.149-.43-.144-.46-.316Zm0 0" style="stroke:none;fill-rule:nonzero;fill:#d8a525;fill-opacity:1"/><path d="M447.793 216.508c-.863-1.446-1.45-3.008-2.102-4.871 2.461-.504 4.985-.703 7.747-.664-1.625 1.96-3.497 3.691-5.645 5.535Zm0 0" style="stroke:none;fill-rule:nonzero;fill:#1a204a;fill-opacity:1"/><path d="M379.059 420.336c10.355 5.469 18.363 13.062 24.957 22.133 3.004 4.125 1.894 7.199-3.067 8.515-2.902.77-6.277 1.106-9.144.414-16.7-4-33.668-5.148-50.73-6.035-5.403-.281-10.95-1.937-15.99-4.027-4.69-1.938-5.347-5.606-2.468-9.684 3.625-5.125 7.45-10.14 11.535-14.898 1.145-1.336 3.528-1.606 5.692-2.387 1.254-.633 2.261-.805 3.3-.527 10.141 2.738 20.426 4.535 30.938 4.98 1.598.07 3.227.442 4.977 1.516Zm121.28-28.297c10.294 3.805 18.638 9.906 26.087 17.203 4.289 4.2 3.222 7.555-2.668 8.98-3.551.86-7.254 1.266-10.906 1.458-12.07.636-24.157 1.629-36.22 1.425-8.405-.136-16.89-1.53-25.136-3.28-4.883-1.036-5.41-5.262-2.371-9.473 2.89-4.012 5.531-8.215 8.11-12.434 1.488-2.434 2.796-4.86 6.5-4.785 1.519-.703 2.816-1.211 4.14-.934 10.617 2.18 21.383 1.414 32.465 1.84Zm0 0" style="stroke:none;fill-rule:nonzero;fill:#cde801;fill-opacity:1"/><path d="M422.219 311.621c-.031-1.719.304-3.305.406-4.902.422-6.403.39-6.41 6.984-6.422 12.82-.035 13.871.226 17.692 12.52 4.11 13.214 7.531 26.671 10.637 40.16 1.535 6.671 5.058 11.238 10.707 14.941-.98 1.527-2.286 1.512-4.043.812-7.813-1.113-10.543-7.214-13.657-12.66-6.101-10.648-11.644-21.629-18.004-32.12-2.742-4.52-6.93-8.16-10.722-12.329Zm0 0" style="stroke:none;fill-rule:nonzero;fill:#7b786d;fill-opacity:1"/><path d="M379.344 420.215c-13-.375-25.942-1.719-38.801-5.809 1.437-7.433 3.227-14.808 5.02-22.531 7.199-.063 14.39.219 22.023.48 4.851.813 9.27 1.641 14.027 2.563-.437 4.504-.754 9.07-2.129 13.293-1.316 4.031-2.23 7.742-.14 12.004Zm84.898-51.29c1.242-.472 2.492-.542 4.11-.663 2.746.558 5.093 1.566 7.496 1.703 7.57.437 15.156.547 23.117.742.492 3.895.512 7.836.75 11.766.18 3.039.629 6.058.969 9.433-9.899.254-19.813.196-29.723.043-2.031-.035-4.059-.433-6.496-.75-.34-7.355-.277-14.617-.223-22.273Zm0 0" style="stroke:none;fill-rule:nonzero;fill:#994437;fill-opacity:1"/><path d="M428.828 242.176c10.281 10.094 15.73 22.265 17.953 36.484.047 1.402.25 2.508-.07 3.422-.816 2.316-1.32 5.711-2.973 6.488-1.734.813-4.797-.61-7.02-1.629-1.757-.8-3.124-2.472-4.96-3.851-4.582-2.45-7.172-6.55-10.672-10.156-3.809-7.207-6.844-14.567-11.078-21.16-5.582-8.684-14.535-13.403-24.098-17.422 1.031-8.235 3.922-15.758 9.977-22.114 2.406 1.383 4.547 2.918 6.886 4.586 1.864 1.805 3.52 3.473 5.485 5.2 7.933 5.738 14.316 12.699 20.57 20.152Zm0 0" style="stroke:none;fill-rule:nonzero;fill:#994435;fill-opacity:1"/><path d="M368.633 322.184c.898-14.008 1.797-27.606 2.695-41.215.055-.875-.101-1.946.34-2.57.61-.852 1.691-1.36 2.57-2.016.5.812 1.446 1.637 1.422 2.433-.101 3.364-.562 6.711-.77 10.075-.644 10.535-1.132 21.09-1.882 31.617-.332 4.664-1.078 9.3-1.824 13.922-.114.691-1.239 1.218-1.899 1.82-.508-.754-1.469-1.527-1.445-2.266.12-3.8.5-7.597.793-11.8Zm109.09-45.477c-1.735-4.684-3.54-8.988-4.965-13.41-.348-1.067.582-2.543.926-3.832.953.668 2.41 1.129 2.78 2.035 5.286 12.965 10.481 25.98 15.524 39.047.465 1.21-.277 2.883-.453 4.34-1.133-1.055-2.746-1.903-3.324-3.203-3.606-8.157-6.977-16.418-10.488-24.977Zm29.093-12.246c-.171 1.644-.492 2.969-.804 4.297-1.106-1.004-2.7-1.805-3.23-3.055-1.884-4.418-3.16-9.101-5.126-13.48-2.453-5.473-5.472-10.688-7.976-16.141-.668-1.45-.34-3.352-.47-5.047 1.407 1.008 3.478 1.711 4.11 3.078 4.618 9.934 8.946 20.004 13.496 30.348Zm-103.593 79.234c-.692 4.106-1.211 7.875-2.16 11.532-.223.867-1.86 1.367-2.844 2.039-.274-1.02-.934-2.11-.77-3.051 1.297-7.48 2.738-14.942 4.164-22.399.164-.859.309-1.886.848-2.468.687-.739 1.773-1.102 2.687-1.625.434.964 1.38 2.035 1.207 2.879-.875 4.27-2.05 8.48-3.132 13.093Zm109.289-48.457c-.196-1.258-.473-2.195-.274-3.008.309-1.253.942-2.425 1.442-3.636.965 1.219 2.722 2.41 2.773 3.668.277 6.906.238 13.84.047 20.758-.04 1.289-1.266 2.543-1.945 3.812l-1.91-.32c-.004-6.969-.004-13.93-.133-21.274ZM399.41 282.164c1.418 1.77 3.567 3.742 3.559 5.711-.012 4.953-.875 9.922-1.7 14.836-.148.89-1.75 1.535-2.675 2.297-.469-.809-1.36-1.63-1.324-2.414.253-6.403.675-12.797 1.097-19.196.016-.355.516-.687 1.043-1.234Zm101.235 56.688c-.31 2.582-.438 4.804-1.028 6.89-.21.742-1.55 1.168-2.37 1.742-.43-.894-1.235-1.796-1.227-2.691.035-4.793.168-9.586.52-14.363.073-.989 1.23-1.899 1.882-2.852.742.824 2.039 1.594 2.125 2.488.281 2.77.105 5.579.098 8.786Zm0 0" style="stroke:none;fill-rule:nonzero;fill:#cde801;fill-opacity:1"/><path d="M354.453 138.145c11.137-.075 21.863-1.997 31.977-7.063 1.68 3.285.402 4.613-2.133 5.762-8.652 3.91-17.676 5.722-27.559 5.316-1.031-1.21-1.656-2.46-2.285-4.015Zm20.379 43.351c5.773-2.062 11.582-3.953 17.465-5.531 1.078-.29 2.496.695 3.754 1.09-.684.976-1.18 2.52-2.09 2.832-5.356 1.82-10.809 3.351-16.469 5.226-1.023-.945-1.816-2.14-2.66-3.617ZM363.43 161.86a152.093 152.093 0 0 1 14.152-2.425c1.063-.13 2.227.593 3.344.921-.77 1.024-1.363 2.68-2.336 2.95-3.895 1.074-7.906 1.715-12.219 2.601-1.21-1.183-2.074-2.465-2.941-4.047Zm0 0" style="stroke:none;fill-rule:nonzero;fill:#254147;fill-opacity:1"/><path d="M429.121 242.215c-6.984-6.348-13.726-12.957-20.512-19.856 1.278-.894 2.598-1.507 4.118-2.21 3.02 3.757 6.078 7.562 9.132 11.359 1.344-3.102 2.536-5.844 4.008-8.735.664.286.977.801 1.43 1.133 4.191 3.063 6.082 6.485 2.969 11.625-1.028 1.696-.641 4.25-1.145 6.684Zm0 0" style="stroke:none;fill-rule:nonzero;fill:#9f9b8d;fill-opacity:1"/><path d="M357.195 77.512c.32-.203.586-.078.977.23.129.188-.11.414-.227.528-.347-.067-.578-.247-.75-.758Zm-.113-.16c-.152-.137-.246-.325-.34-.512.121.02.246.035.438.2.07.144-.04.257-.098.312Zm0 0" style="stroke:none;fill-rule:nonzero;fill:#1a204a;fill-opacity:1"/><path d="M381.613 53.137c.325-1.207-.25-2.41-1.285-2.688-1.031-.277-2.133.477-2.453 1.684-.324 1.207.25 2.41 1.281 2.687 1.035.278 2.133-.476 2.457-1.683Zm7.692-.227c.324-1.207-.25-2.41-1.285-2.687-1.032-.278-2.133.472-2.454 1.68-.324 1.206.25 2.41 1.282 2.687 1.035.281 2.132-.473 2.457-1.68Zm-1.391 10.488c-.34 1.02-1.133 1.825-2.066 1.649-.93-.18-1.52-1.207-1.309-2.297.207-1.094 2.805-2.066 3.738-1.89.934.18-.02 1.519-.363 2.538Zm0 0" style="stroke:none;fill-rule:nonzero;fill:#111f22;fill-opacity:1"/></svg>
