<svg xmlns="http://www.w3.org/2000/svg" viewBox="0 0 144.18 46.86"><path fill="#fae924" d="M131.079 22.807 73.056.292a5.827 5.827 0 0 0-3.64 0l-1.4.541 56.076 21.762a.965.965 0 0 1 0 1.843L68.257 46l1.454.565a5.8 5.8 0 0 0 3.637 0l57.731-22.29c.441-.169.692-.434.692-.729s-.252-.564-.692-.739"/><path fill="#fae924" d="M143.494 22.865 85.837.495a5.827 5.827 0 0 0-3.64 0l-1.4.543 55.711 21.614a.965.965 0 0 1 0 1.843l-55.137 21.3 1.454.567a5.82 5.82 0 0 0 3.637 0l57.033-22.032c.441-.17.692-.436.692-.73s-.252-.564-.692-.739"/><path fill="#fae924" d="M118.667 22.825 61.535.562a6.322 6.322 0 0 0-3.767 0L.668 22.656c-.88.34-.888 1.03-.008 1.37l57.127 22.258a5.266 5.266 0 0 0 1.875.29 5.257 5.257 0 0 0 1.892-.286l57.1-22.094c.881-.34.894-1.03.013-1.369"/><path fill="#221e20" d="M53.223 18.533a7.57 7.57 0 0 0-9.825-.01 6.458 6.458 0 0 0-1.953 4.885 6.558 6.558 0 0 0 1.945 4.889 7.573 7.573 0 0 0 9.824.008 6.613 6.613 0 0 0 1.954-4.884 6.557 6.557 0 0 0-1.945-4.884m-2.387 7.486a3.312 3.312 0 0 1-2.533 1.012 3.236 3.236 0 0 1-2.531-1.016 4.059 4.059 0 0 1 0-5.21 3.664 3.664 0 0 1 5.065.005 3.658 3.658 0 0 1 .948 2.6 3.705 3.705 0 0 1-.953 2.6m9.906-8.974h-3.286v12.774h8.253v-3.073h-4.96m-25.516.279a2.823 2.823 0 0 1-2.215-1.01 3.783 3.783 0 0 1-.923-2.612 3.949 3.949 0 0 1 .934-2.614 3.187 3.187 0 0 1 2.3-1 2.672 2.672 0 0 1 2.262 1.118l2.524-2.056a5.244 5.244 0 0 0-4.527-2.14 6.954 6.954 0 0 0-4.918 1.8 6.652 6.652 0 0 0-1.952 4.89 6.556 6.556 0 0 0 1.944 4.885 6.966 6.966 0 0 0 4.914 1.814 5.489 5.489 0 0 0 4.816-2.473l-2.719-2.035a2.675 2.675 0 0 1-2.439 1.433m39.822-9.966h-2.61l-5.53 12.766h3.6l3.154-8.109 1.55 3.905h-1.707l-1.105 2.861h3.956l.556 1.346h3.68m8.295-6.953a11.5 11.5 0 0 0-2.753-1.029c-.9-.286-1.246-.538-1.246-1.06 0-.31.271-.952 1.507-.952a2.079 2.079 0 0 1 1.926.968l2.279-2.492a5.285 5.285 0 0 0-2.065-1.245 6.8 6.8 0 0 0-3.909-.045 4.088 4.088 0 0 0-3.121 3.986 3.162 3.162 0 0 0 1.623 2.889 16.042 16.042 0 0 0 2.8 1.075c.4.136 1.285.405 1.285 1.129 0 .812-1.307 1.2-2.385.84a2.873 2.873 0 0 1-1.493-1.188l-2.353 2.582a6 6 0 0 0 2.21 1.431 7.493 7.493 0 0 0 2.3.381 5.477 5.477 0 0 0 3.485-1.039 3.944 3.944 0 0 0 1.511-3.262 3.073 3.073 0 0 0-1.6-2.971"/><path fill="#fe0" d="M131.079 22.807 73.056.292a5.827 5.827 0 0 0-3.64 0l-1.4.541 56.076 21.762a.965.965 0 0 1 0 1.843L68.257 46l1.454.565a5.8 5.8 0 0 0 3.637 0l57.731-22.29c.441-.169.692-.434.692-.729s-.252-.564-.692-.739"/><path fill="#fe0" d="M143.494 22.865 85.837.495a5.827 5.827 0 0 0-3.64 0l-1.4.543 55.711 21.614a.965.965 0 0 1 0 1.843l-55.137 21.3 1.454.567a5.82 5.82 0 0 0 3.637 0l57.033-22.032c.441-.17.692-.436.692-.73s-.252-.564-.692-.739"/><path fill="#fe0" d="M118.667 22.825 61.535.562a6.322 6.322 0 0 0-3.767 0L.668 22.656c-.88.34-.888 1.03-.008 1.37l57.127 22.258a5.266 5.266 0 0 0 1.875.29 5.257 5.257 0 0 0 1.892-.286l57.1-22.094c.881-.34.894-1.03.013-1.369"/><path d="M53.223 18.533a7.57 7.57 0 0 0-9.825-.01 6.458 6.458 0 0 0-1.953 4.885 6.558 6.558 0 0 0 1.945 4.889 7.573 7.573 0 0 0 9.824.008 6.613 6.613 0 0 0 1.954-4.884 6.557 6.557 0 0 0-1.945-4.884m-2.387 7.486a3.312 3.312 0 0 1-2.533 1.012 3.236 3.236 0 0 1-2.531-1.016 4.059 4.059 0 0 1 0-5.21 3.664 3.664 0 0 1 5.065.005 3.658 3.658 0 0 1 .948 2.6 3.705 3.705 0 0 1-.953 2.6m9.906-8.974h-3.286v12.774h8.253v-3.073h-4.96m-25.516.279a2.823 2.823 0 0 1-2.215-1.01 3.783 3.783 0 0 1-.923-2.612 3.949 3.949 0 0 1 .934-2.614 3.187 3.187 0 0 1 2.3-1 2.672 2.672 0 0 1 2.262 1.118l2.524-2.056a5.244 5.244 0 0 0-4.527-2.14 6.954 6.954 0 0 0-4.918 1.8 6.652 6.652 0 0 0-1.952 4.89 6.556 6.556 0 0 0 1.944 4.885 6.966 6.966 0 0 0 4.914 1.814 5.489 5.489 0 0 0 4.816-2.473l-2.719-2.035a2.675 2.675 0 0 1-2.439 1.433m39.822-9.966h-2.61l-5.53 12.766h3.6l3.154-8.109 1.55 3.905h-1.707l-1.105 2.861h3.956l.556 1.346h3.68m8.295-6.953a11.5 11.5 0 0 0-2.753-1.029c-.9-.286-1.246-.538-1.246-1.06 0-.31.271-.952 1.507-.952a2.079 2.079 0 0 1 1.926.968l2.279-2.492a5.285 5.285 0 0 0-2.065-1.245 6.8 6.8 0 0 0-3.909-.045 4.088 4.088 0 0 0-3.121 3.986 3.162 3.162 0 0 0 1.623 2.889 16.042 16.042 0 0 0 2.8 1.075c.4.136 1.285.405 1.285 1.129 0 .812-1.307 1.2-2.385.84a2.873 2.873 0 0 1-1.493-1.188l-2.353 2.582a6 6 0 0 0 2.21 1.431 7.493 7.493 0 0 0 2.3.381 5.477 5.477 0 0 0 3.485-1.039 3.944 3.944 0 0 0 1.511-3.262 3.073 3.073 0 0 0-1.6-2.971"/></svg>
