<svg xmlns="http://www.w3.org/2000/svg" width="918.671" height="1024.951" fill="none"><path fill="#ededed" fill-rule="evenodd" d="M496.461 79.948c.981 3.505-2.285 11.335-6.642 15.922-9.893 10.417-22.128 9.208-29.797-2.942-1.818-2.88-3.826-4.755-4.588-4.284-.746.46-5.676 1.25-10.958 1.756l-9.603.92 7.785.175c17.256.39 13.753 1.814-39.22 15.942-39.415 10.51-51.17 14.007-53.774 15.99-1.828 1.392.872 6.425 24.286 45.27 30.371 50.388 27.551 44.458 21.628 45.478-13.688 2.356-13.658 1.755-.977 18.908 3.6 4.868 11.542 15.925 17.652 24.57 19.084 27.007 29.906 41.602 37.395 50.436 3.977 4.69 7.23 9.106 7.23 9.813 0 .708.791.983 1.76.61.966-.37 4.54.735 7.938 2.458 11.918 6.039 17.557 6.458 64.734 4.8 23.726-.833 51.626-1.523 62-1.533 63.167-.06 66.89-9.045 39.035-94.248-10.548-32.262-19.816-61.65-20.029-63.5-.079-.692-.678-1.641-1.329-2.11-.65-.47-1.858-3.015-2.68-5.66-.823-2.642-5.829-18.385-11.123-34.983-5.294-16.598-10.22-32.522-10.95-35.387l-1.327-5.208-9.002-1.326c-19.322-2.85-51.387-4.341-64.957-3.026-9.72.943-13.473.903-14.229-.148-.58-.81-.692-.242-.258 1.308zM4.757 671.348c0 20.403.174 28.749.385 18.548.211-10.2.211-26.894 0-37.094-.21-10.2-.385-1.855-.385 18.547zm450.721-31.792c-1.117.262-3.848 3.005-6.068 6.097-5.347 7.447-12.256 10.935-20.667 10.437-5.994-.355-24.722 3.542-24.642 5.128.02.385 3.136 2.576 6.925 4.869 6.688 4.049 9.92 4.398 13.788 1.496.691-.518 7.764-4.463 15.718-8.765 14.6-7.897 20.12-11.871 20.12-14.482 0-2.457-3.054-5.277-5.174-4.78zm278.665 55.195c-4.15 3.169-21.974 15.37-39.609 27.116-17.636 11.743-32.43 22.298-32.879 23.455-.448 1.156-1.477 4.56-2.287 7.565-1.839 6.826-9.88 15.083-17.652 18.129-3.855 1.51-4.454 1.992-1.88 1.51 2.074-.39 8.864-4.183 15.088-8.431 13.11-8.948 71.584-50.072 83.62-58.81 4.495-3.263 8.985-6.186 9.98-6.495 1.324-.412.655-1.79-2.516-5.181l-4.32-4.62zm-81.047 14.88c-3.699 4.457.712 10.527 6.58 9.054 6.574-1.65 5.304-10.87-1.499-10.87-1.965 0-4.252.817-5.08 1.817zM4.713 729.192c0 11.41.192 16.08.424 10.374.233-5.706.233-15.041 0-20.748-.232-5.706-.424-1.037-.424 10.374zm-.015 38.352c.002 9.682.2 13.477.438 8.432.24-5.043.238-12.965-.003-17.604-.24-4.637-.437-.51-.435 9.172zm.057 55.327c0 19.365.175 27.11.387 17.213.213-9.896.213-25.74 0-35.208-.214-9.467-.388-1.37-.387 17.995z" clip-rule="evenodd"/><path fill="#5a606e" fill-rule="evenodd" d="M585.96 83.816c-.528.854 91.352.846 213.57-.018 25.588-.18-11.866-.463-83.23-.627-71.367-.164-130.02.127-130.34.645z" clip-rule="evenodd"/><path fill="#769da0" fill-rule="evenodd" d="M163.122 77.547c-1.638 1.079-3.789 7.213-2.19 6.243 1.322-.802 4.371 2.286 3.307 3.348-.419.42.605.755 2.276.745 2.424-.017 2.657-.267 1.153-1.24-1.599-1.032-1.54-1.221.39-1.237 1.29-.01 1.914-.6 1.443-1.362-.456-.74-1.603-1.046-2.548-.684-.946.363-2.027.16-2.403-.448-.378-.608.313-1.367 1.531-1.685 2.094-.547 2.094-.586.015-.724-2.54-.17-2.943-2.152-.628-3.086.865-.348 1.006-.67.314-.714-.692-.044-1.889.336-2.66.844zM893.01 235.965c-.108 1.209-.183 2.83-.167 3.605.017.772-.798 1.338-1.812 1.257-1.012-.08-2.74 1.268-3.84 2.997-1.362 2.14-1.442 2.64-.254 1.57 2.396-2.155 3.218-1.972 3.218.718 0 1.706-.73 2.15-2.873 1.74-1.677-.32-2.875.067-2.875.928 0 .814.507 1.166 1.126.784 1.793-1.108 2.765 3.005 1.34 5.667-.893 1.669-.892 2.424.005 2.424.716 0 1.301-.597 1.301-1.326 0-.73 1.073-3.701 2.385-6.602 3.05-6.743 6.417-14.874 6.417-15.488 0-1.698-3.81-.042-3.97 1.726zm-25.945 78.23c.303 2.066-.057 4.015-.799 4.33-.742.316.631.248 3.052-.15 5.401-.888 5.731-1.146 4.06-3.162-.733-.881-1.238-2.111-1.124-2.733.114-.624-1.13-1.337-2.766-1.587-2.659-.405-2.916-.056-2.423 3.302zm-130.58 3.189c-.399 1.037-.387 2.763.025 3.837.411 1.074.215 1.622-.436 1.22-1.559-.965-6.412 3.225-5.48 4.732.396.643 1.177.43 1.736-.476.56-.904 3.035-1.587 5.502-1.516 2.89.082 4.485-.45 4.485-1.495 0-.892-.99-1.543-2.2-1.448-1.21.097-2.2-.673-2.2-1.711 0-1.037.802-1.713 1.783-1.501 1.476.319 1.504.046.161-1.572-2.018-2.431-2.467-2.441-3.376-.07zm-689.53 10.688c0 .69-1.177 1.257-2.614 1.257-2.252 0-2.5.525-1.787 3.772.456 2.075.404 3.773-.115 3.773-2.15 0-5.324-4.151-4.66-6.091.557-1.626.306-1.562-1.136.288-1.889 2.423-1.606 8.318.4 8.318.61 0 1.11.848 1.11 1.886 0 1.037.91 1.886 2.02 1.886 1.228 0 1.753.7 1.338 1.782-.564 1.468 1.443 3.248 3.661 3.248 1.34 0 .25-2.21-2.618-5.303-3.612-3.895-3.855-4.757-1.34-4.757.99 0 2.16 1.132 2.598 2.515.44 1.383 1.325 2.515 1.97 2.515s1.173 1.662 1.173 3.694c0 2.919-.528 3.654-2.515 3.505-1.383-.105-2.514-.575-2.514-1.045s-.785-1.156-1.744-1.524c-1.27-.487-1.552.075-1.04 2.066.606 2.352.43 2.51-1.253 1.13-1.616-1.323-2.092-1.251-2.732.418-1.177 3.068-1.04 3.185 2.682 2.279 3.364-.817 3.398-.773 1.257 1.648-1.21 1.368-2.2 3.08-2.2 3.806 0 .725-.843 2.018-1.872 2.873-1.03.855-1.602 1.992-1.272 2.526.9 1.455-2.824 4.118-4.397 3.146-.75-.464-1.055-1.815-.678-3.004 1.01-3.175-2.645-7.675-4.249-5.232-.659 1.005-.88 2.339-.495 2.964.386.625 1.19.37 1.784-.568.841-1.33 1.085-1.22 1.1.494.01 1.209-.636 2.2-1.437 2.2-.802 0-.094 1.31 1.572 2.91 2.657 2.556 3.288 2.696 5.15 1.136 2.584-2.166 4.794-1.032 4.794 2.463 0 2.087-.613 2.469-3.174 1.98-1.745-.334-3.436-.181-3.76.34-.919 1.489 6.723 2.197 8.162.757.877-.877 1.287-.806 1.287.222 0 .83-.566 1.509-1.258 1.509-.69 0-1.257.654-1.257 1.453 0 .823 1.09.466 2.515-.824 1.383-1.251 2.515-3.037 2.515-3.967 0-.931.626-1.691 1.392-1.691.765 0 1.066-.85.667-1.887-.397-1.037-.222-1.886.39-1.886s1.398.708 1.748 1.572c.4.992.67.81.733-.494.054-1.137-.732-2.386-1.747-2.774-1.96-.753-3.724 1.162-3.78 4.103-.017.978-.68 1.996-1.474 2.262-1.612.54-1.653-3.614-.047-4.795.88-.645 1.213-1.654 2.04-6.161.064-.346.642.204 1.286 1.22.644 1.018 1.54 1.48 1.993 1.028 1.467-1.468-.905-3.742-3.262-3.126-1.26.33-2.583-.157-2.937-1.084-.415-1.077.007-1.431 1.175-.983 1.316.504 1.823-.25 1.823-2.713 0-2.596.476-3.231 1.99-2.65 1.093.42 2.257.763 2.588.763.33 0 .244.575-.19 1.278-.435.703-1.317.953-1.96.555-2.215-1.37-1.169 1.383 1.344 3.534 2.497 2.138 2.515 2.033 2.515-14.81 0-9.33-.283-16.963-.629-16.963-.346 0-.629.566-.629 1.258zm800.998 3.129c-.855 1.03-2.056 1.562-2.668 1.184-.614-.38-1.125.334-1.135 1.585-.01 1.274-.426 1.722-.943 1.018-1.392-1.895-4.065-2.1-4.086-.315-.016 1.177-.287 1.15-1.083-.105-.856-1.351-1.212-1.29-1.827.314-.484 1.26-.087 1.992 1.081 1.992 1.016 0 1.847.626 1.847 1.392 0 .766-.754 1.103-1.676.748-.923-.353-1.677.12-1.677 1.055 0 1.257.6 1.378 2.306.465 1.268-.68 2.305-2.063 2.305-3.076s.6-1.842 1.332-1.842c.731 0 .93.708.44 1.572-.49.865 1.173-.378 3.698-2.761 2.523-2.384 4.59-4.506 4.59-4.716 0-.885-1.052-.26-2.504 1.49zm-832.015 1.21c0 1.073.472 1.948 1.05 1.948.575 0 1.046.849 1.046 1.886s-.99 1.895-2.2 1.905c-1.714.015-1.823.259-.494 1.1.94.596 1.178 1.407.532 1.807-1.824 1.127-6.798-.563-6.276-2.131.428-1.284-1.924-4.567-3.27-4.567-.315 0-.869 1.132-1.23 2.515-.428 1.634-.038 2.515 1.11 2.515.973 0 1.77.579 1.77 1.288 0 .708 1.413 1.826 3.142 2.484 1.73.658 3.144 2.058 3.144 3.112 0 2.258 1.98 2.54 3.263.465.61-.984.33-1.11-.868-.387-1.506.908-1.505.742.01-1.122 1.138-1.404 2.07-1.708 2.6-.848.503.81 2.117-.108 4.101-2.335 3.138-3.522 3.17-3.7.756-4.331-1.695-.443-2.316-.137-1.905.937 1.071 2.79-1.289 5.393-3.179 3.503-1.026-1.026-1.16-1.938-.367-2.505 1.864-1.33 1.481-4.968-.757-7.206-1.772-1.771-1.978-1.774-1.978-.032zm15.073 3.52c-.552.865-2.18 3.986-3.616 6.936-1.438 2.95-2.953 5.024-3.368 4.61-.415-.414-1.933.426-3.373 1.867-2.435 2.434-2.33 3.209.364 2.717.604-.111.762.672.354 1.737-.515 1.34.018 1.937 1.731 1.937 1.362 0 2.476-.566 2.476-1.257 0-.692-.566-1.258-1.258-1.258-.69 0-1.257-.848-1.257-1.886 0-1.037.483-1.886 1.074-1.886 1.987 0 7.924-6.33 7.4-7.888-.287-.85.377-2.292 1.475-3.207 1.245-1.04 1.325-1.317.211-.737-1.306.679-1.57.366-.982-1.165.943-2.46.206-2.771-1.23-.52zm-15.302 20.205c-1.647 1.983-.685 3.482 1.658 2.584.88-.338 1.94.267 2.352 1.345.556 1.449-.063 1.957-2.384 1.957-2.497 0-3.294.79-3.912 3.88-.445 2.227-1.903 4.379-3.426 5.056-2.34 1.04-2.245 1.12.807.696 1.901-.264 3.458.007 3.458.603 0 .595.85 1.082 1.886 1.082a1.891 1.891 0 0 0 1.886-1.886c0-1.037-.6-1.886-1.33-1.886-.733 0-.933.708-.445 1.572.701 1.243.54 1.25-.777.03-1.372-1.272-1.282-1.964.521-3.957 1.695-1.874 1.816-2.565.536-3.088-.906-.37.191-.36 2.438.027 4.877.836 4.985.317 1.122-5.368-2.407-3.542-3.234-4.041-4.39-2.647zm11.127 16.687c0 .638-1.807 1.96-4.015 2.937-3.582 1.586-3.75 1.88-1.57 2.734 2.306.902 2.292.96-.253 1.045-2.766.09-4.802 3.16-3.497 5.273.404.653 1.88-.27 3.277-2.047 2.033-2.585 2.9-2.936 4.33-1.75 1.443 1.197 1.634 1.085.994-.582-.436-1.135-1.298-2.064-1.915-2.064s-1.123-.626-1.123-1.392c0-.766.87-1.057 1.934-.65 1.963.753 4.098-2.404 2.623-3.88-.43-.432-.785-.262-.785.376zm767.036 271.583c0 1.376 11.954 14.34 13.203 14.317.691-.012.29-.586-.89-1.275-1.312-.764-1.84-2.055-1.36-3.311.492-1.281.287-1.748-.543-1.236-.733.454-2.237-.556-3.343-2.242-1.258-1.921-1.537-3.36-.746-3.85 2.031-1.254.084-3.121-3.252-3.121-1.689 0-3.069.323-3.069.718zm-337.897 6.689c-2.189 2-4.297 3.32-4.68 2.934-.387-.385-.703-.04-.703.766 0 .807-.424 1.4-.943 1.319-2.637-.416-4.14.304-3.339 1.6.532.86.35 1.112-.452.617-.743-.46-2.245.06-3.337 1.153-1.094 1.094-1.988 1.557-1.988 1.028 0-.526-.89.14-1.98 1.483-1.089 1.342-1.595 1.69-1.126.776.538-1.048-1.098-.67-4.41 1.022-3.783 1.929-5.053 3.247-4.506 4.67.663 1.728.481 1.759-1.394.237-1.85-1.501-2.003-1.496-1.08.036.83 1.377.527 1.592-1.33.939-2.334-.818-2.333-.787.033 1.045 2.206 1.707 1.83 2.49-.962 2.007-.57-.1-.679.4-.24 1.108.438.709 1.611 1.289 2.608 1.289.997 0 1.813.424 1.815.943.005 2.122 11.295 8.035 13.815 7.235 1.411-.45 2.196-1.413 1.743-2.145-.472-.763-.077-1.08.925-.742.961.323 2.496-.31 3.412-1.408 1.334-1.601 1.502-1.622.85-.111-.449 1.038.1.755 1.218-.63 1.118-1.382 2.576-2.513 3.237-2.513s1.29-.566 1.393-1.258c.105-.691 1.094-2.007 2.201-2.922 1.55-1.284 1.58-1.458.124-.758-1.037.499-.588-.353.996-1.892 1.992-1.934 2.631-3.595 2.066-5.373-.544-1.716-.353-2.287.576-1.712.941.58 1.392-1.021 1.392-4.947s-.45-5.528-1.392-4.947c-.937.58-1.115-.014-.544-1.812 1.1-3.464.76-3.382-3.998.963zm286.84 52.27c-2.003 1.55-24.012 17.142-48.909 34.648-24.898 17.507-45.458 32.307-45.689 32.89-.233.582-.94.739-1.572.348-.632-.391-1.15-.078-1.15.695 0 .774-.502 1.097-1.115.717-.613-.378-1.409.438-1.769 1.815-.359 1.375-.14 2.185.486 1.796.627-.387 1.14-.071 1.14.702 0 .773.566 1.056 1.257.629.692-.428 1.258-.301 1.258.28 0 7.63 17.341.384 43.21-18.057 11.086-7.901 20.894-14.084 21.796-13.738.901.345 1.648-.061 1.661-.903.012-.844 5.17-5.211 11.464-9.706 26.542-18.96 29.095-21.29 28.093-25.632-.498-2.155-.958-4.91-1.022-6.12-.064-1.208-.42-2.242-.79-2.296a81.917 81.917 0 0 1-2.69-.49c-1.108-.216-3.655.874-5.659 2.423zm-410.136 6.138-5.008 7.745 3.934 2.093c2.162 1.15 5.182 3.274 6.708 4.716 3.542 3.343 3.915 3.308 8.187-.786 3.112-2.981 4-3.242 7.083-2.077 11.555 4.36 9.352-2.637-3.527-11.205l-12.372-8.231zm172.107 103.382c-3.306 5.602-3.599 4.878 3.006 7.4 3.104 1.187 6.71 3.51 8.011 5.165l2.366 3.008 2.334-2.58c1.692-1.87 3.292-2.386 5.821-1.88 7.408 1.482 3.182-3.584-8.678-10.4-10.837-6.228-9.645-6.163-12.86-.713zm-279.71 179.408c-.798.508 92.762.795 207.912.639 115.15-.157 175.695-.432 134.546-.61-197.394-.853-341.144-.865-342.458-.03zm583.73.057c.542.539 8.58.82 17.86.623l16.874-.357-17.859-.624c-9.823-.343-17.417-.182-16.875.358zm-132.904 2.79c1.48 3.248 4.337 4.512 3.138 1.388-.46-1.198.496-1.928 3.01-2.297 2.493-.366 3.682-.002 3.682 1.128 0 .917-.83 1.668-1.847 1.668-1.035 0-1.559.747-1.194 1.7.823 2.14 6.814 1.17 6.814-1.113 0-.9-.424-1.872-.943-2.162-.52-.29-.273-.37.547-.175.82.194 1.765-.325 2.101-1.15.454-1.115.636-1.097.71.07.054.866.982 1.573 2.06 1.573 1.077 0 1.643.513 1.256 1.14-.389.627.428.844 1.812.482 2.85-.746 3.465 1.955 1.007 4.416-.83.83-1.072 1.51-.539 1.51 4.024 0 5.375-5.151 1.99-7.585-2.32-1.668-.69-1.916 16.661-2.528 18.024-.635 17.32-.696-11.232-.943l-30.465-.264zM5.46 1008.939v15.75h3.772c2.672 0 3.773-.6 3.773-2.08 0-1.84.31-1.8 2.646.32 3.227 2.92 4.07 2.75 4.95-.97.69-2.92 7.493-4.87 7.493-2.15 0 .69-.566.91-1.258.48-.69-.43-1.257-.14-1.257.63s-.707 1.05-1.572.61c-.864-.44-.486.08.84 1.16 1.82 1.48 2.83 1.61 4.117.55.938-.78 2.042-1.08 2.453-.67.411.41 1.57-.08 2.574-1.08 2.116-2.12 6.677-2.45 6.677-.5 0 .74.566.99 1.258.56 1.87-1.16 1.52-3.14-.555-3.14-.997 0-2.133-.52-2.524-1.15-.412-.67.708-.78 2.674-.25 3.338.89 5.672 3.91 3.024 3.91-.748 0-1.362.57-1.362 1.26 0 2.48 2.761 1.17 7-3.32 5.964-6.33 5.496-8.61-1.11-5.41-2.46 1.18-2.523 1.14-.59-.43 1.642-1.33 1.807-2.09.692-3.21-1.116-1.11-.897-1.46.913-1.46 2.303 0 2.304-.06.06-1.7-1.276-.93-1.949-2.29-1.496-3.03.514-.83-.237-1.13-2.01-.8-1.556.29-2.12.19-1.25-.23.868-.41 1.205-1.35.75-2.09-.493-.795-.239-.977.62-.45.836.52 1.451.14 1.451-.886 0-1.234.986-1.598 3.196-1.175 3.04.582 3.092.726 1.063 2.97-1.258 1.39-1.538 2.36-.682 2.36.8 0 1.453.85 1.453 1.88 0 1.04.603 1.89 1.341 1.89.771 0 1.002 1.07.545 2.51-.608 1.92-.227 2.52 1.591 2.52 3.66 0 4.296-1.43 1.87-4.2-1.96-2.24-1.974-2.43-.128-1.76 1.432.52 2.3-.09 2.79-1.97.658-2.52.834-2.56 2.324-.57.887 1.19 2.744 3.02 4.127 4.07 1.383 1.06 1.666 1.63.63 1.27-1.382-.47-1.887.3-1.887 2.88 0 2.51.628 3.51 2.2 3.51 2.602 0 2.776-.87.63-3.12-1.283-1.35-1.074-1.5 1.124-.84 1.705.51 3.438.07 4.716-1.2 2.52-2.53 2.532-3.1.057-3.1-1.077 0-1.647.51-1.265 1.12.384.62-.15 1.45-1.183 1.85-2.326.89-2.408-.51-.207-3.52 1.41-1.93 2.116-2.05 4.51-.77 1.56.84 3.165 1.19 3.566.79.403-.4.07-.73-.735-.73-.808 0-1.468-.79-1.468-1.77 0-2.18-4.994-1.24-7.07 1.32-.778.97-2.298 1.41-3.38 1-2.31-.89-1.395-4.32 1.154-4.32 2.12 0 2.173-.64.348-4.045-1.217-2.275-1.105-2.51.843-1.762 1.315.506 2.67.193 3.27-.752.798-1.257 1.03-1.266 1.044-.043.01.866.834 1.572 1.83 1.572.998 0 2.116.49 2.486 1.089.37.599-1.078.885-3.217.636-3.207-.373-3.635-.144-2.44 1.296 1.63 1.96 6.307 1.23 8.276-1.3 2.186-2.806 15.192-4.706 17.918-2.617.9.689 1.572.715 1.572.06 0-.63 1.132-1.228 2.515-1.333 1.383-.104 2.515.303 2.515.905 0 1.636-3.945 2.563-7.86 1.848-1.924-.352-3.457-.064-3.457.649 0 .705.566 1.282 1.257 1.282.692 0 1.258.776 1.258 1.736 0 .95.943 2.51 2.095 3.45 1.891 1.56 2.008 1.38 1.207-1.83-.634-2.55-.473-3.311.561-2.67.796.49 1.81.33 2.25-.36 1.431-2.223 6.946-3.403 6.143-1.31-.4 1.04.034 1.82 1.011 1.82.942 0 1.42-.47 1.064-1.046-.356-.576-.048-1.047.684-1.047.732 0 1.331.848 1.331 1.883 0 1.04 1.02 1.89 2.264 1.89 1.245 0 2.882.62 3.64 1.37.754.76 2.424 1.16 3.708.89 1.791-.38 1.231-1.03-2.4-2.79-5.167-2.5-7.043-4.442-4.457-4.605 9.134-.577 13.495-1.06 16.421-1.813 2.061-.531 3.458-.383 3.458.367 0 .69-1.188 1.568-2.642 1.948-1.623.425-2.288 1.26-1.725 2.172.504.82.137 1.98-.816 2.58-1.377.87-1.289 1.1.43 1.12 1.522.01 1.923.67 1.357 2.22-.7 1.92-.439 1.88 2.04-.3 2.685-2.36 2.93-2.38 4.448-.3 1.51 2.06 1.712 2.07 3.344.06 1.53-1.88 1.468-2.03-.51-1.29-1.438.54-2.509.16-2.973-1.05-.398-1.03-1.59-1.73-2.65-1.55-1.06.19-2.175-.37-2.478-1.23-.302-.864.307-1.572 1.352-1.572 1.046 0 2.77-.87 3.832-1.932 2.182-2.18 3.187-2.224 5.574-.242 1.042.863 1.987.93 2.515.178 1.317-1.875 19.244-1.502 18.521.384-.323.842-.11 1.825.472 2.186.582.36 1.354-.47 1.714-1.846.36-1.375 1.332-2.501 2.162-2.501.854 0 1.182.857.755 1.968-.752 1.962 3.924 1.45 5.516-.602 1.717-2.213 20.416-1.441 19.631.81-.67 1.927-.564 1.973.8.339.997-1.196 4.317-2.018 9.062-2.248 21.58-1.044 1.274-1.524-64.357-1.524H68.6l-1.83 4.59-1.83 4.593-2.707-2.706c-3.554-3.555-3.424-5.183.36-4.498 1.684.306 3.391.023 3.795-.63.45-.73-11.14-1.232-30.098-1.305l-30.83-.12zm650.188-12.854c.548 4.224-.143 5.384-1.858 3.125-1.317-1.735-2.339-1.96-4.675-1.024-1.646.659-2.284 1.234-1.42 1.278.865.043 1.572.645 1.572 1.335s-.694 1.12-1.542.94c-.849-.17-1.736.96-1.974 2.52-.27 1.77-1.31 2.83-2.785 2.83-1.294 0-2.702.56-3.13 1.26-.969 1.57-.368 1.57 3.691.03 1.774-.68 3.225-1.81 3.225-2.52 0-2.19 5.251-6.736 6.134-5.31 1.202 1.95 7.698 3.33 7.698 1.64 0-.76-.707-1.41-1.572-1.43-.885-.02-.506-.84.87-1.885 2.128-1.61 2.168-1.846.313-1.846-1.169 0-2.126-.566-2.126-1.257 0-.692-.59-1.258-1.313-1.258-.722 0-1.22.708-1.108 1.572zm237.676 13.424c-.975.61-2.532.83-3.458.47-.928-.35-1.687-.02-1.687.75 0 .76 1.098 1.39 2.441 1.39 1.343 0 2.79.56 3.218 1.26.43.69-.49 1.25-2.064 1.25-2.209 0-2.504.34-1.33 1.51 2.052 2.06 1.895 3.52-.378 3.52-3.44 0-1.954 1.88 2.614 3.31 5.31 1.66 5.58 1.26 5.133-7.62-.322-6.38-1.406-7.79-4.489-5.84zm-837.567 5.1c0 .79.43 1.16.957.84.527-.33 2.05.2 3.384 1.18 2.117 1.55 2.155 1.78.3 1.78-1.169 0-2.126.62-2.126 1.39 0 .83.88 1.02 2.2.48 2.512-1.05 3.396-1.03 8.126.1 2.328.56 4.053.17 5.435-1.21 1.723-1.72 1.745-2.02.152-2.02-1.03 0-2.087.65-2.35 1.44-.478 1.43-5.78-.56-7.276-2.73-1.172-1.7-8.802-2.78-8.802-1.25z" clip-rule="evenodd"/><path fill="#8ebbc5" fill-rule="evenodd" d="M250.02 50.008c-24.918 11.32-17.452 47.952 9.773 47.952 20.178 0 32.14-24.878 19.615-40.8-1.4-1.78-3.153-2.858-3.896-2.4-.807.5-.984.244-.44-.638 2.946-4.767-16.564-7.97-25.053-4.114zm-91.638 9.082c-9.32 7.333-9.09 20.717.443 25.646 4.696 2.428 6.976 2.5 4.806.153-.892-.964-2.107-1.46-2.699-1.1-1.599.97.552-5.164 2.191-6.243.771-.508 1.968-.888 2.66-.844.691.044.55.366-.315.714-2.32.937-1.909 2.926.63 3.028 1.88.076 1.834.245-.316 1.17-1.383.594-1.949 1.185-1.257 1.314.691.128 1.823.364 2.515.525.691.16 1.823.419 2.514.572.692.154.126.766-1.257 1.36-2.399 1.032-2.385 1.086.314 1.17 1.557.048 2.83-.511 2.83-1.243 0-.732.48-1.035 1.065-.674 2.17 1.34 8.035-6.39 7.095-9.35-.583-1.84-.428-2.51.454-1.963 1.93 1.193.582-7.897-1.683-11.354-1.244-1.9-2.727-2.608-4.689-2.242-1.58.295-2.16.199-1.292-.213 2.978-1.415.16-3.051-5.256-3.051-3.587 0-6.54.886-8.753 2.625zm730.371 177.414c-4.088 4.523-23.208 41.496-23.208 44.875 0 4.528-3.989 4.032-12.77-1.587-9.815-6.28-12.032-6.9-13.255-3.711-.967 2.519 7.742 11.063 9.91 9.722.84-.52 1.066-.31.557.515-1.02 1.65 3.42 4.34 5.02 3.043.608-.494.691-.39.184.234-.508.623-.023 1.792 1.078 2.596 3.577 2.617-4.605 17.005-9.47 16.654-2.022-.145-3.58-.762-3.467-1.37.313-1.667-11.54-8.374-16-9.054-3.234-.492-3.45-.39-1.257.59 3.281 1.466 4.955 5.169 2.337 5.169-1.017 0-1.848-.883-1.848-1.961 0-1.077-.593-1.593-1.319-1.145-2.029 1.255.557 3.688 10.863 10.216l9.232 5.849-2.157 3.76c-1.187 2.068-6.543 8.315-11.903 13.882-8.987 9.334-12.192 13.233-8.058 9.8.928-.768 2.046-1.04 2.485-.602.437.439 1.57.156 2.515-.63.944-.782 2.042-1.101 2.437-.704 1.127 1.126 6.123-1.985 5.306-3.306-.4-.65.148-.843 1.222-.431s1.952.123 1.952-.643-.83-1.392-1.847-1.392c-1.169 0-1.566-.732-1.082-1.992.615-1.603.971-1.665 1.827-.314.585.923 1.072 1.064 1.083.315.01-.75.867-1.363 1.905-1.363 1.037 0 1.886.472 1.886 1.049 0 .576-.566 1.048-1.257 1.048-.692 0-1.258.635-1.258 1.41 0 .976.584.928 1.886-.153 1.038-.861 1.886-2.378 1.886-3.371 0-.995.491-1.504 1.09-1.134 1.711 1.058 5.571-3.92 4.491-5.79-.524-.908-.488-1.228.083-.711.983.892 9.423-7.5 9.424-9.372.002-.488 2.337-.063 5.19.943 2.853 1.007 6.39 1.764 7.86 1.682 1.86-.104 1.525-.392-1.103-.95-2.933-.621-3.86-1.567-4.169-4.252-.484-4.191.501-4.321 4.718-.622l3.224 2.829-3.048-3.458c-1.678-1.901-3.734-3.458-4.57-3.458-.836 0-1.816-1.133-2.178-2.516-.362-1.384-.144-2.2.482-1.812.627.388 1.14-.391 1.14-1.731s.887-3.17 1.97-4.07c1.082-.898 2.763-3.17 3.734-5.047 1.166-2.255 4.654-4.764 10.291-7.4 16.692-7.808 21.278-18.554 4.808-11.27-6.976 3.087-7.544 2.802-5.95-2.975 1.093-3.956.982-4.304-1.184-3.738-3.164.827-1.83-3.047 1.4-4.073 1.907-.605 3.431-3.16 3.38-5.665-.006-.346.647-1.861 1.453-3.367 1.555-2.906.723-7.154-1.172-5.982-.619.382-1.126.03-1.126-.783 0-.862 1.2-1.25 2.875-.928 2.143.41 2.873-.034 2.873-1.741 0-2.69-.822-2.873-3.218-.716-1.188 1.07-1.107.568.253-1.572 1.1-1.73 2.83-3.077 3.842-2.997 1.013.08 1.828-.485 1.812-1.257-.09-4.138.557-5.806 2.252-5.806 1.037 0 1.886-.566 1.886-1.257 0-2.785-3.742-.967-8.228 3.998zM37.856 268.407C1.113 302.05-3.152 317.464 1.567 399.557l.75 13.016 13.83-10.594c7.608-5.827 13.698-11.24 13.533-12.027-.165-.79.495-1.128 1.467-.756 1.097.42 3.716-1.785 6.901-5.817 4.744-6 5.681-7.836 5.283-10.355-.082-.52.417-.943 1.11-.943.69 0 1.256-1.132 1.256-2.515 0-1.383-.548-2.515-1.218-2.515-.67 0-.892.849-.495 1.887.4 1.037.098 1.886-.667 1.886-.766 0-1.392.76-1.392 1.69 0 .93-1.132 2.717-2.515 3.968-1.426 1.29-2.515 1.647-2.515.824 0-.8.566-1.453 1.258-1.453.691 0 1.257-.68 1.257-1.508 0-1.03-.41-1.1-1.286-.223-1.44 1.44-9.082.732-8.163-.756.324-.522 2.015-.675 3.76-.341 2.562.49 3.174.107 3.174-1.98 0-3.494-2.21-4.63-4.794-2.463-1.862 1.56-2.493 1.42-5.15-1.134-1.666-1.601-2.374-2.911-1.572-2.911.801 0 1.448-.991 1.438-2.201-.015-1.714-.26-1.823-1.1-.494-.595.938-1.399 1.193-1.785.568-.386-.625-.163-1.96.496-2.964 1.603-2.443 5.257 2.058 4.248 5.233-.377 1.188-.07 2.54.678 3.004 1.573.972 5.297-1.692 4.398-3.146-.33-.535.24-1.672 1.27-2.527 1.03-.855 1.873-2.147 1.873-2.873 0-.725.99-2.438 2.2-3.806 2.145-2.425 2.108-2.465-1.415-1.607-3.02.735-3.488.542-2.83-1.172.433-1.13.788-2.36.788-2.733 0-.374.947.097 2.103 1.047 1.87 1.533 2.026 1.419 1.401-1.01-.513-1.991-.23-2.553 1.04-2.066.96.368 1.743 1.054 1.743 1.524s1.132.94 2.515 1.045c1.986.15 2.514-.586 2.514-3.505 0-2.032-.528-3.694-1.173-3.694s-1.53-1.132-1.97-2.515c-.439-1.383-1.608-2.515-2.6-2.515-2.513 0-2.27.862 1.343 4.757 3.58 3.862 4.076 5.93 1.154 4.809-1.094-.42-2.208-.764-2.475-.764-.268 0-.16-.848.237-1.886.46-1.194-.017-1.886-1.297-1.886-1.11 0-2.02-.85-2.02-1.886 0-1.037-.5-1.886-1.11-1.886-2.006 0-2.29-5.895-.4-8.318 1.442-1.85 1.692-1.914 1.135-.288-.664 1.94 2.51 6.09 4.66 6.09.52 0 .57-1.697.115-3.771-.7-3.197-.45-3.773 1.653-3.773 1.363 0 2.805-.848 3.204-1.886.397-1.037.034-1.895-.809-1.905-1.085-.014-1.038-.333.16-1.091 1.246-.79.82-1.29-1.625-1.904-1.823-.458-2.999-1.342-2.614-1.965.386-.624.126-1.49-.577-1.924-1.644-1.016-1.657-3.156-.02-3.156.691 0 1.257.606 1.257 1.346 0 1.469 3.645 5.529 4.288 4.776 1.08-1.267 1.766-60.188.708-60.842-.654-.404-5.299 3.029-10.322 7.63zm599.297 50.97c-8.026 4.65-19.578 6.164-46.986 6.15-10.72-.004-38.084.667-60.81 1.49-45.258 1.642-50.582 1.234-62.945-4.83l-6.562-3.22-28.835 10.74c-15.86 5.906-38.17 14.12-49.583 18.252-131.946 47.778-153.055 78.87-120.843 178.002 16.206 49.874 38.3 103.672 42.01 102.295.826-.307 4.613-1.266 8.417-2.131 12.227-2.784 21.655-6.44 37.543-14.555 15.37-7.852 19.85-8.877 18.365-4.2-.43 1.36-.148 2.366.666 2.366.78 0 1.013.654.52 1.453-.616.996-.345 1.103.867.338 2.427-1.528 14.97-1.954 14.97-.508 0 .644 1.698.83 3.772.415 2.075-.415 3.773-.228 3.773.416s3.907 1.139 8.681 1.1c4.85-.04 8.371-.573 7.98-1.21-.404-.651 1.277-.817 3.92-.388 3.196.518 4.36.323 3.77-.631-.56-.908.074-1.138 1.86-.671 1.49.389 2.71.135 2.71-.566s.877-.937 1.951-.525c1.275.489 1.64.243 1.052-.708-.602-.973-.205-1.19 1.192-.653 3.265 1.252 2.557-3.037-1.069-6.476-1.714-1.627-2.84-3.407-2.5-3.956.34-.548-.234-1.324-1.274-1.723-1.04-.4-1.753-1.165-1.585-1.704.168-.538-1.24-2.508-3.13-4.38-4.5-4.45-4.34-5.781.962-7.995 5.517-2.307 5.837-.04-3.817-27.145-23.329-65.503-22.81-73.976 5.248-85.742 7.064-2.961 66.371-22.207 68.434-22.207.55 0 1.367 3.253 1.817 7.23 8.977 79.309 16.914 98.85 68.05 167.553 13.125 17.636 29.153 39.42 35.616 48.412 6.464 8.99 11.861 16.492 11.996 16.67.133.178 6.703-5.528 14.6-12.682 17.972-16.282 21.173-18.16 20.13-11.812-.088.538.69 1.304 1.73 1.704 1.04.398 1.578 1.23 1.195 1.85-.382.619-.063 1.126.71 1.126.774 0 1.057.566.63 1.257-.428.692-.146 1.258.628 1.258.773 0 1.096.502.718 1.114-1.195 1.93 5.891 2.516 7.767.64.964-.964 1.353-1.754.864-1.754s.574-1.465 2.365-3.256c1.911-1.91 3.88-2.868 4.767-2.32.958.593 1.183.403.614-.516-.623-1.01.687-1.453 4.281-1.453 3.466 0 4.894.46 4.318 1.392-.598.968.337 1.129 3.07.528 2.54-.557 3.93-.373 3.93.52 0 .845 1.22 1.075 3.143.592 1.936-.487 3.143-.254 3.143.605 0 4.303 12.533 1.419 18.226-4.193 6.352-6.262 6.777-7.562 3.115-9.522-1.402-.751-2.254-1.843-1.893-2.427.361-.585-.224-1.401-1.302-1.814-1.077-.414-1.624-1.293-1.214-1.956.408-.661-.42-1.826-1.842-2.586-1.423-.761-2.29-1.863-1.929-2.446.361-.585-.224-1.401-1.302-1.815-1.077-.413-1.604-1.325-1.17-2.026.433-.702-.097-1.615-1.179-2.03-1.08-.415-1.965-1.483-1.965-2.371 0-.89-.885-1.957-1.965-2.372-1.15-.44-1.589-1.412-1.057-2.335.501-.87.488-1.202-.026-.741-.516.462-2.02-.088-3.346-1.222-2.675-2.291-3.3-4.704-.836-3.223 1.214.73 1.207.493-.033-1.037-1.37-1.693-.659-2.832 4.885-7.816l6.49-5.835-4.885-6.796c-11.478-15.971-32.373-44.398-48.105-65.446-37.156-49.713-39.083-56.165-24.983-83.593 3.74-7.277 11.016-21.434 16.166-31.462 20.97-40.823 26.308-73.853 15.907-98.395-2.959-6.98-2.338-6.858-10.563-2.091zM731 318.176c-6.372 3.863-8.246 7.293-4.086 7.48 1.437.066 1.628.329.552.76-2.547 1.018 2.014 5.428 5.615 5.428 4.037 0 9.058-4.954 6.481-6.396-2.178-1.22-7.304-.105-7.304 1.588 0 .65-.609.808-1.352.348-.865-.533-.405-1.718 1.274-3.282 1.443-1.345 3.102-2.151 3.684-1.79.583.359.782-.884.441-2.765-.348-1.924-.138-2.97.481-2.388.603.567 1.105 1.932 1.114 3.034.01 1.103.724 2.242 1.588 2.53 2.385.802 1.88-2.787-.728-5.144-2.849-2.58-2.475-2.608-7.76.597zM19.906 336.59c.007 1.193-.547 2.57-1.234 3.059-.792.567-.659 1.479.367 2.505 1.89 1.89 4.25-.713 3.18-3.503-.412-1.074.21-1.38 1.904-.937 2.413.63 2.382.809-.755 4.33-1.985 2.228-3.6 3.147-4.1 2.336-.532-.86-1.463-.556-2.603.849-1.514 1.863-1.515 2.029-.008 1.12 1.198-.721 1.477-.596.867.389-1.282 2.076-3.263 1.793-3.263-.466 0-1.053-1.414-2.454-3.143-3.112-1.73-.657-3.144-1.775-3.144-2.483 0-.71-.796-1.29-1.768-1.29-1.15 0-1.539-.88-1.11-2.514.361-1.383.914-2.515 1.23-2.515 1.345 0 3.698 3.283 3.27 4.567-.523 1.568 4.452 3.258 6.275 2.13.646-.398.407-1.21-.532-1.805-1.33-.842-1.22-1.086.494-1.101 1.21-.01 2.2-.867 2.2-1.905 0-1.037-.47-1.886-1.047-1.886s-1.049-.875-1.049-1.946c0-1.743.207-1.74 1.978.03 1.087 1.089 1.983 2.955 1.99 4.148zm12.335-.14c-.587 1.53-.324 1.844.982 1.165 1.114-.58 1.034-.302-.21.737-1.099.915-1.763 2.359-1.477 3.207.526 1.56-5.412 7.888-7.399 7.888-.59 0-1.074.849-1.074 1.886 0 1.038.566 1.887 1.258 1.887a1.26 1.26 0 0 1 1.257 1.257c0 .692-1.114 1.258-2.476 1.258-1.712 0-2.245-.598-1.73-1.938.407-1.065.25-1.847-.355-1.737-2.694.492-2.799-.283-.364-2.717 1.44-1.441 2.96-2.281 3.373-1.866.415.414 1.93-1.661 3.368-4.611 3.854-7.912 7.038-12.124 4.847-6.416zm9.684 18.79c0 2.347-.518 3.08-1.822 2.579-1.168-.447-1.59-.094-1.176.984.355.926 1.676 1.414 2.937 1.084 2.357-.617 4.73 1.657 3.262 3.126-.452.452-1.349-.011-1.993-1.028-.644-1.017-1.222-1.567-1.285-1.221-.827 4.507-1.162 5.517-2.04 6.162-1.606 1.18-1.566 5.335.046 4.794.793-.266 1.457-1.284 1.475-2.262.055-2.941 1.818-4.856 3.78-4.103 1.37.526 1.845-.264 1.845-3.064 0-2.193-.79-4.076-1.886-4.497-1.037-.397-1.886-1.34-1.886-2.095 0-.753.527-1.045 1.17-.647.645.398 1.49.207 1.88-.423.39-.63-.184-1.49-1.274-1.906-2.934-1.127-3.033-1.044-3.033 2.517zm-18.862 8.758c0 .469-1.84.537-4.086.152-2.247-.386-3.345-.397-2.439-.027 1.28.523 1.16 1.215-.535 3.088-1.803 1.993-1.894 2.685-.522 3.957 1.316 1.22 1.48 1.214.777-.03-.488-.864-.288-1.572.444-1.572s1.332.849 1.332 1.886a1.892 1.892 0 0 1-1.887 1.887c-1.037 0-1.886-.488-1.886-1.083 0-.596-1.556-.866-3.458-.602-3.052.425-3.147.343-.807-.697 1.523-.677 2.981-2.83 3.427-5.056.617-3.09 1.414-3.88 3.911-3.88 2.322 0 2.94-.507 2.384-1.957-.413-1.078-1.472-1.683-2.352-1.344-2.343.897-3.305-.601-1.657-2.584 1.317-1.59 7.354 4.865 7.354 7.862zm4.604 11.15c-.424 1.107-1.557 1.606-2.67 1.178-1.064-.407-1.934-.115-1.934.65 0 .766.506 1.392 1.123 1.392.618 0 1.48.93 1.915 2.064.64 1.667.45 1.779-.994.582-1.429-1.186-2.296-.835-4.33 1.75-1.398 1.778-2.873 2.7-3.277 2.047-1.305-2.112.73-5.183 3.497-5.273 2.545-.085 2.56-.142.252-1.045-2.18-.854-2.01-1.148 1.572-2.734 2.208-.977 4.015-2.298 4.015-2.937 0-.638.353-.807.784-.376.43.43.453 1.648.047 2.703zm694.53 56.18c-12.672 5.028-17.48 21.492-9.163 31.378 9.964 11.84 27.221 9.746 34.115-4.142 7.99-16.103-8.27-33.852-24.952-27.235zm-614.24 42.774c-19.557 4.577-26.145 29.41-11.268 42.472 14.753 12.954 38.09 3.913 40.3-15.613.938-8.273-1.707-16.453-5.194-16.061-1.363.152-1.776-.034-.917-.417 2.323-1.031-.589-5.921-2.98-5.003-1.02.39-1.525.176-1.12-.478.403-.654-.953-2.062-3.017-3.128-4.535-2.347-6.865-2.5-5.619-.37.505.866-.213.582-1.597-.628-1.383-1.21-2.754-2.143-3.046-2.074-.29.07-2.785.655-5.543 1.3zm733.205 47.233c-.396 1.939-1.294 7.203-1.993 11.698-1.308 8.393-1.93 11.822-3.277 18.028-.425 1.963-.777 7.62-.782 12.574-.013 11.849-.713 15.028-2.873 13.03-1.109-1.025-1.259-2.212-.464-3.71.928-1.748.655-2.2-1.329-2.2-1.374 0-2.949-.75-3.502-1.668-.554-.918-3.553-3.04-6.665-4.715-8.547-4.601-10.274-7.904-3.458-6.608 5.691 1.082 10.372 3.619 14.106 7.647 1.752 1.888 3.184 2.765 3.184 1.949 0-.818-.566-1.835-1.257-2.263-.692-.427-1.258-1.913-1.258-3.302 0-1.918-.58-2.341-2.413-1.76-1.667.529-2.639.058-3.14-1.524-.77-2.423-5.068-4.487-14.902-7.15-8.882-2.407-10.088 4.286-2.025 11.235 2.386 2.058 2.295 1.758-.512-1.682-3.884-4.758-4.297-7.154-1.425-8.256 2.702-1.038 3.041-.975 3.041.568 0 .732-.566.982-1.258.555-3.02-1.868-.882 3.595 2.83 7.222 2.248 2.198 4.086 4.436 4.086 4.976 0 .539 1.593 2.458 3.54 4.264 1.948 1.806 3.213 3.61 2.812 4.012-.403.4-2.845-1.212-5.428-3.585l-4.696-4.315 4.285 4.665c2.357 2.566 5.186 4.598 6.287 4.517 4.098-.306 6.403.289 6.403 1.653 0 .785-1.109 1.114-2.516.746-1.384-.362-2.213-.167-1.842.434.371.599 2.634 1.458 5.031 1.908 3.962.744 5.946 3.49 3.264 4.52-1.828.7-2.51 14.879-.717 14.879 2.09 0 3.223-3.34 2.336-6.878-.402-1.6-.219-3.223.406-3.61.623-.385.977-2.71.783-5.166-.244-3.104.171-4.465 1.364-4.465 1.147 0 1.484.937 1.02 2.829-.385 1.556-.332 2.5.115 2.098.446-.403 1.041-3.798 1.32-7.545.28-3.747.225-5.681-.119-4.298-.346 1.383-1.12 3.034-1.723 3.668-1.134 1.196-.76-22.546.444-28.188.368-1.73 1.024-5.743 1.458-8.918 2.274-16.666 3.076-19.692 4.62-17.423.995 1.464 1.163 1.348.856-.59-.606-3.821-3.225-3.728-4.017.144zm24.397 41.36c-8.237 4.707-9.999 8.13-4.1 7.962 1.902-.054 2.75-.385 1.885-.733-2.159-.872-1.983-2.94.25-2.94 1.001 0 3.393-1.456 5.313-3.237 1.92-1.78 3.695-2.628 3.942-1.886.248.743 1.205 1.35 2.127 1.35.921 0 1.961.708 2.311 1.572.484 1.2.657 1.178.733-.09.326-5.453-4.939-6.296-12.46-1.997zm-64.143 24.182c0 1.32 3.593 5.152 8.487 9.053 4.668 3.719 7.7 5.788 6.736 4.596-2.39-2.96-1.148-3.771 2.93-1.914 2.417 1.1 3.212 2.229 2.768 3.929-.449 1.716.465 2.972 3.255 4.476 2.135 1.15 4.991 3.148 6.348 4.44 2.016 1.92 2.664 2.035 3.556.628.807-1.275 1.094-1.01 1.11 1.03.013 1.95-.69 2.699-2.41 2.569-1.336-.101-2.22-.517-1.969-.924.252-.41-.06-1.564-.697-2.57-.81-1.28-1.203-.136-1.319 3.834-.09 3.112-.265 6.224-.389 6.915-.123.692-.69 5.078-1.258 9.746-.57 4.667-1.225 8.487-1.458 8.487-1.252 0-7.86-3.346-10.457-5.294-3.67-2.755-5.174-2.851-5.174-.331 0 1.697-.45 1.684-3.91-.105-2.864-1.48-3.648-1.573-2.928-.347.581.99-.006.839-1.433-.371-5.478-4.638-18.283-3.934-14.363.79.811.977 1.087 2.4.614 3.167-1.31 2.12 2.932 6.088 5.726 5.357 3.861-1.01 6.823.568 5.058 2.696-1 1.204-1.044 2.016-.142 2.574.725.447 1.32 1.453 1.32 2.233s-1.84-.243-4.088-2.272l-4.087-3.691 4.306 4.685c3.31 3.6 4.693 4.365 5.973 3.3 1.272-1.054 1.667-.88 1.667.733 0 1.162.527 1.788 1.171 1.39.643-.398 1.501-.187 1.906.469 1.255 2.028-1.81 2.928-4.075 1.195-1.18-.902-.78-.11.89 1.763 2.523 2.835 3.366 3.144 5.028 1.849 1.73-1.35 1.783-1.284.404.483-2.442 3.127 6.026 12.487 9.036 9.989 1.76-1.461 1.934-1.41 1.252.368-.436 1.134-1.39 2.064-2.122 2.064s1.351 2.643 4.628 5.873c5.42 5.343 5.908 6.307 5.405 10.664-.313 2.71.202 6.246 1.187 8.145.958 1.846 1.448 3.649 1.09 4.006-.358.358-.692-.15-.739-1.13-.053-1.052-.53-.751-1.17.734-1.852 4.31-1.428 15.023.698 17.678 1.851 2.31 1.876 2.279.47-.603-1.229-2.52-1.133-3.302.56-4.54 2.566-1.877 2.671-3.614.158-2.65-2.372.91-2.359.655.297-5.475 1.221-2.82 3.054-5.04 4.161-5.04 1.088 0 3.076-.82 4.42-1.822 2.356-1.762 2.342-1.8-.39-1.112-4.163 1.05-3.743-3.69.63-7.09 2.49-1.936 2.685-2.315.698-1.355-1.518.734-3.113 1.907-3.545 2.606-1.163 1.88-3.135.196-2.303-1.968.486-1.27.122-1.634-1.147-1.147-1.182.454-2.108-.23-2.538-1.871-.372-1.423-.163-2.587.464-2.587.626 0 1.14-1.071 1.14-2.38 0-1.31.754-2.67 1.677-3.024.923-.355 1.762-2.536 1.862-4.85.101-2.314.447-7.191.767-10.84.321-3.647.102-6.334-.486-5.971-.589.365-.79 1.729-.449 3.033.923 3.53-1.95 4.57-3.217 1.165-1.275-3.43-.53-6.054 1.72-6.054 1.423 0 3.091-3.618 3.138-6.811.021-1.417-1.807.285-2.026 1.886-.087.635-.228 1.719-.314 2.41-.6 4.803-2.339-.194-2.207-6.342l.163-7.6 5.884-2.093c3.236-1.154 5.683-2.422 5.437-2.82-.247-.398.5-.79 1.66-.87 1.16-.08 3.71-.504 5.667-.94 2.488-.557 3.293-.367 2.677.63-.655 1.06-.2 1.06 1.786-.002 4.652-2.491 2.898-3.734-4.469-3.17-5.133.394-7.975 1.337-10.125 3.358-2.36 2.217-3.209 2.454-4.03 1.128-.863-1.397-1.142-1.392-1.647.032-.335.943-1.015 1.339-1.51.88-.496-.458.033-2.26 1.176-4.006 1.18-1.8 1.85-4.7 1.546-6.71-.51-3.394-.538-3.372-.72.548-.104 2.248-.708 4.086-1.343 4.086s-2.19.364-3.457.808c-2.16.757-2.173.669-.2-1.43 1.588-1.69 1.818-2.988.94-5.296-.884-2.325-.65-3.566.97-5.172 1.998-1.98 2.08-1.973 1.3.088-.56 1.475-.225 2.2 1.012 2.2 1.348 0 1.847-1.512 1.847-5.595 0-3.998.63-5.968 2.201-6.895 1.712-1.011 1.226-1.162-2.2-.68-2.42.342-3.553.25-2.516-.2 1.038-.451 3.365-1.855 5.172-3.118 1.807-1.264 3.737-1.892 4.288-1.392.552.498.64.269.196-.51-.504-.884.355-1.414 2.29-1.414 1.704 0 2.756.552 2.34 1.226-.416.674.411.6 1.84-.165 3.401-1.82 5.21-4.626 2.248-3.49-1.357.52-1.853.335-1.337-.501.452-.731 1.643-1.014 2.647-.628 2.573.988 8.473-3.054 6.841-4.686-.854-.854-1.868-.772-3.097.248-1.186.984-2.102 1.072-2.61.249-.45-.726-4.397 1.339-9.229 4.826-4.645 3.35-9.577 5.956-10.96 5.789-5.365-.65-10.165-2.346-12.574-4.448-3.794-3.308-8.174-5.35-8.174-3.808 0 1.85-1.646 1.612-4.475-.65-2.349-1.878-2.322-1.923.703-1.198 2.793.67 2.881.59.792-.71-1.78-1.11-1.963-1.704-.753-2.452 1.098-.68-.023-1.816-3.57-3.627-6.289-3.207-6.528-3.22-6.528-.347zm-1.53 49.727c2.27 1.188 3.81 2.673 3.422 3.3-.388.628.405 1.736 1.762 2.463 3.74 2 4.975 1.492 1.375-.566-1.729-.988-2.435-1.817-1.57-1.842.864-.024 2.722 1.108 4.131 2.516 1.41 1.41 3.066 2.248 3.685 1.866.62-.382 1.534-.033 2.035.777.614.995.337 1.146-.855.465-3.829-2.184.922 1.579 5.271 4.174 2.487 1.484 4.982 2.282 5.545 1.773.562-.51.638-.254.166.568-.47.82.05 2.002 1.158 2.622 3.307 1.85 3.862 20.306.604 20.06-1.316-.098-2.157-.558-1.869-1.024.775-1.253-5.849-7.507-7.12-6.721-.602.37-.755-.204-.344-1.277.49-1.274.034-1.952-1.31-1.952-1.134 0-2.41-.991-2.835-2.2-.424-1.21-2.166-3.711-3.87-5.557-1.702-1.846-2.757-3.903-2.344-4.572.413-.67-.449-1.53-1.915-1.914-1.958-.512-2.487-1.387-1.99-3.287.372-1.423.251-2.59-.27-2.59-.52 0-2.307-1.2-3.969-2.668l-3.022-2.67 3.144.83c3.02.796 3.008.752-.335-1.154-1.912-1.091-4.399-1.82-5.527-1.617-1.128.2-2.286-.308-2.574-1.13-.722-2.061 4.3-1.353 9.42 1.327zm54.971 44.952a323.883 323.883 0 0 1-7.23 4.249c-4.249 2.404-4.33 2.936-.42 2.702 1.671-.1 2.944-.747 2.83-1.438-.116-.692.923-1.28 2.306-1.304 1.384-.027 3.261-.507 4.171-1.07 3.98-2.46 2.456.565-1.889 3.749-6.635 4.863-7.859 6.12-4.169 4.286 4.153-2.064 11.317-8.903 11.317-10.803 0-2.593-2.994-2.754-6.916-.371zM324.22 725.309l5.03.788-4.4 1.079c-2.422.592-5.49 1.3-6.819 1.573-3.532.722-5.4 2.623-6.36 6.468-.468 1.874-1.734 4.389-2.816 5.588-2.31 2.564.435 11.943 3.31 11.305.855-.19 1.21.21.791.89-2.178 3.523 11.903 6.512 17.32 3.675 16.336-8.555 11.07-33.108-6.936-32.333-3.99.17-3.957.208.88.967zM56.253 781.376c.002 9.683.2 13.478.438 8.433.24-5.044.237-12.966-.003-17.604s-.437-.511-.435 9.17zm680.48 210.032c-1.895 1.432-6.66 1.846-21.255 1.846-18.497 0-18.769.04-16.107 2.348 3.393 2.943 2.246 7.716-1.856 7.716-.533 0-.29-.68.54-1.51 2.458-2.462 1.842-5.163-1.008-4.417-1.384.362-2.2.145-1.812-.482.388-.627-.13-1.14-1.15-1.14s-2.142-.707-2.49-1.572c-.482-1.193-.659-1.202-.734-.04-.054.844-.806 1.36-1.67 1.15-.865-.211-1.149-.145-.63.144.52.29.943 1.264.943 2.163 0 2.284-5.99 3.254-6.814 1.113-.365-.954.16-1.701 1.194-1.701 1.016 0 1.848-.75 1.848-1.668 0-1.13-1.19-1.494-3.683-1.128-2.514.37-3.47 1.099-3.009 2.297.37.966.085 1.757-.634 1.757-.718 0-1.666-1.132-2.105-2.515-.869-2.74-9.789-3.731-11.317-1.257-.428.69-1.45 1.248-2.275 1.238-.9-.012-.744-.507.39-1.238 1.222-.791-56.287-1.226-163.573-1.24-91.002-.01-239.537-.38-330.077-.821-90.54-.442-164.307-.46-163.924-.04.382.42 14.397.819 31.144.887 18.695.076 30.168.58 29.718 1.307-.402.65-2.11.934-3.795.628-3.782-.685-3.913.943-.358 4.498l2.704 2.707 1.831-4.593 1.831-4.591h73.007c65.63 0 85.935.48 64.356 1.524-4.745.23-8.065 1.053-9.062 2.248-1.364 1.634-1.47 1.589-.8-.34.785-2.25-17.914-3.022-19.63-.81-1.593 2.053-6.269 2.565-5.517.603.428-1.111.1-1.967-.754-1.967-.83 0-1.804 1.125-2.163 2.5-.36 1.376-1.132 2.206-1.714 1.847-.582-.361-.795-1.345-.472-2.187.723-1.886-17.204-2.258-18.52-.384-.51.726-1.713.487-3.022-.6-2.428-2.014-2.383-2.02-5.068.664-1.062 1.063-2.786 1.932-3.832 1.932-1.045 0-1.654.708-1.352 1.574.303.86 1.417 1.42 2.477 1.23 1.06-.18 2.254.52 2.651 1.55.464 1.21 1.535 1.59 2.972 1.05 1.98-.74 2.041-.59.511 1.29-1.632 2.01-1.835 2-3.344-.06-1.518-2.08-1.762-2.06-4.448.3-2.479 2.18-2.74 2.21-2.04.3.566-1.55.165-2.21-1.358-2.22-1.718-.02-1.806-.25-.429-1.12.953-.6 1.321-1.77.816-2.581-.563-.912.102-1.748 1.726-2.173 1.453-.38 2.641-1.256 2.641-1.948 0-.75-1.397-.898-3.458-.367-2.926.754-7.286 1.236-16.42 1.813-2.587.164-.71 2.105 4.455 4.606 3.632 1.76 4.192 2.41 2.401 2.79-1.283.27-2.953-.13-3.709-.89-.757-.75-2.394-1.37-3.639-1.37-1.245 0-2.263-.85-2.263-1.89 0-1.035-.6-1.884-1.332-1.884-.732 0-1.04.47-.684 1.047s-.122 1.047-1.064 1.047c-.977 0-1.41-.78-1.01-1.82.803-2.094-4.712-.914-6.143 1.31-.442.69-1.455.85-2.25.36-1.035-.641-1.196.12-.562 2.67.801 3.21.684 3.39-1.207 1.83-1.152-.95-2.095-2.5-2.095-3.45 0-.96-.566-1.737-1.258-1.737-.69 0-1.257-.577-1.257-1.282 0-.713 1.533-1.001 3.458-.65 3.914.716 7.86-.21 7.86-1.846 0-.603-1.133-1.01-2.516-.906-1.383.105-2.515.705-2.515 1.333 0 .655-.672.629-1.572-.06-2.726-2.09-15.73-.19-17.918 2.618-1.97 2.53-6.647 3.26-8.275 1.3-1.196-1.441-.767-1.67 2.44-1.296 2.138.249 3.587-.038 3.216-.637-.37-.598-1.488-1.09-2.485-1.09-.997 0-1.82-.705-1.83-1.57-.016-1.224-.247-1.215-1.044.042-.6.945-1.956 1.258-3.27.752-1.949-.746-2.06-.513-.844 1.762 1.825 3.407 1.771 4.047-.348 4.047-2.549 0-3.464 3.43-1.153 4.32 1.082.41 2.602-.04 3.38-1 2.075-2.56 7.07-3.5 7.07-1.32 0 .97.66 1.77 1.467 1.77.806 0 1.138.33.735.73-.4.4-2.006.05-3.567-.79-2.393-1.28-3.1-1.16-4.51.77-2.2 3.01-2.118 4.41.208 3.52 1.034-.4 1.567-1.23 1.184-1.85-.383-.62.187-1.12 1.265-1.12 2.474 0 2.463.57-.058 3.1-1.278 1.27-3.01 1.71-4.716 1.2-2.198-.66-2.406-.51-1.125.84 2.148 2.25 1.973 3.12-.629 3.12-1.572 0-2.2-1-2.2-3.52 0-2.57.505-3.34 1.886-2.87 1.037.36.754-.21-.629-1.27-1.383-1.05-3.24-2.88-4.127-4.07-1.49-1.99-1.666-1.95-2.325.57-.49 1.88-1.357 2.49-2.789 1.97-1.846-.67-1.832-.48.127 1.76 2.427 2.77 1.792 4.2-1.868 4.2-1.819 0-2.2-.6-1.592-2.52.458-1.44.226-2.51-.545-2.51-.738 0-1.34-.85-1.34-1.89s-.655-1.88-1.454-1.88c-.856 0-.576-.97.682-2.36 2.03-2.245 1.978-2.39-1.063-2.972-2.21-.423-3.196-.06-3.196 1.176 0 1.026-.615 1.406-1.452.886-.858-.528-1.112-.346-.62.45.456.74.12 1.68-.75 2.09-.869.42-.305.52 1.251.23 1.773-.33 2.524-.03 2.01.8-.453.74.22 2.1 1.495 3.03 2.246 1.64 2.244 1.7-.06 1.7-1.809 0-2.027.34-.912 1.46 1.115 1.12.95 1.88-.692 3.21-1.932 1.57-1.87 1.61.59.42 6.607-3.19 7.074-.91 1.11 5.42-4.238 4.49-7 5.8-7 3.32 0-.69.614-1.26 1.362-1.26 2.648 0 .314-3.02-3.024-3.91-1.965-.53-3.086-.42-2.673.24.39.64 1.526 1.15 2.523 1.15 2.075 0 2.426 1.99.555 3.15-.692.43-1.258.18-1.258-.56 0-1.89-4.529-1.65-6.523.34-.92.93-2.323 1.46-3.117 1.2-.795-.27-1.815.11-2.264.84-.572.92 129.717 1.32 433.385 1.3 280.791-.01 433.538-.45 432.318-1.24-1.038-.67-2.877-1.22-4.087-1.23-1.209-.01-2.2-.59-2.2-1.28 0-.69.848-1.26 1.886-1.26 2.273 0 2.43-1.47.377-3.52-1.173-1.17-.878-1.51 1.332-1.51 1.573 0 2.493-.56 2.063-1.25-.427-.7-1.875-1.26-3.218-1.26-3.036 0-3.264-2.33-.24-2.45 8.214-.34 7.86.07 7.86-9.32v-8.715l-44.325.496c-65.02.728-115.67.114-114.74-1.39 1.042-1.688.466-1.531-2.442.669zm-78.665 4.36c0 .693.957 1.258 2.126 1.258 1.855 0 1.815.237-.314 1.846-1.374 1.036-1.754 1.866-.869 1.886.865.02 1.572.67 1.572 1.43 0 1.69-6.496.31-7.698-1.64-.883-1.427-6.134 3.12-6.134 5.31 0 .71-1.45 1.84-3.225 2.52-4.059 1.54-4.66 1.53-3.69-.03.427-.7 1.835-1.26 3.13-1.26 1.474 0 2.514-1.06 2.784-2.83.238-1.56 1.126-2.69 1.974-2.52.848.18 1.542-.25 1.542-.94s-.707-1.293-1.572-1.336c-.864-.044-.226-.618 1.42-1.277 2.336-.936 3.358-.712 4.675 1.023 1.715 2.26 2.407 1.1 1.86-3.125-.115-.863.384-1.571 1.106-1.571.722 0 1.313.565 1.313 1.257zm-593.51 20.09c1.497 2.17 6.798 4.16 7.276 2.72.263-.78 1.32-1.43 2.35-1.43 1.593 0 1.57.3-.152 2.02-1.382 1.38-3.107 1.76-5.434 1.21-4.73-1.14-5.615-1.15-8.126-.1-1.32.54-2.2.35-2.2-.48 0-.77.956-1.4 2.126-1.4 1.855 0 1.817-.22-.3-1.77-1.335-.98-2.858-1.51-3.385-1.18-.526.32-.956-.06-.956-.84 0-1.53 7.63-.45 8.802 1.25z" clip-rule="evenodd"/><path fill="#040b24" fill-rule="evenodd" d="M587.213 87.582c.476 1.899 5.643 18.45 11.481 36.78 5.84 18.33 10.915 34.675 11.282 36.32.636 2.862 1.011 2.962 8.347 2.254 78.581-7.586 96.255-8.592 162.345-9.244 64.27-.637 67.432-.927 74.157-6.832 11.797-10.36 18.952-41.523 11.692-50.93-9.788-12.684 2.081-11.742-148.43-11.773l-131.74-.028zM311.016 136.24c-50.479 17.097-81.088 28.445-108.14 40.093-23.784 10.242-29.307 37.523-13.056 64.499l4.453 7.392-4.1 3.427-4.1 3.426 4.943 2.19c9.7 4.295 22.64 3.083 41.41-3.881 42.906-15.918 86.06-27.165 140.063-36.51 28.765-4.975 26.858-3.577 20.217-14.821-11.467-19.418-45.555-75.845-46.313-76.664-.439-.474-16.358 4.407-35.377 10.849zM852.03 492.143c-43.752 12.316-65.544 56.104-68.226 137.084-1.58 47.745-5.476 58.12-26.283 70.004-5.588 3.192-5.709 3.49-3.94 9.657 1.498 5.222.106 6.63-23.554 23.809-19.239 13.967-19.448 14.327-21.71 37.363-2.4 24.428-8.724 36.398-24.59 46.548-19.8 12.666-31.27 31.805-32.874 54.854l-.669 9.61 5.803-1.327c5.383-1.232 6.35-1.041 13.391 2.649 9.383 4.919 10.134 4.919 17.288-.004 12.647-8.701 19.716-2.94 23.618 19.25 2.21 12.569 4.323 16.169 9.491 16.169 8.581 0 12.182-4.022 16.89-18.862 6.715-21.16 20.121-15.61 27.557 11.41 8.902 32.356 35.087-2.82 27.335-36.723-3.784-16.55-4.43-26.918-2.848-45.732 3.22-38.291 10.84-46.186 38.89-40.284 17.752 3.733 22.568-.651 30.34-27.618 8.316-28.863 22.642-38.97 36.304-25.612l3.996 3.905V507.828l-5.132-5.568c-9.618-10.433-25.8-14.42-41.077-10.117zm-6.779 30.299c.463 3.769-1.7 24.33-3.633 34.533-.595 3.139-1.465 13.607-1.933 23.263-.913 18.798-1.473 20.652-5.993 19.788-3.002-.575-3.603-14.105-.675-15.228 2.734-1.048.662-3.783-3.452-4.554-7.988-1.5-26.59-21.852-25.165-27.533 1.078-4.294 20.05.79 21.641 5.8.502 1.583 1.474 2.054 3.141 1.525 1.832-.581 2.413-.16 2.413 1.76 0 1.388.566 2.875 1.257 3.302.692.428 1.258 1.445 1.258 2.262 0 .816-1.432-.06-3.184-1.95-3.734-4.026-8.415-6.564-14.106-7.645-6.816-1.297-5.089 2.007 3.458 6.607 3.112 1.675 6.111 3.798 6.665 4.716.553.918 2.128 1.669 3.502 1.669 1.984 0 2.257.45 1.33 2.2-.796 1.496-.647 2.683.463 3.709 2.16 1.997 2.86-1.182 2.873-13.03.005-4.953.357-10.612.782-12.575 1.347-6.205 1.97-9.634 3.277-18.028 2.056-13.205 2.633-15.248 4.171-14.744.801.263 1.661 2.132 1.91 4.153zm31.072 38.794c3.677 3.676 1.074 5.86-9.905 8.318-10.773 2.412-11.35-1.071-1.119-6.766 6.81-3.791 8.542-4.035 11.024-1.552zm-68.379 25.989c3.635 1.855 4.684 2.939 3.532 3.65-1.144.707.03 1.85 3.897 3.792 3.043 1.529 6.666 3.773 8.05 4.988 2.407 2.112 7.191 3.81 12.573 4.463 1.383.167 6.315-2.44 10.96-5.79 4.832-3.487 8.78-5.551 9.228-4.826.51.824 1.425.736 2.611-.25 1.216-1.007 2.248-1.095 3.082-.262 1.234 1.235-10.567 9.966-19.908 14.728-4.039 2.059-4.087 2.19-4.104 11.168-.009 4.996-.3 10.216-.645 11.599-1.189 4.762 1.384 6.599 4.778 3.412 3-2.818 17.261-5.202 17.261-2.885 0 .56-4.668 3.715-10.374 7.008-5.706 3.295-10.584 6.176-10.842 6.402-.256.225-.676 6.236-.933 13.355-.649 18.03-1.438 31.544-1.944 33.253-.603 2.042 1.02 2.032 4.302-.03 1.548-.972 5.362-3.371 8.474-5.332 8.62-5.43 10.62-6.376 12.292-5.818 4.422 1.474-1.764 8.088-16.106 17.22l-7.806 4.97.617 7.688c.651 8.116-.783 11.92-4.495 11.92-3.448 0-4.958-4.775-4.13-13.064.42-4.225.754-8.532.74-9.57-.015-1.036-.037-4.503-.048-7.702-.019-5.205-.645-6.47-5.946-12.016-3.26-3.41-8.81-9.563-12.34-13.674a2457.82 2457.82 0 0 0-14.13-16.276c-4.276-4.876-7.433-9.574-7.083-10.533.35-.952.012-2.484-.752-3.403-3.674-4.427 9.053-5.331 14.021-.996 1.094.953 2.32 1.405 2.722 1 .403-.403 1.913-.101 3.355.67 2.13 1.14 2.623 1.042 2.623-.526 0-2.531 1.5-2.438 5.174.32 2.57 1.929 9.201 5.295 10.43 5.295.456 0 1.931-11.247 2.805-21.376.327-3.804.83-7.623 1.113-8.488.285-.864.093-1.572-.428-1.572-3.888 0-29.153-19.776-29.153-22.82 0-2.916.227-2.905 6.527.308zM436.6 612.88c2.242 2.766 6.37 7.363 9.17 10.215 4.053 4.127 5.227 6.368 5.745 10.962.588 5.215.884 5.65 3.05 4.492 3.605-1.93-1.865-11.121-13.11-22.033-5.282-5.124-7.266-6.61-4.855-3.636zm-360.953 8.173c-3.72 5.526-4.255 10.059-1.189 10.059 2.941 0 4.386-3.728 3.716-9.593l-.412-3.61zm325.016 12.495c-3.378 2.087-11.635 13.85-11.675 16.633-.006.459 2.816 2.91 6.271 5.448l6.282 4.61 9.402-2.791 9.402-2.79-3.11-3.696c-2.363-2.81-3.109-5.145-3.109-9.732 0-8.913-5.963-12.316-13.463-7.682zM67.88 638.972c-1.043 1.673-2.387 10.027-3.287 20.434-.836 9.682-1.672 17.76-1.858 17.952-.186.19-2.77-2.921-5.745-6.916-9.247-12.425-16.44-20.467-18.305-20.467-3.742 0-1.618 6.639 5.547 17.338 4.035 6.025 9.462 15.02 12.06 19.99l4.722 9.036-1.454 16.09c-.8 8.853-1.67 16.309-1.935 16.573-.6.6-6.026-3.924-19.992-16.671-21.796-19.891-17.73-9.204 5.56 14.615l15.087 15.433-.728 9.439c-.4 5.192-.828 18.306-.947 29.14-.285 25.68-1.56 26.496-11.448 7.335-9.708-18.815-31.524-49.04-35.393-49.04-3.592 0-1.587 5.013 7.86 19.638C43 798.19 42.875 797.75 25.161 785.687c-12.15-8.274-17.187-10.146-17.187-6.39 0 1.955 17.28 17.563 29.387 26.545 9.394 6.967 12.086 9.727 14.485 14.849l2.946 6.29-2.105 18.065c-3.41 29.278-4.343 38.69-5.215 52.644-.452 7.26-1.026 13.427-1.273 13.7-2.02 2.236-24.17-17.795-33.007-29.85l-5.847-7.977-.632 6.72c-.347 3.696-.755 30.343-.906 59.216l-.274 52.498h109.132c118.795 0 114.298.248 128.81-7.1 27.24-13.794 32.148-49.387 6.82-49.465-10.947-.034-18.34 5.459-24.248 18.016-8.184 17.397-21.18 12.299-22.889-8.98-.859-10.705 1.35-14.774 12.51-23.048 25.876-19.182 32.55-44.596 13.875-52.832-11.159-4.921-12.173-5.56-13.74-8.66-.877-1.73-1.58-7.727-1.59-13.542-.06-33.553-30.095-28.386-32.668 5.62-1.209 15.99-7.776 22.166-15.43 14.51l-2.567-2.566-5.885 9.01c-18.75 28.71-50.792 47.363-81.36 47.363H65.816V916.2c0-4.054.146-4.16 8.918-6.42 18.836-4.851 39.081-21.615 48.27-39.97 10.825-21.628 7.361-22.307-7.084-1.388-11.525 16.688-25.2 27.832-41.57 33.876-7.805 2.88-7.8 2.89-5.497-13.62 3.94-28.244 7.022-55.29 7.036-61.742.025-11.672 1.205-16.01 4.357-16.01 11.432 0 37.146-27.053 51.188-53.85 7.958-15.188 4.582-15.46-5.499-.447-13.237 19.714-27.556 34.58-41.257 42.835-7.683 4.628-7.545 5.02-7.545-21.387V754.03l5.553-4.887c5.82-5.125 12.051-15.891 12.051-20.825 0-5.315-4.427-3.436-9.339 3.964-7.53 11.343-8.507 9.608-7.577-13.451l.544-13.508 6.898-11.948c3.794-6.572 10.308-17.592 14.474-24.488 5.608-9.285 7.574-13.74 7.574-17.157v-4.616l-3.895 4.888c-2.142 2.69-5.348 7.435-7.124 10.547-11.695 20.498-16.927 29.057-17.444 28.54-.326-.325.102-11.39.952-24.588 1.8-27.981 1.35-30.358-5.755-30.358-3.2 0-4.88.77-6.165 2.829zm731.022 2.2c1.594 1.384 3.326 2.516 3.846 2.516.522 0 .643 1.165.271 2.589-.493 1.883.03 2.774 1.917 3.268 1.426.372 2.333 1.357 2.015 2.187-.319.828.852 2.85 2.602 4.495 1.75 1.643 3.18 3.756 3.18 4.695 0 .938.957 2.074 2.128 2.523 1.171.448 4.39 3.26 7.154 6.248 6.695 7.234 7.08 6.992 6.512-4.103-.569-11.088-1.993-12.62-20.437-21.952-10.917-5.526-13.524-6.225-9.188-2.465zm-484.113.15c-24.452 3.938-44.95 26.358-40.206 43.977 1.141 4.244 2.8 5.789 14.148 13.203 7.071 4.617 16.45 10.936 20.841 14.039l7.987 5.645-3.852 1.866c-14.92 7.225-16.616 30.97-2.852 39.947 16.187 10.558 35.37-.295 35.37-20.011v-6.908l35.523 22.345c19.538 12.29 51.131 32.21 70.208 44.268l34.687 21.922-3.468 4.4c-12.035 15.277-3.902 36.433 14.8 38.488 11.27 1.239 22.02-7.177 23.858-18.684.682-4.264 1.137-4.812 3.44-4.142 52.168 15.215 85.188-21.823 44.178-49.553a12300.133 12300.133 0 0 1-33.353-22.651c-9.337-6.368-48.38-32.558-86.763-58.2-38.383-25.642-75.03-50.243-81.439-54.668-21.325-14.724-33.969-18.363-53.107-15.282zm335.735 30.053c0 .723-1.309.953-3 .528-2.877-.721-2.976-.528-2.409 4.692 1.622 14.939-5.386 32.105-17.56 43.01-13.95 12.499-16.964 23.512-10.168 37.15 10.28 20.63 34.507 16.779 41.292-6.564l2.105-7.238 31.65-21.092c53.341-35.55 49.505-31.902 42.064-39.974l-5.305-5.754-2.199 5.18c-2.717 6.398-6.202 7.918-12.813 5.588-9.524-3.356-11.93-2.191-17.212 8.342-10.468 20.872-21.832 22.187-38.019 4.4-4.546-4.995-7.592-13.58-7.696-21.69-.056-4.322-.242-7.86-.415-7.86-.174 0-.315.578-.315 1.282zm-298.559 39.012c9.753 6.543 18.893 15.755 10.465 10.545-.674-.416-2.026-.093-3.006.719-1.089.904-3.307 1.142-5.717.613-3.227-.71-4.566-.266-7.4 2.45l-3.462 3.316-6.609-4.45c-3.635-2.444-7.12-4.446-7.74-4.446-2.084 0-1.166-2.71 3.447-10.184 5.62-9.104 4.155-9.21 20.022 1.437zm312.951.377c2.023 3.209-1.636 8.895-6.055 9.407-4.19.486-8.345-2.8-8.318-6.576.06-8.074 9.85-10.002 14.373-2.831zm-334.029 15.158c12.802 6.619 12.457 23.91-.61 30.754-5.418 2.837-19.499-.152-17.32-3.676.418-.68.063-1.08-.792-.89-2.875.639-5.62-8.74-3.31-11.304 1.082-1.2 2.348-3.715 2.816-5.588.96-3.845 2.828-5.747 6.36-6.47 1.33-.271 4.397-.98 6.818-1.572l4.401-1.078-5.03-.79c-4.837-.757-4.87-.795-.88-.966 2.281-.098 5.678.613 7.547 1.58zm315.993 2.345c13.426 8.942 9.16 28.112-6.789 30.504-12.654 1.897-19.745-3.623-19.745-15.37 0-14.914 14.472-23.17 26.534-15.134zm250.102 49.937c0 .677-5.084 5.553-11.297 10.837-21.399 18.2-31.69 47.786-11.966 34.398 6.375-4.326 11.982-6.225 18.386-6.225h6.134v-20.12c0-11.065-.283-20.118-.629-20.118-.345 0-.628.553-.628 1.228zm-380.678 33.509c14.44 8.026 20.626 16.137 10.34 13.556-2.18-.547-3.993-.111-5.607 1.349-2.272 2.056-2.612 1.976-7.197-1.71-2.647-2.126-6.643-4.233-8.88-4.68-4.846-.968-4.843-.942-1.246-7.73 3.406-6.431 2.53-6.377 12.59-.785zm376.737 44.493c-2.512 1.327-8.507 3.504-13.318 4.838-15.716 4.355-19.207 7.239-19.207 15.873 0 12.084 9.256 13.55 25.975 4.112l11.695-6.602.027-10.374c.015-5.706-.115-10.348-.288-10.318-.174.03-2.37 1.14-4.884 2.47zm-242.08 45.256c.432 1.729.794 5.298.803 7.93l.018 4.786 3.772-2.228c4.851-2.865 4.751-4.04-.803-9.3-4.36-4.128-4.539-4.184-3.79-1.188zm1.746 33.636c.781 22.09 4.765 35.285 14.437 47.822l5.216 6.76 1.477-5.815c2.653-10.45 11.82-17.216 25.727-18.991 14.836-1.893 17.045-6.016 9.117-17.014-12.972-17.993-15.804-19.48-34.802-18.27-11.317.72-13.105.538-16.783-1.716-2.265-1.387-4.257-2.521-4.427-2.521-.168 0-.152 4.385.038 9.745zm214.437-4.675c-14.244 7.263-27.242 36.443-24.716 55.486l.808 6.088h55.003v-62.243l-5.973-.124c-3.284-.07-9.085-.528-12.888-1.021-5.758-.747-7.807-.443-12.234 1.814zm-98.538 45.058c-3.868 1.26-11.224 4.61-16.346 7.446-17.337 9.597-18.732 8.985 20.594 9.03 38.944.045 38.26.244 28.277-8.198-10.145-8.58-22.187-11.646-32.525-8.278z" clip-rule="evenodd"/><path fill="#7c8c01" fill-rule="evenodd" d="M842.336 524.548c-.85 2.696-4.473 30.306-4.464 34.025.014 5.503 2.286 2.743 3.192-3.876.447-3.27 1.053-7.358 1.35-9.087 2.043-11.98 1.986-27.603-.078-21.062zM34.812 573.325c-11.594 2.295-20.757 9.765-26.076 21.26-2.592 5.6-2.648 7.217-2.648 74.882v69.159l2.8-.294c4.798-.504 25.754 27.428 35.69 47.574 10.243 20.77 10.776 20.027 11.463-15.96l.553-29.036-15.546-15.534C25.98 710.32 22.544 705.32 25.344 702.52c.95-.951 5.642 2.56 16.104 12.06 16.202 14.708 16.711 14.808 16.896 3.298.06-3.803.582-10.028 1.157-13.831 1.255-8.29-1.168-13.891-15.196-35.124-9.022-13.656-9.962-16.307-6.736-18.984 2.48-2.058 6.493 1.64 16.548 15.25 8.867 12 8.7 12.114 9.828-6.712 1.065-17.796 1.877-20.661 6.336-22.357 10.277-3.907 12.305 1.246 10.658 27.076-1.562 24.483-1.564 24.82-.18 23.966.611-.38 4.936-7.477 9.61-15.775 4.673-8.298 10.41-17.322 12.747-20.053 4.82-5.63 4.825-6.575.176-26.506-8.959-38.408-35.14-58.098-68.48-51.503zm44.836 48.708c0 5.183-2.859 10.34-5.73 10.34-2.654 0-2.27-6.154.686-11.003 3.29-5.397 5.044-5.167 5.044.663zm765.15 14.269c-3.459 1.35-7.279 2.782-8.489 3.182-2.235.738-2.99 3.569-1.24 4.65.527.327 3.33-1.021 6.225-2.996 2.896-1.975 6.85-4.448 8.785-5.498 4.82-2.613 2.304-2.298-5.282.662zM97.891 673.554c-4.694 8.125-10.854 18.453-13.689 22.948l-5.15 8.173-.438 15.55c-.53 18.899.396 20.422 6.672 10.967 5.07-7.638 8.866-9.158 10.145-4.063 1.082 4.307-3.968 14.13-11.029 21.456l-6.013 6.238v23.024c0 12.662.425 23.017.943 23.01 7.897-.1 31.81-23.19 45.568-43.998 2.972-4.495 6.543-9.436 7.935-10.978l2.53-2.804-5.748-6.145c-12.418-13.276-17.552-30.402-20.506-68.408-.975-12.527-1.114-12.464-11.22 5.03zM851.084 687.7c-.427.692-2.158 1.257-3.846 1.257-1.689 0-3.07.5-3.07 1.11 0 .612-1.075 1.393-2.39 1.737-3.23.845-6.06 5.955-3.298 5.955 1.81 0 17.005-9.65 17.005-10.798 0-1.078-3.658-.463-4.4.739zm26.601 43.33c-9.569 3.41-14.409 11.28-20.245 32.909-6.6 24.475-12.195 28.328-34.4 23.696-14.302-2.984-22.519.176-27.879 10.719-6.217 12.229-8.415 50.935-3.95 69.573 4.312 17.999 3.051 31.69-4.243 46.087-7.48 14.759-19.625 11.695-24.477-6.175-6.038-22.238-17.973-27.982-23.954-11.526a4722.465 4722.465 0 0 1-4.484 12.279c-6.599 17.956-22.29 12.35-25.099-8.968-2.416-18.33-9.753-24.24-21.134-17.022-7.24 4.59-10.512 4.706-18.169.629-17.924-9.543-28.728 1.69-15.984 16.62 8.171 9.57 8.147 9.449 2.515 12.93-6.782 4.19-5.854 10.947 2.087 15.197 1.652.884 7.164 1.048 16.011.474 15.415-1 21.093.79 27.073 8.532 17.246 22.332 17.128 25.687-1.008 28.585-16.463 2.63-26.417 10.675-25.674 20.752l.372 5.05 29.92.337 29.92.337 8.962-5.234c30.238-17.66 43.341-17.868 59.994-.951l6.118 6.216 15.878-.352 15.877-.353.412-11.946c.994-28.872 17.258-52.765 35.173-51.671 3.564.218 9.593.474 13.396.57l6.916.175.34-26.092c.388-29.843 1.208-28.375-11.486-20.584-18.958 11.637-34.694 3.645-24.792-12.593 2.475-4.061 4.716-5.122 22.106-10.481 15.048-4.638 14.461-3.696 14.461-23.194 0-21.205-3.147-22.98-22.213-12.526-17.727 9.719-16.306-10.761 1.926-27.748a1878.523 1878.523 0 0 0 14.23-13.408l6.057-5.793v-18.23c0-17.7-.092-18.326-3.142-21.62-2.499-2.695-10.476-7.251-12.22-6.98-.196.03-2.53.832-5.19 1.78zM136.51 746.293c-.522 6.308-14.113 29.023-25.659 42.879-6.823 8.189-18.5 17.402-27.117 21.396l-6.6 3.06-.15 7.138c-.083 3.925-.074 7.588.02 8.138.253 1.519-2.12 21.43-5.769 48.376-3.606 26.637-3.603 26.654 3.087 24.234 15.835-5.726 29.942-17.487 42.287-35.258 13.748-19.791 17.994-17.817 7.473 3.475-9.307 18.835-33.537 38.429-51.134 41.347-4.865.806-8.232 5.19-6.34 8.254 1.058 1.71 19.908.253 29.942-2.317 61.264-15.69 94.525-89.59 65.33-145.15-7.66-14.575-24.846-31.9-25.37-25.572zM6.26 750.119c-.44 3.208-.8 10.835-.8 16.948v11.114l3.086-1.406c2.764-1.26 4.246-.62 14.146 6.105 6.082 4.13 11.878 7.99 12.88 8.577 2.072 1.214-4.53-11.027-10.52-19.51-2.2-3.111-6.98-10.608-10.623-16.66-7.77-12.907-7.162-12.523-8.17-5.168zm-.013 33.475c-.415 1.548-.762 21.377-.77 44.065l-.018 41.25 5.14 7.568c8.587 12.646 32.33 35.864 34.385 33.625.235-.256 1.093-8.387 1.907-18.07.814-9.681 2.593-26.53 3.955-37.44 4.15-33.263 3.628-35.008-14.56-48.678-6.243-4.693-15.387-12.268-20.317-16.833-8.327-7.71-9.02-8.101-9.722-5.487z" clip-rule="evenodd"/><path fill="#ccc7b5" fill-rule="evenodd" d="M424.146 610.102c-9.049 3.957-18.566 4.61-42.714 2.937-14.955-1.037-17.162-.133-20.773 8.513-3.57 8.543-3.048 9.382 12.146 19.538 15.61 10.435 14.72 10.438 19.662-.06 3.337-7.086 9.045-10.42 16.361-9.553 5.586.663 6.123.47 8.036-2.862 2.915-5.08 7.763-7.85 14.937-8.54 7.353-.706 7.455-1.071 2.09-7.492l-4.126-4.938zm278.06 50.112c-5.715 7.226-9.516 8.1-24.289 5.59-18.09-3.074-22.169-2.031-24.943 6.372-7.296 22.105 26.415 51.693 37.025 32.499.764-1.383 1.74-2.798 2.17-3.144.427-.346 2.27-3.59 4.096-7.208 5.546-10.998 8.094-11.804 22.358-7.081 4.967 1.644 10.384-8.92 7.213-14.07-8.713-14.152-18.457-19.496-23.63-12.958z" clip-rule="evenodd"/><path fill="#ffb288" fill-rule="evenodd" d="M434.245 52.118c-7.954.904-15.25 1.686-16.215 1.738-1.39.075-1.597 1.765-.998 8.174 2.072 22.197 16.1 32.858 35.801 27.207 3.91-1.12 4.27-.932 7.267 3.817 12.21 19.34 42.301 5.12 35.093-16.581l-2.05-6.176h-6.227c-11.17 0-20.07-5.534-24.42-15.18-2.603-5.773-3.245-5.843-28.25-3zM896.981 87.82c-1.729.53-5.973 2.398-9.43 4.152-3.459 1.753-8.613 3.885-11.456 4.735l-5.167 1.544-.712 10.856c-.402 6.149-2.049 15.058-3.797 20.544-3.693 11.596-4.173 10.924 7.365 10.29 22.676-1.242 44.614-19.578 44.885-37.516.165-10.864-10.484-18.034-21.688-14.605zM166.9 212.869c-43.24 30.17-50.232 40.37-39.153 57.113 10.385 15.694 27.46 14.043 44.985-4.35 5.17-5.424 10.742-10.712 12.384-11.75 8.462-5.343 8.351-4.904 3.336-13.221-5.136-8.518-7.944-17.1-9.219-28.185l-.875-7.602z" clip-rule="evenodd"/><path fill="#cde801" fill-rule="evenodd" d="M440.95 2.21c-15.023 5.19-23.916 16.87-24.56 32.25-.366 8.742 1.67 7.747-21.808 10.658-21.15 2.623-25.725 4.297-25.725 9.419 0 4.514 1.265 4.732 15.375 2.658 7.105-1.046 19.991-2.48 28.636-3.185 15.647-1.278 39.25-3.58 66.485-6.481l14.302-1.524-.635-7.904c-2.18-27.177-27.26-44.463-52.07-35.89zm-13.427 619.423c-9.462 3.374-14.643 11.88-12.899 21.18 3.727 19.867 35.967 14.47 35.967-6.021 0-13.05-10.194-19.75-23.068-15.16zm-116.16 6.269c-30.976 7.064-53.429 37.377-41.153 55.558l2.44 3.612.72-8.302c3.605-41.484 53.311-51.24 99.888-19.606 11.066 7.516 45.582 30.678 76.704 51.47C600.207 811.02 590.6 803.614 593.122 820.99c.18 1.239 1.121.61 2.745-1.836 6.235-9.387 1.644-25.79-9.795-35-5.206-4.19-131.979-89.474-155.456-104.578-13.927-8.961-40.949-26.633-58.615-38.334-20.165-13.357-40.726-17.88-60.639-13.34zM632.44 726.71c-16.909 5.123-14.754 31.406 2.575 31.406 15 0 23.721-12.191 16.821-23.51-4.229-6.933-12.055-10.12-19.396-7.896z" clip-rule="evenodd"/><path fill="#531c1d" fill-rule="evenodd" d="M473.233 47.928c-12.305 1.365-11.874 1.154-10.83 5.313 2.25 8.96 12.63 15.8 23.984 15.8h6.957V46.405l-4.716.169c-2.593.092-9.52.702-15.395 1.353zm75.438 729.603c0 .329 7.92 5.94 17.6 12.47 9.68 6.528 17.272 11.34 16.872 10.693-.89-1.44-34.472-24.004-34.472-23.163z" clip-rule="evenodd"/></svg>