<svg xmlns="http://www.w3.org/2000/svg" width="1404" height="1256" fill="none"><path fill="#5C7A7D" fill-rule="evenodd" d="M197.646 457.203c0 132.353.081 186.392.18 120.087.1-66.305.1-174.593 0-240.642-.099-66.048-.18-11.798-.18 120.555Zm-4.94 0c0 131.577.081 185.299.18 119.382.1-65.917.1-173.571 0-239.231-.099-65.66-.18-11.728-.18 119.849Zm65.415-206.397c-6.647 4.052-4.956 14.006 2.773 16.321 3.548 1.063 8.44-1.197 10.082-4.657 3.976-8.377-4.956-16.481-12.855-11.664Zm730.477 303.282c-1.975 5.626-10.052 25.68-13.541 33.614-2.375 5.404-4.318 9.929-4.318 10.056 0 .127 28.819.151 64.041.055l64.04-.177 3.07-1.638c4.14-2.208 9.44-7.169 8.97-8.396-.21-.538-.1-.804.24-.594 1 .616 2.81-3.996 2.47-6.308-.23-1.623-.16-1.793.3-.729.49 1.119.68.782 1.02-1.739 1.22-9.079-3.97-18.685-12.51-23.165l-3.56-1.865-54.9-.161c-51.246-.149-54.927-.079-55.322 1.047Zm-705.345 16.408c-11.619 6.136-8.043 23.253 5.692 27.246 4.46 1.297 13.263 1.068 14.15-.367.312-.505.77-.89 1.017-.857.248.033.721.06 1.052.06 1.003 0 4.909-4.047 6.805-7.052l1.785-2.828h145.333l2.305-2.059c3.613-3.228 3.45-9.702-.331-13.168l-2.636-2.415-86.282.031c-84.183.03-86.345.065-88.89 1.409Zm502.719 22.221c.237 2.179-5.631 3.682-6.827 1.749-.241-.391-.915-.711-1.497-.711-.622 0-.851.337-.554.817.357.578.007.671-1.194.32-2.68-.784-5.627-.925-6.021-.287-.199.321-.599.437-.891.257-.527-.326-4.562-.938-9.252-1.404-1.359-.135-2.974-.455-3.591-.711-.616-.257-2.362-.316-3.881-.132-1.518.183-4.447.357-6.507.384-2.307.031-3.58.321-3.311.756.586.947-5.678.927-7.456-.025-.786-.42-1.365-.452-1.365-.075 0 .367-2.405.551-5.469.418-11.587-.501-34.825-.761-29.463-.329 3.105.25-6.739.481-21.876.515-16.439.037-26.812-.186-25.758-.554 1.112-.387-.517-.469-4.411-.219-4.227.271-6.175.153-6.175-.373 0-.424-.317-.769-.705-.769-.985 0-3.501 2.614-3 3.117.227.226.051.411-.389.411s-.618.476-.395 1.059c.223.582.036 1.058-.417 1.058-.452 0-.64.296-.417.657.224.362.079.86-.322 1.107-.401.248-.56.724-.353 1.059.207.334.048.811-.353 1.059-.401.247-.546.745-.322 1.107.223.361.05.657-.384.657s-.571.353-.304.784c.267.432.148.993-.265 1.249-.412.255-.858 1.251-.99 2.214-.132.963-.489 2.148-.793 2.633-.305.486-.337.882-.073.882.265 0 .097.463-.372 1.028s-.665 1.332-.435 1.704c.23.372.15.783-.178.913-.634.252-6.698 22.045-9.59 34.463-7.82 33.582-12.515 68.023-20.876 153.136-9.055 92.177-14.14 115.253-35.464 160.898-19.257 41.221-58.217 126.981-64.905 142.871-7.276 17.29-5.567 22.19 10.043 28.79 25.259 10.66 101.979 23.2 117.527 19.21 4.896-1.26 10.583-4.94 12.855-8.31 8.833-13.1 92.292-199.498 89.324-199.498-.224 0-.054-.426.379-.947.431-.52.577-1.155.321-1.411-.255-.255-.128-.464.283-.464.41 0 .957-.84 1.215-1.867 4.646-18.514 4.988 118.697.471 189.577-1.04 16.34 1.3 18.5 23.913 22.07 33.745 5.32 87.039-3.3 98.66-15.96 2.322-2.53 10.365-29.41 18.398-61.5 36.784-146.945 36.376-211.486-2.128-336.619-12.653-41.12-12.319-40.201-15.362-42.215-8.257-5.464-20.984-23.699-39.245-56.229-2.288-4.076-4.35-7.569-4.583-7.763-.232-.194-.841-1.385-1.351-2.646-.51-1.262-1.207-2.294-1.548-2.294-.341 0-.564-.238-.496-.529.204-.878-1.715-4.411-2.396-4.411-.349 0-.438-.317-.198-.705.24-.389.106-.706-.298-.706-.403 0-.933-.794-1.176-1.764-.243-.971-.745-1.765-1.114-1.765-.369 0-.475-.317-.235-.705.24-.388.082-.706-.352-.706-.435 0-.593-.318-.353-.706.24-.388.168-.705-.159-.705-.848 0-3.071-3.946-2.528-4.489.248-.248.063-.451-.413-.451-.475 0-.669-.318-.429-.706.24-.388.132-.706-.24-.706-.861 0-3.687-5.364-3.123-5.928.233-.232.034-.423-.442-.423-.481 0-.639-.367-.355-.826.343-.555.126-.678-.664-.374-1.087.417-1.631-1.013-1.241-3.263.056-.32-.224-.381-.621-.135-.398.246-.724-.067-.724-.695 0-.678-.328-.939-.808-.642-.559.346-.695-.088-.443-1.411.278-1.453.125-1.817-.64-1.524-.552.212-.837.114-.632-.218.205-.332-.277-1.192-1.073-1.912-1.428-1.292-1.443-1.283-1.218.788Zm49.621 151.351c2.187 11.838 5.212 28.193 6.721 36.343 19.449 104.995 21.491 144.387 10.236 197.529-16.265 76.8-36.413 165.03-37.45 163.99-.193-.19 2.651-13.18 6.321-28.86 11.984-51.2 29.702-131.795 32.484-147.767 8.171-46.9 5.322-90.073-11.968-181.363-.955-5.046-3.818-20.446-6.362-34.224-2.543-13.777-4.81-25.844-5.038-26.816-.287-1.228-.186-1.552.333-1.061.411.388 2.536 10.391 4.723 22.229Z" clip-rule="evenodd"/><path fill="#A3A3A3" fill-rule="evenodd" d="M217.549 188.051c-10.959 2.578-19.961 11.541-23.37 23.268-1.021 3.513-1.108 26.264-.944 246.963l.181 243.094 2.247 4.744c3.299 6.965 14.205 17.146 16.214 15.137.204-.203-.575-.86-1.731-1.457-5.331-2.757-10.818-11.617-12.104-19.543-1.054-6.499-1.033-480.098.022-485.857 1.648-8.995 8.677-17.775 16.602-20.741l3.957-1.48 152.017.02 152.016.021.689-1.812c.379-.996.689-2.108.689-2.471 0-.864-302.81-.752-306.485.114Zm542.187 1.343a349.463 349.463 0 0 0 1.636 2.287c.07.094 87.458.332 194.194.53l194.064.359 4.46 2.418c7.24 3.924 12.44 10.898 14.16 18.964 1.38 6.534 1.1 483.461-.29 488.811-1.55 5.953-4.3 10.58-8.65 14.554-3.97 3.625-3.22 3.885 1.66.581 5.9-4 10.08-10.771 11.55-18.725 1.03-5.527 1.05-477.826.03-484.374-1.47-9.406-8.2-19.21-16.16-23.542-7.82-4.257 6.41-3.98-204.901-3.98H758.228l1.508 2.117Z" clip-rule="evenodd"/><path fill="#111F22" fill-rule="evenodd" d="M597.701 135.4c-10.702 2.328-13.096 5.04-12.498 14.153.754 11.474-1.238 12.449-12.922 6.321-16.855-8.84-32.261-.484-23.646 12.825 4.865 7.516 5.421 9.067 4.016 11.211l-1.252 1.913-7.652-.485c-15.413-.975-19.626 2.434-22.226 17.988-2.949 17.638-.174 26.124 9.584 29.3 10.204 3.322 9.842 9.844-.72 12.99-15.048 4.481-9.276 27.49 6.903 27.517 10.002.018 9.691 5.182-.725 12.028-7.843 5.156-3.455 18.6 7.094 21.734 5.302 1.575 6.016 2.839 5.449 9.644-.58 6.957-.055 8.308 5.207 13.413 27.852 27.019 76.418 13.214 90.827-25.817l1.192-3.23-6.007-5.98c-5.99-5.963-10.243-11.632-9.376-12.498.251-.251.789.176 1.194.949 9.939 18.922 59.015 44.68 72.225 37.907 9.082-4.656 11.642-13.967 4.205-15.299-16.302-2.922-23.954-21.461-12.874-31.19 6.438-5.653 14.416-4.82 22.373 2.334 8.387 7.541 18.602-2.627 17.53-17.448l-.292-4.034 4.627-2.067c22.803-10.184 34.529-25.201 31.084-39.809-1.537-6.517-11.099-22.493-13.463-22.493-.352 0-2.53-1.391-4.839-3.091-27.012-19.884-70.974-22.711-99.028-6.366-4.058 2.364-4.076 2.368-5.469.975-9.258-9.258-32.209 16.876-35.645 40.591-.281 1.941-.662 3.79-.847 4.109-1.135 1.959-17.006-17.175-20.404-24.598-7.663-16.738 11.458-39.001 33.975-39.556l7.057-.174.218-2.904c.986-13.129-18.057-24.521-34.875-20.863Zm-309.5 122.976c-.88 3.681-.79 3.705 13.93 3.705h13.696l.433-1.724c.774-3.088.214-3.216-14.126-3.216-12.405 0-13.665.111-13.933 1.235Zm481.102.804c-3.99 7.716 2.003 21.218 6.424 14.472 1.892-2.888 1.769-11.54-.202-14.192-2.118-2.85-4.83-2.972-6.222-.28Zm203.582 67.77c-2.325 4.345 2.925 4.645 69.835 3.99 51.85-.507 51.8-.504 51.4-3.325l-.24-1.669-60.13-.181c-58.816-.176-60.15-.15-60.865 1.185Zm-545.329.067c-.859.345-1.967 1.278-2.463 2.072-.851 1.363-1.576 1.444-12.94 1.444h-12.038l.288 2.47.289 2.47h11.985c10.915 0 12.144.126 13.778 1.411 4.72 3.712 11.151-1.56 8.398-6.884-1.546-2.99-4.391-4.153-7.297-2.983Zm546.121 30.246c-.52.33-.837 1.357-.706 2.283l.238 1.685 35.381.183c38.53.199 37.6.294 35.41-3.611-.72-1.287-68.327-1.805-70.323-.54Zm-710.983 11.846c-.26.26-.473 1.372-.473 2.472v2h198.39l-.222-2.294-.221-2.293-98.5-.179c-54.176-.099-98.714.034-98.974.294Zm30.962 31.894c-1.219 3.841-4.813 3.628 61.439 3.628h60.967v-4.94h-60.995c-58.834 0-61.009.047-61.411 1.312Zm42.12 63.257c-16.714 24.919-15.058 22.937-19.162 22.937h-3.465l-9.682-11.965c-9.602-11.869-9.695-11.958-11.526-11.035-1.014.511-2.253 1.057-2.752 1.211-.545.17 3.402 5.541 9.88 13.445 8.642 10.545 10.817 13.629 10.94 15.516.502 7.749 11.82 8.208 13.54.55.499-2.224 27.393-43.718 28.295-43.657.194.013 4.799 6.066 10.233 13.451 5.434 7.385 12.34 16.59 15.349 20.455 3.926 5.045 5.469 7.6 5.469 9.057 0 3.968 2.542 6.381 6.723 6.381 2.693 0 5.969-3.525 6.018-6.474.038-2.349 13.509-13.286 16.363-13.286.527 0 7.437 6.749 15.355 14.996 15.824 16.482 15.305 16.072 17.458 13.781l1.518-1.615-14.075-14.677c-13.351-13.921-14.075-14.817-14.075-17.411 0-6.144-8.117-7.647-9.591-1.777-1.2 4.783-20.282 15.728-22.503 12.908-.09-.113-6.745-9.001-14.79-19.749l-14.626-19.544-3.359.398c-1.848.219-3.966.081-4.707-.307-1.201-.63-2.587 1.144-12.828 16.411Zm-64.139 13.248-10.614 14.982 1.835 1.898c2.273 2.355 1.132 3.531 13.802-14.207 9.063-12.688 10.154-14.507 9.048-15.095a15.621 15.621 0 0 1-2.357-1.615c-.964-.83-2.41.902-11.714 14.037Zm5.207 70.347c-.992 3.794-7.292 3.586 102.522 3.389l101.268-.181.22-2.294.222-2.293H379.141c-100.534 0-101.941.019-102.297 1.379Zm500.534 42.395c-8.074.714-37.645 2.148-57.161 2.772l-15.878.508 11.291.174c6.21.096 12.8.266 14.643.377 1.843.112 3.352-.086 3.352-.438 0-.353.613-.313 1.365.09 1.778.951 8.042.971 7.456.024-.268-.434 1.004-.724 3.311-.755 2.061-.028 4.989-.202 6.507-.385 1.519-.183 3.265-.124 3.881.132.617.256 2.233.577 3.591.711 4.69.466 8.725 1.079 9.252 1.405.292.18.693.064.891-.257.394-.638 3.341-.498 6.022.286 1.2.352 1.55.258 1.193-.319-.296-.481-.068-.818.554-.818.582 0 1.256.32 1.497.711 1.196 1.934 7.064.43 6.827-1.749-.225-2.07-.21-2.08 1.218-.787.796.72 1.246 1.633 1.001 2.029-.255.412-.097.505.367.218.595-.368.525-1.057-.262-2.579-1.185-2.292-.797-2.244-10.918-1.35Zm53.159 132.652c.228.972 2.495 13.04 5.039 26.817 2.543 13.777 5.406 29.177 6.361 34.223 17.29 91.29 20.139 134.463 11.968 181.364-2.782 15.972-20.5 96.574-32.483 147.764-3.671 15.68-6.515 28.67-6.321 28.86.814.82 18.806-76.74 30.74-132.52 8.452-39.496 9.132-42.958 10.548-53.697 6.157-46.677 3.407-80.924-14.075-175.299-1.509-8.151-4.534-24.506-6.721-36.344-2.187-11.838-4.312-21.841-4.723-22.229-.519-.49-.62-.167-.333 1.061ZM481.449 1211.77c-.943 3.01-1.947 7.19-2.229 9.28-.282 2.1-1.565 6.87-2.851 10.59-2.492 7.22-4.106 16.26-3.729 20.88l.231 2.83 60.263.18 60.263.18-.417-4.46c-1.799-19.27-7.999-22.58-42.835-22.87-13.779-.12-25.801-.39-26.715-.59-1.729-.4-1.835-5.66-.364-18.14l.395-3.35h-40.296l-1.716 5.47Zm285.841 2.65c-.296 5.3-.936 8.63-2.581 13.4-2.854 8.29-5.094 19.38-4.83 23.92l.21 3.61 65.903.18 65.903.18-.373-4.42c-.7-8.31-3.935-14.44-9.584-18.18-6.199-4.11-7.334-4.23-40.47-4.23-20.437 0-30.216-.23-30.216-.73 0-.77 1.156-12.34 1.741-17.42l.343-2.98-22.826-.2-22.827-.19-.393 7.06Z" clip-rule="evenodd"/><path fill="#CBE0E4" fill-rule="evenodd" d="M219.632 192.955c-8.253 1.385-14.999 6.828-19.043 15.364l-2.234 4.714v488.341l1.541 4.075c2.981 7.886 8.279 13.468 15.61 16.448 2.776 1.128 3.483 1.662 2.526 1.909-.731.189 86.538.376 193.93.415l195.26.073.386-2.992c6.664-51.63 18.533-104.291 28.932-128.362.394-.913-.007-1.276-1.838-1.664-6.719-1.422-8.109-7.144-10.288-42.332-1.081-17.459-.555-91.317.761-106.913 1.467-17.388 3.068-31.994 4.137-37.755 2.683-14.457 15.098-23.88 40.448-30.7 4.657-1.253 10.215-2.797 12.349-3.431 15.277-4.54 56.903.187 89.808 10.196 40.891 12.44 42.704 14.696 76.52 95.21 12.433 29.605 17.745 41.284 18.778 41.284 2.507 0 14.965-11.579 21.72-20.188 35.117-44.753 39.273-48.7 51.106-48.543 5.579.073 15.639 2.908 19.851 5.593 1.093.697 1.488.728 1.45.115-.029-.464 1.608-4.265 3.637-8.448 2.031-4.183 4.614-10.107 5.742-13.166 2.557-6.934 6.163-14.135 10.345-20.66 17.191-26.82 23.304-30.493 24.224-14.553.34 5.978.68 7.247 3.35 12.683 12.87 26.191 11.63 41.2-4.87 58.927-2.83 3.05-6.166 6.833-7.401 8.407l-2.244 2.863 2.512 3.136c6.163 7.695 7.223 14.524 4.403 28.43-2.132 10.546-9.503 34.698-12.022 39.405-.637 1.191 1.95 1.259 54.572 1.443l55.23.193 3.56 1.879c17.62 9.299 17.62 32.814 0 42.112l-3.56 1.879-64.57.197-64.57.196-4.5 8.803c-14.176 27.728-37.377 64.838-49.771 79.609-12.872 15.342-37.392 21.298-54.213 13.172-1.465-.708-2.654-1.078-2.644-.822.042 1.027 8.396 26.514 8.421 25.694.023-.702 28.733-.892 140.987-.932 79.28-.028 140.35-.315 139.56-.656-1.39-.595-1.39-.608.06-.656 5.2-.175 14.12-7.37 17.59-14.187 3.34-6.575 3.24 1.786 3.02-253.674l-.21-242.053-2.21-4.587c-3.22-6.713-6.51-10.112-12.79-13.212l-5.39-2.666-192.164-.17c-105.689-.094-192.162-.025-192.162.152 0 .178 1.26 2.272 2.8 4.654 4.479 6.931 5.883 11.322 5.985 18.724.082 5.927.241 6.604 2.046 8.75 11.991 14.251 21.13 62.944 15.793 84.153-4.371 17.373-18.351 28.101-33.776 25.921-5.384-.762-4.607-2.007-5.612 8.997-.683 7.465-1.074 9.36-1.982 9.604-.729.194-.566.331.456.384 1.395.072 1.588.461 1.588 3.208v3.126l-2.294-.709c-1.261-.39-7.692-.839-14.29-.997-6.598-.159-11.997-.321-11.997-.361 0-.04-4.128-.175-9.174-.3-5.046-.126-12.587-.317-16.76-.424-4.758-.123-7.591-.475-7.597-.946-.007-.451-.226-.413-.548.094-1.372 2.159-2.357-.298-1.781-4.445l.577-4.162 2.916-.214 2.916-.213 1.484-9.666c1.986-12.938 2.53-18.585 1.775-18.389-5.834 1.511-32.006-10.546-44.832-20.655-3.442-2.713-3.62-2.647-5.523 2.031-16.336 40.159-63.758 53.151-91.974 25.199-5.071-5.023-5.586-6.389-5.026-13.3.494-6.087-.689-8.899-3.743-8.899-5.526 0-12.924-9.073-12.872-15.788.028-3.665.819-4.688 6.792-8.784 7.649-5.245 7.061-8.226-1.843-9.345-17.283-2.17-22.167-24.048-6.435-28.826 5.882-1.787 8.389-4.142 7.404-6.955-.684-1.952-2.075-2.835-9.532-6.047-8.254-3.556-10.236-13.676-6.555-33.462l.427-2.293-149.512.083c-82.23.045-151.05.341-152.933.657Zm887.788 33.877c14.91 7.247 18.43 26.085 7.19 38.388-15.16 16.591-43.17 5.836-43.1-16.55.06-18.218 19.3-29.916 35.91-21.838ZM192 459.32c0 128.86.081 181.471.181 116.912.099-64.558.099-169.989 0-234.291-.1-64.301-.181-11.481-.181 117.379Zm74.233-209.897c9.867 3.738 7.259 18.301-3.277 18.301-5.605 0-10.639-5.536-9.47-10.414 1.647-6.866 6.886-10.107 12.747-7.887Zm50.374 8.51c.586 1.096.595 1.958.034 3.192l-.77 1.689-13.946-.191-13.946-.192-.23-1.999c-.463-4.049-.642-3.999 14.296-3.999 13.31 0 13.785.049 14.562 1.5Zm50.556 60.896c5.741 2.491 13.175 5.792 16.519 7.334 4.041 1.864 6.407 2.597 7.057 2.186 1.521-.964 5.77-.707 7.287.44 2.466 1.866 25.18 1.481 26.925-.456 2.884-3.202 8.223-2.842 10.109.681 3.201 5.982-3.46 12.62-8.605 8.574-1.636-1.286-2.863-1.411-13.901-1.411h-12.108l-1.761 2.093c-1.079 1.282-2.748 2.278-4.309 2.571-1.401.263-7.337 2.809-13.189 5.658-12.711 6.187-10.435 6.042-21.186 1.353l-8.828-3.85-13.683 5.679-13.684 5.678-17.756-8.532c-9.765-4.694-18.397-8.533-19.182-8.533-2.133 0-4.888-3.35-4.888-5.945 0-4.802 3.96-7.488 8.326-5.647 1.437.606 6.123 1.819 10.415 2.696l7.803 1.595 7.369-2.784c43.086-16.274 37.665-15.282 51.27-9.38Zm726.927 6.903c.47.466.85 1.514.85 2.329 0 3.258 1.6 3.176-61.86 3.176-58.699 0-60.193-.033-60.903-1.361-.767-1.432-.294-3.578.98-4.451 1.386-.948 119.983-.647 120.933.307Zm-144.793 21.674c7.501 3.407 9.643 12.803 4.305 18.883-5.446 6.202-13.756 5.923-19.068-.64-7.769-9.598 3.402-23.401 14.763-18.243Zm95.193 10.187c.61.834.75 1.851.39 2.823l-.56 1.518-35.12.183c-37.088.194-37.05.197-37.05-3.057 0-3.057.807-3.121 36.93-2.942 32.59.162 34.51.241 35.41 1.475ZM460.7 369.241c.35.35.533 1.549.405 2.664l-.231 2.026-99.107.179c-78.82.142-99.222-.002-99.669-.706-1.108-1.744-.613-4.093 1.005-4.768 2.076-.868 196.722-.271 197.597.605Zm641.4 10.237c19.31 4.545 25.96 28.301 11.81 42.157-12.66 12.393-34.36 7.674-40.87-8.89-7.38-18.765 9.34-37.908 29.06-33.267Zm-831.425 12.273c7.761 3.899 7.653 15.701-.177 19.255-7.634 3.465-15.334-1.51-15.334-9.907 0-7.874 8.386-12.927 15.511-9.348Zm145.74 10.408v2.823l-61.192.181c-68.231.2-63.824.511-61.968-4.373l.69-1.814 61.235.18 61.235.18v2.823Zm207.553 4.46c-.197.318-.603 1.51-.904 2.646-.628 2.375-.579 133.629.052 139.821.229 2.251.587 7.903.793 12.56.206 4.658.555 10.374.774 12.703.22 2.328.357 5.668.305 7.42-.052 1.752.379 4.526.957 6.164 1.839 5.213-1.146 9.114-25.343 33.131-38.409 38.122-50.81 44.942-62.828 34.553l-2.695-2.329-7.134 9.576a1442.221 1442.221 0 0 0-13.269 18.139c-15.018 20.965-26.037 25.506-32.702 13.478-5.811-10.487-1.325-26.07 13.168-45.734 3.554-4.823 8.571-12 11.149-15.95 3.026-4.636 5.037-7.068 5.674-6.863.542.175.139-.721-.897-1.993-10.271-12.608-12.806-17.025-12.145-21.159 1.575-9.847 22.664-44.772 77.683-128.642 4.583-6.986 10.699-16.831 13.592-21.877 9.008-15.713 21.494-36.206 23.663-38.837 2.768-3.358 11.688-9.366 10.107-6.807Zm-268.991 27.052c3.812 1.737 5.359 7.828 2.93 11.535-1.867 2.85 27.623 42.166 31.628 42.166 2.529 0 17.175-10.75 18.639-13.682 3.107-6.22 10.711-4.455 10.711 2.484 0 2.264 1.229 3.761 14.087 17.15l14.087 14.669-1.869 1.95c-2.493 2.602-2.888 2.511-6.313-1.467l-2.944-3.418-23.162-.505c-26.421-.578-28.274-.926-30.266-5.693l-1.047-2.506-28.652.184-28.652.184-.798 2.47c-1.561 4.831-2.265 4.938-32.381 4.939-25.293.001-26.775.072-29.276 1.412-3.159 1.694-3.871 1.731-6.558.341-6.546-3.384-4.658-12.55 2.79-13.548 2.872-.386 3.027-.561 13.301-15.126l10.396-14.736-.235-3.763c-.304-4.875 1.602-7.398 6.038-7.993 5.399-.724 9.782 5.638 7.203 10.458-.629 1.175-.313 1.957 1.905 4.716 22.43 27.904 18.771 27.909 37.531-.055l12.671-18.888-1.365-2.635c-3.489-6.738 2.82-13.732 9.601-10.643Zm751.963 42.314c14.94 6.99 18.9 27.669 7.74 40.348-14.92 16.958-43.42 5.704-43.36-17.126.04-18.482 19.14-30.932 35.62-23.222Zm-625.374 72.119c.494 4.305 7.889 4.015-102.498 4.015-77.645 0-101.236-.196-101.886-.847-.907-.906-1.156-4.254-.374-5.036.26-.26 46.386-.392 102.502-.294l102.029.179.227 1.983Zm-21.794 21.536c6.064 3.252 6.606 11.897 1.021 16.29-1.872 1.473-1.921 1.474-74.322 1.474h-72.449l-2.436 3.692c-9.718 14.726-35.957 8.423-35.957-8.638 0-5.57 2.965-10.32 8.116-12.998 3.533-1.838 172.587-1.665 176.027.18Z" clip-rule="evenodd"/><path fill="#E7FF34" fill-rule="evenodd" d="M338.083 472.102c-7.374 11.091-13.606 21.087-13.848 22.215l-.44 2.051h58.11l.896 2.477c1.655 4.576 20.784 6.924 47.509 5.831l4.72-.193-11.469-11.962-11.469-11.963-7.815 5.612c-6.971 5.005-7.86 5.885-8.239 8.151-1.559 9.34-13.802 8.781-13.861-.633-.008-1.251-1.404-3.649-4.058-6.968-2.225-2.783-8.968-11.735-14.984-19.894-6.016-8.158-11.097-14.846-11.291-14.861-.194-.016-6.386 9.046-13.761 20.137Zm-61.925 9.415c-9.74 13.573-11.114 15.825-11.114 18.204 0 1.494-.381 3.097-.847 3.563-1.097 1.097 50.656 1.215 54.583.124 2.654-.738 4.853-3.215 4.815-5.428-.02-1.193-.06-1.194-.741-.024-3.239 5.561-13.351 2.857-13.351-3.57 0-1.89-19.741-27.492-21.73-28.184-.275-.095-5.501 6.797-11.615 15.315Z" clip-rule="evenodd"/><path fill="#434870" fill-rule="evenodd" d="M298.035 187.101c41.628.1 109.745.1 151.372 0 41.627-.101 7.568-.183-75.686-.183-83.255 0-117.313.082-75.686.183Zm574.139 0c49.616.1 130.596.1 179.956 0 49.36-.1 8.76-.182-90.213-.182s-139.357.082-89.743.182Zm296.506 270.81c0 131.965.08 186.056.18 120.202.1-65.854.1-173.825 0-239.936-.1-66.111-.18-12.231-.18 119.734ZM312.204 374.11c27.297.102 71.756.102 98.797 0 27.042-.102 4.709-.186-49.63-.186-54.338 0-76.463.084-49.167.186Zm16.231 172.189c28.073.103 73.802.103 101.62 0 27.818-.102 4.85-.185-51.042-.185-55.891 0-78.651.083-50.578.185Zm-1.114 5.646c27.073.102 71.373.102 98.445 0 27.072-.102 4.922-.186-49.222-.186-54.145 0-76.295.084-49.223.186Zm2.877 16.937c23.221.103 61.011.103 83.978 0 22.967-.103 3.968-.188-42.219-.188-46.188 0-64.979.085-41.759.188Zm19.406 18.348c19.922.104 52.314.104 71.981 0 19.669-.105 3.369-.19-36.22-.19-39.59 0-55.682.085-35.761.19Z" clip-rule="evenodd"/><path fill="#E1FF01" fill-rule="evenodd" d="M353.256 314.786c-.582.206-10.903 4.043-22.935 8.528l-21.877 8.153-8.115-1.638c-4.464-.901-8.743-2.065-9.508-2.585-2.823-1.92-6.86-.418-8.175 3.04-1.289 3.392 1.898 8.01 5.528 8.01.741 0 8.848 3.652 18.016 8.116 20.033 9.753 15.455 9.865 40.244-.978 4.582-2.004 4.631-1.997 13.671 2.036 9.929 4.431 8.855 4.518 21.893-1.764 6.043-2.911 11.748-5.292 12.68-5.292 2.687 0 5.154-3.206 5.154-6.698 0-4.529-3.524-6.864-7.944-5.265-2.156.779-3.017.511-13.382-4.179-12.853-5.815-22.809-9.993-23.622-9.913-.314.03-1.046.223-1.628.429Zm-90.682 76.819c-5.814 1.999-8.588 7.991-6.278 13.564 4.413 10.649 19.636 7.77 19.636-3.715 0-7.42-6.496-12.209-13.358-9.849Zm828.406 83.141c-22.6 5.724-26.19 36.401-5.49 46.877 15.48 7.834 33.87-2.998 35.33-20.814 1.35-16.547-14.11-30.049-29.84-26.063Z" clip-rule="evenodd"/><path fill="#F1EEE5" fill-rule="evenodd" d="m372.662 185.865-152.43.358 152.212.173c100.902.116 152.359-.063 152.648-.531.24-.388.338-.627.218-.531-.12.095-68.811.334-152.648.531Zm481.461.529c53.27.1 140.441.1 193.717 0 53.27-.099 9.68-.181-96.861-.181-106.542 0-150.128.082-96.856.181Zm320.207 270.811c0 132.741.08 186.939.18 120.44.1-66.499.1-175.105 0-241.348-.1-66.242-.18-11.833-.18 120.908ZM686.882 347.909c-1.113 1.903-1.28 8.57-.225 8.974.622.239 1.103.048 1.109-.438.007-.581.179-.615.529-.106.297.431 3.69.838 7.928.951 4.076.108 11.538.297 16.584.42 5.046.123 9.174.256 9.174.296 0 .04 5.399.202 11.997.361 6.598.158 13.029.606 14.29.997l2.294.709v-3.126c0-1.719-.141-3.127-.314-3.127-.173 0-4.539-.616-9.703-1.369-19.235-2.807-53.007-5.666-53.663-4.542Zm-.891 21.398c-31.539 6.621-50.497 16.687-55.23 29.325-1.752 4.678-3.396 17.45-5.586 43.4-1.316 15.597-1.842 89.455-.761 106.913 2.396 38.706 3.25 41.38 13.636 42.705 18.064 2.305 96.408.91 143.223-2.551l6.364-.471 2.038 3.8c26.368 49.156 50.223 88.959 58.9 98.275 17.664 18.963 49.355 17.278 66.834-3.555 29.509-35.169 66.554-108.011 82.128-161.491 8.833-30.32 6.263-39.565-15.997-57.666-27.766-22.577-44.992-25.441-60.611-10.081-5.773 5.678-11.345 12.424-31.994 38.739-6.755 8.609-19.213 20.187-21.72 20.187-1.033 0-6.345-11.679-18.778-41.283-33.816-80.514-35.629-82.77-76.52-95.21-18.064-5.496-26.974-7.488-44.643-9.983-8.527-1.205-37.091-1.933-41.283-1.053Zm-66.441 39.17c-5.634 3.793-11.093 11.938-29.352 43.788-2.893 5.046-9.009 14.89-13.592 21.876-53.536 81.611-75.326 117.532-77.589 127.908-.944 4.328 1.538 9.04 10.707 20.315 1.251 1.538 6.052 7.56 10.671 13.382 27.204 34.299 31.686 33.478 80.207-14.68 24.197-24.017 27.182-27.919 25.343-33.131-.578-1.639-1.009-4.412-.957-6.164.052-1.753-.085-5.092-.304-7.421-.22-2.329-.569-8.045-.775-12.702-.206-4.658-.563-10.31-.793-12.56-.631-6.192-.68-137.446-.052-139.821.301-1.137.707-2.328.904-2.646.74-1.197-.92-.5-4.418 1.856ZM209.294 721.905c0 .148 1.191.83 2.646 1.514 2.68 1.26 377.044 2.73 388.24 1.524 2.173-.234-82.954-.472-189.171-.529-187.42-.101-193.248-.143-197.418-1.441-2.364-.735-4.297-1.217-4.297-1.068Zm662.023 2.722c.491.491 275.863.608 276.353.117.24-.238-61.91-.434-138.12-.434-76.201 0-138.407.143-138.233.317Z" clip-rule="evenodd"/><path fill="#F68819" fill-rule="evenodd" d="M769.482 226.264c-3.825 7.709-11.87 14.566-25.467 21.707l-8.036 4.221.31 3.747c1.215 14.646-10.086 25.071-18.787 17.333-6.793-6.041-14.733-7.312-20.102-3.217-12.181 9.292-5.36 28.79 10.938 31.266 9.942 1.509 3.244 16.44-7.99 17.811l-3.772.46-.533 5.999c-.292 3.299-1.007 8.777-1.587 12.173-1.686 9.865-1.731 9.703 2.727 9.703 4.605 0 21.306 1.624 37.501 3.646 6.598.824 12.632 1.531 13.408 1.572 1.298.069 1.451-.522 1.899-7.335.767-11.663.888-12.049 3.598-11.444 21.074 4.707 36.078-11.148 37.009-39.11 1.061-31.848-14.407-82.049-21.116-68.532Zm5.833 31.99c2.458 2.617 2.589 14.198.187 16.599-3.567 3.568-7.955-1.389-7.988-9.024-.034-8.065 3.822-11.81 7.801-7.575Zm221.439 132.084c-8.743 9.584-20.54 28.95-25.582 41.996-1.688 4.368-4.56 10.91-6.382 14.538s-3.189 6.722-3.035 6.874c.152.153 2.906 1.875 6.119 3.826 7.578 4.603 12.716 8.588 20.193 15.667l6.073 5.748 1.884-2.423c1.036-1.333 4.326-5.063 7.316-8.287 16.16-17.451 17.53-33.677 4.92-58.356-2.97-5.81-3.28-6.898-3.62-12.772-.53-8.891-3.58-11.53-7.886-6.811ZM507.276 632.14c-2.424 3.669-6.848 9.95-9.831 13.958-16.057 21.576-20.873 36.618-15.302 47.797 6.238 12.517 17.184 7.74 33.188-14.483 4.718-6.551 10.96-15.077 13.87-18.946l5.291-7.035-4.063-4.609c-4.528-5.138-16.046-19.314-17.686-21.769-1.038-1.552-1.148-1.449-5.467 5.087Zm4.179 505.55c-.456.15-.829.69-.829 1.19 0 .9-6.438 16.77-20.049 49.42-3.721 8.93-6.766 16.47-6.766 16.76-.001.29 8.827.53 19.619.53h19.62l8.403-10.05c4.623-5.53 14.609-17.17 22.193-25.86 7.584-8.69 13.701-16.1 13.594-16.46-.107-.36.096-.48.449-.26.354.22 1.012-.05 1.463-.59 1.172-1.41.637-1.6-10.287-3.61-5.378-.98-14.789-2.9-20.913-4.27-6.123-1.36-11.491-2.25-11.929-1.98-.437.27-.614.2-.392-.16.449-.73-12.857-5.1-14.176-4.66Zm299.797 16.07c-7.793 1.56-25.85 2.65-36.849 2.2-12.338-.49-11.312-1.59-10.12 10.89.535 5.59 1.379 16.91 1.878 25.16l.905 14.99h46.108l.436-4.41c.435-4.39 2.079-27.91 2.96-42.34.255-4.17.194-7.55-.134-7.5-.329.05-2.661.5-5.184 1.01Z" clip-rule="evenodd"/><path fill="#4F8C99" fill-rule="evenodd" d="M620.729 159.846c-6.838 1.146-15.022 5.702-21.18 11.789-14.351 14.186-12.991 25.895 5.217 44.927 6.237 6.519 7.439 6.957 7.469 2.725.122-17.1 19.229-42.07 32.295-42.205 4.178-.044 4.263-.207 2.265-4.335-4.328-8.941-15.805-14.621-26.066-12.901Zm468.251 65.959c-14.07 4.488-20.99 20.016-14.66 32.889 10.12 20.559 39.3 18.018 45.69-3.98 5.09-17.519-13.23-34.588-31.03-28.909ZM939.337 347.834c-11.528 6.232-7.375 22.956 5.476 22.057 14.704-1.029 14.97-21.864.293-22.935-2.463-.18-4.343.107-5.769.878Zm148.763 32.854c-17.09 5.418-21.76 28.426-8.28 40.851 18.81 17.338 47.72-1.36 39.73-25.698-4.22-12.836-17.92-19.439-31.45-15.153Zm-739.961 53.637c-7.101 4.136-1.196 16.656 6.194 13.132 4.807-2.293 5.818-8.621 1.949-12.207-1.95-1.807-5.865-2.252-8.143-.925Zm-63.512 17.642c-3.335 1.943-4.155 8.24-1.397 10.736 4.805 4.349 11.453 1.649 11.453-4.652 0-5.066-5.79-8.568-10.056-6.084Zm-30.929 42.937c-5.542 5.542 1.411 14.549 7.836 10.151 2.467-1.688 2.781-2.315 2.793-5.59.023-6.091-6.36-8.83-10.629-4.561Z" clip-rule="evenodd"/><path fill="#CDE801" d="M236.406 1167.37c-.116-71.05-.045-71.73 7.916-74.66 6.984-2.57 126.829-1.12 128.328 1.55.902 1.61 1.271 28.3.991 72.09l-.441 69.53-3.641 6.48c-6.962 12.39-7.1 12.42-61.897 12.73-76.066.43-71.102 6.54-71.256-87.72Z"/><path fill="#769DA0" fill-rule="evenodd" d="M329.263 682.962c-24.983 8.633-33.548 28.19-41.874 95.611-4.578 37.053-3.83 129.262 1.276 157.562 6.038 33.469 14.201 124.745 13.358 149.375l-.187 5.46h22.298l-.543-5.46c-.299-3-.846-16.05-1.218-28.98-.76-26.44-1.919-20.77 15.594-76.246 69.55-220.315 66.535-323.322-8.704-297.322Zm7.489 45.302c.473.768-1.092 2.406-3.481 3.64-26.135 13.515-33.653 127.697-19.805 300.806 2.275 28.44 2.42 32.69 1.066 31.32-5.641-5.74-12.805-204.122-9.044-250.504 3.874-47.812 10.058-70.744 21.98-81.516 5.907-5.336 7.823-6.109 9.284-3.746ZM219.004 829.502c-42.073 14.996-30.218 108.019 29.286 229.788l15.478 31.68h17.942c16.121 0 17.94-.26 17.929-2.55-.155-29.84-6.604-103.599-12.384-141.633-1.156-7.61-2.807-19.407-3.666-26.215-9.117-72.153-31.018-103.036-64.585-91.07Z" clip-rule="evenodd"/><path fill="#7C8C01" fill-rule="evenodd" d="M547.917 2.956c-27.112 8.77-40.368 43.202-26.421 68.628 20.41 37.216 75.801 30.914 86.512-9.842 9.577-36.443-24.9-70.172-60.091-58.786Zm577.853 50.237c-18.51 8.59-20.91 34.053-4.39 46.48 10.55 7.936 30.15 3.231 36.15-8.676 11.52-22.886-9.63-48.073-31.76-37.804ZM58.909 474.513C1.381 491.265-5.204 575.251 48.966 601.326c38.681 18.622 86.556-7.141 92.677-49.873 7.039-49.147-37.128-90.219-82.734-76.94Zm1273.251 206.72c-44.69 12.859-57.91 73.088-22.82 103.925 37.96 33.349 95.09 5.706 94.66-45.798-.33-38.63-36.86-68.192-71.84-58.127Zm-1321 20.772c-15.069 8.393-14.822 34.304.403 42.387 19.007 10.089 41.653-7.38 35.756-27.581-4.548-15.582-21.963-22.713-36.158-14.806Z" clip-rule="evenodd"/></svg>