<svg xmlns="http://www.w3.org/2000/svg" width="1118.416" height="1271.401" fill="none"><path fill="#cbe0e4" fill-rule="evenodd" d="M899.997 61.386c0 5.808.123 8.184.274 5.28.15-2.903.15-7.656 0-10.56-.151-2.903-.274-.528-.274 5.28zm-56.773 70.204c7.018.129 18.282.129 25.03 0 6.75-.131 1.008-.237-12.76-.237-13.767 0-19.288.108-12.27.237zm56.829 173.46c0 21.08.1 29.592.223 18.915.124-10.678.123-27.926 0-38.33-.122-10.403-.223-1.666-.223 19.415zm-493.786 52.996c-7.01 30.959-15.12 71.035-20.12 99.428-2.527 14.35-2.674 13.896 4.5 13.826 3.124-.03 10.785.262 17.023.648 6.238.386 12.75.635 14.47.552l3.13-.151.25-16.38c.499-32.686-2.311-72.84-6.21-88.732-2.037-8.3-8.26-23.467-9.63-23.467-.098 0-1.635 6.424-3.413 14.276zm209.047 109.253c-1.251 3.692-5.436 13.048-9.3 20.792-3.865 7.744-6.953 14.344-6.863 14.667.09.323-.153.586-.54.586-.84 0-4.207 5.445-4.232 6.845-.01.538-.251.978-.537.978-.285 0-3.295 4.312-6.687 9.582-3.393 5.27-9.035 13.63-12.54 18.578-3.504 4.947-6.508 9.276-6.675 9.62-2.006 4.109-21.974 23.685-28.886 28.318-3.211 2.15-6.096 4.263-6.412 4.693-.316.43-.58.512-.586.182-.007-.33-1.684.247-3.728 1.282-2.043 1.034-5.212 2.328-7.04 2.874-1.828.547-3.324 1.215-3.324 1.485s-.616.539-1.37.597c-9.412.73-13.447 1.34-12.567 1.898.677.43.183.658-1.447.666-1.362.006-2.594-.317-2.738-.718-.146-.41-8.94-.925-20.012-1.173l-19.751-.443-.163 3.715c-.09 2.043-.208 4.975-.263 6.516-.055 1.54-.354 3.21-.665 3.715-.322.52-.123.92.458.927.718.009.76.184.14.587-.486.316-1.13 3.567-1.43 7.224-.787 9.574-3.373 34.229-4 38.128l-.533 3.32 3.423-.338c1.883-.187 6.064-.575 9.29-.863 3.228-.287 6.396-.613 7.04-.723.646-.11 3.286-.446 5.868-.746 72.486-8.423 102.125-36.417 133.399-125.997 13.09-37.493 14.82-52.238 7.153-60.97l-2.21-2.516zm-359.002 35.24c.382.634.618 2.152.525 3.374-.093 1.222.049 2.575.316 3.006.267.432.62 2.712.788 5.067.166 2.356.647 4.927 1.068 5.713.42.787.584 1.612.362 1.834-.427.427 1.788 18.143 2.518 20.14.236.646.583 3.26.769 5.812.188 2.55.68 5.047 1.096 5.547.415.5.535 1.13.266 1.4-.54.538 1.67 17.234 2.88 21.763l.759 2.842 6.059.146c3.332.08 9.754.305 14.27.5 4.519.194 14.55.546 22.295.783 22.418.686 40.576 1.276 52.8 1.718 6.238.225 17.23.513 24.428.64 7.197.127 14.238.42 15.645.652 1.407.23 12.692.588 25.077.793 12.386.204 22.77.527 23.077.716.308.19 5.385.33 11.283.31l10.725-.035-4.2-4.78c-28.905-32.898-66.452-49.595-116.227-51.684-5.82-.244-11.452-.603-12.515-.797l-7.018-1.278c-6.675-1.215-21.474-4.984-29.333-7.472-11.677-3.695-46.145-16.063-47.28-16.964-.904-.72-.99-.67-.433.254zm542.118 71.845c-1.271 1.47-4.791 4.646-7.823 7.055-25.673 20.392-29.432 31.424-17.896 52.518 5.934 10.85 8.984 13.774 10.425 9.993a237.53 237.53 0 0 1 1.933-4.89c2.476-6.026 2.878-7.394 2.4-8.166-.281-.456-.173-.83.24-.83.829 0 4.188-10.443 6.792-21.12.157-.644.65-2.381 1.097-3.86.447-1.475.645-2.851.44-3.056-.203-.204-.056-.754.328-1.225.87-1.064 4.474-18.54 4.679-22.69.083-1.683.268-3.267.41-3.52 1.346-2.368-1.02-2.532-3.025-.21zm-455.685 9.719c0 .227-4.255 11.805-9.456 25.73-8.006 21.435-14.24 38.917-19.065 53.477-2.486 7.499-6.106 18.962-6.668 21.12-.337 1.29-1.566 5.514-2.731 9.386-14.771 49.083-26.93 103.43-34.036 152.143-2.696 18.48-5.138 39.95-5.115 44.97l.022 4.68 12.907 4c7.098 2.19 13.31 3.84 13.805 3.67.494-.18 1.122.04 1.394.48.272.44 1.012.6 1.643.36.632-.24 1.149-.02 1.149.51 0 .52.527.74 1.173.5.645-.25 1.173-.07 1.173.39s.518.64 1.149.4c.63-.24 1.336-.14 1.565.23.229.37 1.12.49 1.98.27.86-.23 1.564-.03 1.564.44s.563.63 1.253.37c.688-.27 1.584.01 1.99.61.485.72.652-.85.489-4.58-.137-3.11.005-5.75.315-5.86.31-.11.725-3.09.92-6.61.198-3.52.567-6.74.823-7.16.255-.41.44-1.58.415-2.59-.027-1.01.523-4.83 1.22-8.48.699-3.66 1.12-7.46.937-8.44-.183-.98-.115-1.57.15-1.3.79.79 3.086-13.17 2.382-14.49-1.328-2.48-4.438-14.24-5.852-22.12-6.848-38.166 1.409-71.55 36.03-145.69 12.938-27.705 15.22-31.81 17.43-31.337 3.5.75 13.656 1.953 16.705 1.979 2.794.023 2.89-.078 4.959-5.256 3.413-8.543 16.73-38.338 20.453-45.76 1.888-3.764 3.166-6.85 2.839-6.856-.327-.007-.183-.274.32-.595.503-.32 1.03-1.098 1.174-1.73.14-.63.698-1.62 1.236-2.2 1.966-2.115.963-2.603-5.085-2.471-3.335.073-6.59-.054-7.236-.281-.645-.227-10.15-.624-21.12-.882-10.97-.26-23.38-.688-27.573-.955-4.194-.267-7.627-.3-7.627-.072zm252.368 13.23c-27.82 6.21-52.626 51.677-44.754 82.025.609 2.346.935 4.623.724 5.059-.21.438.085.267.654-.378.876-.993 4.569-1.174 23.99-1.174 12.626 0 23.082-.204 23.236-.453.154-.25 4.519-.368 9.699-.263 10.93.22 10.018.903 10.623-7.96.26-3.832.609-7.496.774-8.142 1.456-5.707 1.8-41.078.468-48.107-2.788-14.712-13.373-23.296-25.414-20.607zm16.836 118.117c-4.021.284-11.765.726-17.21.982-5.442.258-12.711.627-16.153.82-3.441.195-10.13.564-14.862.82-4.732.259-10.188.615-12.124.792-1.936.178-6.953.544-11.147.813l-7.627.49v5.498c0 39.062 23.179 62.049 56.684 56.214 25.664-4.47 49.59-39.524 44.465-65.146l-.461-2.305-7.126.254a511.21 511.21 0 0 0-14.44.768zm-564.69 555.839c5.485.14 14.462.14 19.947 0 5.485-.13.997-.24-9.974-.24-10.97 0-15.458.11-9.973.24zm49.24 0c3.743.14 10.079.15 14.08 0 4.002-.14.94-.26-6.804-.26s-11.018.12-7.276.26zm38.76 0c3.119.15 8.224.15 11.343 0 3.119-.15.567-.27-5.671-.27-6.24 0-8.79.12-5.671.27zm197.553 0c4.217.14 10.905.14 14.863 0 3.957-.14.507-.25-7.668-.25-8.174 0-11.412.11-7.195.25zm37.949.01c7.879.12 20.55.12 28.16-.01 7.608-.12 1.16-.23-14.327-.23-15.488 0-21.713.11-13.833.24zm152.133-.01c4.216.14 10.905.14 14.862 0 3.957-.14.507-.25-7.668-.25-8.174 0-11.411.11-7.194.25zm35.2 0c4.217.14 10.905.14 14.862 0 3.957-.14.507-.25-7.667-.25-8.175 0-11.412.11-7.195.25zm30.075 0c3.549.15 9.358.15 12.906 0 3.549-.14.646-.26-6.453-.26-7.1 0-10.002.12-6.453.26zm32.07 0c4.41.14 11.626.14 16.037 0 4.41-.14.8-.25-8.018-.25-8.82 0-12.428.11-8.018.25zm30.865 0c2.885.15 7.813.15 10.95 0 3.139-.15.778-.27-5.245-.27s-8.59.12-5.705.27zm35.287.01c9.817.12 25.657.12 35.2 0 9.544-.13 1.512-.23-17.848-.23s-27.17.1-17.352.23zm73.476-.01c2.905.15 7.656.15 10.56 0 2.905-.15.529-.27-5.28-.27-5.808 0-8.184.12-5.28.27zm23.427 0c3.743.14 10.079.15 14.08 0 4.002-.14.94-.26-6.804-.26s-11.018.12-7.276.26zm86.92.01c10.249.12 26.793.12 36.766 0 9.973-.13 1.589-.23-18.632-.23-20.22 0-28.381.1-18.133.23zm94.988 0c10.003.12 26.372.12 36.372 0 10-.13 1.82-.23-18.19-.23-20.001 0-28.184.1-18.182.23z" clip-rule="evenodd"/><path fill="#a9a9be" fill-rule="evenodd" d="M844.739 251.268c7.42.129 19.566.129 26.987 0 7.42-.128 1.349-.233-13.493-.233-14.843 0-20.915.105-13.494.233z" clip-rule="evenodd"/><path fill="#579aa8" fill-rule="evenodd" d="M581.324 92.934c0 .143 1.58 3.384 3.514 7.204 13.752 27.175 15.025 58.286 3.406 83.25-8.432 18.114-23.378 31.07-44.662 38.713-3.932 1.413-4.895 2.774-1.956 2.764 5.29-.02 23.536-10.322 32.417-18.308 24.235-21.79 31.013-65.238 15.689-100.584-4.205-9.7-8.408-16.218-8.408-13.04zm259.155 37.872c4.649.139 12.04.138 16.427-.001 4.387-.14.583-.253-8.451-.252-9.035 0-12.624.115-7.976.253zm102.82 219.069c-2.061.132-3.715.625-3.715 1.108 0 .478-.225.644-.501.369-1.972-1.973-8.027 5.157-11.828 13.929-2.767 6.385-14.195 33.378-19.87 46.934-2.161 5.162-4.73 11.146-5.706 13.297-.977 2.152-3.976 9.192-6.664 15.645a2476.559 2476.559 0 0 1-8.244 19.556 3335.705 3335.705 0 0 0-8.605 20.338c-6.451 15.384-21.078 49.713-22.997 53.973a636.704 636.704 0 0 0-3.433 7.822 5420.534 5420.534 0 0 1-7.837 17.992c-9.197 21.035-11.55 27.022-10.984 27.938.298.482.17.633-.293.347-.483-.298-1.642 1.508-2.81 4.377-1.091 2.686-3.765 8.933-5.94 13.88-3.918 8.914-4.697 11.493-3.186 10.56.43-.266.782-.073.782.429 0 .504-.545.703-1.216.445-.872-.334-1.56.364-2.42 2.459-1.592 3.877-8.59 19.994-10.608 24.436-6.528 14.362-4.746 24.792 5.098 29.84 2.749 1.409 4.586 1.52 23.858 1.439 27.089-.114 28.387-.307 32.824-4.894 4.309-4.454 11.887-23.313 10.222-25.44-.921-1.176-.897-1.22.206-.36 1.089.85 1.514.344 3.276-3.911 7.42-17.91 15.379-36.79 15.605-37.015.432-.432 49.375-1.587 96.32-2.272 35.03-.511 29.78-3.138 38.87 19.437 4.06 10.08 7.55 18.22 7.77 18.089.21-.132.44.52.49 1.446.35 5.823 10.24 26.829 12.48 26.489 1.11-.17 1.23-.045.46.477-3.22 2.18 6.35 5.37 15.51 5.17 36.96-.813 44.59-2.144 44.59-7.774 0-.692.35-1.04.78-.773.94.578 2.38-2.833 2.81-6.65.41-3.54-4.99-17.986-6.72-18.003-.77-.008-.87-.21-.3-.587 1.21-.804-6.71-19.705-8.3-19.796-.68-.038-.8-.223-.28-.433 1.5-.618-2.77-10.425-4.33-9.931-1.04.33-1.07.262-.14-.393.93-.661.44-2.366-2.94-10.28-2.23-5.218-4.05-9.811-4.05-10.208 0-.396-.46-.545-1.01-.33-.71.27-1.03-.4-1.05-2.176-.02-2.084-13.14-34.951-15.07-37.766-.29-.43-1-2.19-1.57-3.911-1.98-5.966-4.17-10.536-4.85-10.118-.37.232-.5-.055-.27-.638.59-1.552-8.25-22.582-9.24-21.97-.49.305-.58.124-.22-.454.86-1.4-16.74-43.87-18.18-43.87-.8 0-.91-.29-.37-.977 1.09-1.391-1.38-6.683-2.93-6.262-.98.269-.99.197-.06-.451 1.34-.936-.34-5.933-1.71-5.085-.48.298-.58.12-.23-.441.87-1.401-3.54-11.364-4.46-10.085-.5.703-.57.559-.24-.477.55-1.67-1.72-8.292-2.83-8.292-.4 0-.53-.31-.3-.69.66-1.074-7.51-20.438-8.4-19.89-.45.282-.53.086-.19-.467.58-.946.13-2.401-3.1-9.851-.93-2.152-4.3-10.334-7.49-18.183-3.87-9.531-6.18-14.277-6.97-14.288-.84-.011-.91-.183-.22-.617 2.94-1.87-6.67-17.206-12.57-20.055-4.69-2.266-26.194-3.728-28.364-1.93-.778.648-1.081.655-1.081.029 0-.832-4.81-.914-15.058-.256zm-381.14 29.307c-2.15 1.808-8.486 7.18-14.08 11.938a21232.231 21232.231 0 0 1-20.271 17.219 3007.778 3007.778 0 0 0-19.584 16.782 11198.58 11198.58 0 0 1-25.411 21.903A8424.162 8424.162 0 0 0 459 467.557l-7.884 6.845h-5.688c-4.022 0-5.691-.287-5.7-.978-.01-.773-.143-.771-.64.01-.503.795-6.261.68-29.125-.573-15.675-.861-39.06-2.097-51.965-2.75-12.907-.652-25.682-1.35-28.39-1.55-3.937-.292-5.016-.124-5.385.835-.798 2.08.66 2.474 11.09 2.98 5.593.272 18.969 1.007 29.725 1.633 20.924 1.218 29.727 1.684 44.587 2.364 5.162.236 11.322.579 13.689.762 2.366.183 9.759.568 16.427.857l12.126.525 5.57-4.6c3.065-2.53 18.337-15.654 33.937-29.166 31.179-27.004 62.082-53.475 70.709-60.567 6.29-5.173 7.415-6.643 5.838-7.642-1.512-.958-1.443-.99-5.762 2.64zm402.912 76.25c.692 1.614 4.179 10.15 7.75 18.97 8.573 21.168 19.973 49.042 22.973 56.135 3.46 8.188 3.7 8.007-10.53 8.007-9.108 0-12.047.239-12.056.978-.008.605-.231.68-.587.196-.372-.507-8.167-.637-22.086-.37-27.697.53-25.61 1.195-21.821-6.935 1.336-2.866 5.554-12.714 9.375-21.884 3.82-9.171 7.45-17.795 8.069-19.165.618-1.37 3.637-8.475 6.708-15.79 10.343-24.63 10.305-24.568 12.205-20.141zm-352.061 8.996c-7.916 24.834-43.134 79.535-64.488 100.167-23.312 22.52-32.287 24.306-104.87 20.854-14.558-.692-44.277-.937-42.631-.351 1.045.372 37.645 1.938 82.525 3.532 47.59 1.69 65.107-9.685 101.888-66.167 15.829-24.305 33.73-60.023 31.302-62.452-1.271-1.27-2.302-.048-3.726 4.417zm-363.154.376c-1.622.566-1.457 2.656 2.207 27.98 5.488 37.915 12.409 86.393 12.61 88.33.274 2.604 2.196 3.792 2.196 1.358 0-.865.617-1.734 1.369-1.931 1.28-.335 1.283-.363.015-.448-1.884-.126-.466 8.667-13.218-82.017-4.855-34.53-7.667-30.057 18.087-28.773 22.097 1.1 22.69 1.08 22.69-.8 0-1.49-1.65-1.752-14.472-2.295-20.308-.861-28.938-1.304-29.724-1.525-.43-.121-1.222-.066-1.76.12zM562.55 684.02c-9.902.384-10.56.507-10.56 1.974 0 2.986 67.88 2.004 68.305-.99l.25-1.77-23.717.189c-13.045.104-28.47.373-34.278.597zm312.108 482.309c0 1.91 22.856 23.03 24.916 23.03 1.498 0 1.725-2.65.342-3.98-13.196-12.65-25.258-21.75-25.258-19.05zm-37.125 9.53c.239 2.48.585 5.47.77 6.65.439 2.83.675 2.97-5.635-3.34-5.14-5.14-8.072-6.49-8.072-3.71 0 1.13 12.84 15.27 17.13 18.86 5.59 4.68 5.013 5.1-9.308 6.73-10.324 1.17-12.068 1.58-11.054 2.6.826.82 11.14 1.05 13.4.3.646-.22 3.32-.75 5.945-1.18 7.493-1.22 14.238-4.81 9.05-4.81-3.063 0-8.317-9.36-8.998-16.03l-.478-4.7 3.055 3.52c1.68 1.94 5.288 6.69 8.015 10.56 4.84 6.86 7.212 8.73 8.109 6.39.53-1.38-10.008-16.25-15.746-22.22-5.382-5.6-6.753-5.51-6.183.38zm-596.764 3.39c-3.528 2.77-2.635 4.11 1.427 2.14 4.576-2.23 6.927-1.27 9.139 3.73 2 4.53 1.452 5.09-2.007 2.05-5.723-5.03-12.982-3.95-15.715 2.33-.808 1.86-1.508 3.46-1.556 3.55-.047.1-1.298-.13-2.78-.51-6.823-1.75-8.56-1.78-8.56-.16 0 1.23.734 1.62 3.848 2.05 2.214.31 4.41 1.15 5.173 2 .902.99 1.979 1.33 3.387 1.05 1.623-.32 2.23-.02 2.852 1.41.865 1.98 6.584 2.31 8.77.49.572-.47 1.29-.61 1.6-.3.309.31-.051.91-.801 1.33-1.702.95-1.764 2.71-.12 3.34 2.997 1.15 9.709-10.33 9.709-16.61 0-7.94-8.423-12.57-14.366-7.89zm22.42-.67c-.431.55-2.201 4.7-3.936 9.21-1.733 4.52-3.603 9.31-4.154 10.64-1.141 2.77-.563 5.19 1.086 4.56 1.133-.44 5.093-8.55 6.756-13.83.878-2.8 2.363-3.37 2.363-.91 0 1.84 5.41 12.07 7.482 14.14 3.51 3.51 5.677.39 10.119-14.55 3.714-12.5-.247-10.52-4.604 2.29-3.781 11.13-5.184 10.36-10.626-5.81-2.126-6.32-3.082-7.54-4.486-5.74zm-16.598 10.72c3.032 3.03 1.67 8.63-1.826 7.52-.535-.17-2.996-.88-5.47-1.56-5.04-1.4-5.768-2.91-2.738-5.67 3.589-3.26 6.965-3.36 10.034-.29zm75.28 12.27c-.514 1.35 1.134 27.53 1.8 28.61 2.467 3.99 3.159-5.84 1.442-20.48-.126-1.08-.26-3.63-.295-5.68-.067-3.81-1.854-5.29-2.947-2.45zm-284.977 64.45-22.294.39-.25 1.76c-.137.96-.137 1.8 0 1.86 2.303.95 1070.793.36 1071.583-.59.77-.92.73-1.39-.2-2.32-1.15-1.15-986.696-2.19-1048.84-1.1z" clip-rule="evenodd"/><path fill="#111f22" fill-rule="evenodd" d="M498.662 16.87c-12.181 1.139-32.072 7.489-33.486 10.69-3.716 8.415-23.348 10.982-33.065 4.326-14.37-9.845-25.296-9.818-33.407.079C383.01 51.115 391.062 81.847 415.48 96c6.566 3.806 6.95 3.75 10.699-1.565 3.296-4.673 14.1-16.622 15.029-16.622.292 0 1.493 2.208 2.669 4.908 7.873 18.072 37.786 41.273 65.187 50.56 12.014 4.073 13.61 4.048 15.847-.245 12.147-23.308 46.372-18.187 51.723 7.74 5.189 25.139-20.178 54.009-41.295 46.995-12.011-3.99-14.598-25.425-3.653-30.267 4.13-1.827 4.842-2.794 3.235-4.402-8.278-8.278-16.93 14.834-11.272 30.11 1.155 3.116 6.529 19.484 11.944 36.374 11.26 35.12 9.374 31.82 19.693 34.459 7.783 1.99 11.079 3.137 25.646 8.927 50.676 20.139 85.996 58.3 90.43 97.707l.914 8.122 3.999-.002c46.194-.031 85.077-19.984 101.654-52.162 17.239-33.465 5.554-78.192-22.56-86.35-32.844-9.528-44.584-25.621-36.436-49.944 8.922-26.628 6.46-42.716-8.933-58.383-10.341-10.523-19.096-14.657-37.156-17.541-12.301-1.965-16.911-3.778-16.597-6.526 2.812-24.561-20.032-44.23-50.675-43.631-45.404.888-40.47 2.347-57.881-17.115-14.226-15.902-29.27-22.123-49.03-20.276zm126.193 44.626c12.27 3.747 20.78 13.054 24.57 26.869 2.212 8.06 1.736 7.999-4.07-.527-8.384-12.316-22.76-24.945-30.59-26.873-1.184-.292-2.152-.866-2.152-1.276 0-.975 6.063-.08 12.242 1.807zM584.69 95.609c21.188 34.134 16.127 86.875-10.647 110.948-8.881 7.986-27.126 18.289-32.417 18.308-2.94.01-1.976-1.351 1.956-2.763 48.819-17.533 66.962-71.17 41.256-121.964-3.906-7.721-3.812-7.463-2.742-7.463.426 0 1.592 1.32 2.594 2.934zm-451.19-.546C70.387 101.549 17.275 154.72 3.668 225.04c-19.905 102.87 43.447 201.396 135.698 211.039 9.752 1.019 9.776 1.032 10.485 5.773.265 1.769 1.24 7.173 2.168 12.008l1.686 8.792 3.977-.445c3.18-.356 5.94.133 13.756 2.437a9351.03 9351.03 0 0 0 11.202 3.296c1.654.482 1.803 1.729-2.32-19.291-2.815-14.361-2.785-14.86.895-14.928 3.255-.058 22.69-6.365 27.863-9.04 2.78-1.437 2.495-2.074-1.07-2.382-3.926-.338-6.426-1.003-6.685-1.78-.134-.403-1.397-.347-2.955.13-3.01.924-4.046.374-4.464-2.37-.145-.946-.507-1.965-.805-2.263-.917-.92-.601-1.846.632-1.846.645 0 1.173-.292 1.173-.65 0-.36 3.257-2.892 7.236-5.63 26.906-18.511 44.73-39.27 56.737-66.076 4.017-8.97 8.287-20.694 7.736-21.245-.926-.928-10.326 11.479-14.614 19.29-25.75 46.91-54.673 69.123-92.295 70.886C68.379 415.024 5.793 282.932 52.92 185.369c22.249-46.06 68.493-73.406 108.858-64.373l2.465.55-1.17-2.345c-.78-1.56-1.953-2.502-3.506-2.813-1.672-.334-2.04-.657-1.295-1.14.713-.458.777-.855.202-1.257-1.333-.932-1.975-3.323-.897-3.336.6-.008.519-.287-.22-.754-.645-.408-1.217-1.106-1.271-1.553a406.07 406.07 0 0 0-.22-1.788c-.071-.576-.464-.387-.956.459-.774 1.33-.916 1.28-1.931-.676-1.37-2.638-1.371-2.99-.012-2.468.745.286.968-.027.714-1.001-.204-.78.07-1.691.613-2.025.692-.428.835-.223.483.694-.275.715-.158 1.3.258 1.3.66 0 1.138-2.328.845-4.122-.053-.332.784-.443 1.863-.247 1.079.195 1.96.104 1.96-.204 0-.978 4.469-2.287 6.775-1.983l2.222.293-2.347-.81c-3.264-1.126-24.354-1.58-32.853-.707zm498.29 18.72c28.75 7.29 35.887 17.913 37.195 55.367 1.904 54.52 13.458 77.58 46.329 92.46 12.365 5.597 9.906 9.67-2.604 4.316-32.208-13.785-46.835-41.421-48.018-90.726-1.037-43.177-8.458-52.964-44.493-58.673-3.087-.49-4.194-1.814-3.351-4.011.6-1.563 5.373-1.157 14.943 1.268zm-193.374 9.12c-.771 2.012 1.359 3.027 11.89 5.665 11.899 2.979 13.097 3.043 12.76.676-.423-2.984-23.645-8.957-24.65-6.34zm5.794 14.368c-6.576 5.173-6.582 22.676-.008 22.676 7.109 0 10.424-21.19 3.718-23.764-1.664-.638-1.428-.708-3.71 1.088zM180.787 541.327c-.556.67-2.623 2.14-4.593 3.269-1.971 1.127-3.69 2.122-3.818 2.21-.217.149 1.023 7.7 8.863 53.925 4.104 24.199 7.172 28.218 21.456 28.099 17.118-.143 18.366-5.1 11.12-44.134a12143.4 12143.4 0 0 1-6.008-32.547l-1.29-7.124-7.358-.44c-5.584-.332-8.42-.924-11.767-2.457-5.18-2.371-5.29-2.384-6.605-.801zm88.502 39.009c.183.183 6.665.539 14.405.79 7.74.252 18.649.633 24.242.848 45.92 1.756 52.374 1.896 53.109 1.16.527-.525-2.687-.791-9.734-.805-5.786-.01-14.041-.193-18.344-.405-23.026-1.136-64.254-2.164-63.678-1.588zm103.18 3.524c-.841.582 1.593.837 8.605.902 5.378.05 11.362.22 13.298.379s5.984-.006 8.996-.364c5.04-.6 4.652-.657-4.897-.711-5.705-.033-13.626-.275-17.6-.54-4.52-.3-7.667-.174-8.401.334zm-62.082 311.159c-1.615 16.48-.237 14.69-9.248 11.99-4.13-1.24-8.31-2.37-9.291-2.51-1.754-.26-1.855.16-5.893 24.38-2.26 13.55-6.97 40.83-10.464 60.62-21.907 124.05-21.755 122.57-14.468 140.78 21.176 52.93 94.708 51.79 124.11-1.94 2.999-5.47 5.319-12.14 15.919-45.76 9.219-29.23 17.827-55.89 38.755-120.04 4.697-14.39 8.539-26.55 8.539-27.02 0-.48-3.03-1.29-6.845-1.84-32.155-4.6-33.37-5.54-28.674-22.11.295-1.04-.943-1.51-6.897-2.63-27.204-5.12-62.58-15.11-83.386-23.55-5.733-2.33-10.507-4.23-10.611-4.23-.103 0-.798 6.24-1.546 13.86zm471.566-6.71c-31.587 18.71-81.884 36.3-130.62 45.66-8.174 1.57-15.656 3.01-16.626 3.2-3.277.64 33.54 68.46 75.538 139.16 23.738 39.95 41.128 58.66 65.463 70.43 49.78 24.06 107.845-14.48 107.87-71.61.01-20.5-1.366-24.06-25.083-64.92-32.536-56.06-36.688-63.28-45.155-78.59-4.78-8.64-12.386-22.64-16.903-31.11-4.518-8.48-8.395-15.42-8.617-15.43-.222-.02-2.862 1.43-5.867 3.21zm118.307 300.27c-.864 1.01-1.011 1.68-.447 2.03 3.25 2.01-1.682 11.96-9.698 19.57-9.64 9.16-13.226 10.22-23.503 6.94-25.901-8.27-50.47 14.09-45.552 41.46l1.264 7.04 36.089-.21 36.089-.21 4.289-3.31c9.254-7.13 22.576-21.56 34.048-36.86 6.232-8.31 7.414-5.98-10.464-20.66-7.1-5.83-14.69-12.1-16.866-13.95-3.855-3.26-3.993-3.31-5.25-1.84zm-686.582 23.55c-17.89 1.59-34.086 15.49-38.703 33.22-2.095 8.04-2.507 19.09-.714 19.14 9.012.25 154.435.17 154.63-.08.288-.38-1.635-26.95-2.241-30.97-.335-2.22-3.46-4.53-3.46-2.55 0 .41-10.874.71-25.74.71h-25.741l-13.968-6.94c-17.177-8.52-24.694-11.14-37.023-12.89-.645-.09-3.813.07-7.04.36zm652.18 58.38c4.842.14 12.762.14 17.6 0 4.842-.14.88-.25-8.8-.25-9.68 0-13.638.11-8.8.25z" clip-rule="evenodd"/><path fill="#cde801" fill-rule="evenodd" d="M780.724.413c-.53.327-1.347.459-1.817.292-.47-.166-3.845.406-7.502 1.272-3.657.866-7.088 1.62-7.627 1.679-.537.057-.977.377-.977.71 0 .335-.704.473-1.565.307-.86-.166-1.564.019-1.564.41 0 .393-.492.525-1.095.294-.601-.231-1.33-.038-1.618.429-.29.467-.852.646-1.252.398-.401-.247-.73-.09-.73.354 0 .442-.584.579-1.3.304-.951-.365-1.127-.217-.654.549s.297.913-.654.548c-.716-.275-1.302-.17-1.302.234 0 .403-.528.53-1.173.283-.645-.248-1.173-.04-1.173.462 0 .5-.352.694-.783.428-.43-.266-.782-.051-.782.476s-.205.754-.455.504c-.986-.987-18.318 8.219-18.318 9.73 0 .348-.54.633-1.198.633-.66 0-1.4.525-1.647 1.168-.247.643-.752.982-1.123.752-.371-.23-1.123.3-1.671 1.178-.547.878-1.41 1.595-1.915 1.595-.506 0-3.954 2.88-7.661 6.4-7.052 6.696-14.964 15.504-12.946 14.413.646-.348.026.309-1.376 1.463-1.402 1.154-2.372 2.385-2.155 2.736.216.35-.154.848-.825 1.105-.67.257-1.01.804-.755 1.216.254.412-.262 1.136-1.146 1.609-.885.474-1.425 1.159-1.2 1.522.224.363-.168.882-.872 1.153-.704.27-1.084.688-.843.929.24.24-.25 1.126-1.09 1.966-.84.84-1.318 1.867-1.062 2.28.256.415.102.755-.342.755-.446 0-1.355 1.056-2.022 2.346-.668 1.29-1.03 2.347-.803 2.347.226 0-.305.717-1.181 1.593-.877.877-1.384 1.933-1.127 2.346.255.415.072.755-.41.755-.481 0-.657.352-.391.782.266.43.09.782-.391.782s-.657.352-.391.782c.266.43.122.782-.321.782-.442 0-.602.525-.355 1.168.255.664-.09 1.372-.803 1.645-.687.265-1.055.795-.817 1.18.238.386.039.7-.442.7s-.675.323-.432.717c.243.393.114.833-.286.977-.401.144-.843.79-.983 1.436-.14.645-.536 1.38-.88 1.635-.344.253-.683 1.22-.753 2.15-.07.93-.425 1.69-.79 1.69-.363 0-.463.323-.22.716.244.393.073.839-.38.989-.451.15-.88 1.06-.952 2.023-.073.96-.447 1.748-.832 1.748-.385 0-.505.505-.268 1.122.237.618.109 1.234-.285 1.369-.393.136-.876 1.127-1.071 2.202-.196 1.076-.41 1.956-.474 1.956-4.302 0 1.05 2.736 8.113 4.146 37.576 7.508 53.546 36.326 41.03 74.043-8.846 26.659 9.603 49.356 42.379 52.137 16.347 1.387 23.598.2 24.633-4.031 1.049-4.288-1.322-5.05-15.718-5.05-7.053 0-12.825-.264-12.825-.587-.001-.323-.711-.586-1.58-.586-8.64 0-24.646-10.676-28.675-19.124-.728-1.53-1.632-2.78-2.008-2.78-.376 0-.481-.327-.234-.727.248-.401.087-.953-.357-1.227-.445-.275-.636-.777-.427-1.117.21-.338.02-1.81-.42-3.27-2.04-6.751-.473-22.916 3.25-33.551 1.282-3.657 2.409-7.001 2.505-7.431.097-.431.355-.96.574-1.174.218-.215 1.418-2.327 2.665-4.693 8.536-16.183 23.522-30.926 39.569-38.926 4.087-2.04 7.635-3.982 7.884-4.32.25-.336 1.099-.364 1.889-.061 1.064.408 1.27.284.798-.48-.49-.792-.16-.91 1.436-.508 1.14.286 2.073.246 2.073-.09 0-.695 15.18-.581 16.32.123.41.255 1.307.247 1.992-.015.698-.27 1.243-.078 1.243.435 0 .5.32.714.712.472 1.005-.621 3.278.368 2.763 1.202-.235.38.045.51.62.29 1.318-.506 5.646 3.908 4.946 5.04-.332.539-.014.648.892.309 1.283-.481 1.305-.397.236.94-.924 1.159-.94 1.33-.072.808.85-.513 1-.28.66 1.023-.243.928-.094 1.687.33 1.687.457 0 .552.996.234 2.444-.407 1.855-.3 2.298.443 1.839.733-.453.849-.083.46 1.467-.343 1.369-.206 2.072.408 2.072.51 0 .694.232.41.516-.284.284.186 1.008 1.043 1.609.858.6 1.56 1.558 1.56 2.125 0 .569.615 1.517 1.369 2.108 1.193.935 1.269.917.586-.137-.615-.952-.528-.94.407.06.654.699 1.67 1.109 2.26.913.589-.196.857-.01.594.414-.284.46.378.634 1.652.43 1.248-.198 1.756-.07 1.228.31-.716.515 51.47.798 52.917.287.216-.076 1.286-.258 2.378-.405 5.504-.738 11.702-7.211 13.224-13.811 2.183-9.47.742-71.86-1.661-71.86-.404 0-.517-.352-.252-.782.266-.43.11-.782-.345-.782-.455 0-.828-.528-.828-1.173 0-.646-.296-1.174-.656-1.174-.362 0-1.062-.89-1.558-1.977-.496-1.088-1.52-2.208-2.277-2.491-.757-.282-1.84-1.158-2.407-1.947-.567-.788-1.36-1.23-1.76-.983-.401.248-.73.124-.73-.274 0-.85-6.373-5.267-7.234-5.015-.322.094-.587-.15-.587-.543 0-.852-7.817-5.79-7.834-4.95-.007.32-.274.169-.593-.334-.73-1.145-10.394-6.715-11.715-6.751-.538-.015-.978-.357-.978-.763 0-.404-.605-.503-1.345-.22-.74.285-1.086.258-.77-.058.769-.768-4.075-2.771-5.127-2.121-.48.298-.59.133-.263-.394.486-.788-.405-1.101-2.381-.837-.274.037-.756-.35-1.071-.858-.315-.51-1.464-.98-2.554-1.045-1.091-.065-1.847-.34-1.681-.61.446-.721-16.697-5.581-17.64-5-.441.275-.804.082-.804-.427 0-.616-.801-.766-2.386-.45-1.47.295-2.203.184-1.912-.287.26-.421-.338-.771-1.33-.778-2.354-.016-8.061-.59-8.061-.808 0-.501-28.59-.432-29.401.07zm47 252.298c-3.196 1.387-7.165 4.957-6.573 5.914.224.365.015.663-.466.663-.481 0-.657.352-.391.782.266.43.15.782-.255.782-.418 0-.597 2.063-.411 4.755.243 3.544.089 4.609-.605 4.18-.651-.402-.798-.068-.49 1.112.243.928.099 1.687-.32 1.687-.42 0-.538.704-.265 1.564.357 1.126.14 1.564-.776 1.564-.7 0-1.055.352-.79.783.267.43.09.782-.39.782-.481 0-.623.407-.317.903.332.535.217.692-.281.384-.463-.286-1.494.276-2.292 1.247-.797.973-1.966 1.885-2.597 2.026-.631.143-1.41.67-1.73 1.174-.32.503-.586.58-.593.172-.007-.41-.407-.348-.89.134-.482.483-1.42.669-2.084.415-.77-.295-1.01-.145-.663.415.389.63-1.461.834-6.518.72-3.885-.088-7.063-.423-7.064-.746-.007-1.94-3.923-.422-4.036 1.565-.408 7.17-1.01 10.562-3.073 17.34-7.76 25.488-27.768 45.737-56.45 57.127-2.473.982-4.497 2.07-4.497 2.42 0 .972 5.66 5.42 6.352 4.992.335-.206 1.008.368 1.495 1.278.486.909 1.085 1.452 1.33 1.207.246-.245.947.165 1.559.91.743.906.945.967.606.184-.338-.783-.137-.722.607.183.61.746 1.342 1.128 1.622.848.28-.28.509-.078.509.449s.354.74.788.472c.433-.268.99.04 1.238.686.264.689.962.978 1.687.7.813-.312 1.045-.164.677.432-.366.59-.14.744.654.44.669-.257 1.214-.057 1.214.446 0 .5.352.695.782.429.43-.266.782-.09.782.39 0 .482.352.658.783.392.43-.266.782-.09.782.39 0 .482.328.673.728.426.4-.248.953-.087 1.227.357.275.444.827.606 1.228.358.4-.248.728-.09.728.354 0 .442.528.6 1.173.354.646-.248 1.174-.072 1.174.39 0 .463.528.639 1.173.392.645-.248 1.173-.072 1.173.39 0 .463.528.639 1.174.392.645-.248 1.173-.038 1.173.468 0 .58.612.725 1.662.39 1.145-.362 1.49-.248 1.11.366-.376.61.088.777 1.468.527 1.11-.201 2.018-.014 2.018.417 0 .442.723.553 1.662.255 1.133-.36 1.489-.247 1.119.353-.378.612.313.774 2.259.533 1.867-.232 2.63-.068 2.285.49-.338.549.205.7 1.573.438 1.15-.22 2.279-.094 2.51.28.23.373 1.807.457 3.5.186 2.124-.34 3.083-.206 3.083.429 0 .665 1.44.782 5.174.422 3.64-.351 5.017-.247 4.647.352-.354.57.79.85 3.477.85 2.833 0 3.84-.264 3.444-.905-.383-.62-.03-.767 1.126-.464.927.243 1.864.153 2.08-.2.219-.351 1.432-.248 2.697.23 1.764.666 2.748.628 4.224-.161 1.058-.567 2.35-.768 2.868-.447.522.322 1.25.1 1.627-.494.52-.821.686-.838.696-.073.008.739.399.798 1.473.223.804-.43 1.669-.575 1.92-.322.255.253 1.093.196 1.865-.128.77-.324 2.106-.655 2.967-.738 3.962-.38 8.213-1.411 8.213-1.991 0-.352.704-.456 1.565-.232.86.226 1.564.076 1.564-.334 0-.408 1.087-.743 2.416-.743 1.328 0 2.648-.322 2.933-.716.285-.394 1.382-.815 2.439-.933 1.057-.118 2.113-.486 2.347-.82.233-.332 1.138-.647 2.009-.7 4.384-.266 31.846-13.236 45.62-21.546 2.892-1.745 7.374-7.421 6.709-8.497-.233-.376-.012-.684.489-.684.502 0 .71-.528.462-1.173-.247-.646-.138-1.174.244-1.174 1.315 0 1.032-76.494-.3-80.916-1.077-3.58-6.883-10.398-9.113-10.702-1.485-.203-1.911-.33-2.672-.801-1.895-1.172-56.25-.64-59.06.58zm-280.818.342c0 9.425-32.374 25.008-51.958 25.008-8.524 0-8.377.11-9.76-7.367-.47-2.541-1.016-4.783-1.214-4.982-.39-.39-16.847 5.216-17.853 6.08-2.128 1.828-3.178 19.245-3.305 54.767-.133 37.43-.263 39.5-3.913 62.397-3.6 22.585-10.604 53.05-17.184 74.756-3.248 10.713-3.257 10.689 3.777 10.684l5.587-.004 6.413-5.54c5.447-4.704 6.61-6.148 7.724-9.578 23.446-72.221 70.019-159.981 103.107-194.293l4.693-4.866-3.062-1.28c-8.734-3.648-23.052-7.241-23.052-5.782zm-302.212 233.99c-6.88 6.88-9.2 23.239-6.551 46.216l.609 5.276-4.226 2.702c-6.082 3.89-6.87 9.4-3.318 23.214 3.925 15.268 7.485 17.655 28.279 18.963l5.525.348-.255-2.077c-2.022-16.465-14.198-98.824-14.682-99.31-.197-.195-2.618 1.905-5.381 4.669zm501.289 13.624c-.861.209-3.15.77-5.085 1.249-27.924 6.902-51.038 52-40.652 79.32l.809 2.127 7.993-.453c43.005-2.436 87.186-30.718 84.795-54.282-1.714-16.902-28.621-32.621-47.86-27.961zm-339.368 98.889c-21.854 44.785-52.972 124.726-69.727 179.13-16.404 53.263-27.323 100.283-23.807 102.533 1.697 1.09 19.633 8.02 28.95 11.19 18.287 6.23 71.114 19.16 71.114 17.41 0-.47 9.562-62.39 12.036-77.94 1.062-6.67 3.206-20.22 4.767-30.117 2.895-18.358 6.938-43.39 11.75-72.747 2.696-16.436 7.515-47.456 10.575-68.054.895-6.023 2.983-24.57 4.64-41.214 1.658-16.645 3.245-30.637 3.527-31.093.323-.521-.451-.837-2.075-.845-1.424-.008-6.46-.211-11.193-.453-4.732-.241-14.29-.675-21.24-.964l-12.636-.525z" clip-rule="evenodd"/><path fill="#62667c" fill-rule="evenodd" d="M286.669 1231.399c6.803.13 17.715.13 24.249 0 6.535-.13.968-.24-12.37-.24-13.336 0-18.681.11-11.88.24zm711.775 34.41c2.91.15 7.66.15 10.56 0 2.91-.15.53-.27-5.28-.27-5.81 0-8.18.12-5.28.27z" clip-rule="evenodd"/><path fill="#737373" fill-rule="evenodd" d="M168.03 96.975c-.707.708-1.286 1.03-1.286.718 0-.312-.704.07-1.564.848-1.407 1.274-1.565 1.286-1.565.122 0-.712-.32-1.295-.708-1.295-.391 0-.525.704-.301 1.565.385 1.47 1.566 1.942 4.022 1.604.654-.09.418.54-.62 1.654l-1.676 1.8-1.98-2.53c-1.088-1.39-2.394-2.517-2.9-2.503-.507.015-.041.773 1.034 1.686 1.909 1.619 1.914 1.649.195 1.22-.97-.241-1.564-.12-1.323.27.24.39-.275.71-1.148.71-1.156 0-1.467-.371-1.145-1.37.362-1.126.296-1.165-.371-.221-.507.717-.537 1.477-.08 2.027.4.485.469 1.172.15 1.527-.32.356.29.059 1.355-.66 2.576-1.737 4.83-1.734 4.163.006-.388 1.009-.188 1.188.87.782.756-.29 1.873-.527 2.483-.527.61 0 1.109-.528 1.109-1.173 0-.646.45-1.174 1.002-1.174 1.256 0 2.909-4.21 2.142-5.451-.416-.673-.917-.574-1.857.365zm-8.386 8.02c-.033.323-.178 1.204-.322 1.959-.144.755.064 1.17.464.924a.857.857 0 0 0 .276-1.177c-.694-1.123.665-.864 2.61.498.964.675 1.516 1.608 1.228 2.075-.343.553-.862.384-1.503-.492-.67-.916-1.15-1.06-1.523-.457-.734 1.188-.097 1.696 2.299 1.834 2.864.165 1.99 1.643-.983 1.663-1.364.009-2.481.28-2.483.604l-.003 1.173c0 .323.836.587 1.856.587s1.715-.368 1.542-.82c-.375-.978 2.806-1.02 4.313-.055.893.572.893.797 0 1.423-.845.592-.851.689-.025.47.57-.151 1.04-.618 1.044-1.038.005-.42.347-1.171.762-1.67.877-1.057-.43-2.168-1.903-1.618-.517.192-1.483-.774-2.146-2.147-.936-1.94-.98-2.498-.196-2.498.557 0 1.01.625 1.01 1.388 0 1.845 1.566 2.74 2.42 1.385.442-.701.26-1.392-.52-1.977-.938-.702-.977-.988-.18-1.311.56-.228-.654-.274-2.697-.104-2.087.173-3.715-.023-3.715-.45 0-.88-1.536-1.041-1.625-.17zm2.994 12.433c.538.225.977.844.977 1.375 0 1.823 3.542 3.99 12.132 7.425 68.227 27.277 106.47 120.006 81.863 198.493l-2.243 7.155 4.063-4.418c8.048-8.748 8.673-9.708 10.003-15.37 18.735-79.705-24.85-169.113-93.382-191.56-6.69-2.192-16.886-4.547-13.413-3.1zm38.329 296.07c1.384 1.395 1.218 2.627-.196 1.454-.931-.772-1.173-.774-1.173-.005 0 .585-.622.807-1.565.56-.862-.225-1.37-.09-1.128.3.24.39-.022.72-.586.733-1.563.037 1.857 1.813 3.915 2.033 1.113.12 1.689-.164 1.496-.736-.172-.511-1.338-.845-2.591-.741-2.062.17-2.116.119-.564-.545 1.05-.45 2.719-.456 4.303-.018 2.23.617 2.399.573 1.218-.323-.753-.572-1.37-1.403-1.37-1.847 0-.444-.616-1.043-1.368-1.33-1.098-.417-1.175-.325-.391.465z" clip-rule="evenodd"/><path fill="#737373" fill-rule="evenodd" d="M175.349 97.547c0 .475-.237.627-.525.339-.288-.288-1.333.006-2.323.654-1.651 1.082-1.764 1.067-1.367-.193.369-1.174.253-1.153-.806.147-.68.836-1.237 1.979-1.237 2.543 0 .563-.528 1.023-1.174 1.023-.645 0-1.173.488-1.173 1.082 0 1.382-4.083 2.205-4.947.998-.435-.61-.542-.523-.324.267.229.829 1.257 1.133 3.503 1.034 2.395-.104 3.264.186 3.52 1.174.44 1.702-.101 3.268-1.131 3.268-.49 0-.427-.465.16-1.174.563-.676.639-1.173.18-1.173-.771 0-1.743 1.766-1.743 3.168 0 .382.51.498 1.136.258 1.534-.59 2.94.374 2.213 1.517-.323.508-.593 1.247-.6 1.64-.006.395-.415.852-.91 1.017-.492.164-.844-.296-.781-1.024.064-.728-.374-1.495-.973-1.705-.827-.29-.964.114-.57 1.682.343 1.369.216 1.994-.38 1.86-.492-.11-1.03.163-1.196.607-.166.443.539.876 1.566.96 16.258 1.347 48.035 20.066 62.728 36.954 69.254 79.599 59.056 192.584-22.721 251.722-1.964 1.42-3.38 2.896-3.143 3.277.237.383-.35 1.422-1.303 2.31-1.437 1.339-1.555 1.783-.685 2.59.853.79.962.724.583-.356-.331-.942-.136-1.202.667-.894.624.239 1.133.888 1.133 1.44 0 .554.522 1.207 1.16 1.452.719.276.967.952.65 1.776-.346.902-.215 1.149.404.766.504-.311.915-.192.915.263s.704.828 1.565.828c.86 0 1.476-.44 1.369-.977-.115-.574.612-.978 1.76-.978 1.433 0 2.022.47 2.206 1.76.23 1.632.345 1.668 1.529.483.838-.838 1.38-.974 1.575-.392.163.488.832.887 1.487.887.739 0 1.02-.447.742-1.174-.247-.645-.14-1.173.242-1.173.38 0 .81.339.954.752 1.498 4.32 34.29-24.682 47.077-41.635 39.975-53.001 44.858-136.61 11.479-196.523-24.498-43.97-56.81-71.481-96.82-82.437-3.717-1.017-5.671-1.255-5.671-.69z" clip-rule="evenodd"/><path fill="#fac5a7" fill-rule="evenodd" d="M458.356 233.276c3.57.144 9.202.143 12.515-.003 3.315-.146.394-.264-6.49-.263-6.883 0-9.595.12-6.025.266z" clip-rule="evenodd"/><path fill="#737373" fill-rule="evenodd" d="M617.307 113.71c0 1.633 1.45 2.43 4.423 2.43 28.814 0 41.98 16.895 43.282 55.539 1.329 39.506 7.01 58.539 22.712 76.079 8.222 9.185 26.159 20.134 32.985 20.134 3.44 0 .925-2.931-4.355-5.078-20.323-8.26-35.238-24.867-42.158-46.94-1.744-5.561-2.467-8.592-4.11-17.21-.244-1.29-.94-12.905-1.545-25.812-1.597-34.086-4.086-41.293-17.473-50.61-8.937-6.218-33.761-12.492-33.761-8.532z" clip-rule="evenodd"/><path fill="#f7934c" fill-rule="evenodd" d="M435.783 83.874c-15.946 17.255-36.041 61.258-32.357 70.856.242.63.053 1.385-.42 1.678-.524.324-.663 1.577-.357 3.208.312 1.665.192 2.676-.318 2.676-1.552 0-.581 27.716 1.192 34.027 7.15 25.45 25.737 36.374 61.894 36.374h13.045l2.969 15.058c1.633 8.28 3.282 16.29 3.662 17.795.382 1.506.932 4.399 1.223 6.429 1.876 13.079 43.82 1.548 57.53-15.815l2.16-2.738-2.99-8.996c-27.061-81.39-28.402-94.333-9.543-92.153 3.894.45 3.199 3.372-1.351 5.678-5.43 2.75-5.951 3.984-5.905 13.92l.04 8.409 2.647 2.73c16.63 17.157 49.19-8.814 47.549-37.927-1.58-28.03-37.08-36.32-50.873-11.88l-2.37 4.2-3.385-.506c-26.715-4.006-67.693-33.176-76.952-54.777-1.874-4.371-1.298-4.514-7.09 1.754zm15.243 39.81c11.825 3.062 12.965 3.579 12.965 5.875 0 2.518-1.98 2.498-12.723-.13-13.1-3.201-15.794-4.796-12.935-7.656 1.197-1.196-.02-1.38 12.693 1.912zm.215 15.789c3.196 7.649-1.375 21.255-7.14 21.255-6.03 0-7.654-13.652-2.531-21.256 3.585-5.32 7.449-5.318 9.67 0zM183.5 461.885c.248 1.29.668 3.454.93 4.808.416 2.136.287 2.404-.977 2.037a18982.7 18982.7 0 0 1-11.101-3.243c-20.421-5.97-48.665 7.005-41.275 18.96.25.405.618 2.014.818 3.576.558 4.36 3.727 15.678 4.47 15.973.366.145.47.577.233.96-.698 1.129 4.267 17.023 7.437 23.81 8.473 18.14 24.237 23.506 36.174 12.312l2.123-1.991 4.649 2.086c4.162 1.868 13.569 3.364 21.612 3.437.86.008 3.757.28 6.436.603 3.12.378 5.23.295 5.867-.232.547-.452 2.226-.79 3.732-.748 1.506.04 3.66-.431 4.787-1.048 9.559-5.233 8.75-4.441 8.193-8.03-1.68-10.814-1.333-30.568.715-40.807.46-2.295.327-2.412-6.026-5.303-4.113-1.872-11.804-6.821-20.967-13.493-20.16-14.68-28.851-18.947-27.83-13.667zm668.08 677.854c-8.845 6.33-27.35 14.4-33.046 14.41-.968 0-1.761.45-1.762.98-.002 1.17 6.969 11.54 7.758 11.54.3 0 3.442-1.05 6.979-2.34 12.578-4.59 19.203-1.86 28.845 11.9 5.357 7.64 6.766 7.91 10.494 1.98 4.147-6.6 3.94-13.84-.582-20.41-1.825-2.65-5.72-8.41-8.654-12.8-6.231-9.32-5.148-8.75-10.032-5.26zm-570.79 24.39-1.33 4.5 3.088 2.74c4.024 3.56 5.27 6.84 7.12 18.73 2.24 14.41 2.894 14.97 15.573 13.48 19.5-2.28 20.777-3.32 24.975-20.32 3.92-15.86 4.428-14.41-4.651-13.34-12.217 1.45-25.984-1.35-37.407-7.6-6.204-3.39-5.798-3.49-7.367 1.81z" clip-rule="evenodd"/><path fill="#c18159" fill-rule="evenodd" d="M236.67 516.25c.002 6.023.125 8.383.274 5.245.149-3.137.147-8.065-.002-10.951-.15-2.885-.272-.318-.271 5.706z" clip-rule="evenodd"/><path fill="#4d4a40" fill-rule="evenodd" d="M191.97 417.077c-.536.193-.977.695-.977 1.114 0 .42.352.546.782.28.43-.266.788-.023.794.54.01.829.139.825.675-.02.503-.793.763-.652 1.088.587.24.923 1.052 1.62 1.868 1.607 1.354-.022 1.358-.072.073-.821-1.51-.88-1.842-2.284-.54-2.284.455 0 .574.41.263.915-.381.616-.14.752.736.415.715-.274 1.3-.134 1.3.312 0 .454.689.592 1.566.314 1.02-.325 1.568-.14 1.576.534.009.757.213.719.77-.143.657-1.016.76-1 .77.126.007.715.53 1.224 1.163 1.13 1.634-.24 2.478-1.256 1.043-1.256-.811 0-1.127-.63-.982-1.956.118-1.076-.105-1.956-.498-1.956s-.713.557-.713 1.238c0 .997-.571 1.14-2.934.738a640.546 640.546 0 0 0-4.12-.687c-.653-.104-1.533-.39-1.956-.633-.422-.245-1.208-.286-1.746-.094zm-6.303 853.432c5.46.13 14.612.13 20.338 0 5.726-.13 1.259-.24-9.927-.24s-15.871.11-10.411.24zm98.607 0c2.903.15 7.656.15 10.56 0 2.903-.15.528-.28-5.28-.28s-8.184.13-5.28.28z" clip-rule="evenodd"/><path fill="#eef5f6" fill-rule="evenodd" d="m296.594 468.466 26.935 2.749c1.007 1.113 4.178 1.475 20.179 2.303 10.44.54 20.568 1.137 22.504 1.327 1.936.189 18.128 1.044 35.982 1.899 17.855.856 36.367 1.77 41.138 2.032l8.676.477 6.969-5.847c3.833-3.215 12.953-11.028 20.267-17.363 20.802-18.017 71.036-61.056 80.717-69.156 9.152-7.657 10.234-8.985 8.766-10.755-1.364-1.642-2.231-1.345-6.517 2.235-16.221 13.549-60.48 51.42-85.51 73.169-6.13 5.327-11.145 9.522-11.145 9.323 0-1.21 7.29-21.14 12.62-34.5 29.88-74.897 65.556-137.7 92.868-163.477l2.408-2.273 7.26 2.97c52.15 21.339 87.027 59.705 90.238 99.266l.546 6.738c6.187 86.827 22.235 273.232 36.94 324.233 14.707 51 59.032 148.233 79.356 190.473-.32 0-2.845 1.37-5.612 3.06-24.223 14.71-67.511 31.26-106.581 40.74-11.05 2.68-40.464 8.61-42.72 8.61-18.097 1.56-61.918 4.69-92.425 4.69-29.44 0-73.686-5.03-94.17-7.81-.573-.1-1.256-.19-2.051-.28l-.078-.01c-4.323-.51-21.786-3.63-29.187-5.21l-3.911-.84 1.02-6.42c.563-3.53 2.81-18.03 4.996-32.23a18776.18 18776.18 0 0 1 20.805-131.804c8.677-53.586 12.463-77.856 15.257-97.778.12-.86.199-1.601.268-2.245.172-1.62.278-2.614.808-3.263.846-1.038 2.774-1.193 7.782-1.595 1.247-.1 2.685-.216 4.345-.364 3.227-.288 6.395-.615 7.04-.725.645-.11 3.285-.446 5.867-.746 72.485-8.422 102.125-36.417 133.399-125.996 13.472-38.586 14.859-51.787 6.495-61.794-3.832-4.585-4.411-4.463-6.516 1.367-10.645 29.48-42.848 79.706-64.441 100.505-18.264 17.59-31.283 22.468-58.674 21.985l-15.148-.267-10.074-10.24c-30.511-31.016-63.336-44.817-111.394-46.833-5.82-.244-11.452-.603-12.515-.797l-7.018-1.28c-13.92-2.531-26.843-6.367-55.538-16.482-2.275-.802-4.31-1.502-6.132-2.13-8.634-2.97-12.482-4.295-14.454-6.991-1.586-2.168-1.96-5.224-2.633-10.736a363.109 363.109 0 0 0-.62-4.876c-.297-2.201-.6-4.118-.861-5.784-.803-5.094-1.237-7.85-.06-9.248 1.388-1.647 5.013-1.41 12.909-.895 2.192.144 4.714.308 7.609.46 21.218 1.113 23.016.99 23.016-1.571zM622.32 63.854c6.942 4.165 17.724 14.919 23.162 23.1 5.119 7.704 5.273 7.683 2.733-.356-4.13-13.072-12.754-21.66-25.042-24.934-6.38-1.7-6.561-1.234-.853 2.19zm-480.058 56.655c-.087.066-2.974.336-6.416.6-63.075 4.84-109.931 86.27-95.94 166.73 22.707 130.59 149.833 166.235 207.775 58.259 47.218-87.99-11.667-221.34-99.552-225.443-3.14-.146-5.78-.213-5.867-.146zm818.63 338.01c-1.335 2.927-6.708 15.53-11.938 28.007-14.4 34.343-16.891 40.212-19.518 45.992-3.032 6.67-2.852 6.927 4.532 6.437 5.684-.378 43.114-1.152 57.046-1.18 3.74-.008 6.45-.34 6.45-.79 0-.678-6.17-15.692-10.13-24.646-.76-1.721-3.76-9.113-6.66-16.427-2.903-7.313-5.73-14.353-6.28-15.644-.552-1.291-1.598-3.931-2.326-5.867s-1.818-4.576-2.421-5.866c-.604-1.291-2.274-5.27-3.712-8.843l-2.614-6.495zm-354.26 139.43c5.988 2.277 12.244 11.278 13.895 19.99 1.332 7.029.988 42.4-.468 48.108-.165.645-.513 4.309-.774 8.142-.261 3.833-.634 7.225-.827 7.538-.193.312.348.752 1.204.976 2.29.598 2.132 4.315-.204 4.797-.968.2-16.394.58-34.28.847-35.025.522-35.188.506-34.156-3.443.215-.82-.096-3.362-.69-5.65-9.45-36.432 28.85-91.74 56.3-81.304zm-251.416 63.91c-42.403 87.493-52.286 123.608-44.976 164.35 1.388 7.74 4.929 21.11 5.904 22.3.266.32 1.776-4.61 3.354-10.95 11.903-47.874 31.118-105.64 54.669-164.353 4.719-11.765 8.469-21.48 8.33-21.586-.137-.107-4.121-.606-8.854-1.11-4.732-.502-9.377-1.121-10.321-1.373-1.56-.417-2.302.747-8.106 12.723zm278.759 54.873c5.124 25.623-18.801 60.677-44.465 65.147-33.505 5.834-56.684-17.153-56.684-56.215v-5.497l7.627-.491c4.194-.27 9.21-.635 11.147-.813 1.936-.177 7.392-.533 12.124-.79 4.733-.258 11.42-.627 14.862-.821 3.442-.194 10.71-.563 16.154-.821 5.444-.256 13.188-.698 17.209-.981 4.022-.283 10.52-.628 14.439-.768l7.126-.255zm-391.251 465.097c-1.987 1.11-.97 2.05 2.2 2.05.769 0 2.29.71 3.385 1.57 3.683 2.89 4.149 1.11.629-2.41-2.531-2.53-3.487-2.72-6.214-1.21zm-5.281 7.94c-2.725 2.73-2.131 3.61 3.547 5.28 4.735 1.4 4.943 1.4 5.98.03 3.833-5.06-4.91-9.93-9.527-5.31z" clip-rule="evenodd"/></svg>