<svg xmlns="http://www.w3.org/2000/svg" width="1286" height="1207" fill="none"><path fill="#8B2C4B" fill-rule="evenodd" d="M906.783 247.631c9.612.256 25.338.256 34.948 0 9.612-.258 1.748-.467-17.474-.467-19.221 0-27.083.209-17.474.467Zm-.776 14.64c10.037.254 26.464.254 36.501 0 10.037-.255 1.825-.464-18.251-.464-20.075 0-28.287.209-18.25.464Zm52.176 15.714.553 6.56-35.102.436-35.103.436 35.336-.042 35.338-.043.474-6.954c.259-3.825-.095-6.953-.788-6.953-.694 0-1.013 2.951-.708 6.56Zm-70.622 19.011c-.48 1.181-.514 2.992-.073 4.025.439 1.034.856.409.922-1.389l.123-3.266 36.113-.422 36.112-.421-36.161-.337c-30.58-.285-36.297-.007-37.036 1.81ZM593.78 383.783c-.341 36.23-.538 38.596-3.467 41.357-1.709 1.61-2.423 2.928-1.589 2.928 5.498 0 6.309-6.202 5.86-44.799l-.442-37.915-.362 38.429Zm-24.543 1.348c.112 36.95 1.368 42.937 9.007 42.937.754 0-.592-1.589-2.988-3.531l-4.359-3.53-.883-35.631-.883-35.63.106 35.385ZM283.412 586.174c0 14.091.233 19.856.518 12.81.285-7.045.285-18.573 0-25.619-.285-7.045-.518-1.281-.518 12.809Z" clip-rule="evenodd"/><path fill="#BFBFFF" fill-rule="evenodd" d="M410.762 40.119c0 12.48.24 17.586.53 11.345.292-6.24.292-16.45 0-22.691-.29-6.24-.53-1.135-.53 11.346Zm120.982 39.149c5.801.282 14.887.28 20.192-.005 5.302-.284.556-.515-10.55-.512-11.106.001-15.445.236-9.642.517Zm41.803-.002c5.73.28 15.515.283 21.745.003 6.232-.278 1.544-.508-10.416-.51-11.959-.002-17.057.226-11.329.507Zm217.601.007c8.374.264 21.654.263 29.512-.002 7.858-.266 1.006-.48-15.225-.48-16.231.002-22.66.219-14.287.482Zm62.826 0c8.757.261 23.084.261 31.841 0 8.757-.26 1.592-.474-15.921-.474-17.513 0-24.678.214-15.92.474Zm56.692-.01c4.913.29 12.95.29 17.863 0 4.912-.29.893-.528-8.931-.528-9.825 0-13.844.238-8.932.528ZM1207.7 476.376c0 116.348.18 163.945.41 105.771.23-58.173.23-153.367 0-211.541-.23-58.173-.41-10.577-.41 105.77ZM80.025 394.395c0 44.687.198 62.968.438 40.625.243-22.345.243-58.907 0-81.25-.24-22.344-.438-4.062-.438 40.625Zm.002 185.922c0 45.492.196 64.104.436 41.357.241-22.746.241-59.967 0-82.714-.24-22.745-.436-4.135-.436 41.357Zm829.863-79.419c44.635.215 117.68.215 162.31 0 44.64-.217 8.12-.393-81.154-.393-89.272 0-125.793.176-81.156.393Zm-.659 2.927c44.275.216 116.269.216 159.979 0 43.72-.216 7.5-.393-80.494-.392-87.99 0-123.758.176-79.485.392Zm149.249 120.411c0 14.895.23 20.988.51 13.541.28-7.449.28-19.636 0-27.083-.28-7.449-.51-1.354-.51 13.542ZM821.356 739.522c60.013.212 158.216.212 218.224 0 60.02-.212 10.92-.387-109.11-.387-120.026 0-169.126.175-109.114.387Zm367.634 132.853c0 21.74.21 30.837.48 20.218.26-10.621.26-28.408 0-39.527-.27-11.12-.48-2.43-.48 19.309Zm-234.546.732c0 20.532.218 28.932.485 18.666.267-10.267.267-27.064 0-37.331-.267-10.267-.485-1.867-.485 18.665Zm166.176 2.196c-.01 16.104.22 22.891.5 15.083.28-7.807.28-20.982 0-29.279-.27-8.296-.5-1.907-.5 14.196ZM261.525 1206.52c22.057.23 57.704.23 79.215 0 21.51-.23 3.463-.42-40.105-.42-43.568.01-61.167.19-39.11.42Zm274.036-.01c6.195.28 16.328.28 22.522 0 6.194-.28 1.126-.5-11.261-.5-12.387 0-17.455.22-11.261.5Zm95.582 0c4.942.29 12.63.29 17.085-.01 4.453-.29.409-.53-8.988-.53-9.398 0-13.041.25-8.097.54Zm97.126.01c20.776.23 54.326.23 74.555 0 20.231-.23 3.232-.42-37.773-.42s-57.556.19-36.782.42Zm273.351 0c10.51.25 27.29.25 37.28 0 9.99-.26 1.38-.46-19.12-.46-20.502 0-28.675.2-18.16.46Zm134.34 0c7.52.26 19.4.26 26.41-.01 7-.27.85-.49-13.67-.49s-20.26.23-12.74.5Z" clip-rule="evenodd"/><path fill="#CCC7B5" fill-rule="evenodd" d="M150.749 281.273c-1.282.457-2.889 1.722-3.573 2.812-.683 1.09-2.081 1.971-3.106 1.959-1.14-.014-.96-.574.466-1.442 1.281-.78 1.631-1.414.776-1.408-.854.004-3.3 1.37-5.436 3.032-2.136 1.663-2.834 2.509-1.553 1.882 2.007-.982 2.033-.796.199 1.337-2.47 2.868-5.514 3.354-4.056.647.544-1.006-.459-.28-2.229 1.616-1.769 1.896-2.763 4.139-2.208 4.985.573.873.267 1.105-.707.539-2.106-1.227-4.978 3.51-4.978 8.208 0 3.925 2.629 6.977 6.011 6.977 2.168 0 18.817-15.636 17.736-16.657-.284-.266 13.99-.623 31.719-.792 17.728-.169 32.538-.594 32.91-.945.371-.35-12.546-.712-28.706-.804-16.159-.092-31.305-.382-33.654-.644-2.542-.284-4.28.228-4.294 1.265-.017 1.249-.379 1.215-1.28-.123-.958-1.425-1.928-1.164-4.101 1.098-3.174 3.308-7.354 4.017-6.143 1.042.431-1.055 3.153-2.727 6.05-3.715 6.982-2.379 15.098-3.297 13.972-1.58-.524.799 3.788 1.244 10.461 1.077l11.352-.281-9.708-.519c-5.338-.287-9.696-.983-9.684-1.549.057-2.483 2.894-4.97 4.56-4 1.004.584 3.034.033 4.511-1.228 2.044-1.744 7.111-2.401 21.259-2.755 15.1-.379 13.636-.504-7.831-.666-14.523-.11-27.454.174-28.735.632Zm558.074 11.74c7.517.269 19.4.268 26.405-.003 7.006-.271.856-.491-13.667-.489-14.523.001-20.254.224-12.738.492Zm-3.102 4.393c8.373.263 21.654.262 29.511-.003 7.858-.265 1.007-.48-15.224-.479-16.232.002-22.66.218-14.287.482Zm-539.719 35.139c22.484.23 58.83.23 80.767 0 21.938-.228 3.542-.416-40.881-.416-44.422 0-62.371.188-39.886.416Zm547.404 197.632c12.6.246 33.221.246 45.821 0 12.599-.246 2.291-.448-22.91-.448-25.202 0-35.51.202-22.911.448Zm140.012 48.68c0 10.87.243 15.316.543 9.881.298-5.434.298-14.329 0-19.763-.3-5.434-.543-.988-.543 9.882Zm4.655 2.196c.001 10.467.25 14.557.548 9.088.3-5.468.298-14.032-.005-19.032-.301-4.997-.546-.524-.543 9.944Zm77.057 8.073c1.875 1.352 1.517 1.513-1.828.827-12.021-2.461-16.969 62.46-5.317 69.759.94.59 2.67-.069 3.844-1.464 1.956-2.32 2.066-2.256 1.311.76-1.227 4.893 4.265 4.303 9.966-1.072l4.632-4.364-.48-29.268c-.524-31.992-.951-33.443-10.575-35.875-3.123-.789-3.428-.652-1.553.697Zm89.56 1.827c.64.978.11 1.242-1.4.697-3.73-1.351-4.38.346-1.65 4.282 1.99 2.856 2.05 3.477.31 3.126-1.19-.24-2.52-1.239-2.95-2.217-.42-.979-.66 12.002-.52 28.846.25 29.912.78 34.614 3.74 32.892.79-.463 1.44-.189 1.44.611 0 2.443 5.63 3.299 9.84 1.494 5.25-2.257 6.21-4.97 1.75-4.97-2.67 0-3.15.457-1.95 1.83 1.14 1.284 1.08 1.83-.18 1.83-.98 0-2.19-.988-2.68-2.196-.49-1.208-1.79-2.196-2.89-2.196s-2.43-1.061-2.96-2.358c-.7-1.709-.3-2.119 1.45-1.488 1.42.514 2.31.129 2.16-.935-.94-6.891.34-19.15 1.79-17.178 1.14 1.555 1.46-3.685 1.09-17.934-.28-11.07.03-20.129.69-20.129.67 0 1.21-.638 1.21-1.418 0-.779-1.16-.997-2.58-.484-1.61.583-2.2.353-1.57-.61.56-.851-.38-1.89-2.08-2.309-1.96-.484-2.71-.187-2.06.814Zm-79.087 43.9c-.295 5.837-.537 1.061-.537-10.614s.242-16.452.537-10.613c.294 5.838.294 15.389 0 21.227Zm-92.201-12.81c.003 9.662.255 13.425.558 8.361.304-5.064.303-12.969-.005-17.568-.308-4.598-.556-.455-.553 9.207Zm170.128 12.322c.23 13.596-1.36 7.251-2.02-8.038-.46-10.747-.29-12.625.63-7.212.69 4.026 1.31 10.889 1.39 15.25Zm51 173.965c15.59.238 41.11.238 56.7 0 15.59-.24 2.83-.435-28.35-.435s-43.94.195-28.35.435Zm-246.961 1.464c15.591.238 41.103.238 56.693 0 15.591-.24 2.834-.435-28.347-.435s-43.938.195-28.346.435Zm95.716 55.265c.003 8.857.259 12.292.569 7.632.309-4.658.306-11.905-.007-16.104-.312-4.197-.565-.385-.562 8.472Zm-59.215 61.846c9.184.26 24.21.26 33.394 0 9.184-.259 1.67-.469-16.697-.469-18.367 0-25.882.21-16.697.469Zm210.46 2.933c15.59.238 41.11.238 56.7 0 15.59-.24 2.83-.435-28.35-.435s-43.94.195-28.35.435Zm-616.998 79.782c4.601 15.08 17.485 29.11 33.036 35.97l8.881 3.93 99.407.76c120.377.94 119.547.78 151.017 28.41 19.35 16.98 45.202 61.6 39.055 67.39-.37.35-140.908.83-312.307 1.08-171.399.24-312.149.93-312.777 1.52-10.89 10.26 24.456 49.81 49.359 55.23 4.316.94 169.368 1.46 468.362 1.48l461.695.04v-3.4c0-18.04-17.23-41.98-36.15-50.22l-9.67-4.21H808.619l-1.13-3.66c-7.397-23.95-10.171-31.46-14.851-40.23-18.699-35.05-48.7-58.34-86.897-67.47l-14.866-3.56-94.16-.03c-110.826-.04-108.4.4-119.41-21.37-3.279-6.48-21.718-8.02-19.773-1.66Z" clip-rule="evenodd"/><path fill="#0A0A0A" fill-rule="evenodd" d="M423.154 4.24c-3.519 1.988-7.184 5.44-8.142 7.67-1.986 4.624-3.304 101.412-1.379 101.41.641 0 1.165-21.485 1.165-47.745 0-58.438 1.569-63.02 21.344-62.32 17.687.627 19.04 5.237 19.04 64.9v49.557H277.205l-1.803-6.353c-2.614-9.215-13.837-20.308-26.477-26.174l-10.349-4.804h-26.439c-36.563 0-51.816 7.199-61.391 28.975l-3.675 8.356h-12.917c-7.575 0-12.917.606-12.917 1.464 0 .936 13.462 1.464 37.278 1.464 23.815 0 37.277-.528 37.277-1.464 0-.805-1.747-1.464-3.883-1.464-5.17 0-4.896-1.865.965-6.512 6.878-5.454 14.54-8.127 23.3-8.127h7.576v17.567h422.013c302.162 0 421.537-.449 420.337-1.581-1.02-.956-6.6-1.391-14.15-1.098l-12.46.483-.55-10.379c-.67-12.456-5.46-20.545-14.75-24.893-5.82-2.723-129.881-3.496-564.737-3.523-2.508 0-2.718-2.538-2.718-32.826V13.995l-4.068-4.555c-8.429-9.443-18.777-11.265-29.513-5.2ZM241.276 84.618c14.115 3.868 30.152 17.983 33.024 29.068l1.044 4.026h-31.308l-3.518-4.485c-12.563-16.015-44.778-15.493-54.071.874-1.99 3.501-2.569 3.611-19.043 3.611h-16.992l1.039-4.026c6.596-25.541 50.657-39.8 89.825-29.068Zm780.524.025c13.47 6.632 23.26 32.918 12.35 33.139-3.75.077-313.103.063-477.62-.019l-99.795-.051v-16.591c0-9.126.466-17.031 1.036-17.567 2.313-2.182 559.569-1.106 564.029 1.089Zm-786.452 26.53c7.105 6.697 6.948 7.271-1.989 7.271-6.563 0-7.436-.359-7.12-2.928.197-1.61.418-4.409.489-6.222.18-4.579 2.246-4.128 8.62 1.879ZM360.88 301.545c-6 2.888-11.928 9.921-16.277 19.315-1.766 3.811-3.455 7.19-3.753 7.509-.3.319-3.641-2.11-7.426-5.399-16.223-14.095-33.68-9.47-40.045 10.611-4.231 13.341-3.711 12.871-19.437 17.592-17.797 5.343-25.525 12.527-38.527 35.82-11.281 20.21-14.847 23.786-26.889 26.97-35.467 9.38-31.621 48.936 6.407 65.891 8.316 3.709 8.779 4.186 7.668 7.922-8.689 29.25 18.637 64.774 51.822 67.368l8.35.653v-12.422c0-12.221-.059-12.411-3.62-11.77-21.387 3.853-42.515-25.742-32.107-44.973 7.639-14.112 37.868-17.993 45.809-5.88 4.411 6.727 10.11-4.414 10.11-19.766 0-10.733 3.838-18.276 9.298-18.276 2.342 0 5.331-8.538 6.149-17.568l.862-9.516 4.66.387c2.563.212 8.937.777 14.167 1.256 11.924 1.092 19.456-1.919 24.814-9.92 4.394-6.561 4.64-6.592 20.299-2.543 12.822 3.316 17.451 3.247 41.045-.609 30.418-4.971 39.394-15.721 39.349-47.129-.036-25.617-5.866-35.55-19.985-34.05l-7.03.747-3.803-7.831c-7.323-15.077-19.23-17.512-31.252-6.391l-6.496 6.009-3.204-5.119c-6.188-9.883-20.408-13.966-30.958-8.888Zm65.533 132.747c1.503 11.162 2.31 13.142 4.961 12.183 1.274-.46 2.959-.838 3.743-.838 2.37 0 1.598-12.292-.992-15.777-4.885-6.576-8.883-4.277-7.712 4.432Zm-64.599 8.138c-5.182 4.362-5.354 9.338-.388 11.133 2.754.997 17.648-7.505 17.648-10.075 0-6.183-10.416-6.822-17.26-1.058Zm69.42 25.533c.679 7.447 1.277 15.023 1.33 16.835.124 4.26.992 4.152 5.844-.732 7.094-7.141 6.863-19.447-.408-21.622-1.892-.565-3.01-2.224-3.01-4.461 0-2.296-.887-3.562-2.495-3.562-2.201 0-2.348 1.6-1.261 13.542Zm-49.495-1.971c-6.867 10.955 1.281 25.773 10.438 18.985 3.375-2.502 3.982-4.132 3.982-10.672 0-12.072-8.863-17.181-14.42-8.313Zm50.329 41.128c-3.007 9.459-14.044 14.477-20.972 9.535-2.533-1.808-3.507-1.802-7.3.047-6.078 2.962-16.467 2.61-24.513-.831l-6.78-2.899-5.164 4.273c-14.141 11.703-43.464 7.49-56.49-8.116-4.176-5.005-5.321-2.475-6.045 13.366-2.05 44.841 42.27 79.431 93.166 72.711 49.958-6.595 70.969-54.325 39.607-89.984l-3.603-4.099-1.906 5.997Zm469.271 323.764c-2.625 2.474-2.444 9.262.303 11.411 3.026 2.368 10.272 1.379 12.303-1.679 4.44-6.683-6.708-15.291-12.606-9.732Zm-37.347 2.994c-4.08 3.845-1.264 8.491 5.147 8.491 2.951 0 4.492-5.572 2.246-8.122-2.275-2.586-4.903-2.716-7.393-.369Zm195.468.358c-3.76 4.268-1.38 8.864 4.59 8.864 4.49 0 5.52-.585 5.94-3.374.61-4.04-2.18-7.605-5.94-7.605-1.5 0-3.57.951-4.59 2.115Zm79.21.011c-4.13 4.686 1.93 11.884 7.31 8.69 5.38-3.193 3.46-10.816-2.72-10.816-1.5 0-3.57.956-4.59 2.126Zm-322.165 1.576c-1.718 4.219-1.075 5.082 3.795 5.082 4.055 0 4.692-.492 4.271-3.294-.604-4.006-6.62-5.339-8.066-1.788Zm24.979-1.325c-2.811 2.65-.918 5.68 3.641 5.834 3.971.135 4.661-.338 4.268-2.928-.463-3.059-5.703-4.985-7.909-2.906Zm63.499 45.718c-1.736 2.648.949 6.236 4.328 5.783 4.52-.608 4.478-6.142-.052-6.749-1.84-.248-3.765.187-4.276.966Zm154.967.947c-1.37 3.375.56 6.588 3.96 6.588 3.84 0 5.28-2.105 4.02-5.869-1.15-3.411-6.68-3.91-7.98-.719Zm79.22 0c-1.37 3.342.54 6.588 3.86 6.588 3.43 0 5.34-4.844 2.85-7.197-2.4-2.259-5.67-1.963-6.71.609Zm-79.18 23.315c-1.44 3.541.5 6.696 4.11 6.696 2.64 0 3.17-.767 2.77-4.013-.55-4.503-5.37-6.382-6.88-2.683Zm79.18.108c-1.37 3.349.54 6.588 3.88 6.588 3.67 0 5.56-4.045 3.16-6.773-2.34-2.655-5.93-2.559-7.04.185ZM100.536 1008.89c13.063 35.39 54.245 99.3 79.235 122.98l15.841 15h296.757c163.217 0 296.757-.3 296.757-.66 0-2.75-8.982-26.54-12.467-33.01-14.357-26.66-41.264-49.41-68.743-58.11l-12.76-4.05-99.407-.76-99.407-.76-8.294-4.12c-15.341-7.61-31.313-26.17-31.313-36.38 0-2.6-6.202-2.69-178.573-2.69-169.394 0-178.524.13-177.626 2.56Z" clip-rule="evenodd"/><path fill="#7B786D" fill-rule="evenodd" d="M415.494 68.67c-.002 26.57.208 37.646.466 24.614.256-13.033.257-34.773.001-48.31-.258-13.539-.467-2.875-.467 23.695Zm-4.724 16.835c0 13.285.236 18.719.524 12.077.287-6.642.287-17.513 0-24.155-.288-6.642-.524-1.208-.524 12.078Zm-.632 27.799c0 2.854-1.297 2.92-65.624 3.31l-65.624.398 66.401.35 66.4.35v-3.66c0-2.013-.349-3.66-.776-3.66-.427 0-.777 1.31-.777 2.912Zm82.767 4.027c4.942.291 12.631.288 17.086-.006 4.453-.294.408-.533-8.989-.53-9.397.003-13.041.245-8.097.536Zm53.529.004c6.194.277 16.328.277 22.522 0 6.194-.278 1.126-.506-11.261-.506-12.387 0-17.455.228-11.261.506Zm56.769.003c7.518.27 19.4.268 26.405-.003 7.007-.27.856-.49-13.667-.489-14.523.002-20.254.224-12.738.492Zm114.175.003c10.514.255 27.289.254 37.277-.001 9.989-.255 1.387-.461-19.115-.461-20.503.001-28.676.209-18.162.462Zm118.733.003c16.019.237 42.23.237 58.247 0 16.018-.238 2.912-.433-29.123-.433-32.036 0-45.14.195-29.124.433Zm136.685-.001c11.747.247 30.964.247 42.714 0 11.75-.249 2.14-.453-21.357-.453-23.493 0-33.103.204-21.357.453Zm-833.995 4.392c10.943.251 28.417.25 38.831-.002 10.416-.253 1.463-.46-19.894-.458-21.357 0-29.878.208-18.937.46Zm180.085.001c27.122.226 71.506.226 98.63 0 27.122-.224 4.931-.407-49.315-.407-54.247 0-76.439.183-49.315.407Zm301.202.002c82.584.209 218.181.209 301.327 0 83.145-.21 15.579-.381-150.151-.381-165.73 0-233.758.171-151.176.381ZM392.79 211.039c137.821.206 362.884.206 500.14 0 137.26-.207 24.493-.375-250.584-.375s-387.377.168-249.556.375Zm-149.236 35.126c7.049.271 18.58.271 25.628 0 7.049-.271 1.282-.494-12.814-.494-14.095 0-19.861.223-12.814.494Zm99.407-.006c5.34.287 14.077.287 19.415 0 5.34-.286.971-.52-9.707-.52-10.679 0-15.047.234-9.708.52Zm374.717 48.83c8.563 1.357 31.951 1.672 30.614.413-.531-.502-9.211-1.05-19.285-1.217-12.437-.206-16.074.052-11.329.804Zm-73.957 42.316c0 10.064.248 14.182.551 9.149.304-5.031.304-13.266 0-18.299-.303-5.032-.551-.915-.551 9.15Zm-431.231-1.833c13.027.244 34.346.244 47.373 0 13.027-.245 2.369-.445-23.687-.445-26.055 0-36.713.2-23.686.445Zm389.062 1.833c-.199 1.207-.537 21.451-.753 44.984l-.39 42.79-4.063 3.827c-2.851 2.686-6.557 4.169-12.426 4.973l-8.363 1.144 6.99.163c19.064.439 20.349-3.26 19.803-57.052-.24-23.663-.599-42.037-.798-40.829Zm42.152 44.65c.003 8.857.259 12.291.568 7.632.309-4.659.306-11.905-.006-16.104-.312-4.197-.566-.385-.562 8.472Zm-88.528 8.052c0 9.259.253 13.048.56 8.418.308-4.631.308-12.205 0-16.836-.307-4.63-.56-.842-.56 8.418Zm166.054 12.795c4.942.291 12.631.288 17.085-.006 4.454-.294.409-.533-8.988-.53-9.397.003-13.041.244-8.097.536Zm-606.521 63.815c-.255 13.149-.053 29.124.446 35.501.543 6.93 1.011-2.684 1.165-23.908.141-19.525-.059-35.501-.446-35.501-.388 0-.912 10.759-1.165 23.908Zm529.12 46.362c0 31.804.205 44.816.457 28.913.25-15.903.25-41.925 0-57.826-.252-15.903-.457-2.892-.457 28.913Zm-95.418-30.481c-.116 8.035 22.782 18.09 26.908 11.815.398-.604-2.724-.868-6.938-.588-9.064.603-13.688-1.738-17.382-8.801-1.409-2.696-2.569-3.783-2.588-2.426Zm306.568 124.174c0 11.675.242 16.452.537 10.613.294-5.838.294-15.389 0-21.227-.295-5.838-.537-1.061-.537 10.614Zm26.409 12.443c.002 12.078.242 16.824.534 10.547.292-6.276.291-16.158-.003-21.96-.295-5.8-.532-.664-.531 11.413Zm239.202 4.392c0 12.883.24 17.957.53 11.277.29-6.681.29-17.222 0-23.423-.29-6.203-.53-.737-.53 12.146Zm-282.925 165.79c13.455.244 35.471.244 48.926 0 13.456-.243 2.447-.444-24.463-.444s-37.919.201-24.463.444Zm242.395 0c11.8.249 30.67.249 41.94-.002 11.27-.25 1.61-.453-21.45-.452-23.07 0-32.29.205-20.49.454Zm-65.03 83.814c0 22.142.21 31.201.48 20.129.26-11.07.26-29.186 0-40.258-.27-11.071-.48-2.013-.48 20.129ZM551.094 1032.31c24.987.23 65.875.23 90.864 0 24.987-.22 4.543-.41-45.432-.41s-70.421.19-45.432.41Zm181.339 11.78c39.081 20.33 75.332 68.51 75.332 100.12 0 2.45 7.684 2.61 146.392 2.99l146.393.4 9.82 5.02c16.7 8.54 27.62 22.93 32.34 42.62l2.44 10.19h29.21l-.89-6.22c-5.08-35.25-22.8-58.39-53.9-70.42-8.02-3.1-9.93-3.16-121.988-3.88l-113.841-.73-4.361-11.71c-9.411-25.26-21.996-43.86-41.855-61.85L825.81 1040l-50.571.03-50.572.02 7.766 4.04Z" clip-rule="evenodd"/><path fill="#EEF5F6" fill-rule="evenodd" d="M148.782 244.49c-3.308 3.117 14.125 3.515 154.663 3.536 182.646.025 178.543-.389 198.359 20.046 14.592 15.049 13.954 9.306 13.954 125.406 0 90.477.259 101.446 2.398 101.446 2.144 0 2.349-10.896 1.942-102.599l-.457-102.598-3.579-8.348c-6.708-15.651-20.971-27.396-41.058-33.811-9.812-3.135-323.028-6.089-326.222-3.078Zm120.401 1.675c-7.049.271-18.58.271-25.629 0-7.047-.271-1.281-.493 12.814-.493 14.096 0 19.863.222 12.815.493Zm93.193-.006c-5.338.287-14.075.287-19.415 0-5.338-.285-.971-.519 9.708-.519 10.678 0 15.047.234 9.707.519Zm324.618 153.852c.312 117.306.804 148.72 2.337 149.201 1.432.45 1.942-2.114 1.942-9.76v-10.369h45.729c32.889 0 46.039-.474 46.836-1.691.688-1.047.427-1.293-.684-.644-.986.574-1.794.255-1.794-.709 0-1.332-10.122-1.597-42.325-1.108-23.279.354-43.55.397-45.044.095-2.535-.512-2.718-4.607-2.72-60.83l-.003-60.281 25.869.436c14.229.24 26.986-.029 28.35-.599 1.364-.568 3.055-.913 3.759-.765.705.148.838-.407.296-1.231-.613-.937-11.744-1.501-29.626-1.501h-28.643v-49.774l26.016-.173c16.856-.113 24.377-.603 21.357-1.392-4.467-1.169-4.419-1.204 1.165-.854 3.205.202 5.825-.159 5.825-.804 0-.642-12.232-1.169-27.182-1.169h-27.181v-49.775l15.92-.183c17.331-.199 11.466-2.412-6.989-2.636l-8.931-.109v-20.982c0-17.705-.365-20.985-2.338-20.985-2.067 0-2.291 17.115-1.941 148.592Zm-42.489-134.074c-.863 9.244-.32 333.416.559 333.416.642 0 1.165-75.431 1.165-167.623 0-140.408-.41-179.864-1.724-165.793Zm-76.551 1.347c.767 1.17.258 1.4-1.609.725-4.127-1.493-13.442 7.751-12.225 12.136.883 3.183.994 3.143 2.865-1.053 4.315-9.673 16.454-12.196 24.552-5.103 2.529 2.214 4.028 3.038 3.33 1.83-.738-1.281-.685-1.695.129-.994.768.66 1.471 1.978 1.566 2.928a1179 1179 0 0 1 .517 5.386c.32 3.392.444 3.444 1.681.732 1.09-2.392 1.349-1.991 1.419 2.196.064 3.824-.295 4.567-1.419 2.928-1.274-1.858-1.51-1.783-1.53.478-.166 18.686-29.967 12.615-34.685-7.066-.387-1.611-.782-.293-.876 2.928-.227 7.586 4.538 14.935 11.447 17.655 24.235 9.545 39.927-21.611 17.405-34.555-5.517-3.171-14.426-3.986-12.567-1.151Zm-380.639 14.023c-14.148.355-19.215 1.012-21.259 2.756-1.477 1.26-3.507 1.812-4.511 1.228-1.666-.971-4.503 1.516-4.56 3.999-.012.567 4.346 1.262 9.684 1.549l9.708.52-11.352.281c-6.673.167-10.985-.278-10.462-1.077 1.127-1.718-6.989-.8-13.971 1.579-2.897.988-5.619 2.66-6.05 3.716-1.211 2.974 2.969 2.266 6.143-1.043 2.173-2.261 3.143-2.522 4.101-1.098.691 1.027 1.266 1.207 1.278.401.014-.945 12.07-1.289 34.07-.973 32.803.473 34.108.383 35.72-2.455 2.724-4.799-3.402-11.792-8.902-10.164-.585.172-9.421.524-19.637.781Zm-59.088 52.771 4.66.728-3.883 1.104c-2.136.606 29.666 1.02 70.672.919 64.083-.159 68.554-.298 31.841-.988l-42.714-.802 46.893-.331c28.561-.202 47.253.217 47.812 1.069 1.067 1.628 5.478.374 5.478-1.556 0-.754-35.037-1.216-82.709-1.088-45.491.12-80.613.546-78.05.945Zm425.02 46.292c.116 24.221.573 42.393 1.014 40.38l.801-3.66 1.162 3.66c.639 2.013 1.23-16.159 1.316-40.38.135-38.237-.152-44.041-2.175-44.041-2.024 0-2.302 5.781-2.118 44.041Zm50.174-3.538c0 22.142.216 31.201.48 20.129.262-11.07.262-29.187 0-40.259-.264-11.07-.48-2.013-.48 20.13Zm-3.107 2.928c0 22.142.216 31.201.48 20.129.263-11.07.263-29.187 0-40.259-.264-11.07-.48-2.013-.48 20.13Zm-485.782-22.471c-.556.523-.86 30.663-.677 66.976.216 42.929.635 57.575 1.197 41.868.805-22.451.87-21.626.917 11.711.028 20.54-.376 31.175-.945 24.888-.849-9.386-1.034-7.974-1.273 9.725-.239 17.689.077 20.833 2.177 21.593 4.353 1.574 37.674.996 38.768-.673 1.953-2.978-1.19-3.562-18.832-3.495l-17.733.068V360.548l5.809.87c9.453 1.415 31.468-.744 31.468-3.088 0-2.103-38.701-3.09-40.876-1.041Zm441.204 41.136c-.307 4.631-.56.842-.56-8.418 0-9.259.253-13.048.56-8.417.308 4.63.308 12.205 0 16.835Zm182.58 4.371c-4.455.295-12.144.298-17.086.006-4.944-.291-1.3-.533 8.097-.536 9.397-.002 13.442.236 8.989.53Zm-179.95 28.092c1.608 1.674 3.922 2.451 6.019 2.02 2.448-.503 2.824-.31 1.333.689-3.017 2.018 3.069 3.27 14.499 2.982 8.864-.226 8.978-.273 2.33-.984l-6.99-.748 6.99-.972c6.517-.908 6.273-.988-3.598-1.193-5.821-.12-11.983-.924-13.691-1.786-6.196-3.126-9.89-3.13-6.892-.008Zm2.436 26.59c-9.643 3.732-17.171 15.922-14.657 23.732 1.906 5.919 8.312 12.694 11.061 11.7 1.607-.583 2.17-.34 1.519.653-.666 1.014.132 1.288 2.243.769 3.274-.807-4.943-5.684-8.394-4.981-.682.138-1.031-.912-.777-2.333.254-1.422-.306-2.454-1.245-2.293-1.069.183-1.65-2.415-1.553-6.945.085-3.98.655-7.241 1.27-7.246.614-.005.677-1.163.14-2.571-.536-1.408-.418-2.086.264-1.505.682.581 3.294-.571 5.804-2.562 12.791-10.145 34.617 3.726 27.859 17.706-1.388 2.871-1.385 3.499.016 2.684 1.27-.741 1.509-.209.784 1.736-1.011 2.717-.972 2.716 1.291-.039 10.482-12.766-9.335-34.809-25.625-28.505Zm.566 61.256c-14.41 3.334-28.899 34.072-14.684 31.15 1.252-.258 1.732.413 1.21 1.692-.474 1.166.373 3.171 1.881 4.458 4.144 3.536 3.719-1.171-.494-5.453-5.896-5.995-1.082-25.114 6.861-27.247 5.801-1.559 15.481-1.7 18.32-.268 2.704 1.364 3.013 1.187 2.315-1.328-.443-1.597-1.597-2.912-2.566-2.923-.968-.011-3.158-.287-4.867-.614-1.708-.326-5.298-.088-7.976.533Zm20.79 4.571c2.863 2.907 2.361 4.999-.638 2.663-2.352-1.832-2.393-1.728-.466 1.19 1.163 1.759 2.594 2.92 3.181 2.578.587-.341 1.036.194.999 1.193-.18 4.712.556 7.03 1.972 6.206.918-.535 1.544 1.077 1.53 3.939-.018 3.85-.368 4.393-1.7 2.648-1.394-1.827-1.521-1.745-.752.486.508 1.475.933 3.122.946 3.66.082 3.364 3.033-4.251 3.025-7.806-.012-5.137-4.897-15.973-7.935-17.601-1.696-.909-1.727-.745-.162.844Zm-5.405 32.363c-4.737 2.944-14.471 3.543-19.16 1.179-2.352-1.186-3.004-1.037-3.004.685 0 1.452.88 1.884 2.584 1.268 1.636-.592 2.206-.356 1.552.641-.67 1.02.149 1.284 2.317.749 2.478-.61 3.028-.331 2.108 1.072-2.818 4.297 16.519-1.527 20.65-6.219 2.701-3.068-1.738-2.673-7.047.625Zm278.195 44.415c.124 26.107.736 40.085 1.744 39.77 1.896-.596 2.045-7.376 1.064-48.186-1.091-45.298-3.037-39.468-2.808 8.416ZM557.08 588.03c-10.007 5.408-14.301 16.672-10.214 26.802.878 2.177 2.049 3.531 2.603 3.01.553-.522 2.766.539 4.918 2.359l3.909 3.307-3.794-4.568c-2.088-2.512-4.146-4.386-4.573-4.166-.427.221-.777-3.424-.777-8.102 0-5.245.595-8.188 1.554-7.677.854.454 1.051.303.438-.336-6.54-6.824 20.571-12.112 28.337-5.528 14.706 12.465 4.903 32.82-14.716 30.554-3.452-.398-5.242-.19-4.095.479 1.665.969 1.651 1.33-.081 1.979-1.165.436 1.848.846 6.694.909 7.345.097 9.618-.523 13.647-3.718 22.158-17.574 1.079-48.773-23.85-35.304Zm465.38 3.354c-3.87 2.553-4.67 7.481-1.21 7.481 1.68 0 1.87-.665.76-2.623-1.14-2.007-.78-2.979 1.53-4.148 4.03-2.032 6.79-1.936 5.4.188-.76 1.152-.28 1.407 1.46.777 1.42-.514 2.58-.296 2.58.483 0 .78-.54 1.419-1.21 1.419-.66 0-.97 9.059-.69 20.129.37 14.249.05 19.488-1.09 17.933-1.45-1.971-2.73 10.288-1.79 17.178.15 1.065-.74 1.45-2.16.936-1.75-.631-2.15-.221-1.45 1.487.53 1.297 1.86 2.359 2.96 2.359 1.1 0 2.4.988 2.89 2.196.49 1.207 1.7 2.196 2.68 2.196 1.34 0 1.33-.53-.04-2.081-1.5-1.707-1.26-1.941 1.34-1.3 4.73 1.164 6.32-4.557 5.69-20.382-.3-7.464-.62-19.636-.73-27.053-.24-17.749-6.48-24.073-16.92-17.175Zm-77.394 32.856c0 11.675.242 16.45.537 10.613.294-5.838.294-15.389 0-21.227-.295-5.838-.537-1.061-.537 10.614Zm73.004 0c0 11.675.24 16.45.54 10.613.29-5.838.29-15.389 0-21.227-.3-5.838-.54-1.061-.54 10.614Zm3.44 2.087c.35 7.992.97 14.855 1.39 15.25 1.17 1.1.65-14.22-.76-22.461-.92-5.414-1.09-3.536-.63 7.211Zm23.9 242.393v60.022h114.94v-57.706c0-31.739-.43-58.749-.94-60.022-.84-2.054-7.36-2.316-57.47-2.316h-56.53v60.022Zm-246.576-56.728c.499 1.411 13.996 1.917 59.029 2.213l58.383.384 4.006 4.487 4.005 4.485v42.257c0 23.24.524 42.562 1.165 42.935.642.372 1.047-2.388.904-6.135l-.261-6.815 1.206 5.856c.713 3.466 1.292-10.274 1.418-33.671.231-43.272-.493-48.355-7.703-54.073l-4.732-3.753H857.22c-46.536 0-58.897.388-58.386 1.83Zm270.596 21.534c3.83 3.993 2.07 9.957-3.32 11.232-7.95 1.88-12.84-5.607-7.38-11.293 3.44-3.591 7.21-3.569 10.7.061Zm78.23-.531c4.59 3.023 3.87 7.869-1.57 10.739-7.68 4.05-13.78-4.219-7.49-10.149 3.75-3.536 4.53-3.585 9.06-.59Zm-30.6 6.412 4.63 4.36-.48 32.362-.47 32.363-5.07 4.269c-8.24 6.938-19.37 4.625-24.23-5.037-3.87-7.674-3.69-61.75.21-66.263 6.8-7.854 18.27-8.782 25.41-2.054Zm-49.24 40.396c2.89 2.723 2.91 2.918.83 6.581-.88 1.557-2.84 2.831-4.35 2.831-6.07 0-8.79-7.359-3.75-10.13 3.69-2.022 4.44-1.947 7.27.718Zm78.24-.543c2.7 2.549 2.28 8.431-.68 9.503-5.49 1.986-10.5-4.83-6.71-9.134 2.27-2.585 4.9-2.715 7.39-.369Zm-77.35 27.395c0 4.022-4.32 6.903-7.51 5.01-3.68-2.184-4.17-6.56-.99-8.755 3.42-2.357 8.5-.12 8.5 3.745Zm78.23-3.013c3.06 3.182 1.97 7.039-2.34 8.33-6.1 1.823-9.73-4.392-5.11-8.745 3.14-2.959 4.27-2.896 7.45.415Zm-317.107 23.064c-1.531.654-1.582 1.338-.211 2.894.987 1.121 2.414 1.676 3.17 1.235.758-.44 1.378-.104 1.378.748 0 1.053 13.457 1.551 41.937 1.551 40.901 0 41.937-.072 41.937-2.928 0-2.829-1.039-2.928-30.676-2.937-16.871-.004-36.268-.326-43.102-.714-6.834-.39-13.328-.321-14.433.151Zm6.279 221.264c12.599.24 33.22.24 45.82 0 12.6-.25 2.291-.45-22.91-.45s-35.51.2-22.91.45Z" clip-rule="evenodd"/><path fill="#474850" fill-rule="evenodd" d="M597.813 83.671c77.166.21 202.978.21 279.582 0 76.604-.21 13.468-.382-140.302-.382-153.77 0-216.446.173-139.28.382Zm-143.591 17.202c.003 9.662.255 13.424.558 8.36.304-5.064.302-12.969-.005-17.567-.308-4.599-.556-.456-.553 9.207Zm188.093 335.245c0 75.686.188 106.433.419 68.328.23-38.105.23-100.03 0-137.611-.231-37.581-.419-6.404-.419 69.283Zm265.498 191.777c.002 14.494.235 20.225.518 12.735.282-7.488.281-19.346-.004-26.351-.284-7.003-.515-.877-.514 13.616ZM510.71 738.043c5.34.287 14.077.287 19.415 0 5.34-.285.971-.519-9.707-.519-10.679 0-15.047.234-9.708.519Zm310.543 215.213c16.389.237 43.648.239 60.576.001 16.929-.237 3.52-.43-29.797-.43-33.317-.001-47.167.193-30.779.429Zm258.807 0c11.8.249 30.67.249 41.94-.001 11.27-.251 1.61-.454-21.45-.453-23.07 0-32.29.205-20.49.454Zm-892.302 52.704c49.827.21 130.906.21 180.174 0 49.269-.21 8.501-.39-90.595-.39s-139.407.18-89.579.39Z" clip-rule="evenodd"/><path fill="#254147" fill-rule="evenodd" d="M412.347 47.442c0 16.506.227 23.26.503 15.006.276-8.254.276-21.758 0-30.011-.276-8.254-.503-1.5-.503 15.005Zm45.048 1.464c0 17.311.224 24.394.499 15.738.275-8.655.275-22.819 0-31.475-.275-8.655-.499-1.574-.499 15.737Zm-.067 51.97c.003 9.663.255 13.425.558 8.361.304-5.064.303-12.969-.005-17.567-.307-4.599-.556-.456-.553 9.206ZM127.84 213.661c-24.199 6.16-40.9 23.032-45.426 45.887-2.274 11.487-2.126 422.012.156 432.327 5.497 24.847 11.4 29.05 19.623 13.972 28.822-52.832 92.671-88.847 167.075-94.237l13.505-.978.1-24.306c.054-13.367.33-26.537.612-29.266.295-2.836-.01-4.16-.71-3.092-1.945 2.965-15.655 1.003-25.902-3.704-26.549-12.194-41.249-38.999-34.272-62.488 1.111-3.736.648-4.214-7.668-7.922-38.028-16.955-41.874-56.511-6.407-65.891 12.042-3.184 15.608-6.76 26.889-26.97 13.002-23.293 20.73-30.477 38.527-35.82 15.726-4.721 15.206-4.252 19.437-17.593 6.365-20.081 23.822-24.705 40.045-10.61 3.785 3.289 7.114 5.718 7.397 5.399.282-.319 2.273-4.26 4.425-8.758 11.082-23.171 36.591-27.683 47.198-8.35l2.437 4.44 6.576-6.084c12.106-11.198 23.99-8.803 31.333 6.317l3.803 7.831 7.03-.747c40.073-4.257 23.688 74.672-16.788 80.869-6.241.956-6.561 1.648-4.412 9.543a370.799 370.799 0 0 1 2.35 9.15c.638 2.685 1.952 4.026 3.945 4.026 4.381 0 7.825 5.62 7.825 12.77 0 5.724.337 6.261 3.933 6.261 31.119 0 31.742 46.635.661 49.45-9.583.868-9.654 1.998-.89 14.064 30.834 42.447-4.179 93.003-60.089 86.762l-7.527-.84.503 12.597.503 12.598 12.418 3.374c48.953 13.306 80.933 44.823 98.806 97.378 2.845 8.366 5.351 15.469 5.57 15.784.217.315 12.315.546 26.883.516l26.487-.058 22.869-16.892c12.576-9.29 36.496-27.132 53.154-39.647 34.626-26.014 43.665-31.002 58.709-32.402l10.41-.969.396-5.075c1.959-25.081 60.964-84.33 86.125-86.48 54.47-4.656 78.474 56.117 35.802 90.643-37 29.937-57.247 41.307-74.142 41.635l-10.842.211-1.992 9.274c-3.402 15.847-9.436 24.744-24.475 36.088l-6.212 4.688 232.984-.321 232.983-.319 8.11-3.139c16.18-6.257 28.53-17.803 35-32.728l3.49-8.052.46-212.273c.34-154.038-.02-214.683-1.3-221.057-3.79-18.864-17.37-34.943-36.87-43.647l-10.44-4.663-511.014-.277c-436.905-.236-512.195.025-519.166 1.801Zm940.78 30.671c5.85 5.509 5.66 15.735-.39 20.635-6.66 5.404-16.61 4.964-21.91-.973-12.82-14.368 8.23-32.93 22.3-19.662Zm37.19-1.364c8.92 7.075 7.71 18.867-2.52 24.48-9.62 5.283-22.21-1.527-22.1-11.958.14-13.83 14.05-20.903 24.62-12.522Zm35.67-1.662c8.9 4.336 10.67 16.109 3.46 22.914-12.32 11.605-32.29-1.48-24.35-15.95 4.7-8.555 12.38-11.116 20.89-6.964Zm-664.312 6.348c20.363 6.52 35.387 20.68 40.805 38.456 2.945 9.667 3.055 210.36.115 209.669-1.008-.237-1.827-36.528-2.33-103.359l-.777-102.994-5.436-10.022c-16.909-31.173-18.437-31.4-212.128-31.4-133.276 0-149.775-.246-149.775-2.236 0-1.992 17.323-2.191 159.595-1.83l159.594.406 10.337 3.31Zm482.506 7.303.471 7.686h-71.612v-7.075c0-9.607-1.993-9.131 36.4-8.69l34.272.394.469 7.685Zm-268.401 15.738v21.227h27.054c14.88 0 28.16.4 29.511.889 1.783.644 2.457.003 2.457-2.341 0-20.689 29.248-22.179 32.171-1.64l.856 6.02h-16.421c-9.273 0-16.84.637-17.382 1.464-.584.89-12.184 1.464-29.603 1.464h-28.643v46.847l8.931.096c4.913.053 17.411.299 27.778.545l18.847.449.084-5.744c.299-20.534 27.74-27.217 39.175-9.541 13.254 20.488-17.158 40.358-34.037 22.239-2.594-2.783-5.139-4.415-5.657-3.625-.558.851-11.997 1.436-28.031 1.436h-27.09v23.984c0 28.616-3.681 25.742 33.006 25.77l26.016.021v-3.807c0-6.355 9.175-13.761 17.05-13.761 8.326 0 16.056 6.472 15.284 12.795l-.492 4.041-15.505.423c-11.632.318-15.821.957-16.775 2.562-1.042 1.755-6.408 2.139-29.927 2.139h-28.657v120.044h46.597c38.793 0 46.597.341 46.597 2.039 0 3.519-3.811 3.817-49.055 3.817h-44.139v9.515c0 7.482-.499 9.516-2.33 9.516-2.057 0-2.33-17.65-2.33-150.055 0-132.406.273-150.055 2.33-150.055 1.963 0 2.33 3.335 2.33 21.227Zm-44.721-7.686c2.493 6.97.267 335.605-2.277 336.067-2.785.505-4.445-334.306-1.67-336.92 1.602-1.511 3.226-1.16 3.947.853Zm-65.413 4.83c9.272 4.518 13.608 17.9 8.74 26.967-9.202 17.14-38.397 11.014-38.397-8.059 0-16.165 15.288-25.912 29.657-18.908Zm280.876 3.054c3.959 4.743 4.068 8.006.408 12.266-5.442 6.335-17.381 2.458-17.381-5.643 0-9.051 11.275-13.451 16.973-6.623Zm97.664 7.488-.474 6.953-35.336.394-35.336.394v-14.695h71.619l-.473 6.954Zm107.161 4.201c8.24 5.026 7.95 15.357-.63 22.454-13.21 10.938-30.66-3.602-22.2-18.505 4.17-7.351 14.36-9.114 22.83-3.949Zm35.21-1.755c14.29 5.626 12.05 24.489-3.34 28.128-16.12 3.815-24.92-20.375-10.16-27.926 5.35-2.739 6.99-2.764 13.5-.202Zm40.9 1.757c8.9 5.428 8.26 17.64-1.24 23.669-13.97 8.863-30.43-8.315-19.98-20.842 5.76-6.901 12.96-7.86 21.22-2.827Zm-927.276-.617c2.614 2.464 2.32 7.853-.577 10.583-2.044 1.925-7.118 2.3-31.115 2.3-33.125 0-36.029.7-44.813 10.804-5.936 6.828-9.549 8.223-12.961 5.007-6.996-6.594 5.262-22.381 22.138-28.509 6.666-2.422 64.787-2.58 67.328-.185Zm369.979 4.701c0 13.924-22.306 16.966-27.79 3.79-1.159-2.781-1.547-3.011-1.623-.953-.272 7.469 13.968 13.586 22.138 9.507 6.632-3.311 13.146-17.337 8.052-17.337-.427 0-.777 2.247-.777 4.993Zm374.329 15.528v7.348l-36.113-.394-36.113-.392-.332-5.124c-.593-9.159-2.165-8.784 36.785-8.784h35.773v7.346Zm-670.219 32.181c0 1.919-10.404 2.244-82.71 2.575-83.803.384-86.712.221-81.661-4.54 2.431-2.291 164.371-.355 164.371 1.965Zm267.932 45.502c.427 24.492 1.385 45.421 2.131 46.51 3.653 5.338 20.197 7.771 30.288 4.455 8.468-2.783 8.71-4.128 9.091-50.353.191-23.35.367-42.948.388-43.552.022-.605 1.088-1.098 2.369-1.098 3.315 0 3.487 82.391.188 89.834-6.535 14.742-38.727 16.191-47.013 2.117-2.858-4.852-3.01-93.944-.16-93.051 1.474.462 2.129 11.345 2.718 45.138Zm34.171-36.718c10.713 10.096 3.347 84.909-8.359 84.909-12.962 0-20.902-43.241-14.185-77.23 1.951-9.869 15.37-14.441 22.544-7.679Zm-435.681 16.103c0 1.811-3.347 2.268-19.06 2.607l-19.058.412.155 83.4c.133 71.01.484 83.4 2.363 83.4 1.848 0 2.206-6.17 2.206-38.176v-38.175l4.54-4.28c5.793-5.46 12.708-5.722 18.051-.685l3.813 3.593v38.691c0 37.459.1 38.714 3.107 39.456 11.598 2.858 2.544 5.505-17.474 5.108l-20.58-.409-.401-88.976-.401-88.977 21.37.408c17.767.338 21.369.778 21.369 2.603Zm966.575 9.374c8.81 4.31 21.97 26.686 19.14 32.536-4.06 8.403-11.25 5.187-17.95-8.034-6.3-12.435-7.3-11.188-24.18 30.153-11.66 28.553-18.35 30.122-30.54 7.165-10.42-19.644-23.13-31.597-38.39-36.097-13.97-4.121-20.84 1.808-38.371 33.098-9.472 16.909-11.677 19.642-15.852 19.642-2.737 0-2.625.334 1.017 3.035 7.083 5.251 3.663 14.533-5.357 14.533-9.239 0-12.331-9.169-4.941-14.649 3.686-2.733 3.914-3.326 1.729-4.478-1.386-.73-6.179-7.555-10.652-15.166-30.409-51.736-64.742-52.594-90.734-2.267-3.939 7.628-8.457 14.893-10.04 16.146-2.758 2.185-2.693 2.376 1.583 4.689 8.147 4.407 4.156 18.653-5.224 18.653-10.478 0-13.382-18.852-2.941-19.089 1.391-.032.337-.956-2.343-2.055-6.209-2.548-29.418-44.102-27.872-49.908 2.864-10.753 11.919-5.119 21.44 13.338 8.212 15.918 9.64 17.424 11.348 11.965 17.167-54.843 81.55-58.943 112.564-7.17 9.144 15.261 8.237 14.983 13.596 4.188 25.42-51.196 66.56-53.298 97.26-4.967 6.25 9.851 5.01 10.895 14.84-12.45 12.61-29.933 20.22-38.026 30.87-32.811Zm-976.784 3.267c5.733 6.869 4.728 28.357-1.56 33.343-6.747 5.353-17.947 3.801-20.661-2.863-8.429-20.706 9.664-45.526 22.221-30.48Zm944.824 80.456c3.68 7.616-4.78 14.874-12.69 10.885-4.14-2.086-4.45-10.914-.47-13.1 5.23-2.872 11.19-1.869 13.16 2.215Zm-656.149 4.94c.395 2.54 1.856 4.696 3.518 5.194 7.117 2.128 7.254 14.509.239 21.571l-3.999 4.026h5.616c17.71 0 23.238-25.215 7.237-33.014-7.895-3.848-13.405-2.876-12.611 2.223Zm143.261 1.298c20.22 10.141 12.555 38.252-10.436 38.271-8.498.007-12.707-1.962-17.936-8.39-13.774-16.935 8.147-40.023 28.372-29.881Zm-18.089 3.786c-2.673 1.098-5.287 2.644-5.808 3.437-.52.794 1.641.199 4.803-1.319 9.706-4.665 19.084-2.023 23.008 6.483 1.183 2.564 2.179 3.657 2.213 2.427.243-8.902-13.805-15.298-24.216-11.028Zm-9.7 14.508c-.291 8.448 7.738 15.667 17.124 15.395l6.757-.195-7.409-.974c-9.22-1.21-13.76-5.267-15.194-13.575l-1.084-6.288-.194 5.637Zm603.627 24.74c-1.07 3.021-325.793 3.391-325.793.374 0-1.947 18.949-2.203 163.218-2.203 129.885 0 163.085.373 162.575 1.829Zm-575.894 18.303c22.439 10.625 12.685 42.817-12.973 42.817-10.131 0-22.72-11.828-22.72-21.348 0-17.745 19.187-29.287 35.693-21.469Zm-21.25 4.696c-10.646 6.117-12.991 18.802-4.947 26.752l4.835 4.782-4.058-4.871c-9.573-11.483-2.69-25.53 13.802-28.171l6.213-.995-5.437-.177c-2.99-.098-7.674 1.108-10.408 2.68Zm402.571 30.253c5.354 5.046-.937 13.333-8.127 10.704-2.482-.907-3.494-2.478-3.494-5.424 0-7.216 6.455-10.149 11.621-5.28Zm177.873.549c6.97 6.573-2.27 15.529-9.59 9.288-3.82-3.258-3.58-7.17.62-9.937 4.44-2.934 5.23-2.876 8.97.649Zm-278.028 44.111c0 38.271-.182 40.979-2.719 40.52-3.308-.6-4.948-77.557-1.731-81.21 3.813-4.329 4.45 1.498 4.45 40.69Zm-278.501-11.969c18.53 10.649 11.033 38.501-10.93 40.599-23.733 2.266-33.714-28.682-13.075-40.542 6.6-3.793 17.458-3.819 24.005-.057Zm322.354 4.335 5.073 4.27.546 26.756c.806 39.652-12.697 58.121-25.47 34.84-14.172-25.828 2.34-80.609 19.851-65.866Zm40.798.312c13.839 12.527 2.157 74.612-12.931 68.721-8.294-3.237-12.768-57.504-5.542-67.226 4.789-6.445 12.331-7.055 18.473-1.495Zm94.007.919c13.04 15.624 1.09 74.325-13.67 67.134-6.15-3.001-10.44-54.07-5.55-66.09 2.66-6.534 14.12-7.156 19.22-1.044Zm40.47-1.222 4.54 4.279v58.923l-4.11 3.591c-14.75 12.884-20.74 3.14-20.74-33.742 0-37.264 5.81-46.719 20.31-33.051Zm39.48.241c6.3 5.827 5.4 61.478-1.08 67.172-15.56 13.665-32.2-41.257-19.49-64.343 4.14-7.518 14.03-8.878 20.57-2.829Zm-551.392-2.046c20.408 2.505 26.024 30.328 6.331 31.366-2.486.131-2.622.32-.598.823 4.105 1.021 10.08-3.547 12.694-9.706 4.873-11.476-4.099-23.741-17.02-23.274-5.127.185-5.346.308-1.407.791Zm-10.986 3.834c-9.806 7.951-5.718 25.506 6.694 28.736 7.407 1.928 8.437.883 1.314-1.334-13.295-4.136-16.06-19.74-4.995-28.188 1.822-1.391 2.828-2.545 2.235-2.562-.593-.018-2.954 1.489-5.248 3.348Zm249.139 198.099c-6.624 2.593-7.934 4.925-6.581 11.722l.982 4.927 56.131.082c80.305.119 73.994-4.692 73.994 56.411 0 40.42-.67 47.306-4.265 43.917-.524-.493-1.087-19.829-1.254-42.967-.416-57.592 7.523-51.587-68.182-51.587h-56.77v4.421c0 2.432-1.659 8.27-3.688 12.974l-3.687 8.552 12.042.274c11.791.268 12.064.193 13.063-3.553 1.238-4.652 7.291-4.604 8.611.07 1.225 4.335 14.411 4.297 15.666-.047 1.241-4.292 8.311-4.003 8.97.366.689 4.58 12.705 5.007 12.705.453 0-1.564.71-3.256 1.578-3.761.868-.507 1.218-1.471.775-2.146-1.331-2.031 5.168.118 7.144 2.363 1.393 1.581 1.402 2.97.038 5.79-1.048 2.171-1.143 3.332-.228 2.799.862-.503 1.566-.252 1.566.554 0 .809 2.096 2.636 4.659 4.063 2.563 1.427 4.66 3.48 4.66 4.562 0 1.08.582 1.626 1.294 1.212.713-.415 1.36.041 1.44 1.011.08.971 1.214 4.401 2.521 7.622 4.293 10.584 3.101 18.828-4.548 31.475-1.218 2.013-2.224 4.856-2.237 6.318-.059 6.889-7.454 12.305-17.688 12.955-3.099.196-5.634.881-5.634 1.521 0 .641-1.056 1.165-2.348 1.165-1.291 0-7.038 2.266-12.771 5.036l-10.422 5.034 42.984.456c42.604.449 48.372 1.14 45.547 5.45-1.906 2.906-85.619 2.13-90.96-.845-4.071-2.266-5.216-2.267-16.548-.025-10.913 2.161-39.355 5.389-47.476 5.389-2.748 0-2.871.305-1.001 2.477 1.814 2.11 1.808 2.293-.051 1.237-1.48-.84-1.825-.695-1.072.451.609.93 2.114 1.691 3.346 1.691 1.232 0 2.238.646 2.238 1.435 0 7.019 9.807 8.059 80.448 8.524l67.246.444 8.219-3.547c10.542-4.549 18.942-12.514 24.076-22.833l4.069-8.178v-45.383c0-60.2-5.225-73.014-32.72-80.237-13.293-3.493-107.001-3.568-115.881-.094Zm246.179-.315c-46.21 13.906-52.517 134.968-8.12 155.879l9.67 4.553h47.84c62.13 0 70.2-2.548 82.46-26.018l5.11-9.791v-89.424l-5.11-9.788c-5.56-10.645-13.51-18.081-25.06-23.445-8.86-4.116-94.41-5.69-106.79-1.966Zm109 76.986v60.754h-113.38l-.41-59.288c-.22-32.608-.07-60.12.35-61.138.59-1.453 12.82-1.768 57.1-1.467l56.34.385v60.754Zm-245.496-34.691c2.638 7.113-6.186 13.152-12.269 8.394-2.123-1.66-4.209-12.087-2.182-10.907.617.36 1.584-.053 2.151-.917 2.156-3.289 10.691-.909 12.3 3.43Zm-1.475 50.176c-.01 3.582-.642 4.279-3.883 4.279-2.442 0-3.711-.734-3.432-1.984.244-1.092-.34-2.874-1.298-3.961-2.658-3.019-.427-4.91 4.358-3.695 3.419.866 4.263 1.929 4.255 5.361Z" clip-rule="evenodd"/><path fill="#1A9575" fill-rule="evenodd" d="m148.003 489.919-.361 37.697h-23.244l-.457-35.867-.458-35.868.042 36.234.042 36.233 12.061.428c14.958.531 13.717 4.295 13.179-39.981l-.446-36.572-.358 37.696Z" clip-rule="evenodd"/><path fill="#A0B501" fill-rule="evenodd" d="M562.908 276.358c-8.63 6.997-3.091 21.418 8.224 21.418 6.249 0 12.968-5.326 12.968-10.278 0-12.482-11.853-18.711-21.192-11.14Zm195.851 47.112c-10.363 4.821-13.563 19.883-6.019 28.333 11.594 12.987 32.871 6.98 34.345-9.694 1.361-15.388-13.828-25.382-28.326-18.639ZM127.45 372.438c-4.93 4.646-4.582 27.462.488 31.952 10.518 9.312 19.704 1.638 19.704-16.461 0-17.728-9.822-25.265-20.192-15.491Zm.707 76.791-3.813 3.593v74.795h23.298v-38.063c0-36.111-.16-38.214-3.106-40.991-4.318-4.07-11.673-3.771-16.379.666Zm429.418 18.253c-10.319 9.726-1.472 25.096 12.951 22.496 4.396-.792 12.021-7.958 12.021-11.298 0-13.084-15.565-20.064-24.972-11.198Zm-.518 129.053c-10.927 12.239 2.137 29.529 17.197 22.762 6.994-3.145 10.31-10.185 8.196-17.402-3.081-10.517-17.981-13.663-25.393-5.36Z" clip-rule="evenodd"/><path fill="#F5F4EE" stroke="#000" d="M102.513 1007.93h371.999c9.578-39.531 27.803-136.153 24.075-206.423-3.728-70.269-23.816-110.771-33.395-122.238-13.72-25.132-69.274-74.223-181.728-69.538-112.453 4.684-171.631 71.245-187.164 103.94-15.532 87.836-15.532 102.476-15.532 200.561 0 14.639 16.05 86.378 21.745 93.698Z"/><path fill="#ECDABC" fill-rule="evenodd" d="M302.105 477.97c-2.358 3.595 2.884 4.32 28.158 3.897l26.289-.441-26.794-.328c-23.859-.291-32.529-1.628-24.075-3.711 2.451-.603 2.461-.685.092-.839-1.444-.094-3.095.546-3.67 1.422Zm-10.666 149.346c-15.189 4.924-33.413 19.067-31.289 24.284.484 1.186.884 13.795.894 28.022l.015 25.865 3.621-7.32c21.176-42.81 72.595-47.183 121.305-10.316 15.716 11.894 19.083 8.546 9.502-9.45-22.861-42.932-65.146-63.694-104.048-51.085Zm200.475 120.921c2.771 12.457 5.149 39.294 5.18 58.46l.025 14.839 9.75 8.585c5.361 4.722 14.07 10.751 19.353 13.398l9.604 4.812 7.643-3.65c4.205-2.009 16.119-9.609 26.476-16.891 10.359-7.282 19.703-13.259 20.765-13.283 1.189-.027.988-.566-.521-1.398-2.613-1.44-5.648-5.937-26.915-39.888-7.43-11.861-14.347-22.417-15.369-23.457-1.022-1.041-2.091-2.865-2.375-4.054-1.533-6.417-5.228-7.284-31.071-7.284h-24.727l2.182 9.811ZM271.901 808.21c0 24.778 28.877 82.78 56.208 112.9 29.709 32.738 94.096 65.773 139.19 71.411l8.075 1.01v-32.596l-11.261-4.647c-75.029-30.956-125.377-68.453-173.291-129.056-16.487-20.854-18.921-23.3-18.921-19.022Zm416.725 127.475c6.659.275 17.143.273 23.299-.003 6.153-.278.705-.502-12.109-.501-12.815.002-17.85.228-11.19.504Zm58.951 103.945c14.309.24 37.725.24 52.034 0 14.308-.24 2.601-.44-26.017-.44s-40.325.2-26.017.44Zm197.366 84.91c18.637.24 48.692.24 66.787 0 18.1-.23 2.85-.42-33.886-.42-36.734 0-51.54.19-32.901.42Z" clip-rule="evenodd"/><path fill="#E1FF01" fill-rule="evenodd" d="M1048.4 244.961c-9.32 8.783-4.13 22.166 8.72 22.509 4.68.126 6.63-.764 10.4-4.735 12.06-12.723-6.34-29.825-19.12-17.774Zm38.46-.172c-11.35 11.167 1.51 28.585 15.92 21.561 8.84-4.31 10.45-14.669 3.32-21.389-6.12-5.77-13.48-5.838-19.24-.172Zm38.53-.81c-5.77 4.679-6.88 13.621-2.36 19.029 4.84 5.778 16.91 5.871 21.67.168 10.4-12.451-6.69-29.431-19.31-19.197Zm-276.224 27.196c-3.007 3.131-3.372 9.157-.706 11.669 4.461 4.205 15.221.161 15.221-5.718 0-7.184-9.566-11.106-14.515-5.951ZM1049 283.708c-5.77 4.581-7.23 10.305-4.17 16.427 4.27 8.538 13.42 10.117 21.1 3.647 13.86-11.671-2.73-31.338-16.93-20.074Zm38.64.157c-5.79 4.588-7.17 9.577-4.39 15.842 3.82 8.629 14.81 10.567 22.36 3.941 13.19-11.582-4.19-30.713-17.97-19.783Zm36.86.623c-11.75 11.078 2.22 29.8 15.7 21.042 10.58-6.875 10.58-17.949-.01-23.11-6.66-3.246-10.6-2.728-15.69 2.068ZM966.505 451.784c-4.646 4.379-1.006 11.419 5.902 11.419 4.884 0 7.767-2.445 7.767-6.588 0-4.143-2.883-6.588-7.767-6.588-2.221 0-4.877.791-5.902 1.757Zm111.595.352c-3.9 4.434-1.38 10.335 4.42 10.335 6.22 0 8.83-3.033 7.36-8.557-1.19-4.441-8.46-5.541-11.78-1.778ZM556.272 528.47c-12.617 10.007-6.292 26.962 10.056 26.962 12.131 0 19.825-9.461 16.175-19.888-3.783-10.805-17.023-14.376-26.231-7.074ZM678.33 871.158c-.57.536-1.036 15.029-1.036 32.207v31.231h43.49v-31.319c0-27.207-.323-31.435-2.457-32.207-3.344-1.209-38.703-1.133-39.997.088Z" clip-rule="evenodd"/><path fill="#F39F78" fill-rule="evenodd" d="M319.736 477.47c7.088.271 18.272.27 24.851-.004 6.581-.274.781-.495-12.887-.493-13.668.001-19.052.225-11.964.497Z" clip-rule="evenodd"/><path fill="#DD7858" fill-rule="evenodd" d="M363.697 408.389c-6.171 9.857-19.734 12.802-39.375 8.553-4.246-.918-4.271-.877-4.271 6.836 0 9.55-4.446 18.781-10.73 22.28-4.469 2.487-4.596 2.883-5.081 15.834-.61 16.26-3.81 14.489 26.166 14.489h25.369v-4.083c0-2.244 1.372-6.619 3.049-9.719 3.03-5.601 3.03-5.66 0-9.29-4.006-4.801-3.852-6.496 1.008-11.075 7.37-6.948 20.795-6.071 20.795 1.357 0 1.957 1.881 2.682 10.872 4.184 8.688 1.451 16.168 8.99 19.416 19.573 2.08 6.772 4.406 6.175 5.809-1.495.632-3.455 2.561-7.932 4.285-9.944 5.735-6.7 6.145-9.266 3.782-23.657-4.414-26.892-4.589-27.233-12.882-24.891-8.709 2.459-17.233 2.096-28.426-1.211-13.853-4.093-15.961-3.853-19.786 2.259Zm12.126 47.971c-26.593 13.219-10.325 47.271 16.79 35.144 14.823-6.629 15.186-29.162.586-36.279-6.285-3.064-9.329-2.865-17.376 1.135Zm49.284 5.951c-3.55 6.981-2.661 16.074 2 20.466l3.223 3.038-.137-7.279c-.074-4.003-.598-10.573-1.164-14.599L428 456.618l-2.893 5.693Zm-30.461 1.992c2.748 3.281 3.25 5.436 2.709 11.643-.415 4.767-.092 7.285.864 6.727.859-.499 1.034-.138.402.826-.618.942-1.695 1.38-2.394.973-.697-.407-2.132.242-3.188 1.441-2.863 3.25-8.902 2.664-11.494-1.114-9.532-13.889 2.659-32.963 13.101-20.496Zm-131.288 11.015c-29.703 11.442-19.476 54.497 12.946 54.497h8.799l-.457 40.399-.456 40.401 15.212.883c8.367.484 27.326 2.613 42.132 4.727 28.733 4.105 53.342-15.023 26.667-20.727-12.702-2.717-17.247-4.2-25.611-8.357-28.628-14.229-45.968-48.915-37.989-75.991 2.016-6.844 4.096-6.89 10.874-.237 14.548 14.275 39.104 16.116 52.937 3.97l4.096-3.597 6.328 3.043c6.85 3.294 17.62 3.977 24.4 1.548 2.951-1.059 5.658-.988 9.26.24 14.203 4.84 27.623-17.01 14.703-23.939-2.566-1.376-6.125-4.834-7.909-7.685-4.032-6.442-6.782-6.557-10.07-.426-10.964 20.445-41.378 22.427-50.995 3.326l-2.695-5.354-30.624.318-30.623.319-6.195-3.865c-7.23-4.509-18.106-6.046-24.73-3.493Zm497.81 85.267c-30.572 13.731-83.241 83.641-65.663 87.156 12.905 2.581 25.349 16.285 27.775 30.585 5.738 33.814 108.761-32.359 108.344-69.594-.428-38.387-36.819-63.257-70.456-48.147Zm14.378 229.448c-.843 1.007-5.226 8.655-9.74 16.996-4.514 8.34-13.21 21.186-19.324 28.547-6.113 7.36-14.223 17.992-18.019 23.628l-6.902 10.248-.476 31.32c-.576 37.912-3.153 34.602 26.539 34.098 80.731-1.366 140.954-27.058 140.9-60.107-.042-26.348-12.178-32.533-63.677-32.453-19.646.03-35.721-.478-35.721-1.131s1.533-4.111 3.405-7.685c11.332-21.621-3.493-59.557-16.985-43.461Z" clip-rule="evenodd"/><path fill="#E1FF01" fill-rule="evenodd" d="M889.597 248.953c-.586.552-1.064 3.542-1.064 6.642v5.641l35.336-.394 35.336-.394v-11.711l-34.272-.394c-18.848-.215-34.75.059-35.336.61Zm.002 23.424c-.586.552-1.066 3.528-1.066 6.615v5.612h70.074l-.478-6.222-.477-6.222-33.494-.394c-18.423-.216-33.974.059-34.559.611Zm-129.442 3.701c-4.382 1.999-8.763 9.811-8.075 14.402.533 3.569.814 3.639 14.523 3.639h13.979l.49-4.807c.966-9.468-11.66-17.456-20.917-13.234Zm128.674 26.431.479 6.25h69.895v-11.712l-35.426-.394-35.428-.393.48 6.249Zm-311.175 39.378c-8.495 2.933-11.673 74.161-3.647 81.719 15.285 14.392 19.41 5.869 19.41-40.102 0-45.223-.616-46.85-15.763-41.617Zm532.734 28.965c-5.12 3.792-26.15 46.269-26.15 52.805 0 3.639-2.72.767-7.47-7.896-26.75-48.757-75.25-46.25-96.542 4.99-3.459 8.329-9.374 11.035-9.374 4.291 0-8.94-23.312-33.434-38.601-40.556-32.2-14.998-57.438-3.652-75.754 34.055-5.343 11-5.722 10.949-11.506-1.558-7.783-16.824-13.114-24.047-17.749-24.047-7.962 0-6.87 5.648 5.57 28.806 16.648 30.991 20.565 31.54 34.559 4.839 25.848-49.315 62.499-48.686 90.903 1.559 13.802 24.413 19.846 24.399 32.806-.069 14.788-27.921 21.538-35.135 32.858-35.135 16.93 0 32.9 12.521 44.84 35.135 12.76 24.19 18.14 22.677 31.6-8.898 17.66-41.427 17.18-40.92 25.06-26.171 5.71 10.7 8.72 13.157 12.99 10.624 4.12-2.449 3.82-6.078-1.33-15.935-9.18-17.575-18.12-23.21-26.71-16.839Zm-346.892 12.885c-4.448 1.014-9.672 5.946-11.483 10.843l-1.558 4.212h15.36c16.935 0 18.384-.728 14.726-7.392-1.976-3.604-11.194-9.435-13.501-8.542-.24.094-1.835.489-3.544.879Zm84.651 67.757c-3.732 3.518-3.942 7.007-.688 11.385 6.474 8.712 20.184-1.805 13.984-10.725-3.068-4.412-9.003-4.706-13.296-.66ZM679.178 649.182c-15.745 1.558-23.177 5.512-53.917 28.698a11516.764 11516.764 0 0 1-49.704 37.244c-12.814 9.532-25.316 18.882-27.781 20.778l-4.484 3.448 22.853 36.139c12.568 19.876 23.539 36.137 24.379 36.137.84 0 14.242-9.422 29.782-20.937a15197.67 15197.67 0 0 1 56.135-41.357c33.547-24.566 37.442-28.102 42.248-38.345 11-23.444 5.373-47.041-14.206-59.564-6.172-3.948-7.168-4.036-25.305-2.241Z" clip-rule="evenodd"/><path fill="#CBE0E4" fill-rule="evenodd" d="M197.346 119.263c0-3.412 1.988-4.711 9.266-6.056 12.72-2.348 15.345-1.785 15.876 3.408l.486 4.758h425.049c233.775 0 424.757.445 424.397.988-5.92 9.028.14 9.857 76.28 10.435 55.88.423 69.59.516 81.46 4.969 3.89 1.461 7.59 3.392 12.51 5.958 18.69 9.74 33.81 28.66 39.58 49.518 3.83 13.843 3.86 768.373.04 782.348-7.55 27.571-30.84 51.571-58.77 60.561l-9.59 3.08-247.465-.42c-147.408-.26-249.005-.98-251.266-1.79-15.227-5.46-22.235-5.8-118.381-5.83-83.615-.03-102.496.32-110.847-8.34-2.796-2.9-4.412-6.81-6.882-12.09l-2.749-5.87-.966-11.356v-32.596c0-26.077 14.827-103.508 22.241-138.963l9.501 8.366c5.226 4.603 13.823 10.534 19.106 13.18l9.604 4.812 7.643-3.649c4.205-2.009 15.939-9.479 26.079-16.601 10.139-7.122 19.483-13.35 20.765-13.841 1.281-.49 24.693-17.419 52.027-37.62l49.697-36.729h229.42c163.953 0 231.773-.47 237.653-1.646 23.88-4.777 42.57-22.474 47.74-45.201 1.37-6.027 1.71-61.779 1.35-221.789l-.48-213.737-5.61-10.979c-9.09-17.783-24.02-29.795-42.72-34.387-13.37-3.282-1018.821-3.18-1031.777.105-23.806 6.033-41.56 23.456-46.567 45.699-3.024 13.435-2.418 426.181.641 437.255 6.42 23.231 12.936 28.61 19.25 15.892l-2.998 294.885c0 1.02 3.013 7.94 6.694 15.37l6.695 13.52-10.189.42c-47.855 2-90.835-28.97-98.828-71.216-2.665-14.079-3.235-742.032-.596-759.248 6.379-41.6 42.608-68.78 95.814-71.88l17.454-1.018 1.885-4.916 1.887-4.917h39.295c37.862 0 39.296-.104 39.296-2.842Zm160.282 351.438c1.796-9.923 5.921-14.881 17.466-20.993 4.515-2.392 6.271-2.421 17.94-.297 6.238 1.134 15.108 11.091 16.717 18.765 1.886 8.987 6.957 8.523 8.366-.766 4.295-28.298 44.831-26.366 44.831 2.136 0 23.33-30.195 33.972-42.159 14.861-5.552-8.868-9.082-8.636-14.214.932-10.11 18.853-38.199 18.708-48.217-.247-1.887-3.574-1.996-3.588-28.643-3.988-35.244-.527-35.243-3.063.002-3.59l26.751-.401 1.16-6.412Zm22.323 24.249c26.36 2.148 36.159-31.74 11.986-41.449-2.721-1.093-4.181-1.689-5.674-1.775-1.787-.103-3.622.525-7.725 1.904-24.422 8.207-23.358 39.304 1.413 41.32Zm59.45-5.393c16.649 0 25.283-19.816 13.786-31.641-12.368-12.718-32.176-4.506-32.176 13.341 0 11.061 7.275 18.3 18.39 18.3Zm632.799 12.809c-44.63.216-117.675.216-162.31 0-44.637-.216-8.116-.392 81.156-.392 89.274 0 125.794.176 81.154.392Zm-115.289 61.835c-4.453 2.245-10.166-3.139-7.783-7.336 1.843-3.246 6.172-3.793 8.99-1.138 2.817 2.656 2.236 6.736-1.207 8.474Zm176.719.844c-4.23 1.264-8.09-2.481-6.73-6.519.73-2.185 2.33-3.091 5.43-3.091 7 0 8.02 7.598 1.3 9.61Zm-248.901 92.53c-4.308-5.799-3.493-60.605.968-65.082 4.383-4.396 10.807-4.339 16.34.145l4.358 3.531.545 26.761c.791 38.912-8.393 53.238-22.211 34.645Zm178.061.279c-5.05-4.436-5.31-61.098-.3-65.821 12.69-11.954 18.64-1.362 18.64 33.144 0 34.806-5.25 44.171-18.34 32.677Zm45.65 2.985c-13.87 0-18.44-65.159-4.93-70.311 2.06-.781 3.08-1.172 4.12-1.232 1.05-.06 2.11.21 4.24.748 14.74 3.721 11.49 70.795-3.43 70.795ZM795.196 794.478l-4.285-3.87c-9.296-8.394-15.119-5.022-25.715 14.889-4.978 9.353-13.417 21.766-20.983 30.863-6.962 8.369-15.139 19.404-18.176 24.521l-5.52 9.303h-43.223v65.878l23.686.126c13.029.069 31.202.019 40.384-.111 16.612-.236 16.718-.215 20.453 3.967 2.065 2.313 7.481 6.15 12.036 8.529l8.284 4.325 67.231.424 67.233.425 9.283-3.926c10.911-4.615 18.831-12.296 24.569-23.831l4.092-8.227-.006-46.115c-.008-51.04-.269-52.665-10.461-65.181-13.9-17.065-19.293-18.264-82.105-18.264-49 0-51.65.141-59.04 3.137l-7.737 3.138Zm389.414 23.394c-5.19-10.595-16.1-20.989-27.03-25.747-6.97-3.035-9.64-3.203-54.7-3.47-48.6-.286-50.68-.115-61.42 5.06-41.503 19.983-39.76 138.308 2.3 156.097l9.38 3.969 50.11-.443 50.11-.44 7.83-3.896c24.78-12.331 27.89-20.868 27.89-76.622v-45.382l-4.47-9.126Zm-91.52 90.464c-6.47-10.319-5.3-61.597 1.56-68.054 5.58-5.265 16.05-5.312 21.59-.095l3.89 3.671-.47 32.324-.47 32.324-4.36 3.53c-7.05 5.715-16.89 4.04-21.74-3.7Zm-232.889 2.839 9.001-6.588c6.874-5.031 9.03-6.636 9.705-6.201.328.211.307.905.307 1.922 0 4.181-8.643 10.867-14.046 10.867h-4.967Zm226.059 213.365c-7.01.27-18.89.27-26.41 0-7.51-.27-1.78-.49 12.74-.49s20.67.22 13.67.49Z" clip-rule="evenodd"/><path fill="#F5F4EE" d="M677.208 935.461c-81.389 18.153-169.302 25.131-201.143 25.619V810.293c20.969 20.495 69.74 61.486 97.077 61.486h107.173c-2.33 27.083-3.107 24.155-3.107 63.682Z"/></svg>