<svg xmlns="http://www.w3.org/2000/svg" width="1211" height="1178" fill="none"><path fill="#AAF" fill-rule="evenodd" d="M643.564 163.521c9.33.28 25.035.281 34.898.002 9.864-.279 2.229-.508-16.965-.509-19.194-.002-27.264.227-17.933.507Zm156.338.002c9.816.278 25.877.278 35.691 0 9.816-.279 1.785-.506-17.845-.506-19.631 0-27.661.227-17.846.506Zm88.931.002c13.358.266 34.773.264 47.589 0 12.814-.267 1.884-.484-24.29-.484-26.174.001-36.659.219-23.299.484Zm129.257-.007c6.8.298 17.51.297 23.8-.003 6.28-.301.72-.544-12.37-.542-13.09.001-18.23.247-11.43.545Zm-123.803 123.71c5.888.304 15.526.304 21.415 0 5.888-.306 1.07-.555-10.708-.555s-16.596.249-10.707.555Zm192.293 247.834c0 55.393.2 78.053.44 50.357.24-27.697.24-73.019 0-100.715-.24-27.697-.44-5.035-.44 50.358Zm-275.574-62.264c6.324.3 16.677.3 23.001 0 6.325-.301 1.15-.549-11.501-.549-12.65 0-17.825.248-11.5.549Z" clip-rule="evenodd"/><path fill="#CDE801" fill-rule="evenodd" d="M441.397 664.709c6.327.3 16.676.3 23.002 0 6.326-.301 1.15-.549-11.501-.549s-17.827.248-11.501.549Zm297.308 3.183c56.425.23 149.223.23 206.219 0 56.996-.231 10.832-.42-102.589-.42-113.421 0-160.053.189-103.63.42Zm-157.794 7.846c-.422.701 3.319 15.549 8.314 32.995 4.995 17.447 11.843 42.427 15.219 55.512 3.375 13.085 6.63 24.004 7.235 24.264.604.26.755 2.044.336 3.965-.636 2.912-.453 3.096 1.095 1.113 1.485-1.901 1.681-1.264.974 3.172l-.884 5.552 2.349-4.288c2.19-3.998 1.747-6.517-6.541-37.272-4.891-18.143-9.918-36.911-11.171-41.708-5.23-20.01-10.568-35.879-13.028-38.735-1.649-1.911-1.81-2.568-.438-1.762 1.477.869 1.96.602 1.486-.817-.845-2.539-3.878-3.759-4.946-1.991Zm35.54 125.475c-1.304 2.435.271 11.539 7.009 40.541 4.78 20.57 8.701 38.667 8.714 40.216.022 2.425.26 2.486 1.721.437 1.306-1.832 1.507-1.276.879 2.42-1.388 8.165 4.296 30.922 6.639 26.579 2.084-3.865.842-16.311-1.628-16.311-.812 0-1.088-.63-.612-1.399 1.205-1.949-4.004-27.15-5.613-27.15-.72 0-.958-.92-.525-2.046.681-1.776-13.007-64.473-14.388-65.894-.283-.292-1.273.88-2.196 2.607Zm-163.047 73.66c-2.368 4.58-4.116 9.291-3.886 10.468.231 1.178-.333 1.676-1.255 1.107-1.052-.651-1.285-.022-.63 1.687.705 1.835.446 2.353-.793 1.586-1.237-.764-1.496-.247-.793 1.586.642 1.672.417 2.334-.584 1.715-.896-.554-3.637 2.72-6.09 7.274-19.295 35.813-45.587 78.768-86.091 140.654-20.175 30.82-20.698 31.78-17.274 31.78 2.486 0 25.995-34.07 25.281-36.64-.217-.78.252-1.42 1.044-1.42 1.8 0 19.71-27.01 19.71-29.73 0-1.1.514-1.99 1.14-1.99.627 0 2.416-1.97 3.979-4.365 2.47-3.795 2.493-4.079.182-2.185-3.951 3.238-3.218-.398.789-3.913 1.894-1.662 2.923-2.129 2.285-1.039-.637 1.091-.828 1.983-.423 1.983.404 0 2.697-3.391 5.094-7.534 2.396-4.143 6.622-11.103 9.39-15.464 10.37-16.337 21.898-36.548 21.939-38.462.022-1.09.579-1.983 1.236-1.983 1.821 0 16.485-27.454 15.967-29.897-.249-1.178.226-1.722 1.055-1.21 1.328.82 5.776-7.264 5.824-10.584.011-.687.812-1.757 1.779-2.379 2.296-1.475 7.762-12.122 5.51-10.73-2.488 1.537-2.107-1.189.664-4.771 2.348-3.032 2.369-3.03 1.353.094-.81 2.495-.602 2.779.97 1.328 2.049-1.893 1.023-5.293-1.599-5.293-.806 0-3.405 3.746-5.773 8.327Zm187.772 40.963c-1.006 3.845 3.779 30.554 5.613 31.337.685.294.866 1.145.402 1.896-1.086 1.757 4.169 33.575 5.873 35.559 4.58 5.332 4.107-3.856-1.859-36.102-3.501-18.918-6.364-34.755-6.364-35.191 0-2.316-2.927-.317-3.665 2.501Zm-439.31 248.484c6.326.3 16.675.3 23.001 0 6.327-.3 1.15-.55-11.5-.55-12.651 0-17.827.25-11.501.55Zm227.515.01c35.489.24 94.023.24 130.077 0 36.055-.24 7.019-.43-64.523-.43s-101.041.19-65.554.43Zm396.694 0c19.85.25 52.329.25 72.177 0 19.85-.26 3.609-.46-36.088-.46s-55.936.2-36.089.46Zm264.015 0c21.09.25 56.07.25 77.72 0 21.66-.25 4.4-.46-38.35-.46-42.76 0-60.47.21-39.37.46Z" clip-rule="evenodd"/><path fill="#111F22" fill-rule="evenodd" d="M507.625 3.165c-13.45 7.307-12.839 7.167-22.566 5.16-12.375-2.557-18.471-1.132-31.898 7.457-11.229 7.185-11.392 7.23-21.445 6.155-13.399-1.435-19.142 3.008-22.487 17.395-1.301 5.597-3.314 10.024-4.981 10.956-9.694 5.425-11.788 11.9-8.195 25.336 1.651 6.173 1.463 7.708-1.767 14.38-4.032 8.33-3.753 12.67 1.521 23.552 2.543 5.25 3.06 8.514 2.321 14.681-1.258 10.495 5.309 21.583 15.53 26.222 11.772 5.343 15.12 3.273 19.335-11.948 4.797-17.323 4.697-19.066-1.458-25.218-7.409-7.409-8.271-17.683-2.041-24.346 4.892-5.234 9.832-4.448 17.714 2.818l6.931 6.387 4.928-4.146c4.624-3.89 8.482-13.42 11.953-29.521 2.57-11.927 12.973-17.4 23.748-12.49l6.945 3.164 9.597-3.496 9.598-3.494 7.281 3.537c8.873 4.311 12.861 4.424 19.221.546 9.841-6 14.134-25.558 5.609-25.558-5.577 0-9.702-4.668-9.702-10.979 0-14.98-20.817-24.633-35.692-16.55Zm5.802 73.526c-5.518 1.294-9.409 4.059-7.873 5.593 1.803 1.803 16.348-1.678 16.348-3.913 0-2.84-1.916-3.22-8.475-1.68Zm31.854.256c-2.714 2.713-2.452 6.786 1.209 18.775 3.994 13.079 4.043 12.689-1.586 12.689-4.983 0-6.468 2.615-2.377 4.185 9.834 3.774 12.778-2.87 7.975-17.99-4.131-13.007-4.017-14.744.972-14.744 4.044 0 3.046-3.796-1.161-4.422-1.686-.252-3.952.427-5.032 1.507Zm18.658 39.446c-1.467.981-9.073 1.207-19.829.592l-17.449-.999-10.103 8.098c-15.995 12.817-18.904 13.044-44.981 3.509-20.021-7.322-21.639-5.149-13.048 17.511 12.543 33.079 31.433 44.359 70.512 42.104 42.847-2.474 56.694-20.54 44.286-57.779-5.062-15.186-5.421-15.686-9.388-13.036Zm-19.829 24.532c0 3.651-4.571 4.799-12.898 3.237-10.297-1.93-7.263-7.461 3.777-6.885 7.905.412 9.121.899 9.121 3.648Zm77.729 24.467c-11.237 2.769-19.908 9.936-26.012 21.505-3.146 5.962-3.334 8.701-3.334 48.265v41.944l7.784 15.178c10.642 20.755 31.808 85.668 31.865 97.731.005.916-7.308 3.904-16.251 6.641-8.944 2.736-16.898 5.199-17.677 5.472-.78.273-4.771-7.711-8.87-17.743-26.739-65.444-67.194-114.196-94.761-114.196-3.052 0-2.437 4.726.749 5.746 35.065 11.229 64.833 48.506 90.734 113.624 8.329 20.936 6.217 19.875 26.068 13.093 30.92-10.564 61.295-15.215 79.502-12.175 9.299 1.553 9.588 1.492 12.583-2.647 16.931-23.409 49.807-36.73 42.432-17.193-2.592 6.866-2.862 6.985 17.925-7.873 15.578-11.136 19.626-13.344 22.955-12.517 6.417 1.589 9.441 1.211 12.179-1.526 4.124-4.124 4.278-1.596.306 5.042-2.026 3.388-4.472 7.559-5.437 9.27-.962 1.712-8.202 7.752-16.088 13.422-13.652 9.816-14.289 10.537-13.318 15.067 5.483 25.588-1.95 40.277-27.697 54.73-7.808 4.384-8.13 4.841-9.082 12.878-2.803 23.654-26.423 47.872-64.151 65.773-8.99 4.265-11.465 6.143-10.854 8.238 12.495 42.811 7.754 90.726-10.4 105.074-24.871 19.656-170.578 32.882-253.543 23.012-17.736-2.11-25.333-3.364-40.054-6.617l-4.362-.965.023 11.683c.026 12.316 3.306 65.029 6.568 105.519l1.935 24.049-5.197 11.637c-2.858 6.402-14.354 32.375-25.545 57.719-11.192 25.345-32.464 72.094-47.272 103.886-47.545 102.082-44.215 89.242-25.857 99.742 37.989 21.74 88.176 37.41 101.76 31.79 11.895-4.93 83.231-86.03 131.593-149.608 22.184-29.164 19.14-29.547 29.603 3.718 16.503 52.46 40.527 115.67 57.715 151.86l9.229 19.43 6.056-.01c16.492-.03 108.992-23.15 124.634-31.15 7.342-3.75.161-54.85-30.728-218.64-5.932-31.464-35.503-174.219-40.903-197.464-.912-3.926-1.675-8.029-1.697-9.12-.03-1.577 42.602-1.983 207.98-1.983 151.274 0 209.663-.493 214.063-1.809 8.1-2.427 16.38-9.504 21.69-18.53l4.36-7.417.42-220.382c.38-199.872.18-221.106-2.16-228.142-3.12-9.396-10-17.56-18.73-22.232l-6.5-3.475-215.735-.248c-118.655-.138-217.878.28-220.496.924Zm208.74 59.247c10.341 6.967 10.271 20.774-.141 27.753-5.384 3.608-5.576 4.09-6.345 15.914-1.204 18.501-6.907 18.363-7.604-.184-.431-11.494-.805-12.679-5.253-16.653-15.689-14.016 1.982-38.527 19.343-26.83Zm92.856 6.634c1.094 2.854-22.689 35.744-25.848 35.744-6.882 0-2.592-8.314 15.757-30.532 6.558-7.941 8.631-9.012 10.091-5.212Zm-107.821 2.165c-3.814 4.213-3.231 9.317 1.405 12.356 7.994 5.237 16.395-3.342 11.134-11.369-3.039-4.638-8.822-5.093-12.539-.987ZM458.431 274.96c-41.712 27.358-14.018 152.436 48.213 217.742 12.801 13.434 38.645 34.428 42.381 34.428 4.694 0 1.883-4.536-6.104-9.852C465.4 465.68 414.008 319.58 459.643 280.525c7.546-6.46 6.623-10.704-1.212-5.565Zm469.564 14.261c0 1.988-3.853 2.453-23.398 2.819-22.685.425-23.398.339-23.398-2.819 0-3.157.713-3.243 23.398-2.818 19.545.366 23.398.831 23.398 2.818Zm-91.377 3.036c6.848 4.336.412 6.481-19.445 6.481-19.986 0-24.38-1.378-19.607-6.151 2.137-2.136 35.751-2.419 39.052-.33Zm80.345 13.547c2.688 2.686 3.894 5.656 3.894 9.587 0 3.932-1.206 6.901-3.894 9.588-8.43 8.43-23.073 2.527-23.073-9.302 0-12.643 14.219-18.727 23.073-9.873Zm-14.236 4.942c-4.204 4.205-1.215 11.783 4.646 11.783 6.084 0 8.815-7.509 4.237-11.65-3.621-3.277-5.706-3.308-8.883-.133Zm-59.884 5.889c2.443 2.942 1.089 4.3-15.121 15.147-15.482 10.361-20.057 11.933-19.207 6.599.942-5.9 31.442-25.223 34.328-21.746Zm-25.476 46.352c.464 8.911-1.255 12.811-5.011 11.369-2.637-1.012-3.811-16.722-1.428-19.104 3.23-3.229 6.044.153 6.439 7.735Zm170.115 123.675c0 92.795-.367 111.757-2.188 113.268-2.827 2.345-301.359 2.405-305.739.061-11.358-6.078-7.338-6.246 149.466-6.246H979.55V484.438c0-112.68-.028-112.156 5.949-109.96 1.561.575 1.983 24.467 1.983 112.184Zm-162.398-66.646c.49 1.278-1.447 6.409-4.304 11.402-3.396 5.935-4.546 9.296-3.321 9.705 5.563 1.854 1.718 6.704-5.313 6.704-8.476 0-10.684-3.085-6.022-8.407 1.68-1.918 5.705-7.591 8.942-12.608 5.997-9.291 8.427-10.941 10.018-6.796Zm81.496 9.819c0 1.443-1.837 5.034-4.083 7.978l-4.083 5.351 3.687 3.093c6.091 5.11-1.181 7.344-12.574 3.862-3.81-1.164-1.927-6.376 5.28-14.611 7.321-8.368 11.773-10.514 11.773-5.673Zm-787.593 49.669c-3.876 33.39 6.835 114.883 23.942 182.164 11.768 46.279 12.799 49.025 16.892 44.933 1.209-1.209.715-5.044-1.705-13.265-20.36-69.153-31.837-138.231-32.484-195.527-.34-29.989-4.09-40.321-6.645-18.305Zm728.353-5.439c1.526 3.977.303 4.186-25.113 4.313-23.772.119-24.32.046-24.816-3.32-.669-4.552 48.189-5.524 49.929-.993Zm58.655 9.128c.538.538.555 2.078.038 3.425-1.575 4.104-26.42 3.532-26.42-.61 0-4.242 22.548-6.648 26.382-2.815Zm-79.296 10.844c6.75 6.34 4.573 18.252-4.161 22.768-6.804 3.516-10.82 2.955-16.017-2.241-13.986-13.984 5.758-34.072 20.178-20.527Zm-15.977 5.45c-3.446 3.446-3.117 6.406 1.034 9.313 4.537 3.179 5.344 3.117 9.164-.702 4.808-4.808 2.11-11.103-4.759-11.103-1.62 0-4.067 1.121-5.439 2.492Zm95.209-.309c2.299 5.987-4.54 39.055-8.075 39.055-3.947 0-2.908-24.486 1.665-39.255.827-2.668 5.363-2.527 6.41.2Zm-6.078 47.107c.541 5.053-1.836 8.514-5.01 7.296-2.988-1.147-3.372-7.537-.617-10.292 2.748-2.747 5.149-1.469 5.627 2.996ZM42.931 618.974c-1.978 3.199 26.495 32.199 37.857 38.557 8.644 4.836 4.881-4.014-5.087-11.967-6.01-4.794-14.862-13.062-19.668-18.373-8.524-9.418-11.288-11.151-13.102-8.217Zm543.262 59.228c13.505 30.795 73.881 288.964 71.033 303.743-1.58 8.203-5.364 2.127-8.156-13.098-16.131-87.974-35.081-169.743-59.112-255.079-5.606-19.911-9.786-36.863-9.288-37.669 1.551-2.509 3.893-1.618 5.523 2.103ZM462.416 868.385c0 14.809-124.406 212.705-127.935 203.505-.554-1.44 8.428-16.54 22.863-38.43 36.655-55.601 61.599-96.653 86.005-141.536 13.853-25.479 19.067-31.917 19.067-23.539Zm514.598 124.09c-.579 1.51-.583 7.339-.008 12.955l1.047 10.21h-21.46c-18.09 0-21.459.37-21.459 2.39 0 2.11 7.668 2.35 63.055 1.99 71.921-.48 88.561-3.3 23.631-4.01l-38.642-.43-.949-11.32c-.978-11.665-3.272-16.849-5.215-11.785Zm62.026 123.095c-23.18 9.54-57.331 10.54-83.284 2.43-7.416-2.31-15.14-4.62-17.163-5.12l-3.678-.91.506 26.38.506 26.38-143.56-.38c-78.959-.2-118.348-.57-87.531-.81 52.215-.41 55.993-.63 55.498-3.2-.891-4.62-135.322-4.21-135.322.42 0 3.15-1.322 3.18-218.91 3.97l-218.909.79-.535 3.78c-.922 6.52-7.222 6.44 512.117 6.45 518.745.02 513.045.09 512.115-6.45l-.53-3.78-78.79-.41-78.79-.41.88-14.75c.9-15.23-.61-39.22-2.46-39.05-.59.05-6.06 2.15-12.16 4.67Zm-805.675 43.73c-.53 1.38-.963 2.81-.963 3.18 0 1.05 102.475.77 103.529-.29.522-.52.564-1.95.095-3.17-1.366-3.56-101.292-3.28-102.661.28Z" clip-rule="evenodd"/><path fill="#111F22" d="M513.8 103.654c5.346 0 7.903-8.287 3.818-12.371-2.66-2.66-4.072-2.384-5.972 1.166-1.498 2.798.119 11.205 2.154 11.205Zm-75.362 10.862c2.248 3.546 7.321 1.498 7.321-2.954 0-3.123-.908-4.047-4.362-4.444-4.575-.526-5.894 2.768-2.959 7.398Z"/><path fill="#7B8093" fill-rule="evenodd" d="M1086.52 240.847c0 21.808.22 30.95.5 20.314.27-10.635.27-28.478 0-39.652-.27-11.172-.5-2.471-.5 19.338Zm-.03 103.093c0 15.702.24 21.912.52 13.798.29-8.113.29-20.96 0-28.55-.29-7.587-.52-.95-.52 14.752ZM976.377 1012.2c0 1.29-6.069 1.95-20.225 2.19l-20.226.35 19.699.5c18.233.46 24.937-.71 21.835-3.81-.595-.59-1.083-.25-1.083.77Zm-42.208 125.56c0 11.78.249 16.6.555 10.71.304-5.89.304-15.53 0-21.41-.306-5.89-.555-1.07-.555 10.7Z" clip-rule="evenodd"/><path fill="#579AA8" fill-rule="evenodd" d="M745.49 55.358c-10.722 5.292-13.737 20.529-5.817 29.393 8.39 9.388 25.643 7.593 31.252-3.251 8.88-17.17-8.149-34.671-25.435-26.142Zm-597.284 270.22c-13.567 13.568 5.64 33.071 19.72 20.024 8.862-8.212 2.14-24.66-10.08-24.66-3.413 0-6.475 1.472-9.64 4.636Zm104.025 4.457c-5.401 1.352-11.386 6.463-13.477 11.512-7.563 18.254 10.106 35.52 27.657 27.023 22.827-11.047 10.443-44.7-14.18-38.535ZM979.55 484.306v109.438H829.021c-156.804 0-160.824.168-149.466 6.246 4.38 2.344 302.912 2.284 305.739-.06 1.821-1.512 2.188-20.498 2.188-113.438V374.868h-7.932v109.438Zm-30.292 316.171c-23.334 6.44-38.932 41.516-32.273 72.569 5.647 26.332 2.303 33.466-7.207 15.375-43.363-82.491-147.533-71.85-107.026 10.933 17.96 36.706 40.635 50.164 73.192 43.447 23.725-4.896 29.566-2.203 35.795 16.495 12.296 36.917 76.32 36.762 88.471-.214 3.19-9.707 4.95-12.194 16.66-23.542 26.38-25.567 30.13-53.825 9.54-71.896-6.51-5.72-8.9-6.444-23.07-7.001l-10.306-.406.36-5.551c1.654-25.493 1.315-29.441-3.112-36.129-8.205-12.395-25.553-18.349-41.024-14.08Z" clip-rule="evenodd"/><path fill="#30555C" fill-rule="evenodd" d="M591.572 232.917c-.002 17.447.23 24.8.515 16.341.284-8.458.286-22.733.002-31.721-.282-8.988-.516-2.067-.517 15.38ZM79.93 388.065c-38.414 14.372-52.27 71.863-35.354 146.709 4.901 21.688 4.984 20.906-2.242 20.906-51.556 0-57.295 60.315-10.192 107.108 83.1 82.55 156.495 87.764 178.018 12.649 5.874-20.497 9.275-26.392 30.587-52.998 42.016-52.459 51.136-85.714 29.133-106.247-16.625-15.513-35.762-8.007-55.554 21.791-38.392 57.799-53.224 52.952-55.045-17.989-2.362-91.946-36.136-148.097-79.352-131.929Zm45.701 109.744c.647 57.297 12.124 126.374 32.484 195.528 3.325 11.294 2.708 16.631-1.613 13.961-2.943-1.818-17.992-59.768-25.441-97.97-12.043-61.75-16.777-140.583-8.346-138.962 2.288.439 2.649 3.846 2.916 27.443Zm-69.6 129.383c4.807 5.31 13.659 13.578 19.67 18.373 9.968 7.952 13.73 16.803 5.087 11.967-11.363-6.359-39.835-35.358-37.857-38.557 1.813-2.935 4.578-1.201 13.1 8.217Z" clip-rule="evenodd"/><path fill="#EAE7D9" fill-rule="evenodd" d="M417.999 194.85c-2.181 1.245-8.605 3.817-14.276 5.716-78.394 26.246-97.805 74.373-104.852 259.95-5.109 134.575.862 170.612 30.74 185.54 5.215 2.606 10.461 5.55 11.657 6.543 1.265 1.048 2.175 1.15 2.175.242 0-.907 5.153-.331 12.294 1.374 56.878 13.58 183.021 10.389 261.17-6.606 38.695-8.416 49.853-35.783 38.157-93.593l-.817-4.042-13.031 4.341c-54.85 18.275-112.734.974-146.67-43.838-13.387-17.678-24.499-47.764-19.778-53.555 1.134-1.389-.357-5.279-5.141-13.409-37.307-63.413-43.26-150.894-11.58-170.158 9.926-6.035 12.273.12 2.914 7.64-44.729 35.94 3.228 177.302 78.787 232.232 7.199 5.234 13.087 10.503 13.087 11.71 0 1.205.233 2.193.517 2.193.284 0 5.695 1.81 12.024 4.021 67.336 23.521 161.245-24.118 161.124-81.738-.121-58.289-33.677-71.942-112.443-45.748-22.466 7.471-20.426 8.513-29.989-15.315-24.732-61.621-53.885-99.049-85.267-109.471-8.027-2.665-10.819-7.643-5.444-9.705 3.282-1.26 24.091 8.863 34.732 16.895 20.679 15.611 43.883 51.721 62.156 96.73 5.242 12.915 7.411 16.612 9.659 16.468 3.754-.239 28.707-7.643 29.951-8.887 3.267-3.267-18.758-72.969-30.332-95.989l-8.579-17.065-.381-38.065-.38-38.066-.465 32.118c-.528 36.563.106 35.531-13.3 21.685-5.555-5.739-15.81-14.438-22.79-19.334-6.98-4.895-16.286-12.294-20.681-16.441-4.395-4.146-9.927-8.277-12.293-9.176-3.684-1.4-4.34-2.612-4.563-8.415-.247-6.48-.299-6.395-1.189 1.865-2.556 23.727-54.012 20.81-84.496-4.792-4.083-3.427-7.653-6.208-7.932-6.177-.28.031-2.293 1.075-4.475 2.322Zm398.162 29.515c-10.887 4.271-12.921 17.657-3.966 26.101 5.395 5.087 5.552 5.575 5.552 17.238 0 9.611.474 12.001 2.38 12.001 1.913 0 2.379-2.445 2.379-12.496 0-12.343.057-12.519 4.681-14.435 18.62-7.711 7.73-35.769-11.026-28.409Zm11.68 6.975c8.94 8.939-1.439 22.925-11.474 15.462-5.09-3.784-6.052-8.818-2.671-13.977 2.942-4.491 10.36-5.269 14.145-1.485Zm79.591 14.982c-11.934 15.754-13.715 19.158-9.973 19.053 2.202-.062 24.984-30.187 24.984-33.037 0-4.345-3.837-.77-15.011 13.984Zm-25.386 42.814c-.56.904 7.584 1.691 20.554 1.983 22.521.506 24.602.334 24.602-2.029 0-1.935-43.96-1.891-45.156.046Zm-83.82 4.271c-2.771 2.771 2.327 3.745 19.615 3.745 17.321 0 22.941-1.298 16.432-3.796-3.347-1.284-34.756-1.24-36.047.051Zm98.819 15.244c-3.766 6.176-3.787 6.471-.835 12.178 5.957 11.518 23.06 7.484 23.06-5.437 0-12.227-15.932-17.06-22.225-6.741Zm15.88 1.189c5.429 5.428 1.767 14.275-5.906 14.275-2.787 0-8.37-5.818-8.37-8.723 0-3.074 5.65-8.724 8.724-8.724 1.309 0 3.807 1.428 5.552 3.172Zm-88.655 16.846c-15.493 10.111-18.747 13.289-13.601 13.289 2.508 0 29.897-17.757 31.575-20.471 2.932-4.744-3.853-2.033-17.974 7.182Zm-12.868 38.005c0 11.648 3.758 11.094 4.445-.653.384-6.562-.013-8.202-1.983-8.202-1.931 0-2.462 1.908-2.462 8.855Zm1.704 67.393c-4.588 7.044-8.098 13.007-7.799 13.255 4.707 3.876 14.345 1.143 10.843-3.077-1.483-1.786-.854-4.035 3.036-10.83 9.778-17.089 5.154-16.593-6.08.652Zm82.517 4.465c-8.175 9.764-8.278 12.289-.544 13.277 6.742.86 11.154-1.558 5.525-3.028-4.597-1.202-4.478-3.96.424-9.784 4.051-4.814 5.098-8.219 2.527-8.219-.792 0-4.361 3.489-7.932 7.754Zm-96.624 38.311c.783 2.351 46.198 2.451 46.98.102.412-1.234-6.576-1.758-23.473-1.758-16.004 0-23.874.554-23.507 1.656Zm83.258 8.919c-2.785 2.783-.101 3.7 10.839 3.7 11.16 0 15.115-1.599 9.388-3.796-3.388-1.3-18.905-1.227-20.227.096Zm-74.892 10.766c-11.095 11.091 2.363 29.158 15.184 20.385 5.468-3.741 6.25-5.219 6.279-11.871.045-11.119-13.49-16.487-21.463-8.514Zm16.01 4.723c2.673 4.079 1.701 7.895-3.01 11.804-3.262 2.707-9.763.667-12.163-3.817-4.898-9.154 9.456-16.712 15.173-7.987Zm77.862.561c-.65 1.05-5.761 32.845-5.761 35.831 0 .543 1.071.987 2.379.987 1.309 0 2.383-.535 2.386-1.19.003-.655 1.061-7.613 2.351-15.464 3.154-19.191 2.652-26.647-1.355-20.164ZM223.281 1177.01c11.997.27 31.628.27 43.623 0 11.997-.27 2.181-.49-21.811-.49-23.993 0-33.808.22-21.812.49Zm204.633 0c5.888.3 15.526.3 21.415 0 5.888-.31 1.071-.56-10.708-.56-11.778 0-16.596.25-10.707.56Zm83.972 0c14.558.27 38.828.27 53.934.01 15.107-.27 3.195-.48-26.469-.48-29.663 0-42.022.21-27.465.47Zm218.941-.01c5.852.31 15.846.31 22.209.01 6.364-.3 1.576-.55-10.638-.56-12.215 0-17.421.25-11.571.55Zm111.208.01c12.922.27 33.623.27 46.003 0 12.379-.26 1.807-.48-23.495-.48-25.301 0-35.43.22-22.508.48Zm271.955 0c8.94.28 23.57.28 32.52 0 8.94-.28 1.62-.51-16.26-.51-17.89 0-25.2.23-16.26.51Z" clip-rule="evenodd"/><path fill="#9F9B8D" fill-rule="evenodd" d="M201.39 151.883c-23.669 10.307-16.375 45.363 9.436 45.343 15.779-.011 25.342-10.126 24.34-25.744-1.104-17.206-17.467-26.702-33.776-19.599Zm563.329 212.106-17.338 12.833 4.648 2.154c2.555 1.185 6.151 3.264 7.992 4.622 3.174 2.339 4.13 1.887 18.639-8.806 16.396-12.084 17.04-13.133 12.005-19.532-4.797-6.099-6.842-5.41-25.946 8.729ZM475.107 464.596c0 62.179 94.151 112.84 166.044 89.349 11.493-3.754 19.12-23.64 9.069-23.64-.387 0-6.575 1.586-13.749 3.524-20.315 5.488-51.327 5.082-68.474-.897-6.929-2.418-14.859-4.573-17.622-4.79-9.803-.773-47.292-34.096-60.965-54.191-2.949-4.335-6.316-8.46-7.485-9.168-1.17-.709-1.801-1.814-1.403-2.458.398-.644-.656-2.035-2.346-3.088-2.868-1.792-3.069-1.44-3.069 5.359Z" clip-rule="evenodd"/><path fill="#FCC" fill-rule="evenodd" d="M973.851 59.246c0 14.393.241 20.28.535 13.085.293-7.196.293-18.974 0-26.17-.294-7.196-.535-1.309-.535 13.085Z" clip-rule="evenodd"/><path fill="#C87A5A" fill-rule="evenodd" d="M965.911 59.243c0 13.521.244 19.052.541 12.292.298-6.76.298-17.824 0-24.584-.297-6.76-.541-1.229-.541 12.292Zm-487.48-.677c-3.016 2.538-5.465 6.587-6.471 10.706-7.633 31.217-14.46 38.536-25.407 27.244-8.208-8.467-17.429-6.954-19.999 3.283-1.478 5.889.638 11.794 6.03 16.83 6.432 6.008 5.764 18.499-1.813 33.889-4.74 9.627-4.931 10.772-4.498 27.129l.451 17.081 7.931 6.009c20.521 15.553 55.64 22.199 72.177 13.661l7.138-3.686.468-10.658c.464-10.538.419-10.668-3.965-11.571-33.911-6.989-42.818-14.644-54.391-46.733-7.607-21.093-3.417-23.745 20.97-13.278 11.319 4.856 24.288 5.779 29.353 2.087 1.752-1.277 6.99-5.416 11.641-9.199l8.453-6.877 17.641 1.1c18.861 1.179 24.669-.653 22.117-6.98-.57-1.415-2.044-8.281-3.275-15.26-2.346-13.297-8.082-37.32-9.172-38.41-.349-.35-3.378.834-6.73 2.63-7.564 4.053-9.459 4.064-17.247.094-7.276-3.71-12.725-3.946-18.242-.793-2.181 1.247-6.107 2.267-8.725 2.267-2.617 0-6.543-1.02-8.724-2.267-5.858-3.348-10.278-2.869-15.711 1.702Zm75.933 17.261c2.399 2.892.841 5.621-3.209 5.621-3.826 0-3.82.362.208 12.287 5.06 14.981 4.058 18.527-5.405 19.13-8.802.561-10.864-4.752-2.23-5.748 5.195-.6 5.187-.528 1.175-12.187-5.46-15.866 1.12-29.15 9.461-19.103Zm-30.439 2.517c.345 1.827-2.002 2.957-9.276 4.459-10.372 2.142-11.94 1.824-10.428-2.118 2.092-5.45 18.742-7.429 19.704-2.34Zm-6.306 12.938c4.085 4.084 1.528 12.371-3.818 12.371-2.035 0-3.652-8.408-2.154-11.206 1.9-3.55 3.312-3.825 5.972-1.165ZM445.76 111.56c0 4.452-5.073 6.5-7.321 2.953-2.935-4.629-1.617-7.924 2.958-7.397 3.455.396 4.363 1.321 4.363 4.444Zm81.751 27.709c-2.203 2.655 1.044 4.034 9.497 4.034 6.033 0 10.073-2.58 6.012-3.841-6.435-1.997-13.934-2.09-15.509-.193Zm200.516 228.573c-11.086 6.663-14.95 10.082-20.593 18.222l-4.169 6.016 6.179 5.583c8.16 7.37 13.963 19.616 17.27 36.441 3.054 15.543 2.838 15.405 14.101 8.963 27.946-15.988 34.894-57.731 10.715-64.386-1.957-.538-3.206-1.55-2.774-2.248.431-.697-.765-.864-2.657-.369-2.908.76-3.243.428-2.158-2.13 5.603-13.214-.3-15.474-15.914-6.092Z" clip-rule="evenodd"/><path fill="#CDE801" fill-rule="evenodd" d="M202.448 241.054c-13.648 9.558-6.588 30.721 10.251 30.721 9.637 0 14.99-4.884 16.094-14.681 1.574-13.956-14.952-24.019-26.345-16.04Zm722.655 782.766c-15.249 8.53-7.747 71.45 10.031 84.14 25.663 18.31 97.626 17.36 119.376-1.58 16.01-13.95 27.19-67.18 16.87-80.3l-3.27-4.16-70.175.21c-40.333.12-71.304.84-72.832 1.69Zm-688.016 55.41c-17.48 34.76-21.774 65.11-11.011 77.81 2.96 3.49 3.282 3.55 5.311.94 3.152-4.05 104.788-4.29 106.339-.25.533 1.39.567 3.17.076 3.97-.503.81 3.955 1.44 10.227 1.44 23.642 0 17.729-13.62-20.285-46.74-9.433-8.21-14.44-13.7-14.44-15.83 0-2.6-2.159-4.01-10.708-6.96-16.023-5.52-38.005-15.1-49.196-21.44l-9.933-5.63-6.38 12.69Zm435.514 28.55c-11.342 3.35-30.973 8.32-43.624 11.04-31.537 6.79-31.034 6.6-30.404 11.16 2.297 16.63 21.719 39.11 24.524 28.38.82-3.14 1.87-3.18 69.585-2.77l68.752.41.507 3.57c.657 4.63 22.968 5.58 24.704 1.06 4.314-11.24-1.959-18.2-28.926-32.09-19.867-10.23-59.577-27.39-62.634-27.06-1.025.11-11.142 2.95-22.484 6.3Z" clip-rule="evenodd"/><path fill="#9A2C3C" fill-rule="evenodd" d="M258.18 1156.4c14.613.26 38.528.26 53.141 0s2.657-.48-26.571-.48c-29.227 0-41.183.22-26.57.48Zm365.491 0c-.404.66 30.537 1.19 68.759 1.19s69.162-.53 68.758-1.19c-.403-.65-31.345-1.19-68.758-1.19s-68.356.54-68.759 1.19Z" clip-rule="evenodd"/></svg>