<svg xmlns="http://www.w3.org/2000/svg" width="1228" height="1323" fill="none"><path fill="#7C8C01" fill-rule="evenodd" d="m1073.11 26.68-5.13 5.134v44.533c0 54.791-.95 52.339 20.23 52.339 20.71 0 20.25 2.262 18.56-91.772-.29-16.015-21.45-22.447-33.66-10.234Zm24.26 69.564c9.31 6.519 5.08 23.737-6.46 26.272-14.15 3.109-23.82-14.274-13.85-24.894 4.53-4.812 14.45-5.487 20.31-1.378ZM482.349 224.023c-2.488 4.247-4.503 8.442-4.478 9.323.144 5.092 99.503 56.453 102.709 53.091.769-.806 7.898-22.847 7.898-24.419 0-.731-2.963-2.287-6.586-3.459-15.46-4.996-42.604-16.547-66.742-28.402-14.249-6.999-26.441-12.98-27.092-13.289-.652-.311-3.22 2.908-5.709 7.155Zm669.931 86.505c0 25.75.43 30.958 2.64 31.803 2.21.848 2.63 6.221 2.63 33.317v32.306l-6.58.214c-3.63.118-15.09.068-25.47-.111l-18.88-.325v14.273h50.93v377.626h14.05V571.402c0-150.73.6-228.597 1.76-229.317 1.05-.648 1.46-6.904 1.01-15.472-.41-7.911-.81-21.346-.88-29.855-.08-9.836-.77-15.077-1.89-14.387-.99.616-1.75 9.337-1.75 20.158 0 22.119-.65 24.63-6.34 24.63h-4.2v-23.711c0-22.54-.18-23.712-3.51-23.712-3.38 0-3.52 1.172-3.52 30.792ZM391.761 494.922c0 4.136 22.447 47.048 26.288 50.252 1.881 1.57 3.042 3.234 2.581 3.697-3.385 3.385 33.311 35.919 54.56 48.37 28.459 16.677 95.139 34.697 91.869 24.828-.546-1.645-4.871-2.845-12.973-3.595-66.343-6.151-119.398-44.839-152.002-110.845-7.266-14.706-10.323-18.47-10.323-12.707Zm369.73 17.976c-.598 4.59-1.92 12.141-2.941 16.781-1.89 8.599-.801 12.86 2.094 8.197 4.175-6.723 7.033-33.32 3.581-33.32-.906 0-2.137 3.753-2.734 8.342Zm-17.312 57.962c-2.643 6.519-5.249 12.844-5.794 14.051-.565 1.256.22 2.195 1.834 2.195 2.54 0 3.613-2.02 3.03-5.708-.115-.725.509-1.317 1.384-1.317 1.621 0 7.19-14.529 7.19-18.755 0-5.457-3.17-1.504-7.644 9.534Zm190.707-7.634c-1.776 3.894-1.137 4.841 8.244 12.211 10.405 8.174 18.518 19.789 26.555 38.015 21.755 49.339 46.585 77.282 68.665 77.282 7.86 0 3.79-8.292-6.35-12.936-20.34-9.309-32.271-23.335-45.789-53.825-16.728-37.727-25.587-51.299-39.058-59.844-9.764-6.191-9.856-6.198-12.267-.903Zm153.584 19.783c-.65.642-1.17 49.585-1.17 108.756v107.586l5.22 1.149c9.11 2.001 8.83 5.573 8.83-109.87V581.837h-5.86c-3.22 0-6.38.527-7.02 1.172Zm-500.74 42.527c-.59.956-2.247 11.078-3.68 22.491-3.3 26.306-5.903 41.925-8.286 49.733-10.548 34.562-40.536 28.404-61.174-12.56l-6.771-13.439-8.482-.613-8.48-.613 9.58 19.321c18.581 37.474 43.058 52.621 68.113 42.153 8.594-3.59 9.427-3.375 8.489 2.196-.448 2.657-3.636 28.146-7.084 56.644-9.296 76.849-13.94 88.329-40.162 99.286-8.522 3.56-8.279 3.672 7.31 3.372 18.469-.355 154.319-.866 218.672-.822l52.253.035.011 89.137c.01 106.203.202 107.223 22.854 122.433l7.777 5.23 55.924-.41c86.197-.61 101.629-5.21 110.756-33 4.56-13.89 5.17-268.976.68-284.757-16.373-57.543-55.135-97.206-111.183-113.767-20.833-6.155-26.68-6.38-175.517-6.743l-126.461-.308.771-14.929c1.43-27.625 1.245-30.612-1.925-31.238-1.6-.314-3.393.211-3.985 1.168Zm500.74 189.317c-1.82 1.818-1.36 20.032.69 27.418 5.03 18.121 16.54 24.103 46.38 24.103h22.01v7.703c0 16.175-16.08 36.087-33.3 41.248-21.99 6.588-86.55 1.624-91.98-7.072-2.45-3.918-5.28-4.134-8.19-.623-1.19 1.438-2.95 2.134-3.9 1.544-3.27-2.017 1.72 5.404 6.81 10.131 11.01 10.234 13 10.58 57.37 9.976 73.14-.997 88.85-17.894 87.6-94.189l-.36-21.623-6.58.547-6.59.544-.5 19.57c-.57 22.845.69 21.642-22.83 21.681-26.25.044-33.75-6.248-33.75-28.315v-13.814h-5.86c-3.22 0-6.38.527-7.02 1.171ZM442.697 939.619c-5.313 3.478-10.451 7.298-11.417 8.489-.966 1.191-23.702 16.963-50.524 35.051-60.359 40.701-64.971 45.941-62.091 70.461 2.004 17.05 3.441 18.81 48.401 59.55 14.916 13.51 28.691 26.35 30.614 28.52 1.924 2.17 4.442 3.95 5.6 3.95 1.156 0 3.135 1.25 4.396 2.76 7.289 8.79 29.232 14.48 43.669 11.34 12.213-2.66 18.826-6.47 52.032-29.97 14.61-10.33 34.794-24.39 44.855-31.23s21.714-14.81 25.9-17.72l7.609-5.27-19.37-20.04c-21.314-22.04-22.823-25.07-19.626-39.35 2.921-13.05 1.122-23.169-5.728-32.22-3.093-4.087-6.778-9.091-8.192-11.123-17.678-25.411-40.855-41.572-47.712-33.266-7.44 9.012-24.365 10.7-24.365 2.431 0-10.143-1.723-10.433-14.051-2.363Zm399.576 18.082c4.693 5.185 3.837 14.085-1.818 18.95-10.886 9.365-25.807-6.548-17.397-18.553 3.637-5.195 14.666-5.423 19.215-.397Zm-737.79 313.169c-.481 1.25-.654 13.31-.385 26.78l.492 24.51 439.321.44c350.237.36 439.632 0 440.857-1.75.844-1.21 1.296-13.47 1.003-27.23l-.531-25.03H545.299c-359.036 0-440.101.42-440.816 2.28Zm808.49 6.47 65.426.03v36.89H112.371l.5-18.01.501-18 68.5-.88c37.674-.48 202.864-.7 367.087-.47 164.223.22 328.031.42 364.014.44Z" clip-rule="evenodd"/><path fill="#CBE0E4" fill-rule="evenodd" d="M985.43 138.788c-.006 11.011.411 12.714 3.068 12.595 1.836-.083 2.19-.495.878-1.024-5.139-2.074-2.632-15.109 2.753-14.318 4.538.667 4.937.276 4.83-4.739-.107-4.993-.61-5.457-5.821-5.357l-5.703.109-.005 12.734Zm-81.413 367.087c-.449.726 6.815 1.109 16.143.852 31.299-.86 34.715-1.517 9.603-1.844-13.709-.179-25.294.267-25.746.992Zm-9.047 7.678c-.966.86-3.583 2.95-5.817 4.644-5.08 3.853-6.146 11.669-2.092 15.336 3.483 3.153 3.774 2.888 11.274-10.232 2.666-4.664 4.384-8.946 3.815-9.513-.567-.569-1.033-.409-1.033.353s-.987.588-2.195-.385c-1.295-1.043-2.916-1.127-3.952-.203ZM114.983 1278.98c-.404.41-.733 8.11-.733 17.12v16.39l211.207.44c116.165.25 310.231.25 431.26 0l220.052-.45-.502-16.98-.503-16.98-430.024-.13c-236.515-.08-430.355.19-430.757.59Z" clip-rule="evenodd"/><path fill="#8EBBC5" fill-rule="evenodd" d="M989.573 83.9c-1.395 3.63.495 7.904 3.495 7.904 2.579 0 5.159-6.541 3.585-9.088-1.481-2.394-5.998-1.639-7.08 1.184ZM63.304 93.414c-22.608 7.037-28.984 18.306-28.923 51.108l.044 23.74 7.707 15.34c5.043 10.038 8.716 15.342 10.627 15.342 3.706 0 10.556 7.196 10.556 11.09 0 1.63.593 2.8 1.317 2.601.724-.198 4.373.684 8.11 1.96 7.6 2.596 23.632 1.748 25.548-1.354.678-1.094 1.138-28.668 1.024-61.274l-.207-59.285-15.701-.32c-8.634-.175-17.682.299-20.102 1.052Zm117.689 44.221v17.399h6.02c7.099 0 7.373-.762 6.584-18.381l-.569-12.725-6.017-1.846-6.018-1.847v17.4ZM1155.8 259.478c0 5.552 5.59 8.853 10.53 6.209 6.86-3.671 4.57-10.538-3.51-10.538-6.3 0-7.02.45-7.02 4.329ZM87.695 342.103C15.6 356.467 13.254 462.383 84.68 478.25c16.655 3.699 15.381 9.478 15.272-69.332-.05-38.203-.214-69.388-.361-69.297-.148.092-5.5 1.207-11.895 2.482Zm82.765 21.504c.004 2.329 1.53 3.107 6.297 3.212 7.266.158 9.641 2.977 8.764 10.4-.342 2.898-.711 7.837-.818 10.977-.185 5.364-.594 5.717-6.783 5.847-3.622.076-5.566.548-4.318 1.049 1.743.699 1.794 1.482.224 3.374-3.295 3.971 8.687 3.132 15.616-1.094 17.464-10.648 9.488-36.839-11.218-36.839-6.23 0-7.767.609-7.764 3.074Zm884.9 96.746c.47 15.352.96 17.989 3.21 17.125 1.47-.563 12.48-1.023 24.48-1.023h21.81v-33.19l-25.03-.531-25.03-.528.56 18.147Zm-147.18 16.306c-5.127 2.046-10.238 6.423-12.557 10.755-1.554 2.905.49 3.093 33.749 3.093 31.935 0 35.181-.269 33.123-2.751-3.806-4.586-11.006-7.465-14.833-5.93-8.141 3.264-21.144 1.867-25.468-2.736-4.417-4.702-7.138-5.174-14.014-2.431Zm137.33 2.842-7.54.676.25 24.486.24 24.484h7.73c7.18 0 8.67 1.077 7.94 5.709-.11.723.39 1.224 1.11 1.11 7.28-1.151 12.72 8.132 12.73 21.723.01 9.6.22 10.099 4.4 10.099 13.06 0 .86-36.976-13.12-39.772l-5.33-1.064-.35-19.54c-.2-10.748-.39-21.714-.42-24.37-.04-2.656-.08-4.692-.09-4.523-.01.169-3.41.611-7.55.982Zm-869.496 26.597c-3.522 2.232-5.139 29.908-1.871 31.977 7.572 4.795 22.584-.269 26.122-8.81 5.808-14.023-11.935-30.974-24.251-23.167Zm711.052-.239c-6.021 2.342-9.081 12.061-5.547 17.629 1.035 1.632 1.973 1.045 3.427-2.146 1.1-2.415 4.003-4.895 6.451-5.51 5.122-1.286 6.294-8.436 1.672-10.208-1.528-.587-2.91-1.003-3.073-.927-.162.075-1.481.598-2.93 1.162Zm19.363 8.661c.022.799 3.275 3.825 7.231 6.723 3.953 2.899 9.256 7.955 11.78 11.238 4.015 5.216 13.431 11.097 18.709 11.68.966.107 5.195 1.172 9.399 2.366 9.795 2.784 9.762 2.835 10.8-16.203l.878-16.106-29.42-.576c-16.18-.318-29.4.077-29.377.878ZM155.745 922.214l-15.59.511.905 8.03c4.189 37.151 87.952 45.911 101.295 10.593 1.027-2.719 1.869-8.055 1.869-11.856v-6.911l-10.978-.077c-6.036-.041-22.438-.239-36.445-.44-14.007-.198-32.483-.131-41.056.15Zm692.68 205.836v17.59h96.442l1.063-5.7c.583-3.15.817-10.85.518-17.13l-.543-11.42-48.74-.46-48.74-.47v17.59ZM198.919 1313.8c6.48.34 17.545.34 24.59.01 7.046-.34 1.746-.61-11.779-.61-13.524-.01-19.288.27-12.811.6Zm421.536 0c6.479.34 17.545.34 24.59.01 7.046-.34 1.746-.61-11.779-.61-13.524-.01-19.289.27-12.811.6Zm81.818 0c6.076.35 15.56.35 21.077 0 5.517-.35.546-.63-11.046-.63-11.592.01-16.106.29-10.031.63Z" clip-rule="evenodd"/><path fill="#5C7A7D" fill-rule="evenodd" d="M983.761 60.953c-1.477 1.78-1.566 3.506-.305 5.863.983 1.839 1.342 5.05.795 7.138-.922 3.527-.351 3.797 7.994 3.797h8.985v-7.904c0-8.462-.31-8.689-11.414-8.204-4.493.197-4.751-.005-1.757-1.368 2.73-1.242 2.875-1.625.654-1.721-1.572-.067-3.8 1.011-4.952 2.399Zm5.415 54.707c-.356 6.899.032 7.963 2.719 7.445 4.128-.794 6.464-13.117 2.758-14.54-4.514-1.731-5.055-1.032-5.477 7.095Zm99.874 98.096c0 3.859.78 4.507 5.39 4.507 4.59 0 5.31-.59 4.83-3.952-.88-6.212-10.22-6.72-10.22-.555Zm61.48 8.345c0 5.829 3.02 14.084 5.82 15.858 3.36 2.141 15.25 1.615 15.25-.676 0-1.131 1.08-3.305 2.4-4.83 1.48-1.711 2.09-5.225 1.58-9.179l-.81-6.404-12.12.257c-11.92.254-12.12.337-12.12 4.974Zm-82.99 220.53c7 .332 18.46.332 25.46 0 7.01-.334 1.28-.608-12.73-.608s-19.74.274-12.73.608Zm2.63 35.126c6.52.337 17.19.337 23.71 0 6.52-.339 1.19-.615-11.85-.615s-18.38.276-11.86.615Zm-186.279 24.604c.412 2.132 2.2 3.047 5.836 2.989 7.31-.119 6.817-4.61-.594-5.422-4.794-.525-5.731-.091-5.242 2.433Zm32.595 5.348c-10.746.473-11.856.869-11.856 4.245 0 2.048-3.467 9.323-7.703 16.166-21.193 34.229-21.442 37.373-2.837 35.687 13.17-1.195 13.018-1.079 20.265-15.471 4.544-9.021 7.045-12.164 9.68-12.164 5.287 0 1.848-5.28-8.78-13.476-12.585-9.704-11.961-9.985 19.053-8.595 28.64 1.282 35.309.214 35.309-5.656 0-2.254-14.139-2.45-53.131-.736Zm13.846 53.128c-2.876 4.87-2.846 5.081 1.036 7.101 2.199 1.145 3.437 1.479 2.752.743-.687-.738-.112-3.534 1.274-6.214 3.595-6.952-1.037-8.443-5.062-1.63ZM614.385 670.97c11.833.304 31.199.304 43.032 0 11.833-.304 2.152-.553-21.516-.553-23.667 0-33.351.249-21.516.553Zm185.399 0c11.406.307 29.585.305 40.397-.002 10.814-.307 1.482-.558-20.736-.557-22.219 0-31.066.253-19.661.559ZM1009 1025.33c0 20.29.26 28.34.57 17.91.31-10.44.31-27.04 0-36.89-.32-9.847-.57-1.31-.57 18.98Z" clip-rule="evenodd"/><path fill="#254147" fill-rule="evenodd" d="M101.583 51.842c-.392 5.07-.76 56.446-.82 114.166l-.109 104.945h59.069l.659 8.343.659 8.343.316-8.343.316-8.343h22.833v-15.911c0-8.751-.648-15.511-1.442-15.021-3.109 1.923-13.006-6.001-12.052-9.651.738-2.818.442-3.128-1.463-1.546-6.165 5.115-11.375-17.148-6.309-26.961 1.912-3.704 3.079-7.772 2.592-9.04-.999-2.605 8.932-10.756 14.283-11.724 4.711-.853 6.362-23.666 1.837-25.403-2.179-.836-2.715-4.254-2.715-17.304V122.13l-8.246-6.425c-8.406-6.55-9.005-7.626-10.544-18.966-1.041-7.675 4.584-19.13 11.111-22.622 2.29-1.228 4.166-2.74 4.166-3.362 0-.622 3.518-1.314 7.818-1.537 16.12-.834 31.159 15.759 28.25 31.169-.659 3.489-1.272 7.296-1.361 8.463-.09 1.166-1.268 2.543-2.617 3.061-1.349.518-2.043 1.607-1.539 2.42.502.814-1.79 2.77-5.095 4.346l-6.011 2.866-.502 17.919c-.374 13.394-1.117 18.122-2.94 18.728-1.669.554-1.997.043-1.036-1.614.772-1.333.809-1.89.084-1.24-5.03 4.516-2.35 25.299 3.391 26.304 21.443 3.752 25.746 44.054 5.728 53.667-3.611 1.733-6.574 3.792-6.586 4.574-.011.781-.81.932-1.776.335-1.158-.715-1.742 17.682-1.716 53.906l.039 54.991 5.669 2.782c21.221 10.417 21.899 46.494 1.094 58.283l-6.92 3.922.197 27.731c.177 24.978.486 27.641 3.112 26.826 5.164-1.605 6.755 1.38 7.846 14.708.747 9.132 1.886 13.521 3.789 14.585 13.981 7.823 12.971 38.571-1.634 49.71-10.479 7.991-36.066 7.285-36.066-.998 0-.941-1.103-1.711-2.452-1.711-3.339 0-13.043-11.318-14.425-16.824-3.353-13.358 6.636-30.598 17.729-30.598 4.372 0 4.417-.153 4.417-14.93V467.67h12.295v-26.534c0-22.949-.358-26.397-2.654-25.515-10.282 3.945-20.929-17.856-10.958-22.435 1.209-.555.483-.588-1.609-.075-5.276 1.294-5.924-.578-4.705-13.621l1.061-11.375 8.116.359c6.047.267 6.414.168 1.444-.385l-6.671-.745.523-9.994.524-9.994 7.547-.544 7.547-.545-.284-17.897-.285-17.898h-81.268l-1.251 7.026c-.892 5.012-.641 230.722.283 253.36.068 1.695 10.096 2.196 44.031 2.196h43.942l-.471 42.592-.471 42.593-49.179.878c-48.95.875-49.18.896-49.727 4.725-.383 2.691-1.964 4.008-5.27 4.391-2.595.299 14.533.295 38.065-.009 47.118-.609 49.798-.319 45.105 4.867-22.909 25.314-144.66 13.073-156.174-15.702C8.12 648.4-1.26 646.47.908 655.166c6.845 27.459 25.433 37.509 71.189 38.489 16.905.362 31.578.956 32.605 1.321 1.186.422 1.736 7.14 1.504 18.409l-.362 17.745h10.163v-36.496l18.881-.715c21.983-.831 29.295-3.457 44.813-16.098l10.074-8.206v152.361l4.274-.818c3.864-.738 4.328-.166 4.83 5.952.307 3.724.557-49.348.557-117.935 0-149.415-.873-136.121 8.931-136.121h7.667l.53 28.541.529 28.542.393-28.668c.39-28.547.408-28.665 4.344-28.347 2.174.176 14.82.234 28.102.127l24.151-.195V311.35h-22.834l-.31-12.734-.31-12.734-1.008 12.286-1.006 12.286-23.712.009-23.711.009-.497-19.759-.497-19.76h7.856c7.785 0 7.862.06 8.545 6.587l.689 6.586.295-6.388c.348-7.535 3.031-8.396 21.4-6.859 6.263.524 16.526.557 22.805.074l11.416-.878.424-113.727.425-113.727H102.294l-.711 9.221ZM285.45 157.665c0 62.792.22 88.224.488 56.516.267-31.707.267-83.081-.001-114.166-.269-31.083-.489-5.141-.487 57.65ZM959.078 47.469c-8.755 4.29-20.045 16.127-25.799 27.052l-4.938 9.376-.521 93.967c-.448 80.728-.176 93.497 1.928 90.625 1.349-1.837 3.339-2.793 4.423-2.124 3.497 2.162 3.834-5.246 4.275-93.77.43-86.3.464-86.997 4.372-94.308 9.189-17.196 26.946-27.94 37.483-22.684 8.74 4.36 18.112 3.892 15.611-.782-5.241-9.795-24.145-13.568-36.834-7.352Zm27.386 224.113.162 118.306 3.941 8.142c3.689 7.62 9.503 13.177 19.043 18.191 2.22 1.167 3.57 1.381 3.02.475-.56-.905-.23-3.122.73-4.925 1.43-2.667.79-3.994-3.41-7.105-13.249-9.792-12.782-4.835-12.742-135.03l.034-116.362h-10.939l.161 118.308Zm165.816-78.789c0 6.441.77 11.417 1.76 11.417s1.76-4.976 1.76-11.417c0-6.44-.77-11.416-1.76-11.416s-1.76 4.976-1.76 11.416Zm-310.842 69.48c-.051 39.784-.449 72.91-.881 73.611-.434.7 1.486 3.454 4.266 6.119l5.057 4.842.646-12.916c.355-7.105.62-42.163.59-77.905l-.056-64.987-4.763-.55-4.764-.548-.095 72.334Zm244.802-66.552c.1 3.058 1.19 5.766 2.42 6.016 1.23.249 1.43.051.44-.439-4.36-2.161-1.61-5.87 4.34-5.87 7.33 0 9.14 6.205 2.2 7.542-3.39.653-3.26.796.88 1.001 4.5.223 4.83-.235 4.83-6.787v-7.025h-7.64c-7.45 0-7.64.142-7.47 5.562Zm17.53 14.636c.01 11.593.29 16.106.63 10.031.35-6.075.35-15.56 0-21.077-.35-5.517-.63-.546-.63 11.046ZM178.359 195.7c-12.764 6.982-9.4 24.869 5.374 28.578 7.911 1.985 16.425-4.919 16.525-13.399.152-12.939-11.38-20.933-21.899-15.179Zm757.008 77.009c-.597.966-.597 2.547 0 3.513.597.966-.147 1.757-1.653 1.757-1.505 0-2.738-1.186-2.738-2.635 0-7.068-2.684-1.489-2.956 6.147-.258 7.189.221 8.777 2.638 8.756 5.484-.051 7.012-2.534 6.738-10.948-.294-8.966-.381-9.254-2.029-6.59ZM99.76 284.555c7.969.325 21.012.325 28.981 0 7.968-.325 1.449-.592-14.491-.592s-22.459.267-14.49.592Zm184.861 154.661.878 129.447.45-128.117c.249-70.465-.146-128.716-.877-129.449-.732-.73-.934 56.923-.451 128.119Zm631.947-83.517c-.751 25.74 1.374 39.345 6.352 40.682 5.731 1.54 15.693 1.152 18.594-.724 1.994-1.287 1.218-1.709-3.189-1.73-19.025-.087-26.381-42.336-9.235-53.045 5.597-3.495 4.384-4.942-4.152-4.942h-7.794l-.576 19.759Zm-60.59.696c-1.623.659-1.635 1.941-.056 5.569 2.975 6.833 2.346 62.808-.887 78.921-1.405 7.004-2.322 12.734-2.038 12.734 25.373 0 48.115-22.424 48.092-47.423l-.009-9.66-10.575-4.922c-11.852-5.515-19.141-13.953-24.092-27.893-2.876-8.095-4.953-9.555-10.435-7.326Zm189.162 31.23c0 17.636-.37 20.167-3.07 20.874-2.93.764-2.93.813 0 1.006 2.68.177 3.07 2.204 3.07 16.011v15.808h59.31l.78-11.856c.43-6.52.42-23.119-.03-36.884l-.83-25.029h-59.23v20.07Zm-35.56 91.776c-2.75.732-3.08 3.476-3.08 25.394v24.572l5.71-.552 5.71-.549v-24.565c0-25.963-.18-26.483-8.34-24.3Zm44.34 21.684v22.877l4.83 1.829c11.74 4.447 17.49 13.875 19.11 31.32l1.16 12.43h-5.3c-5.82 0-7.5-3.934-7.5-17.546 0-6.826-5.93-16.707-8.92-14.861-4.07 2.513-1.88 42.938 2.33 43.061 2.18.064 13.21.501 24.51.972l20.57.859.51-31.271c.29-17.199.29-40.559.02-51.909l-.49-20.638h-50.83v22.877Zm-888.422 6.106c-5.409 6.878-5.342 20.398.127 25.51l3.952 3.692 1.133-13.63c1.498-18.033.073-22.291-5.212-15.572Zm628.918-3.099c-9.137.64-9.221.699-9.221 6.459 0 5.139.474 5.72 4.094 5.028 2.25-.43 6.992.43 10.539 1.911l6.444 2.693v-8.693c0-4.781-.592-8.546-1.318-8.367-.725.179-5.465.614-10.538.969ZM232.704 835.636c.001 28.014.244 39.229.539 24.921.295-14.307.295-37.228-.002-50.935-.295-13.707-.537-2.001-.537 26.014Zm797.016-31.329c-12.75 6.286-13.5 9.107-14.09 53.563-.43 32.604-.04 40.957 2.15 46.218l2.69 6.423 4.44-3.188c3.2-2.303 4.13-4.164 3.31-6.701-9.59-29.95-.48-88.68 13.76-88.701 1.28-.002 2.45-2.312 2.65-5.27.44-6.282-5.14-7.16-14.91-2.344Zm-869.146 75.239c.003 10.626.293 14.746.642 9.156.35-5.589.346-14.283-.007-19.321-.353-5.035-.639-.462-.635 10.165Zm253.388-14.93c1.042 1.449 2.394 5.401 3.006 8.782 1.608 8.891 15.682 71.017 16.259 71.765.266.348 2.704-.924 5.416-2.824 20.39-14.289 32.971-17.311 41.17-9.891 3.165 2.863 3.176 3.155.222 6.661-3.044 3.614-3.037 3.623.563.593 8.133-6.846 15.181-3.346 34.471 17.118 16.793 17.813 19.361 14.629 28.66-35.542l4.961-26.766 75.661-.541c73.24-.523 72.843-.538-12.434-.457-53.192.049-87.697-.557-87.092-1.533.593-.959-.366-1.012-2.363-.13-21.491 9.495-81.24-5.269-106.058-26.209-2.385-2.013-3.485-2.475-2.442-1.026Zm573.344 286.844c-3.594 9.45-3.02 14.18 1.935 15.94 7.133 2.52 13.749-2.45 13.749-10.32 0-9.49-12.509-13.97-15.684-5.62Z" clip-rule="evenodd"/><path fill="#579AA8" fill-rule="evenodd" d="M589.695 265.247c-.411.725-2.446 6.497-4.522 12.829l-3.778 11.511 8.857 33.955c4.872 18.674 9.428 34.95 10.128 36.169 1.292 2.252 6.01 5.709 88.213 64.625 25.599 18.348 48.782 35.012 51.515 37.03 4.247 3.137 8.359 3.817 28.227 4.669 30.258 1.298 36.165 5.108 37.933 24.47 1.038 11.382 3.309 11.849 18.446 3.794 38.825-20.657 46.393-151.23 9.109-157.119-5.206-.822-30.785 3.214-86.391 13.633-47.721 8.942-103.172 18.659-103.582 18.151-.233-.292-7.311-18.707-15.726-40.926-15.861-41.879-19.69-49.504-29.457-58.658-5.984-5.609-7.689-6.395-8.972-4.133ZM305.698 1072.44c-39.078 30.73-34.506 46.72 23.335 81.59l32.847 19.8 19.234-13.5c16.76-11.76 18.964-13.87 17.136-16.45-2.412-3.4-51.909-49.2-60.554-56.03-3.17-2.51-8.636-8.71-12.147-13.78-7.707-11.13-7.751-11.14-19.851-1.63Zm510.966 38.51c-10.867 14.92-11.429 17.04-5.731 21.63 8.598 6.93 19.756 11.62 28.347 11.91l8.267.27v-33.14l-6.047-1.57c-3.327-.86-7.653-2.69-9.613-4.07-5.847-4.09-9.486-2.9-15.223 4.97Zm-599.661 60.43c1.324 5.65 6.806 28.3 12.181 50.34 5.374 22.03 9.771 41.2 9.771 42.59 0 5.64 11.919 2.94 20.038-4.54 32.48-29.94 9.453-89.15-37.926-97.52l-6.472-1.15 2.408 10.28Zm513.744 59.15c-9.118 2.37-9.058 2.09-4.588 21.66 4.944 21.65 29.539 21.97 40.629.52 9.897-19.14-7.217-29.67-36.041-22.18Z" clip-rule="evenodd"/><path fill="#676A6A" fill-rule="evenodd" d="M1146.43 208.893c-.65.643-1.16 2.027-1.15 3.074.02 1.18.54 1.096 1.38-.223.85-1.342 7.47-2.34 17.98-2.708l16.62-.585-16.83-.364c-9.26-.202-17.36.162-18 .806ZM112.055 658.672c11.834.304 31.197.304 43.032 0 11.834-.304 2.151-.553-21.516-.553-23.668 0-33.351.249-21.516.553Zm914.485 201.552c0 16.423.26 23.378.59 15.455.32-7.921.32-21.358 0-29.859-.32-8.499-.59-2.018-.59 14.404Z" clip-rule="evenodd"/><path fill="#000200" fill-rule="evenodd" d="M571.099 6.692c-12.711 6.871-15.537 7.21-27.154 3.253-15.009-5.115-26.538.309-35.444 16.673-4.962 9.114-10.504 13.168-20.443 14.954-19.386 3.483-23.334 25.1-7.598 41.597 5.313 5.572 9.66 11.73 9.66 13.686 0 12.384 4.066 22.322 12.488 30.514 10.478 10.192 16.652 11.318 14.436 2.635-8.638-33.846 26.971-53.463 44.029-24.256 5.787 9.909 6.251 34.929.843 45.508-6.226 12.179-5.968 31.462.568 42.582 12.528 21.311 60.005 41.648 79.682 34.132 15.741-6.01 18.716-13.485 22.568-56.691l2.074-23.272-12.379-.352c-19.166-.542-21.667-.242-30.821 3.696-22.218 9.558-40.687-1.656-45.301-27.505-5.027-28.159 15.751-49.837 57.798-60.301 30.166-7.509 41.107-23.415 25.944-37.719-3.009-2.836-7.384-8.153-9.726-11.813-5.817-9.091-11.063-10.818-22.652-7.447-12.425 3.61-15.27 3.42-25.385-1.706-11.803-5.982-19.524-5.555-33.187 1.832ZM274.081 43.034c-.002.256-.2 51.645-.439 114.194l-.438 113.727h11.417V43.369l-5.269-.4c-2.898-.222-5.271-.192-5.271.065Zm-97.354 48.014c-3.788 3.79-3.458 7.09 1.026 10.231 4.477 3.136 9.416 1.239 11.171-4.29 2.309-7.276-6.546-11.59-12.197-5.94Zm439.255 1.52c-4.676 1.255-10.187 3.97-12.246 6.028l-3.743 3.744 3.689 3.689c3.244 3.244 4.192 3.412 7.854 1.393 2.292-1.265 10.802-2.728 18.913-3.252 17.308-1.117 21.973-4.572 14.478-10.722-4.886-4.01-16.036-4.35-28.945-.88Zm-76.822 22.325c-2.627 4.913.64 16.51 5.364 19.038 3.877 2.076 4.447 1.387 6-7.224 2.254-12.504-6.258-21.351-11.364-11.814Zm88.04 2.28c-2.73 3.288-1.734 9.792 1.842 12.031 7.479 4.685 17.613-5.323 12.109-11.957-2.768-3.336-11.208-3.379-13.951-.074Zm22.132 55.423c7.537 0 7.646.086 7.646 6.019 0 15.19-24.337 18.141-34.143 4.139-6.376-9.104-3.925-12.538 8.055-11.285 5.937.62 14.236 1.127 18.442 1.127Zm434.608 39.345c.4 22.74 4.47 31.912 7.48 16.86.63-3.135 2.16-5.269 3.78-5.269 1.62 0 3.15 2.134 3.78 5.269 2.36 11.801 4.11 3.959 3.82-17.125-.17-12.316-.61-19.036-.98-14.929-.74 8.139-2.85 9.144-11.97 5.676-3.78-1.436-4.54-2.654-3.87-6.189.47-2.42.11-4.855-.79-5.412-.98-.606-1.48 7.818-1.25 21.119Zm-919.954-11.875c-3.932 6.002-3.908 17.067.056 24.718l2.923 5.642 6.177-3.645 6.179-3.646-4.649-4.309c-4.032-3.737-4.531-5.334-3.774-12.063 1.161-10.296-2.336-13.682-6.912-6.697Zm-111.924 3.476c-.573 1.493-1.042 10.848-1.042 20.791 0 27.238-3.31 34.439-22.34 48.61-13.029 9.7-16.037 13.234-22.229 26.114L.963 310.474.48 480.405 0 650.337h8.798l.474-169.053.473-169.054 5.43-10.538c3.557-6.9 8.106-12.501 13.173-16.221 4.26-3.124 11.826-9.265 16.818-13.642l9.073-7.961 1.084 4.932c4.412 20.089 13.496 23.885 59.806 24.988l36.884.878.541 8.492c.432 6.759 1.087 8.282 3.218 7.465 1.471-.566 3.402-1.028 4.289-1.028 1.877 0 2.051-10.009.467-26.785-1.323-14.003-9.393-18.935-9.393-5.741 0 8.09-1.414 8.367-38.91 7.645-46.834-.901-49.46-3.469-50.373-49.221-.589-29.436-5.103-44.168-9.79-31.951ZM1101 214.221l.54 7.375-6.98-.277c-7.45-.297-10.53-6.056-6.8-12.725 3.6-6.431 12.65-2.586 13.24 5.627Zm46.22.968c.11 3.14.56 4.324 1 2.635 1.39-5.315 28.18-4.504 29.05.878.44 2.771.9 1.986 1.52-2.635l.89-6.586h-32.67l.21 5.708Zm-210.771 50.003c-.112 1.177-1.328 1.707-2.703 1.18-1.431-.55-3.335.601-4.453 2.689-1.301 2.429-1.345 3.65-.135 3.65 1 0 1.818 1.186 1.818 2.635 0 1.449 1.121 2.634 2.489 2.634 1.368 0 2.835.989 3.258 2.196.423 1.208.785-.064.804-2.823.025-3.467-.432-4.28-1.475-2.634-.831 1.31-1.521 1.552-1.537.539-.014-1.014.838-2.709 1.895-3.766 1.056-1.056 1.544-3.388 1.082-5.181-.461-1.794-.93-2.298-1.043-1.119Zm-713.741 5.264c-4.059.615-4.856 1.625-4.997 6.323-.091 3.075-.439 11.719-.773 19.204l-.608 13.612h10.33v-19.174c0-13.695.627-19.426 2.195-20.06 2.472-.998.901-.973-6.147.095Zm18.003 20.404c0 30.863 7.619 30.602 8.401-.288l.497-19.617h-8.898v19.905Zm33.372 151.344v130.851h10.538V311.352h-10.538v130.852Zm-109.482-62.936c-1.305 13.96-1.064 14.287 9.806 13.289l8.343-.764v-22.48h-6.003c-3.303 0-7.137-.434-8.521-.966-1.97-.755-2.756 1.609-3.625 10.921Zm848.909 32.221c-3.03 5.672-.76 6.696 16.27 7.319l15.37.562v-4.83c-.01-4.751-.19-4.83-10.99-4.854-6.03-.013-12.68-.483-14.77-1.044-2.76-.739-4.37.041-5.88 2.847ZM71.73 513.317c-20.554 6.196-22.467 12.941-22.467 79.213 0 60.412.39 62.876 11.155 70.541 8.958 6.377 28.46 6.788 29.638.623.847-4.428.595-4.575-7.751-4.575-23.304 0-24.26-2.578-24.26-65.435 0-68.515.64-70.182 27.407-71.306l14.747-.618v-10.179l-11.856.151c-6.521.083-13.996.796-16.613 1.585Zm848.13 28.562c-7.656 12.529-11.577 20.513-10.41 21.204 8.028 4.751 15.867 3.04 20.19-4.404 7.15-12.314 7.273-14.19 1.166-17.678-6.947-3.966-8.039-3.878-10.946.878Zm-702.121 59.595c-.212 44.063.128 50.375 3.588 66.427 2.983 13.835 3.167 23.58 2.528 132.863-.725 123.584-.59 126.057 6.49 118.799 3.233-3.314 2.378-243.015-.917-256.633-2.431-10.053-3.172-21.217-3.379-50.935-.267-38.042-.269-38.061-4.219-38.623l-3.952-.561-.139 28.663Zm128.53 69.657-4.215.597 1.22 41.632c1.662 56.658 5.735 73.437 24.787 102.094 60.299 90.703 179.962 108.04 193.85 28.087 1.872-10.783 14.272-108.201 14.272-112.132 0-1.022-3.637-.227-8.207 1.793-26.822 11.866-55.966-9.284-73.641-53.438l-3.337-8.338-14.929-.105c-89.268-.636-126.263-.689-129.8-.19Zm164.302 2.917c10.063 32.618 41.857 55.488 55.499 39.923 5.812-6.63 13.624-30.863 13.626-42.273 0-.639-15.797-1.162-35.103-1.162-34.296 0-35.081.08-34.022 3.512Zm-405.092 73.33c.017 30.514 6.001 38.845 29.286 40.773 26.044 2.155 27.115 3.891 26.905 43.589a8842.238 8842.238 0 0 0-.074 58.785l.077 30.298h8.947l-.521-62.792-.522-62.791-4.136-5.51c-5.451-7.263-11.045-9.657-24.845-10.635-22.766-1.612-25.367-4.779-25.034-30.472l.227-17.492h-10.321l.011 16.247Zm85.468 74.501c-.645.643-1.172 23.169-1.172 50.058v48.886h8.782v-50.058c0-51.961-.611-55.887-7.61-48.886Zm352.798 99.383c-5.563 30.074-8.256 39.055-13.328 44.456l-3.495 3.72 6.813 8.626c11.137 14.098 11.385 14.985 10.034 35.836-1.402 21.63-3.718 17.08 23.077 45.29l15.485 16.31 27.224-18.93c61.623-42.83 87.704-85.084 90.035-145.847l.623-16.246H548.698l-4.953 26.785ZM249.588 1073.87c-37.285 6.18-61.822 80.61-28.564 86.64 47.616 8.63 72.102 67.82 40.729 98.45-9.68 9.46-11.382 9.16 55.226 9.49 76.251.37 73.95 2.35 51.071-43.89-13.839-27.96-15.07-33.11-10.308-43.15 1.575-3.32 2.562-6.33 2.195-6.7-.369-.37-15.291-9.45-33.162-20.17-48.319-29-56.242-41.8-40.438-65.33l5.145-7.66-4.748-2.52c-4.728-2.5-22.482-7.26-25.824-6.92-.966.09-6.062.89-11.322 1.76Zm494.679 56.74c-30.853 11.01-39.176 32.69-28.571 74.44 7.034 27.69 5.819 26.01 16.948 23.44 33.694-7.77 51.332 11.49 29.59 32.32-2.828 2.71-5.141 5.57-5.141 6.35 0 .79 22.13 1.43 49.179 1.43 44.194 0 49.179-.29 49.179-2.85 0-1.57-3.639-16.76-8.086-33.76-6.908-26.41-7.92-32.39-6.942-41.04 2.071-18.31.583-21.5-11.768-25.24-12.101-3.66-26.175-12.28-39.069-23.92-15.326-13.83-28.647-17.11-45.319-11.17Z" clip-rule="evenodd"/><path fill="#F7F4EB" fill-rule="evenodd" d="M185.29 75.557c.641 2.656 2.504 5.782 4.143 6.945 12.351 8.772 13.062 26.866 1.057 26.866-6.286 0-8.425 9.527-2.559 11.388 14.385 4.567 27.576-19.057 19.696-35.273-5.796-11.932-24.863-20.403-22.337-9.926Zm1.176 102.611c-.116 1.677-2.271 3.406-5.033 4.034-8.217 1.876-15.557 9.404-12.322 12.638 2.38 2.381 3.237 2.367 8.064-.129 12.219-6.319 24.895 1.664 24.895 15.678 0 9.795-9.245 17.51-18.756 15.651-7.837-1.531-12.97 3.056-8.7 7.776 1.778 1.965 4.929 3.815 7.001 4.11 3.56.507 3.769 1.488 3.769 17.664 0 9.421.592 17.127 1.318 17.125.725 0 1.317-7.842 1.317-17.427v-17.424l5.178-1.138c23.082-5.069 25.08-42.125 2.803-51.98-4.254-1.882-8.093-4.792-8.532-6.467-.712-2.721-.819-2.732-1.002-.111Zm272.395 61.119c-57.345 23.655-96.358 75.288-113.209 149.833-3.497 15.469-3.693 22.155-4.361 147.931l-.699 131.73 118.819-.291c65.352-.162 119.156-.627 119.563-1.037.41-.409 1.976-10.143 3.483-21.63 2.572-19.612 4.036-23.493 8.881-23.56 5.464-.074 6.375 4.95 4.373 24.119-1.085 10.387-1.971 19.875-1.969 21.082.004 1.711 11.555 2.166 52.258 2.057 28.738-.076 51.463-.469 50.497-.873-2.143-.898-1.256-27.145 1.01-29.88.871-1.052 4.951-2.919 9.068-4.152 8.905-2.666 24.154-12.486 27.259-17.555 1.218-1.983 3.438-3.606 4.934-3.606 1.498 0 2.334-.633 1.857-1.405-.478-.771 1.84-4.829 5.153-9.014 16.313-20.615 37.661-70.383 37.661-87.801v-12.434h8.657c9.24 0 15.168-3.66 13.399-8.274-.539-1.403-.98-4.869-.98-7.702 0-3.409-2.018-7.354-5.968-11.664l-5.968-6.513-23.452-.925c-12.899-.511-24.538-1.629-25.868-2.486-4.379-2.822-141.574-101.516-143.069-102.918-.805-.755-5.775-17.435-11.046-37.068-5.271-19.634-9.917-36.028-10.321-36.433-.405-.404-7.097-3.339-14.871-6.522-25.454-10.419-82.319-41.342-87.088-47.358-1.486-1.872-4.951-1.036-18.003 4.349Zm-273.477 88.479v19.594l-7.464.539c-11.006.798-11.654 10.878-.699 10.878 7.782 0 17.515 5.764 20.846 12.347 7.147 14.123-4.457 31.54-21.025 31.556-6.106.007-6.587.381-6.587 5.137 0 5.162 5.682 8.262 12.481 6.81 1.983-.424 2.628 4.819 3.395 27.579l.945 28.102.372-28.496.371-28.497 4.83-2.512c23.569-12.261 23.104-50.101-.727-59.161-3.971-1.51-4.103-2.211-4.103-21.698 0-11.076-.592-20.506-1.317-20.956-.726-.45-1.318 8-1.318 18.778Zm219.735 182.5c30.956 61.952 94.016 106.701 150.363 106.701 8.208 0 13.676 2.579 13.676 6.452 0 9.994-65.217-7.442-96.774-25.872-35.011-20.448-82.379-79.962-82.379-103.501 0-8.687 5.752-2.514 15.114 16.22Zm-229.957-15.433c-6.397 6.397-3.885 10.668 5.875 9.992 21.546-1.493 29.977 21.57 12.299 33.649-4.729 3.232-13.463 3.871-17.552 1.286-3.181-2.011-7.085.853-7.085 5.197 0 13.633 34.072 7.025 41.198-7.99 11.548-24.338-17.406-59.463-34.735-42.134Zm591.849 21.394c-1.272 15.06-4.958 25.215-9.149 25.215-2.226 0-2.721-1.155-2.076-4.83.467-2.656 1.86-10.758 3.095-18.003 3.797-22.25 9.962-24.057 8.13-2.382Zm-14.236 47.395c-1.512 8.06-8.671 24.379-11.446 26.095-5.536 3.421-5.772-2.751-.548-14.401 2.94-6.555 5.812-13.303 6.381-14.992 2.158-6.394 6.908-3.603 5.613 3.298Z" clip-rule="evenodd"/><path fill="#FFC83A" fill-rule="evenodd" d="M169.947 77.626c-9.904 9.24-10.916 24.324-2.237 33.382 5.532 5.776 10.549 6.953 12.124 2.847.536-1.395 3.803-3.069 7.258-3.717 12.621-2.367 15.419-15.07 5.401-24.517-3.336-3.148-6.583-7.785-7.216-10.307-1.649-6.572-6.606-5.824-15.33 2.312Zm18.85 12.812c3.453 4.929 3.448 7.427-.025 10.901-4.408 4.408-12.765 3.544-15.09-1.56-4.455-9.776 8.992-18.084 15.115-9.34Zm790.661 2.65c-6.541 6.54 1.721 16.736 8.954 11.047l4.846-3.813 2.951 3.644c4.971 6.139 8.531 4.681 8.531-3.488v-7.134l-7.46 1.115c-4.104.613-9.556.316-12.114-.659-2.557-.975-5.127-1.296-5.708-.713Zm99.052 5.74c-4.42 4.42-4.66 14.278-.44 17.904 13.16 11.299 31.15-4.925 18.96-17.104-5.32-5.324-13.63-5.682-18.52-.8Zm13.63 136.642c-10.91.477-11.93.857-12.92 4.824-2.08 8.284-.16 9.585 14.17 9.585h13.23v-6.922c0-8.309.33-8.137-14.48-7.487ZM173.968 481.757v12.328l4.83-1.25c6.049-1.569 8.594-1.537 16.064.193 5.659 1.312 5.907 1.17 4.853-2.766-.61-2.28-1.121-7.901-1.133-12.49l-.025-8.343h-24.589v12.328Zm650.871 476.954c-6.845 6.847-1.102 18.318 9.173 18.318 6.016 0 9.144-3.773 9.144-11.029 0-8.571-12.186-13.421-18.317-7.289Z" clip-rule="evenodd"/><path fill="#FCC" fill-rule="evenodd" d="M844.254 83.237c-1.704 8.52-1.295 22.614.659 22.614 1.024 0 1.756-5.854 1.756-14.051 0-15.026-.657-17.355-2.415-8.563ZM949.255 448.35c0 15.939.267 22.461.592 14.49.325-7.97.325-21.01 0-28.981-.325-7.97-.592-1.449-.592 14.491Z" clip-rule="evenodd"/><path fill="#FAA" fill-rule="evenodd" d="M1082.78 297.302c.11 16.245 3.08 26.883 3.93 14.051l.28-4.391-1.16 4.391c-.7 2.631-1.57-3.002-2.17-14.051l-1.01-18.443.13 18.443ZM864.672 1168.02c6.52.34 17.192.34 23.712 0 6.519-.34 1.185-.61-11.856-.61s-18.376.27-11.856.61Z" clip-rule="evenodd"/><path fill="#EA7B5D" fill-rule="evenodd" d="M653.449 60.092c-1.458.854-9.11 3.162-17.005 5.127-45.537 11.332-65.028 35.535-54.041 67.108 6.871 19.746 19.947 24.955 41.899 16.692 10.076-3.793 13.157-4.149 28.142-3.255l16.828 1.005v-5.972c0-7.024-8.378-74.805-9.8-79.291-1.087-3.43-2.155-3.68-6.023-1.414Zm-7.01 31.712c7.988 7.988 2.387 14.051-12.837 13.895-5.981-.062-14.304 1.124-18.497 2.634-10.556 3.803-15.584 1.096-14.394-7.747 1.325-9.836 37.691-16.82 45.728-8.782ZM527.645 96.93c-8.287 5.053-12.353 16.993-9.7 28.482 2.717 11.769 2.666 12.057-2.098 12.057-3.872 0-19.559 46-25.055 73.477-1.35 6.754 80.505 47.715 95.35 47.715.848 0 5.271-7.504 9.827-16.675l8.283-16.674-13.944-7.012c-31.777-15.976-43.453-41.505-30.371-66.395 15.869-30.192-7.549-70.06-32.292-54.975Zm23.492 17.934c2.615 5.484 1.107 20.224-2.201 21.493-7.089 2.719-15.092-12.79-11.313-21.916 2.811-6.785 10.186-6.553 13.514.423Zm90.333.922c4.186 3.787 4.075 8.526-.3 12.901-9.325 9.325-23.483-2.843-14.657-12.595 3.62-3.999 10.716-4.145 14.957-.306Zm-19.148 60.175c.151 2.014.943 3.662 1.762 3.662.817 0 1.005.778.418 1.73-3.808 6.158 20.357 11.302 26.938 5.735 4.457-3.773 6.836-12.137 3.46-12.172-1.273-.014-9.184-.608-17.583-1.321-14.775-1.254-15.262-1.179-14.995 2.366ZM915.168 292.26c-24.851 3.753-38.092 18.922-40.019 45.851-.769 10.767-1.344 12.339-5.015 13.733-17.822 6.776 14.066 42.582 36.282 40.742l9.631-.798v-56.723l7.703-.551c10.702-.768 12.569 1.823 5.842 8.107-14.155 13.224-9.95 45.992 6.372 49.659 26.139 5.873 42.21-26.211 33.491-66.864-4.847-22.602-28.503-37.052-54.287-33.156Zm4.239 148.189c.001 17.389.265 24.265.585 15.279.319-8.984.318-23.211-.004-31.615-.321-8.403-.583-1.052-.581 16.336Zm-133 77.721c-.413.725-1.286 4.284-1.941 7.909-2.41 13.359-28.076 66.137-38.2 78.555l-4.981 6.109 3.952 1.489c14.873 5.607 79.033 28.94 93.119 33.865 28.634 10.013 56.004 3.446 61.804-14.829.603-1.897 6.716-5.494 15.467-9.098 33.261-13.702 41.453-33.895 20.446-50.404-4.53-3.56-29.302-7.471-45.861-7.241l-15.469.214-34.225-20.869c-46.281-28.222-51.31-30.611-54.111-25.7Z" clip-rule="evenodd"/><path fill="#B86850" fill-rule="evenodd" d="m1027.14 479.453 9.22.699v23.473c0 17.135-.59 23.713-2.2 24.359-1.29.522-.91.943.93 1.024 2.88.128 3.08-1.851 2.63-24.89l-.48-25.029-9.66-.166-9.66-.169 9.22.699Z" clip-rule="evenodd"/><path fill="#CDE801" fill-rule="evenodd" d="M847.949 75.298c-.704.705-1.28 8.263-1.28 16.797v15.514h10.679l-.427-12.446c-.316-9.172-1.186-12.983-3.306-14.49-1.584-1.124-3.217-3.082-3.632-4.349-.414-1.268-1.329-1.73-2.034-1.026Zm-7.134 5.38c-1.514 1.513-1.145 15.743.585 22.54.964 3.789 1.399 1.196 1.549-9.22.207-14.507.047-15.503-2.134-13.32Zm-9.954 43.311c0 9.58.604 11.679 4.391 15.235 2.415 2.27 4.391 5.127 4.391 6.35 0 1.224.717 2.668 1.593 3.209.875.542 1.179-.597.673-2.531-.515-1.966-.055-3.515 1.042-3.515 1.08 0 1.961 1.186 1.961 2.635 0 5.076 6.645 2.562 13.829-5.231 6.669-7.236 7.248-8.638 7.248-17.564 0-9.27-1.997-12.67-4.148-7.064-.775 2.02-4.102 2.635-14.239 2.635-10.588 0-13.228-.526-13.228-2.635 0-1.449-.79-2.635-1.756-2.635-.986 0-1.757 4.874-1.757 11.111Zm332.399 157.008c-2.66.956-3.16 41.845-.53 43.473 3.46 2.139 5.36-6.469 5.36-24.315 0-18.307-.6-20.675-4.83-19.158Zm-72.45 18.06c0 14.355.33 16.002 3.07 15.474 2.64-.51 3.08-2.698 3.08-15.474s-.44-14.965-3.08-15.474c-2.74-.529-3.07 1.119-3.07 15.474Zm-9.81 20.931c-.4.402-.73 5.77-.73 11.926v11.195l14.49-.511 14.49-.509v-22.486l-13.76-.174c-7.57-.095-14.09.157-14.49.559Zm-148.707 76.974-11.855.613v76.287l11.414 3.269c17.192 4.923 16.688 6.088 16.688-38.512 0-35.35-.618-43.422-3.262-42.616-.621.19-6.465.62-12.985.959Zm88.647 107.037.49 24.033 5.71-.162c3.14-.09 6.5-.234 7.46-.321 1.08-.099 1.76-9.341 1.76-23.872v-23.711h-15.91l.49 24.033Zm-865.314 1.493c-8.875 9.576-7.179 24.658 3.865 34.353 8.888 7.806 13.172 1.533 4.871-7.131-5.645-5.891-5.814-20.039-.311-26.119 3.817-4.217 3.646-5.552-.706-5.552-1.978 0-5.452 2.002-7.719 4.449Zm950.994 12.237c0 3.481.88 4.391 4.27 4.391 17.86 0 18.05.894 17.36 83.429l-.58 70.256-4.48 3.951c-3.21 2.835-6.68 3.952-12.28 3.952-7.16 0-7.81.366-7.81 4.391 0 9.604 25.18 4.395 32.46-6.716 2.45-3.745 2.72-13.273 2.29-80.138l-.5-75.885-6.56-6.012c-8.77-8.039-24.17-9.07-24.17-1.619Zm-61.04 165.386c-1.21.488-2.19 2.796-2.19 5.13v4.245h21.07c21.04 0 21.08-.008 21.08-4.185 0-5.628-29.41-9.448-39.96-5.19Zm.8 119.377c-.68.68-1.24 3.081-1.24 5.336v4.098l56.65.138c31.15.078 66.25.021 78.01-.123 30.73-.376 35.71 2.779 35.71 22.603 0 16.825-3.98 20.241-24.53 21.032l-16.06.616.53 4.653.54 4.651h16.13c34.01 0 48.79-39.024 21.93-57.886l-7.62-5.345-79.4-.506c-43.68-.277-79.97.051-80.65.733ZM462.896 929.961c-7.075 3.983-6.952 11.051.24 13.786 8.912 3.388 21.72-6.564 14.397-11.188-6.288-3.972-10.782-4.769-14.637-2.598Zm287.171 182.099c-22.595 4.87-40.436 25.76-40.38 47.26l.018 6.52 4.106-8.78c15.179-32.45 50.028-39.42 77.159-15.43 6.966 6.16 18.553 14.13 25.745 17.71l13.078 6.5 76.938.51c72.936.48 76.939.34 76.956-2.64.011-1.73.504-6.07 1.096-9.66l1.079-6.51-77.94-.51-77.939-.51-8.782-4.9c-4.83-2.7-13.919-8.92-20.199-13.84-18.305-14.32-34.4-19.29-50.935-15.72Z" clip-rule="evenodd"/><path fill="#784031" fill-rule="evenodd" d="M1159.31 303.743c0 13.201.48 23.518 1.08 22.924.59-.594.94-10.73.78-22.526-.22-15.976.29-21.814 2-22.896 1.71-1.087 1.51-1.46-.79-1.481-2.78-.024-3.07 2.278-3.07 23.979Zm8.45-3.682c.38 14.001-.11 21.124-1.57 22.879-2.19 2.642-.87 5.812 1.46 3.494 1.83-1.825 2.81-46.696 1.02-46.7-.8-.001-1.21 9.146-.91 20.327ZM922.87 477.317c6.466 4.895 25.67 5.464 25.67.761 0-.908-1.461-.742-3.246.374-2.527 1.579-5.125 1.387-11.729-.863-10.874-3.704-15.379-3.82-10.695-.272Zm95.05 26.362c0 13.823.59 24.765 1.32 24.317.72-.446 1.31-11.39 1.31-24.317s-.59-23.871-1.31-24.317c-.73-.448-1.32 10.494-1.32 24.317Z" clip-rule="evenodd"/><path fill="#BFBFBF" fill-rule="evenodd" d="M987.181 142.435c0 11.871 7.942 12.138 9.073.304.533-5.572.134-6.2-4.243-6.703-4.549-.523-4.83-.152-4.83 6.399Zm83.939 224.668c6.07.344 15.56.343 21.07-.005 5.52-.348.55-.629-11.04-.626-11.59.004-16.11.289-10.03.631ZM154.208 1278.67c6.039.35 15.919.35 21.955 0 6.039-.34 1.098-.62-10.977-.62-12.075 0-17.014.28-10.978.62Zm46.619.01c6.56.34 16.835.33 22.833-.01 5.996-.34.629-.62-11.93-.61-12.558 0-17.465.28-10.903.62Zm186.104-.01c5.556.35 14.643.35 20.199 0 5.555-.35 1.01-.63-10.099-.63-11.11 0-15.655.28-10.1.63Zm65.865.01c9.901.32 26.106.32 36.006 0 9.901-.31 1.801-.57-18.003-.57-19.803 0-27.904.26-18.003.57Zm138.756 0c7.004.33 18.463.33 25.468 0 7.004-.34 1.273-.61-12.734-.61-14.008 0-19.739.27-12.734.61Zm107.14 0c8.935.32 23.559.32 32.494 0 8.934-.32 1.624-.58-16.247-.58s-25.182.26-16.247.58Z" clip-rule="evenodd"/><path fill="#949494" fill-rule="evenodd" d="M904.191 1146.95c7.971.32 21.01.32 28.981 0 7.97-.33 1.449-.59-14.491-.59-15.939 0-22.46.26-14.49.59Z" clip-rule="evenodd"/></svg>